<svg width="86" height="110" viewBox="0 0 86 110" fill="none" xmlns="http://www.w3.org/2000/svg">
<path d="M56.223 90.552C54.9865 90.574 54.0276 91.454 54.0528 92.532C54.0781 93.61 55.0874 94.446 56.3239 94.424H56.3744C57.5857 94.402 58.5446 93.544 58.5194 92.51V92.444C58.4689 91.366 57.4595 90.53 56.223 90.552ZM33.1837 90.398C32.1238 90.398 31.2154 91.08 31.0135 91.982H35.3286C35.1268 91.08 34.2435 90.398 33.1837 90.398ZM25.0076 90.398C23.645 90.398 22.5599 91.366 22.5599 92.554C22.5599 93.742 23.6702 94.688 25.0329 94.688C26.3955 94.688 27.4806 93.72 27.4806 92.554V92.532C27.4806 91.344 26.3703 90.398 25.0076 90.398Z" fill="#091C3E"/>
<path d="M0 0V110H86V0H0ZM73.534 40.81C69.0423 49.06 63.9953 56.254 57.4595 63.25C48.3498 64.46 39.4671 64.284 29.6761 63.47L36.0604 54.538C41.1831 54.802 46.3058 54.78 51.4284 54.428C55.0874 50.116 58.3175 45.54 61.0428 40.744C58.8727 37.004 56.3997 33.418 53.6238 30.008L59.983 21.142C65.257 27.214 70.0516 33.682 73.534 40.81ZM64.8533 76.494L64.3991 74.756L67.831 73.106H69.1684V81.268H66.9225V75.504L64.8533 76.494ZM35.2277 79.662C35.7324 79.684 36.2371 79.596 36.6913 79.398V77.308L38.8615 77.066V80.388C38.382 80.74 37.2212 81.4 35.1015 81.4C31.9724 81.4 29.8022 79.53 29.8022 77.198C29.8022 74.866 31.9472 73.018 35.152 73.018C36.338 72.974 37.5241 73.172 38.6092 73.59L38.0288 75.372C37.1455 74.998 36.1866 74.822 35.2277 74.866C33.4613 74.866 32.25 75.768 32.25 77.22C32.25 78.672 33.5622 79.662 35.2277 79.662ZM34.723 39.116C34.723 35.134 38.4325 31.9 43 31.9C47.5675 31.922 51.277 35.134 51.277 39.116C51.277 43.098 47.5675 46.332 43 46.332C38.4325 46.332 34.723 43.098 34.723 39.116ZM28.5405 15.004C37.7512 14.036 47.088 13.97 56.3239 14.784L49.9143 23.716C44.7917 23.452 39.669 23.474 34.5464 23.826C30.8621 28.116 27.632 32.692 24.9067 37.51C27.1273 41.228 29.6004 44.814 32.3509 48.246L25.9918 57.112C20.4906 50.776 16.0241 44.594 12.466 37.488C16.7054 29.414 22.1056 21.868 28.5405 15.004ZM27.6573 73.128V81.29H25.3104V73.128H27.6573ZM23.5945 79.596V81.312H16.7811V73.15H19.1532V79.618L23.5945 79.596ZM19.9102 95.634H18.4718V94.82C17.7905 95.436 16.8568 95.766 15.8979 95.766C13.8034 95.766 12.2136 94.446 12.2136 92.422V87.098H13.7025V92.356C13.7025 93.72 14.7371 94.6 16.0745 94.6C17.412 94.6 18.4718 93.698 18.4718 92.334V87.098H19.9354L19.9102 95.634ZM25.1338 95.788C24.1749 95.788 23.2664 95.458 22.6103 94.864V95.634H21.2224V87.12H22.6103V90.222C23.2664 89.628 24.1749 89.298 25.1338 89.298H25.5123C27.5563 89.386 29.1461 90.904 29.0452 92.686C28.919 94.512 27.1778 95.876 25.1338 95.788ZM33.3099 94.71C34.1174 94.732 34.8997 94.38 35.3539 93.808L36.3633 94.446C35.6567 95.304 34.4959 95.788 33.2846 95.766H33.1332C31.1144 95.744 29.4742 94.292 29.4994 92.51C29.4994 90.75 31.1144 89.32 33.1332 89.298C35.1772 89.298 36.6913 90.684 36.6913 92.532V92.906H30.963C31.1397 93.94 32.1491 94.688 33.3099 94.71ZM41.2588 90.53H40.6784C39.77 90.53 39.1138 91.146 39.1138 92.114V95.634H37.7007V89.43H39.0381V90.178H39.0886C39.4419 89.672 40.0728 89.364 40.7541 89.386H41.2588V90.53ZM40.9812 77.704V73.128H43.3281V77.858C43.3785 78.804 44.2365 79.552 45.3216 79.596C46.4824 79.64 47.4666 78.87 47.517 77.858L47.5423 73.128H49.8891V77.704C49.8891 80.124 48.0974 81.4 45.4478 81.4C42.7729 81.4 40.9812 80.146 40.9812 77.704ZM51.605 88.572H46.6086V90.64H51.4789V92.048H46.6086V94.16H51.605V95.634H44.7412V87.098H51.605V88.572ZM52.4378 73.128H59.3016V74.844H54.7846V76.318H58.4437V77.924H54.7846L54.8099 79.574H59.4531V81.29H52.463V73.128H52.4378ZM60.311 95.634H58.4689V95.062C57.8128 95.524 57.0053 95.788 56.1725 95.788H56.0211C54.1285 95.634 52.6397 94.292 52.564 92.642C52.463 90.816 54.1033 89.276 56.1978 89.188C57.0305 89.188 57.8633 89.452 58.4941 89.914V89.342L60.311 89.32V95.634ZM66.3674 90.772H64.3234V93.72C64.3234 94.05 64.6009 94.204 65.0047 94.204H66.3674V95.634H64.3991C63.1626 95.634 62.4812 94.974 62.4812 94.116V90.772H61.0933V89.342H62.4812V87.56H64.2981V89.342H66.3421L66.3674 90.772ZM70.5563 95.81C68.2852 95.81 67.1749 94.93 66.9478 93.632H68.7647C68.9918 94.336 69.5974 94.534 70.6573 94.534C71.4648 94.534 71.9947 94.292 71.9947 93.896C71.9947 93.654 71.7928 93.478 71.1115 93.368L69.3703 93.016C67.7805 92.73 67.0487 92.136 67.0487 91.212C67.0487 89.892 68.3861 89.21 70.2788 89.21C72.4742 89.21 73.5593 90.068 73.6602 91.388H71.8433C71.6667 90.684 71.0358 90.486 70.1778 90.486C69.3955 90.486 68.9413 90.706 68.9413 91.102C68.9413 91.388 69.2441 91.542 70.1273 91.674L71.6919 91.96C73.1555 92.246 73.8621 92.884 73.8621 93.742C73.8369 94.93 72.6508 95.81 70.5563 95.81Z" fill="#091C3E"/>
<path d="M64.2981 87.56H62.4812V89.342H61.0933V90.772H62.4812V94.116C62.4812 94.952 63.1626 95.634 64.3991 95.634H66.3674V94.204H65.0047C64.5757 94.204 64.3234 94.05 64.3234 93.72V90.772H66.3674L66.3674 89.342H64.3234L64.2981 87.56ZM44.7664 95.634H51.605V94.182H46.6086V92.07H51.4789V90.662H46.6086V88.572H51.605V87.12H44.7664V95.634ZM58.4689 89.936C57.838 89.452 57.0053 89.21 56.1725 89.21C54.0781 89.298 52.463 90.838 52.5387 92.664C52.6144 94.314 54.1033 95.678 55.9959 95.81H56.1473C56.98 95.81 57.8128 95.546 58.4437 95.084V95.656H60.2606V89.364L58.4437 89.386L58.4689 89.936ZM58.4941 92.488V92.51C58.5194 93.566 57.5604 94.424 56.3492 94.424H56.2987C55.0622 94.446 54.0528 93.588 54.0276 92.532C54.0024 91.454 54.9865 90.574 56.1978 90.552C57.4343 90.53 58.4437 91.388 58.4689 92.444L58.4941 92.488ZM71.6667 91.938L70.1021 91.652C69.2189 91.498 68.9161 91.366 68.9161 91.08C68.9161 90.684 69.3703 90.464 70.1526 90.464C71.0106 90.464 71.6667 90.662 71.8181 91.366H73.635C73.534 90.046 72.4489 89.188 70.2535 89.188C68.3609 89.188 67.0235 89.87 67.0235 91.19C67.0235 92.114 67.7553 92.708 69.3451 92.994L71.0863 93.346C71.7676 93.456 71.9695 93.632 71.9695 93.874C71.9695 94.27 71.4648 94.512 70.632 94.512C69.5722 94.512 68.9918 94.314 68.7394 93.61H66.9225C67.1497 94.93 68.26 95.788 70.5311 95.788C72.6256 95.788 73.8116 94.908 73.8116 93.698C73.8369 92.862 73.1303 92.224 71.6667 91.938Z" fill="#06C167"/>
<path d="M39.0886 90.2H39.0382V89.452H37.7007V95.656H39.1139V92.136C39.1139 91.168 39.77 90.552 40.6784 90.552H41.2588V89.408H40.7541C40.098 89.386 39.4419 89.694 39.0886 90.2ZM36.7418 92.554C36.7418 90.706 35.2277 89.32 33.1837 89.32C31.1649 89.342 29.5247 90.772 29.5499 92.532C29.5247 94.292 31.1397 95.766 33.1837 95.788H33.3351C34.5464 95.81 35.6819 95.326 36.4137 94.468L35.4043 93.83C34.9249 94.402 34.1678 94.732 33.3603 94.732C32.1743 94.732 31.1901 93.984 31.0135 92.95H36.767L36.7418 92.554ZM31.0135 91.982C31.2154 91.058 32.1238 90.398 33.1837 90.398C34.2435 90.42 35.152 91.08 35.3286 91.982H31.0135ZM18.4466 92.378C18.4466 93.742 17.412 94.644 16.0493 94.644C14.6866 94.644 13.6772 93.764 13.6772 92.4V87.142H12.1884V92.466C12.1884 94.468 13.8034 95.81 15.8727 95.81C16.8568 95.81 17.7653 95.48 18.4466 94.864V95.678H19.885V87.164H18.4214L18.4466 92.378ZM25.4871 89.32H25.1086C24.1749 89.32 23.2664 89.65 22.5851 90.244V87.142H21.1972V95.634H22.5851V94.864C23.2412 95.458 24.1749 95.788 25.1086 95.788C27.1526 95.876 28.8938 94.49 28.9947 92.708C29.1209 90.926 27.5311 89.408 25.4871 89.32ZM27.4806 92.554C27.4806 93.742 26.3955 94.688 25.0329 94.688C23.6702 94.688 22.5599 93.742 22.5599 92.554C22.5599 91.366 23.645 90.398 25.0076 90.398C26.3703 90.398 27.4806 91.344 27.4806 92.554ZM49.8891 77.704V73.128H47.5423L47.517 77.858C47.4666 78.87 46.4824 79.64 45.3216 79.596C44.2365 79.552 43.3785 78.804 43.3281 77.858V73.128H40.9812V77.704C40.9812 80.124 42.7729 81.4 45.4225 81.4C48.0974 81.4 49.8891 80.146 49.8891 77.704ZM59.4278 79.596H54.7846V77.946H58.4437V76.318H54.7846V74.844H59.3016V73.128H52.4378L52.4378 81.29H59.4278V79.596ZM35.2025 74.866C36.1614 74.844 37.1455 75.02 38.0035 75.372L38.5839 73.59C37.4988 73.172 36.3128 72.974 35.1268 73.018C31.9472 73.018 29.777 74.866 29.777 77.198C29.777 79.53 31.922 81.4 35.0763 81.4C37.196 81.4 38.3568 80.74 38.8363 80.388V77.066L36.6661 77.308V79.398C36.2119 79.574 35.7072 79.662 35.2025 79.662C33.537 79.662 32.1995 78.65 32.1995 77.198C32.1995 75.746 33.436 74.866 35.2025 74.866ZM69.1937 81.29V73.128H67.8562L64.3991 74.778L64.8533 76.494L66.9225 75.548V81.29H69.1937ZM16.7811 73.128V81.29H23.5945L23.5945 79.596H19.1532V73.128H16.7811ZM25.3104 73.128H27.6573V81.29H25.3104V73.128Z" fill="white"/>
<path d="M61.0681 40.766C58.3175 45.562 55.1127 50.138 51.4536 54.45C46.331 54.78 41.2083 54.824 36.0857 54.56L29.7013 63.492C39.4924 64.306 48.375 64.504 57.4847 63.272C64.0205 56.276 69.0675 49.082 73.5593 40.832C70.0769 33.726 65.3075 27.236 60.0335 21.164L53.6743 30.03C56.4249 33.418 58.8979 37.026 61.0681 40.766ZM32.3762 48.224C29.6256 44.792 27.1526 41.206 24.9319 37.488C27.6573 32.692 30.8873 28.116 34.5716 23.804C39.6942 23.474 44.8169 23.43 49.9396 23.694L56.3492 14.762C47.1133 13.948 37.8016 14.014 28.5657 14.982C22.1309 21.846 16.7306 29.392 12.4912 37.466C16.0493 44.55 20.5158 50.754 26.017 57.09L32.3762 48.224Z" fill="#CDFB0A"/>
<path d="M43 46.332C47.5675 46.332 51.277 43.098 51.277 39.116C51.2518 35.134 47.5675 31.9 43 31.9C38.4325 31.9 34.723 35.134 34.723 39.116C34.723 43.098 38.4325 46.332 43 46.332Z" fill="white"/>
</svg>
