<svg width="83" height="74" viewBox="0 0 83 74" fill="none" xmlns="http://www.w3.org/2000/svg">
<path d="M0 0L9.68463 17.2556L19.4314 0H0Z" fill="black"/>
<path d="M53.0393 31.5028L41.4926 52.0006L39.7497 48.8901L61.0379 11.123H64.5341L54.7926 28.4029H67.0757L83 0C83 0 62.6355 0 59.295 0C54.9689 0 52.4271 4.16174 52.4271 4.16174C52.4271 4.16174 29.7591 44.4065 29.7385 44.4065C28.5765 46.8306 28.5765 50.7778 29.7591 53.0517C29.7799 53.0947 41.5029 74 41.5029 74L65.3433 31.4813H53.0393V31.5028Z" fill="black"/>
<path d="M21.0123 25.4047H37.0121L43.3286 14.2081H27.3185L29.0799 11.089H45.0903L51.3545 0C51.3545 0 31.9151 0 27.7562 0C23.2534 0 20.6163 4.19468 20.6163 4.19468L11.3813 20.5431L17.5519 31.5247L21.0123 25.4047Z" fill="black"/>
</svg>
