<svg width="13" height="13" viewBox="0 0 13 13" fill="none" xmlns="http://www.w3.org/2000/svg">
<g opacity="0.7">
<path fill-rule="evenodd" clip-rule="evenodd" d="M8.16316 3.33437H4.08684C2.01977 3.33437 0.98623 3.33437 0.405671 3.9281C-0.174887 4.52183 -0.0382932 5.43915 0.2349 7.27372L0.49397 9.01347C0.70821 10.4521 0.81533 11.1715 1.36486 11.6023C1.91439 12.0331 2.72489 12.0331 4.3459 12.0331H7.90407C9.52512 12.0331 10.3356 12.0331 10.8852 11.6023C11.4347 11.1715 11.5418 10.4521 11.756 9.01347L12.0151 7.27372C12.2883 5.43915 12.4249 4.52183 11.8444 3.9281C11.2638 3.33437 10.2302 3.33437 8.16316 3.33437ZM7.70599 8.29936C8.04801 8.09107 8.04801 7.55192 7.70599 7.34363L5.64088 6.08611C5.30848 5.88371 4.9 6.14718 4.9 6.56394V9.07905C4.9 9.49581 5.30848 9.75928 5.64088 9.55688L7.70599 8.29936Z" fill="#1C274C"/>
<path d="M3.98711 4.3878e-06H8.26245C8.40479 -3.17116e-05 8.514 -5.57431e-05 8.60943 0.00911349C9.28796 0.074315 9.84337 0.475054 10.0789 1.01486H2.17067C2.40618 0.475054 2.96157 0.074315 3.64011 0.00911349C3.73554 -5.57431e-05 3.84471 -3.17116e-05 3.98711 4.3878e-06Z" fill="#1C274C"/>
<path d="M2.64 1.6381C1.78824 1.6381 1.08983 2.14334 0.856754 2.81361C0.851897 2.82758 0.847242 2.84163 0.842789 2.85574C1.08666 2.7832 1.34045 2.73581 1.59738 2.70346C2.2591 2.62012 3.09538 2.62016 4.06682 2.62022H8.28823C9.25966 2.62016 10.096 2.62012 10.7577 2.70346C11.0146 2.73581 11.2684 2.7832 11.5123 2.85574C11.5078 2.84163 11.5031 2.82758 11.4983 2.81361C11.2652 2.14334 10.5668 1.6381 9.71505 1.6381H2.64Z" fill="#1C274C"/>
</g>
</svg>
