<svg width="40" height="40" viewBox="0 0 40 40" fill="none" xmlns="http://www.w3.org/2000/svg">
<path d="M20 36.6667C29.2047 36.6667 36.6666 29.2048 36.6666 20C36.6666 10.7953 29.2047 3.33337 20 3.33337C10.7952 3.33337 3.33331 10.7953 3.33331 20C3.33331 29.2048 10.7952 36.6667 20 36.6667Z" fill="#04E45F"/>
<path d="M25 15L15 25M15 15L25 25M36.6666 20C36.6666 29.2048 29.2047 36.6667 20 36.6667C10.7952 36.6667 3.33331 29.2048 3.33331 20C3.33331 10.7953 10.7952 3.33337 20 3.33337C29.2047 3.33337 36.6666 10.7953 36.6666 20Z" stroke="white" stroke-width="2" stroke-linecap="round" stroke-linejoin="round"/>
</svg>
