<svg width="278" height="33" viewBox="0 0 278 33" fill="none" xmlns="http://www.w3.org/2000/svg">
<path d="M23.2198 18.64H10.6198L7.81984 32H0.819844L7.45984 0.599999H14.4598L11.7798 13.24H24.3798L27.0598 0.599999H34.0598L27.4198 32H20.4198L23.2198 18.64ZM33.0073 32L37.9673 8.56H44.7673L39.8073 32H33.0073ZM72.7102 20.56C72.3368 22.3733 71.7102 24.0267 70.8302 25.52C69.9768 26.9867 68.8968 28.2533 67.5902 29.32C66.2835 30.36 64.7502 31.1733 62.9902 31.76C61.2568 32.32 59.3102 32.6 57.1502 32.6C55.3368 32.6 53.6968 32.32 52.2302 31.76C50.7902 31.2 49.6035 30.4 48.6702 29.36C47.7368 28.2933 47.0968 27 46.7502 25.48C46.4302 23.96 46.4702 22.2267 46.8702 20.28C47.2702 18.3333 47.9502 16.6 48.9102 15.08C49.8702 13.5333 51.0302 12.24 52.3902 11.2C53.7502 10.1333 55.2702 9.33333 56.9502 8.8C58.6568 8.24 60.4702 7.96 62.3902 7.96C65.6968 7.96 68.3235 8.72 70.2702 10.24C72.2435 11.7333 73.2568 13.84 73.3102 16.56H66.5502C66.4168 15.5467 65.9502 14.72 65.1502 14.08C64.3502 13.44 63.1368 13.12 61.5102 13.12C59.5102 13.12 57.8035 13.76 56.3902 15.04C55.0035 16.32 54.0835 18.0667 53.6302 20.28C53.1235 22.6533 53.2968 24.44 54.1502 25.64C55.0035 26.84 56.4302 27.44 58.4302 27.44C59.2302 27.44 60.0035 27.3467 60.7502 27.16C61.4968 26.9733 62.1768 26.7067 62.7902 26.36C63.4035 25.9867 63.9368 25.5333 64.3902 25C64.8702 24.4667 65.2302 23.84 65.4702 23.12H59.9102L60.8702 18.48H73.1502L72.7102 20.56ZM93.0814 22.48H83.3214L81.3214 32H74.5214L79.4814 8.56H86.2814L84.4414 17.28H94.2014L96.0414 8.56H102.841L97.8814 32H91.0814L93.0814 22.48ZM109.725 0.599999H116.765L111.245 26.6H127.965L126.845 32H103.085L109.725 0.599999ZM130.429 32L135.389 8.56H142.189L137.229 32H130.429ZM170.132 20.56C169.759 22.3733 169.132 24.0267 168.252 25.52C167.399 26.9867 166.319 28.2533 165.012 29.32C163.705 30.36 162.172 31.1733 160.412 31.76C158.679 32.32 156.732 32.6 154.572 32.6C152.759 32.6 151.119 32.32 149.652 31.76C148.212 31.2 147.025 30.4 146.092 29.36C145.159 28.2933 144.519 27 144.172 25.48C143.852 23.96 143.892 22.2267 144.292 20.28C144.692 18.3333 145.372 16.6 146.332 15.08C147.292 13.5333 148.452 12.24 149.812 11.2C151.172 10.1333 152.692 9.33333 154.372 8.8C156.079 8.24 157.892 7.96 159.812 7.96C163.119 7.96 165.745 8.72 167.692 10.24C169.665 11.7333 170.679 13.84 170.732 16.56H163.972C163.839 15.5467 163.372 14.72 162.572 14.08C161.772 13.44 160.559 13.12 158.932 13.12C156.932 13.12 155.225 13.76 153.812 15.04C152.425 16.32 151.505 18.0667 151.052 20.28C150.545 22.6533 150.719 24.44 151.572 25.64C152.425 26.84 153.852 27.44 155.852 27.44C156.652 27.44 157.425 27.3467 158.172 27.16C158.919 26.9733 159.599 26.7067 160.212 26.36C160.825 25.9867 161.359 25.5333 161.812 25C162.292 24.4667 162.652 23.84 162.892 23.12H157.332L158.292 18.48H170.572L170.132 20.56ZM190.503 22.48H180.743L178.743 32H171.943L176.903 8.56H183.703L181.863 17.28H191.623L193.463 8.56H200.263L195.303 32H188.503L190.503 22.48ZM210.547 13.96H202.747L203.907 8.56H226.307L225.147 13.96H217.347L213.507 32H206.707L210.547 13.96ZM224.8 20.28C225.2 18.3333 225.867 16.6 226.8 15.08C227.733 13.56 228.88 12.28 230.24 11.24C231.6 10.1733 233.147 9.36 234.88 8.8C236.613 8.24 238.48 7.96 240.48 7.96C242.373 7.96 244.053 8.24 245.52 8.8C247.013 9.36 248.227 10.1733 249.16 11.24C250.12 12.28 250.76 13.56 251.08 15.08C251.4 16.6 251.36 18.3333 250.96 20.28C250.56 22.2267 249.893 23.96 248.96 25.48C248.053 27 246.933 28.2933 245.6 29.36C244.267 30.4 242.72 31.2 240.96 31.76C239.227 32.32 237.32 32.6 235.24 32.6C233.427 32.6 231.787 32.32 230.32 31.76C228.853 31.2 227.64 30.4 226.68 29.36C225.72 28.2933 225.067 27 224.72 25.48C224.373 23.96 224.4 22.2267 224.8 20.28ZM244.16 20.28C244.613 18.12 244.427 16.4 243.6 15.12C242.773 13.8133 241.373 13.16 239.4 13.16C237.427 13.16 235.747 13.8133 234.36 15.12C232.973 16.4 232.053 18.12 231.6 20.28C231.147 22.44 231.333 24.1733 232.16 25.48C232.987 26.76 234.387 27.4 236.36 27.4C238.333 27.4 240.013 26.76 241.4 25.48C242.787 24.1733 243.707 22.44 244.16 20.28ZM266.05 24.32H260.89L259.29 32H252.49L257.45 8.56H270.37C271.65 8.56 272.783 8.73333 273.77 9.08C274.757 9.42667 275.557 9.93333 276.17 10.6C276.783 11.24 277.197 12.0533 277.41 13.04C277.623 14.0267 277.597 15.16 277.33 16.44C276.61 19.7467 274.903 22.0267 272.21 23.28L275.53 32H268.73L266.05 24.32ZM262.01 19.12H266.29C267.49 19.12 268.437 18.96 269.13 18.64C269.823 18.32 270.29 17.5867 270.53 16.44C270.77 15.2933 270.61 14.56 270.05 14.24C269.49 13.92 268.61 13.76 267.41 13.76H263.13L262.01 19.12Z" fill="black" fill-opacity="0.933333"/>
</svg>
