<svg width="45" height="45" viewBox="0 0 45 45" fill="none" xmlns="http://www.w3.org/2000/svg">
<path fill-rule="evenodd" clip-rule="evenodd" d="M4.29699 8.63366H40.6461C40.6461 8.63366 43.7092 32.1681 22.3511 44.3384C1.79854 32.0873 4.29699 8.63366 4.29699 8.63366Z" fill="#CD3529"/>
<path fill-rule="evenodd" clip-rule="evenodd" d="M34.0691 9.63939V29.4574L31.5562 26.5306V9.63939H28.4515V22.9149L26.9957 21.219C26.9957 21.219 20.5222 16.2791 19.7265 16.2483C18.973 16.2193 17.9782 17.5232 17.9782 17.5232L14.1523 17.3929L14.135 19.0014C14.135 19.0014 13.5799 18.637 12.9575 18.8859C12.3433 19.1312 12.3603 19.3836 12.2606 19.8316C12.0346 19.7485 11.6842 19.6108 11.2407 19.9065C10.7971 20.2023 10.8674 20.7523 10.8674 20.7523C10.8674 20.7523 9.69332 20.8548 9.24975 21.1509C8.80618 21.4466 8.5174 22.2539 8.81319 22.9926C9.10898 23.7312 10.5872 25.3577 12.213 28.1669C13.1132 29.7231 13.3338 32.7739 13.3511 35.1874C15.6546 38.0783 18.5952 40.8137 22.3634 43.1426C27.7479 39.9613 31.4803 36.0035 34.0689 31.9181V31.9318C35.3772 29.8695 36.3876 27.7766 37.1732 25.7324V9.63939H34.0691Z" fill="white"/>
<path fill-rule="evenodd" clip-rule="evenodd" d="M26.7354 0.661614C21.8342 0.661614 17.8465 4.64974 17.8465 9.55138C17.8465 14.453 21.8342 18.4411 26.7354 18.4411C31.6375 18.4411 35.6258 14.453 35.6258 9.55138C35.6258 4.64974 31.6375 0.661614 26.7354 0.661614Z" fill="black"/>
<path fill-rule="evenodd" clip-rule="evenodd" d="M33.1101 7.48039L33.1594 3.97575C32.7365 3.48733 32.2588 3.0492 31.7357 2.67003C31.2132 2.29001 30.6488 1.97106 30.0537 1.7194L26.7351 2.84909L23.4179 1.7194C22.823 1.97117 22.2588 2.29012 21.7364 2.67003C21.2133 3.04906 20.7356 3.48702 20.3128 3.97529L20.3618 7.48039L18.2621 10.287C18.3177 10.9306 18.4465 11.5658 18.6459 12.1803C18.8453 12.7948 19.1144 13.3844 19.448 13.9375L22.7965 14.9739L24.8159 17.8384C25.4334 17.9817 26.0765 18.0576 26.7351 18.0576C27.3958 18.0576 28.0373 17.9817 28.6553 17.8384L30.6752 14.9739L34.0243 13.9382C34.3574 13.3846 34.6262 12.7947 34.8255 12.1801C35.0256 11.5658 35.1546 10.9307 35.2098 10.287L33.1101 7.48039ZM24.4914 12.6405L23.1049 8.37219L26.7354 5.73391L28.9966 7.37697L28.9975 7.3765L30.3672 8.37126L28.9803 12.6402L24.4914 12.6405Z" fill="white"/>
<path fill-rule="evenodd" clip-rule="evenodd" d="M22.3452 25.6451L21.8568 26.0761L30.8285 36.22C30.9744 36.0554 31.1208 35.8908 31.2621 35.7248L22.3452 25.6451ZM21.4982 26.3915L21.0103 26.821L30.0593 37.059C30.21 36.9003 30.359 36.7399 30.5061 36.5778L21.4982 26.3915ZM20.6524 27.136L20.164 27.5665L21.647 29.2221C21.647 29.2221 21.647 29.2226 21.6479 29.2226C21.138 28.9954 20.6968 28.8355 20.6669 28.8299L19.713 27.8319L19.2379 28.2769L20.4262 29.5322C20.4262 29.5322 21.6423 29.6762 22.1437 30.2138C22.2799 30.3593 22.5014 30.709 22.5661 31.066C22.6286 31.4056 22.5584 31.8041 22.3275 32.0941C21.615 32.9901 19.635 32.9973 18.8506 32.8743L25.7023 40.9176C25.8636 40.7966 26.0266 40.6764 26.1842 40.5541L20.0847 33.5616C20.3674 33.545 20.6488 33.5098 20.927 33.4563L26.747 40.1079C26.9169 39.9705 27.0855 39.8314 27.2527 39.6908L21.6299 33.2665C21.791 33.2086 21.9474 33.1397 22.0938 33.0608L27.6244 39.377C27.7892 39.2341 27.9528 39.0898 28.1151 38.9439L22.6251 32.6784C22.6935 32.6147 22.7574 32.5462 22.8163 32.4737C22.8556 32.4226 22.892 32.3712 22.9249 32.3178L28.4622 38.6316C28.6235 38.4833 28.7795 38.3334 28.9364 38.1829L23.1551 31.5996C23.1555 31.6006 23.1551 31.601 23.1551 31.602C23.177 31.3316 23.1408 31.0613 23.0685 30.8103L29.2714 37.8633C29.4259 37.711 29.5746 37.557 29.725 37.4036L20.6524 27.136ZM24.0665 25.7327C23.8112 25.7796 23.5527 25.8066 23.2933 25.8134L23.2783 25.8272L31.6354 35.2759C31.7759 35.1045 31.9153 34.9329 32.0516 34.7606L24.0665 25.7327ZM25.2356 25.1303C25.1079 25.3026 24.9261 25.4327 24.719 25.5293L32.4417 34.2594C32.5771 34.0806 32.7076 33.902 32.8384 33.7227L25.2356 25.1303ZM25.7322 23.7495C25.6941 24.0098 25.6308 24.2659 25.5433 24.514L33.2205 33.1869C33.3492 33.0032 33.4773 32.8199 33.6008 32.6353L25.7322 23.7495ZM34.0689 31.9318C34.1555 31.7946 34.2379 31.6573 34.3222 31.52L25.2835 21.3283C25.2877 21.6063 25.2821 22.0069 25.2265 22.2399L33.9568 32.0897C33.9933 32.0327 34.0325 31.975 34.0689 31.9181V31.9318ZM26.8446 21.0526C26.8303 21.0362 26.814 21.0217 26.7963 21.0092L26.7729 21.0498L26.9749 21.2027L26.8446 21.0526ZM34.0691 29.4574V29.3944L31.5562 26.493V26.5306L34.0691 29.4574ZM28.4515 22.9083L27.81 22.1673L28.4515 22.9149V22.9083Z" fill="black"/>
<path fill-rule="evenodd" clip-rule="evenodd" d="M34.0691 29.3944V29.4574L31.5562 26.5306V26.493L28.4515 22.9083V22.9149L27.81 22.1673L26.9749 21.2027L26.7729 21.0498L26.501 21.5242C26.8817 21.9663 30.8246 26.5173 34.6651 30.9511C34.7674 30.7774 34.8685 30.6042 34.9665 30.4305L34.0691 29.3944Z" fill="black"/>
</svg>
