<svg width="45" height="45" viewBox="0 0 45 45" fill="none" xmlns="http://www.w3.org/2000/svg">
<path d="M44.9935 28.3542C44.9848 28.3287 44.9674 28.3117 44.9411 28.3117L42.136 27.2562C42.1884 27.0605 42.293 26.7965 42.4845 26.5242L43.9306 27.1455C43.9829 27.171 44.0264 27.1797 44.0788 27.1797C44.2095 27.1797 44.3314 27.1115 44.401 27.0008C44.4358 26.9413 44.5491 26.7625 44.645 26.5327C44.7843 26.1667 44.8191 25.8348 44.7321 25.5625C44.645 25.273 44.4358 25.0517 44.1223 24.9155L40.2632 23.1877C40.2632 23.1877 40.2456 23.1792 40.2369 23.1707C40.0889 23.1112 39.8101 23.0345 39.4703 23.1452V22.7877C39.4703 22.4983 39.4616 22.1918 39.4442 21.8855C39.4268 21.5705 39.4007 21.2472 39.3658 20.9152C39.1394 19.0087 38.6863 17.6042 38.5035 17.0935L38.4337 16.9233C37.6758 14.8635 37.0834 13.2293 37.1009 11.2802C37.1096 9.80767 38.9913 7.748 39.7143 7.0755L40.3939 6.44567L33.259 0.0876668L32.6929 0.453667C31.3862 1.29633 29.6961 1.75583 27.9276 1.75583C26.0809 1.75583 24.3212 1.25367 22.9969 0.343L22.5005 0.0024999L22.0039 0.343C20.671 1.25367 18.92 1.75583 17.0732 1.75583C15.3048 1.75583 13.6148 1.29633 12.308 0.453667L11.7418 0.0876668L4.60716 6.44567L5.27789 7.0755C6.001 7.748 7.88253 9.80767 7.89993 11.2802C7.9088 13.2293 7.31637 14.8635 6.55846 16.9233L6.4974 17.0935C6.31453 17.6042 5.85276 19.0087 5.6351 20.9152C5.60013 21.2472 5.57403 21.5705 5.55663 21.8855C5.53923 22.1918 5.52183 22.4983 5.52183 22.7877C5.52183 22.9068 5.52183 23.026 5.53053 23.1452C5.19073 23.0345 4.91199 23.1112 4.77263 23.1707H4.76393C4.75523 23.1792 4.74653 23.1877 4.73783 23.1877L0.878547 24.9155C0.565015 25.0517 0.35588 25.273 0.268712 25.5625C0.181714 25.8348 0.216514 26.1667 0.35588 26.5327C0.451748 26.7625 0.565016 26.9413 0.608515 27.0008C0.669413 27.1115 0.79138 27.1797 0.922047 27.1797C0.974416 27.1797 1.01791 27.171 1.07028 27.1455L2.51632 26.5242C2.70805 26.7965 2.80375 27.0605 2.86482 27.2562L0.0597463 28.3117C0.0334764 28.3117 0.0160783 28.3287 0.00737857 28.3542C-0.00132119 28.3797 -0.00132119 28.3967 0.00737857 28.4223L0.173014 28.8393C1.92388 33.112 4.90329 36.7805 8.7798 39.419C12.3864 41.8703 16.6115 43.3088 20.9934 43.5727L22.4394 44.9685C22.4568 44.9855 22.4742 44.994 22.5005 44.994C22.5179 44.994 22.544 44.9855 22.5614 44.9685L24.0075 43.5727C28.3894 43.3088 32.6144 41.8703 36.2124 39.419C40.0976 36.7805 43.077 33.112 44.828 28.8393L44.9935 28.4223C45.0022 28.3967 45.0022 28.3797 44.9935 28.3542Z" fill="white"/>
<path d="M4.44323 25.1223C4.30386 24.7648 4.26036 24.3988 4.31256 24.0755C4.32126 24.0585 4.32126 24.0328 4.33013 24.0073L4.36493 23.8372L1.06329 25.3182C0.871553 25.4033 0.749587 25.5223 0.706088 25.6842C0.60152 26.0247 0.819355 26.4672 0.915223 26.646L0.958722 26.714L4.4782 25.199L4.44323 25.1223Z" fill="#274488"/>
<path d="M40.5585 25.1223C40.6978 24.7648 40.7413 24.3988 40.6891 24.0755C40.6804 24.0585 40.6804 24.0328 40.6717 24.0073L40.6281 23.8372L43.9384 25.3182C44.1302 25.4033 44.2521 25.5223 44.2956 25.6842C44.4002 26.0247 44.1824 26.4672 44.0867 26.646L44.043 26.714L40.5237 25.199L40.5585 25.1223Z" fill="#274488"/>
<path d="M11.0997 37.3295L10.5858 37.7295L11.03 38.0103L11.2043 37.3975C11.2217 37.321 11.2391 37.2613 11.2565 37.2103C11.2043 37.2443 11.1519 37.287 11.0997 37.3295Z" fill="#274488"/>
<path d="M29.0236 39.2387C28.7623 39.3237 28.6577 39.6132 28.8145 40.0472C28.9713 40.5153 29.2065 40.66 29.4939 40.5663C29.7641 40.4813 29.8685 40.2175 29.7031 39.7578C29.5463 39.2812 29.3111 39.145 29.0236 39.2387Z" fill="#274488"/>
<path d="M31.0551 38.4675L30.9157 38.5355L31.2032 39.1398C31.2467 39.1313 31.3425 39.0888 31.3686 39.0718C31.5778 38.9782 31.6475 38.825 31.5517 38.6207C31.4471 38.3993 31.2729 38.3653 31.0551 38.4675Z" fill="#274488"/>
<path d="M26.2909 20.7645C26.2909 20.756 25.8813 20.6453 25.5852 20.5943C25.2193 20.5347 25.0014 20.5262 24.9318 20.5177C24.8534 20.5007 24.6531 20.5007 24.6618 20.39C24.6618 20.3133 24.7488 20.2963 24.836 20.2878C24.9666 20.2793 25.3064 20.3133 25.5067 20.339C25.9859 20.407 26.2909 20.5007 26.2909 20.4837V19.8963C26.2909 19.8793 25.62 19.658 24.897 19.5815C24.4092 19.5388 24.1826 19.5473 23.8952 19.5388C23.8428 19.5388 23.7296 19.5558 23.7296 19.4623C23.7296 19.3687 23.8341 19.3602 23.8689 19.3517C24.2348 19.3175 24.7053 19.309 25.1932 19.3432C25.7332 19.3772 26.282 19.5643 26.282 19.5473V18.9175C26.073 18.8238 25.768 18.7303 25.5154 18.6877C25.1932 18.6367 24.7664 18.6112 24.7053 18.6112C24.6444 18.6112 24.6181 18.577 24.6094 18.5515C24.6007 18.509 24.6268 18.475 24.6879 18.4578C24.7838 18.4408 25.019 18.4323 25.3064 18.4408C25.5154 18.4493 26.0207 18.5005 26.2733 18.5345L26.2646 18.0493C25.7856 17.8025 25.0451 17.6833 24.5659 17.6153C23.8428 17.5047 23.1808 17.4877 23.0675 17.4877C23.0066 17.4792 22.9456 17.4792 22.9369 17.4195C22.9369 17.3685 22.9717 17.3258 23.0675 17.3258C23.1547 17.3258 23.7209 17.3088 24.6094 17.3855C25.0364 17.4195 25.8813 17.5812 26.2646 17.6578L26.2559 17.1812C25.8291 16.977 25.1584 16.8237 24.1913 16.6875C23.0066 16.5173 20.7416 16.5938 20.6197 16.611C20.4542 16.6195 20.4279 16.5853 20.4192 16.5258C20.4105 16.4662 20.4716 16.4322 20.5936 16.4067C20.7155 16.3897 22.2661 16.245 23.5206 16.3045C24.4701 16.347 25.8378 16.611 26.2559 16.6875L26.2472 16.313C25.533 15.8363 24.3568 15.7853 24.2785 15.7853C24.2 15.7768 24.1478 15.7428 24.1391 15.7002C24.1303 15.6577 24.1826 15.6237 24.2435 15.6152C24.3046 15.6065 24.4788 15.5895 24.8447 15.6152C25.1408 15.6322 25.9337 15.7938 26.2472 15.862L26.2385 15.4875C25.7071 15.181 24.4788 15.0023 23.5293 14.9172C23.5293 14.9172 23.416 14.9087 23.2069 14.9002L23.1895 15.147C23.1895 15.2235 23.1286 15.2747 23.0501 15.2747C22.4927 15.2492 22.2922 15.2492 21.7348 15.2747H21.7261C21.6563 15.2747 21.5954 15.2235 21.5954 15.147L21.5778 14.9002C21.0726 14.9172 20.4803 14.9597 19.8183 15.0278C19.7224 15.0363 19.6265 15.0618 19.6178 14.9938C19.6004 14.9512 19.6265 14.9172 19.7485 14.8832C19.8444 14.8662 21.1597 14.6873 21.4908 14.6533H21.5604L21.4734 13.0702C21.4734 13.0362 21.4908 13.002 21.5082 12.968C21.5343 12.9425 21.5691 12.9255 21.6041 12.9255C22.2835 12.9 22.5188 12.9 23.1808 12.9255C23.2156 12.9255 23.2506 12.9425 23.2767 12.968C23.2941 12.9935 23.3115 13.0277 23.3115 13.0532C23.6163 13.0617 23.9213 13.0787 24.1652 13.0957C24.6792 13.1212 25.89 13.2915 26.2124 13.334V12.968C26.1513 12.9255 26.0643 12.9 25.9946 12.8658C25.6549 12.7382 24.3394 12.517 22.4664 12.517C20.5849 12.517 19.4611 12.7552 19.2867 12.7978C19.0952 12.8488 18.886 12.917 18.8947 13.0362L18.9208 17.1812C18.8947 17.462 18.9297 18.577 18.9384 18.841C18.9471 19.275 19.6439 19.5473 21.1684 20.0665C22.7627 20.6368 24.7751 21.2497 26.2909 21.6582V20.7645Z" fill="#274488"/>
<path d="M24.9535 21.6242C24.6487 21.539 24.4919 21.488 24.1869 21.3943C24.1521 21.3858 24.126 21.4028 24.126 21.437V22.7307C24.126 22.7647 24.1521 22.7902 24.1782 22.8073C24.4832 22.9093 24.64 22.9605 24.9535 23.0627C24.9798 23.0797 25.0059 23.0542 25.0059 23.0285V21.7008C25.0059 21.6667 24.9798 21.6327 24.9535 21.6242Z" fill="#274488"/>
<path d="M23.667 21.2403C23.3533 21.1467 23.2052 21.1042 22.8917 21.002C22.8654 20.9935 22.8393 21.0105 22.8393 21.036V22.2957C22.8393 22.3213 22.8654 22.3553 22.8917 22.3638C23.1965 22.466 23.3533 22.5255 23.667 22.6277C23.6931 22.6362 23.7192 22.6277 23.7192 22.5937V21.3083C23.7192 21.2828 23.6931 21.2488 23.667 21.2403Z" fill="#274488"/>
<path d="M21.084 20.4078C20.7703 20.3057 20.6222 20.2547 20.3087 20.1355C20.2824 20.127 20.2563 20.144 20.2563 20.1695V21.4037C20.2563 21.4293 20.2824 21.4633 20.3087 21.4718C20.6135 21.574 20.7703 21.6335 21.084 21.7442C21.1101 21.7527 21.1362 21.7357 21.1362 21.7102V20.476C21.1362 20.4505 21.1101 20.4248 21.084 20.4078Z" fill="#274488"/>
<path d="M25.5076 11.2878C25.4815 11.2453 25.4641 11.1943 25.4293 11.1262C25.1243 11.0155 24.3577 10.8283 23.8089 10.7772C23.7043 10.7687 23.5476 10.7602 23.5476 10.6835C23.5476 10.6155 23.6085 10.59 23.7828 10.59C24.227 10.5985 24.9414 10.7092 25.2549 10.7687C25.1679 10.5815 25.0634 10.3602 24.9501 10.1218C24.3577 9.9005 23.234 9.8325 23.0336 9.81533C22.8158 9.78983 22.7462 9.76433 22.7636 9.69617C22.7723 9.62817 22.9116 9.63667 23.2514 9.62817C23.6434 9.61967 24.5059 9.68767 24.7497 9.71333C24.6714 9.543 24.5842 9.36433 24.497 9.1685C24.1661 8.94717 23.5389 8.90467 23.3647 8.89617C23.1991 8.88767 23.1382 8.828 23.1469 8.777C23.1556 8.7175 23.2427 8.70033 23.3123 8.69183C23.3734 8.69183 24.0963 8.68333 24.1574 8.67483C24.2009 8.67483 24.2444 8.64933 24.2096 8.58967C24.14 8.4365 24.0963 8.34283 24.018 8.18967C23.9048 8.13867 23.7567 8.09617 23.6347 8.079C23.5302 8.062 23.1904 8.045 23.0162 8.028C22.9203 8.0025 22.9029 7.9855 22.9029 7.95133C22.9029 7.90883 22.929 7.88333 23.0162 7.87483C23.234 7.85783 23.6347 7.87483 23.7217 7.86633C23.7828 7.86633 23.8524 7.84067 23.8263 7.78967C23.7828 7.6875 23.7393 7.6025 23.6956 7.50883C23.5998 7.46617 23.4517 7.44067 23.3297 7.41517C23.173 7.38117 22.8768 7.35567 22.6329 7.347C22.5718 7.347 22.5196 7.313 22.5196 7.279C22.5196 7.245 22.5457 7.21083 22.6155 7.20233C22.781 7.17683 23.1295 7.17683 23.2688 7.16833C23.3821 7.15983 23.5215 7.14283 23.4778 7.04917C23.3995 6.896 23.3558 6.78533 23.2775 6.64067C23.173 6.64067 22.9901 6.63217 22.8594 6.61517C22.8071 6.6065 22.7375 6.598 22.7375 6.5555C22.7288 6.513 22.7984 6.4875 22.8594 6.46183C22.9029 6.44483 23.051 6.40233 23.1556 6.37683C23.1034 6.28317 23.0684 6.198 23.0249 6.10433C22.8768 6.09583 22.6068 6.07883 22.3977 6.07883C22.3105 6.07883 22.267 6.03633 22.267 6.00233C22.267 5.96817 22.2844 5.94267 22.3803 5.92567C22.537 5.88317 22.781 5.86617 22.9029 5.8575C22.7636 5.56817 22.6329 5.28733 22.5109 5.032C21.5526 7.03217 19.7928 10.7177 19.5054 11.3048C20.4985 11.0752 21.8402 10.99 22.4673 10.99C23.0945 10.99 24.5059 11.0837 25.5076 11.2878Z" fill="#274488"/>
<path d="M19.7903 19.955C19.4855 19.8445 19.3285 19.7933 19.015 19.6742C18.9889 19.6657 18.9628 19.6742 18.9628 19.7082V20.9595C18.9628 20.9935 18.9889 21.0275 19.015 21.0275C19.3285 21.1382 19.4855 21.1892 19.7903 21.2998C19.8251 21.2998 19.8427 21.2913 19.8427 21.2573V20.0232C19.8427 19.9977 19.8251 19.9722 19.7903 19.955Z" fill="#274488"/>
<path d="M22.3767 20.8377C22.0631 20.7442 21.9151 20.6845 21.6014 20.5823C21.5753 20.5738 21.5492 20.5908 21.5492 20.6165V21.8505C21.5492 21.8762 21.5753 21.9102 21.6014 21.9187C21.9064 22.0293 22.0631 22.0803 22.3767 22.1825C22.4029 22.1995 22.429 22.1825 22.429 22.157V20.9058C22.429 20.8803 22.4029 20.8462 22.3767 20.8377Z" fill="#274488"/>
<path d="M19.8747 27.1175C19.8747 26.794 19.631 26.5557 19.3086 26.5557C18.8555 26.5557 18.6639 26.8877 18.6291 27.4578L19.4479 27.4323C19.7528 27.4323 19.8747 27.3388 19.8747 27.1175Z" fill="#274488"/>
<path d="M28.2239 26.5395C27.6315 26.5395 27.405 27.0672 27.405 27.8928C27.405 28.8717 27.7013 29.3908 28.25 29.3908C28.7988 29.3908 29.0951 28.9312 29.0951 28.0375C29.0951 27.0672 28.7814 26.5395 28.2239 26.5395Z" fill="#274488"/>
<path d="M24.4788 13.8838C24.5485 13.8753 24.8621 13.8753 25.2715 13.9265C25.5765 13.969 26.0207 14.0627 26.2211 14.1052V13.7647C25.803 13.5945 24.8447 13.4242 24.3307 13.3647C24.0172 13.3222 23.6513 13.288 23.2941 13.2625L23.2243 14.5988C23.4073 14.6073 23.5293 14.6073 23.5293 14.6073C23.7645 14.6243 23.9996 14.6328 24.2348 14.6583C25.1408 14.7435 25.8987 14.9138 26.2298 14.9818V14.5052C25.7158 14.0882 24.5311 14.0542 24.4614 14.0542C24.3918 14.0542 24.322 14.037 24.322 13.969C24.322 13.9008 24.4092 13.8923 24.4788 13.8838Z" fill="#274488"/>
<path d="M18.913 12.4973C19.0699 12.4633 20.272 12.0377 22.4673 12.0377C24.654 12.0377 25.9606 12.5058 26.1174 12.574C26.2917 12.6505 26.4485 12.7017 26.5268 12.574C26.5966 12.4463 26.5094 12.2845 26.3874 12.208C25.9084 11.91 24.227 11.5355 22.4673 11.5612C20.699 11.5697 18.9305 11.9527 18.6866 12.0548C18.434 12.1483 18.3294 12.293 18.4077 12.4293C18.5385 12.659 18.7562 12.5398 18.913 12.4973Z" fill="#274488"/>
<path d="M26.2385 21.997C25.9337 21.9033 25.7767 21.8608 25.4719 21.7757C25.4371 21.7672 25.4197 21.7842 25.4197 21.8182C25.411 22.38 25.411 22.6608 25.411 23.163C25.411 23.1972 25.4371 23.2227 25.4632 23.2397C25.7767 23.3418 25.9337 23.3928 26.2385 23.5035C26.2646 23.512 26.2909 23.495 26.2909 23.4695V22.0735C26.2909 22.0395 26.2646 22.0055 26.2385 21.997Z" fill="#274488"/>
<path d="M22.0169 15.0005C22.4176 14.992 22.9229 15.0005 22.9229 15.0005L23.0187 13.2727C22.6006 13.2472 21.9123 13.2813 21.9123 13.2813L22.0169 15.0005Z" fill="#274488"/>
<path d="M32.0037 38.3867C32.2216 38.8377 31.9776 39.2207 31.5334 39.4165C31.4985 39.4335 31.4028 39.476 31.3678 39.4847L31.6467 40.0633C31.6728 40.1145 31.6641 40.1485 31.5943 40.1825L31.3069 40.3102C31.2545 40.3357 31.211 40.3272 31.1849 40.2677L30.3224 38.4802C30.2876 38.4122 30.305 38.3867 30.3659 38.3525L30.8277 38.1483C31.1588 37.995 31.4202 37.9525 31.6467 38.0377C31.8035 38.1057 31.9341 38.2333 32.0037 38.3867ZM39.9921 30.1902C39.966 30.139 39.9573 30.0965 39.9921 30.0368L40.1141 29.8497C40.1402 29.7985 40.1752 29.79 40.2274 29.8242L42.0219 30.7858C42.083 30.82 42.0917 30.8625 42.0569 30.905L41.8826 31.1688C41.8478 31.237 41.7956 31.237 41.7258 31.1945L40.7674 30.6582H40.7587L41.4905 31.654C41.534 31.7052 41.5166 31.7477 41.4905 31.7817L41.4297 31.8753C41.4034 31.9265 41.3686 31.952 41.299 31.9435L40.0271 31.8073L40.0184 31.8158L40.9679 32.4115C41.0463 32.4542 41.0376 32.4967 40.994 32.5478L40.8546 32.769C40.8198 32.8287 40.7761 32.8457 40.7152 32.8032L39.0427 31.6967C38.9816 31.6455 38.9816 31.6115 39.0079 31.5605L39.1298 31.3732C39.1733 31.3052 39.2081 31.2965 39.2779 31.3052L40.8807 31.4668L40.8894 31.4583L39.9921 30.1902ZM39.182 33.2372L38.3196 32.5563C38.2761 32.5137 38.2848 32.4712 38.3196 32.4287L38.52 32.1903C38.5635 32.1477 38.5983 32.1307 38.6507 32.1733L39.5305 32.8797C40.0793 33.3308 40.0967 33.8075 39.696 34.2585C39.2779 34.7522 38.8074 34.7522 38.2848 34.3352L37.4049 33.6287C37.3527 33.5862 37.3701 33.5352 37.4049 33.4925L37.6053 33.2627C37.6488 33.2117 37.6749 33.2032 37.7271 33.2457L38.5809 33.9267C38.9729 34.2415 39.1907 34.199 39.3825 33.9777C39.5653 33.7648 39.5653 33.5437 39.182 33.2372ZM36.6731 34.3437C36.6557 34.2927 36.6644 34.2415 36.7166 34.1905L36.8735 34.0458C36.9257 34.0032 36.9605 34.0117 36.9955 34.0458L38.4676 35.4332C38.4676 35.4417 38.4763 35.4417 38.4763 35.4417C38.5113 35.4842 38.5113 35.5268 38.4676 35.5608L38.2324 35.7737C38.1715 35.8332 38.128 35.8162 38.0669 35.748L37.2916 34.9905L37.7184 36.1397C37.7447 36.1992 37.7184 36.2332 37.6923 36.2587L37.6053 36.3353C37.553 36.3778 37.5269 36.395 37.4571 36.3693L36.2637 35.9098L36.255 35.9183L37.0129 36.7353C37.0738 36.8035 37.0477 36.829 36.9955 36.88L36.8038 37.0503C36.7516 37.1013 36.7079 37.1098 36.6644 37.0588L36.6557 37.0503L35.349 35.5523C35.2967 35.4927 35.3054 35.4587 35.349 35.4162L35.5232 35.2628C35.5756 35.2118 35.6191 35.2118 35.68 35.2373L37.1784 35.8077L37.1871 35.7992L36.6731 34.3437ZM35.7236 37.4418L35.8543 37.3567C35.8978 37.3227 35.9413 37.3397 35.9676 37.3737L36.0633 37.51C36.0895 37.5355 36.0895 37.578 36.0546 37.6035L35.3925 38.0802C35.349 38.1057 35.3054 38.0972 35.2793 38.0717L35.1834 37.9355C35.1486 37.893 35.1573 37.8503 35.1921 37.8248L35.3141 37.7397L34.382 36.5142L34.2426 36.6162C34.1991 36.6418 34.1555 36.6247 34.1294 36.5907L34.0335 36.463C34.0074 36.429 34.0074 36.3865 34.0422 36.3608L34.7392 35.8672C34.774 35.8417 34.8177 35.8417 34.8438 35.8757L34.9483 36.0118C34.9744 36.0545 34.9744 36.0885 34.9308 36.1225L34.7914 36.2162L35.7236 37.4418ZM34.0859 38.8122C34.1294 38.8803 34.1207 38.8888 34.0685 38.9228L33.7548 39.1015C33.7026 39.1357 33.6939 39.1272 33.6502 39.076L32.7616 37.6292L32.2564 37.9185C32.2042 37.9525 32.1607 37.944 32.1344 37.8845L32.0124 37.6887C31.9776 37.6377 31.995 37.6035 32.0474 37.578L33.3889 36.8035L33.5282 36.7183C33.5806 36.6928 33.6067 36.7013 33.6328 36.7353V36.7438L33.7461 36.9737C33.7722 37.0248 33.7461 37.0588 33.6852 37.0928L33.1973 37.3737L34.0859 38.8122ZM28.8938 38.8377C29.5384 38.6335 30.0176 38.9823 30.2179 39.5782C30.4531 40.2422 30.1918 40.7868 29.6169 40.9742C29.0071 41.1698 28.5192 40.8635 28.3014 40.225C28.0748 39.5952 28.2927 39.0335 28.8938 38.8377ZM26.5068 41.3827L26.6636 41.3572C26.716 41.3572 26.7508 41.3827 26.7595 41.4252L26.7856 41.5868C26.7943 41.6295 26.7682 41.6635 26.7247 41.672L25.9144 41.8082C25.8709 41.8167 25.8274 41.7912 25.8274 41.7572L25.7924 41.5868C25.7837 41.5358 25.81 41.5018 25.8535 41.4933L26.0016 41.4678L25.7402 39.9697L25.5661 39.9953C25.5137 40.0038 25.4876 39.9697 25.4789 39.9272L25.4441 39.7655C25.4441 39.7315 25.4615 39.6973 25.505 39.6888L26.3588 39.5442C26.4023 39.5357 26.4371 39.5697 26.4459 39.5952L26.472 39.7655C26.4807 39.8165 26.4546 39.8505 26.411 39.8592L26.2368 39.8847L26.5068 41.3827ZM23.9109 40.4293C23.9283 40.5315 24.059 40.574 24.1373 40.6082L24.5206 40.7443C24.7819 40.8293 24.9562 40.9827 24.9823 41.272C25.0171 41.7145 24.6688 42.004 24.2331 42.038C24.024 42.055 23.7714 42.0295 23.5537 41.9785C23.5013 41.97 23.4839 41.9443 23.4839 41.9188C23.4839 41.9018 23.4839 41.8848 23.4926 41.8678L23.5624 41.604C23.5624 41.5783 23.5798 41.5443 23.6233 41.5443C23.632 41.5443 23.6583 41.5443 23.6757 41.5528C23.8411 41.604 24.024 41.621 24.1809 41.6125C24.3203 41.604 24.4771 41.5188 24.4684 41.3657C24.4597 41.2465 24.3551 41.2038 24.2505 41.1613L23.815 40.9997C23.5624 40.9145 23.3969 40.7358 23.3707 40.4718C23.3359 40.0803 23.7279 39.8165 24.1025 39.791C24.3377 39.774 24.5381 39.7995 24.7471 39.8677C24.7995 39.8847 24.8169 39.9017 24.8256 39.9357C24.8256 39.9442 24.8169 39.9612 24.8169 39.9868L24.7297 40.2337C24.721 40.2762 24.7036 40.2847 24.6775 40.2932C24.6599 40.2932 24.6425 40.2847 24.6164 40.2847C24.4771 40.2422 24.3029 40.1995 24.1722 40.2165C24.0416 40.225 23.9022 40.2847 23.9109 40.4293ZM4.3535 30.6242L3.29077 31.2625C3.22987 31.2965 3.1949 31.2795 3.1601 31.2285L3.00333 30.9817C2.95966 30.922 2.95967 30.888 3.02073 30.8455L4.75437 29.8157C4.83267 29.773 4.85877 29.7985 4.90244 29.8497L5.04181 30.071C5.06791 30.1305 5.07661 30.1645 5.05051 30.2157L4.45807 31.6625L5.52968 31.0242C5.59058 30.9902 5.63424 31.0072 5.66034 31.0583L5.82581 31.3222C5.86931 31.3902 5.83451 31.4157 5.79101 31.4413L4.05737 32.4712C3.98777 32.5137 3.9615 32.4967 3.9267 32.4457L3.78734 32.2158C3.75254 32.1733 3.75254 32.1222 3.76994 32.0712L4.3535 30.6327V30.6242ZM5.29444 33.6883C5.32054 33.7308 5.30314 33.7733 5.26834 33.799L5.13768 33.901C5.11141 33.9182 5.05921 33.9182 5.03311 33.8925L4.53654 33.2542C4.50174 33.2117 4.51914 33.1692 4.53654 33.152L4.67591 33.05C4.71941 33.0158 4.76307 33.0243 4.78917 33.0585L4.88504 33.1777L6.13064 32.2413L6.02625 32.1137C5.99128 32.0712 6.00868 32.0285 6.04365 32.003L6.18301 31.9093C6.20911 31.8838 6.25261 31.8838 6.27888 31.9178L6.80155 32.5818C6.83635 32.6158 6.82765 32.6583 6.80155 32.684L6.66218 32.7775C6.61851 32.8202 6.57501 32.8032 6.54891 32.769L6.43564 32.6413L5.18987 33.5607L5.29444 33.6883ZM6.87984 35.2885C6.92351 35.331 6.91481 35.3735 6.87115 35.4162L6.69698 35.5778C6.64461 35.6203 6.60111 35.6118 6.55761 35.5693L5.72994 34.7012C5.68644 34.6502 5.67774 34.616 5.73864 34.565L7.23705 33.2202C7.28054 33.1862 7.32421 33.1862 7.36771 33.2287L7.58555 33.4585C7.62905 33.5095 7.63775 33.5437 7.58555 33.5862L6.33108 34.7097L6.87984 35.2885ZM9.08395 36.6503L8.87482 36.2332C8.75285 36.0033 8.76155 35.7652 8.92702 35.5608C9.18852 35.2458 9.65012 35.3225 9.94642 35.5523C10.1206 35.697 10.2513 35.8502 10.3558 36.0375C10.3819 36.0885 10.3819 36.114 10.3645 36.131C10.3558 36.1482 10.3384 36.1567 10.3209 36.1652L10.0858 36.2928C10.0508 36.3098 10.0247 36.3098 9.99862 36.2928C9.98992 36.2843 9.98122 36.2673 9.96382 36.2502C9.90275 36.1225 9.79819 35.9863 9.69379 35.9098C9.59792 35.8247 9.44985 35.7737 9.35399 35.8842C9.29292 35.9693 9.35399 36.0885 9.38879 36.1737L9.57182 36.5227C9.69379 36.761 9.71119 36.9907 9.52815 37.212C9.24072 37.561 8.78765 37.5355 8.43932 37.2717C8.28238 37.144 8.10822 36.9567 7.99495 36.778C7.96015 36.7268 7.96015 36.7013 7.98625 36.6843C7.99495 36.6673 8.01235 36.6588 8.02975 36.6503L8.25628 36.5055C8.29108 36.4885 8.31735 36.4715 8.35215 36.497C8.36085 36.5142 8.36955 36.5227 8.37825 36.5397C8.46542 36.6843 8.58739 36.8205 8.70935 36.9227C8.81392 37.0078 8.98809 37.0588 9.09265 36.9397C9.16225 36.846 9.12745 36.7438 9.08395 36.6503ZM10.835 38.3355L10.3645 38.0377L10.2687 37.978L9.95512 38.2248C9.92015 38.2505 9.87665 38.2675 9.82446 38.2333L9.51945 38.0377C9.49335 38.0207 9.49335 37.995 9.50205 37.9695C9.51075 37.961 9.51945 37.9525 9.52815 37.944L11.2966 36.6758C11.3401 36.6503 11.3838 36.6418 11.4273 36.6673L11.706 36.846C11.7671 36.88 11.7758 36.9227 11.7671 36.9652L11.3053 39.0335C11.2966 39.059 11.2966 39.0675 11.2879 39.076C11.2618 39.11 11.2357 39.1272 11.192 39.1015L10.8959 38.9058C10.8261 38.8632 10.8261 38.8207 10.835 38.7697L10.9307 38.4037L10.835 38.3355ZM12.2897 37.6802C12.2375 37.6462 12.2287 37.612 12.2549 37.561L12.3682 37.3482C12.3943 37.3057 12.4291 37.2887 12.4813 37.3227L13.8664 38.0207L14.0147 38.0972C14.0669 38.1228 14.0756 38.1568 14.0495 38.1908V38.1993L13.9101 38.4122C13.8664 38.4632 13.8229 38.4547 13.7707 38.4207L13.2655 38.1738L12.4639 39.6548C12.4291 39.7143 12.4204 39.7228 12.3595 39.6973L12.0371 39.5272C11.9762 39.5017 11.9762 39.4932 12.011 39.4335L12.8124 37.944L12.2897 37.6802ZM14.6767 40.3528C14.7202 40.3698 14.7289 40.4123 14.7202 40.4548L14.6506 40.6082C14.6419 40.6422 14.5982 40.6677 14.5547 40.6422L13.7968 40.3528C13.7533 40.3272 13.7358 40.2847 13.7445 40.2592L13.8142 40.0973C13.8316 40.0463 13.8664 40.0378 13.9188 40.0548L14.0495 40.106L14.6419 38.693L14.485 38.6335C14.4328 38.6078 14.4241 38.5653 14.4415 38.5313L14.5111 38.3782C14.5199 38.344 14.5547 38.3185 14.5982 38.3355L15.3996 38.6505C15.4433 38.6675 15.4607 38.7015 15.452 38.7442L15.3822 38.8973C15.3561 38.9483 15.3213 38.9568 15.2778 38.9398L15.1122 38.8803L14.5286 40.2932L14.6767 40.3528ZM16.4799 39.808L16.7935 40.0633C17.0026 40.2422 17.1072 40.4548 17.02 40.7273C16.8893 41.1528 16.4538 41.2975 16.0357 41.1783C15.8353 41.1188 15.6088 41.0082 15.4259 40.8805C15.3822 40.855 15.3735 40.8293 15.3822 40.8038C15.3822 40.7868 15.3996 40.7698 15.4085 40.7528L15.5653 40.54C15.5827 40.506 15.6088 40.489 15.6523 40.4975C15.6611 40.506 15.6785 40.506 15.6959 40.5315C15.8353 40.6252 15.9921 40.7102 16.1488 40.7613C16.2795 40.7953 16.4625 40.7783 16.506 40.6337C16.5408 40.5145 16.4712 40.4378 16.3841 40.3698L16.0269 40.0633C15.8353 39.8932 15.7394 39.6633 15.8179 39.4165C15.9399 39.0335 16.4015 38.9313 16.7587 39.042C16.9765 39.1015 17.1594 39.1952 17.325 39.3313C17.3685 39.374 17.3772 39.3995 17.3685 39.425C17.3685 39.4335 17.3598 39.4505 17.3424 39.459L17.1768 39.6633C17.1507 39.7058 17.1333 39.7143 17.0985 39.7058C17.0898 39.6973 17.0724 39.6888 17.0461 39.6718C16.9417 39.5867 16.7848 39.4932 16.6628 39.459C16.5408 39.4165 16.3841 39.425 16.3406 39.5697C16.3145 39.6633 16.419 39.757 16.4799 39.808ZM21.01 39.9697L20.7573 41.9188C20.7486 41.9955 20.705 42.0125 20.6528 42.004L20.3827 41.97C20.3217 41.9613 20.2782 41.9358 20.2521 41.8848L19.4592 40.5485H19.4505L19.2937 41.7487C19.285 41.8167 19.2502 41.8337 19.1891 41.8252L18.893 41.7912C18.8232 41.7827 18.7884 41.7657 18.8058 41.689L19.0498 39.7315C19.0585 39.6548 19.1022 39.6378 19.1718 39.6548L19.4331 39.6803C19.5029 39.6888 19.5289 39.7143 19.555 39.7655L20.3478 41.1103H20.3566L20.5134 39.9017C20.5221 39.8335 20.5569 39.8165 20.618 39.825L20.9315 39.8592C21.01 39.8677 21.01 39.9187 21.01 39.9697ZM44.6528 28.7687C42.9192 33.0158 39.966 36.6503 36.1156 39.2718C32.5264 41.7145 28.3275 43.1445 23.9631 43.3998C23.937 43.3998 23.9196 43.4083 23.9022 43.4253L22.4995 44.7872L21.097 43.4253C21.0796 43.4083 21.0622 43.3998 21.0361 43.3998C16.6804 43.1445 12.4726 41.7145 8.88352 39.2718C5.04181 36.6503 2.07997 33.0158 0.346328 28.7687L0.206961 28.4367L5.52098 26.445C5.66034 26.3855 5.80841 26.4365 5.88688 26.5557L5.89558 26.5642C5.93038 26.6153 5.99998 26.7175 6.10454 26.811C6.14821 26.9472 6.19171 27.0833 6.24391 27.2112C5.96518 27.109 5.76491 26.8537 5.68644 26.743L5.66904 26.7088C5.66034 26.7003 5.64294 26.6918 5.62537 26.6918H5.60798L5.23337 26.8365L5.06791 26.9047L5.09401 26.9728C5.11141 27.0068 5.12011 27.0408 5.12898 27.0578C5.28574 27.4408 5.45991 27.8068 5.63424 28.1728C5.66904 28.224 5.69514 28.2835 5.72124 28.3347L5.88688 28.275L6.58371 28.0282C6.62721 28.1133 6.67088 28.1898 6.70568 28.2665L6.01755 28.5133L5.84321 28.5728C5.86931 28.624 5.89558 28.675 5.93038 28.7262C7.33292 31.3137 9.33659 33.5352 11.8193 35.2373C14.6419 37.1525 17.9086 38.2505 21.3409 38.4632L21.6372 38.7442C18.0392 38.5908 14.5982 37.4588 11.6625 35.4502C8.58739 33.3563 6.22651 30.4625 4.84137 27.0748L4.80657 26.9983L0.572861 28.59L0.607661 28.6665C2.32373 32.8712 5.24207 36.463 9.04898 39.059C12.6295 41.4933 16.8284 42.9062 21.1928 43.136L22.4386 44.3447L22.4995 44.4042L23.8063 43.136C28.1707 42.9062 32.3696 41.4933 35.95 39.059C39.7569 36.463 42.6841 32.8712 44.4002 28.6665L44.4263 28.59L40.1926 26.9983L40.1665 27.0748C38.7726 30.4625 36.4118 33.3563 33.3367 35.4502C30.3922 37.4588 26.9599 38.5908 23.362 38.7442L23.6583 38.4632C27.0906 38.2505 30.3572 37.1525 33.1799 35.2373C35.6626 33.5352 37.6749 31.3137 39.0688 28.7262C39.1036 28.675 39.1298 28.624 39.1559 28.5728L38.9816 28.5133L38.2935 28.2665C38.3283 28.1898 38.3719 28.1133 38.4067 28.0282L39.1123 28.275L39.2779 28.3347C39.304 28.2835 39.3388 28.224 39.3649 28.1728C39.5392 27.8068 39.7134 27.4408 39.8702 27.0578C39.8789 27.0408 39.8964 27.0068 39.9051 26.9728L39.9399 26.9047L39.7658 26.8365L39.3912 26.6918H39.3649C39.3562 26.6918 39.3388 26.7003 39.3301 26.7088L39.3127 26.743C39.2342 26.8537 39.034 27.109 38.7552 27.2197C38.7987 27.0833 38.8509 26.9472 38.8946 26.811C38.9903 26.726 39.0688 26.6153 39.1036 26.5642L39.1123 26.5557C39.1907 26.4365 39.3388 26.3855 39.4782 26.445L44.7922 28.4367L44.6528 28.7687ZM2.62003 26.3685L2.57637 26.3003L0.999663 26.9898C0.903795 27.0238 0.807925 26.9898 0.764426 26.9047C0.729627 26.8622 0.61636 26.6918 0.529192 26.4707C0.442194 26.2408 0.355027 25.9088 0.442195 25.611C0.511793 25.3727 0.68613 25.1853 0.947464 25.0747L4.81527 23.3468C4.82397 23.3468 4.83267 23.3383 4.84137 23.3383C4.91114 23.3043 5.04181 23.2618 5.18987 23.2618C5.29444 23.2618 5.40771 23.2873 5.52968 23.3298C5.53838 23.4405 5.53838 23.5342 5.54708 23.6363C5.42511 23.5682 5.30314 23.5257 5.18118 23.5257C5.10271 23.5257 5.02441 23.5427 4.95464 23.5767L4.92854 23.5852C4.75438 23.6703 4.63241 23.8662 4.58004 24.13C4.52784 24.4278 4.58004 24.7768 4.7368 25.1173L4.76307 25.1853C4.79787 25.2705 4.75438 25.3642 4.66721 25.4067L2.829 26.1982L2.89007 26.2833C3.1079 26.5812 3.22117 26.8707 3.29077 27.092L3.02943 27.194C2.96854 26.9728 2.84657 26.6663 2.62003 26.3685ZM21.1493 38.276C17.8216 38.0377 14.6593 36.9482 11.9238 35.0842C9.47595 33.416 7.48968 31.22 6.09584 28.6665L6.79285 28.4282C6.81025 28.4708 6.83635 28.5048 6.85375 28.5473C7.01051 28.8197 7.17615 29.0922 7.35901 29.3475C7.37641 29.373 7.40251 29.407 7.43748 29.4497L7.44618 29.4752C10.5561 34.0202 15.1209 36.8545 20.3217 37.4588L21.1493 38.276ZM22.6041 41.7487C22.6564 41.7487 22.6825 41.7827 22.6825 41.8252V41.9955C22.6825 42.0295 22.6564 42.0635 22.6128 42.0635L21.7853 42.055C21.7329 42.055 21.7068 42.021 21.7068 41.987V41.8167C21.7068 41.7572 21.7416 41.7402 21.7853 41.7402H21.942L21.9594 40.2165L21.794 40.208C21.7416 40.208 21.7155 40.174 21.7155 40.1315V39.9697C21.7155 39.9272 21.7416 39.8932 21.7853 39.8932L22.6477 39.9102C22.6999 39.9102 22.726 39.9442 22.726 39.9782V40.1485C22.726 40.1995 22.6912 40.225 22.6477 40.225H22.4734L22.4473 41.7487H22.6041ZM38.2063 28.4282L38.9033 28.6665C37.5182 31.22 35.5319 33.416 33.0753 35.0842C30.3398 36.9482 27.1776 38.0377 23.8498 38.276L24.6775 37.4588C29.8783 36.8545 34.4431 34.0202 37.5443 29.4752L37.5617 29.4497C37.5878 29.407 37.614 29.373 37.6401 29.339C37.8143 29.0922 37.9886 28.8197 38.1367 28.5473C38.1628 28.5048 38.1889 28.4708 38.2063 28.4282ZM5.82581 21.9C5.84321 21.585 5.86931 21.2702 5.91298 20.9467C6.12194 19.0572 6.57501 17.6868 6.75788 17.1847L6.81895 17.0143C7.58555 14.929 8.18669 13.2778 8.16929 11.2777C8.16042 9.72 6.21781 7.57517 5.46861 6.87717L5.00701 6.45167L5.47731 6.03467L11.7671 0.4255L12.1504 0.672333C13.5094 1.5405 15.2516 2.02567 17.0724 2.02567C18.9715 2.02567 20.7834 1.498 22.1599 0.561834L22.4995 0.331999L22.8393 0.561834C24.2157 1.498 26.019 2.02567 27.9268 2.02567C29.7389 2.02567 31.4898 1.5405 32.8401 0.672333L33.2234 0.4255L39.9921 6.45167L39.5305 6.88583C38.7813 7.57517 36.8386 9.72 36.8299 11.2777C36.8125 13.2778 37.4136 14.929 38.1802 17.0143L38.2413 17.1847C38.4241 17.6868 38.8772 19.0572 39.0862 20.9467C39.121 21.2702 39.1559 21.585 39.1733 21.9C39.182 22.1978 39.1994 22.5043 39.1994 22.7937C39.2081 24.9725 38.7726 26.8707 37.9015 28.4197C37.7534 28.6835 37.5878 28.9475 37.4136 29.1857C37.3962 29.2198 37.3701 29.2538 37.3351 29.3048L37.3177 29.322C34.2513 33.816 29.7389 36.6162 24.599 37.2035H24.5555L22.4995 39.2122L20.4436 37.2035H20.4001C15.2603 36.6162 10.7391 33.816 7.67272 29.322L7.66402 29.3048C7.62905 29.2538 7.60295 29.2198 7.58555 29.1943C7.41138 28.9475 7.24574 28.6835 7.09768 28.4197C6.22651 26.8707 5.79101 24.9725 5.79971 22.7937C5.79971 22.5043 5.80841 22.1978 5.82581 21.9ZM39.4608 23.3383C39.5914 23.2873 39.7134 23.2618 39.8093 23.2618C39.9573 23.2618 40.0793 23.3043 40.1578 23.3383C40.1665 23.3383 40.1752 23.3468 40.1839 23.3468L44.0517 25.0747C44.313 25.1853 44.4874 25.3727 44.557 25.611C44.6528 25.9088 44.557 26.2408 44.47 26.4707C44.3828 26.6918 44.2695 26.8622 44.2347 26.9047C44.1911 26.9898 44.0867 27.0238 44.0082 26.9898L42.4226 26.3003L42.3791 26.3685C42.1526 26.6663 42.0306 26.9728 41.9697 27.194L41.7171 27.092C41.778 26.8707 41.8913 26.5812 42.1091 26.2833L42.17 26.1982L40.3319 25.4067C40.2448 25.3642 40.2013 25.2705 40.2361 25.1853L40.2622 25.1173C40.4191 24.7768 40.4713 24.4278 40.4191 24.13C40.3754 23.8662 40.2448 23.6703 40.0706 23.5852L40.0532 23.5767C39.9747 23.5427 39.8964 23.5257 39.818 23.5257C39.696 23.5257 39.574 23.5682 39.4521 23.6448C39.4608 23.5342 39.4608 23.4405 39.4608 23.3383ZM44.9926 28.3517C44.9839 28.3347 44.9665 28.3175 44.949 28.309L42.1439 27.2537C42.1963 27.0663 42.2919 26.794 42.4837 26.5217L43.9297 27.1515C43.9821 27.1685 44.0256 27.177 44.078 27.177C44.2086 27.177 44.3306 27.109 44.4002 26.9983C44.435 26.9387 44.5483 26.7685 44.6441 26.5302C44.7835 26.1642 44.8183 25.8407 44.7313 25.5598C44.6441 25.2705 44.435 25.0492 44.1215 24.913L40.2622 23.1937C40.2622 23.1852 40.2535 23.1767 40.2361 23.1767C40.088 23.1085 39.8093 23.032 39.4695 23.1427V22.7937C39.4695 22.4957 39.4608 22.1893 39.4434 21.883C39.426 21.568 39.3999 21.2445 39.3649 20.9212C39.1385 19.006 38.6855 17.6102 38.4939 17.0995L38.4328 16.9293C37.6836 14.861 37.0825 13.2268 37.1001 11.2862C37.1088 9.81367 38.9903 7.74533 39.7134 7.073L40.3928 6.44317L33.2582 0.0936661L32.692 0.451167C31.3852 1.29367 29.6952 1.75333 27.9268 1.75333C26.08 1.75333 24.3203 1.25117 22.9961 0.3405L22.4995 0L22.0031 0.3405C20.6702 1.25117 18.9191 1.75333 17.0724 1.75333C15.3039 1.75333 13.6138 1.29367 12.3071 0.451167L11.741 0.0936661L4.60614 6.44317L5.27704 7.073C5.99998 7.74533 7.88168 9.81367 7.89908 11.2862C7.90778 13.2268 7.31552 14.861 6.55761 16.9293L6.49654 17.0995C6.31368 17.6102 5.85191 19.006 5.63424 20.9212C5.59927 21.2445 5.57318 21.568 5.55578 21.883C5.53838 22.1893 5.52098 22.4957 5.52098 22.7937C5.52098 22.9128 5.52098 23.0235 5.52968 23.1427C5.18988 23.032 4.91114 23.1085 4.77177 23.1767H4.76307C4.75438 23.1767 4.74567 23.1852 4.7368 23.1937L0.877694 24.913C0.564161 25.0492 0.355026 25.2705 0.267858 25.5598C0.180861 25.8407 0.21566 26.1642 0.355027 26.5302C0.450895 26.7685 0.564163 26.9387 0.607661 26.9983C0.66856 27.109 0.790526 27.177 0.921193 27.177C0.973562 27.177 1.01706 27.1685 1.06943 27.1515L2.51547 26.5217C2.70703 26.794 2.8029 27.0663 2.86397 27.2537L0.0588951 28.309C0.0326253 28.3175 0.0152246 28.3347 0.00652482 28.3517C-0.00217494 28.3772 -0.00217494 28.4027 0.00652482 28.4197L0.171991 28.8368C1.92303 33.118 4.90244 36.778 8.77895 39.4165C12.3856 41.8763 16.6106 43.3147 20.9926 43.57L22.4386 44.9745C22.456 44.983 22.4734 45 22.4995 45C22.5258 45 22.5519 44.983 22.5606 44.9745L24.0066 43.57C28.3885 43.3147 32.6136 41.8763 36.2202 39.4165C40.0967 36.778 43.0761 33.118 44.827 28.8368L44.9926 28.4197C45.0013 28.4027 45.0013 28.3772 44.9926 28.3517Z" fill="#274488"/>
<path d="M21.2999 32.7843C21.4917 32.6737 21.6919 32.5375 21.6919 32.2737C21.6919 32.0438 21.5178 31.8652 21.2739 31.8652C21.0386 31.8652 20.8557 32.0353 20.8557 32.2652C20.8557 32.512 21.056 32.6482 21.2999 32.7843Z" fill="#274488"/>
<path d="M34.4333 8.86467C34.207 9.00083 33.9717 9.052 33.8061 9.01783C33.8585 8.83917 34.0152 8.64333 34.2418 8.49867C34.4596 8.3625 34.7035 8.3115 34.869 8.3455C34.8166 8.53267 34.6599 8.7285 34.4333 8.86467ZM33.9891 9.66467C33.7713 9.8095 33.5361 9.8605 33.3619 9.818C33.4141 9.63917 33.571 9.4435 33.7974 9.30733C34.0239 9.1625 34.2592 9.1115 34.4333 9.154C34.3724 9.33283 34.2157 9.5285 33.9891 9.66467ZM33.5623 10.3712C33.3097 10.4223 33.0658 10.3797 32.9175 10.2775C33.0221 10.1328 33.2399 10.0052 33.4926 9.95417C33.7452 9.903 33.9804 9.94567 34.1285 10.0478C34.0239 10.1925 33.815 10.3202 33.5623 10.3712ZM33.3619 29.6582C33.1267 29.6582 32.8914 29.6667 32.7608 29.6667C32.8305 29.2837 32.8566 28.841 32.8566 28.3218V27.7005C32.8566 27.292 32.8218 26.8068 32.2207 26.8068C32.0116 26.8068 31.8026 26.8918 31.637 27.0452C31.4541 27.2238 31.4019 27.377 31.4019 27.8197V28.3218C31.4019 28.9772 31.4454 29.3687 31.55 29.6667C31.4367 29.6667 31.2015 29.6582 30.9749 29.6582C30.731 29.6582 30.5045 29.6667 30.3825 29.6667C30.4436 29.2837 30.4697 28.841 30.4697 28.3218V27.4537C30.4697 27.1047 30.4349 26.5855 30.3129 26.211C30.6351 26.211 31.0795 26.211 31.393 26.1855L31.3669 26.7983L31.6632 26.5515C32.0203 26.262 32.3079 26.1343 32.6738 26.1343C33.51 26.1343 33.7974 26.6025 33.7974 27.4027V28.3218C33.7974 28.9772 33.8411 29.3687 33.9456 29.6667C33.8237 29.6667 33.5884 29.6582 33.3619 29.6582ZM28.1699 29.7773C27.0461 29.7773 26.384 29.139 26.384 28.0325C26.384 26.943 27.0635 26.1428 28.3353 26.1428C29.4678 26.1428 30.1125 26.7727 30.1125 27.8537C30.1125 29.0368 29.3546 29.7773 28.1699 29.7773ZM26.3055 26.2705C26.2794 26.3727 26.2012 26.6622 26.1575 26.7813C25.8788 26.7557 25.7133 26.7472 25.5216 26.7472H25.1993C25.1906 26.9855 25.1817 27.2663 25.1817 27.4707V28.2708C25.1817 28.807 25.2428 29.207 25.722 29.207C25.8701 29.207 25.992 29.173 26.1836 29.0793C26.2186 29.0623 26.2881 29.0623 26.262 29.1645C26.2185 29.3177 26.1749 29.4623 26.1314 29.6412C25.6959 29.7517 25.5129 29.7773 25.2863 29.7773C24.6591 29.7773 24.2584 29.522 24.2584 28.6538V27.5728C24.2584 27.2323 24.2584 26.977 24.2497 26.7387C24.0581 26.7387 23.849 26.7642 23.7531 26.7813C23.7357 26.7813 23.6835 26.7813 23.7096 26.7047C23.7096 26.6792 23.8055 26.3557 23.8403 26.245C23.9274 26.2535 24.1016 26.262 24.2758 26.262C24.2758 25.9812 24.2584 25.8365 24.2497 25.6237C24.5023 25.5472 24.9641 25.3428 25.1643 25.2237C25.2428 25.1727 25.2776 25.2407 25.2689 25.3173C25.2602 25.4023 25.208 25.6322 25.1993 26.262H25.7046C25.8788 26.262 26.0703 26.2535 26.2533 26.211C26.2881 26.2025 26.3229 26.2195 26.3055 26.2705ZM24.8856 34.4757C24.4064 34.4757 24.0755 34.1947 24.0755 33.7862C24.0755 33.4372 24.2932 33.2415 24.6591 33.0372C24.4327 32.901 24.2062 32.7222 24.2062 32.3903C24.2062 32.0073 24.5458 31.7008 24.9815 31.7008C25.3996 31.7008 25.7133 31.9647 25.7133 32.3222C25.7133 32.6542 25.478 32.8243 25.2254 32.9605C25.5302 33.1308 25.8003 33.335 25.8003 33.701C25.8003 34.1522 25.417 34.4757 24.8856 34.4757ZM22.9082 34.382L22.8993 34.399H22.8819C22.8819 34.399 22.5684 34.399 22.3854 34.416H22.3767L22.3419 34.348L23.6835 32.1095H22.8384C22.7078 32.1095 22.5423 32.1265 22.4029 32.2285L22.3854 32.2372L22.3245 32.203L22.3332 32.186C22.3767 32.0668 22.4116 31.8627 22.429 31.786V31.769H24.0231L24.0494 31.7605V31.786C24.0494 31.82 24.0755 31.9903 24.0842 32.0243L24.0929 32.0328L24.0842 32.0413C23.8751 32.2712 23.6311 32.6967 23.4135 33.0712C23.065 33.6925 22.9343 34.033 22.9082 34.382ZM22.3071 29.6667C22.1938 29.6667 21.9586 29.6582 21.7407 29.6582C21.5144 29.6582 21.2878 29.6667 21.1485 29.6667C21.2181 29.2667 21.2355 28.9177 21.2355 28.4155V27.5643C21.2355 27.2323 21.2094 26.6195 21.0874 26.245C21.3574 26.245 21.7844 26.2365 22.0718 26.2195L22.0631 27.0282L22.3245 26.6962C22.6469 26.2705 22.8732 26.1428 23.213 26.1428C23.335 26.1428 23.3959 26.1513 23.5266 26.211C23.4222 26.5685 23.3176 26.943 23.2565 27.1643C23.2391 27.2068 23.1956 27.275 23.1346 27.1983C22.9952 27.0537 22.9691 26.994 22.8036 26.994C22.5945 26.994 22.429 27.1047 22.3071 27.3005C22.2025 27.4622 22.1677 27.5983 22.1677 27.9303V28.5005C22.1677 29.1133 22.2025 29.3687 22.3071 29.6667ZM21.1833 34.4245C20.7041 34.4245 20.3732 34.1352 20.3732 33.7352C20.3732 33.3862 20.5995 33.1903 20.9567 32.9777C20.7302 32.8498 20.5038 32.6627 20.5038 32.3392C20.5038 31.9477 20.8435 31.6498 21.2878 31.6498C21.7059 31.6498 22.0108 31.9137 22.0108 32.2712C22.0108 32.603 21.7757 32.7733 21.5231 32.9095C21.8279 33.0712 22.0979 33.2755 22.0979 33.6415C22.0979 34.0927 21.7146 34.4245 21.1833 34.4245ZM19.9986 34.3565C19.9549 34.348 19.8679 34.3395 19.7807 34.3395C19.711 34.3395 19.6414 34.348 19.5542 34.3565H19.5194L19.5281 34.3308C19.5629 34.1182 19.5716 33.9053 19.5716 33.667V32.4583C19.5716 32.118 19.5455 32.0838 19.4322 32.0838C19.4061 32.0838 19.3539 32.0923 19.2929 32.1008L19.1013 32.1435C19.0402 32.1605 19.0054 32.169 18.9618 32.1945H18.9531L18.9009 32.152L18.9096 32.135C18.9357 32.0838 18.9706 31.9988 18.988 31.9222L18.9967 31.9052H19.0054C19.11 31.8967 19.1796 31.8882 19.2929 31.8627L19.7023 31.7775C19.7807 31.7605 19.8679 31.7435 19.9375 31.7178H19.9462L19.9986 31.7605L19.9899 31.769C19.9549 31.9988 19.9462 32.2542 19.9462 32.3988V33.7095C19.9462 33.9735 19.9723 34.1862 20.016 34.3223L20.0247 34.3565H19.9986ZM17.6377 27.9898C17.6377 26.9003 18.3434 26.1513 19.3626 26.1513C20.2512 26.1513 20.8 26.6622 20.8 27.4962C20.8 27.5643 20.8 27.8707 20.6693 27.8707H19.7633C19.3887 27.8707 18.8661 27.8792 18.6308 27.8877C18.6482 28.7218 19.1013 29.1985 19.8679 29.1985C20.1727 29.1985 20.3556 29.1303 20.6082 28.9687C20.6693 28.9262 20.7389 28.9602 20.7041 29.0708C20.6345 29.3177 20.6171 29.3772 20.556 29.5815C20.2336 29.6922 19.8155 29.7943 19.4409 29.7943C18.3347 29.7943 17.6377 29.0623 17.6377 27.9898ZM16.5663 28.9517C16.4617 29.1985 16.4093 29.3858 16.3484 29.6667C16.27 29.6582 16.1045 29.6582 15.939 29.6582C15.7997 29.6582 15.6166 29.6667 15.486 29.6667C15.4338 29.3602 15.3727 29.173 15.2681 28.858L14.7978 27.4537C14.6496 27.0282 14.4841 26.5685 14.1706 26.211C14.6409 26.228 15.0068 26.211 15.4599 26.177C15.4947 26.5173 15.5644 26.8493 15.669 27.1728L15.9303 28.058C15.9999 28.2708 16.1393 28.7388 16.1393 28.7388C16.183 28.5857 16.2439 28.4325 16.2961 28.3048L16.7056 27.2578C16.7752 27.0707 16.8711 26.7898 16.8972 26.5088C16.8972 26.4153 16.9059 26.3217 16.8972 26.2025C17.0018 26.211 17.1846 26.211 17.3416 26.211C17.4809 26.211 17.7162 26.194 17.8206 26.177C17.9251 26.1685 17.9077 26.228 17.8729 26.262C17.629 26.5685 17.4286 26.9855 17.2457 27.4112L16.5663 28.9517ZM14.4232 28.9432C14.3708 29.1133 14.2228 29.6497 14.2054 29.7007C13.404 29.6667 12.8724 29.6667 12.4021 29.6667H11.1042C11.1564 29.3007 11.1999 28.875 11.1999 28.3473V26.16C11.1999 25.8025 11.1825 25.13 11.0605 24.8152C11.2957 24.8322 11.4699 24.8322 11.6442 24.8322H12.9857C13.4649 24.8322 13.6566 24.8152 14.1793 24.8152C14.0834 25.147 13.9875 25.496 13.944 25.6322C13.9092 25.7683 13.8308 25.6663 13.8221 25.6492C13.6042 25.3343 13.1687 25.3003 12.768 25.3003C12.6374 25.3003 12.4891 25.3088 12.3063 25.3088C12.2976 25.428 12.2802 25.7598 12.2802 26.0663V26.7727H12.8724C13.3081 26.7727 13.7436 26.7387 13.9179 26.7132C13.9875 26.7132 13.9701 26.7642 13.9701 26.7642C13.9179 26.96 13.8482 27.2068 13.8047 27.3685C13.3429 27.326 13.099 27.3175 12.7767 27.3175H12.2715V28.3048C12.2715 28.9432 12.3411 29.156 13.1251 29.156C13.5607 29.156 13.8047 29.156 14.2839 28.807C14.3621 28.7388 14.4667 28.773 14.4232 28.9432ZM10.8689 10.0478C11.017 9.94567 11.2609 9.903 11.5136 9.95417C11.7662 10.0052 11.9752 10.1328 12.0884 10.2775C11.9317 10.3797 11.6964 10.4223 11.4438 10.3712C11.1912 10.3202 10.9822 10.1925 10.8689 10.0478ZM10.5726 9.154C10.747 9.1115 10.9822 9.1625 11.1999 9.30733C11.4264 9.4435 11.5832 9.63917 11.6355 9.818C11.4699 9.8605 11.2348 9.8095 11.0083 9.66467C10.7905 9.5285 10.625 9.33283 10.5726 9.154ZM10.1284 8.3455C10.3026 8.3115 10.5378 8.3625 10.7644 8.49867C10.9909 8.64333 11.1477 8.83917 11.1999 9.01783C11.0257 9.052 10.7905 9.00083 10.5639 8.86467C10.3463 8.7285 10.1893 8.53267 10.1284 8.3455ZM10.233 6.43033C10.3985 6.4985 10.5726 6.67717 10.6946 6.924C10.8166 7.17083 10.8602 7.42617 10.8166 7.6135C10.6511 7.54533 10.4769 7.36667 10.355 7.11983C10.233 6.873 10.1893 6.61767 10.233 6.43033ZM10.7296 5.775C10.8602 5.89417 10.9822 6.124 11.0257 6.39633C11.0692 6.67717 11.0257 6.9325 10.9385 7.09433C10.7992 6.97517 10.6859 6.74533 10.6424 6.473C10.5989 6.192 10.6337 5.93667 10.7296 5.775ZM10.9909 5.62183C10.9996 5.3325 11.0953 5.09417 11.2173 4.95783C11.3218 5.11117 11.3916 5.358 11.3742 5.64733C11.3568 5.91967 11.2696 6.158 11.1477 6.29417C11.0431 6.1495 10.9735 5.89417 10.9909 5.62183ZM11.2783 7.84333C11.409 7.9625 11.5223 8.19233 11.5658 8.46467C11.6094 8.7455 11.5745 9.00083 11.4786 9.1625C11.3392 9.04333 11.226 8.81367 11.1825 8.53267C11.1477 8.26033 11.1825 8.005 11.2783 7.84333ZM11.017 8.50717C10.8427 8.47317 10.6337 8.337 10.4682 8.12417C10.3026 7.90283 10.2156 7.6645 10.2243 7.47733C10.3985 7.50283 10.6076 7.639 10.7644 7.85183C10.9298 8.07317 11.017 8.3115 11.017 8.50717ZM10.9037 7.85183C10.8776 7.6815 10.9211 7.46033 11.0431 7.2475C11.1651 7.03467 11.3305 6.8815 11.4786 6.8305C11.5136 7.00067 11.4612 7.2305 11.3392 7.44333C11.226 7.656 11.0518 7.80917 10.9037 7.85183ZM11.4525 6.24317C11.6268 6.09 11.8271 6.00483 11.9839 6.01333C11.9578 6.1835 11.8445 6.37933 11.6616 6.541C11.4875 6.69433 11.287 6.77933 11.1303 6.77083C11.1564 6.60067 11.2696 6.40483 11.4525 6.24317ZM11.6877 5.341C11.8358 5.11117 12.0275 4.95783 12.193 4.90683C12.2191 5.10267 12.1495 5.358 12.0014 5.57933C11.8621 5.8175 11.6616 5.97083 11.4962 6.01333C11.4786 5.826 11.5397 5.57067 11.6877 5.341ZM12.193 10.1583C12.0275 10.0903 11.8621 9.9115 11.7401 9.66467C11.6181 9.41783 11.5919 9.154 11.6355 8.97533C11.7923 9.04333 11.9665 9.22217 12.0884 9.469C12.2017 9.72433 12.2365 9.97967 12.193 10.1583ZM12.7506 10.5925C12.6287 10.7372 12.4108 10.8478 12.1582 10.8818C11.8969 10.916 11.6616 10.8563 11.5223 10.7457C11.6355 10.6095 11.8621 10.4988 12.1145 10.4648C12.3672 10.4308 12.6024 10.4818 12.7506 10.5925ZM12.977 10.1328C13.1861 10.2947 13.3342 10.4988 13.3777 10.6777C13.2035 10.7117 12.977 10.6435 12.7593 10.4818C12.5415 10.3372 12.3934 10.1243 12.3498 9.93717C12.5241 9.9115 12.7506 9.97967 12.977 10.1328ZM13.4736 10.8053C13.4823 10.8053 13.4823 10.8138 13.4823 10.8138C13.552 10.8478 13.6216 10.8733 13.6914 10.9073C13.6914 10.9073 13.7699 10.8563 13.9179 10.8053C14.066 10.7457 14.2663 10.7287 14.4754 10.7883C14.728 10.8478 14.9285 10.984 15.0329 11.1372C14.8848 11.2308 14.6496 11.2563 14.3882 11.1968C14.1532 11.1372 13.9527 11.0095 13.8482 10.8648C13.8134 10.8903 13.7873 10.916 13.7523 10.9415C14.0225 11.1032 14.2402 11.3075 14.458 11.5798C14.3708 11.7075 14.336 11.7755 14.2489 11.9033C14.0834 11.5458 13.9179 11.2563 13.6914 11.0095C13.4562 11.2563 13.2557 11.5543 13.099 11.9033C13.012 11.7755 12.9683 11.716 12.89 11.5883C13.099 11.316 13.3429 11.1032 13.6216 10.9415C13.5955 10.916 13.5607 10.8903 13.5346 10.8563C13.4214 11.0095 13.2296 11.1372 12.9857 11.1968C12.7331 11.2563 12.4891 11.2308 12.3411 11.1372C12.4369 10.984 12.6461 10.8478 12.8987 10.7883C13.1164 10.7287 13.3168 10.7457 13.4649 10.8053H13.4736ZM14.3882 10.1328C14.6061 9.97967 14.8326 9.9115 15.0068 9.93717C14.9633 10.1243 14.8152 10.3372 14.6061 10.4818C14.3882 10.6435 14.1532 10.7117 13.9875 10.6777C14.0225 10.4988 14.1706 10.2947 14.3882 10.1328ZM15.2507 10.4648C15.5034 10.4988 15.7212 10.6095 15.8432 10.7457C15.6951 10.8563 15.4599 10.916 15.1985 10.8818C14.9459 10.8478 14.728 10.7372 14.6148 10.5925C14.7541 10.4818 14.9894 10.4308 15.2507 10.4648ZM15.2768 9.469C15.3988 9.22217 15.5644 9.04333 15.7299 8.97533C15.7734 9.154 15.7386 9.41783 15.6166 9.66467C15.5034 9.9115 15.3292 10.0903 15.1637 10.1583C15.1287 9.97967 15.1549 9.72433 15.2768 9.469ZM15.1637 4.90683C15.3379 4.95783 15.5295 5.11117 15.6777 5.341C15.8171 5.57067 15.8867 5.826 15.8606 6.01333C15.6951 5.97083 15.5034 5.8175 15.3553 5.57933C15.2072 5.358 15.1461 5.10267 15.1637 4.90683ZM16.2352 6.77083C16.0784 6.77933 15.878 6.69433 15.6951 6.541C15.5121 6.37933 15.3988 6.1835 15.3727 6.01333C15.5295 6.00483 15.7299 6.09 15.9128 6.24317C16.0958 6.40483 16.2091 6.60067 16.2352 6.77083ZM16.1393 4.95783C16.27 5.09417 16.3571 5.3325 16.3658 5.62183C16.3919 5.89417 16.3223 6.1495 16.2178 6.29417C16.0958 6.158 15.9999 5.91967 15.9825 5.64733C15.9738 5.358 16.0347 5.11117 16.1393 4.95783ZM16.6359 5.775C16.7317 5.93667 16.7665 6.192 16.723 6.473C16.6794 6.74533 16.5576 6.97517 16.4267 7.09433C16.331 6.9325 16.2961 6.67717 16.3397 6.39633C16.3832 6.124 16.4965 5.89417 16.6359 5.775ZM17.1237 6.43033C17.1672 6.61767 17.1324 6.873 17.0105 7.11983C16.8885 7.36667 16.7056 7.54533 16.5487 7.6135C16.5052 7.42617 16.54 7.17083 16.662 6.924C16.7839 6.67717 16.9583 6.4985 17.1237 6.43033ZM16.1654 9.01783C16.2178 8.83917 16.3745 8.64333 16.6011 8.49867C16.8276 8.3625 17.054 8.3115 17.2283 8.3455C17.1759 8.53267 17.0192 8.7285 16.7926 8.86467C16.5663 9.00083 16.331 9.052 16.1654 9.01783ZM16.0871 7.84333C16.1741 8.005 16.2178 8.26033 16.1741 8.53267C16.1306 8.81367 16.0173 9.04333 15.878 9.1625C15.7908 9.00083 15.7473 8.7455 15.7908 8.46467C15.8345 8.19233 15.9477 7.9625 16.0871 7.84333ZM16.5924 7.85183C16.7578 7.639 16.9583 7.50283 17.1324 7.47733C17.1411 7.6645 17.054 7.90283 16.8885 8.12417C16.723 8.337 16.5226 8.47317 16.3484 8.50717C16.3484 8.3115 16.4267 8.07317 16.5924 7.85183ZM16.4617 7.85183C16.3049 7.80917 16.1393 7.656 16.0173 7.44333C15.8954 7.2305 15.8519 7.00067 15.878 6.8305C16.026 6.8815 16.1917 7.03467 16.3136 7.2475C16.4356 7.46033 16.4878 7.6815 16.4617 7.85183ZM16.4878 10.0478C16.3832 10.1925 16.1741 10.3202 15.9128 10.3712C15.6601 10.4223 15.4251 10.3797 15.2768 10.2775C15.3814 10.1328 15.5905 10.0052 15.8519 9.95417C16.1045 9.903 16.3397 9.94567 16.4878 10.0478ZM16.3484 9.66467C16.1306 9.8095 15.8867 9.8605 15.7212 9.818C15.7734 9.63917 15.9303 9.4435 16.1567 9.30733C16.3832 9.1625 16.6185 9.1115 16.7839 9.154C16.7317 9.33283 16.575 9.5285 16.3484 9.66467ZM18.5176 11.6393L22.0892 4.226C21.9586 3.945 22.1764 3.59617 22.4551 3.59617C22.7339 3.59617 22.9952 3.945 22.8645 4.2175L26.4625 11.5883C27.0722 11.8777 27.3424 12.2437 27.3074 12.4905C27.2813 12.7543 27.0897 12.9162 26.8632 13.0012C26.8806 14.3375 26.8195 19.0783 26.8371 21.785C27.1419 21.8532 27.1419 22.168 27.1158 23.1895C27.0984 24.1682 27.1854 24.5002 26.5234 24.5002C26.4362 24.5002 26.262 24.4917 26.262 24.4917V24.1597C26.2533 23.9895 26.2534 23.9385 26.1575 23.9043C25.8788 23.7937 25.5826 23.7002 25.2602 23.5725C25.0337 23.4958 18.2214 21.1127 18.2214 21.1127C18.2214 21.1127 17.9077 21.0275 17.9077 20.7297C17.9077 20.7042 17.899 20.4487 17.899 20.3637V19.4103C17.899 19.1635 18.0645 19.0783 18.2127 19.0955C18.2214 19.0955 18.2214 19.0698 18.2214 19.0528C18.2127 18.1762 18.2039 13.5885 18.2039 13.1033C17.8903 13.0097 17.8032 12.797 17.8032 12.797C17.6551 12.482 17.8119 12.0053 18.5176 11.6393ZM28.4051 8.49867C28.6229 8.64333 28.7884 8.83917 28.8406 9.01783C28.6664 9.052 28.4312 9.00083 28.2134 8.86467C27.987 8.7285 27.8214 8.53267 27.7692 8.3455C27.9433 8.3115 28.1786 8.3625 28.4051 8.49867ZM27.8737 6.43033C28.0392 6.4985 28.2134 6.67717 28.3353 6.924C28.4573 7.17083 28.501 7.42617 28.4573 7.6135C28.2918 7.54533 28.1177 7.36667 27.9957 7.11983C27.8737 6.873 27.8301 6.61767 27.8737 6.43033ZM28.3703 5.775C28.5097 5.89417 28.6229 6.124 28.6664 6.39633C28.7099 6.67717 28.6751 6.9325 28.5793 7.09433C28.4399 6.97517 28.3266 6.74533 28.2831 6.473C28.2396 6.192 28.2744 5.93667 28.3703 5.775ZM28.6316 5.62183C28.649 5.3325 28.736 5.09417 28.858 4.95783C28.9713 5.11117 29.0323 5.358 29.0149 5.64733C28.9975 5.91967 28.9104 6.158 28.7884 6.29417C28.6751 6.1495 28.6142 5.89417 28.6316 5.62183ZM29.0845 6.24317C29.2676 6.09 29.4678 6.00483 29.6335 6.01333C29.5985 6.1835 29.4852 6.37933 29.3111 6.541C29.1282 6.69433 28.9191 6.77933 28.7623 6.77083C28.7884 6.60067 28.9104 6.40483 29.0845 6.24317ZM29.3285 5.341C29.4765 5.11117 29.6683 4.95783 29.8337 4.90683C29.8598 5.10267 29.7902 5.358 29.6509 5.57933C29.4939 5.8175 29.3111 5.97083 29.1369 6.01333C29.1195 5.826 29.1804 5.57067 29.3285 5.341ZM29.8337 10.1583C29.6683 10.0903 29.4939 9.9115 29.3808 9.66467C29.2589 9.41783 29.2239 9.154 29.2676 8.97533C29.433 9.04333 29.6072 9.22217 29.7205 9.469C29.8424 9.72433 29.8772 9.97967 29.8337 10.1583ZM29.1543 9.95417C29.4069 10.0052 29.6159 10.1328 29.7205 10.2775C29.5724 10.3797 29.3372 10.4223 29.0845 10.3712C28.8319 10.3202 28.6229 10.1925 28.5097 10.0478C28.6664 9.94567 28.9017 9.903 29.1543 9.95417ZM29.285 9.818C29.1106 9.8605 28.8756 9.8095 28.649 9.66467C28.4225 9.5285 28.2657 9.33283 28.2134 9.154C28.3877 9.1115 28.6229 9.1625 28.8406 9.30733C29.0671 9.4435 29.2239 9.63917 29.285 9.818ZM28.9191 7.84333C29.0584 7.9625 29.1717 8.19233 29.2065 8.46467C29.2502 8.7455 29.2152 9.00083 29.1195 9.1625C28.98 9.04333 28.8669 8.81367 28.8319 8.53267C28.7884 8.26033 28.8232 8.005 28.9191 7.84333ZM28.649 8.50717C28.4836 8.47317 28.2744 8.337 28.109 8.12417C27.9433 7.90283 27.8563 7.6645 27.865 7.47733C28.0392 7.50283 28.2396 7.639 28.4051 7.85183C28.5706 8.07317 28.6577 8.3115 28.649 8.50717ZM28.5445 7.85183C28.5184 7.6815 28.5619 7.46033 28.6838 7.2475C28.8058 7.03467 28.9713 6.8815 29.1282 6.8305C29.1543 7.00067 29.1019 7.2305 28.98 7.44333C28.858 7.656 28.6925 7.80917 28.5445 7.85183ZM30.3825 10.5925C30.2694 10.7372 30.0516 10.8478 29.7989 10.8818C29.5376 10.916 29.3111 10.8563 29.163 10.7457C29.285 10.6095 29.4939 10.4988 29.7554 10.4648C30.0081 10.4308 30.2431 10.4818 30.3825 10.5925ZM30.6177 10.1328C30.8269 10.2947 30.9749 10.4988 31.0184 10.6777C30.8443 10.7117 30.6177 10.6435 30.4001 10.4818C30.1822 10.3372 30.0342 10.1243 29.9905 9.93717C30.1648 9.9115 30.4001 9.97967 30.6177 10.1328ZM31.3147 10.9073C31.3756 10.8733 31.4454 10.8478 31.515 10.8138C31.5237 10.8138 31.5237 10.8053 31.5326 10.8053C31.6893 10.7457 31.8896 10.7287 32.0987 10.7883C32.3514 10.8478 32.5605 10.984 32.6649 11.1372C32.5081 11.2308 32.2642 11.2563 32.0203 11.1968C31.7763 11.1372 31.5761 11.0095 31.4715 10.8563C31.4367 10.8903 31.4106 10.916 31.3756 10.9415C31.6632 11.1032 31.907 11.316 32.1161 11.5883C32.029 11.716 31.9942 11.7755 31.907 11.9033C31.7502 11.5543 31.55 11.2563 31.3147 11.0095C31.0882 11.2563 30.914 11.5458 30.7484 11.9033C30.6701 11.7755 30.6264 11.7075 30.5481 11.5798C30.7571 11.3075 30.9749 11.1032 31.245 10.9415C31.2189 10.916 31.1841 10.8903 31.158 10.8648C31.0447 11.0095 30.853 11.1372 30.609 11.1968C30.3564 11.2563 30.1212 11.2308 29.9644 11.1372C30.069 10.984 30.2694 10.8478 30.522 10.7883C30.731 10.7287 30.9314 10.7457 31.0882 10.8053C31.2276 10.8563 31.3147 10.9073 31.3147 10.9073ZM32.029 10.1328C32.2468 9.97967 32.4733 9.9115 32.6475 9.93717C32.604 10.1243 32.4559 10.3372 32.2468 10.4818C32.029 10.6435 31.7939 10.7117 31.6196 10.6777C31.6632 10.4988 31.8113 10.2947 32.029 10.1328ZM32.8914 10.4648C33.1441 10.4988 33.3619 10.6095 33.4752 10.7457C33.3358 10.8563 33.1006 10.916 32.8479 10.8818C32.5866 10.8478 32.3688 10.7372 32.2555 10.5925C32.3949 10.4818 32.6301 10.4308 32.8914 10.4648ZM32.9175 9.469C33.0395 9.22217 33.2051 9.04333 33.3706 8.97533C33.4141 9.154 33.3793 9.41783 33.266 9.66467C33.1441 9.9115 32.9699 10.0903 32.8131 10.1583C32.7608 9.97967 32.7956 9.72433 32.9175 9.469ZM32.8044 4.90683C32.9786 4.95783 33.1702 5.11117 33.3184 5.341C33.4665 5.57067 33.5274 5.826 33.51 6.01333C33.3358 5.97083 33.1441 5.8175 32.996 5.57933C32.8479 5.358 32.7869 5.10267 32.8044 4.90683ZM33.8759 6.77083C33.7191 6.77933 33.5187 6.69433 33.3358 6.541C33.1528 6.37933 33.0395 6.1835 33.0134 6.01333C33.1702 6.00483 33.3706 6.09 33.5535 6.24317C33.7365 6.40483 33.8498 6.60067 33.8759 6.77083ZM33.7887 4.95783C33.9107 5.09417 33.9978 5.3325 34.0152 5.62183C34.0239 5.89417 33.963 6.1495 33.8585 6.29417C33.7278 6.158 33.6406 5.91967 33.6319 5.64733C33.6145 5.358 33.6754 5.11117 33.7887 4.95783ZM34.2766 5.775C34.3637 5.93667 34.4072 6.192 34.3637 6.473C34.3202 6.74533 34.1983 6.97517 34.0676 7.09433C33.9717 6.9325 33.9368 6.67717 33.9804 6.39633C34.0239 6.124 34.1372 5.89417 34.2766 5.775ZM34.2331 7.85183C34.3985 7.639 34.599 7.50283 34.7731 7.47733C34.7818 7.6645 34.6947 7.90283 34.5292 8.12417C34.3637 8.337 34.1633 8.47317 33.9891 8.50717C33.9804 8.3115 34.0676 8.07317 34.2331 7.85183ZM33.815 8.53267C33.7713 8.81367 33.658 9.04333 33.5187 9.1625C33.4317 9.00083 33.388 8.7455 33.4317 8.46467C33.4752 8.19233 33.5884 7.9625 33.7278 7.84333C33.815 8.005 33.8585 8.26033 33.815 8.53267ZM33.658 7.44333C33.5361 7.2305 33.4926 7.00067 33.5187 6.8305C33.6667 6.8815 33.8324 7.03467 33.9543 7.2475C34.0763 7.46033 34.1285 7.6815 34.0937 7.85183C33.9456 7.80917 33.78 7.656 33.658 7.44333ZM34.7644 6.43033C34.8079 6.61767 34.7731 6.873 34.6425 7.11983C34.5205 7.36667 34.3463 7.54533 34.1894 7.6135C34.1459 7.42617 34.1807 7.17083 34.3027 6.924C34.4246 6.67717 34.599 6.4985 34.7644 6.43033ZM39.1201 6.456L33.1702 1.16183C31.7676 2.0555 29.9383 2.60017 27.9259 2.60017C25.8266 2.60017 23.9187 2.0045 22.4986 1.03417C21.0787 2.0045 19.1709 2.60017 17.0715 2.60017C15.0592 2.60017 13.2296 2.0555 11.8358 1.16183L5.87715 6.456C5.87715 6.456 8.752 9.12 8.7694 11.2733C8.7781 13.4353 8.12476 15.1802 7.31466 17.3847C7.01836 18.2102 6.67003 19.5125 6.50439 21.019C6.46959 21.3083 6.43479 21.6233 6.41739 21.9382C6.39982 22.2192 6.39982 22.5085 6.39112 22.7978C6.38242 24.5853 6.69613 26.4918 7.61949 28.1432C7.75886 28.39 7.90693 28.6282 8.07257 28.858C8.55156 29.5305 12.4456 35.829 20.7128 36.6545L20.7478 36.68L22.4986 38.3908L24.2584 36.68L24.2845 36.6545C32.5518 35.829 36.4457 29.5305 36.9249 28.858C37.0904 28.6282 37.2473 28.39 37.378 28.1432C38.3013 26.4918 38.6149 24.5853 38.6062 22.7978C38.6062 22.5085 38.5975 22.2192 38.5801 21.9382C38.5627 21.6233 38.5279 21.3083 38.5016 21.019C38.3274 19.5125 37.9876 18.2102 37.6828 17.3847C36.8814 15.1802 36.2192 13.4353 36.2368 11.2733C36.2455 9.12 39.1201 6.456 39.1201 6.456Z" fill="#274488"/>
<path d="M24.9997 32.838C25.1915 32.7273 25.3917 32.5912 25.3917 32.3273C25.3917 32.0975 25.2176 31.9188 24.9736 31.9188C24.7384 31.9188 24.5642 32.089 24.5642 32.3188C24.5642 32.5657 24.7558 32.7018 24.9997 32.838Z" fill="#274488"/>
<path d="M24.8856 33.164C24.5634 33.3172 24.4064 33.5215 24.4064 33.7683C24.4064 34.0407 24.6156 34.245 24.9117 34.245C25.208 34.245 25.4344 34.0407 25.4344 33.7683C25.4344 33.5045 25.2515 33.3598 24.8856 33.164Z" fill="#274488"/>
<path d="M21.185 33.1112C20.8627 33.2645 20.7058 33.4687 20.7058 33.7155C20.7058 33.9878 20.9149 34.1922 21.2111 34.1922C21.5074 34.1922 21.7339 33.9793 21.7339 33.7155C21.7339 33.4517 21.5509 33.307 21.185 33.1112Z" fill="#274488"/>
</svg>
