<svg width="40" height="45" viewBox="0 0 40 45" fill="none" xmlns="http://www.w3.org/2000/svg">
<path d="M39.1196 2.11872C39.0572 2.10587 30.314 0.00321223 20.0894 0C20.0594 0 20.03 0.00101383 19.9998 0.00101383C19.9696 0.00101383 19.9402 0 19.9102 0C9.6858 0.00321223 0.942599 2.10587 0.880399 2.11872C0.359799 2.24332 0 2.64553 0 3.10403V26.7031L0.0221985 26.8935C0.0459985 27.0487 2.7404 38.6924 19.511 44.9145C19.6656 44.9713 19.832 45 19.9982 45C19.9988 45 19.9994 44.9997 20 44.9997C20.0006 44.9997 20.0012 45 20.0018 45C20.168 45 20.3344 44.9713 20.489 44.9145C37.2596 38.6924 39.9538 27.0485 39.9778 26.8935L40 26.7031V3.10403C39.9998 2.64553 39.64 2.24332 39.1196 2.11872Z" fill="white"/>
<path d="M38.9254 2.68931C38.8994 2.68357 30.0772 0.608295 20 0.594094C9.9226 0.608295 1.1006 2.68374 1.0744 2.68931C0.853599 2.74054 0.702399 2.90944 0.702399 3.10302V26.7031L0.710599 26.7834C0.720599 26.8475 3.3172 38.2599 19.7952 44.3711C19.8602 44.3951 19.9302 44.4073 20 44.4073C20.0696 44.4073 20.1394 44.3951 20.2046 44.3711C36.6826 38.2599 39.279 26.8475 39.289 26.7834L39.2974 26.7031V3.10302C39.2974 2.90944 39.1462 2.74054 38.9254 2.68931Z" fill="black"/>
<path d="M20 1.45548C15.8502 1.45954 11.9186 1.82167 8.7376 2.23994V36.9432C11.4048 39.2922 15.0446 41.6412 20 43.5061C24.9552 41.6412 28.595 39.2922 31.2622 36.9432V2.23994C28.0812 1.82151 24.1496 1.45954 20 1.45548Z" fill="white"/>
<path d="M14.49 33.58C12.9374 32.2686 12.224 30.7083 12.225 29.1456C12.225 27.2822 13.232 25.4198 14.986 23.9381C16.3612 22.7761 18.0096 22.0031 19.7212 21.7216L17.3282 19.6996C16.6876 20.2406 14.2168 22.3245 13.2958 23.1032H13.307L12.9312 23.4172L12.7988 23.5259C12.711 23.5888 12.5764 23.6471 12.423 23.6451C12.2494 23.6545 12.0666 23.5751 11.9492 23.4616L10.6378 22.3412C10.5078 22.2447 10.4076 22.0942 10.4188 21.9434C10.416 21.8128 10.4866 21.6988 10.5756 21.6111L19.6602 13.935L17.6594 12.246C17.0198 12.786 14.548 14.8709 13.6264 15.6503H13.6352L13.2616 15.9631L13.128 16.0727C13.0424 16.1332 12.909 16.1952 12.7514 16.193C12.5774 16.2025 12.3978 16.122 12.2792 16.0091L10.9662 14.888C10.839 14.7915 10.7378 14.6432 10.7478 14.4909C10.745 14.3597 10.8156 14.2459 10.9058 14.1578L21.0564 5.58151C21.2644 5.39959 21.5576 5.28683 21.8794 5.28683C22.1986 5.28531 22.484 5.39621 22.6858 5.5739L29.4402 11.2842C29.5148 11.3595 29.5844 11.4733 29.5816 11.6029C29.5926 11.7488 29.5 11.9034 29.3676 12.0026L29.3036 12.0562H29.3008C29.2624 12.0863 29.2102 12.1306 29.1474 12.1825C29.0188 12.2902 28.8482 12.4335 28.6774 12.5779C28.336 12.8652 27.9966 13.1517 27.9956 13.1517L27.841 13.2807L22.1382 8.45832L19.5462 10.6513L29.109 18.7359C29.1848 18.8117 29.2542 18.9263 29.2514 19.055C29.2626 19.2012 29.1696 19.3549 29.0362 19.4555L27.5134 20.7346L21.809 15.9126L19.2158 18.1035L23.9244 22.0838C24.7952 22.3987 25.63 22.8726 26.3924 23.5186C27.8622 24.7756 28.6958 26.2889 28.697 27.7965C28.697 28.8885 28.2566 29.9722 27.323 30.9319L27.1706 31.089L24.945 29.2063L25.0308 29.0841C25.4462 28.4891 25.6888 27.8783 25.6876 27.2747C25.6864 26.5532 25.351 25.8296 24.5056 25.1132C23.5966 24.3465 22.6072 24.0382 21.5988 24.0363C20.0706 24.0339 18.4824 24.7734 17.2306 25.8338C15.9762 26.8911 15.1024 28.2352 15.1052 29.5275C15.1064 30.3798 15.4724 31.2165 16.3782 31.9832C17.1462 32.6316 17.9998 32.9075 18.8736 32.9085C19.868 32.9085 20.896 32.5418 21.8082 31.9058L21.96 31.8013L24.1522 33.6544L23.9804 33.7837C22.58 34.834 20.9508 35.3726 19.324 35.3726C17.6076 35.3726 15.9014 34.7731 14.49 33.58Z" fill="black"/>
<path d="M20.636 21.9749L20.202 22.0243C18.448 22.2278 16.7216 22.9884 15.2932 24.1971C13.607 25.6204 12.6578 27.3951 12.6578 29.1456C12.6594 30.6143 13.32 32.0706 14.7956 33.3207C16.1378 34.4532 17.7268 35.0054 19.324 35.0062C20.771 35.0062 22.2302 34.5499 23.5194 33.6365L21.93 32.2921C20.9958 32.9066 19.937 33.2737 18.8736 33.2745C17.8888 33.2755 16.9088 32.9526 16.0726 32.2424C15.0928 31.4173 14.6698 30.4711 14.6722 29.5275C14.6744 28.0939 15.6176 26.6801 16.925 25.5755C18.2324 24.4703 19.904 23.6726 21.599 23.6701C22.7146 23.6693 23.8346 24.026 24.8118 24.8539C25.7222 25.6216 26.123 26.4522 26.1208 27.2747C26.1208 27.9173 25.8806 28.5475 25.488 29.1463L27.1374 30.5411C27.9082 29.6831 28.2634 28.7458 28.2634 27.7966C28.2646 26.4051 27.4912 24.9793 26.0858 23.7768C25.3502 23.1536 24.5482 22.7027 23.717 22.406L23.6754 22.3911L18.6028 18.1038L21.8094 15.3951L27.5138 20.2168L28.7312 19.1963C28.8346 19.0949 28.8072 19.1356 28.8184 19.0553C28.8162 19.0186 28.814 19.0134 28.789 18.9828L18.933 10.6514L22.1384 7.94098L27.8436 12.7646C28.1738 12.4856 28.9334 11.844 29.0626 11.7426C29.1648 11.6435 29.1382 11.6834 29.1486 11.6029C29.1464 11.5662 29.1454 11.5612 29.1192 11.5287L22.377 5.8302C22.2456 5.71744 22.0822 5.65404 21.8798 5.65252C21.6778 5.65252 21.4972 5.72251 21.3658 5.83764L11.2264 14.4037C11.1858 14.4488 11.1836 14.4557 11.1806 14.4906C11.1906 14.5644 11.1656 14.5257 11.2736 14.6294L12.5876 15.7514C12.7062 15.8404 12.6606 15.8177 12.7518 15.8272C12.7918 15.825 12.803 15.823 12.8414 15.8L12.9404 15.7171L12.9478 15.7097L12.9538 15.7034L12.966 15.6931C12.976 15.6847 12.9882 15.6733 13.0056 15.6583C13.0396 15.63 13.089 15.5881 13.1506 15.5361C13.2752 15.4304 13.4526 15.2789 13.6662 15.099C14.0934 14.7384 14.6622 14.2569 15.2316 13.7771C16.3684 12.8171 17.5068 11.858 17.5068 11.858L17.6586 11.7297L20.2726 13.9348L10.8968 21.8554C10.8584 21.8997 10.8546 21.9081 10.8518 21.9434C10.8628 22.0187 10.8356 21.9791 10.9446 22.0834L12.2576 23.2047C12.375 23.2916 12.3294 23.2704 12.4234 23.2789C12.465 23.277 12.474 23.2748 12.5112 23.2532L12.618 23.1634L12.6234 23.1577L12.6356 23.1465C12.6456 23.1389 12.658 23.1277 12.6752 23.1125C12.7092 23.0843 12.7586 23.0425 12.8202 22.9894C12.9448 22.8838 13.122 22.7333 13.3358 22.5522C13.763 22.1918 14.3318 21.7113 14.9012 21.2303C16.038 20.2705 17.1762 19.3106 17.1762 19.3106L17.3282 19.1818L20.326 21.7138L20.636 21.9749Z" fill="#CC0000"/>
</svg>
