<svg width="45" height="45" viewBox="0 0 45 45" fill="none" xmlns="http://www.w3.org/2000/svg">
<path fill-rule="evenodd" clip-rule="evenodd" d="M24.5215 41.4839C24.3597 41.969 23.8326 43.1573 22.5605 43.1573C21.1156 43.1573 20.6113 41.592 20.5868 41.5278L20.5455 41.3777C20.5455 41.3777 21.7908 41.4811 22.4764 41.4811C23.1621 41.4811 24.3333 41.4146 24.5252 41.3777L24.5215 41.4839Z" fill="black"/>
<path fill-rule="evenodd" clip-rule="evenodd" d="M28.3142 40.7121L28.6128 40.7518C28.2584 41.6751 27.6225 42.7103 26.373 42.7103C25.1637 42.7103 24.5642 42.0094 24.3083 41.5381L24.0994 41.4099C24.0996 41.4097 26.1912 41.3408 28.3142 40.7121ZM16.8497 40.7121L16.5515 40.7518C16.9052 41.6751 17.5416 42.7103 18.7916 42.7103C20.0006 42.7103 20.6538 41.9702 20.9218 41.5381L21.0645 41.4099C21.0642 41.4097 18.9732 41.3408 16.8497 40.7121Z" fill="black"/>
<path fill-rule="evenodd" clip-rule="evenodd" d="M23.5741 41.5801C23.3785 41.8638 23.2478 41.8504 23.0115 41.8504C22.8934 41.8504 22.7159 41.9485 22.7215 42.1259C22.7253 42.2651 22.8387 42.3813 23.0316 42.3813C23.4583 42.3813 23.7835 41.7849 23.8751 41.5327C23.8751 41.5327 24.1277 41.5217 24.2014 41.5145C24.2014 41.5145 23.7488 42.8618 22.5759 42.8618C21.4004 42.8618 20.9218 41.529 20.9218 41.529C20.9218 41.529 21.9108 41.5901 22.4776 41.5901C23.0444 41.5901 23.4044 41.5876 23.5741 41.5801ZM28.1578 40.9874C27.3909 41.194 26.8465 41.3609 25.5592 41.5175C25.5592 41.5175 25.5994 41.6506 25.8793 41.6357C25.9869 41.6303 26.0007 41.6037 26.0406 41.5965C26.12 41.582 26.2421 41.6653 26.2276 41.8054C26.2171 41.903 26.1333 42.0265 25.8482 42.0265C25.5632 42.0265 25.23 41.793 25.0626 41.5768C25.0626 41.5768 24.8913 41.6161 24.7143 41.6261C24.7143 41.6261 25.262 42.3935 26.3427 42.3935C27.5319 42.3937 27.9708 41.3312 28.1578 40.9874Z" fill="#FFF22D"/>
<path fill-rule="evenodd" clip-rule="evenodd" d="M27.3603 41.7375C27.3603 41.5514 27.3029 41.3791 27.2053 41.2365C26.789 41.3345 26.313 41.4244 25.6157 41.511C25.6107 41.5318 25.6061 41.5526 25.6019 41.5736C25.6439 41.6077 25.7254 41.6438 25.8793 41.6357C25.9869 41.6303 26.0007 41.6037 26.0406 41.5965C26.12 41.582 26.2421 41.6653 26.2276 41.8054C26.2171 41.903 26.1333 42.0265 25.8482 42.0265C25.7749 42.0265 25.6976 42.0115 25.6215 41.9845C25.6589 42.114 25.725 42.2312 25.8125 42.3288C25.9857 42.3726 26.164 42.394 26.3427 42.3935C26.7239 42.3935 27.0274 42.2849 27.2709 42.125C27.3299 42.0043 27.3605 41.8718 27.3603 41.7375Z" fill="#FADE2F"/>
<path fill-rule="evenodd" clip-rule="evenodd" d="M27.3482 41.7375C27.3485 41.5595 27.2942 41.3857 27.1927 41.2395C26.7818 41.3352 26.3123 41.4237 25.6292 41.5089C25.6227 41.5328 25.6174 41.5571 25.6134 41.5815C25.658 41.613 25.7378 41.6436 25.8793 41.6357C25.9869 41.6303 26.0007 41.6037 26.0406 41.5965C26.12 41.582 26.2421 41.6653 26.2276 41.8054C26.2171 41.903 26.1333 42.0265 25.8482 42.0265C25.7794 42.0265 25.7077 42.0127 25.6362 41.9891C25.6755 42.1196 25.7439 42.2368 25.8347 42.3339C25.9883 42.3713 26.1576 42.3935 26.3427 42.3935C26.7134 42.3935 27.0115 42.2907 27.2515 42.1378C27.315 42.0139 27.3482 41.8767 27.3482 41.7375Z" fill="#FBE02F"/>
<path fill-rule="evenodd" clip-rule="evenodd" d="M27.3358 41.7375C27.3358 41.5533 27.2784 41.3824 27.1799 41.2423C26.775 41.3366 26.3107 41.4237 25.6423 41.5077C25.6351 41.5341 25.6285 41.5614 25.6241 41.589C25.6706 41.6177 25.7488 41.6424 25.8793 41.6357C25.9869 41.6303 26.0007 41.6037 26.0406 41.5965C26.12 41.582 26.2421 41.6653 26.2276 41.8054C26.2171 41.903 26.1333 42.0265 25.8482 42.0265C25.7808 42.0255 25.7141 42.0147 25.65 41.9938C25.6906 42.1248 25.7618 42.2427 25.8557 42.3391C26.0039 42.3732 26.1662 42.3935 26.3427 42.3935C26.7029 42.3935 26.9943 42.2961 27.2305 42.1507C27.2999 42.024 27.3362 41.8819 27.3358 41.7375Z" fill="#FCE22F"/>
<path fill-rule="evenodd" clip-rule="evenodd" d="M17.0068 40.9874C17.7732 41.194 18.3179 41.3609 19.6051 41.5175C19.6051 41.5175 19.565 41.6506 19.2851 41.6357C19.1772 41.6303 19.1635 41.6037 19.1235 41.5964C19.0444 41.582 18.9221 41.6653 18.937 41.8054C18.9473 41.903 19.0308 42.0265 19.3159 42.0265C19.6009 42.0265 19.9341 41.793 20.1012 41.5768C20.1012 41.5768 20.2733 41.6161 20.4503 41.6261C20.4503 41.6261 19.9023 42.3935 18.8217 42.3935C17.6324 42.3937 17.1933 41.3312 17.0068 40.9874ZM22.4624 34.6663C26.5598 34.6663 31.0998 32.1513 34.283 28.5253C34.6273 28.1335 35.2119 27.3904 36.5975 27.3904C37.9828 27.3904 39.8247 28.653 39.6079 30.952C39.4501 32.6282 37.0541 36.4058 32.9567 38.7345C28.8593 41.0632 25.0862 41.5642 22.4626 41.5642C19.8391 41.5642 16.066 41.0632 11.9683 38.7345C7.87096 36.4058 5.47524 32.6282 5.31696 30.952C5.10007 28.653 6.94204 27.3904 8.3276 27.3904C9.71316 27.3904 10.298 28.1338 10.6421 28.5253C13.8253 32.1513 18.365 34.6663 22.4624 34.6663Z" fill="#FFF22D"/>
<path d="M22.4624 34.519C24.4477 34.519 26.5407 33.92 28.5304 32.8862C30.6037 31.8093 32.5629 30.2622 34.1726 28.4286C34.35 28.2271 34.5883 27.9348 34.9696 27.6881C35.3531 27.4397 35.8714 27.2431 36.5975 27.2431C36.6726 27.2431 36.7529 27.2473 36.8372 27.255C37.5051 27.3183 38.2394 27.6412 38.8057 28.2033C39.3726 28.766 39.7729 29.5672 39.7729 30.5853C39.7729 30.7053 39.7671 30.832 39.7542 30.966C39.6634 31.9286 38.8638 33.5546 37.4507 35.2084C36.3418 36.5057 34.8526 37.8261 33.0296 38.862C30.9667 40.0342 28.9856 40.7469 27.1904 41.166C24.0804 41.8927 20.8447 41.8927 17.7347 41.166C15.9397 40.7469 13.9586 40.0342 11.8957 38.862C10.0727 37.8259 8.58347 36.5055 7.47455 35.2084C6.06145 33.5546 5.26163 31.9286 5.17081 30.966C5.15864 30.8395 5.15241 30.7124 5.15214 30.5853C5.15214 29.5672 5.55251 28.766 6.11958 28.2033C6.68571 27.6412 7.41969 27.3183 8.08737 27.255C8.17212 27.2473 8.25243 27.2431 8.3276 27.2431C9.05318 27.2431 9.57215 27.4397 9.95525 27.6881C10.3367 27.9348 10.5753 28.2271 10.7525 28.4286C12.3622 30.2622 14.3218 31.8091 16.3947 32.8862C18.3844 33.92 20.4769 34.519 22.4624 34.519ZM22.4624 34.8136C20.4285 34.8136 18.2894 34.2027 16.2586 33.1479C14.1549 32.0549 12.1658 30.4837 10.5312 28.6224C10.3643 28.4323 10.1385 28.1569 9.7951 27.9344C9.45356 27.7133 8.98735 27.5382 8.32737 27.5382C8.25644 27.5381 8.18555 27.5413 8.11492 27.5478C7.50981 27.6047 6.84306 27.8994 6.32665 28.4118C5.81095 28.9238 5.44676 29.6542 5.44676 30.5855C5.44676 30.7036 5.45213 30.8213 5.4631 30.9385C5.54901 31.8494 6.32455 33.4108 7.69774 35.0177C8.78704 36.2921 10.2501 37.5894 12.0407 38.607C14.0755 39.7634 16.03 40.4661 17.8015 40.8795C19.3294 41.2366 20.8933 41.417 22.4624 41.4172C24.0315 41.417 25.5954 41.2366 27.1234 40.8795C28.8953 40.4661 30.8495 39.7634 32.8841 38.607C34.6747 37.5894 36.138 36.2921 37.2273 35.0172C38.6007 33.4103 39.3763 31.8497 39.462 30.9385C39.4729 30.8218 39.4783 30.7036 39.4783 30.5855C39.4783 29.6545 39.1139 28.924 38.5982 28.4118C38.082 27.8994 37.415 27.6047 36.8099 27.5478C36.7393 27.5413 36.6684 27.5382 36.5975 27.5382C35.9377 27.5382 35.4713 27.7133 35.1297 27.9344C34.7863 28.1569 34.5603 28.4323 34.3939 28.6224C32.7592 30.4837 30.7704 32.0549 28.6665 33.1474C26.6359 34.2027 24.4965 34.8136 22.4624 34.8136Z" fill="black"/>
<path fill-rule="evenodd" clip-rule="evenodd" d="M10.1817 28.8855L10.1338 28.8313C9.80771 28.4569 9.36088 27.9435 8.29375 27.9435C7.67136 27.9435 6.96655 28.2764 6.49824 28.7912C6.14806 29.1754 5.75095 29.8513 5.84853 30.8846C5.9816 32.2963 8.22325 35.9576 12.2151 38.2265C15.4326 40.0549 18.8688 40.9825 22.4288 40.9825C25.9888 40.9825 29.4248 40.0549 32.6425 38.2265C36.6341 35.9576 38.876 32.2963 39.0091 30.8846C39.1062 29.8513 38.7095 29.1757 38.3589 28.7912C37.891 28.2764 37.1858 27.9435 36.5638 27.9435C35.4969 27.9435 35.0501 28.4569 34.7235 28.8313L34.6761 28.8855C31.2455 32.7926 26.5526 35.2194 22.4288 35.2194C18.3053 35.2194 13.6121 32.7928 10.1817 28.8855Z" fill="#C23227"/>
<path fill-rule="evenodd" clip-rule="evenodd" d="M35.6254 24.2771C35.6254 22.3111 37.2185 20.7173 39.1846 20.7173C41.1508 20.7173 42.7443 22.3111 42.7443 24.2771C42.7443 26.2428 41.1508 27.8363 39.1846 27.8363C37.2185 27.8363 35.6254 26.2428 35.6254 24.2771Z" fill="#FFF22D"/>
<path d="M35.4776 24.2771C35.4776 23.2534 35.8924 22.3265 36.5636 21.6556C37.2339 20.9846 38.1609 20.5698 39.1846 20.5698C40.2083 20.5698 41.1351 20.9846 41.8061 21.6556C42.477 22.3265 42.8917 23.2534 42.8917 24.2771C42.8917 25.3008 42.4768 26.2274 41.8061 26.8981C41.1354 27.5688 40.2083 27.9836 39.1846 27.9836C38.1609 27.9836 37.2343 27.5688 36.5636 26.8981C36.2187 26.5543 35.9453 26.1458 35.7589 25.696C35.5725 25.2462 35.4769 24.764 35.4776 24.2771ZM35.7724 24.2771C35.7724 25.2191 36.1546 26.0721 36.7719 26.6896C37.3891 27.3071 38.2424 27.689 39.1844 27.689C40.1264 27.689 40.9794 27.3069 41.5974 26.6896C41.9147 26.3731 42.1663 25.9971 42.3378 25.5831C42.5093 25.169 42.5974 24.7252 42.5968 24.2771C42.5974 23.8289 42.5094 23.385 42.3379 22.9709C42.1664 22.5569 41.9147 22.1808 41.5974 21.8643C40.9797 21.2468 40.1264 20.8649 39.1844 20.8649C38.2424 20.8649 37.3893 21.2468 36.7719 21.8643C36.4544 22.1807 36.2027 22.5568 36.0312 22.9709C35.8597 23.385 35.7718 23.8289 35.7724 24.2771Z" fill="black"/>
<path fill-rule="evenodd" clip-rule="evenodd" d="M2.25565 24.2827C2.25565 22.3172 3.84945 20.7234 5.81538 20.7234C7.78108 20.7234 9.37488 22.3172 9.37488 24.2827C9.37488 26.2488 7.78108 27.8424 5.81538 27.8424C3.84945 27.8424 2.25565 26.2488 2.25565 24.2827Z" fill="#FFF22D"/>
<path d="M2.10834 24.2827C2.10834 23.2594 2.52319 22.3326 3.19414 21.6617C3.53802 21.317 3.94661 21.0436 4.39645 20.8573C4.84628 20.671 5.3285 20.5755 5.81538 20.5761C6.83885 20.5761 7.76567 20.9912 8.43639 21.6617C8.78108 22.0055 9.05443 22.414 9.24073 22.8638C9.42703 23.3136 9.5226 23.7958 9.52196 24.2827C9.52196 25.3064 9.10711 26.2332 8.43639 26.9041C8.09259 27.2489 7.68405 27.5223 7.23426 27.7087C6.78446 27.8951 6.30227 27.9907 5.81538 27.9902C4.79168 27.9902 3.86509 27.5749 3.19414 26.9041C2.52319 26.2334 2.10834 25.3061 2.10834 24.2827ZM2.40296 24.2827C2.40235 24.7309 2.49033 25.1748 2.66184 25.5889C2.83336 26.003 3.08503 26.3791 3.40238 26.6957C3.71888 27.013 4.09497 27.2646 4.50903 27.4362C4.92309 27.6077 5.36697 27.6957 5.81515 27.6951C6.75738 27.6951 7.61019 27.3129 8.22768 26.6957C8.54504 26.3791 8.79671 26.003 8.96822 25.5889C9.13974 25.1748 9.22772 24.7309 9.22711 24.2827C9.22711 23.3407 8.84517 22.4876 8.22768 21.8701C7.61019 21.2526 6.75738 20.8707 5.81515 20.8707C5.36697 20.8701 4.92309 20.9581 4.50903 21.1296C4.09497 21.3012 3.71888 21.5528 3.40238 21.8701C3.08511 22.1866 2.83348 22.5627 2.66197 22.9767C2.49046 23.3907 2.40244 23.8345 2.40296 24.2827Z" fill="black"/>
<path fill-rule="evenodd" clip-rule="evenodd" d="M40.1591 14.703L40.1787 13.7498C40.4696 13.9695 41.0235 13.9782 41.3478 13.6317C41.497 13.4734 41.5803 13.2318 41.567 12.9792C41.5487 12.6838 41.4228 12.4053 41.2131 12.1964C40.0143 11.0282 38.9547 9.86047 38.9547 9.86047C38.8475 9.68771 38.671 9.56001 38.5748 9.51706C38.4247 9.45029 37.9064 9.2131 37.511 9.81448C37.1526 10.3596 37.2058 11.1309 37.2703 11.4111L38.3951 12.9393C38.7786 13.4256 39.8598 14.4621 40.1591 14.703ZM16.1918 4.79075C17.6051 4.31706 18.895 3.92603 20.634 3.77148L16.1918 4.79075Z" fill="black"/>
<path fill-rule="evenodd" clip-rule="evenodd" d="M16.1918 4.79471C17.6051 4.32033 18.895 3.92999 20.634 3.77521L20.899 3.62557C19.9266 2.86123 18.962 2.34133 18.0018 2.34133C17.3988 2.34133 16.1731 2.75034 15.8976 4.91214L16.1918 4.79471ZM28.737 4.79471C27.3234 4.32033 26.0341 3.92999 24.295 3.77521L24.0301 3.62557C25.0022 2.86123 25.9666 2.34133 26.9268 2.34133C27.53 2.34133 28.7561 2.75034 29.0312 4.91214L28.737 4.79471ZM21.3045 3.55787C21.5919 3.54316 22.2551 3.52845 22.5205 3.52845C22.7855 3.52845 23.5183 3.56347 23.6787 3.57561L21.3045 3.55787Z" fill="black"/>
<path fill-rule="evenodd" clip-rule="evenodd" d="M20.8665 3.70167C21.5774 2.33899 22.2287 1.84267 22.5889 1.84267C23.0395 1.84267 23.5671 2.55984 23.9806 3.48269L24.0681 3.69047L23.7084 3.66082C23.4635 3.61693 22.7855 3.60946 22.5205 3.60946C22.2551 3.60946 21.6803 3.60946 21.3339 3.63888L20.8665 3.70167Z" fill="black"/>
<path fill-rule="evenodd" clip-rule="evenodd" d="M19.4756 35.9681L18.8392 38.3423L17.6528 35.4799L16.9143 35.2819L16.0146 38.6393L16.8156 38.854L17.4569 36.4607L18.6622 39.3487L19.3817 39.5416L20.2812 36.1838L19.4756 35.9681ZM22.2411 36.3923L21.3285 36.3444L21.1469 39.8152L22.0592 39.863L22.2411 36.3923ZM23.0605 36.3626L23.1245 36.8199L24.098 36.6827L24.5175 39.6674L25.4224 39.5402L25.0026 36.5559L25.9615 36.421L25.8977 35.9641L23.0605 36.3626ZM32.4763 34.9476C32.9182 35.7222 32.8293 36.2858 32.1476 36.6794L31.8242 36.8659L30.5461 34.653L30.8953 34.4511C31.7112 33.9802 32.1714 34.3992 32.4763 34.9476ZM30.6985 34.0299L29.5207 34.7097L31.2644 37.7302L32.4335 37.0553C33.6501 36.3526 33.7626 35.2924 33.2857 34.4457C32.7097 33.4383 31.7642 33.4148 30.6985 34.0299ZM28.4921 38.3064L28.1452 37.239L29.1752 36.9042L29.0307 36.4602L28.0009 36.7947L27.7047 35.8833L28.7629 35.5399L28.6203 35.1005L26.6887 35.7283L27.7626 39.0336L29.8928 38.3418L29.7483 37.8978L28.4921 38.3064ZM15.2687 34.4767L14.2394 36.3334C13.9289 36.8932 13.6088 37.2476 13.0852 36.9453C12.5655 36.6577 12.6858 36.2281 13.0037 35.6541L14.0351 33.7927L13.204 33.3321L12.1145 35.2973C11.5136 36.3818 12.2714 37.0497 12.8587 37.3751C13.4912 37.7258 14.4096 37.9865 15.0054 36.9115L16.0996 34.9371L15.2687 34.4767ZM14.6799 14.0608V30.335L22.4622 35.3375L30.2442 30.335L30.2542 14.0865C30.0075 13.8656 29.4892 13.3822 29.0811 13.1324H15.8075C15.4683 13.37 14.795 13.9357 14.6799 14.0608Z" fill="#FFF22D"/>
<path d="M14.8272 14.0608V30.2549L22.4622 35.1629L30.0971 30.2549L30.1067 14.0865H30.4018L30.3917 30.4149L30.3238 30.4587L22.4622 35.5126L14.5324 30.4149V14.0608H14.8272Z" fill="black"/>
<path d="M30.1559 14.1967C30.0857 14.1336 30.1387 14.1806 30.0642 14.1133C29.7988 13.8733 29.3529 13.4713 29.0041 13.258L29.1577 13.007C29.5343 13.2379 29.9897 13.6492 30.2617 13.8946L30.353 13.9768L30.1559 14.1967Z" fill="black"/>
<path d="M29.0811 13.2797H15.8075V12.985H29.0811V13.2797Z" fill="black"/>
<path d="M15.892 13.2533C15.7331 13.3649 15.5087 13.5414 15.3035 13.7102C15.0633 13.9081 14.8464 14.0968 14.788 14.1605L14.5716 13.9614C14.6365 13.8902 14.8658 13.6901 15.117 13.4832C15.3352 13.3035 15.568 13.1197 15.7225 13.0114L15.892 13.2533Z" fill="black"/>
<path fill-rule="evenodd" clip-rule="evenodd" d="M23.0122 21.0218C22.958 20.9979 22.7643 21.1541 22.6758 21.2942C22.5873 21.4343 22.5614 21.6147 22.6868 21.681C22.8121 21.7473 22.9699 21.6614 23.0078 21.4417C23.0295 21.3126 23.0715 21.0474 23.0122 21.0218ZM21.5225 21.4415C21.555 21.6624 21.7177 21.7473 21.8431 21.6808C21.9684 21.6145 21.9427 21.434 21.8543 21.294C21.7655 21.1539 21.5832 20.9977 21.5288 21.0215C21.4698 21.0474 21.5041 21.3164 21.5225 21.4415ZM22.3037 23.6063C22.5651 23.1773 22.6739 22.7314 22.6739 22.7314H21.9259C21.9259 22.7314 22.0457 23.1882 22.3037 23.6063ZM22.4325 20.3828L23.0367 19.3313L23.5083 20.3828H24.2899C23.8181 20.8252 23.6264 21.4931 23.6264 21.9355V22.4218C23.6264 22.6284 23.5235 22.9671 23.5235 22.9671C23.5235 22.9671 24.2 23.4843 24.3046 23.5713C24.3487 23.6082 24.3954 23.6297 24.3634 23.7191C24.3097 23.8713 23.8524 24.0751 23.8036 24.1167C23.7007 24.2052 23.6726 24.2631 23.7028 24.3529C23.7324 24.441 23.8181 24.4559 23.9951 24.3968C24.172 24.338 24.5404 24.1466 24.8504 24.0137C25.1595 23.8811 25.5723 23.9103 25.5723 23.9103V23.3213H24.4083V21.4345L24.2017 21.1051L24.7178 20.1911L25.2331 21.1102L25.0269 21.4343V22.4218H25.6239V21.4343L25.4177 21.1102L25.9334 20.196L26.4491 21.1102L26.243 21.4343V22.4218H26.8399V21.4343L26.6338 21.1102L27.1495 20.196L27.6652 21.1102L27.4586 21.4343L27.4649 23.3197L26.2944 23.3201V24.1865C26.5598 24.4367 26.8105 25.0012 26.8105 25.34C26.8105 25.6792 26.5894 25.8265 26.5894 25.8265C26.6627 26.092 26.6483 26.2021 26.6186 26.4456C26.5885 26.694 26.2794 27.079 26.2794 27.079V31.573C26.2794 31.8791 25.5723 31.8499 25.5723 31.588V27.1824C25.1742 26.7405 24.0835 26.4013 24.0835 26.4013C23.6855 26.7989 23.4352 27.492 23.4352 27.492C23.6122 27.6101 23.8776 27.492 23.9806 27.3739C24.0835 27.2562 24.2901 27.2265 24.4083 27.3001C24.5259 27.3739 24.5556 27.4035 24.5112 27.5805C24.4671 27.757 24.3931 28.0506 24.3931 28.2566C24.3931 28.4632 24.6293 28.4183 24.8058 28.4335C25.1598 28.4632 25.2186 28.8607 25.1894 29.0818C25.1598 29.3029 25.0568 29.7749 25.0568 30.0693C25.0568 30.3637 25.0713 30.6588 25.1009 30.8213C25.1301 30.9831 25.1894 31.16 25.1742 31.3666C25.1542 31.6461 24.9828 31.6909 24.8058 31.514C24.6293 31.337 22.1676 28.7134 22.1676 28.7134C22.0055 29.2436 22.6833 30.1581 22.9046 30.438C23.1257 30.7183 23.1107 30.9245 22.9195 31.1159C22.7276 31.3074 22.3592 31.4105 22.2857 31.5877C22.2119 31.7647 22.4626 32.2949 22.9784 32.9579C23.4941 33.6214 22.3886 34.0635 21.7254 34.1964C21.0621 34.329 21.0621 33.8716 21.1065 33.6214C21.1504 33.3706 21.1504 33.2233 21.1359 33.0022C21.1212 32.7816 20.9148 32.4721 20.6347 32.103C20.3545 31.735 20.3545 31.3958 20.4727 30.5409C20.5906 29.6865 20.5611 29.1406 20.5611 29.1406C20.5611 29.1406 20.2663 29.1556 19.8388 29.1406C19.4114 29.1262 19.0577 28.8771 19.0283 27.8452C18.9989 26.8133 18.9744 24.3525 18.9055 24.0966C18.8368 23.8412 18.5616 23.7919 18.4437 23.7628C18.3258 23.7331 18.3172 23.5562 18.4351 23.4973C18.7421 23.3437 19.1119 22.9667 18.9744 22.7309C18.8368 22.4949 18.2964 22.5439 17.9329 22.7208C17.5694 22.8978 17.1861 23.2807 17.0878 23.3892C16.9895 23.4973 16.9108 23.4973 16.9206 23.3792C16.9304 23.2611 16.852 22.7012 16.803 22.5047C16.754 22.3081 16.5768 21.935 16.5179 21.8368C16.4591 21.7385 16.5179 21.6992 16.6162 21.7385C16.7145 21.7779 16.9307 21.8664 17.1371 21.9252C17.3434 21.9841 17.5398 21.886 17.6381 21.6894C17.7363 21.4929 17.9229 21.0706 18.0212 20.8838C18.1194 20.697 18.2768 20.7362 18.4045 20.7659C18.5324 20.7953 18.6503 20.874 18.768 20.923C18.8859 20.9723 18.9842 20.9625 19.0234 20.9034C19.0628 20.8446 19.1121 20.8247 19.1807 20.6772C19.2494 20.5299 19.3378 20.5987 19.3476 20.6576C19.6999 22.7715 20.6153 22.8686 20.6153 22.8686C20.4778 23.2221 20.1535 23.7824 20.0751 23.9201C19.9964 24.0574 19.967 24.2439 19.9474 24.3917C19.9278 24.539 19.9964 25.9337 20.0947 26.4454C20.1932 26.9562 20.5077 26.7601 20.6057 26.6028C20.7038 26.4454 21.0087 25.7971 21.0087 25.7971C21.0087 25.7971 21.0874 25.6201 21.0874 25.4724C21.0874 25.325 20.8317 25.0008 20.7727 24.9025C20.7138 24.8044 20.4977 24.6079 20.4977 24.1164C20.4977 23.6253 20.9398 23.2811 21.0972 23.1534C21.2543 23.0257 21.2543 22.8493 21.2347 22.7412C21.1656 22.3609 20.7629 21.5617 20.5665 21.2571C20.3699 20.9527 19.9868 20.3728 19.9868 20.3728H20.7827L21.2937 19.3115L21.8538 20.3777L22.4325 20.3828ZM25.572 25.738V25.1338C25.572 25.1338 25.4098 24.8831 25.0118 24.8831C24.6142 24.8831 24.3784 25.0012 24.3784 25.1042C24.3784 25.2667 24.7321 25.738 25.572 25.738ZM15.2895 18.1201H29.647V19.0995H15.2895V18.1201ZM15.2895 17.6168V13.7162H29.647V17.6168H15.2895Z" fill="#C23227"/>
<path fill-rule="evenodd" clip-rule="evenodd" d="M26.821 17.7328V17.067H25.7782V16.6377H26.6294V14.7511H25.848L25.5825 14.2354L25.3171 14.7511H24.5362V16.6377H25.3869V17.067H23.3442V16.6377H24.1951V14.7511H23.414L23.1485 14.2354L22.8833 14.7511H22.1022V16.6377H22.9529V17.067H20.8702V16.6377H21.7212V14.7511H20.9398L20.6746 14.2354L20.4094 14.7511H19.628V16.6377H20.4787V17.067L18.8322 17.0715L17.1914 16.6881L17.5223 17.7328H26.821Z" fill="#FFF22D"/>
<path fill-rule="evenodd" clip-rule="evenodd" d="M17.758 16.6034L18.8583 16.8737L19.4485 15.2171L19.4487 14.7995L17.758 16.6034ZM20.4131 3.66619C18.7087 3.8177 17.6598 4.18003 16.2744 4.64437C16.3774 4.04836 16.5161 3.69514 16.7568 3.34425C16.7374 3.65242 16.989 3.98065 17.4898 3.98065C17.9906 3.98065 18.2693 3.69187 18.2693 3.51841C18.2693 3.34542 18.164 3.09469 17.8944 3.09469C17.6247 3.09469 17.5671 3.28729 17.5862 3.36433C17.6056 3.44161 17.5477 3.46075 17.4709 3.48013C17.3936 3.49927 17.1819 3.38347 17.2589 3.11407C17.3434 2.81781 17.7018 2.65673 18.1253 2.65673C18.125 2.65626 19.1331 2.61611 20.4131 3.66619ZM28.6667 4.65628C27.2814 4.19147 26.1853 3.82938 24.4809 3.67763C25.2655 3.13088 25.9983 2.66653 26.8035 2.66653C27.227 2.66653 27.5856 2.82762 27.6699 3.12387C27.7469 3.39351 27.5349 3.50884 27.4579 3.48946C27.3813 3.47009 27.3234 3.45094 27.3426 3.3739C27.3617 3.2971 27.3038 3.10426 27.0344 3.10426C26.765 3.10426 26.6597 3.35453 26.6597 3.52798C26.6597 3.70144 26.9382 3.99023 27.439 3.99023C27.9398 3.99023 28.1914 3.66175 28.1723 3.35383C28.4127 3.70494 28.5638 4.06026 28.6667 4.65628ZM21.4635 3.34939C21.4177 3.42246 21.3775 3.47686 21.3285 3.55833C21.7255 3.54152 22.1232 3.53109 22.5205 3.52845C22.7808 3.52845 23.498 3.56394 23.6554 3.57538C23.4014 2.9873 22.9221 2.17534 22.5873 2.17534C22.5212 2.17534 22.3751 2.14102 22.1001 2.45759C22.1001 2.45759 22.0574 2.59743 22.232 2.57058C22.4533 2.53673 22.5371 2.76528 22.5208 2.87898C22.482 3.14348 22.1741 3.39888 21.8657 3.39888C21.5578 3.39888 21.4635 3.34939 21.4635 3.34939Z" fill="#FFF22D"/>
<path fill-rule="evenodd" clip-rule="evenodd" d="M6.6173 12.9393L7.74209 11.4111C7.80676 11.1309 7.85999 10.3596 7.5014 9.81448C7.10593 9.2131 6.58719 9.45029 6.43708 9.51706C6.34089 9.56001 6.16487 9.68771 6.05724 9.86047C6.05724 9.86047 4.97821 11.053 3.78432 12.2265C3.61833 12.3895 3.4311 12.6981 3.41593 12.979C3.40192 13.2316 3.50114 13.4835 3.64961 13.6418C3.97435 13.9877 4.54305 13.9695 4.83347 13.7498L4.85308 14.703C5.1533 14.4621 6.23397 13.4256 6.6173 12.9393Z" fill="black"/>
<path fill-rule="evenodd" clip-rule="evenodd" d="M22.4624 10.7124C28.8691 10.7124 32.5174 16.7285 33.3104 17.7854C34.7256 19.6719 36.4539 21.2018 38.4593 20.6938C41.4066 19.9472 41.2498 15.5797 41.2498 15.5797C40.5426 15.0684 39.3291 14.4248 37.1227 11.2953C34.9609 8.22978 30.0675 3.68136 22.4624 3.68136C14.8569 3.68136 9.96343 8.22978 7.80186 11.2953C5.59547 14.4245 4.38243 15.0684 3.67506 15.5797C3.67506 15.5797 3.51794 19.9472 6.46579 20.6938C8.47094 21.2018 10.1997 19.6719 11.6147 17.7854C12.4072 16.7285 16.0559 10.7124 22.4624 10.7124Z" fill="#FFF22D"/>
<path d="M22.4624 10.565C28.4197 10.565 32.0096 15.6815 33.1776 17.3462C33.2833 17.497 33.3695 17.6196 33.4278 17.6971C34.1254 18.6277 34.8993 19.4695 35.7428 20.0137C36.5694 20.5474 37.4655 20.7937 38.4233 20.5511C41.0406 19.8881 41.1081 16.2165 41.1032 15.6558C41.0471 15.6159 40.985 15.5731 40.9199 15.5283C40.1784 15.0166 38.9866 14.1943 37.0023 11.3798C35.7617 9.62001 33.6125 7.3674 30.5598 5.782C28.3392 4.62873 25.64 3.82867 22.4622 3.82867C19.2844 3.82867 16.5847 4.62873 14.3643 5.782C11.3116 7.3674 9.16291 9.61978 7.92209 11.3798C5.93725 14.1948 4.74569 15.0168 4.00377 15.5285C3.93887 15.5734 3.87723 15.6159 3.82097 15.6555C3.81607 16.2161 3.88354 19.8876 6.50104 20.5509C7.45915 20.7937 8.35468 20.5471 9.18158 20.0135C10.0248 19.4693 10.7987 18.6274 11.4968 17.6969C11.5549 17.6194 11.641 17.4968 11.7468 17.3462C12.9152 15.6817 16.5053 10.565 22.4624 10.565ZM22.4624 10.8599C16.658 10.8599 13.134 15.8818 11.9877 17.5157C11.9041 17.6361 11.8189 17.7553 11.7321 17.8734C11.0151 18.8294 10.217 19.696 9.34103 20.2614C8.44853 20.8373 7.47712 21.1021 6.43007 20.8366C3.36573 20.0604 3.52728 15.5885 3.52775 15.5755L3.52985 15.5033L3.58938 15.4601C3.66993 15.402 3.75023 15.3464 3.83731 15.2867C4.56219 14.7864 5.7269 13.9833 7.68186 11.2105C8.94322 9.42181 11.1274 7.13207 14.2301 5.52076C16.4887 4.34765 19.2337 3.53405 22.4627 3.53405C25.6913 3.53405 28.4363 4.34765 30.6952 5.52076C33.7976 7.13207 35.9821 9.42157 37.2434 11.2105C39.1982 13.9826 40.3626 14.7864 41.0873 15.2862C41.1744 15.3462 41.2551 15.402 41.3357 15.4601L41.3954 15.5033L41.3973 15.5755C41.3978 15.5883 41.5591 20.0604 38.495 20.8366C37.4482 21.1018 36.4768 20.8371 35.5845 20.2614C34.7081 19.696 33.9102 18.8294 33.193 17.8734C33.1208 17.7774 33.0389 17.6598 32.9371 17.5157C31.7906 15.8818 28.2668 10.8599 22.4624 10.8599Z" fill="black"/>
<path fill-rule="evenodd" clip-rule="evenodd" d="M22.4624 10.1448C28.6385 10.1448 32.314 15.3838 33.5228 17.1053C33.6017 17.2196 33.682 17.3327 33.764 17.4447C35.3982 19.6234 36.8888 20.5063 38.3197 20.1437C40.3892 19.6194 40.6437 16.7712 40.6724 15.9107L40.6734 15.8783L40.647 15.8601C39.9193 15.3579 38.7 14.5177 36.6591 11.6224C35.4393 9.89269 30.8108 4.24913 22.4624 4.24913C14.114 4.24913 9.48577 9.89269 8.26597 11.6224C6.23864 14.4971 4.96654 15.3754 4.28298 15.8474L4.25637 15.8657L4.2573 15.8981C4.28695 16.7619 4.54398 19.6213 6.60493 20.1437C8.03625 20.5065 9.5264 19.6234 11.1601 17.4447C11.2199 17.3654 11.3042 17.2451 11.402 17.1055C12.6101 15.3838 16.2859 10.1448 22.4624 10.1448Z" fill="#C23227"/>
<path fill-rule="evenodd" clip-rule="evenodd" d="M9.17411 12.5581L8.52931 13.3264L9.73837 15.8255L7.14398 14.9776L6.58859 15.6392L9.25138 17.8734L9.65363 17.3941L7.77384 15.8106L10.2952 16.6298L10.5601 16.3141L9.35878 13.906L11.2495 15.4921L11.8367 14.7922L9.17411 12.5581ZM12.5403 12.0349L11.9373 12.6813L11.3196 11.4874L12.5403 12.0349ZM11.1356 10.4572L10.5429 11.0927L12.2079 14.404L12.6143 13.9684L12.1621 13.0917L12.968 12.2275L13.8773 12.6136L14.548 11.8946L11.1356 10.4572ZM15.2012 7.31113L16.5039 9.39566L13.6011 8.31102L12.9524 8.7163L14.7946 11.6639L15.4977 11.2248L14.1848 9.12322L17.1191 10.2116L17.7506 9.81658L15.9088 6.8692L15.2012 7.31113ZM26.2017 9.01793L26.567 7.95687L27.5907 8.30962L27.743 7.86793L26.7192 7.51564L27.0307 6.60937L28.0826 6.97169L28.2332 6.53489L26.3126 5.87398L25.1812 9.1601L27.2989 9.88919L27.4507 9.44796L26.2017 9.01793ZM32.1471 8.79825L31.8338 9.13793L32.5647 9.7958L30.5482 12.036L31.227 12.6472L33.2436 10.4075L33.9636 11.0551L34.2725 10.7121L32.1471 8.79825ZM33.1449 14.0172L34.0042 13.2965L34.7002 14.1255L35.0576 13.8253L34.3621 12.996L35.0959 12.3802L35.8112 13.2325L36.1646 12.9356L34.8596 11.3796L32.1968 13.614L33.6363 15.3294L33.9937 15.0294L33.1449 14.0172ZM37.1725 14.9024C37.4146 15.1716 37.4155 15.4919 37.1386 15.741C36.8617 15.9901 36.5134 15.9366 36.2477 15.6413L36.0913 15.4678L36.9696 14.6774L37.1725 14.9024ZM36.7095 16.615C36.7163 16.6225 37.2476 16.8859 37.8343 16.3573C38.325 15.9154 38.16 15.3091 37.6482 14.7406L36.7011 13.6894L34.1182 16.0151L34.7296 16.694L35.7552 15.7702L36.0579 16.1059L35.404 17.5694L36.1805 18.1939L36.7095 16.615ZM23.6369 5.58263L23.6119 7.00227L22.2465 6.97869L22.2714 5.55858L21.3579 5.54294L21.2975 9.01793L22.2107 9.03404L22.2385 7.44514L23.6035 7.46918L23.5758 9.05762L24.49 9.07372L24.5502 5.59827L23.6369 5.58263ZM28.5846 10.7481C29.2324 11.1372 29.9407 11.0749 30.2703 10.5263C30.5129 10.143 30.5148 9.82615 30.2262 9.25932C30.1487 9.09497 30.0535 8.97918 29.9881 8.83373C29.8618 8.59327 29.7437 8.3988 29.8555 8.21321C29.975 8.0143 30.254 8.00006 30.5089 8.15321C30.7765 8.31406 30.8869 8.58043 30.9408 8.76556L31.3617 8.58347C31.2326 8.24099 31.0417 7.93213 30.6098 7.67276C29.8665 7.22616 29.2606 7.34405 29.009 7.76334C28.7545 8.18659 28.8267 8.53608 29.0158 8.89653C29.0158 8.89653 29.1374 9.10501 29.2081 9.24158C29.3741 9.52359 29.5683 9.87541 29.4334 10.1C29.2674 10.3764 28.9779 10.4378 28.6992 10.2646C28.3418 10.0377 28.2582 9.77596 28.183 9.51939L27.7219 9.71853C27.8237 10.0673 28.0621 10.4341 28.5846 10.7481ZM19.1093 5.76472C17.9712 6.00705 17.2258 6.84212 17.4716 7.97415C17.6117 8.5851 18.1594 9.71479 19.8862 9.34757C20.3639 9.25629 20.6254 9.06252 20.8773 8.82416L20.5593 8.46137C20.4437 8.59351 20.264 8.78564 19.8669 8.86992C19.0329 9.04734 18.5348 8.36869 18.4108 7.78482C18.2273 6.92173 18.7304 6.32245 19.3045 6.20058C19.7069 6.11491 19.9551 6.22136 20.112 6.2851L20.1169 6.28416L20.2226 5.84106C19.9479 5.73017 19.6196 5.65663 19.1093 5.76472ZM37.5353 11.5449C37.4874 11.3387 37.4199 10.4584 37.7542 9.99377C38.0629 9.56562 38.3442 9.71059 38.4952 9.77759C38.5632 9.80771 38.767 9.93985 38.8071 10.2004C38.8286 10.3402 38.7847 10.5471 38.6766 10.6988C38.4651 10.9736 37.984 11.1559 37.984 11.1559C37.984 11.1559 38.6005 12.3638 39.9072 13.5633L39.9025 14.3785C38.1135 12.6533 37.5353 11.5449 37.5353 11.5449Z" fill="#FFF22D"/>
<path fill-rule="evenodd" clip-rule="evenodd" d="M38.4327 11.2955C38.6096 11.6004 39.0588 12.3463 40.1831 13.3999C40.3696 13.5748 40.8347 13.7204 41.0973 13.4256C41.1982 13.3121 41.2624 13.1503 41.2523 12.9622C41.2404 12.746 41.1074 12.4936 40.9792 12.3837C40.7548 12.1913 39.7881 11.215 39.0952 10.4481C39.0803 10.5879 38.9579 10.8216 38.9579 10.8216C38.865 10.9528 38.7488 11.1412 38.4327 11.2955ZM5.10895 14.3295L5.10428 13.5596C6.4114 12.3598 7.02865 11.1559 7.02865 11.1559C7.02865 11.1559 6.5475 10.9736 6.33599 10.6988C6.22767 10.5471 6.18354 10.34 6.20525 10.2004C6.24588 9.93985 6.44922 9.80794 6.51692 9.77759C6.66796 9.71059 6.94928 9.56538 7.25744 9.99377C7.59198 10.4584 7.50444 11.3326 7.45681 11.5388C7.45728 11.5388 6.84796 12.6001 5.10895 14.3295Z" fill="#FFF22D"/>
<path fill-rule="evenodd" clip-rule="evenodd" d="M6.55754 11.2955C6.38105 11.6004 5.93164 12.3463 4.80732 13.3999C4.62079 13.5748 4.15575 13.7204 3.89358 13.4256C3.79249 13.3121 3.72806 13.1503 3.73809 12.9622C3.74977 12.746 3.88307 12.4936 4.01124 12.3837C4.23559 12.1913 5.20233 11.215 5.89476 10.4481C5.90993 10.5879 6.03226 10.8216 6.03226 10.8216C6.12541 10.9528 6.24191 11.1412 6.55754 11.2955Z" fill="#FFF22D"/>
<path fill-rule="evenodd" clip-rule="evenodd" d="M2.92567 24.3123C2.92567 22.7131 4.22205 21.4168 5.82099 21.4168C7.42039 21.4168 8.71654 22.7131 8.71654 24.3123C8.71654 25.912 7.42016 27.2076 5.82099 27.2076C4.22205 27.2076 2.92567 25.9117 2.92567 24.3123Z" fill="#C23227"/>
<path fill-rule="evenodd" clip-rule="evenodd" d="M7.3786 22.2154C7.42833 22.2551 7.55393 22.3583 7.55393 22.3583C7.80489 22.5829 8.03088 22.8455 8.16185 23.1597C8.3276 23.555 7.81703 24.1491 7.66762 24.2887C6.99223 24.9188 6.57248 24.9083 6.33132 24.9431C6.08993 24.9772 5.93795 24.8283 5.94308 24.6476C5.95849 24.116 6.33529 23.2099 6.44151 23.0426C6.51108 22.9331 6.63084 22.8633 6.63084 22.8633C6.87994 22.7935 7.12157 22.6863 7.24693 22.5444C7.37277 22.4026 7.3786 22.2154 7.3786 22.2154ZM4.9558 21.8333C5.23035 21.7408 5.51798 21.693 5.80768 21.6918C6.26012 21.6918 6.69108 21.7763 7.0576 22.0083C7.15052 22.0669 7.17853 22.1414 7.17853 22.2465C7.17853 22.5871 6.64135 22.7031 6.2837 22.7031C5.92651 22.7031 5.48785 22.5609 5.17735 22.4643C4.86662 22.3669 4.79752 22.1855 4.79752 22.1055C4.79705 22.0259 4.85681 21.8664 4.9558 21.8333ZM3.81047 26.0053C3.44581 25.6451 3.18574 24.9977 3.18574 24.3142C3.18574 24.0492 3.22472 23.7938 3.29756 23.5527C3.29756 23.5527 3.35896 23.4427 3.41873 23.5368C3.46122 23.6033 3.51888 23.6717 3.57071 23.763C3.623 23.8543 3.90618 24.0693 3.8798 24.239C3.78012 24.8791 3.87 25.7336 3.89988 25.8737C3.92999 26.013 3.88611 26.08 3.81047 26.0053ZM3.88004 23.8097C3.75093 23.7385 3.59709 23.4098 3.54689 23.3117C3.51117 23.2415 3.51328 23.0454 3.56207 22.9592C3.77521 22.5822 4.07894 22.2388 4.47255 22.0564C4.5176 22.0357 4.58741 22.0336 4.58741 22.1451C4.58741 22.2072 4.61822 22.3053 4.61939 22.3658C4.62079 22.4251 4.64764 22.5537 4.56756 22.6536C4.48795 22.7531 4.1352 23.3708 4.04929 23.72C4.02991 23.7996 4.00914 23.8814 3.88004 23.8097ZM5.86371 26.9354C5.84503 26.9345 5.82636 26.9359 5.80768 26.9359C5.32513 26.9359 4.79705 26.7531 4.48399 26.578C4.16065 26.3971 4.03949 25.5695 4.03949 25.1462C4.03949 23.7805 4.60235 22.9594 4.69199 22.7998C4.78164 22.6405 4.98101 22.6205 5.13066 22.6602C5.2803 22.7003 5.33797 22.7304 5.50956 22.7822C5.60247 22.8105 5.78854 22.8493 5.92814 22.8794C6.06775 22.9095 6.21693 22.9391 6.12751 23.1985C6.03787 23.4574 5.73718 24.0849 5.70426 24.8269C5.67438 25.4966 5.76402 26.1646 5.916 26.574C6.01475 26.8397 6.01312 26.9403 5.86371 26.9354ZM6.55124 26.8292C6.40136 26.8775 6.33225 26.7708 6.26245 26.6905C5.99328 26.3833 5.92371 25.5562 5.92371 25.4467C5.92371 25.3363 5.96339 25.217 6.03997 25.2151C6.69434 25.1987 7.15962 25.0075 7.58615 24.6569C8.01267 24.3062 8.19733 23.9101 8.23632 23.8326C8.27507 23.7551 8.35912 23.7688 8.37943 23.8809C8.396 23.9722 8.42986 24.1377 8.42986 24.314C8.42962 25.5036 7.62817 26.48 6.55124 26.8292Z" fill="#FFF22D"/>
<path fill-rule="evenodd" clip-rule="evenodd" d="M42.1124 24.3123C42.1124 22.7131 40.816 21.4168 39.2171 21.4168C37.6174 21.4168 36.3217 22.7131 36.3217 24.3123C36.3217 25.912 37.6177 27.2076 39.2171 27.2076C40.816 27.2076 42.1124 25.9117 42.1124 24.3123Z" fill="#C23227"/>
<path fill-rule="evenodd" clip-rule="evenodd" d="M37.7907 22.5441C37.916 22.6861 38.1576 22.7932 38.4067 22.863C38.4067 22.863 38.5267 22.9328 38.5961 23.0423C38.7023 23.2097 39.0789 24.1157 39.095 24.6473C39.0999 24.8278 38.9481 24.977 38.7065 24.9429C38.4653 24.9083 38.0454 24.9186 37.3704 24.2885C37.2208 24.1489 36.7102 23.5548 36.8762 23.1595C37.0067 22.8453 37.2332 22.5826 37.4844 22.3581C37.4844 22.3581 37.6093 22.2549 37.6595 22.2152C37.6592 22.2154 37.6653 22.4026 37.7907 22.5441ZM40.241 22.1055C40.241 22.1855 40.1717 22.3669 39.8612 22.4643C39.5502 22.5609 39.112 22.7031 38.7546 22.7031C38.3967 22.7031 37.8595 22.5873 37.8595 22.2465C37.8595 22.1414 37.8878 22.0669 37.9805 22.0083C38.347 21.7763 38.7779 21.6918 39.2304 21.6918C39.529 21.6918 39.8145 21.7445 40.0825 21.8333C40.1808 21.8664 40.241 22.0259 40.241 22.1055ZM41.1379 25.8734C41.1676 25.7334 41.2575 24.8789 41.158 24.2388C41.1316 24.0691 41.4148 23.854 41.4671 23.7628C41.5192 23.6715 41.5766 23.6031 41.6189 23.5365C41.6786 23.4427 41.7403 23.5524 41.7403 23.5524C41.8148 23.7994 41.8525 24.056 41.8523 24.314C41.8523 24.9975 41.592 25.6449 41.2271 26.0051C41.1519 26.08 41.1078 26.013 41.1379 25.8734ZM40.9883 23.7203C40.9026 23.371 40.5496 22.7531 40.4698 22.6538C40.3899 22.5539 40.4168 22.4253 40.4177 22.366C40.4196 22.3055 40.4502 22.2075 40.4502 22.1454C40.4502 22.0338 40.52 22.0359 40.5646 22.0567C40.9586 22.2388 41.2626 22.5822 41.4755 22.9594C41.5243 23.0456 41.5266 23.2417 41.4905 23.312C41.4407 23.41 41.2867 23.7387 41.1576 23.8099C41.0289 23.8814 41.0079 23.7996 40.9883 23.7203ZM39.1221 26.5743C39.2738 26.1648 39.3637 25.4969 39.3336 24.8271C39.3006 24.0852 39.0002 23.4579 38.9105 23.1987C38.8207 22.9394 38.9703 22.9097 39.1099 22.8796C39.2495 22.8495 39.4356 22.8107 39.529 22.7825C39.6999 22.7304 39.7575 22.7003 39.9074 22.6604C40.0566 22.6207 40.2562 22.6408 40.3461 22.8C40.4359 22.9597 40.9986 23.7807 40.9986 25.1465C40.9986 25.5695 40.8776 26.3971 40.5541 26.5782C40.2412 26.7533 39.7132 26.9361 39.2304 26.9361C39.2117 26.9361 39.193 26.9347 39.1748 26.9357C39.0249 26.9403 39.0231 26.8397 39.1221 26.5743ZM36.6084 24.314C36.6084 24.1375 36.6423 23.9719 36.6591 23.8809C36.6792 23.7688 36.763 23.7551 36.8017 23.8326C36.841 23.9101 37.0256 24.3062 37.4519 24.6569C37.8787 25.0075 38.3437 25.1985 38.9981 25.2151C39.0742 25.217 39.1143 25.3365 39.1143 25.4467C39.1143 25.5562 39.045 26.3833 38.7756 26.6905C38.7058 26.7708 38.6369 26.8775 38.4866 26.8292C37.4094 26.48 36.6084 25.5036 36.6084 24.314Z" fill="#FFF22D"/>
<path d="M36.3339 24.2971C36.3334 23.9149 36.4085 23.5363 36.5549 23.1831C36.7012 22.83 36.9158 22.5092 37.1865 22.2392C37.7131 21.7126 38.4408 21.3869 39.2441 21.3869C40.0475 21.3869 40.7754 21.7126 41.3018 22.2392C41.8285 22.7657 42.1539 23.4934 42.1539 24.2971C42.1539 25.1009 41.8283 25.8284 41.3018 26.3548C40.7754 26.8813 40.0479 27.2069 39.2441 27.2069C38.8619 27.2074 38.4833 27.1323 38.1301 26.9861C37.7769 26.8399 37.4561 26.6253 37.186 26.3548C36.9155 26.0848 36.7009 25.7641 36.5547 25.411C36.4085 25.0579 36.3334 24.6793 36.3339 24.2971ZM36.3635 24.2971C36.3635 25.0928 36.6859 25.8127 37.207 26.334C37.7286 26.8556 38.4485 27.178 39.2444 27.178C40.0402 27.178 40.76 26.8556 41.2817 26.3345C41.8028 25.813 42.1252 25.093 42.1252 24.2971C42.1252 23.5013 41.8028 22.7815 41.2813 22.26C41.0141 21.9921 40.6966 21.7797 40.347 21.6349C39.9975 21.4901 39.6227 21.4158 39.2444 21.4163C38.866 21.4159 38.4913 21.4902 38.1417 21.635C37.7922 21.7799 37.4747 21.9923 37.2075 22.2602C36.9395 22.5274 36.7271 22.8449 36.5822 23.1945C36.4374 23.544 36.3631 23.9188 36.3635 24.2971Z" fill="#FDE62F"/>
</svg>
