<svg width="30" height="50" viewBox="0 0 30 50" fill="none" xmlns="http://www.w3.org/2000/svg">
<path fill-rule="evenodd" clip-rule="evenodd" d="M10.1128 0C10.1224 0 10.1639 0.0725001 10.2022 0.16C10.2405 0.247639 10.4671 0.762778 11.1375 2.28583L12.6538 2.29333C13.6466 2.29833 14.1669 2.30583 14.1637 2.31583C14.1605 2.32583 13.6115 2.64347 11.7249 3.72125L12.2069 4.92167C12.4718 5.58194 12.6825 6.12708 12.673 6.13208C12.6666 6.13958 12.0888 5.83208 11.3896 5.44944C10.6938 5.06931 10.116 4.75667 10.1065 4.75667C10.0969 4.75667 9.52214 5.06931 8.82631 5.44944C8.13048 5.83208 7.55592 6.13958 7.54953 6.13208C7.53996 6.12708 7.74738 5.58694 8.00923 4.93167C8.27089 4.27903 8.48469 3.73625 8.48469 3.72875C8.48469 3.71875 7.93565 3.40125 7.26535 3.01861C6.59505 2.63597 6.0492 2.31833 6.05558 2.30833C6.06196 2.29833 6.58867 2.29333 9.07859 2.29333L9.10731 2.22583C9.12326 2.19083 9.34345 1.68806 9.6021 1.10792C9.85739 0.527639 10.0746 0.0425 10.0809 0.0275C10.0905 0.0125 10.1033 0 10.1128 0ZM19.7341 0C19.7469 0 19.9479 0.437639 20.1842 0.970278C20.4172 1.50556 20.6437 2.02069 20.7715 2.29333H22.2751C23.2551 2.29333 23.7786 2.29833 23.785 2.30833C23.7914 2.31833 23.2455 2.63847 22.575 3.02361C21.9047 3.40625 21.3557 3.72625 21.3557 3.73125C21.3557 3.73875 21.5695 4.27903 21.8313 4.93167C22.0962 5.58694 22.3038 6.12708 22.2942 6.13208C22.2846 6.13708 21.7069 5.83208 21.0077 5.44944C20.3119 5.06931 19.7309 4.75667 19.7213 4.75917C19.7086 4.75917 19.1338 5.06931 18.4412 5.45194C17.7485 5.83208 17.174 6.13708 17.1644 6.13208C17.158 6.12708 17.3654 5.58194 17.6271 4.92167C17.8921 4.26153 18.0996 3.71625 18.09 3.71125C18.0804 3.70375 17.5314 3.39125 16.8706 3.01111C16.2067 2.63347 15.6704 2.31833 15.6736 2.30833C15.68 2.29833 16.2035 2.29333 18.6903 2.29333L19.1914 1.15792C19.4691 0.535139 19.699 0.0175 19.7054 0.0125C19.7086 0.00500002 19.7213 0 19.7341 0ZM14.7925 8.39292C14.9617 8.39292 15.1916 8.39792 15.3065 8.40792C15.4214 8.41542 15.6001 8.43542 15.7055 8.44792C15.8077 8.46042 15.9959 8.49292 16.1206 8.51542C16.245 8.54056 16.4556 8.59056 16.5865 8.62556C16.7175 8.66056 16.9759 8.74806 17.1612 8.82056C17.3463 8.89056 17.6111 9.00819 17.7453 9.08069C17.8826 9.15069 18.0613 9.2532 18.1444 9.3032C18.2242 9.35333 18.4061 9.48333 18.5465 9.59083C18.6871 9.69833 18.8785 9.86097 18.9711 9.95097C19.0636 10.041 19.1978 10.1861 19.402 10.4261L19.5616 10.4011C19.6478 10.3861 19.8075 10.3661 19.9128 10.3586C20.0213 10.3486 20.2193 10.3411 20.3597 10.3411C20.5001 10.3411 20.7077 10.3511 20.8194 10.3636C20.9343 10.3761 21.1034 10.3986 21.1993 10.4161C21.2919 10.4336 21.4642 10.4736 21.5854 10.5061C21.7037 10.5363 21.892 10.5938 22.0005 10.6313C22.109 10.6713 22.2783 10.7388 22.3772 10.7838C22.4761 10.8313 22.6325 10.9113 22.7252 10.9664C22.8177 11.0189 22.9837 11.1339 23.0922 11.2214C23.204 11.3064 23.3508 11.439 23.4178 11.5115C23.4848 11.584 23.5901 11.7092 23.6476 11.7917C23.705 11.8742 23.7914 12.0092 23.8328 12.0967C23.8775 12.1818 23.935 12.3143 23.9637 12.3918C23.9924 12.4693 24.0339 12.6169 24.0594 12.7194C24.0945 12.8794 24.1009 12.9646 24.1009 13.3047C24.1041 13.6097 24.0945 13.7424 24.069 13.8724C24.0498 13.9674 24.0115 14.12 23.986 14.21C23.9605 14.3 23.9445 14.3775 23.9509 14.3825C23.9573 14.3875 24.0371 14.41 24.1232 14.435C24.2094 14.4575 24.3755 14.5151 24.4904 14.5601C24.6053 14.6051 24.7778 14.6851 24.8767 14.7351C24.9756 14.7851 25.1224 14.8701 25.2022 14.9228C25.2853 14.9753 25.4512 15.0953 25.5725 15.1928C25.6906 15.2904 25.8471 15.4304 25.9173 15.5029C25.9875 15.5754 26.0864 15.6881 26.1375 15.7531C26.1886 15.8181 26.2685 15.9306 26.3132 16.0031C26.3611 16.0757 26.4281 16.1957 26.4664 16.2707C26.5015 16.3457 26.5557 16.4808 26.5844 16.5683C26.6259 16.6958 26.6387 16.7783 26.6451 16.9785C26.6514 17.1635 26.6483 17.2535 26.6259 17.3361C26.61 17.3961 26.5972 17.4461 26.6004 17.4461C26.6004 17.4486 26.6865 17.4836 26.792 17.5236C26.8941 17.5636 27.0314 17.6261 27.0984 17.6613C27.1622 17.6938 27.2836 17.7663 27.3666 17.8213C27.4464 17.8763 27.5676 17.9688 27.6346 18.0288C27.6985 18.0914 27.8008 18.2014 27.8614 18.2764C27.922 18.3514 28.005 18.4765 28.0465 18.5515C28.088 18.629 28.1486 18.769 28.1773 18.8642C28.2092 18.9592 28.2443 19.1092 28.2571 19.1992C28.2732 19.3043 28.2796 19.4743 28.2732 19.6744C28.2668 19.8469 28.2475 20.0546 28.2315 20.1346C28.2156 20.2171 28.1933 20.3121 28.1741 20.4096L28.3307 20.4997C28.4168 20.5522 28.5668 20.6472 28.6657 20.7147C28.7614 20.7797 28.8925 20.8749 28.9531 20.9249C29.0169 20.9749 29.1126 21.0624 29.1733 21.1174C29.2339 21.1749 29.3394 21.285 29.4096 21.3675C29.4766 21.45 29.5819 21.59 29.6393 21.6801C29.6968 21.7701 29.7734 21.9176 29.815 22.0076C29.8533 22.0978 29.9076 22.2553 29.9363 22.3578C29.9746 22.5054 29.9873 22.6079 29.9969 22.8506C30.0033 23.0381 30.0001 23.2131 29.9842 23.3082C29.9746 23.3957 29.9427 23.5457 29.9171 23.6458C29.8916 23.7433 29.831 23.9158 29.7829 24.026C29.7351 24.1385 29.6425 24.316 29.5755 24.4236C29.5085 24.5311 29.3904 24.6936 29.3139 24.7836C29.2403 24.8738 29.1094 25.0113 29.0265 25.0863C28.9467 25.1638 28.7903 25.2939 28.6817 25.3764C28.5732 25.4589 28.3881 25.5839 28.2668 25.654C28.1486 25.724 27.9507 25.824 27.8327 25.879C27.7112 25.9315 27.5006 26.0117 27.3666 26.0567C27.2292 26.1017 27.0026 26.1642 26.859 26.1942C26.7185 26.2242 26.4823 26.2642 26.3355 26.2817C26.1407 26.3017 25.962 26.3117 25.6842 26.3117C25.4544 26.3117 25.2117 26.3017 25.0713 26.2867C24.9405 26.2742 24.7395 26.2467 24.618 26.2267C24.4361 26.1942 24.3978 26.1917 24.3819 26.2092C24.3691 26.2217 24.3021 26.2967 24.2319 26.3767C24.1615 26.4568 23.9956 26.6068 23.8648 26.7143C23.7339 26.8219 23.5519 26.9544 23.4593 27.0144C23.3668 27.0719 23.2007 27.1669 23.0922 27.2246C22.9837 27.2821 22.7539 27.3821 22.5846 27.4471C22.4155 27.5146 22.1889 27.5947 22.0802 27.6247C21.9717 27.6572 21.793 27.7022 21.6845 27.7272C21.5759 27.7547 21.3908 27.7897 21.2759 27.8072C21.1609 27.8247 20.9981 27.8472 20.9088 27.8597C20.8098 27.8722 20.5608 27.8772 20.2448 27.8772C19.8011 27.8772 19.7149 27.8747 19.5424 27.8447C19.434 27.8247 19.2393 27.7847 19.1147 27.7522C18.9902 27.7222 18.786 27.6622 18.6583 27.6197C18.5337 27.5771 18.3742 27.5171 18.1827 27.4346V31.9588L18.2465 31.9286C18.2816 31.9111 18.4539 31.8361 18.6294 31.7611C18.8051 31.6861 19.1755 31.536 19.4531 31.426C19.7309 31.316 20.0755 31.186 20.2161 31.1333C20.3565 31.0833 20.5927 31.0008 20.7428 30.9508C20.8896 30.9033 21.1353 30.8233 21.2855 30.7758C21.4387 30.7282 21.7196 30.6482 21.9111 30.5982C22.1026 30.5482 22.4091 30.4707 22.5974 30.4307C22.7826 30.3882 23.089 30.3281 23.2806 30.2981C23.4721 30.2656 23.7626 30.2256 23.9254 30.2106C24.12 30.1881 24.401 30.1756 24.749 30.1681C25.0969 30.1631 25.3587 30.1656 25.531 30.1781C25.6714 30.1881 25.9109 30.2156 26.0577 30.2356C26.2045 30.2556 26.4408 30.2981 26.5812 30.3306C26.7248 30.3607 26.9484 30.4182 27.0792 30.4557C27.2101 30.4957 27.4113 30.5632 27.523 30.6107C27.6378 30.6557 27.8039 30.7307 27.8901 30.7758C27.9795 30.8208 28.1231 30.9133 28.3785 31.1083V32.1613C28.3785 32.739 28.3721 33.2192 28.3626 33.2242C28.353 33.2317 28.286 33.1892 28.2092 33.1315C28.1326 33.074 28.0018 32.989 27.922 32.9465C27.8391 32.9015 27.6857 32.829 27.5836 32.7865C27.4815 32.744 27.3028 32.6764 27.1877 32.6389C27.0728 32.6014 26.8622 32.5414 26.7216 32.5039C26.578 32.4689 26.3547 32.4189 26.2237 32.3939C26.0928 32.3689 25.8567 32.3313 25.7001 32.3088C25.5406 32.2888 25.2949 32.2638 25.1543 32.2538C24.9947 32.2413 24.7201 32.2388 24.4393 32.2438C24.1615 32.2463 23.903 32.2613 23.7754 32.2763C23.6603 32.2913 23.4465 32.3238 23.2998 32.3489C23.1528 32.3739 22.8815 32.4289 22.6965 32.4714C22.508 32.5139 22.224 32.5864 22.0611 32.6314C21.8983 32.6789 21.6461 32.7565 21.5057 32.804C21.3621 32.8515 21.1258 32.934 20.979 32.9915C20.8322 33.0465 20.5065 33.1817 20.2544 33.2917C20.0053 33.4017 19.6063 33.5643 19.3733 33.6568C19.137 33.7468 18.786 33.8768 18.5912 33.9419C18.3933 34.0069 18.1027 34.0994 17.9464 34.1469C17.7868 34.1919 17.5314 34.2644 17.3814 34.3044C17.2282 34.3446 16.96 34.4071 16.7845 34.4471C16.6088 34.4846 16.3439 34.5371 15.913 34.6046L15.9066 29.5804C15.9034 26.8169 15.9066 24.5486 15.913 24.5386C15.9193 24.5261 16.0023 24.5761 16.1269 24.6686C16.2386 24.7511 16.4269 24.8688 16.5482 24.9338C16.6664 24.9963 16.8579 25.0838 16.9728 25.1313C17.0876 25.1763 17.2761 25.2439 17.391 25.2789C17.5058 25.3139 17.7007 25.3664 17.8251 25.3964C17.9528 25.4264 18.1667 25.4689 18.3008 25.4914C18.438 25.5114 18.6711 25.5414 18.8179 25.5539C18.9647 25.5689 19.2425 25.5789 19.434 25.5789C19.6222 25.5789 19.8968 25.5689 20.0372 25.5539C20.1778 25.5414 20.3789 25.5164 20.4842 25.5014C20.5863 25.4839 20.7524 25.4514 20.8513 25.4314C20.9502 25.4089 21.1034 25.3689 21.1993 25.3414C21.2919 25.3164 21.4514 25.2639 21.5535 25.2239C21.6588 25.1863 21.8186 25.1188 21.9111 25.0763C22.0037 25.0338 22.16 24.9488 22.2591 24.8913C22.358 24.8338 22.5144 24.7236 22.6101 24.6486C22.706 24.5736 22.8369 24.4536 22.9039 24.386C22.9677 24.316 23.0666 24.191 23.1209 24.106C23.1751 24.0185 23.2359 23.9033 23.2583 23.8483C23.2806 23.7908 23.3093 23.7158 23.3189 23.6808C23.3317 23.6433 23.3476 23.6158 23.3572 23.6183C23.3668 23.6183 23.4306 23.6783 23.5008 23.7458C23.571 23.8158 23.705 23.9183 23.7977 23.9783C23.8999 24.0435 24.0466 24.116 24.1839 24.1685C24.3021 24.2135 24.468 24.266 24.5478 24.2835C24.6308 24.301 24.7841 24.3235 24.8862 24.331C25.0203 24.3435 25.1352 24.3435 25.2725 24.331C25.381 24.3235 25.5374 24.301 25.6204 24.2835C25.7033 24.266 25.8407 24.2235 25.9269 24.1935C26.0162 24.161 26.1439 24.1035 26.2141 24.066C26.2877 24.0285 26.4089 23.9483 26.4887 23.8883C26.5685 23.8258 26.6802 23.7258 26.7376 23.6608C26.792 23.5957 26.8718 23.4882 26.9133 23.4182C26.9516 23.3507 27.0058 23.2332 27.0314 23.1606C27.0728 23.0456 27.076 22.9931 27.076 22.7554C27.076 22.5054 27.0728 22.4729 27.0218 22.3428C26.9931 22.2653 26.9356 22.1503 26.8973 22.0853C26.859 22.0201 26.7825 21.9201 26.7312 21.8576C26.677 21.7976 26.578 21.7051 26.5078 21.6501C26.4408 21.595 26.3291 21.5175 26.2653 21.48C26.1981 21.4425 26.0705 21.38 25.9779 21.345C25.8854 21.3075 25.7514 21.265 25.681 21.245C25.6076 21.2274 25.5183 21.2099 25.48 21.2024C25.4449 21.1974 25.3906 21.1849 25.3236 21.1649L25.3906 21.0899C25.4257 21.0499 25.4927 20.9599 25.5374 20.8924C25.5789 20.8222 25.6331 20.7222 25.6555 20.6647C25.6778 20.6097 25.7097 20.5222 25.7225 20.4697C25.7354 20.4196 25.7482 20.2896 25.745 20.1821C25.745 20.0244 25.7354 19.9569 25.6906 19.8319C25.6619 19.7444 25.6044 19.6218 25.5629 19.5593C25.5214 19.4943 25.4608 19.4093 25.4289 19.3718C25.3938 19.3318 25.3204 19.2593 25.2598 19.2092C25.2022 19.1567 25.0873 19.0767 25.0043 19.0292C24.9245 18.9817 24.7905 18.9167 24.7074 18.8842C24.6276 18.8542 24.5063 18.814 24.4393 18.7965C24.3755 18.779 24.251 18.754 24.1679 18.7415C24.0817 18.7265 23.9541 18.7165 23.8807 18.7165C23.8073 18.7165 23.7403 18.7115 23.7307 18.704C23.7243 18.699 23.7339 18.674 23.7531 18.654C23.7754 18.6315 23.8233 18.5665 23.8584 18.5065C23.8967 18.4464 23.9477 18.3514 23.9701 18.2989C23.9956 18.2464 24.0243 18.1689 24.0339 18.1314C24.0435 18.0939 24.0626 17.9988 24.0722 17.9238C24.0817 17.8413 24.0817 17.7263 24.0722 17.6311C24.0626 17.5461 24.0339 17.4161 24.0052 17.3436C23.9796 17.2711 23.9286 17.161 23.8935 17.101C23.8616 17.041 23.7818 16.9335 23.7212 16.8608C23.6603 16.7833 23.5327 16.6633 23.421 16.5783C23.3157 16.4958 23.1464 16.3857 23.0411 16.3307C22.939 16.2782 22.7826 16.2057 22.6965 16.1732C22.6069 16.1407 22.4665 16.0957 22.3772 16.0732C22.291 16.0481 22.1409 16.0181 22.0451 16.0006C21.9494 15.9856 21.7675 15.9631 21.6397 15.9556C21.512 15.9456 21.3557 15.9431 21.2982 15.9506C21.2376 15.9556 21.1736 15.9556 21.1545 15.9506C21.1226 15.9406 21.1353 15.9231 21.228 15.8281C21.2855 15.7656 21.3812 15.6479 21.4355 15.5654C21.4897 15.4854 21.5631 15.3429 21.6014 15.2528C21.6397 15.1628 21.6845 15.0328 21.7037 14.9653C21.7196 14.8978 21.742 14.7626 21.7516 14.6701C21.7579 14.5751 21.7579 14.42 21.7516 14.325C21.7452 14.2325 21.7228 14.095 21.7037 14.0224C21.6845 13.9499 21.6429 13.8249 21.611 13.7499C21.5791 13.6722 21.5152 13.5447 21.4674 13.4672C21.4195 13.3897 21.3238 13.2621 21.2568 13.1796C21.177 13.0871 21.046 12.9671 20.9119 12.8594C20.7875 12.7619 20.6182 12.6494 20.5225 12.5994C20.4299 12.5519 20.2927 12.4868 20.2161 12.4568C20.1394 12.4268 20.0021 12.3818 19.9096 12.3568C19.8171 12.3318 19.6639 12.2968 19.5712 12.2818C19.4371 12.2568 19.3191 12.2518 19.0157 12.2518C18.719 12.2518 18.5912 12.2593 18.4603 12.2793C18.3678 12.2943 18.2114 12.3293 18.1123 12.3543C18.0166 12.3818 17.8858 12.4218 17.8251 12.4468C17.7677 12.4718 17.7102 12.4943 17.7007 12.4943C17.6943 12.4943 17.6783 12.4468 17.6656 12.3868C17.656 12.3293 17.6143 12.2118 17.5792 12.1268C17.5441 12.0417 17.4835 11.9242 17.4484 11.8692C17.4133 11.8142 17.3367 11.7092 17.2729 11.6365C17.2123 11.5615 17.0717 11.4315 16.9632 11.3465C16.8547 11.2589 16.7079 11.1564 16.6377 11.1164C16.5641 11.0789 16.4365 11.0139 16.3471 10.9764C16.261 10.9364 16.1044 10.8788 16.0023 10.8488C15.897 10.8163 15.7151 10.7713 15.5937 10.7488C15.399 10.7138 15.3352 10.7088 14.9712 10.7088C14.649 10.7088 14.5275 10.7138 14.3967 10.7363C14.3009 10.7513 14.1478 10.7838 14.0487 10.8088C13.9498 10.8338 13.7838 10.8888 13.6817 10.9289C13.5762 10.9714 13.4262 11.0389 13.3433 11.0814C13.2635 11.1239 13.0912 11.2414 12.9634 11.339C12.8102 11.459 12.6953 11.5665 12.6187 11.659C12.5547 11.7367 12.4686 11.8542 12.4303 11.9242C12.3888 11.9917 12.3313 12.1118 12.3026 12.1893C12.2739 12.2668 12.2452 12.3568 12.2388 12.3893C12.2292 12.4218 12.2165 12.4468 12.2101 12.4468C12.2005 12.4468 12.1239 12.4243 12.0408 12.3993C11.9546 12.3718 11.7983 12.3318 11.6866 12.3118C11.5364 12.2818 11.4152 12.2693 11.1726 12.2643C10.9236 12.2568 10.8087 12.2618 10.6459 12.2818C10.5309 12.2968 10.349 12.3318 10.2405 12.3593C10.132 12.3893 9.97545 12.4368 9.89249 12.4693C9.81271 12.5019 9.6723 12.5644 9.58614 12.6094C9.49981 12.6569 9.36897 12.7319 9.29877 12.7819C9.22857 12.8294 9.11688 12.9171 9.05306 12.9746C8.98906 13.0321 8.88375 13.1421 8.81674 13.2196C8.75292 13.2947 8.66676 13.4147 8.62528 13.4847C8.5838 13.5522 8.51997 13.6772 8.48788 13.7599C8.45278 13.8449 8.4113 13.9774 8.39215 14.0574C8.37301 14.1475 8.36024 14.285 8.36024 14.4275C8.36024 14.5676 8.37301 14.7076 8.39215 14.7926C8.40811 14.8701 8.4464 14.9978 8.47512 15.0753C8.50384 15.1528 8.56784 15.2804 8.61571 15.3629C8.66676 15.4454 8.73378 15.5454 8.76888 15.5879C8.80079 15.6329 8.88695 15.7231 8.95396 15.7931C9.02115 15.8606 9.0722 15.9206 9.06582 15.9281C9.05625 15.9331 8.96991 15.9356 8.87099 15.9306C8.77207 15.9256 8.58699 15.9281 8.45598 15.9406C8.32514 15.9506 8.11772 15.9781 7.99947 16.0006C7.87821 16.0256 7.69632 16.0732 7.59421 16.1057C7.48873 16.1407 7.34194 16.1982 7.26535 16.2307C7.18877 16.2657 7.05474 16.3382 6.9684 16.3882C6.87906 16.4407 6.74822 16.5308 6.67802 16.5883C6.60462 16.6483 6.49613 16.7483 6.43851 16.8133C6.38107 16.8785 6.29491 16.991 6.25024 17.0635C6.20556 17.136 6.14493 17.256 6.1194 17.3286C6.09068 17.4011 6.05877 17.5336 6.04601 17.6236C6.02686 17.7463 6.02686 17.8288 6.04282 17.9438C6.05558 18.0288 6.0843 18.1564 6.10664 18.2239C6.12898 18.2939 6.18961 18.4189 6.24067 18.5065C6.29491 18.5915 6.38426 18.7115 6.43851 18.7715C6.49613 18.8315 6.5408 18.8842 6.5408 18.8917C6.5408 18.8992 6.4768 18.8992 6.39703 18.8917C6.31725 18.8842 6.14174 18.8817 6.00453 18.8817C5.8416 18.8842 5.68843 18.8967 5.55122 18.9192C5.43616 18.9367 5.27342 18.9742 5.19364 18.9967C5.11067 19.0217 4.98622 19.0692 4.91584 19.1017C4.84244 19.1342 4.70842 19.2192 4.6063 19.3018C4.47228 19.4068 4.41147 19.4693 4.35404 19.5593C4.31255 19.6218 4.26149 19.7319 4.23915 19.7994C4.21363 19.8819 4.20086 19.9769 4.20086 20.0771C4.20086 20.1596 4.21363 20.2771 4.22958 20.3346C4.24554 20.3921 4.27107 20.4747 4.29021 20.5172C4.30936 20.5597 4.36042 20.6597 4.40828 20.7347C4.45615 20.8122 4.54568 20.9349 4.6095 21.0049C4.67332 21.0749 4.79139 21.1874 4.87116 21.2575C4.96051 21.335 5.00537 21.385 4.98941 21.39C4.97665 21.395 4.88393 21.4175 4.78501 21.4375C4.68927 21.46 4.52015 21.5125 4.40828 21.555C4.29979 21.595 4.14023 21.6701 4.05407 21.7226C3.96472 21.7726 3.82095 21.8751 3.73479 21.9476C3.64863 22.0226 3.53375 22.1378 3.4827 22.2053C3.43146 22.2728 3.36126 22.3753 3.33254 22.4354C3.30063 22.4954 3.25914 22.5954 3.23681 22.6554C3.20809 22.7379 3.20171 22.8181 3.20171 23.0056C3.20171 23.1881 3.20809 23.2707 3.23681 23.3482C3.25595 23.4032 3.31339 23.5207 3.36764 23.6057C3.4187 23.6908 3.51141 23.8108 3.57204 23.8708C3.63587 23.9308 3.7316 24.011 3.78904 24.051C3.84648 24.0885 3.97111 24.1585 4.06365 24.2035C4.15619 24.2485 4.30298 24.306 4.38914 24.3285C4.47547 24.3535 4.61907 24.386 4.70842 24.401C4.80415 24.4186 4.96051 24.4286 5.11386 24.4286C5.25108 24.4311 5.42978 24.4211 5.50973 24.4111C5.5927 24.3985 5.73949 24.3685 5.83841 24.3435C5.93415 24.3185 6.09707 24.266 6.19599 24.2235C6.29172 24.1835 6.42575 24.1185 6.49294 24.081C6.55676 24.0435 6.66844 23.9683 6.73865 23.9133C6.81204 23.8608 6.87267 23.8158 6.87906 23.8158C6.88544 23.8158 6.91735 23.8758 6.95245 23.9533C6.98755 24.0285 7.06751 24.156 7.12814 24.2385C7.18877 24.3185 7.29088 24.4336 7.35151 24.4936C7.41214 24.5536 7.51443 24.6436 7.57187 24.6911C7.6325 24.7386 7.741 24.8138 7.8112 24.8613C7.8814 24.9063 8.03475 24.9938 8.14644 25.0538C8.26132 25.1113 8.47193 25.2064 8.61251 25.2589C8.75611 25.3139 9.00501 25.3939 9.16794 25.4364C9.33387 25.4789 9.57019 25.5314 9.69464 25.5539C9.81909 25.5764 10.0297 25.604 10.1607 25.6165C10.2915 25.6315 10.5373 25.6465 10.7066 25.6515C10.8821 25.6565 11.1343 25.654 11.2907 25.644C11.4439 25.634 11.6802 25.6115 11.8174 25.5914C11.9546 25.5739 12.1686 25.5389 12.2931 25.5139C12.4175 25.4889 12.6187 25.4389 12.74 25.4039C12.8581 25.3689 13.0559 25.3039 13.1741 25.2589C13.2954 25.2114 13.4741 25.1363 13.573 25.0863C13.6689 25.0388 13.8221 24.9538 13.9083 24.9013C13.9976 24.8463 14.1542 24.7311 14.2627 24.6461C14.368 24.5586 14.4605 24.4911 14.4637 24.4986C14.4701 24.5061 14.4765 26.7743 14.4733 34.5771L14.3999 34.5696C14.3584 34.5621 14.2052 34.5371 14.0582 34.5121C13.9115 34.4871 13.6562 34.4346 13.4933 34.3971C13.3305 34.3596 13.0336 34.2869 12.8389 34.2344C12.6411 34.1819 12.3218 34.0869 12.1239 34.0244C11.9291 33.9619 11.6515 33.8693 11.5109 33.8218C11.3673 33.7718 11.0737 33.6593 10.8565 33.5718C10.6364 33.4842 10.3011 33.3442 10.1128 33.2592C9.92121 33.1742 9.6021 33.044 9.40727 32.969C9.20942 32.8965 8.89333 32.7865 8.70186 32.7264C8.51359 32.6664 8.20388 32.5789 8.0188 32.5314C7.83354 32.4839 7.52081 32.4114 7.32598 32.3739C7.12814 32.3363 6.85991 32.2888 6.72907 32.2713C6.59824 32.2538 6.39384 32.2313 6.27257 32.2213C6.13855 32.2088 5.92138 32.2063 5.69801 32.2113C5.50335 32.2163 5.23512 32.2313 5.10429 32.2463C4.97346 32.2588 4.76586 32.2838 4.64779 32.3013C4.52653 32.3188 4.32212 32.3539 4.19129 32.3814C4.06046 32.4064 3.85605 32.4539 3.73479 32.4839C3.61672 32.5139 3.42827 32.5664 3.31977 32.5989C3.20809 32.6339 3.01662 32.7014 2.89199 32.7515C2.76754 32.799 2.57608 32.884 2.46758 32.9415C2.35572 32.999 2.21531 33.084 2.1483 33.1315C2.08448 33.1817 2.02385 33.2142 2.01427 33.2092C2.0047 33.2017 1.99832 32.7214 1.99832 31.0833L2.12277 30.9958C2.19297 30.9483 2.34295 30.8608 2.45482 30.8008C2.56969 30.7407 2.78031 30.6457 2.92071 30.5932C3.06449 30.5382 3.29744 30.4607 3.43784 30.4207C3.57843 30.3807 3.83052 30.3206 3.99344 30.2881C4.15619 30.2556 4.40509 30.2131 4.54887 30.1931C4.78501 30.1606 4.86478 30.1556 5.46169 30.1556C5.8799 30.1556 6.18961 30.1631 6.32363 30.1756C6.43851 30.1881 6.63334 30.2106 6.76099 30.2256C6.88544 30.2431 7.10899 30.2781 7.25578 30.3056C7.40257 30.3306 7.66441 30.3832 7.83992 30.4232C8.01561 30.4632 8.29961 30.5332 8.47512 30.5807C8.65081 30.6282 8.96353 30.7182 9.16794 30.7833C9.37536 30.8483 9.69783 30.9533 9.88291 31.0158C10.0682 31.0808 10.4894 31.2385 10.8151 31.366C11.1439 31.491 11.5813 31.6711 11.7919 31.7611C12.0025 31.8511 12.1782 31.9261 12.1846 31.9261C12.1877 31.9261 12.1941 30.9133 12.1941 27.4196L11.9802 27.5221C11.8621 27.5771 11.6866 27.6547 11.5877 27.6922C11.4917 27.7297 11.3258 27.7847 11.2205 27.8172C11.1184 27.8472 10.9363 27.8922 10.8151 27.9172C10.697 27.9422 10.5181 27.9747 10.4192 27.9899C10.3203 28.0024 10.0841 28.0174 9.89249 28.0224C9.67549 28.0274 9.4679 28.0249 9.33706 28.0124C9.22219 28.0024 9.0371 27.9799 8.92205 27.9622C8.80717 27.9447 8.60294 27.9022 8.46555 27.8672C8.32833 27.8322 8.12729 27.7747 8.0188 27.7347C7.91012 27.6972 7.70909 27.6147 7.57187 27.5496C7.43767 27.4871 7.22706 27.3721 7.1058 27.2946C6.98755 27.2196 6.79928 27.0844 6.68759 26.9969C6.57909 26.9069 6.41617 26.7568 6.32682 26.6618C6.23747 26.5693 6.12259 26.4318 6.07154 26.3592C6.01729 26.2892 5.97244 26.2267 5.96606 26.2242C5.95967 26.2217 5.87032 26.2417 5.76821 26.2717C5.6629 26.2992 5.48739 26.3417 5.37234 26.3642C5.25746 26.3867 5.05961 26.4168 4.93499 26.4318C4.78181 26.4493 4.58716 26.4568 4.34127 26.4593C4.13704 26.4593 3.88796 26.4493 3.78585 26.4393C3.68054 26.4268 3.49227 26.4018 3.36764 26.3792C3.24319 26.3567 3.03896 26.3117 2.91114 26.2792C2.78669 26.2442 2.56012 26.1692 2.40677 26.1092C2.2536 26.0517 2.05895 25.9665 1.9696 25.9215C1.88326 25.8765 1.73966 25.7965 1.65351 25.744C1.56416 25.6915 1.40442 25.5814 1.29912 25.5014C1.19062 25.4189 1.03426 25.2864 0.951294 25.2039C0.868149 25.1238 0.750078 24.9963 0.689448 24.9238C0.628818 24.8513 0.533085 24.7236 0.478837 24.6436C0.421398 24.5611 0.338254 24.4136 0.287197 24.316C0.23614 24.216 0.175508 24.0685 0.146789 23.9883C0.118069 23.9058 0.0765873 23.7633 0.0542498 23.6683C0.0255302 23.5482 0.00957316 23.4057 0.00319103 23.1931C-0.00319111 23.0081 1.12272e-07 22.8256 0.0127644 22.7329C0.0255286 22.6454 0.0542493 22.5029 0.0797779 22.4128C0.102115 22.3228 0.159555 22.1553 0.207421 22.0378C0.255287 21.9226 0.351019 21.7376 0.4214 21.625C0.491603 21.5125 0.609671 21.3475 0.686256 21.2575C0.759651 21.1674 0.87772 21.0424 0.94491 20.9774C1.00873 20.9124 1.16828 20.7797 1.29912 20.6797C1.42694 20.5797 1.62479 20.4472 1.93131 20.2671L1.89603 20.1521C1.87688 20.0871 1.85135 19.9644 1.83859 19.8769C1.82582 19.7894 1.82263 19.6519 1.82901 19.5593C1.83539 19.4693 1.85454 19.3343 1.87369 19.2618C1.88964 19.1892 1.9313 19.0667 1.96322 18.9892C1.99513 18.9117 2.06533 18.779 2.11958 18.694C2.17702 18.6065 2.27913 18.4715 2.35253 18.3889C2.42592 18.3089 2.5697 18.1739 2.675 18.0914C2.77711 18.0088 2.9528 17.8888 3.0613 17.8263C3.16979 17.7613 3.33892 17.6763 3.43465 17.6311C3.53056 17.5886 3.60715 17.5536 3.60715 17.5536C3.60715 17.5536 3.58162 17.4936 3.54971 17.4211C3.5178 17.3486 3.47312 17.226 3.45079 17.1485C3.42827 17.071 3.39955 16.931 3.38679 16.8358C3.37402 16.7358 3.36764 16.5983 3.37721 16.5008C3.38359 16.4107 3.40274 16.2857 3.4187 16.2207C3.43465 16.1557 3.46993 16.0481 3.49865 15.9781C3.52737 15.9106 3.58162 15.8006 3.61991 15.7381C3.6582 15.6729 3.74755 15.5504 3.82095 15.4654C3.89753 15.3729 4.02854 15.2478 4.14023 15.1603C4.24554 15.0753 4.41147 14.9678 4.52015 14.9128C4.62226 14.8576 4.77543 14.7876 4.85521 14.7551C4.93818 14.7226 5.066 14.6776 5.14258 14.6551C5.21917 14.6326 5.3851 14.5951 5.50973 14.5701C5.63418 14.5451 5.80012 14.5176 5.87352 14.5101C5.98219 14.5001 6.00453 14.4926 5.99495 14.475C5.98538 14.46 5.9501 14.37 5.91181 14.2725C5.8767 14.1725 5.82884 14.0074 5.8065 13.9049C5.78736 13.8024 5.76502 13.6372 5.75864 13.5372C5.74906 13.4397 5.75544 13.2721 5.76821 13.1646C5.77778 13.0571 5.80969 12.8819 5.83841 12.7769C5.86394 12.6719 5.91819 12.5119 5.95967 12.4193C5.99814 12.3268 6.07473 12.1743 6.13217 12.0792C6.18961 11.9867 6.28534 11.8492 6.34278 11.7767C6.40022 11.704 6.49613 11.5915 6.55995 11.5265C6.62058 11.464 6.74503 11.349 6.83757 11.2714C6.93011 11.1939 7.08665 11.0814 7.18558 11.0189C7.2845 10.9564 7.44405 10.8663 7.54315 10.8163C7.64208 10.7663 7.83673 10.6813 7.98033 10.6288C8.12091 10.5738 8.3411 10.5061 8.46555 10.4736C8.59018 10.4436 8.78164 10.4036 8.89014 10.3861C9.04029 10.3611 9.19347 10.3511 9.50619 10.3461C9.79356 10.3411 9.98184 10.3461 10.3075 10.3811L10.4383 10.2311C10.5085 10.1511 10.6268 10.0235 10.7002 9.95097C10.7736 9.87847 10.9491 9.72597 11.0929 9.61583C11.2333 9.50333 11.4279 9.36333 11.5205 9.30569C11.6132 9.24819 11.7951 9.1432 11.9259 9.0757C12.0567 9.0057 12.3026 8.89556 12.4718 8.83056C12.6411 8.76306 12.8676 8.68306 12.9761 8.65306C13.0848 8.62056 13.2826 8.57056 13.4135 8.54306C13.5443 8.51292 13.7583 8.47292 13.8891 8.45542C14.02 8.43792 14.2084 8.41542 14.3073 8.40792C14.4031 8.40292 14.6234 8.39542 14.7925 8.39292ZM5.74906 33.014C5.90542 33.0165 6.1577 33.0315 6.30449 33.044C6.45128 33.0565 6.66525 33.0815 6.78013 33.099C6.89501 33.114 7.09622 33.1517 7.22706 33.1767C7.35789 33.2017 7.5623 33.2492 7.68037 33.2792C7.80163 33.3092 8.02518 33.3717 8.17835 33.4192C8.33152 33.4667 8.60613 33.5618 8.79121 33.6343C8.9763 33.7068 9.22857 33.8093 9.34664 33.8643C9.4679 33.9193 9.69464 34.0269 9.85419 34.1044C10.0106 34.1819 10.2628 34.2969 10.4096 34.3646C10.5566 34.4296 10.8597 34.5521 11.0833 34.6371C11.3067 34.7247 11.6355 34.8397 11.8174 34.8947C11.9961 34.9497 12.2739 35.0297 12.4303 35.0672C12.59 35.1072 12.8581 35.1674 13.0272 35.2024C13.1965 35.2349 13.4326 35.2774 13.5507 35.2924C13.6721 35.3099 13.8636 35.3349 13.9785 35.3474C14.0935 35.3599 14.3105 35.3799 14.4637 35.3899C14.6362 35.3999 14.9553 35.4049 15.3065 35.3999C15.6545 35.3949 15.9768 35.3824 16.1397 35.3649C16.2865 35.3524 16.529 35.3224 16.676 35.3024C16.8228 35.2799 17.0876 35.2349 17.2601 35.2024C17.4356 35.1674 17.7198 35.1047 17.8953 35.0597C18.0708 35.0147 18.3678 34.9297 18.5592 34.8697C18.7509 34.8097 19.0764 34.6971 19.284 34.6171C19.4914 34.5396 19.7724 34.4246 19.9096 34.3646C20.0436 34.3044 20.3565 34.1569 20.6022 34.0394C20.8481 33.9218 21.1929 33.7668 21.3653 33.6943C21.5408 33.6243 21.8122 33.5217 21.9717 33.4692C22.1281 33.4167 22.4027 33.3367 22.575 33.2917C22.7507 33.2442 23.006 33.1867 23.14 33.1592C23.2774 33.134 23.4976 33.099 23.6284 33.0815C23.7594 33.064 23.9445 33.0415 24.0435 33.034C24.1424 33.0265 24.3595 33.014 24.5287 33.009C24.7074 33.004 24.9596 33.0065 25.1352 33.0165C25.2981 33.0265 25.5438 33.049 25.681 33.0665C25.8152 33.084 26.0162 33.114 26.1247 33.1367C26.2364 33.1592 26.3993 33.1942 26.4919 33.2167C26.5844 33.2392 26.7537 33.2867 26.8686 33.3217C26.9835 33.3592 27.1622 33.4217 27.2677 33.4617C27.3698 33.5017 27.5293 33.5718 27.6219 33.6168C27.7176 33.6593 27.8582 33.7343 27.9412 33.7818C28.0209 33.8318 28.1486 33.9143 28.3594 34.0719L28.3562 36.2226L28.2347 36.1276C28.1645 36.0751 28.0337 35.9826 27.9412 35.9201C27.8486 35.8575 27.6666 35.75 27.5357 35.68C27.4017 35.6125 27.1622 35.5049 26.9994 35.4424C26.8367 35.3799 26.5972 35.3024 26.4727 35.2674C26.3483 35.2324 26.1279 35.1849 25.9875 35.1574C25.8439 35.1299 25.6299 35.0972 25.5119 35.0847C25.3906 35.0697 25.132 35.0522 24.9373 35.0447C24.7395 35.0347 24.4712 35.0322 24.3404 35.0372C24.2094 35.0422 23.986 35.0572 23.8456 35.0722C23.7018 35.0847 23.4721 35.1122 23.3285 35.1324C23.1879 35.1549 22.9549 35.1949 22.8145 35.2249C22.6708 35.2549 22.441 35.3099 22.2974 35.3474C22.1568 35.3849 21.9558 35.4424 21.8537 35.4749C21.7484 35.5074 21.5376 35.58 21.3876 35.6375C21.2344 35.695 20.9247 35.825 20.7013 35.9276C20.4778 36.0276 20.1266 36.1801 19.9192 36.2626C19.7118 36.3478 19.418 36.4603 19.2648 36.5128C19.1115 36.5653 18.8434 36.6528 18.6679 36.7079C18.4954 36.7604 18.2146 36.8404 18.0453 36.8829C17.8762 36.9254 17.6175 36.9854 17.4675 37.0154C17.3208 37.0479 17.0717 37.0929 16.9153 37.1181C16.7558 37.1431 16.5003 37.1781 16.3471 37.1956C16.1971 37.2131 15.9513 37.2356 15.8045 37.2456C15.6545 37.2556 15.3224 37.2656 15.0606 37.2656C14.7989 37.2656 14.4733 37.2556 14.336 37.2456C14.1988 37.2356 13.9721 37.2156 13.8285 37.1981C13.6881 37.1806 13.4422 37.1481 13.2858 37.1206C13.1263 37.0954 12.8708 37.0454 12.7208 37.0129C12.5677 36.9779 12.309 36.9129 12.1431 36.8704C11.9802 36.8254 11.6961 36.7379 11.5109 36.6753C11.3226 36.6128 10.9746 36.4853 10.7353 36.3903C10.4958 36.2951 10.1065 36.1351 9.87334 36.0376C9.64039 35.9376 9.30834 35.8075 9.13922 35.745C8.96991 35.685 8.69229 35.59 8.52635 35.5375C8.35705 35.4824 8.05071 35.3974 7.84949 35.3449C7.64846 35.2924 7.33556 35.2224 7.15686 35.1874C6.97479 35.1524 6.71631 35.1097 6.58229 35.0922C6.44489 35.0747 6.21833 35.0547 6.07473 35.0447C5.88947 35.0322 5.70439 35.0322 5.41063 35.0447C5.18726 35.0522 4.90946 35.0722 4.79777 35.0847C4.68289 35.0997 4.48505 35.1274 4.36042 35.1499C4.23596 35.1724 4.02535 35.2174 3.89434 35.2524C3.76351 35.2874 3.57524 35.3424 3.47631 35.3774C3.3804 35.4099 3.22723 35.4674 3.14107 35.5049C3.05172 35.5425 2.8888 35.6225 2.77392 35.6825C2.65904 35.74 2.50588 35.8275 2.43567 35.87C2.36529 35.9151 2.24403 36.0001 2.16745 36.0601C2.09086 36.1201 2.02385 36.1626 2.01427 36.1576C2.0047 36.1501 1.99832 35.6675 1.99832 34.0244L2.15149 33.9218C2.23765 33.8643 2.35572 33.7918 2.41635 33.7568C2.47715 33.7218 2.58565 33.6668 2.65905 33.6293C2.73244 33.5943 2.89838 33.5217 3.0262 33.4717C3.15384 33.4217 3.35168 33.3492 3.46674 33.3142C3.58162 33.2792 3.78266 33.2267 3.91349 33.1967C4.0445 33.1667 4.2583 33.124 4.38914 33.104C4.52015 33.084 4.70204 33.059 4.79777 33.049C4.89031 33.039 5.07557 33.024 5.21279 33.019C5.35 33.0115 5.58951 33.009 5.74906 33.014ZM24.5797 35.8175C24.9277 35.8225 25.1224 35.8325 25.314 35.855C25.4544 35.8725 25.6523 35.9 25.7482 35.9151C25.8471 35.9326 26.0258 35.9701 26.1471 35.9976C26.2653 36.0251 26.4664 36.0776 26.5908 36.1176C26.7185 36.1551 26.9324 36.2326 27.0728 36.2876C27.2132 36.3428 27.4081 36.4278 27.5102 36.4753C27.6091 36.5253 27.7784 36.6153 27.8805 36.6778C27.9858 36.7404 28.1358 36.8354 28.3562 36.9954L28.3594 39.3738L28.0241 39.1163C27.8422 38.9736 27.6123 38.8061 27.5134 38.7411C27.4176 38.676 27.2645 38.581 27.1781 38.5285C27.0888 38.476 26.9292 38.3885 26.8207 38.3335C26.7121 38.2758 26.527 38.1908 26.4121 38.1433C26.3004 38.0958 26.1056 38.0258 25.9875 37.9883C25.8663 37.9483 25.6842 37.9008 25.5821 37.8782C25.4768 37.8557 25.3172 37.8257 25.2245 37.8132C25.132 37.7982 24.8926 37.7832 24.6882 37.7782C24.468 37.7732 24.2159 37.7782 24.053 37.7907C23.9062 37.8007 23.6572 37.8257 23.4976 37.8457C23.3412 37.8682 23.0985 37.9058 22.9613 37.9308C22.8273 37.9583 22.6133 38.0033 22.4857 38.0333C22.3612 38.0658 22.1281 38.1283 21.9717 38.1758C21.8122 38.2233 21.5599 38.3085 21.4067 38.366C21.2536 38.4235 20.9407 38.556 20.7109 38.6585C20.4842 38.7636 20.1489 38.9086 19.967 38.9811C19.7883 39.0536 19.5201 39.1588 19.3733 39.2113C19.2265 39.2638 18.9902 39.3438 18.8466 39.3888C18.7062 39.4338 18.4859 39.4989 18.3614 39.5339C18.2369 39.5689 18.0294 39.6239 17.9049 39.6539C17.7804 39.6864 17.5601 39.7339 17.4197 39.7639C17.2793 39.7914 17.027 39.8364 16.8643 39.8639C16.7015 39.889 16.4333 39.924 16.2705 39.9415C16.1044 39.959 15.8204 39.9815 15.6353 39.9915C15.4277 40.0015 15.1246 40.0065 14.85 39.999C14.6075 39.994 14.285 39.979 14.1382 39.9665C13.9912 39.954 13.7455 39.9265 13.5924 39.904C13.439 39.884 13.2156 39.8489 13.0976 39.8264C12.9761 39.8039 12.7432 39.7539 12.5804 39.7164C12.4175 39.6789 12.1367 39.6039 11.9546 39.5514C11.7759 39.4989 11.5109 39.4163 11.3705 39.3663C11.2301 39.3163 10.9555 39.2138 10.7672 39.1388C10.5757 39.0636 10.2596 38.9336 10.0618 38.8511C9.86696 38.7686 9.59891 38.656 9.4679 38.606C9.33706 38.5535 9.11369 38.471 8.96991 38.4235C8.82951 38.3735 8.57103 38.2883 8.39534 38.2358C8.21983 38.1808 7.96118 38.1083 7.82077 38.0708C7.68037 38.0358 7.41214 37.9758 7.22706 37.9383C7.03879 37.9008 6.75141 37.8532 6.58229 37.8282C6.35873 37.7982 6.17365 37.7857 5.90542 37.7782C5.67248 37.7732 5.4585 37.7782 5.31171 37.7907C5.18726 37.8007 4.98622 37.8282 4.86478 37.8532C4.74671 37.8757 4.55844 37.9233 4.44977 37.9533C4.34127 37.9858 4.14023 38.0558 4.00302 38.1108C3.86562 38.1658 3.64863 38.2658 3.5178 38.3335C3.38679 38.401 3.18894 38.511 3.08044 38.5785C2.97195 38.646 2.7835 38.7686 2.66543 38.8511C2.54417 38.9361 2.35253 39.0786 2.23765 39.1688C2.12277 39.2588 2.02385 39.3288 2.01427 39.3263C2.00789 39.3213 1.99832 38.7936 1.99832 36.9879L2.17063 36.8704C2.26318 36.8054 2.41316 36.7129 2.50268 36.6628C2.59203 36.6128 2.74521 36.5328 2.84413 36.4853C2.93986 36.4353 3.16341 36.3428 3.33892 36.2751C3.5178 36.2076 3.79861 36.1176 3.98387 36.0676C4.16257 36.0201 4.41147 35.9626 4.53929 35.9426C4.66375 35.9201 4.88393 35.8875 5.02451 35.87C5.18407 35.85 5.43935 35.835 5.68843 35.83C5.93734 35.825 6.19918 35.8275 6.36192 35.84C6.50889 35.85 6.7546 35.875 6.90778 35.895C7.06112 35.9151 7.28131 35.9501 7.39299 35.9726C7.50805 35.9951 7.72823 36.0476 7.8814 36.0851C8.03156 36.1251 8.26451 36.1926 8.39534 36.2351C8.52635 36.2776 8.80398 36.3803 9.0114 36.4628C9.21899 36.5453 9.56062 36.6978 9.77442 36.8029C9.98822 36.9054 10.282 37.0429 10.4288 37.1081C10.5757 37.1731 10.8693 37.2931 11.0833 37.3756C11.2971 37.4556 11.6036 37.5632 11.7664 37.6157C11.9323 37.6682 12.2037 37.7457 12.3728 37.7907C12.542 37.8332 12.8357 37.9008 13.0272 37.9383C13.2188 37.9758 13.506 38.0233 13.6721 38.0458C13.8349 38.0683 14.0935 38.0983 14.2467 38.1108C14.3999 38.1233 14.7064 38.1383 14.9298 38.1433C15.1725 38.1483 15.466 38.1458 15.6545 38.1358C15.83 38.1258 16.0821 38.1058 16.2195 38.0933C16.3567 38.0808 16.6409 38.0433 16.8547 38.0083C17.0685 37.9758 17.3654 37.9208 17.5186 37.8857C17.672 37.8507 17.9304 37.7882 18.0932 37.7432C18.2561 37.7007 18.5114 37.6257 18.6583 37.5757C18.8051 37.5282 19.0796 37.4331 19.2648 37.3631C19.4499 37.2931 19.7341 37.1756 19.9 37.1056C20.0628 37.0329 20.3565 36.8954 20.5544 36.8004C20.7492 36.7053 21.0141 36.5803 21.1385 36.5278C21.2631 36.4728 21.461 36.3928 21.5759 36.3528C21.6877 36.3103 21.8888 36.2401 22.0196 36.2001C22.1504 36.1576 22.358 36.1001 22.4761 36.0701C22.5974 36.0376 22.7794 35.9951 22.8847 35.9751C22.9869 35.9526 23.156 35.9226 23.2615 35.905C23.3636 35.8875 23.5614 35.865 23.6955 35.85C23.8328 35.8375 23.9796 35.8225 24.0243 35.82C24.069 35.815 24.3181 35.815 24.5797 35.8175ZM7.8112 40.9893C7.92608 40.9893 8.09857 40.9943 8.1975 41.0043C8.29642 41.0118 8.45278 41.0343 8.5455 41.0518C8.63804 41.0693 8.78164 41.1044 8.86142 41.1294C8.94438 41.1569 9.07221 41.2094 9.1456 41.2469C9.21899 41.2844 9.32111 41.3444 9.36897 41.3819C9.42003 41.4169 9.49981 41.4871 9.54785 41.5346C9.59253 41.5821 9.66911 41.6746 9.7106 41.7446C9.75527 41.8121 9.81271 41.9297 9.84143 42.0022C9.86696 42.0747 9.90206 42.1997 9.92121 42.2824C9.93716 42.3649 9.9595 42.5349 9.97226 42.665C9.98184 42.7975 9.99141 43.6003 9.99141 44.5056C9.99141 45.4108 9.98184 46.2136 9.97226 46.3463C9.9595 46.4738 9.93716 46.6464 9.92121 46.7264C9.90206 46.8089 9.86696 46.9339 9.83824 47.0089C9.81271 47.0815 9.76165 47.189 9.72336 47.249C9.68507 47.309 9.60848 47.409 9.55104 47.4692C9.49024 47.5292 9.38174 47.6192 9.30515 47.6692C9.22538 47.7217 9.08497 47.7917 8.96991 47.8368C8.85822 47.8793 8.68591 47.9293 8.57422 47.9518C8.46555 47.9743 8.25494 47.9993 8.10815 48.0093C7.90374 48.0218 7.77929 48.0218 7.58145 48.0093C7.44086 47.9993 7.2494 47.9768 7.15686 47.9593C7.06431 47.9418 6.92054 47.9043 6.83757 47.8793C6.75779 47.8543 6.62696 47.7992 6.55037 47.7617C6.47361 47.7217 6.36512 47.6542 6.30449 47.6092C6.24705 47.5667 6.16089 47.4892 6.11621 47.4367C6.06835 47.3865 6.00453 47.3015 5.96925 47.249C5.93734 47.199 5.88947 47.0965 5.86075 47.024C5.83203 46.9514 5.79374 46.8289 5.77778 46.7514C5.76183 46.6739 5.73949 46.5288 5.72992 46.4313C5.71715 46.3238 5.70758 45.5385 5.70758 44.5056C5.70758 43.4653 5.71715 42.6825 5.72992 42.5699C5.73949 42.4674 5.76502 42.3099 5.78736 42.2197C5.80969 42.1297 5.84799 42.0072 5.87352 41.9472C5.89904 41.8872 5.95967 41.7796 6.00772 41.7071C6.06515 41.6221 6.14493 41.5321 6.23428 41.4569C6.31087 41.3944 6.42575 41.3119 6.49294 41.2744C6.55676 41.2394 6.67802 41.1844 6.76099 41.1544C6.84076 41.1244 6.9973 41.0819 7.1058 41.0593C7.21429 41.0368 7.37066 41.0118 7.45362 41.0043C7.53677 40.9968 7.69632 40.9918 7.8112 40.9893ZM7.71547 42.2447C7.69313 42.2472 7.63888 42.2749 7.60059 42.3024C7.55272 42.3349 7.52081 42.3774 7.50167 42.4299C7.47596 42.4974 7.47277 42.82 7.47915 44.5356L7.48234 46.5638C7.55273 46.6664 7.60059 46.7089 7.63569 46.7264C7.67399 46.7414 7.73781 46.7614 7.78248 46.7664C7.82396 46.7739 7.89736 46.7739 7.94523 46.7689C7.99628 46.7614 8.0539 46.7414 8.09219 46.7139C8.1273 46.6889 8.17516 46.6389 8.1975 46.6013C8.23579 46.5338 8.23579 46.4938 8.24217 44.5906C8.24855 43.2576 8.24217 42.6099 8.22622 42.5249C8.21664 42.4549 8.18793 42.3774 8.16559 42.3499C8.14644 42.3199 8.09538 42.2849 8.0539 42.2699C8.01242 42.2522 7.94842 42.2372 7.91012 42.2322C7.87183 42.2272 7.82397 42.2272 7.80163 42.2297C7.77929 42.2347 7.741 42.2397 7.71547 42.2447ZM17.3846 41.0043C17.5282 41.0043 17.7358 41.0118 17.8411 41.0193C17.9464 41.0293 18.1187 41.0543 18.2242 41.0744C18.3263 41.0969 18.505 41.1494 18.6199 41.1919C18.7988 41.2619 18.853 41.2919 19.0094 41.4144C19.1627 41.5371 19.2042 41.5796 19.2808 41.7046C19.3414 41.8021 19.3893 41.9147 19.4212 42.0247C19.4563 42.1422 19.4786 42.2849 19.4914 42.4774C19.5042 42.6399 19.5105 43.1901 19.501 44.8332L17.0908 44.8407L17.0972 45.7085C17.1004 46.5438 17.1036 46.5813 17.1421 46.6389C17.1644 46.6739 17.2091 46.7164 17.241 46.7339C17.2857 46.7589 17.3303 46.7664 17.4324 46.7664C17.5378 46.7664 17.576 46.7589 17.6207 46.7339C17.6528 46.7139 17.6943 46.6839 17.7134 46.6639C17.7294 46.6439 17.7549 46.5863 17.7677 46.5413C17.7773 46.4938 17.7868 46.2463 17.7868 45.526H19.5105L19.5042 46.1161C19.4978 46.4388 19.485 46.7539 19.4722 46.8139C19.4627 46.8739 19.434 46.9739 19.4148 47.039C19.3925 47.104 19.351 47.199 19.3223 47.249C19.2935 47.3015 19.2361 47.3815 19.1946 47.4292C19.1531 47.4767 19.0509 47.5667 18.9647 47.6292C18.8466 47.7167 18.7605 47.7642 18.6103 47.8218C18.4954 47.8643 18.3263 47.9143 18.2114 47.9368C18.1027 47.9568 17.9113 47.9843 17.7868 47.9918C17.6592 48.0018 17.4324 48.0068 17.2697 48.0018C17.1132 47.9968 16.9089 47.9818 16.8132 47.9693C16.7207 47.9543 16.5801 47.9268 16.4971 47.9043C16.4141 47.8818 16.2961 47.8418 16.2291 47.8167C16.1652 47.7892 16.0757 47.7467 16.031 47.7217C15.9864 47.6942 15.913 47.6442 15.8651 47.6092C15.8204 47.5742 15.7502 47.5142 15.7151 47.4767C15.6768 47.4367 15.6162 47.354 15.5745 47.289C15.5331 47.224 15.4788 47.109 15.4565 47.0315C15.4309 46.9539 15.399 46.8114 15.3863 46.7114C15.3703 46.5813 15.3671 45.9336 15.3799 42.2272L15.4246 42.0722C15.4501 41.9872 15.4948 41.8621 15.5267 41.7996C15.5586 41.7346 15.6194 41.6396 15.6641 41.5871C15.7119 41.5371 15.7853 41.4644 15.83 41.4269C15.8747 41.3894 15.9672 41.3294 16.031 41.2919C16.098 41.2544 16.2163 41.1994 16.2993 41.1694C16.3822 41.1369 16.5322 41.0969 16.6377 41.0744C16.7398 41.0543 16.893 41.0293 16.9728 41.0218C17.0557 41.0143 17.241 41.0068 17.3846 41.0043ZM17.1772 42.3374C17.1548 42.3624 17.1261 42.4149 17.1132 42.4549C17.1004 42.4949 17.094 42.7575 17.094 43.0901L17.0908 43.6553H17.7868C17.7868 42.8275 17.7773 42.5449 17.7677 42.4924C17.7549 42.4424 17.7326 42.3824 17.7134 42.3624C17.6943 42.3424 17.6528 42.3099 17.6207 42.2924C17.5856 42.2699 17.5282 42.2572 17.4612 42.2547C17.4069 42.2522 17.3303 42.2597 17.292 42.2699C17.2537 42.2824 17.2027 42.3124 17.1772 42.3374ZM22.1345 41.0218C22.2304 41.0193 22.3963 41.0268 22.5016 41.0368C22.6069 41.0443 22.7794 41.0693 22.8847 41.0919C22.9869 41.1119 23.1624 41.1619 23.271 41.2044C23.3795 41.2469 23.5295 41.3219 23.6029 41.3694C23.6763 41.4169 23.7914 41.5096 23.8584 41.5771C23.9254 41.6421 24.0083 41.7471 24.0435 41.8071C24.0817 41.8672 24.1296 41.9747 24.1519 42.0472C24.1743 42.1222 24.1998 42.2447 24.2126 42.3224C24.2223 42.3974 24.2383 42.6625 24.2606 43.3576H22.508L22.5016 42.91C22.4953 42.4974 22.4921 42.4574 22.457 42.3999C22.4346 42.3649 22.3868 42.3199 22.3485 42.2999C22.2878 42.2699 22.2591 42.2649 22.1441 42.2699C22.0164 42.2749 22.0036 42.2774 21.9398 42.3324C21.9015 42.3649 21.8632 42.4224 21.8505 42.4574C21.8377 42.4999 21.8313 42.6625 21.8345 42.905C21.8409 43.2626 21.8441 43.2926 21.8856 43.3576C21.9111 43.3976 21.9558 43.4528 21.9877 43.4828C22.0196 43.5128 22.109 43.5778 22.1921 43.6253C22.2719 43.6728 22.5112 43.8003 22.7252 43.9054C22.939 44.0104 23.1783 44.1304 23.2615 44.1729C23.3412 44.2179 23.4816 44.2956 23.5678 44.3481C23.654 44.4031 23.7882 44.4981 23.8648 44.5631C23.9413 44.6281 24.0339 44.7182 24.069 44.7632C24.1041 44.8107 24.1551 44.8932 24.1839 44.9482C24.2126 45.0057 24.2574 45.1183 24.2798 45.1983C24.3181 45.3358 24.3213 45.3958 24.3213 46.0186C24.3213 46.6088 24.3181 46.7039 24.2862 46.8289C24.2638 46.9064 24.2223 47.024 24.1902 47.094C24.1583 47.1615 24.0945 47.2665 24.0498 47.3265C24.002 47.3865 23.903 47.4892 23.8265 47.5517C23.7499 47.6142 23.6252 47.6992 23.5487 47.7392C23.4721 47.7767 23.3412 47.8318 23.2615 47.8593C23.1783 47.8868 23.0347 47.9243 22.9422 47.9418C22.8496 47.9593 22.6899 47.9818 22.5846 47.9918C22.4761 48.0018 22.2878 48.0068 22.1313 48.0018C21.9813 47.9968 21.7898 47.9818 21.7037 47.9693C21.6174 47.9543 21.4833 47.9268 21.4067 47.9068C21.3302 47.8868 21.2057 47.8443 21.1289 47.8142C21.0524 47.7842 20.9343 47.7292 20.8705 47.6892C20.8035 47.6517 20.7077 47.5817 20.6533 47.5367C20.599 47.4892 20.5161 47.404 20.4682 47.344C20.4172 47.284 20.3533 47.179 20.3214 47.114C20.2895 47.0465 20.2512 46.9339 20.2353 46.8639C20.2097 46.7639 20.2002 46.5988 20.1874 45.526H21.9111L21.9175 46.0536C21.9207 46.5588 21.9239 46.5813 21.9654 46.6414C21.9877 46.6764 22.0356 46.7164 22.0739 46.7339C22.1121 46.7514 22.1792 46.7639 22.24 46.7639C22.3038 46.7664 22.3612 46.7539 22.4059 46.7339C22.4442 46.7164 22.4984 46.6714 22.5272 46.6339C22.575 46.5638 22.575 46.5588 22.5814 46.1511C22.5878 45.8911 22.5814 45.6985 22.5655 45.636C22.5527 45.581 22.524 45.506 22.4984 45.471C22.4729 45.4385 22.4027 45.3733 22.3453 45.3308C22.2878 45.2858 22.1026 45.1808 21.9366 45.0958C21.7707 45.0107 21.5152 44.8807 21.3716 44.8082C21.228 44.7357 21.0364 44.6356 20.9502 44.5831C20.8641 44.5331 20.7269 44.4431 20.6437 44.3806C20.5639 44.3206 20.4618 44.2279 20.414 44.1779C20.3661 44.1254 20.2991 44.0354 20.2672 43.9779C20.2321 43.9204 20.1874 43.8153 20.1683 43.7453C20.1457 43.6728 20.117 43.5353 20.1074 43.4351C20.0979 43.3376 20.0883 43.0951 20.0883 42.8975C20.0883 42.7 20.0979 42.4699 20.1074 42.3849C20.117 42.2974 20.1457 42.1672 20.1683 42.0947C20.1906 42.0222 20.2512 41.8922 20.3055 41.8071C20.3565 41.7196 20.4459 41.6096 20.4969 41.5571C20.5512 41.5071 20.6565 41.4244 20.7332 41.3744C20.8098 41.3219 20.9566 41.2494 21.0683 41.2044C21.1834 41.1594 21.3493 41.1119 21.4642 41.0894C21.5759 41.0668 21.7292 41.0443 21.8122 41.0368C21.8952 41.0293 22.0387 41.0218 22.1345 41.0218ZM10.5917 41.0468L11.8717 41.0543C12.9378 41.0593 13.1869 41.0643 13.3433 41.0869C13.4486 41.0994 13.586 41.1219 13.653 41.1369C13.7168 41.1494 13.8285 41.1794 13.8987 41.2019C13.9689 41.2244 14.0806 41.2694 14.1478 41.2994C14.2116 41.3319 14.3201 41.4044 14.3871 41.4569C14.4573 41.5171 14.5339 41.6021 14.5786 41.6746C14.6202 41.7396 14.6713 41.8471 14.6968 41.9147C14.7383 42.0347 14.7415 42.0647 14.7415 42.72C14.7415 43.3726 14.7383 43.4026 14.6968 43.5228C14.6713 43.5903 14.6202 43.7003 14.5818 43.7628C14.5275 43.8478 14.4669 43.9129 14.368 43.9929C14.2722 44.0679 14.1797 44.1204 14.0838 44.1604C14.004 44.1904 13.8732 44.2304 13.7966 44.2481C13.7168 44.2656 13.5923 44.2831 13.5188 44.2906C13.4422 44.2981 13.3848 44.3056 13.3848 44.3106C13.3848 44.3131 13.4709 44.3256 13.5762 44.3381C13.6849 44.3481 13.8253 44.3681 13.8891 44.3831C13.9561 44.3956 14.0614 44.4256 14.1286 44.4481C14.1924 44.4731 14.2914 44.5206 14.3456 44.5531C14.3999 44.5881 14.4796 44.6582 14.5243 44.7082C14.5658 44.7582 14.6202 44.8457 14.6458 44.9032C14.6713 44.9582 14.7064 45.0733 14.7223 45.1608C14.7447 45.2858 14.7511 45.486 14.7511 46.1861C14.7511 46.7164 14.7606 47.1015 14.7734 47.1765C14.7862 47.2415 14.8276 47.374 14.8659 47.4692C14.9074 47.5667 14.984 47.6967 15.0383 47.7717C15.0925 47.8443 15.2012 47.9543 15.281 48.0193C15.3575 48.0843 15.4852 48.1743 15.5682 48.2194C15.6481 48.2619 15.7694 48.3194 15.8364 48.3469C15.9066 48.3744 16.0183 48.4119 16.0853 48.4319C16.1557 48.4544 16.312 48.4894 16.4365 48.5094C16.5641 48.5319 16.7781 48.5594 16.9153 48.5694C17.0589 48.5794 17.2793 48.5819 17.7262 48.5669V49.9725L17.6432 49.98C17.5952 49.9825 17.3591 49.99 17.1132 49.995C16.7558 50.005 16.6152 50 16.4173 49.98C16.2833 49.965 16.0661 49.9375 15.9417 49.915C15.8172 49.8925 15.5969 49.8425 15.4565 49.805C15.3129 49.7649 15.1086 49.7024 15 49.6599C14.8915 49.6199 14.716 49.5474 14.6138 49.4974C14.5084 49.4474 14.352 49.3622 14.2658 49.3122C14.1797 49.2597 14.004 49.1372 13.8795 49.0372C13.7551 48.9371 13.6019 48.7996 13.5379 48.7321C13.4773 48.6621 13.3752 48.5319 13.3177 48.4419C13.2571 48.3519 13.1773 48.2043 13.139 48.1143C13.1007 48.0243 13.0495 47.8643 13.024 47.7567C12.9825 47.5692 12.9793 47.5217 12.9665 46.3988C12.957 45.5235 12.9474 45.2233 12.9283 45.1758C12.9155 45.1408 12.8836 45.0858 12.8581 45.0508C12.8325 45.0157 12.7878 44.9682 12.7559 44.9457C12.724 44.9232 12.6602 44.8907 12.6091 44.8732C12.5611 44.8557 12.4781 44.8382 12.3313 44.8257V47.9593H10.5885L10.5917 41.0468ZM12.3313 43.6553C12.7272 43.6553 12.7719 43.6503 12.8485 43.6203C12.9091 43.5953 12.9506 43.5628 12.9825 43.5228C13.0048 43.4878 13.0368 43.4101 13.0463 43.3501C13.0623 43.2801 13.0687 43.1126 13.0623 42.8825C13.0559 42.5924 13.0463 42.5099 13.0176 42.4549C13.0016 42.4149 12.9665 42.3674 12.941 42.3474C12.9187 42.3274 12.8676 42.2999 12.8325 42.2874C12.791 42.2749 12.6921 42.2674 12.5515 42.2674H12.3313V43.6553ZM5.30214 41.0894L5.31171 42.2674H3.74436V43.6553H5.15216L5.14258 44.8332L3.74436 44.8407V47.9443H1.99832L1.99513 44.5231C1.99513 42.6424 2.00151 41.0969 2.01108 41.0919C2.02066 41.0869 2.76435 41.0819 5.30214 41.0894ZM24.4712 41.0819H28.3785V42.2674H27.2868V47.9443H25.5597V42.2674H24.4712V41.0819Z" fill="#DD0000"/>
</svg>
