<svg width="40" height="45" viewBox="0 0 40 45" fill="none" xmlns="http://www.w3.org/2000/svg">
<path d="M34.686 32.2261C31.2048 36.2379 25.9894 38.7895 20.1564 38.7895C14.3808 38.7895 9.216 36.2916 5.732 32.3471L1.6078 37.1565C6.2398 41.9792 12.8486 45 20.183 45C27.561 45 34.1994 41.9468 38.8314 37.0721L34.686 32.2261Z" fill="#211E1F"/>
<path d="M31.422 13.8048V35.1627C31.422 35.7796 31.019 36.3147 30.4534 36.5198L20.2256 40.365L9.9944 36.5198C9.432 36.3147 9.0258 35.7796 9.0258 35.1627L9.0272 13.8048H31.422Z" fill="#211E1F"/>
<path d="M9.558 30.2921V17.1296H30.8842L30.8884 30.2921H9.558Z" fill="white"/>
<path d="M30.8884 29.0576C30.7004 29.3489 30.2398 29.5537 29.7062 29.5537C29.1646 29.5537 28.7016 29.3489 28.5182 29.0537C28.3302 29.3491 27.8696 29.5537 27.3302 29.5537C26.7906 29.5537 26.3356 29.3489 26.1458 29.0576C25.9562 29.3489 25.4976 29.5537 24.9618 29.5537C24.42 29.5537 23.9636 29.3489 23.7756 29.0537H23.7696C23.584 29.3491 23.125 29.5537 22.5874 29.5537C22.048 29.5537 21.5912 29.3489 21.4054 29.0576C21.2154 29.3489 20.7506 29.5537 20.2178 29.5537C19.677 29.5537 19.2194 29.3489 19.031 29.0537H19.0354C18.8446 29.3491 18.387 29.5537 17.8508 29.5537C17.3106 29.5537 16.85 29.3489 16.6618 29.0576C16.4746 29.3489 16.012 29.5537 15.4752 29.5537C14.9398 29.5537 14.4792 29.3489 14.292 29.0537H14.287C14.1022 29.3491 13.6408 29.5537 13.107 29.5537C12.565 29.5537 12.1078 29.3489 11.9178 29.0576V29.065C11.7294 29.3582 11.2708 29.5537 10.7386 29.5537C10.194 29.5537 9.7362 29.3489 9.5516 29.0537V29.0287L9.5582 34.8465C9.5582 35.4368 9.9428 35.939 10.4814 36.1343L20.2258 39.8036L29.9632 36.1343C30.5028 35.939 30.8884 35.4368 30.8884 34.8465V29.0324V29.0576Z" fill="#ED1A3B"/>
<path d="M30.8884 28.4502C30.7004 28.7394 30.2398 28.9465 29.7062 28.9465C29.1646 28.9465 28.7016 28.7374 28.5182 28.4502C28.3302 28.7374 27.8696 28.9465 27.3302 28.9465C26.7906 28.9465 26.3356 28.7394 26.1458 28.4502C25.9562 28.7394 25.4976 28.9465 24.9618 28.9465C24.42 28.9465 23.9636 28.7374 23.7756 28.4502H23.7696C23.584 28.7374 23.125 28.9465 22.5874 28.9465C22.048 28.9465 21.5912 28.7394 21.4054 28.4502C21.2154 28.7394 20.7506 28.9465 20.2178 28.9465C19.677 28.9465 19.2194 28.7374 19.031 28.4502H19.0354C18.8446 28.7374 18.387 28.9465 17.8508 28.9465C17.3106 28.9465 16.85 28.7394 16.6618 28.4502C16.4746 28.7394 16.012 28.9465 15.4752 28.9465C14.9398 28.9465 14.4792 28.7374 14.292 28.4502H14.287C14.1022 28.7374 13.6408 28.9465 13.107 28.9465C12.565 28.9465 12.1078 28.7394 11.9178 28.4502V28.4595C11.7294 28.7506 11.2708 28.9465 10.7386 28.9465C10.194 28.9465 9.7362 28.7374 9.5516 28.4502V27.7294C9.7362 28.0205 10.194 28.2293 10.7386 28.2293C11.2708 28.2293 11.7294 28.0242 11.9178 27.7329C12.1078 28.0242 12.565 28.2293 13.107 28.2293C13.6408 28.2293 14.1022 28.0205 14.287 27.7294H14.292C14.4792 28.0205 14.9398 28.2293 15.4752 28.2293C16.012 28.2293 16.4746 28.0242 16.6618 27.7329C16.85 28.0242 17.3106 28.2293 17.8508 28.2293C18.387 28.2293 18.8446 28.0205 19.0354 27.7294H19.031C19.2194 28.0205 19.677 28.2293 20.2178 28.2293C20.751 28.2293 21.2154 28.0242 21.4054 27.7329C21.591 28.0242 22.0478 28.2293 22.5874 28.2293C23.1252 28.2293 23.584 28.0205 23.7696 27.7294H23.7756C23.9636 28.0205 24.42 28.2293 24.9618 28.2293C25.4976 28.2293 25.9562 28.0242 26.1458 27.7329C26.3356 28.0242 26.7906 28.2293 27.3302 28.2293C27.8698 28.2293 28.3302 28.0205 28.5182 27.7294C28.7018 28.0205 29.1646 28.2293 29.7062 28.2293C30.24 28.2293 30.7004 28.0242 30.8884 27.7329V28.4502Z" fill="#00AEEF"/>
<path d="M30.8884 27.1521C30.7004 27.4416 30.2398 27.645 29.7062 27.645C29.1646 27.645 28.7016 27.4397 28.5182 27.1521C28.3302 27.4397 27.8696 27.645 27.3302 27.645C26.7906 27.645 26.3356 27.4416 26.1458 27.1521C25.9562 27.4416 25.4976 27.645 24.9618 27.645C24.42 27.645 23.9636 27.4397 23.7756 27.1521H23.7696C23.584 27.4397 23.125 27.645 22.5874 27.645C22.048 27.645 21.5912 27.4416 21.4054 27.1521C21.2154 27.4416 20.7506 27.645 20.2178 27.645C19.677 27.645 19.2194 27.4397 19.031 27.1521H19.0354C18.8446 27.4397 18.387 27.645 17.8508 27.645C17.3106 27.645 16.85 27.4416 16.6618 27.1521C16.4746 27.4416 16.012 27.645 15.4752 27.645C14.9398 27.645 14.4792 27.4397 14.292 27.1521H14.287C14.1022 27.4397 13.6408 27.645 13.107 27.645C12.565 27.645 12.1078 27.4416 11.9178 27.1521V27.1594C11.7294 27.4511 11.2708 27.645 10.7386 27.645C10.194 27.645 9.7362 27.4397 9.5516 27.1521V26.4316C9.7362 26.721 10.194 26.93 10.7386 26.93C11.2708 26.93 11.7294 26.7266 11.9178 26.4332C12.1078 26.7266 12.565 26.93 13.107 26.93C13.6408 26.93 14.1022 26.721 14.287 26.4316H14.292C14.4792 26.721 14.9398 26.93 15.4752 26.93C16.012 26.93 16.4746 26.7266 16.6618 26.4332C16.85 26.7266 17.3106 26.93 17.8508 26.93C18.387 26.93 18.8446 26.721 19.0354 26.4316H19.031C19.2194 26.721 19.677 26.93 20.2178 26.93C20.751 26.93 21.2154 26.7266 21.4054 26.4332C21.591 26.7266 22.0478 26.93 22.5874 26.93C23.1252 26.93 23.584 26.721 23.7696 26.4316H23.7756C23.9636 26.721 24.42 26.93 24.9618 26.93C25.4976 26.93 25.9562 26.7266 26.1458 26.4332C26.3356 26.7266 26.7906 26.93 27.3302 26.93C27.8698 26.93 28.3302 26.721 28.5182 26.4316C28.7018 26.721 29.1646 26.93 29.7062 26.93C30.24 26.93 30.7004 26.7266 30.8884 26.4332V27.1521Z" fill="#00AEEF"/>
<path d="M21.7868 35.6842C21.7868 35.6842 22.8328 37.2692 22.2832 36.8228C21.8818 36.4873 21.3322 35.7147 20.9348 35.0784L18.7886 35.8873C18.7886 35.8873 17.5568 37.3403 17.8298 36.6983C18.0264 36.2342 18.6342 35.4812 19.1354 34.9114L17.6656 33.1903C17.6656 33.1903 15.8578 32.5081 16.5744 32.5597C17.0434 32.5942 18.0216 32.9353 18.7266 33.2117L19.9506 31.3215C19.9506 31.3215 20.0656 29.441 20.2366 30.1176C20.3548 30.5815 20.3174 31.586 20.2604 32.3293L22.5048 32.8587C22.5048 32.8587 24.3824 32.3815 23.77 32.7476C23.3408 33.008 22.4036 33.2803 21.6566 33.4548L21.7868 35.6842Z" fill="#211E1F"/>
<path d="M20.0768 35.2644C20.09 35.2948 20.1138 35.3161 20.1408 35.3161C20.166 35.3161 20.1852 35.295 20.202 35.2644C20.2256 35.2106 20.2474 35.0844 20.2392 34.8216C20.2392 34.8216 20.253 33.9338 20.937 34.8868C22.8522 37.5645 20.1242 37.5798 20.1242 37.5798H20.1504C20.1504 37.5798 17.4218 37.5645 19.3398 34.8868C20.0238 33.9338 20.032 34.8216 20.032 34.8216C20.0298 35.0842 20.0466 35.2105 20.077 35.2682V35.2644" fill="white"/>
<path d="M18.6736 34.1912C18.6486 34.2137 18.6372 34.2389 18.6482 34.2598C18.6544 34.2848 18.6786 34.304 18.714 34.304H18.7122C18.776 34.3079 18.9014 34.2961 19.16 34.2084C19.16 34.2084 20.036 33.9478 19.313 34.866C17.276 37.4613 16.4238 34.956 16.4238 34.956V34.9733C16.4238 34.9733 15.6016 32.4524 18.8186 33.3938C19.9674 33.7254 19.0948 34.0149 19.0948 34.0149C18.831 34.0892 18.7182 34.1468 18.6736 34.1912Z" fill="white"/>
<path d="M19.2862 32.5576C19.259 32.5407 19.2282 32.5407 19.2076 32.5576C19.1858 32.5709 19.1798 32.5981 19.1858 32.6289V32.6266C19.199 32.6902 19.252 32.8052 19.425 33.0119C19.425 33.0119 19.949 33.7366 18.8186 33.355C15.6474 32.2818 17.8418 30.7172 17.8418 30.7172L17.8256 30.725C17.8256 30.725 20.0362 29.1858 20.1142 32.4464C20.1408 33.6079 19.588 32.8909 19.588 32.8909C19.4358 32.6764 19.342 32.5884 19.2862 32.5576Z" fill="white"/>
<path d="M21.0852 32.6229C21.091 32.594 21.0852 32.5638 21.0654 32.5482C21.0456 32.5384 21.014 32.5407 20.9842 32.5576C20.9306 32.583 20.8358 32.6671 20.6796 32.8896C20.6796 32.8896 20.1314 33.6005 20.1562 32.4429C20.2336 29.1842 22.445 30.7234 22.445 30.7234L22.4292 30.712C22.4292 30.712 24.6256 32.2762 21.4466 33.3517C20.3212 33.7329 20.8496 33.0084 20.8496 33.0084C21.016 32.7974 21.0752 32.6863 21.0852 32.6229Z" fill="white"/>
<path d="M21.5752 34.304C21.6066 34.3019 21.6346 34.2848 21.6404 34.2598C21.6524 34.2389 21.6366 34.2137 21.6128 34.191C21.5654 34.1468 21.4524 34.0855 21.1896 34.0145C21.1896 34.0145 20.3212 33.725 21.4644 33.3934C24.689 32.4521 23.8624 34.9729 23.8624 34.9729L23.8664 34.9556C23.8664 34.9556 23.0104 37.461 20.9764 34.8657C20.2472 33.9472 21.1244 34.2081 21.1244 34.2081C21.3834 34.2961 21.5142 34.3079 21.5752 34.304Z" fill="white"/>
<path d="M18.269 31.3001C18.269 31.3001 18.0642 31.438 17.8862 31.4937C17.709 31.5433 17.6324 31.6738 17.61 31.7049C17.61 31.7049 17.5086 31.9308 17.4438 31.8389C17.3746 31.7483 17.5126 31.578 17.5126 31.578C17.533 31.5433 17.6152 31.4188 17.787 31.3597C17.964 31.31 18.1686 31.1741 18.1686 31.1741C18.1686 31.1735 18.369 31.0224 18.4756 30.8784C18.5846 30.7312 18.7316 30.6986 18.7728 30.6924C18.7728 30.6924 18.9806 30.6199 19.0532 30.7081C19.1206 30.8021 18.8704 30.8192 18.8704 30.8192C18.828 30.8347 18.6786 30.8652 18.5718 31.0073C18.4682 31.1528 18.269 31.3001 18.269 31.3001Z" fill="#211E1F"/>
<path d="M21.9984 31.2982C21.9984 31.2982 21.8028 31.151 21.6996 31.003C21.591 30.8594 21.4408 30.8268 21.4052 30.8132C21.4052 30.8132 21.15 30.7959 21.2172 30.704C21.2882 30.6138 21.498 30.6885 21.498 30.6885C21.539 30.6943 21.6896 30.7271 21.7926 30.8743C21.9012 31.018 22.0988 31.1739 22.0988 31.1739C22.0988 31.1735 22.3084 31.306 22.4824 31.3575C22.6544 31.4134 22.7336 31.5379 22.7534 31.5707C22.7534 31.5707 22.8918 31.745 22.8266 31.8369C22.7596 31.929 22.6626 31.7027 22.6626 31.7027C22.6366 31.6682 22.5598 31.5418 22.382 31.4904C22.2098 31.4343 21.9984 31.2982 21.9984 31.2982Z" fill="#211E1F"/>
<path d="M23.1586 34.739C23.1586 34.739 23.246 34.5131 23.3522 34.3675C23.4694 34.2296 23.4474 34.076 23.4454 34.0395C23.4454 34.0395 23.3904 33.8 23.4992 33.8365C23.6076 33.873 23.6038 34.0859 23.6038 34.0859C23.6038 34.1258 23.6216 34.2753 23.513 34.419C23.398 34.561 23.3132 34.7908 23.3132 34.7908C23.3132 34.7908 23.248 35.0251 23.2518 35.1992C23.2518 35.3792 23.1472 35.4887 23.1252 35.5231C23.1252 35.5231 22.9946 35.7015 22.8882 35.6689C22.7734 35.6342 22.969 35.4732 22.969 35.4732C22.9908 35.4406 23.0958 35.326 23.0896 35.1534C23.0894 34.9748 23.1586 34.739 23.1586 34.739Z" fill="#211E1F"/>
<path d="M20.1408 36.8612C20.1408 36.8612 20.3926 36.8705 20.5648 36.9282C20.7392 36.9837 20.8776 36.9244 20.9172 36.911C20.9172 36.911 21.1306 36.7826 21.1286 36.8978C21.1286 37.0029 20.9172 37.0721 20.9172 37.0721C20.8776 37.0838 20.7392 37.1466 20.5648 37.0875C20.3926 37.0301 20.1408 37.0186 20.1408 37.0186C20.1408 37.0186 19.8848 37.0303 19.7134 37.0875C19.5396 37.1466 19.4028 37.0838 19.3592 37.0721C19.3592 37.0721 19.1442 37.0029 19.1442 36.8978C19.1434 36.7826 19.3592 36.911 19.3592 36.911C19.4028 36.9244 19.5396 36.9837 19.7134 36.9282C19.8848 36.8705 20.1408 36.8612 20.1408 36.8612Z" fill="#211E1F"/>
<path d="M17.1274 34.739C17.1274 34.739 17.198 34.9748 17.1948 35.1534C17.1948 35.3332 17.2944 35.4406 17.3212 35.4732C17.3212 35.4732 17.5126 35.6342 17.4034 35.6689C17.2944 35.7015 17.1632 35.5231 17.1632 35.5231C17.1376 35.4885 17.038 35.3792 17.038 35.1992C17.0388 35.0249 16.9736 34.7908 16.9736 34.7908C16.9736 34.7908 16.8874 34.561 16.7748 34.419C16.6678 34.2753 16.683 34.1258 16.683 34.0859C16.683 34.0859 16.683 33.873 16.79 33.8365C16.8956 33.8 16.8384 34.0395 16.8384 34.0395C16.8346 34.076 16.8204 34.2296 16.934 34.3675C17.0432 34.5127 17.1274 34.739 17.1274 34.739Z" fill="#211E1F"/>
<path d="M20.1244 33.1865C19.7882 33.1865 19.5128 33.4547 19.5128 33.7828C19.5128 34.1183 19.7882 34.3789 20.1244 34.3789C20.4676 34.3789 20.743 34.1183 20.743 33.7828C20.743 33.4548 20.4676 33.1865 20.1244 33.1865Z" fill="#FFC40D"/>
<path d="M21.2886 22.3817L21.3698 23.9913L22.7732 23.1076L23.214 23.8055L21.5592 24.7331V25.0689C21.5592 25.0689 23.4846 26.1173 21.138 26.0768L21.1384 26.0886C20.3172 26.7536 19.5394 26.096 19.5394 26.096C17.193 26.1359 19.116 25.0914 19.116 25.0914V24.7542L17.6528 23.6519L17.9996 22.9233L19.3082 24.0087L19.3844 22.4019L21.2886 22.3817Z" fill="#211E1F"/>
<path d="M23.036 23.7613C24.3962 25.2702 25.3944 23.6818 25.3944 23.6818C27.1124 23.2773 26.0926 22.098 26.0926 22.098C27.8834 20.9595 25.78 20.066 25.78 20.066C25.7662 18.553 24.4376 18.6659 24.4376 18.6659C23.0496 17.4899 21.7234 18.7953 21.7234 18.7953C19.6432 17.1162 18.064 19.0536 18.064 19.0536C18.064 19.0536 16.735 18.1603 16.1382 19.5603C16.1382 19.5603 14.022 19.5031 14.8122 21.5746C14.8122 21.5746 13.1768 23.1619 15.3114 23.9436C15.3114 23.9436 16.4464 25.9812 18.0064 24.0413C18.0064 24.0413 18.9652 24.0968 18.8144 22.7866C18.8144 22.7866 20.0296 23.2773 21.1796 22.7331C21.1796 22.7327 21.5474 23.5352 22.338 23.086C22.338 23.086 22.2158 23.6021 22.9804 23.7078L23.036 23.7613Z" fill="#22B24C"/>
<path d="M4.8346 36.7537L4.9358 36.8359C4.5872 37.4495 4.5378 37.8827 4.781 38.0842C4.956 38.2336 5.1872 38.1721 5.3988 37.9403C5.4894 37.8407 5.549 37.7257 5.549 37.6374C5.549 37.5092 5.4506 37.3654 5.3416 37.1487C5.1318 36.7345 5.1408 36.4012 5.5134 35.9832C5.887 35.5694 6.375 35.4315 6.685 35.6902C6.8192 35.807 6.8894 35.9701 6.9024 36.1807L7.1434 36.1097L7.2274 36.1807L6.4832 37.0584L6.3944 36.974C6.6858 36.3897 6.748 36.0387 6.5286 35.8584C6.3616 35.7127 6.1432 35.7629 5.9498 35.9794C5.7062 36.2497 5.8464 36.407 6.0314 36.7421C6.1282 36.9282 6.2048 37.0719 6.1654 37.2926C6.1288 37.4902 6.0068 37.7181 5.811 37.9405C5.4052 38.3871 4.9416 38.5233 4.614 38.2471C4.4518 38.1054 4.3766 37.9384 4.3866 37.6838L4.0926 37.7792L4.0072 37.7067L4.8346 36.7537Z" fill="#FFC20E"/>
<path d="M7.6268 37.0547C7.966 36.8995 8.2476 36.9052 8.4996 37.0719C8.7536 37.2445 8.86 37.492 8.8234 37.8711C8.794 38.2049 8.6332 38.5844 8.3634 38.9617C8.0926 39.3374 7.8294 39.5811 7.4942 39.7322C7.1362 39.8953 6.8282 39.8972 6.5906 39.7322C6.3448 39.5695 6.242 39.3124 6.2768 38.9235C6.3082 38.5553 6.4496 38.2295 6.7232 37.8517C6.9962 37.4708 7.3104 37.1964 7.6268 37.0547ZM6.7254 39.5389C6.9894 39.7152 7.3832 39.4241 7.9294 38.6648C8.477 37.9 8.622 37.4478 8.358 37.2655C8.0962 37.0911 7.7068 37.3805 7.1584 38.1436C6.6118 38.9042 6.4598 39.3608 6.7254 39.5389Z" fill="#FFC20E"/>
<path d="M10.3718 38.5365L10.2548 38.475C10.1514 38.4232 10.1098 38.4634 10.027 38.6148L9.2678 39.9911C8.9942 40.486 8.982 40.779 9.2768 40.9287C9.4096 40.9935 9.5484 40.9879 9.671 40.9287C9.8648 40.8232 9.9942 40.6086 10.183 40.2671L10.7324 39.2742C10.8894 38.9848 10.9212 38.82 10.7212 38.7184C10.7194 38.7147 10.709 38.7126 10.7068 38.7112L10.8136 38.5118L11.458 38.8471L11.349 39.0407C11.1476 38.9718 11.042 39.0713 10.8854 39.3548L10.3194 40.3784C10.1564 40.6776 10.029 40.8998 9.8398 41.0569C9.5582 41.2871 9.2822 41.3176 8.982 41.1547C8.521 40.919 8.462 40.4897 8.7882 39.8841L9.6086 38.4003C9.6918 38.2469 9.6976 38.189 9.5988 38.1378L9.4822 38.0763L9.588 37.8787L10.4794 38.3389L10.3718 38.5365Z" fill="#FFC20E"/>
<path d="M12.8488 39.6079C12.7582 39.5751 12.7124 39.6116 12.6482 39.765L11.805 41.8332C11.7378 41.9903 11.7378 42.0481 11.8424 42.0902L11.969 42.14L11.882 42.3488L10.946 41.9885L11.032 41.7758L11.1556 41.8254C11.2618 41.8658 11.296 41.8254 11.3642 41.6627L12.2132 39.5982C12.274 39.4429 12.274 39.3894 12.1866 39.3546C11.9938 39.2759 11.7042 39.5367 11.4244 40.0929L11.296 40.0487L11.7794 38.9788L13.4034 39.604L12.9976 40.7005L12.8786 40.658C13.066 40.0662 13.042 39.6806 12.8488 39.6079Z" fill="#FFC20E"/>
<path d="M14.2452 42.8284C14.3532 42.8608 14.3854 42.8131 14.4308 42.6481L14.702 41.6722L14.0238 41.496L13.7568 42.4679C13.709 42.6328 13.7142 42.6867 13.8232 42.7169L13.9538 42.7534L13.8904 42.9702L12.918 42.7167L12.9784 42.4982L13.1086 42.5271C13.2186 42.5596 13.2494 42.5156 13.295 42.3488L13.8832 40.2327C13.9332 40.066 13.93 40.0066 13.8172 39.9756L13.6878 39.943L13.7508 39.7283L14.7224 39.9855L14.6616 40.2002L14.534 40.1652C14.4246 40.1348 14.3922 40.1846 14.3418 40.3514L14.101 41.2311L14.7802 41.4075L15.0218 40.5275C15.0708 40.3648 15.0662 40.3016 14.956 40.2725L14.8286 40.2401L14.886 40.0239L15.86 40.2845L15.8034 40.4971L15.6698 40.4623C15.5612 40.4334 15.5298 40.4835 15.4814 40.6503L14.8944 42.7666C14.847 42.9333 14.8518 42.9873 14.9628 43.0138L15.0898 43.0522L15.032 43.2671L14.0512 43.0138L14.1168 42.7933L14.2452 42.8284Z" fill="#FFC20E"/>
<path d="M16.8204 43.3322L16.9538 43.3398C17.0112 43.3437 17.0328 43.315 17.043 43.2516C17.0462 43.2211 17.0462 43.1827 17.043 43.1311L16.9976 42.6364L16.3258 42.5424L16.2302 42.7588C16.2002 42.828 16.1756 42.912 16.17 42.97C16.1384 43.1616 16.2104 43.2343 16.4032 43.2747L16.371 43.4934L15.6254 43.3881L15.6596 43.1674C15.828 43.1484 15.9386 42.9737 16.0818 42.6481L17.0502 40.4168L17.2454 40.4457L17.5586 43.2541C17.5724 43.3881 17.6084 43.4399 17.7048 43.4569L17.6714 43.6811L16.7902 43.5545L16.8204 43.3322ZM16.4366 42.2858L16.9736 42.3665L16.8678 41.2966L16.4366 42.2858Z" fill="#FFC20E"/>
<path d="M18.7808 42.9834C18.7666 43.3803 18.8186 43.5281 19.0668 43.5392L19.0612 43.7674L18.2992 43.7463V43.5182C18.5374 43.5087 18.5848 43.3629 18.5956 42.9758L18.6436 41.1184C18.6488 40.9534 18.6312 40.8884 18.517 40.8804L18.3772 40.8787L18.387 40.6541L19.2426 40.6772L19.6134 42.5348L20.0466 40.6945L20.8894 40.7139L20.8816 40.94L20.749 40.9307C20.638 40.9307 20.614 40.984 20.6112 41.1547L20.558 43.3495C20.552 43.5221 20.5706 43.5756 20.684 43.5756L20.8204 43.5776L20.8128 43.8039L19.8244 43.7827L19.832 43.5584H19.9474C20.0592 43.5622 20.0842 43.5087 20.0906 43.3398L20.1508 41.0243L19.5004 43.7771L19.371 43.7748L18.8284 41.009L18.7808 42.9834Z" fill="#FFC20E"/>
<path d="M22.376 43.4569L22.5438 43.4436L22.5656 43.666L21.5218 43.7676L21.4982 43.5394L21.6404 43.5279C21.755 43.5141 21.767 43.4645 21.753 43.2919L21.5338 41.1126C21.5218 40.9421 21.494 40.8884 21.3814 40.896L21.2412 40.9119L21.215 40.6873L22.3756 40.5799C22.858 40.5337 23.1328 40.8137 23.1902 41.3852C23.2532 41.9945 22.9906 42.2992 22.4012 42.3547C22.3222 42.3663 22.2356 42.3682 22.1344 42.3739L22.2254 43.2502C22.2434 43.4263 22.2692 43.4645 22.376 43.4569ZM22.1168 42.1326C22.1468 42.14 22.188 42.14 22.2474 42.1326C22.6054 42.102 22.7358 41.9466 22.6846 41.4364C22.637 40.9402 22.5006 40.7928 22.1882 40.8196C22.018 40.8366 21.9926 40.8694 22.0102 41.1071L22.1168 42.1326Z" fill="#FFC20E"/>
<path d="M24.7304 40.4108C24.6354 40.4263 24.6258 40.48 24.661 40.6431L25.1216 42.8263C25.1592 42.9933 25.1892 43.0371 25.3016 43.014L25.43 42.9909L25.4756 43.2138L24.493 43.4092L24.4436 43.1907L24.5742 43.1618C24.6868 43.1406 24.6926 43.0831 24.6612 42.9165L24.1946 40.7389C24.159 40.5779 24.1276 40.5277 24.0344 40.5471C23.8286 40.5894 23.7356 40.9633 23.815 41.5766L23.6864 41.5995L23.4848 40.4552L25.1928 40.1084L25.4814 41.2431L25.3532 41.2679C25.1734 40.6774 24.9382 40.3652 24.7304 40.4108Z" fill="#FFC20E"/>
<path d="M25.9756 40.302C26.0548 39.9508 26.2288 39.7305 26.5214 39.6424C26.816 39.5466 27.0868 39.6174 27.3754 39.8703C27.6324 40.0966 27.8438 40.4493 27.9922 40.8826C28.1426 41.3195 28.1762 41.6721 28.105 42.0233C28.0238 42.3987 27.8382 42.6347 27.5554 42.7229C27.2708 42.8133 27.004 42.7361 26.7052 42.4755C26.4228 42.2319 26.2386 41.9273 26.0928 41.4867C25.9442 41.0457 25.9048 40.6371 25.9756 40.302ZM27.4822 42.4984C27.785 42.4047 27.785 41.9236 27.4882 41.0437C27.1916 40.16 26.907 39.7712 26.5948 39.8689C26.2962 39.9643 26.2962 40.4418 26.5908 41.3257C26.891 42.2071 27.1778 42.5982 27.4822 42.4984Z" fill="#FFC20E"/>
<path d="M29.0834 41.8908C29.2872 41.7626 29.2614 41.6168 29.0972 41.2776L28.2908 39.5885L28.2076 39.5315C28.1226 39.47 28.0612 39.4299 27.9644 39.4756L27.9368 39.4888L27.8362 39.2895L28.445 39.0155L30.1982 40.3499L29.6944 39.3013C29.5144 38.9237 29.4094 38.8279 29.1702 38.9352L29.0754 38.7283L29.7774 38.412L29.876 38.6148C29.6784 38.7222 29.6942 38.8623 29.8662 39.2245L30.8962 41.3674L30.7438 41.4364L28.5754 39.7786L29.2534 41.2086C29.4232 41.5669 29.5422 41.6721 29.7712 41.5803L29.874 41.7816L29.1822 42.0938L29.0834 41.8908Z" fill="#FFC20E"/>
<path d="M33.0826 37.691L32.9758 37.7639C32.5092 37.275 32.2268 37.1891 31.8924 37.4111C31.764 37.4955 31.7406 37.5302 31.867 37.7121L32.3966 38.4655C32.4108 38.4597 32.4226 38.4541 32.4322 38.4463C32.628 38.3158 32.6084 38.1224 32.3948 37.7466L32.5016 37.6737L33.3302 38.8469L33.2192 38.9218C32.9366 38.5863 32.7606 38.5097 32.567 38.634C32.5568 38.642 32.5454 38.6513 32.5392 38.6552L33.1364 39.5082C33.2374 39.6502 33.2786 39.6806 33.3754 39.6195L33.5316 39.5142L33.662 39.702L32.7866 40.2849L32.656 40.0968L32.7646 40.0221C32.8634 39.9628 32.8454 39.905 32.7488 39.7652L31.4716 37.9537C31.3728 37.8102 31.3232 37.7774 31.2304 37.8407L31.116 37.9132L30.9874 37.7315L32.4164 36.7824L33.0826 37.691Z" fill="#FFC20E"/>
<path d="M35.6506 38.3218C35.4766 38.4655 35.255 38.5115 34.9964 38.4636C34.603 38.3868 34.1936 38.1203 33.82 37.6948C33.5278 37.3652 33.3394 37.0182 33.2624 36.6847C33.1734 36.3087 33.2544 36.0387 33.49 35.8411C33.6362 35.7183 33.8062 35.6763 34.0278 35.7143L33.9882 35.4536L34.073 35.3831L34.9408 36.303L34.8476 36.4046C34.2842 35.9386 33.8852 35.8006 33.6616 35.9829C33.395 36.207 33.5728 36.6269 34.2054 37.3399C34.8402 38.0627 35.2274 38.2908 35.5258 38.0454C35.7492 37.8556 35.702 37.4897 35.37 36.9624L35.532 36.9319C35.9572 37.549 35.9946 38.0379 35.6506 38.3218Z" fill="#FFC20E"/>
<path d="M1.6078 12.3061L2.1128 13.3188L0.694 13.6944L1.1366 14.5504L2.5592 14.1738L3.0034 15.0306L1.5796 15.4045L2.0184 16.2564L3.4448 15.8835L3.8932 16.7404L2.4594 17.1104L2.9052 17.962L4.3354 17.5954L4.972 18.7819C5.2404 18.7082 5.5068 18.6199 5.7598 18.5166L2.4328 12.0786C2.1914 12.1774 1.9176 12.2551 1.6078 12.3061Z" fill="white"/>
<path d="M5.5116 12.6622C5.4128 12.2061 6.4834 11.6613 7.343 10.9899L6.205 8.78172C5.7556 9.02044 5.2556 9.39317 4.7574 9.93713C4.624 10.0705 4.5064 10.2108 4.3932 10.3502L5.5116 12.6622Z" fill="white"/>
<path d="M8.062 8.73576C7.786 8.37137 7.0764 8.3227 6.205 8.78172L7.343 10.9899C8.132 10.3649 8.7402 9.62723 8.062 8.73576Z" fill="#ED1A3B"/>
<path d="M2.4326 12.0786L5.7596 18.5164C6.6918 18.1417 7.4606 17.6117 7.72 17.22L5.577 12.7987C5.5402 12.7523 5.5216 12.7101 5.5116 12.6622L4.393 10.3502C3.8332 11.0254 3.349 11.6986 2.4326 12.0786Z" fill="#ED1A3B"/>
<path d="M1.6078 12.3061C1.1596 12.3804 0.638001 12.4002 0.000201416 12.3492L0.694 13.6944L2.1128 13.3188L1.6078 12.3061Z" fill="#ED1A3B"/>
<path d="M2.559 14.1738L1.1366 14.5504L1.5796 15.4045L3.0034 15.0306L2.559 14.1738Z" fill="#ED1A3B"/>
<path d="M3.4448 15.8835L2.0184 16.2564L2.4594 17.1104L3.893 16.7404L3.4448 15.8835Z" fill="#ED1A3B"/>
<path d="M2.9052 17.962L3.4244 18.9777C3.9258 19.0043 4.456 18.9238 4.9718 18.7819L4.3354 17.5954L2.9052 17.962Z" fill="#ED1A3B"/>
<path d="M7.3224 11.007L7.954 12.2297C8.4032 11.8636 8.8822 11.4278 9.3932 11.0128L8.2098 8.96362C8.636 9.76007 8.0548 10.4305 7.3224 11.007Z" fill="white"/>
<path d="M5.577 12.7989C5.6092 12.8458 5.6574 12.8861 5.722 12.9282C6.3586 13.3638 7.1058 12.9195 7.9538 12.2297L7.3224 11.007C6.3826 11.7416 5.1898 12.3181 5.577 12.7989Z" fill="#ED1A3B"/>
<path d="M38.3928 12.3061L37.8868 13.3188L39.3002 13.6944L38.8612 14.5504L37.438 14.1738L36.9952 15.0306L38.4186 15.4045L37.9796 16.2564L36.5542 15.8835L36.1076 16.7404L37.537 17.1104L37.0938 17.962L35.6626 17.5954L35.026 18.7819C34.7592 18.7082 34.4924 18.6199 34.2394 18.5166L37.5662 12.0786C37.8094 12.1774 38.0764 12.2551 38.3928 12.3061Z" fill="white"/>
<path d="M34.4864 12.6622C34.5832 12.2061 33.5138 11.6613 32.656 10.9899L33.7948 8.78172C34.2414 9.02044 34.7396 9.39317 35.2476 9.93713C35.3722 10.0705 35.4906 10.2108 35.6074 10.3502L34.4864 12.6622Z" fill="white"/>
<path d="M31.9322 8.73576C32.211 8.37137 32.9206 8.3227 33.7946 8.78172L32.6558 10.9899C31.8652 10.3649 31.2558 9.62723 31.9322 8.73576Z" fill="#ED1A3B"/>
<path d="M37.5662 12.0786L34.2394 18.5164C33.31 18.1417 32.5392 17.6117 32.2782 17.22L34.4212 12.7989C34.4586 12.7523 34.4764 12.7101 34.4862 12.6622L35.6072 10.35C36.1686 11.0254 36.6472 11.6986 37.5662 12.0786Z" fill="#ED1A3B"/>
<path d="M38.3928 12.3061C38.8376 12.3804 39.3634 12.4002 40 12.3492L39.3002 13.6944L37.8868 13.3188L38.3928 12.3061Z" fill="#ED1A3B"/>
<path d="M37.4378 14.1738L38.8612 14.5504L38.4186 15.4045L36.995 15.0306L37.4378 14.1738Z" fill="#ED1A3B"/>
<path d="M36.5542 15.8835L37.9794 16.2564L37.5368 17.1104L36.1074 16.7404L36.5542 15.8835Z" fill="#ED1A3B"/>
<path d="M37.0936 17.962L36.572 18.9777C36.0738 19.0043 35.5402 18.9238 35.026 18.7819L35.6626 17.5954L37.0936 17.962Z" fill="#ED1A3B"/>
<path d="M32.6736 11.007L32.043 12.2297C31.5946 11.8636 31.112 11.4278 30.6078 11.0128L31.788 8.96362C31.361 9.76007 31.944 10.4305 32.6736 11.007Z" fill="white"/>
<path d="M34.4212 12.7989C34.3856 12.8458 34.336 12.8861 34.2768 12.9282C33.6362 13.3638 32.895 12.9195 32.043 12.2297L32.6736 11.007C33.6146 11.7416 34.8048 12.3181 34.4212 12.7989Z" fill="#ED1A3B"/>
<path d="M24.2776 10.7914C23.9712 11.0303 23.4396 11.3766 22.8464 11.7259V16.3115C23.5146 15.9182 24.1946 15.496 24.837 15.1601V10.4072C24.6158 10.5493 24.42 10.6812 24.2776 10.7914Z" fill="white"/>
<path d="M27.4662 9.54637C27.4388 9.54637 27.411 9.55316 27.3832 9.55316L26.7072 14.5074C26.733 14.5064 26.7624 14.4996 26.7904 14.4996C27.344 14.4996 27.8576 14.6805 28.3418 14.9452L29.8546 10.4437C29.1134 9.92976 28.3166 9.54637 27.4662 9.54637Z" fill="white"/>
<path d="M34.2768 12.9282C33.6442 13.358 32.9028 12.9282 32.0646 12.2472L30.0956 16.2349C30.8964 16.906 31.608 17.4607 32.2762 17.2161L34.4212 12.7987C34.3856 12.8458 34.336 12.8861 34.2768 12.9282Z" fill="white"/>
<path d="M5.722 12.9282C5.6574 12.8861 5.6092 12.8458 5.577 12.7989L7.72 17.2163C8.3944 17.4609 9.1036 16.9062 9.904 16.2349L7.9318 12.2472C7.0906 12.9282 6.3546 13.358 5.722 12.9282Z" fill="white"/>
<path d="M19.9998 12.917C19.8026 12.917 19.5394 12.852 19.2424 12.7485V17.3616C19.5168 17.4545 19.7706 17.5103 19.9998 17.5103C20.2256 17.5103 20.4814 17.4545 20.7528 17.3616V12.7485C20.4606 12.852 20.1948 12.917 19.9998 12.917Z" fill="white"/>
<path d="M12.53 9.54637C11.6824 9.54637 10.8864 9.92976 10.1454 10.4437L11.6598 14.9452C12.1392 14.6803 12.6536 14.4994 13.2092 14.4994C13.2344 14.4994 13.263 14.5064 13.2892 14.5072L12.6148 9.55296C12.5866 9.55315 12.56 9.54637 12.53 9.54637Z" fill="white"/>
<path d="M15.7192 10.7914C15.577 10.6814 15.3882 10.5493 15.1626 10.4074V15.1601C15.8062 15.4962 16.4862 15.9182 17.1504 16.3115V11.7259C16.5554 11.3764 16.0238 11.0301 15.7192 10.7914Z" fill="white"/>
<path d="M17.1504 11.7259V16.3115C17.8952 16.7519 18.6234 17.1562 19.2426 17.3616V12.7485C18.6234 12.5328 17.8418 12.1316 17.1504 11.7259Z" fill="#ED1A3B"/>
<path d="M12.6148 9.55316L13.289 14.5074C13.8172 14.532 14.464 14.7946 15.1626 15.1601V10.4072C14.5224 10.0133 13.598 9.57953 12.6148 9.55316Z" fill="#ED1A3B"/>
<path d="M7.9318 12.2472L9.904 16.2349C10.4408 15.7842 11.0176 15.2906 11.6598 14.9452L10.1454 10.4437C9.3438 10.9969 8.605 11.7017 7.9318 12.2472Z" fill="#ED1A3B"/>
<path d="M20.7528 12.7485V17.3616C21.3754 17.1562 22.101 16.7521 22.8464 16.3115V11.7259C22.1586 12.1316 21.3774 12.5328 20.7528 12.7485Z" fill="#ED1A3B"/>
<path d="M24.8372 10.4072V15.1599C25.535 14.7946 26.1796 14.532 26.7072 14.5072L27.3834 9.55296C26.4008 9.57953 25.4778 10.0133 24.8372 10.4072Z" fill="#ED1A3B"/>
<path d="M29.8546 10.4437L28.3418 14.9452C28.9786 15.2906 29.5558 15.7842 30.0954 16.2349L32.0644 12.2472C31.3944 11.7015 30.6572 10.9969 29.8546 10.4437Z" fill="#ED1A3B"/>
<path d="M20.0734 8.4088C24.4952 8.4088 28.0794 6.52462 28.0794 4.20527C28.0794 1.8834 24.4952 0 20.0734 0C15.6536 0 12.0666 1.8834 12.0666 4.20527C12.0666 6.52462 15.6534 8.4088 20.0734 8.4088Z" fill="#211E1F"/>
<path d="M20.0816 7.7258C24.0086 7.7258 27.1996 6.14996 27.1996 4.20527C27.1996 2.25865 24.0086 0.684946 20.0816 0.684946C16.1454 0.684946 12.9652 2.25865 12.9652 4.20527C12.9654 6.14996 16.1454 7.7258 20.0816 7.7258Z" fill="#FFC20E"/>
<path d="M20.0882 6.8828C23.2852 6.8828 25.885 5.87555 25.885 4.63365C25.885 3.39486 23.2852 2.38877 20.0882 2.38877C16.8876 2.38877 14.292 3.39505 14.292 4.63365C14.292 5.87555 16.8874 6.8828 20.0882 6.8828Z" fill="white"/>
<path d="M20.0684 3.03493C16.9856 3.03493 14.4936 5.45978 14.4936 8.44332C14.4936 11.4325 16.9856 13.8519 20.0684 13.8519H19.9998C23.0758 13.8519 25.5766 11.4325 25.5766 8.44332C25.5766 5.45978 23.0756 3.03493 19.9998 3.03493H20.0684Z" fill="white"/>
<path d="M19.1412 12.9149L17.9936 11.0254L15.8922 10.6925L15.3644 11.3406C15.3882 11.3728 15.4012 11.4073 15.4266 11.4373L15.5176 11.564C16.2214 12.5274 17.2356 13.2579 18.4266 13.6145L18.6412 13.6533L19.1412 12.9149Z" fill="#211E1F"/>
<path d="M17.705 7.69535L18.607 10.3921H21.4588L22.3602 7.69535L20.0298 6.0592L17.705 7.69535Z" fill="#211E1F"/>
<path d="M20.0298 4.96624V4.96236L21.7652 3.863V3.31903C21.2214 3.1414 20.64 3.04153 20.0318 3.03687C19.4298 3.04153 18.8484 3.1414 18.3008 3.31903V3.863L20.0298 4.96624Z" fill="#211E1F"/>
<path d="M16.8164 6.83762L16.8772 4.6928L16.428 4.35382C16.1898 4.5491 15.9712 4.76203 15.7748 4.99455L15.7518 5.01704C15.1174 5.76986 14.6932 6.69043 14.549 7.70136L15.046 7.91332L16.8164 6.83762Z" fill="#211E1F"/>
<path d="M22.0776 11.0254L20.9306 12.9149L21.427 13.6531L21.6348 13.6155C22.8426 13.2562 23.8804 12.5043 24.5862 11.5188L24.6298 11.4532C24.6572 11.4146 24.6794 11.3726 24.705 11.3404L24.173 10.6925L22.0776 11.0254Z" fill="#211E1F"/>
<path d="M23.2536 6.83762L25.019 7.91351L25.517 7.70155C25.3728 6.68655 24.9458 5.76133 24.3056 5.00541L24.3016 5.00463C24.1036 4.76785 23.8764 4.55318 23.6414 4.35401L23.1906 4.693L23.2536 6.83762Z" fill="#211E1F"/>
</svg>
