<svg width="40" height="45" viewBox="0 0 40 45" fill="none" xmlns="http://www.w3.org/2000/svg">
<path d="M39.9975 1.45956V1.45673C33.3765 0.467729 26.6915 -0.0189365 19.9987 0.000563453C13.306 -0.0189365 6.62102 0.467729 0 1.45673L0.000492811 18.3369C0.00444753 32.604 8.18347 40.6278 19.6736 44.8937L20.0002 44.9997L20.0012 45L20.3273 44.8937C31.8177 40.6278 39.9957 32.604 40 18.3369V1.45956H39.9975Z" fill="#2DAFE5"/>
<path d="M38.6163 2.85639V2.85373C32.4526 1.93306 26.2293 1.48006 19.9988 1.49823C13.7684 1.48006 7.54511 1.93306 1.38135 2.85373L1.38184 18.85C1.38547 32.1319 8.99962 39.6017 19.696 43.5728L20.0002 43.6713L20.001 43.6718L20.3047 43.5728C31.0015 39.6017 38.6147 32.1319 38.6187 18.85V2.85639H38.6163Z" fill="#7C2C3B"/>
<path d="M29.1888 36.3437C29.4834 36.6422 29.9553 36.3262 30.439 35.8372C30.9224 35.348 31.2349 34.8708 30.9399 34.5722L12.4776 16.3684C12.1827 16.0697 11.6555 16.1197 11.3001 16.479C10.9448 16.8384 10.8957 17.3715 11.1905 17.6699L29.1888 36.3437Z" fill="#D6A93A"/>
<path d="M13.0502 16.09L14.5603 14.2937C14.5603 14.2937 14.7028 14.1015 14.481 13.8285C13.9331 13.2059 13.3487 12.6172 12.7307 12.0654C12.5622 11.9374 12.4475 11.9685 12.2605 12.1502C11.3359 13.0467 8.98347 15.3462 8.84193 15.4954C8.65523 15.6435 8.57482 15.8924 8.63925 16.1234C8.69643 16.4437 8.86516 16.9764 8.57383 17.4932L6.9842 20.0237C6.78514 20.3325 6.72698 20.6055 6.87726 20.7539C6.95767 20.8335 7.15952 20.9257 7.57016 20.6375C7.76657 20.4999 9.92799 19.028 10.6168 18.455C11.0203 18.1192 11.3283 17.8139 11.3283 17.8139L12.6327 16.5199C12.6327 16.5199 12.9072 16.2472 13.0502 16.09Z" fill="#F8D742"/>
<path d="M7.58054 20.4754C7.12904 20.7847 7.13036 20.83 7.1933 20.8214C7.32957 20.7854 7.45745 20.723 7.57016 20.6375C7.76641 20.4999 9.92799 19.0282 10.6168 18.455C10.9013 18.2185 11.1376 17.997 11.2527 17.8869C10.8608 17.9657 10.4909 18.1309 10.1692 18.3704C9.80028 18.6822 8.22647 20.0324 7.58054 20.4754Z" fill="#D6A93A"/>
<path d="M13.0501 16.09L14.5603 14.2937C14.6152 14.2017 14.6216 14.0879 14.5774 13.9902C14.5331 13.8925 14.453 13.848 14.0177 14.3619C13.6515 14.7935 13.4785 14.962 13.1702 15.335C12.9263 15.671 12.7606 16.0582 12.6848 16.4679C12.7713 16.3814 12.9458 16.205 13.0501 16.09Z" fill="#D6A93A"/>
<path d="M10.8516 36.3437C10.5571 36.6422 10.0852 36.3262 9.60123 35.8372C9.11793 35.348 8.80551 34.8708 9.10047 34.5722L27.5698 16.3614C27.8646 16.0627 28.3918 16.1125 28.7472 16.4719C29.1026 16.8314 29.1517 17.3645 28.8568 17.6627L10.8516 36.3437Z" fill="#D6A93A"/>
<path d="M10.672 36.1642L27.9043 18.2649C28.1993 17.9667 28.1502 17.4335 27.7949 17.0742C27.6252 16.8975 27.3973 16.7895 27.1544 16.7707L9.10047 34.5722C8.81919 34.8568 9.09058 35.3043 9.53581 35.7697C9.97874 36.1927 10.4007 36.4392 10.672 36.1642Z" fill="#F8D742"/>
<path d="M26.9971 16.083L25.4872 14.2865C25.4872 14.2865 25.3446 14.0944 25.5661 13.8215C26.1142 13.1989 26.6986 12.61 27.3164 12.0584C27.4853 11.9304 27.6001 11.9615 27.787 12.1432C28.7114 13.0397 31.0638 15.3392 31.2055 15.4884C31.3922 15.6364 31.4725 15.8852 31.4079 16.1164C31.3509 16.4367 31.1821 16.9692 31.4735 17.4862L33.0633 20.0167C33.2622 20.3254 33.3203 20.5985 33.1702 20.7469C33.0896 20.8264 32.8879 20.9187 32.4773 20.6304C32.2809 20.4927 30.1195 19.021 29.4305 18.4479C29.027 18.1122 28.7192 17.8067 28.7192 17.8067L27.4148 16.5129C27.4148 16.5129 27.1401 16.2402 26.9971 16.083Z" fill="#F8D742"/>
<path d="M32.4669 20.4682C32.9183 20.7775 32.9171 20.8229 32.854 20.8144C32.7177 20.7782 32.5899 20.7157 32.4773 20.6304C32.2811 20.4927 30.1193 19.0209 29.4305 18.4479C29.1459 18.2112 28.9096 17.9899 28.7948 17.8797C29.1866 17.9587 29.5564 18.1237 29.8782 18.3632C30.247 18.675 31.8208 20.0254 32.4669 20.4682Z" fill="#D6A93A"/>
<path d="M26.9971 16.083L25.4872 14.2865C25.4321 14.1947 25.4257 14.0809 25.47 13.9832C25.5144 13.8855 25.5944 13.841 26.0298 14.3547C26.3958 14.7865 26.569 14.955 26.8771 15.328C27.121 15.664 27.2869 16.0512 27.3627 16.4609C27.276 16.3742 27.1017 16.198 26.9971 16.083Z" fill="#D6A93A"/>
<path d="M29.9057 16.6037C29.7644 16.7465 29.5319 16.7465 29.3905 16.6037L28.617 15.821C28.5488 15.7519 28.5104 15.6582 28.5104 15.5605C28.5104 15.3584 28.6748 15.192 28.8746 15.192C28.9713 15.192 29.064 15.231 29.1323 15.3L29.9057 16.0825C29.9741 16.1515 30.0125 16.2454 30.0125 16.3432C30.0125 16.4409 29.9741 16.5347 29.9057 16.6037Z" fill="#D6A93A"/>
<path d="M28.7208 15.821C28.6526 15.752 28.6142 15.6584 28.6142 15.5607C28.6142 15.3784 28.7482 15.2222 28.9266 15.1964C28.9093 15.1939 28.8919 15.1925 28.8744 15.1925C28.6747 15.1925 28.5104 15.3585 28.5104 15.5605C28.5104 15.6582 28.5488 15.7519 28.617 15.821L29.3905 16.6037C29.4716 16.6859 29.5866 16.7244 29.7001 16.7075C29.6222 16.6964 29.55 16.6599 29.4943 16.6037L28.7208 15.821Z" fill="#CDA938"/>
<path d="M29.0611 16.1082C29.0538 16.1157 29.0438 16.1199 29.0334 16.1199C29.0118 16.1199 28.994 16.1019 28.994 16.0799C28.994 16.0694 28.9981 16.0592 29.0054 16.0519L29.3602 15.693C29.3674 15.6855 29.3775 15.6814 29.388 15.6814C29.4096 15.6814 29.4272 15.6994 29.4272 15.7212C29.4272 15.7317 29.4231 15.7419 29.4159 15.7492L29.0611 16.1082Z" fill="#D6A93A"/>
<path d="M29.1782 16.2274C29.171 16.2349 29.1611 16.239 29.1509 16.239C29.1405 16.239 29.1306 16.2349 29.1234 16.2274C29.1161 16.22 29.112 16.21 29.112 16.1997C29.112 16.178 29.1295 16.1604 29.1509 16.1604C29.1721 16.1604 29.1896 16.178 29.1896 16.1997C29.1896 16.21 29.1857 16.22 29.1782 16.2274Z" fill="#D6A93A"/>
<path d="M28.9347 15.9812C28.9274 15.9887 28.9176 15.9929 28.9072 15.9929C28.8859 15.9929 28.8685 15.975 28.8685 15.9535C28.8685 15.932 28.8859 15.9144 28.9072 15.9144C28.9176 15.9144 28.9274 15.9185 28.9347 15.9259C28.9497 15.941 28.9497 15.966 28.9347 15.9812Z" fill="#D6A93A"/>
<path d="M29.2208 15.4955L29.0991 15.3724C29.0919 15.365 29.0818 15.361 29.0715 15.361C29.0499 15.361 29.0319 15.379 29.0319 15.401C29.0319 15.4115 29.036 15.4215 29.0435 15.429L29.0627 15.4487C29.0697 15.456 29.07 15.4675 29.0636 15.4752L28.7493 15.7927C28.7421 15.8002 28.738 15.8104 28.738 15.8209C28.738 15.8427 28.7557 15.8609 28.7775 15.8609C28.7879 15.8609 28.7978 15.8567 28.8052 15.8494L29.1204 15.5304C29.128 15.525 29.1384 15.5257 29.1451 15.5322L29.1647 15.552C29.1721 15.5594 29.1822 15.5635 29.1926 15.5635C29.2142 15.5635 29.2321 15.5455 29.2321 15.5235C29.2321 15.513 29.228 15.503 29.2208 15.4955Z" fill="#D6A93A"/>
<path d="M29.87 16.1575C29.8626 16.1472 29.8507 16.141 29.8382 16.141C29.8298 16.141 29.8215 16.1437 29.8148 16.1487L29.6091 16.2994C29.6007 16.3062 29.5884 16.3054 29.581 16.2974C29.5744 16.2909 29.5727 16.2807 29.577 16.2724L29.619 16.187C29.6258 16.1732 29.624 16.1565 29.6146 16.1445L29.6124 16.142L29.6113 16.1407L29.6101 16.1395L29.6077 16.1375C29.5956 16.1282 29.5793 16.1265 29.5656 16.1332L29.4814 16.1755C29.4732 16.1799 29.463 16.1784 29.4564 16.1715C29.449 16.1639 29.448 16.1517 29.4544 16.143L29.6035 15.9349C29.6162 15.9172 29.6123 15.892 29.5948 15.879C29.5882 15.874 29.5801 15.8714 29.5717 15.8714C29.5592 15.8714 29.5473 15.8777 29.5399 15.888L29.2455 16.2989C29.2344 16.3144 29.2357 16.3357 29.2488 16.3495L29.2504 16.3515L29.2512 16.3519C29.2631 16.363 29.2807 16.3655 29.2952 16.358L29.4397 16.2855C29.4425 16.2842 29.4455 16.2835 29.4486 16.2835C29.4603 16.2835 29.4701 16.2934 29.4701 16.3052C29.4701 16.3089 29.4691 16.3125 29.4673 16.3159L29.3964 16.4605C29.3892 16.4752 29.3916 16.493 29.4025 16.5052L29.4048 16.5075C29.4185 16.5207 29.4399 16.5222 29.4552 16.5107L29.8614 16.213C29.8715 16.2057 29.8776 16.1937 29.8776 16.1809C29.8776 16.1725 29.8749 16.1644 29.87 16.1575Z" fill="#D6A93A"/>
<path d="M12.9973 16.8809C12.7498 16.8819 12.5131 16.9842 12.3412 17.1644C12.011 17.4985 11.9653 17.9942 12.2394 18.2715L19.617 25.918L20.8725 24.6484L12.9973 16.8809Z" fill="#F8D742"/>
<path d="M30.9399 34.5722L21.633 25.3979C21.1488 25.6165 20.8358 26.1049 20.8358 26.641C20.8358 26.9419 20.9343 27.2345 21.1161 27.4727L29.4406 36.1057C29.7144 36.3833 30.1529 36.0895 30.6028 35.635C30.6787 35.558 30.7501 35.4815 30.8148 35.406C31.0548 35.0785 31.1465 34.7815 30.9399 34.5722Z" fill="#F8D742"/>
<path d="M29.0441 16.091C29.0367 16.0984 29.0266 16.1025 29.0163 16.1025C28.9947 16.1025 28.9769 16.0845 28.9769 16.0627C28.9769 16.052 28.981 16.042 28.9884 16.0345L29.343 15.6757C29.3504 15.6679 29.3608 15.6634 29.3715 15.6634C29.3931 15.6634 29.4109 15.6814 29.4109 15.7032C29.4109 15.714 29.4066 15.7245 29.3989 15.732L29.0441 16.091Z" fill="#F8D742"/>
<path d="M29.1613 16.2102C29.154 16.2175 29.1441 16.2217 29.1338 16.2217C29.1235 16.2217 29.1137 16.2175 29.1064 16.2102C29.0991 16.2029 29.0949 16.1929 29.0949 16.1824C29.0949 16.1609 29.1125 16.143 29.1338 16.143C29.1552 16.143 29.1726 16.1609 29.1726 16.1824C29.1726 16.1929 29.1685 16.2029 29.1613 16.2102Z" fill="#F8D742"/>
<path d="M28.9176 15.964C28.9103 15.9714 28.9006 15.9754 28.8902 15.9754C28.869 15.9754 28.8515 15.9577 28.8515 15.9362C28.8515 15.9147 28.869 15.897 28.8902 15.897C28.9006 15.897 28.9103 15.901 28.9176 15.9084C28.9327 15.9237 28.9327 15.9487 28.9176 15.964Z" fill="#F8D742"/>
<path d="M29.2036 15.4782L29.0822 15.355C29.0667 15.3399 29.0416 15.3399 29.0263 15.3554C29.0189 15.3629 29.0146 15.3729 29.0146 15.3835C29.0146 15.394 29.0189 15.4042 29.0263 15.4117L29.0456 15.4314C29.0525 15.4387 29.0528 15.4502 29.0464 15.4579L28.7323 15.7755C28.7251 15.783 28.721 15.793 28.721 15.8035C28.721 15.8255 28.7388 15.8435 28.7605 15.8435C28.7709 15.8435 28.7808 15.8394 28.7882 15.832L29.1033 15.513C29.1108 15.5077 29.1214 15.5084 29.1281 15.5149L29.1478 15.5347C29.1552 15.542 29.1652 15.5464 29.1758 15.5464C29.1974 15.5464 29.2152 15.5282 29.2152 15.5064C29.2152 15.4959 29.211 15.4857 29.2036 15.4782Z" fill="#F8D742"/>
<path d="M29.853 16.1402C29.8456 16.1299 29.8337 16.1239 29.8211 16.1239C29.8128 16.1239 29.8046 16.1265 29.7978 16.1314L29.5922 16.282C29.5884 16.285 29.5839 16.2865 29.5792 16.2865C29.5675 16.2865 29.5577 16.2767 29.5577 16.2647C29.5577 16.2614 29.5586 16.258 29.56 16.255L29.6019 16.1697C29.6086 16.1559 29.607 16.1395 29.5976 16.1274L29.5971 16.1269L29.5953 16.1247L29.5943 16.1234L29.5932 16.1224L29.5905 16.1204C29.5785 16.1109 29.5622 16.1092 29.5485 16.116L29.4645 16.1584C29.4561 16.1627 29.446 16.161 29.4394 16.1544C29.432 16.1467 29.431 16.1347 29.4373 16.1259L29.5864 15.9175C29.5991 15.8999 29.5953 15.8747 29.5778 15.8617C29.5712 15.8569 29.5632 15.8542 29.5548 15.8542C29.5422 15.8542 29.5304 15.8604 29.523 15.8707L29.2283 16.2817C29.2173 16.2972 29.2188 16.3185 29.2316 16.3322L29.2334 16.3342L29.2341 16.3347C29.246 16.3459 29.2638 16.3484 29.2781 16.3409L29.4228 16.2682C29.4254 16.2669 29.4285 16.2662 29.4315 16.2662C29.4434 16.2662 29.4531 16.2762 29.4531 16.288C29.4531 16.2917 29.4521 16.2954 29.4505 16.2987L29.3793 16.4434C29.3722 16.458 29.3747 16.4759 29.3855 16.4879L29.386 16.4887L29.3878 16.4902C29.4015 16.5035 29.4228 16.505 29.4381 16.4937L29.8445 16.1959C29.8545 16.1884 29.8606 16.1765 29.8606 16.1637C29.8606 16.1554 29.858 16.147 29.853 16.1402Z" fill="#F8D742"/>
<path d="M11.4303 15.3072C11.5717 15.4502 11.5717 15.6854 11.4303 15.8284L10.6566 16.6107C10.5884 16.6795 10.496 16.718 10.3996 16.718C10.1997 16.718 10.0353 16.5517 10.0353 16.3495C10.0353 16.2522 10.0735 16.1585 10.1415 16.0895L10.915 15.3072C10.9834 15.238 11.076 15.1992 11.1727 15.1992C11.2693 15.1992 11.3621 15.238 11.4303 15.3072Z" fill="#D6A93A"/>
<path d="M10.2063 16.1552L10.9799 15.3729C11.1091 15.2424 11.3163 15.2292 11.4606 15.3424C11.4512 15.33 11.4412 15.3182 11.4305 15.307C11.2891 15.1642 11.0564 15.1642 10.915 15.307L10.1415 16.0895C10.0733 16.1585 10.0348 16.2524 10.0348 16.35C10.0348 16.4477 10.0733 16.5417 10.1417 16.6107C10.1526 16.6215 10.1641 16.6317 10.1761 16.641C10.0643 16.4952 10.0773 16.2857 10.2063 16.1552Z" fill="#CDA938"/>
<path d="M10.9234 16.218C10.9312 16.2255 10.9356 16.236 10.9356 16.2469C10.9356 16.2687 10.9178 16.2867 10.8962 16.2867C10.8854 16.2867 10.875 16.2822 10.8676 16.2744L10.513 15.9155C10.5059 15.9082 10.5021 15.8984 10.5021 15.888C10.5021 15.8662 10.5199 15.8482 10.5415 15.8482C10.5515 15.8482 10.5614 15.8522 10.5687 15.8592L10.9234 16.218Z" fill="#D6A93A"/>
<path d="M11.0414 16.0997C11.0487 16.107 11.0528 16.1169 11.0528 16.1272C11.0528 16.1487 11.0351 16.1665 11.0139 16.1665C10.9926 16.1665 10.9752 16.1487 10.9752 16.1272C10.9752 16.1169 10.9793 16.107 10.9865 16.0997C11.0015 16.0844 11.0262 16.0844 11.0414 16.0997Z" fill="#D6A93A"/>
<path d="M10.7979 16.346C10.8053 16.3534 10.8094 16.3634 10.8094 16.3737C10.8094 16.3954 10.7918 16.413 10.7705 16.413C10.7603 16.413 10.7504 16.4089 10.7432 16.4015C10.7282 16.3862 10.7282 16.3614 10.743 16.346C10.7502 16.3385 10.7601 16.3344 10.7705 16.3344C10.7807 16.3344 10.7906 16.3385 10.7979 16.346Z" fill="#D6A93A"/>
<path d="M10.3177 16.0567L10.1961 16.1795C10.1888 16.1869 10.1847 16.197 10.1847 16.2075C10.1847 16.2295 10.2025 16.2475 10.2243 16.2475C10.2346 16.2475 10.2445 16.2434 10.2519 16.236L10.2714 16.2164C10.2788 16.2094 10.2902 16.2092 10.2978 16.2157L10.6117 16.5334C10.6191 16.5407 10.6291 16.545 10.6395 16.545C10.6613 16.545 10.6791 16.5269 10.6791 16.505C10.6791 16.4945 10.6749 16.4844 10.6675 16.4769L10.3523 16.1582C10.3469 16.1505 10.3475 16.1399 10.3539 16.133L10.3736 16.1132C10.381 16.1057 10.3851 16.0957 10.3851 16.085C10.3851 16.0632 10.3673 16.0452 10.3455 16.0452C10.3352 16.0452 10.3251 16.0494 10.3177 16.0567Z" fill="#D6A93A"/>
<path d="M10.9724 15.3999C10.9622 15.4074 10.9561 15.4194 10.9561 15.4322C10.9561 15.4407 10.9587 15.4489 10.9635 15.4557L11.1128 15.6635C11.119 15.6724 11.1182 15.6845 11.1108 15.6924C11.1042 15.6989 11.0941 15.7005 11.0859 15.6962L11.0014 15.654C10.9879 15.647 10.9715 15.6487 10.9597 15.6582L10.9589 15.6589L10.9559 15.6615L10.9547 15.6627L10.9529 15.6649L10.9524 15.6655C10.9432 15.6775 10.9416 15.694 10.9483 15.7077L10.9902 15.7929C10.9916 15.796 10.9925 15.7994 10.9925 15.8027C10.9925 15.8147 10.9826 15.8247 10.9707 15.8247C10.9661 15.8247 10.9617 15.8232 10.9579 15.8204L10.7521 15.6695C10.7453 15.6644 10.7371 15.6617 10.7287 15.6617C10.7072 15.6617 10.6894 15.6797 10.6894 15.7015C10.6894 15.7144 10.6955 15.7264 10.7059 15.7339L11.1119 16.0317C11.1273 16.0429 11.1485 16.0415 11.1624 16.0284L11.1638 16.0265L11.1647 16.0257C11.1755 16.0135 11.1778 15.9959 11.1706 15.9814L11.0988 15.835C11.0976 15.8324 11.0969 15.8294 11.0969 15.8264C11.0969 15.8144 11.1067 15.8045 11.1185 15.8045C11.1222 15.8045 11.1256 15.8054 11.1289 15.8072L11.2719 15.8787C11.2864 15.8862 11.3041 15.8839 11.3161 15.8729L11.3166 15.8722L11.3182 15.8704C11.3314 15.8565 11.3329 15.835 11.3219 15.8195L11.0271 15.4085C11.0144 15.391 10.9897 15.3872 10.9724 15.3999Z" fill="#D6A93A"/>
<path d="M10.9234 16.1787C10.9312 16.1862 10.9356 16.1967 10.9356 16.2075C10.9356 16.2294 10.9178 16.2474 10.8962 16.2474C10.8854 16.2474 10.875 16.2429 10.8676 16.2349L10.513 15.8764C10.5055 15.8689 10.5014 15.8587 10.5014 15.8482C10.5014 15.8264 10.5192 15.8084 10.541 15.8084C10.5514 15.8084 10.5612 15.8125 10.5687 15.8199L10.9234 16.1787Z" fill="#F8D742"/>
<path d="M11.0414 16.0602C11.0487 16.0675 11.0526 16.0774 11.0526 16.0877C11.0526 16.1092 11.0351 16.127 11.0139 16.127C10.9926 16.127 10.9752 16.1092 10.9752 16.0877C10.9752 16.0774 10.9793 16.0674 10.9865 16.06C11.0015 16.0449 11.0264 16.045 11.0414 16.0602Z" fill="#F8D742"/>
<path d="M10.7979 16.3065C10.8051 16.3139 10.8092 16.3239 10.8092 16.3342C10.8092 16.3557 10.7918 16.3734 10.7705 16.3734C10.7493 16.3734 10.7316 16.3557 10.7316 16.3342C10.7316 16.3239 10.7357 16.3139 10.743 16.3065C10.7582 16.2912 10.7829 16.2912 10.7979 16.3065Z" fill="#F8D742"/>
<path d="M10.3177 16.0172L10.1961 16.14C10.1887 16.1475 10.1846 16.1577 10.1846 16.1682C10.1846 16.1902 10.2023 16.2082 10.2241 16.2082C10.2345 16.2082 10.2445 16.204 10.2519 16.1965L10.2714 16.177C10.2788 16.17 10.2902 16.1697 10.2978 16.1762L10.6117 16.4939C10.6191 16.5014 10.6291 16.5055 10.6395 16.5055C10.6611 16.5055 10.6789 16.4875 10.6789 16.4657C10.6789 16.4552 10.6748 16.445 10.6675 16.4375L10.3523 16.1187C10.3469 16.111 10.3475 16.1004 10.3539 16.0935L10.3736 16.0739C10.3889 16.0584 10.3889 16.0329 10.3736 16.0172C10.3661 16.0097 10.3561 16.0054 10.3455 16.0054C10.3352 16.0054 10.3251 16.0097 10.3177 16.0172Z" fill="#F8D742"/>
<path d="M10.9724 15.3605C10.9622 15.3679 10.9561 15.38 10.9561 15.3927C10.9561 15.4012 10.9587 15.4094 10.9635 15.4162L11.1128 15.6242C11.119 15.633 11.1182 15.6452 11.1108 15.653C11.1042 15.6595 11.0941 15.661 11.0859 15.6569L11.0014 15.6145C10.9879 15.6077 10.9715 15.6094 10.9597 15.6189L10.9589 15.6194L10.9559 15.622L10.9529 15.6254L10.9524 15.6262C10.9432 15.6382 10.9416 15.6545 10.9483 15.6682L10.9902 15.7535C10.9943 15.7619 10.9926 15.7722 10.986 15.7789C10.9785 15.7864 10.9666 15.7874 10.9579 15.7812L10.7521 15.63C10.7453 15.625 10.7372 15.6224 10.729 15.6224C10.7074 15.6224 10.6896 15.6404 10.6896 15.6622C10.6896 15.6749 10.6957 15.6869 10.7059 15.6944L11.1119 15.9922C11.1273 16.0035 11.1485 16.002 11.1624 15.989L11.1637 15.9872L11.1647 15.9864C11.1755 15.9742 11.1778 15.9565 11.1706 15.942L11.0988 15.7957C11.0976 15.793 11.0969 15.7899 11.0969 15.7869C11.0969 15.7749 11.1067 15.765 11.1185 15.765C11.1222 15.765 11.1256 15.7659 11.1287 15.7677L11.2719 15.8394C11.2864 15.8467 11.3041 15.8444 11.3161 15.8334L11.3166 15.8329L11.3182 15.8309C11.3314 15.817 11.3329 15.7955 11.3219 15.7802L11.0271 15.3692C11.0198 15.359 11.008 15.3529 10.9954 15.3529C10.987 15.3529 10.979 15.3555 10.9724 15.3605Z" fill="#F8D742"/>
<path d="M12.7401 10.8277C12.6838 10.8357 12.6269 10.8397 12.5701 10.8397C11.9294 10.8397 11.3935 10.3264 11.3588 9.67938C11.3377 8.99638 11.3164 8.31338 11.2952 7.63055C11.6119 7.60555 11.7706 7.59355 12.0874 7.57089C12.1067 8.25389 12.126 8.93688 12.1453 9.61988C12.1451 9.62538 12.1449 9.63072 12.1449 9.63605C12.1449 9.89788 12.358 10.1134 12.6169 10.1134C12.6503 10.1134 12.6838 10.1097 12.7166 10.1025C12.7634 10.0994 12.7868 10.0979 12.8334 10.0949C12.8434 10.0954 12.8535 10.0957 12.8635 10.0957C13.1463 10.0957 13.379 9.86038 13.379 9.57422C13.379 9.56238 13.3786 9.55038 13.3778 9.53838C13.3615 8.85538 13.3452 8.17222 13.329 7.48922C13.6463 7.47022 13.8049 7.46122 14.1223 7.44455C14.1366 8.12755 14.151 8.81072 14.1653 9.49388C14.1589 10.2179 13.5724 10.812 12.8566 10.8199C12.81 10.823 12.7868 10.8245 12.7401 10.8277Z" fill="white"/>
<path d="M14.7285 7.42022C15.0968 7.40239 15.281 7.39439 15.6496 7.37989C16.0636 8.05372 16.4747 8.72938 16.883 9.40672L16.8921 9.40655C16.8853 8.71722 16.8787 8.02805 16.872 7.33855C17.1897 7.32972 17.3487 7.32572 17.6664 7.31922C17.6755 8.40005 17.6845 9.48088 17.6936 10.5617C17.3309 10.5692 17.1495 10.5737 16.787 10.5844C16.3786 9.90905 15.9675 9.23538 15.5532 8.56338L15.5444 8.56388C15.5541 9.25155 15.5641 9.93938 15.5742 10.627C15.2603 10.64 15.1032 10.6469 14.7895 10.6622C14.7691 9.58155 14.7488 8.50088 14.7285 7.42022Z" fill="white"/>
<path d="M18.2504 7.30989C18.5681 7.30489 18.7271 7.30289 19.0449 7.30005C19.0487 8.38105 19.0524 9.46188 19.0561 10.5427C18.7419 10.5454 18.5849 10.5474 18.2706 10.5525C18.2639 9.47155 18.2571 8.39055 18.2504 7.30989Z" fill="white"/>
<path d="M20.6436 7.97805C20.2346 7.97588 20.0303 7.97572 19.6213 7.97722C19.621 7.70522 19.6207 7.56922 19.6203 7.29705C20.5687 7.29639 21.5168 7.30505 22.4644 7.32322C22.4621 7.59522 22.461 7.73122 22.4585 8.00338C22.0497 7.99422 21.8452 7.99072 21.4364 7.98522C21.4321 8.83938 21.4277 9.69355 21.4234 10.5475C21.1091 10.5435 20.9521 10.542 20.6379 10.5404C20.6397 9.68622 20.6417 8.83222 20.6436 7.97805Z" fill="white"/>
<path d="M23.0399 7.33539C23.757 7.35705 24.4741 7.38372 25.1909 7.41489C25.1858 7.68689 25.1833 7.82305 25.1782 8.09505C24.6371 8.06955 24.3663 8.05855 23.8249 8.03988C23.8216 8.27572 23.8201 8.39355 23.8168 8.62938C24.2577 8.64455 24.4782 8.65338 24.919 8.67322C24.9142 8.94522 24.9119 9.08122 24.9071 9.35322C24.4673 9.33355 24.2475 9.32472 23.8076 9.30972C23.8041 9.55455 23.8026 9.67688 23.7992 9.92172C24.3624 9.94122 24.6438 9.95288 25.2065 9.97988C25.2014 10.2519 25.199 10.3879 25.1939 10.6599C24.4642 10.6275 23.7346 10.6 23.0049 10.5777C23.0166 9.49705 23.0282 8.41622 23.0399 7.33539Z" fill="white"/>
<path d="M25.7942 7.43855C26.3022 7.46472 26.5561 7.47939 27.0636 7.51155C27.9775 7.53839 28.7085 8.31972 28.6846 9.24422C28.6648 10.0829 27.9773 10.762 27.1478 10.762C27.0925 10.762 27.0371 10.759 26.9821 10.753C26.4805 10.721 26.2295 10.7065 25.7274 10.6805C25.7497 9.59988 25.7719 8.51922 25.7942 7.43855ZM26.9679 10.071C27.5112 10.1054 27.8524 9.80372 27.8697 9.18272C27.8872 8.56622 27.5482 8.22338 27.0148 8.18955C26.8375 8.17838 26.7489 8.17305 26.5716 8.16255L26.5276 10.044C26.7037 10.0545 26.7917 10.0599 26.9679 10.071Z" fill="white"/>
<path d="M4.64959 3.64556C5.06253 3.59273 5.26917 3.56723 5.6826 3.51823C5.86798 4.43872 6.05335 5.35922 6.23873 6.27989L6.24994 6.27855C6.46217 5.31289 6.67441 4.34722 6.88681 3.38156C7.2429 3.34289 7.42103 3.32439 7.77728 3.28856C7.98425 4.21039 8.19121 5.13239 8.39784 6.05422L8.40921 6.05305C8.60975 5.09239 8.81045 4.13172 9.01132 3.17106C9.41899 3.13439 9.62282 3.11689 10.0306 3.08406C9.69038 4.47106 9.35077 5.85822 9.01132 7.24572C8.53329 7.28872 8.29436 7.31139 7.8165 7.35922C7.65403 6.58005 7.49172 5.80089 7.32925 5.02156L7.31804 5.02272C7.15557 5.83589 6.99326 6.64905 6.83095 7.46222C6.34897 7.51472 6.10806 7.54222 5.62641 7.59955C5.30097 6.28155 4.97536 4.96339 4.64959 3.64556Z" fill="white"/>
<path d="M30.597 3.14156C31.0406 3.18023 31.2624 3.20056 31.7058 3.24339C31.9988 4.11789 32.2913 4.99272 32.5836 5.86756L32.595 5.86855C32.8871 5.05489 33.1796 4.24122 33.4722 3.42756C33.9106 3.47656 34.1297 3.50223 34.5677 3.55539C34.8091 4.94372 35.0503 6.33189 35.2914 7.72022C34.8851 7.66822 34.6819 7.64322 34.2752 7.59489C34.1561 6.68822 34.0371 5.78156 33.918 4.87489L33.9066 4.87356C33.6186 5.73405 33.3305 6.59439 33.0428 7.45489C32.6867 7.41639 32.5086 7.39789 32.1524 7.36205C31.8587 6.44089 31.5648 5.51989 31.2706 4.59889C31.2662 4.59839 31.2639 4.59839 31.2594 4.59772C31.1549 5.48106 31.0506 6.36422 30.9465 7.24722C30.5322 7.21005 30.3251 7.19222 29.9105 7.15855C30.1392 5.81955 30.368 4.48056 30.597 3.14156Z" fill="white"/>
<path d="M10.4241 3.06056C11.3306 2.99173 12.2375 2.93123 13.145 2.87889C13.1254 3.22173 13.1155 3.39339 13.0959 3.73622C12.5338 3.76906 11.9719 3.80422 11.4102 3.84222V4.58306C11.9602 4.54456 12.2354 4.52689 12.7858 4.49489V5.34972C12.2354 5.38172 11.9602 5.39939 11.4102 5.43789V6.20722C11.9981 6.16605 12.5864 6.12922 13.1748 6.09705C13.1748 6.43889 13.1748 6.60989 13.175 6.95172C12.2573 7.00455 11.3405 7.06572 10.4241 7.13522V3.06056Z" fill="white"/>
<path d="M17.783 3.57323C17.2734 3.58206 17.0186 3.58772 16.5091 3.60206V2.74723C17.6878 2.71706 18.8665 2.70173 20.045 2.70139V3.55639C19.5355 3.55522 19.2806 3.55606 18.7709 3.56056V6.78039C18.3758 6.78372 18.1782 6.78622 17.783 6.79305V3.57323Z" fill="white"/>
<path d="M21.6857 2.71006C22.0808 2.71489 22.2784 2.71823 22.6736 2.72623V4.35606C23.2445 4.36956 23.8151 4.38556 24.3858 4.40422V2.77439C24.7809 2.78823 24.9783 2.79606 25.3733 2.81339V6.88805C24.9785 6.87089 24.7809 6.86289 24.3858 6.84905V5.25339C23.8151 5.23456 23.2444 5.21856 22.6736 5.20522V6.80089C22.2784 6.79272 22.0808 6.78955 21.6857 6.78455V2.71006Z" fill="white"/>
<path d="M28.3288 6.19672C27.787 6.15939 27.5159 6.14255 26.9738 6.11155C26.8768 6.44789 26.8283 6.61605 26.7313 6.95272C26.3252 6.93039 26.1222 6.92005 25.7161 6.90122C26.1236 5.56389 26.5315 4.22672 26.9397 2.88973C27.4723 2.91989 27.7384 2.93656 28.2706 2.97289C28.7114 4.36339 29.1514 5.75422 29.5909 7.14522C29.1853 7.11289 28.9825 7.09772 28.5768 7.06889C28.4776 6.71989 28.428 6.54539 28.3288 6.19672ZM27.6486 3.86106C27.5006 4.34972 27.3528 4.83839 27.205 5.32706C27.5622 5.34822 27.7407 5.35939 28.0978 5.38322C27.9518 4.87606 27.8058 4.36872 27.6598 3.86172L27.6486 3.86106Z" fill="white"/>
<path d="M15.0124 2.72439C14.2769 2.75073 13.4431 3.20889 13.4376 4.04539C13.4292 5.32222 15.325 4.97956 15.442 5.67739C15.4745 5.87039 15.2594 6.03256 14.9872 6.03206C14.5277 6.04072 14.0732 5.93222 13.666 5.71656C13.6459 6.06856 13.6293 6.25356 13.6158 6.57306C14.0188 6.82755 14.4878 6.95472 14.9627 6.93789C15.6717 6.95639 16.5245 6.45905 16.5317 5.62039C16.5424 4.35339 14.6631 4.64022 14.5268 3.98123C14.4919 3.81256 14.6956 3.64639 14.9999 3.62873C15.3614 3.60856 15.7226 3.67573 16.0535 3.82439C16.0738 3.41906 16.0799 3.36123 16.1025 2.96673C15.7691 2.78323 15.3911 2.69906 15.0124 2.72439Z" fill="white"/>
<path d="M14.1676 36.3877L14.6475 36.5997L13.9709 38.1667L14.7715 38.5205L14.5918 38.9365L13.3113 38.3708L14.1676 36.3877Z" fill="white"/>
<path d="M16.5368 37.2428C17.0226 37.3598 17.3681 37.8025 17.3681 38.3075C17.3681 38.4092 17.3543 38.5102 17.3266 38.6078C17.1936 39.0978 16.7499 39.4398 16.2476 39.4398C15.6337 39.4398 15.1284 38.929 15.1284 38.308C15.1284 38.2067 15.142 38.1058 15.1685 38.0082C15.2936 37.5293 15.7251 37.1932 16.2147 37.1932C16.3239 37.1932 16.4325 37.21 16.5368 37.2428ZM16.0779 38.9325C16.1224 38.943 16.168 38.9482 16.2137 38.9482C16.4984 38.9482 16.7461 38.7445 16.8044 38.4627C16.8249 38.402 16.8352 38.3382 16.8352 38.274C16.8352 37.953 16.5741 37.6888 16.2567 37.6888C15.9843 37.6888 15.7469 37.8835 15.6907 38.1532C15.6691 38.2168 15.658 38.2837 15.658 38.351C15.658 38.6158 15.8284 38.8518 16.0779 38.9325Z" fill="white"/>
<path d="M17.828 37.6L18.355 37.6543L18.8432 38.7207C18.8971 38.8467 18.9444 38.9755 18.9848 39.1065L18.9907 39.1072C18.9907 39.1072 18.9902 38.8728 19.0039 38.7373L19.1052 37.7315L19.6261 37.7852L19.4094 39.9382L18.8854 39.8842L18.3939 38.8205C18.34 38.6947 18.2927 38.5658 18.2523 38.4348L18.2464 38.4342C18.2464 38.4342 18.2467 38.6685 18.2331 38.804L18.1322 39.8067L17.6112 39.753L17.828 37.6Z" fill="white"/>
<path d="M19.9954 37.791L20.7545 37.7497C21.4268 37.713 21.8782 38.0855 21.9144 38.7657C21.9505 39.4457 21.5418 39.8742 20.8694 39.9107L20.1104 39.952L19.9954 37.791ZM20.8244 39.4585C21.1365 39.4217 21.3746 39.1513 21.3746 38.8335C21.3746 38.4902 21.0969 38.207 20.7575 38.2042L20.5425 38.216L20.6092 39.4702L20.8244 39.4585Z" fill="white"/>
<path d="M23.0323 37.4092C23.1201 37.3865 23.2102 37.375 23.3007 37.375C23.811 37.375 24.2553 37.7398 24.3601 38.245C24.3774 38.3248 24.3861 38.4063 24.3861 38.4882C24.3861 39.1092 23.8809 39.6202 23.2669 39.6202C22.7434 39.6202 22.2865 39.2485 22.1739 38.7313C22.1557 38.6507 22.1463 38.5683 22.1463 38.4857C22.1463 37.9597 22.521 37.5045 23.0323 37.4092ZM23.4045 39.1208C23.6687 39.0503 23.8542 38.8068 23.8542 38.5305C23.8542 38.4737 23.8465 38.4172 23.831 38.3627C23.7868 38.0793 23.5429 37.8685 23.2595 37.8685C22.942 37.8685 22.6808 38.1327 22.6808 38.4537C22.6808 38.5078 22.6882 38.5617 22.7029 38.6137C22.7485 38.9097 23.0031 39.1302 23.2994 39.1302C23.3347 39.1302 23.3698 39.127 23.4045 39.1208Z" fill="white"/>
<path d="M24.3378 37.1185L24.829 36.918L25.7521 37.6312C25.8579 37.717 25.9591 37.8087 26.0553 37.9055L26.0608 37.9033C26.0608 37.9033 25.9523 37.6963 25.9021 37.5698L25.5282 36.6327L26.0136 36.4345L26.8141 38.441L26.3257 38.6403L25.4008 37.9312C25.295 37.8452 25.1939 37.7537 25.0978 37.6567L25.0922 37.659C25.0922 37.659 25.2006 37.866 25.251 37.9923L25.6239 38.9268L25.1383 39.125L24.3378 37.1185Z" fill="white"/>
</svg>
