<svg width="47" height="45" viewBox="0 0 47 45" fill="none" xmlns="http://www.w3.org/2000/svg">
<path d="M11.75 45L0 22.5L11.75 0H35.25L47 22.5L35.25 45H11.75Z" fill="#231F20"/>
<path d="M14.0083 40.6683L4.51635 22.5L14.0083 4.33168H32.9917L42.4836 22.5L32.9917 40.6683H14.0083Z" fill="#FDB913"/>
<path d="M14.2102 40.293H32.799L42.0888 22.5L32.7898 4.70698H14.2102L4.91115 22.5L14.2102 40.293ZM33.1846 41.0538H13.8154L4.12172 22.5L4.22269 22.3073L13.8154 3.94618H33.1937L33.2948 4.13893L42.8875 22.5L33.1846 41.0538Z" fill="white"/>
<path d="M20.7737 14.0194H26.2081L29.1088 5.97506L36.9575 23.6057L28.4662 29.1547L25.7398 39.0249H21.2602L18.5429 29.1343L10.0425 23.6057L17.8821 5.97506L20.7737 14.0194Z" fill="#231F20"/>
<path d="M21.8935 24.8738L17.8912 20.1262V24.8738H21.8935ZM29.1088 20.1262V24.8738H25.0973L29.1088 20.1262Z" fill="white"/>
</svg>
