<svg width="45" height="45" viewBox="0 0 45 45" fill="none" xmlns="http://www.w3.org/2000/svg">
<path d="M35.7346 30.1156C35.736 30.1525 35.7346 30.1371 35.7346 30.1156Z" fill="white"/>
<path d="M35.7346 30.1156C35.736 30.1525 35.7346 30.1371 35.7346 30.1156Z" fill="#231F20"/>
<path fill-rule="evenodd" clip-rule="evenodd" d="M44.2175 32.5036C43.7881 31.7187 43.8657 30.48 42.7747 30.248C41.6392 30.2149 40.4173 30.6571 39.4026 31.2765C39.0063 31.6742 39.5461 32.0168 39.5676 32.4043C39.6896 32.9562 39.9653 33.443 40.0198 34.0176C39.7671 34.1056 39.5131 34.228 39.249 34.2942C39.028 34.372 38.8413 34.2611 38.6976 34.1285C38.0475 33.8303 37.3971 34.1731 36.8573 34.4484C36.6263 34.8243 36.1855 34.5044 35.8553 34.637C34.9078 34.6919 33.7291 34.6701 32.9355 35.4004C32.3956 35.9305 32.9685 36.5498 32.9125 37.1463C31.4266 37.5452 29.9596 37.9975 28.3961 38.2077C27.967 38.2855 27.5148 38.3404 27.074 38.4066C25.6973 38.617 24.2863 38.7711 22.9653 38.8043L22.921 38.7609C22.9323 38.7047 22.987 38.6614 22.9653 38.5952C23.9116 37.4114 25.2566 36.5052 26.5673 35.8528C26.7553 35.7533 26.9305 35.5991 27.1401 35.5329C27.3051 35.3111 27.5591 35.3329 27.7358 35.1238C28.8598 34.4268 30.093 33.6085 30.6658 32.3597C30.8423 32.0946 30.8855 31.785 30.9973 31.4855C31.085 31.2205 31.085 30.9885 31.1726 30.7235C31.4481 31.3976 31.4926 32.2374 32.209 32.6363C33.1005 33.3104 34.2588 33.4863 35.3485 33.1002C36.7583 32.5471 37.5305 31.0216 37.6626 29.5739C37.7286 29.3853 37.9483 29.3522 38.0043 29.1649C37.8061 28.9878 37.7058 28.7112 37.8061 28.4678C37.8823 28.2142 38.2468 28.2588 38.2798 27.9924C38.2125 27.9262 38.125 27.9044 38.0475 27.8498C37.7833 27.6611 37.6398 27.3629 37.7058 27.0417C37.7286 26.7882 38.0588 26.6887 38.102 26.4453C37.904 26.3791 37.6728 26.346 37.5521 26.1687C37.5521 26.0796 37.6626 26.0363 37.7286 26.0146C38.4005 25.8923 39.5131 25.6604 39.9983 26.4224C40.7146 27.3081 39.8218 28.3021 39.8878 29.2528C39.9653 29.463 39.8991 29.7841 40.119 29.8938C40.119 29.1202 40.8911 28.9112 41.309 28.3581L41.4195 28.5239C41.6836 28.1262 41.3636 27.5285 41.6951 27.1412C41.7941 27.0748 41.8931 27.2074 41.9923 27.1412V27.0201C41.7166 26.7664 41.7281 26.4007 41.6721 26.0579C41.7053 25.8923 41.9033 26.0032 41.9706 25.8706C41.7725 25.7381 41.6176 25.5164 41.5185 25.2958C41.4525 24.8867 41.0563 24.6319 40.7578 24.4228L40.9673 24.168C41.0448 23.9462 41.1998 23.7476 41.2873 23.527C41.0448 23.4608 40.7476 23.3945 40.5266 23.2275C40.9126 22.6311 40.8683 21.813 40.8911 21.2051L40.7806 21.2714C40.7248 20.8623 40.7146 20.41 40.5266 20.0773C40.439 20.1002 40.505 20.2429 40.3945 20.2098C40.185 19.7676 40.0198 19.2822 39.6338 18.9278C39.447 18.8831 39.6121 19.0935 39.503 19.1266C39.1613 18.8831 38.995 18.5303 38.9518 18.1428C38.8526 18.1428 38.8298 18.2421 38.8081 18.3085C38.6545 19.4695 39.1943 20.6304 38.8743 21.7582C38.7193 22.0679 38.7193 22.4438 38.4666 22.7204C38.2125 23.4277 37.5635 23.8916 36.9576 24.2891C36.9133 24.2789 36.8573 24.3006 36.8358 24.2675C36.7583 23.936 37.0568 23.6698 37.0453 23.3614C36.8028 23.3168 36.583 23.1179 36.4496 22.9306C36.3951 22.6311 36.4941 22.3545 36.7698 22.1672C36.8573 21.957 36.5601 22.0564 36.4725 21.957C36.2185 21.7582 36.0535 21.4269 36.0535 21.0612C36.0318 20.7961 36.329 20.6304 36.329 20.3984C36.0433 20.3984 35.8223 20.122 35.6901 19.89C35.5466 19.4808 35.5353 18.9164 35.7563 18.5085C36.0205 17.3578 37.6181 17.3692 37.6398 16.1203C37.7058 15.877 38.0818 16.1305 38.2355 15.8885C38.3345 15.7776 38.158 15.8108 38.125 15.7776C37.7935 15.6004 37.8595 15.2029 37.8276 14.9263C37.9815 14.8703 38.069 15.0358 38.2125 14.948C38.2798 14.8932 38.4335 14.8702 38.379 14.7594C38.1693 14.7823 38.1148 14.5503 37.9815 14.4395C38.069 14.3732 38.158 14.4726 38.2583 14.4395C38.323 14.4179 38.4436 14.3961 38.4005 14.2737C38.2023 14.1413 38.0818 13.9093 38.0818 13.6991H38.2355C38.5326 13.5996 38.1693 13.4341 38.191 13.2683C38.2125 13.2237 38.2583 13.2123 38.3015 13.2237C38.3446 13.1906 38.379 13.1357 38.3561 13.1026C37.9268 12.9917 38.092 12.4718 37.6841 12.3278C37.9928 12.0845 37.5076 12.0067 37.5305 11.7748C37.4861 11.6537 37.3655 11.6422 37.2765 11.6091C37.2651 11.5428 37.288 11.488 37.3425 11.4435C37.4746 11.2331 37.222 11.2116 37.0898 11.1669C37.0898 11.0343 37.1228 10.7247 36.8358 10.8241C36.9793 10.4481 36.517 10.5819 36.352 10.5475C36.3621 10.3933 36.4395 10.2493 36.385 10.0951C36.2083 10.0505 36.1093 10.1729 35.9658 10.1613L35.9441 9.86317C35.7893 9.81869 35.7118 9.9396 35.5796 9.9294C35.1948 10.3155 35.2495 9.59694 34.9295 9.52035C34.8531 9.47586 34.7211 9.3981 34.6323 9.49744C34.6766 9.69761 34.8531 9.88491 34.7541 10.1169C34.6881 10.206 34.5776 10.3602 34.4556 10.294C34.3121 10.1053 34.1585 9.91802 33.9705 9.74093C33.8841 9.64142 33.8728 9.44258 33.6961 9.42101C33.5856 9.68607 33.6186 10.006 33.5856 10.294C33.4206 10.2608 33.2555 10.0837 33.1005 10.1831C32.9798 10.5819 33.1551 10.9567 33.4421 11.2447C33.2326 11.4333 33.079 11.6422 32.891 11.841C32.6153 12.3827 32.0438 12.7038 31.6361 13.1792C31.184 13.5334 31.151 14.1082 31.085 14.6052C31.25 14.8816 31.5358 14.7938 31.7898 14.9263C31.8228 15.0142 31.7123 15.0473 31.6793 15.1034C31.5586 15.1467 31.5358 14.9594 31.4266 14.9925C31.2831 15.0142 31.2615 15.1698 31.217 15.2691C31.2716 15.3673 31.25 15.501 31.3821 15.5673C31.6361 15.7113 31.922 15.5673 32.143 15.3786C32.3296 15.4233 32.5608 15.3022 32.7588 15.4017V15.3571C33.1551 15.236 33.3215 14.7492 33.7178 14.5721C33.8728 14.6281 34.015 14.4726 34.114 14.6497C33.7953 15.1034 33.1996 15.236 32.8033 15.589C32.087 16.0094 31.4266 16.7168 31.085 17.4572C30.9528 17.6458 30.9858 17.9326 30.7878 18.0766C30.4016 17.4572 30.2581 16.7282 29.7958 16.1638C29.5201 15.9318 29.1011 15.9203 28.7708 16.0541C28.1091 16.5295 27.295 16.6059 26.655 17.1041L26.6118 17.0596C26.6003 16.8608 26.5126 16.6951 26.3793 16.5295C26.171 16.43 25.9615 16.3638 25.7188 16.3523C25.3556 16.3191 25.0026 16.6059 24.661 16.374C24.5846 16.2198 24.5403 16.0643 24.5288 15.8885C24.4641 15.733 24.5733 15.3673 24.3421 15.3124C24.1656 15.0256 24.1986 14.6497 24.177 14.2955C24.1541 14.2191 24.0551 14.2955 24.0221 14.2293C23.8685 13.6876 23.956 13.0351 23.9116 12.5267C23.979 12.2947 23.7465 12.0067 24.0221 11.8639C24.0665 11.7977 24.0995 11.6651 24.0005 11.632C23.9675 11.5989 23.9675 11.5211 24.0221 11.4995C24.4741 11.4549 24.3853 10.7808 24.8705 10.847C24.9365 10.791 24.9251 10.6915 24.9581 10.6252C24.9365 10.3717 25.0368 10.1282 24.9365 9.86317L24.2316 9.88491L24.177 9.84026C24.0881 9.47586 24.1326 9.03354 24.4081 8.78001C24.6393 8.71245 24.8273 8.5698 25.0585 8.69071C25.2236 8.79022 25.3111 8.96731 25.3341 9.14441C25.2781 9.25529 25.1676 9.32168 25.0585 9.2884C24.8375 9.19926 24.882 8.88955 24.6825 8.88955C24.628 9.22217 24.7385 9.55346 25.0255 9.74093C25.1676 9.81869 25.4001 9.81869 25.5321 9.74093C25.7418 9.60831 25.8625 9.42101 25.9068 9.16615C25.7418 8.7571 26.2815 9.03354 26.4238 8.84624C26.8213 8.69071 26.6993 8.3034 26.721 7.97212C26.721 7.76308 27.0296 7.61909 27.0296 7.44183C26.8975 7.3858 26.7553 7.36423 26.6118 7.3756C26.2815 7.3756 26.2916 7.75154 26.105 7.92864L26.0835 7.54133C26.006 7.39734 25.8625 7.24316 25.7188 7.16539C25.6085 7.17677 25.4878 7.06589 25.4001 7.16539C25.3773 7.30938 25.5321 7.29784 25.5753 7.39734C25.5321 7.78465 25.0915 7.70689 24.8273 7.81776C24.4741 7.87262 24.4411 8.3034 24.111 8.37097C23.6043 8.67934 23.5928 9.33188 23.6588 9.86317C23.3833 9.92939 23.6143 10.2162 23.4493 10.3717C23.2396 10.3155 23.1953 10.062 23.1305 9.88491C23.0086 9.53055 23.0631 9.07819 23.086 8.69071C23.1623 8.14922 23.758 7.8293 24.0665 7.39734C23.8786 7.02141 24.3853 6.93344 24.4081 6.61236C24.3091 6.5346 24.1986 6.68995 24.111 6.56771C24.111 6.52439 24.111 6.46821 24.1326 6.43643C24.7498 6.32556 24.3091 5.76098 24.5733 5.39659C24.5516 5.21932 24.4526 5.16464 24.3421 5.03202C24.2215 5.07533 24.111 4.976 24.0881 4.84338C23.956 4.63317 23.7033 4.55675 23.4708 4.58986C23.3718 4.54521 23.2626 4.45725 23.1521 4.52364C22.921 4.81027 22.5678 4.90977 22.3696 5.26397L22.2821 5.18621C22.1488 5.36347 21.9848 5.56214 21.9848 5.81701C22.0941 6.10381 21.7093 6.09361 21.5873 6.26953C21.3893 6.47974 21.4336 6.80083 21.2025 6.96655C20.9371 6.5346 20.4963 6.31402 20.2881 5.86049C20.2983 5.27551 19.5273 4.95426 19.8473 4.29169C21.3231 3.38429 23.0086 4.16927 24.6178 4.24704C26.942 4.57832 29.8835 4.6116 31.4036 2.4998C31.4151 2.35715 31.5916 2.21317 31.5141 2.09075C30.7763 2.54445 29.8175 2.54445 28.9475 2.61068C28.3518 2.5891 27.6696 2.59931 27.1845 2.43358C25.973 2.27939 24.8705 1.83723 23.8125 1.32868C22.8765 0.896721 21.797 0.730995 20.7173 0.90826C20.6068 0.919632 20.4748 0.996057 20.3973 0.929833C20.4531 0.709422 20.3313 0.487673 20.2106 0.288835C20.057 0.200871 19.902 0.0122338 19.7368 0.0122338C19.4053 -0.0424509 19.0866 0.0899961 18.8668 0.333485C18.6675 0.576807 18.6458 0.996057 18.7895 1.26112C18.91 1.4715 19.1081 1.61548 19.2733 1.73773C19.3291 3.09749 19.2733 4.25858 19.3178 5.49592C19.2733 5.69476 19.1196 5.93808 19.2733 6.13692C19.3063 6.9883 19.3063 8.08299 19.2733 8.98905L19.2073 9.07819C19.1526 9.16615 19.1971 9.26549 19.2516 9.33188L19.2733 16.3523C19.131 16.4962 18.9545 16.5728 18.8668 16.7613C18.8338 16.927 18.8668 17.1259 18.9545 17.2699C19.3951 17.8662 20.0341 17.6789 20.673 17.6127L20.7173 17.656C20.6068 17.9109 20.6298 18.2868 20.7948 18.5085C20.8596 18.729 20.6398 18.8947 20.4861 19.0158C19.6708 19.4592 18.6903 19.5917 17.809 19.3815C17.3351 19.3153 17.8305 18.9278 17.7416 18.6514C17.6553 18.2652 17.4445 17.8331 17.0036 17.7567C16.6188 17.656 16.1666 17.7784 15.9241 18.0982C15.914 17.7784 15.9571 17.3807 16.2988 17.2252C16.6188 17.2801 16.9275 17.3692 17.1916 17.5909C17.3898 17.8331 17.5333 18.0217 17.8521 18.0319C18.007 18.3085 17.9525 18.6398 17.8965 18.9495L17.974 19.0158C18.3601 19.0935 18.7895 19.0604 19.1856 19.1266C19.4168 18.7622 19.8143 19.2158 20.0341 18.7838C20.1115 18.706 20.3096 18.8169 20.3096 18.6514C19.935 18.0548 19.2516 17.7784 18.745 17.3578C18.1606 16.5728 17.1141 16.5728 16.3648 16.0312C14.9766 15.6883 15.044 17.3909 14.4368 18.0982L14.3493 17.9771C13.9631 16.6506 12.674 15.6335 11.5068 15.0589C11.3633 14.9594 11.1538 14.86 11.1093 14.6714C11.738 14.3515 11.9806 15.3786 12.608 15.4017C13.0715 15.236 13.2696 15.7559 13.7751 15.6335C13.8755 15.6004 13.9415 15.5342 13.9746 15.4233C14.0291 15.2908 13.9961 15.1034 13.8641 15.0358C13.7205 14.9263 13.666 15.1582 13.5225 15.1034C13.478 15.0589 13.4018 15.0027 13.4348 14.948C13.6773 14.8485 14.0406 14.8932 14.1613 14.5721C14.2171 13.7322 13.5555 13.1128 12.9496 12.6044C12.3996 12.273 12.2778 11.6206 11.7596 11.2447C11.9361 11.0789 12.0681 10.9018 12.1456 10.6915C12.1126 10.4826 12.2218 10.294 12.0568 10.1384C11.9031 10.1831 11.7811 10.2493 11.639 10.3155C11.55 10.1729 11.6173 9.95114 11.5945 9.77404C11.5615 9.65296 11.583 9.37636 11.4065 9.44258C11.2973 9.84026 10.9111 9.98425 10.7245 10.3488H10.6585C10.2278 10.1831 10.5263 9.73072 10.5365 9.47586C10.1733 9.45412 10.0196 9.83006 9.85446 10.0722C9.67663 9.96267 9.48996 9.89628 9.28046 9.86317C9.1153 9.9396 9.3033 10.0722 9.21563 10.1831C9.0823 10.1729 8.97296 10.0951 8.84096 10.0951C8.66313 10.2277 8.89563 10.4379 8.7953 10.6252C8.68596 10.5706 8.50946 10.5706 8.38879 10.5921C8.38879 10.7808 8.3113 10.935 8.11313 10.9018C8.0358 11.0012 8.1463 11.1121 8.11313 11.2C8.01413 11.2331 7.8808 11.2 7.8148 11.3109C7.82613 11.4333 7.87063 11.5313 7.90363 11.632C7.55063 11.6091 7.74996 12.0512 7.41846 12.0959C7.3423 12.1954 7.46296 12.2616 7.49596 12.3507C7.07813 12.4936 7.2533 13.0135 6.82413 13.1244C6.76813 13.2785 6.93329 13.2454 6.98913 13.3117C6.97779 13.4556 6.81263 13.5105 6.82413 13.6545C6.84563 13.8431 7.05529 13.676 7.12129 13.7985C7.01079 13.9642 6.98913 14.2075 6.77963 14.2955C6.75679 14.6052 7.07813 14.3961 7.19879 14.4841C7.09963 14.6497 6.96629 14.7938 6.77963 14.8269C6.89013 15.0589 7.1658 14.9811 7.3753 14.9925C7.42996 15.18 7.27496 15.2691 7.3308 15.4564C7.24196 15.6335 7.17596 15.877 6.92313 15.8654C7.0108 16.1203 7.31946 16.021 7.53913 16.0758C7.52896 16.4962 7.69413 16.927 8.0903 17.2036C8.85113 17.5578 9.55596 18.3085 9.64496 19.1597C9.5788 19.5688 9.63346 20.0225 9.2588 20.3093C9.13813 20.3984 9.0048 20.4533 8.86246 20.4864C8.91713 20.675 9.1038 20.7859 9.13813 20.9732C9.20413 21.3491 9.0823 21.7251 8.7953 21.9901C8.68596 22.0564 8.53096 22.045 8.43196 22.1443C8.63013 22.3661 8.80663 22.6311 8.7953 22.951C8.70763 23.095 8.58696 23.2608 8.4548 23.3168C7.68396 23.4825 8.70763 23.9793 8.3443 24.3784C7.62796 24.0355 6.93329 23.3614 6.62596 22.6311C6.16229 21.7366 6.18529 20.7859 6.29446 19.7792C6.44946 19.4261 6.38329 19.0502 6.41646 18.6958C6.43796 18.5303 6.38329 18.3085 6.25129 18.209C6.16229 18.585 6.00863 18.9724 5.67846 19.2044C5.63396 19.1826 5.66696 19.1382 5.65563 19.1049C5.64546 19.0718 5.65563 18.9724 5.58963 18.994C5.11579 19.2924 5.00529 19.8568 4.76279 20.3093C4.71963 20.2544 4.70813 20.1665 4.62046 20.1436C4.54296 20.3538 4.52146 20.5857 4.46679 20.8075C4.39946 20.9732 4.49863 21.2267 4.37796 21.3376C4.34496 21.3045 4.30046 21.2943 4.25729 21.2943V21.3607C4.29029 22.0679 4.34496 22.7535 4.65346 23.3384C4.53279 23.4379 4.37796 23.4277 4.25729 23.527C4.15696 23.6265 3.89396 23.5156 3.91429 23.7143C4.15696 23.9693 4.16829 24.3108 4.44396 24.5657C3.70613 24.7759 3.82663 25.5826 3.23229 25.9701C3.24246 26.1356 3.45196 26.0146 3.52946 26.1472C3.49646 26.5333 3.43046 26.8875 3.19929 27.1857C3.20946 27.3845 3.37579 27.2074 3.47496 27.2521C3.60696 27.3629 3.59563 27.5285 3.66163 27.6725C3.76063 27.9924 3.55113 28.3581 3.74929 28.6334C3.87113 28.7227 3.81529 28.5352 3.89396 28.4908C4.23446 28.9214 4.85163 29.1764 5.06129 29.7179C5.11579 29.8059 5.03963 29.96 5.1273 30.0161C5.24796 29.9385 5.29229 29.8059 5.27079 29.695C5.62263 28.7991 4.70813 27.9262 4.99513 26.9755C5.13746 26.5333 5.54513 26.0911 6.04163 26.0146C6.62596 25.9814 7.1873 25.9483 7.67246 26.2134C7.58363 26.4224 7.35246 26.49 7.14279 26.5116C7.07813 26.6111 7.17596 26.6887 7.24196 26.7435C7.46296 26.8646 7.55063 27.1195 7.53913 27.3629C7.48446 27.6827 7.2203 27.9593 6.9448 28.1033C6.95613 28.3021 7.1658 28.2906 7.2863 28.3799C7.41846 28.5352 7.50729 28.6896 7.47429 28.9112C7.44129 29.0322 7.34229 29.1318 7.24196 29.2311C7.25329 29.4082 7.42996 29.5077 7.53913 29.6172C7.68396 30.7348 8.05729 31.762 8.89563 32.5916C9.86463 33.5092 11.4065 33.587 12.5851 33.0453C13.6113 32.714 13.831 31.6626 14.1181 30.8012C14.1943 30.9221 14.1613 31.1325 14.2273 31.2765C14.503 33.3766 16.7065 34.7032 18.3373 35.6539C19.8245 36.3944 21.2901 37.2903 22.4141 38.6832V38.7609C21.0361 38.8718 19.6708 38.5952 18.2928 38.4512C16.596 38.2409 15.0211 37.9198 13.4018 37.489C13.0055 37.3234 12.5648 37.2686 12.1673 37.1017C12.2333 36.5052 12.6525 35.71 12.0351 35.2334C11.0546 34.493 9.69946 34.637 8.52096 34.5924C7.9253 34.1731 7.17596 33.8634 6.43796 34.0622C6.26263 34.1056 6.16229 34.349 5.93129 34.2726C5.62263 34.1617 5.29229 34.1285 5.01679 33.9514C5.23779 33.1893 5.46896 32.4145 5.79913 31.6957C5.88679 31.4307 5.68863 31.2205 5.52346 31.0663H5.42446C4.66363 30.6024 3.78346 30.4035 2.92363 30.1703C2.41696 30.0825 1.78946 30.2035 1.48096 30.7235C1.21546 31.3211 0.995792 31.9277 0.796292 32.5471C0.533458 33.5539 -0.10671 34.4713 0.0152903 35.5762C0.533457 36.9359 1.96479 37.7771 3.17646 38.4066C3.40879 38.5392 3.63996 38.6385 3.89396 38.7047C4.10229 38.9049 4.38929 38.8934 4.59896 39.0591C4.38929 39.6453 4.17979 40.4302 4.69796 40.9388C5.34696 41.4574 6.11796 41.6907 6.82413 42.0666C8.66313 42.928 10.68 43.3473 12.6296 43.9336C13.0271 44.0227 13.478 44.1324 13.8425 44.1884C16.916 44.8728 20.1776 45.0614 23.307 44.9836C26.5456 44.9621 29.6636 44.5975 32.6598 43.8903C33.8283 43.4697 35.073 43.2479 36.2415 42.8287C36.4725 42.7293 36.7253 42.663 36.9576 42.5521C38.1148 42.1546 39.249 41.6346 40.2726 40.9604C40.8238 40.4736 40.594 39.6784 40.3945 39.1024L40.4821 39.0043C40.8911 38.9151 41.2328 38.6501 41.629 38.5277C42.8953 37.8318 44.4715 36.992 44.9998 35.5329C45.0113 34.4382 44.4715 33.5092 44.2175 32.5036ZM34.0378 27.8268C34.0378 27.8268 35.2076 28.9878 35.3523 29.2451C35.4958 29.5013 35.7321 29.9562 35.7346 30.0825C35.7346 30.0825 35.5593 30.8178 34.6156 30.8661C33.672 30.9146 32.8566 30.1601 32.8885 29.2771C32.9201 28.3939 33.5386 28.1275 34.0378 27.8268ZM30.2491 24.3439C30.2593 24.0432 30.3026 23.7118 30.5795 23.5832C30.8563 23.4557 30.8678 23.4875 30.8678 23.4875C30.8678 23.4875 31.3783 24.3541 31.5396 24.5784C31.6996 24.804 32.477 25.8094 32.905 26.495C32.905 26.495 31.2296 27.9504 31.1548 29.7052C31.1548 29.7052 31.1331 29.2451 31.0696 29.0093C31.005 28.7735 30.9846 28.3989 31.3148 28.218L31.3365 28.0892C31.3365 28.0892 31.0163 28.0141 31.0163 27.8217C31.0163 27.6292 31.2831 27.5961 31.2831 27.4471C31.2831 27.2966 31.0913 27.2546 31.038 27.2444C30.9846 27.2328 30.6963 27.2226 30.568 26.7512C30.441 26.2796 30.046 24.804 30.046 24.804C30.046 24.804 30.2378 24.6434 30.2491 24.3439ZM24.6013 17.8154C24.6013 17.8154 24.7613 17.8956 25.0013 17.8471C25.2413 17.8 25.5296 17.6712 25.5296 17.6712L25.7531 17.8L25.0013 18.5378C25.0013 18.5378 24.826 18.794 25.0178 18.794C25.2096 18.794 25.2578 18.8591 25.2896 18.9393C25.3213 19.0196 25.5615 19.0514 25.6896 19.0196C25.8166 18.9877 26.0733 19.0833 26.105 19.1801L27.3205 19.0196L27.4005 18.9074C27.4005 18.9074 27.2735 18.3455 27.3535 18.1364C27.4335 17.9274 27.6253 18.088 27.817 17.8471C28.0088 17.6063 28.5055 17.2048 28.8406 17.2214C29.1773 17.2367 29.2725 17.5592 29.336 18.0562C29.336 18.0562 29.0655 17.6229 28.569 17.6866C28.0723 17.7516 27.657 17.8154 27.497 18.7468C27.497 18.7468 27.5135 19.0679 27.657 19.2604C27.657 19.2604 27.177 19.4529 26.6016 19.4529C26.025 19.4529 25.1296 19.2758 24.873 19.1151C24.6178 18.9559 24.4895 18.6818 24.5046 18.6015C24.5211 18.5212 24.6978 18.2167 24.6013 17.8154ZM12.3946 29.4376C12.3781 29.6465 12.3628 30.7541 10.7143 30.9298C10.7143 30.9298 9.63346 30.9323 9.53446 30.1933C9.4823 29.8072 10.299 28.7953 10.506 28.6182C10.7143 28.4423 11.2745 27.8931 11.2745 27.8931C11.2745 27.8931 12.1113 28.4295 12.3323 28.7889C12.3323 28.7889 12.4098 29.2286 12.3946 29.4376ZM14.602 27.085C14.5626 27.1424 14.0901 27.3501 14.0585 27.3743C14.0266 27.3999 13.9618 27.4471 14.0825 27.5999C14.202 27.7516 14.3466 27.8879 14.2578 27.9606C14.1701 28.0332 14.1385 28.0575 14.1385 28.0575C14.1385 28.0575 13.9148 28.0727 13.9708 28.1849C14.0266 28.2983 14.146 28.4742 14.2108 28.5468C14.2743 28.6182 14.282 28.7316 14.2578 28.8195C14.2336 28.9075 14.1943 28.9558 14.1866 29.068C14.1778 29.1801 14.1385 29.5574 14.1385 29.5574C14.1385 29.5574 13.9948 28.5225 13.13 27.3501C12.7655 26.8557 12.3628 26.5639 12.3628 26.5639C12.3628 26.5639 12.387 26.4275 12.5623 26.2261C12.7388 26.0261 13.906 24.3324 14.0585 24.0839C14.2108 23.8354 14.3543 23.5537 14.4901 23.5537C14.5868 23.5537 14.9068 23.7551 14.9868 23.875C14.9868 23.875 15.0186 24.5657 15.2268 24.9021C15.2268 24.9021 14.6426 27.0303 14.602 27.085ZM19.8905 7.44183C19.9236 7.44183 19.935 7.47511 19.968 7.49668C19.935 7.54133 19.902 7.59618 19.9121 7.6522C20.0125 7.74017 20.1115 7.80639 20.2436 7.81776C20.3313 7.96192 20.1331 8.17079 20.3313 8.27146C20.4531 8.23835 20.6183 8.16059 20.739 8.24855C20.7288 8.33785 20.6068 8.35943 20.5408 8.41428C20.4088 8.61429 20.2208 8.7469 19.9908 8.71245C19.836 8.6576 19.8905 8.54672 19.8473 8.43719L19.8905 7.44183ZM21.1466 14.1286L20.9611 14.2649L20.8088 15.2666C20.8088 15.2666 20.6398 15.2487 20.6233 15.4526C20.6056 15.6566 20.5383 16.1829 20.4531 16.216C20.3693 16.2504 20.2335 16.2504 20.1496 16.2847C20.0645 16.318 19.9641 16.3688 19.8613 16.3014C19.8613 16.3014 19.7266 11.2612 19.8613 9.78424C19.8613 9.78424 20.6565 9.80079 20.8418 9.73323V9.8518C20.8418 9.8518 20.7415 9.90264 20.6056 9.88608C20.471 9.86953 20.2005 9.8518 20.0823 9.93709V10.9209C20.0823 10.9209 20.3871 10.9388 20.504 11.1082C20.6233 11.2778 20.8418 11.5313 21.0463 11.5148V11.7188C21.0463 11.7188 21.0793 11.8716 21.1466 11.8716C21.2153 11.8716 21.266 11.9047 21.266 12.041C21.266 12.1775 21.1466 14.1286 21.1466 14.1286Z" fill="#231F20"/>
<path d="M23.2181 1.41664L23.2396 1.88054C22.921 1.84743 22.5463 1.80412 22.2148 1.71482C22.1488 1.51615 22.1271 1.2842 22.2376 1.11847C22.5793 1.18469 22.9653 1.20643 23.2181 1.41664Z" fill="#00B6F1"/>
<path d="M21.0361 1.20643C21.0361 1.37199 21.1695 1.71482 20.927 1.73773C20.5625 1.74793 20.2651 1.91366 19.9121 1.94677C19.803 1.80412 19.9236 1.61548 19.8905 1.4613C20.001 1.35042 20.1776 1.39507 20.2881 1.2842C20.5193 1.23955 20.7835 1.09673 21.0361 1.20643Z" fill="#00B6F1"/>
<path d="M23.2181 3.03126L23.2396 3.79334C22.8866 3.73865 22.5576 3.71558 22.1818 3.62778C22.0725 3.38429 22.2046 3.10769 22.1601 2.7764C22.3036 2.74329 22.4801 2.74329 22.6238 2.7764C22.8435 2.80952 23.0315 2.90902 23.2181 3.03126Z" fill="#00B6F1"/>
<path d="M21.0145 2.7764C21.125 3.07458 21.0031 3.30787 21.0361 3.62778C20.6513 3.72712 20.2538 3.79334 19.869 3.92595V3.14097C20.1991 2.86571 20.5738 2.82105 21.0145 2.7764Z" fill="#00B6F1"/>
<path d="M21.9061 1.20643C21.995 1.4715 21.797 1.93657 22.1601 1.99142C22.5348 2.09075 22.9323 2.06918 23.2396 2.3125L23.2181 2.66553C22.8218 2.57757 22.4358 2.44512 22.0065 2.43358C21.8413 2.63242 21.9405 2.98661 21.9061 3.20719L21.863 3.60604C21.6318 3.5169 21.1581 3.81625 21.2686 3.35118C21.2456 3.08612 21.4781 2.65533 21.1351 2.45649C20.7173 2.52288 20.2766 2.57757 19.8905 2.73175V2.3125C20.3096 2.1354 20.739 2.00296 21.2241 1.99142L21.2901 1.9252V1.16312C21.4438 1.04071 21.675 1.11847 21.863 1.09673L21.9061 1.20643Z" fill="#EF3E2E"/>
<path d="M30.5781 2.66553L31.0405 2.58911V2.63242C30.2035 3.694 28.9805 3.91441 27.779 4.13616C26.2701 4.37965 24.915 4.00372 23.4938 3.83799C23.4061 3.67226 23.4606 3.52828 23.4493 3.32944C23.4493 2.75483 23.4276 2.26802 23.4708 1.58237L23.537 1.48287C25.6756 2.47823 28.1206 3.17525 30.5781 2.66553Z" fill="#EF3E2E"/>
<path d="M12.2333 12.1621C12.829 12.914 13.8971 13.4225 13.9301 14.4395C13.7866 14.539 13.6113 14.7263 13.379 14.6281C13.1693 14.4841 12.9711 14.1082 12.6525 14.2522C12.4873 14.3515 12.3883 14.5503 12.4645 14.7376C12.5305 14.8052 12.5305 14.8932 12.5533 14.9696C12.3768 14.9365 12.3108 14.7492 12.2891 14.6052C12.3323 14.4841 12.2218 14.2955 12.1011 14.2075C11.9576 14.1846 11.8155 14.1629 11.705 14.0751C11.5615 13.9093 11.9246 13.5665 11.5728 13.6112C11.3416 13.8533 11.3075 14.3846 10.8565 14.2522C10.7245 14.0304 10.4603 14.3401 10.36 14.0304C10.2063 14.0751 10.0411 14.042 9.9193 13.954C9.70963 13.7322 9.67663 13.4443 9.53446 13.2008H9.48996C9.5013 13.7207 9.73246 14.2522 10.2393 14.5503L10.2608 14.6281C10.1618 14.7492 9.9193 14.5721 9.89763 14.7376C10.0958 14.8485 10.327 14.9149 10.5593 14.8485C10.515 15.0027 10.1403 14.9365 10.36 15.1034C10.5593 15.1251 10.7346 14.9925 10.934 15.0358V15.1034C10.8896 15.1034 10.8666 15.1582 10.835 15.18C10.835 15.2131 10.8781 15.236 10.9111 15.2678C11.0661 15.2908 11.1981 15.0358 11.3416 15.2244C12.7845 15.8323 14.1295 17.2367 14.4153 18.7838C14.8446 19.249 14.8991 19.89 14.9881 20.4646C15.011 20.8954 14.9651 21.2943 14.856 21.6588C14.8013 21.2714 14.9436 20.7744 14.856 20.3984C14.823 20.2429 14.8331 20.0225 14.668 19.9563C14.4928 20.1002 14.635 20.2213 14.6248 20.3984C14.5905 20.7297 14.7125 21.1605 14.4153 21.3376C14.2273 21.3376 14.2501 21.1389 14.1841 21.0178C14.1943 20.5973 14.3161 19.89 13.9085 19.6134C13.831 19.7243 13.9516 19.8683 13.9746 19.9778C13.9848 20.3768 13.9631 20.7528 13.9085 21.1056C13.9186 21.2943 14.0508 21.4154 14.1613 21.548C14.7785 22.1559 15.5608 22.8515 16.0448 23.5934C16.4538 24.3999 15.8251 25.208 16.1336 26.0592C16.1451 26.4236 16.0448 26.8097 15.947 27.1641C15.947 27.7389 16.2111 28.7227 15.5838 29.0986C15.792 28.6003 15.914 28.0039 15.8581 27.4623C15.815 27.4507 15.7806 27.3743 15.7476 27.4407C15.6383 27.6394 15.594 27.8713 15.5165 28.0817C15.4948 27.8051 15.792 27.5847 15.5838 27.3183C15.4835 27.3183 15.3958 27.3183 15.3298 27.3961C15.3411 27.4074 15.3183 27.2966 15.2625 27.275C15.0973 27.3081 15.011 27.5285 14.856 27.5732C14.757 27.5732 14.6908 27.6725 14.602 27.6725C14.8446 27.4074 15.1861 27.2088 15.3513 26.8875C15.4618 26.899 15.6053 26.8773 15.5838 26.7435C15.5278 26.5893 15.5063 26.4122 15.4288 26.2682C15.627 25.6604 15.9355 24.9199 15.5165 24.312C15.627 23.5156 14.8013 23.239 14.2831 22.951C14.0076 22.9191 13.732 22.7751 13.4996 22.5865L13.4018 22.6974C13.2913 22.6427 13.2253 22.4769 13.0816 22.4654C12.9711 22.1559 12.796 21.7799 12.4645 21.6588C12.0796 21.7468 11.7481 21.548 11.4395 21.3822C11.3633 21.4269 11.385 21.5251 11.4065 21.5709C11.5728 22.0564 12.1786 21.7251 12.354 22.2119C12.6195 22.6642 12.9496 23.0071 13.4563 23.1397C13.6545 23.2608 13.9085 23.2721 14.1181 23.383C13.6773 23.7143 13.0601 23.7691 12.5305 23.6596C12.0351 23.6596 11.517 23.5156 11.0433 23.3614C10.9226 23.2721 10.746 23.2721 10.6356 23.1613C10.36 22.9624 9.96363 22.7637 9.94213 22.3763C9.88746 22.101 10.0196 21.9124 10.1071 21.6588C10.581 22.2119 11.2973 22.4107 12.0351 22.4654C12.0466 22.4438 12.091 22.4323 12.0796 22.3992C11.7811 22.2003 11.385 22.2336 11.0661 22.101C10.713 21.957 10.2838 21.7033 10.1516 21.2943C10.1403 20.9732 10.2508 20.6966 10.2393 20.3768C10.8121 20.4979 11.4293 20.3322 11.738 19.8236C11.8701 19.4808 11.804 18.994 11.5285 18.6958C11.3416 18.5748 11.1538 18.4639 10.934 18.441C11.1208 18.3748 11.3416 18.4194 11.5285 18.5303C11.7811 18.5748 11.7926 19.1929 12.0123 18.7622C12.0466 18.5187 11.9691 18.2754 11.8256 18.0766C12.0681 17.9988 11.837 17.7784 11.8485 17.6343C11.705 17.4572 11.451 17.3476 11.5285 17.1041C11.3303 16.7168 10.901 16.4071 10.4933 16.4402C10.581 16.3969 10.7016 16.4518 10.7676 16.3523C10.5593 15.8439 9.89763 16.3078 9.64496 15.7992C8.67463 14.8932 8.69746 13.6876 9.0048 12.4834C9.1598 12.0959 9.48996 11.7531 9.85446 11.4766C10.1071 11.4 10.4818 11.4766 10.6585 11.1452C11.1093 10.9465 11.4853 11.3657 11.8485 11.5875C11.9463 11.7862 12.2003 11.9303 12.2333 12.1621Z" fill="#BBBDBF"/>
<path d="M18.0616 16.9717C18.5251 17.2367 18.679 17.712 19.1641 17.8879C19.4613 18.065 19.7813 18.2983 20.0125 18.5519C19.902 18.585 19.8473 18.6958 19.7368 18.6958C19.5388 18.3748 19.2301 18.1211 18.933 17.9326C18.8885 18.1657 19.2186 18.2868 19.2961 18.4856L19.4396 18.7176C19.3621 18.7405 19.1755 18.9176 19.1641 18.6958C19.0205 18.3977 18.8885 18.088 18.6128 17.8446C18.5583 17.8446 18.4808 17.8446 18.4693 17.9109L18.745 18.8067L18.7005 18.8616C18.5353 18.5519 18.6345 18.0333 18.2928 17.8217C18.1721 17.9886 18.3043 18.1759 18.3601 18.3314C18.3918 18.497 18.4248 18.6743 18.4693 18.8285C18.4148 18.9278 18.3043 18.8387 18.2153 18.8285C18.2496 18.4308 18.1721 18.0217 17.875 17.7338C17.5448 17.8013 17.5105 17.3578 17.2133 17.2252C16.8615 17.015 16.3978 16.7384 16.0016 17.015C15.848 17.2252 15.3843 17.1374 15.5608 17.5235L15.6713 17.8217C15.5063 18.6181 15.5495 19.4146 15.2853 20.1665C15.2078 19.9002 15.1646 19.5917 15.0541 19.3153C15.0211 18.9826 14.724 18.6743 14.8991 18.3314C15.0756 17.8217 15.1748 17.2699 15.3298 16.7384C15.373 16.4518 15.66 16.23 15.9241 16.1638C16.7281 16.2198 17.3123 16.7946 18.0616 16.9717Z" fill="#BBBDBF"/>
<path d="M29.6536 16.3357C29.6548 16.3574 29.6435 16.3906 29.6765 16.4008C29.6878 16.3906 29.6993 16.379 29.698 16.3561C30.0256 16.8048 30.0143 17.4342 30.2771 17.9274C30.3038 18.204 30.5171 18.4768 30.3788 18.7328C30.1553 19.1674 30.1083 19.667 30.0181 20.1436C29.7615 19.3853 29.7133 18.5008 29.5685 17.7184C29.6536 17.563 29.7603 17.3617 29.6471 17.1871C29.6015 17.1322 29.5355 17.1118 29.458 17.1234C29.2015 16.9513 28.9016 16.8021 28.5613 16.908C28.1245 17.0698 27.7878 17.3744 27.5186 17.7553C27.4855 17.7108 27.4081 17.7349 27.3636 17.7349C27.083 18.0167 27.0016 18.4167 27.064 18.7915C26.9876 18.8591 26.8988 18.882 26.8111 18.8731C26.782 18.497 26.9978 18.2283 27.0245 17.8739L26.947 17.8088C26.6536 18.0689 26.7058 18.4983 26.5788 18.8437C26.5571 18.8437 26.5456 18.8666 26.5355 18.8781C26.5406 18.557 26.7336 18.2448 26.7718 17.9007C26.7388 17.8458 26.6828 17.8573 26.6283 17.8587C26.368 18.1288 26.1875 18.4741 26.0491 18.8081C25.9945 18.8425 25.8941 18.7902 25.8395 18.7455C25.903 18.6346 25.978 18.5124 26.0428 18.4002C26.0835 18.255 26.4123 18.139 26.2878 17.9542C26.006 18.19 25.6795 18.4283 25.498 18.752C25.4191 18.7099 25.3518 18.6437 25.263 18.6233C25.3595 18.4232 25.5665 18.3085 25.7188 18.1517C25.8611 18.1378 25.8928 18.0038 26.0123 17.9364C26.3298 17.7988 26.6003 17.5603 26.8048 17.2583C26.9356 17.1678 27.1096 17.0431 27.229 16.9309C28.0748 16.8048 28.7505 15.7648 29.6306 16.2695L29.6536 16.3357Z" fill="#BBBDBF"/>
<path d="M22.3481 17.8662C22.3926 18.0435 22.4801 18.1988 22.4903 18.3977C22.5133 18.6412 22.4471 18.8387 22.3696 19.0387C22.117 19.8007 21.2788 20.3093 20.5853 20.5857C19.3838 20.9732 17.9855 21.0394 16.85 20.4646C16.3978 20.1449 15.881 19.7358 15.947 19.1049C15.881 18.8387 16.0676 18.6743 16.1121 18.441C16.1998 18.2652 16.4093 18.0982 16.6188 18.0766C16.85 18.0102 17.0036 18.1875 17.1688 18.2537C17.3238 18.3863 17.3453 18.5748 17.4011 18.7405C17.4888 19.0387 16.8285 19.4248 17.4011 19.5917C17.5105 19.6134 17.621 19.6352 17.7416 19.6581C18.0185 19.7676 18.3486 19.7358 18.6573 19.7792C19.5603 19.7128 20.5738 19.5688 21.1136 18.7405C21.2686 18.4856 20.9155 18.3085 20.9713 18.0766C20.9371 17.8995 21.0145 17.7784 21.092 17.6127C21.2456 17.3807 21.5213 17.3578 21.7753 17.4025C21.9848 17.5133 22.2376 17.6343 22.3481 17.8662Z" fill="#F0B83D"/>
<path d="M24.2761 17.7784C24.2761 18.0102 24.2976 18.3085 24.111 18.4856C24.0436 18.8285 24.3751 19.0387 24.5948 19.249C25.5538 19.7894 27.0296 19.9778 28.0545 19.4592C28.1091 19.2375 27.9783 19.1597 27.8996 18.994C27.8895 18.706 27.8235 18.5072 28.033 18.2754C28.2425 18.0766 28.5511 17.9886 28.837 18.0982C29.2661 18.3977 29.3653 18.9609 29.2661 19.4592C29.0795 20.0658 28.4851 20.4646 27.8996 20.6533C27.8018 20.6533 27.6696 20.7195 27.5478 20.763C25.8293 21.0725 23.9345 20.7068 22.9425 19.2706C22.6783 18.8169 22.7443 18.0982 23.0631 17.6789C23.2841 17.4572 23.6043 17.3476 23.9116 17.424C24.0335 17.5235 24.21 17.6127 24.2761 17.7784Z" fill="#F0B83D"/>
<path d="M22.8765 17.3145V17.4025C22.3036 17.5465 21.863 17.0596 21.5658 16.6506C21.7308 16.5064 21.9518 16.6289 22.1386 16.6289C22.4471 16.7384 22.733 17.015 22.8765 17.3145Z" fill="#F0B83D"/>
<path d="M23.8125 17.015C23.6258 17.0379 23.4276 17.159 23.2181 17.1807L22.8536 16.7384C23.0086 16.6506 23.2511 16.5397 23.4493 16.6506C23.6143 16.7168 23.7248 16.8722 23.8125 17.015Z" fill="#F0B83D"/>
<path d="M21.4108 17.0379C21.1796 17.0379 21.092 17.2138 20.8825 17.2469L20.3541 16.6951L20.3756 16.6289C20.805 16.5511 21.1796 16.7053 21.4108 17.0379Z" fill="#F0B83D"/>
<path d="M26.2485 16.9055C26.3145 17.0035 26.3145 17.1921 26.2485 17.2916C26.1266 17.3807 26.006 17.5235 25.851 17.424C25.5538 17.2699 25.4661 16.9933 25.2781 16.7384C25.4991 16.6289 25.6973 16.6506 25.9285 16.6506C26.0275 16.7282 26.1811 16.7613 26.2485 16.9055Z" fill="#F0B83D"/>
<path d="M25.103 17.0596C25.103 17.1807 25.2998 17.2252 25.2566 17.3578C25.047 17.5018 24.7715 17.4801 24.5516 17.3807C24.2976 17.2583 24.144 16.9601 24.0221 16.7168C24.2545 16.5728 24.3751 16.7053 24.6393 16.6951C24.8158 16.7715 24.981 16.8939 25.103 17.0596Z" fill="#F0B83D"/>
<path d="M20.4418 17.2469V17.3145C20.024 17.4138 19.4943 17.4687 19.2301 17.0826C19.1856 16.9717 19.2186 16.8391 19.2733 16.7384C19.7483 16.5064 20.1546 16.8608 20.4418 17.2469Z" fill="#F0B83D"/>
<path d="M21.2456 10.2277C21.3118 10.3488 21.2025 10.5373 21.3346 10.6252C21.609 10.5921 22.0725 10.8139 22.1818 10.4379V10.2493C22.3811 10.1831 22.6238 10.206 22.832 10.2277C22.921 10.3488 22.8105 10.615 23.0086 10.6252C23.2396 10.5259 23.6588 10.7477 23.7465 10.4379V10.2277C24.012 10.1169 24.3193 10.2493 24.5948 10.206C24.6508 10.294 24.694 10.4048 24.6393 10.5042C24.5186 10.5475 24.3421 10.5042 24.2976 10.6699C24.2976 10.8572 24.1656 11.0229 24.0221 11.1007C23.9015 11.2116 23.6258 11.0676 23.6373 11.3109C23.6143 11.4 23.6703 11.5097 23.5813 11.5658C22.9095 11.6422 22.1601 11.5989 21.5213 11.5428C21.4336 11.4333 21.5328 11.1898 21.3118 11.1236C21.125 11.0676 20.871 11.1007 20.7618 10.9018C20.7288 10.791 20.7503 10.6699 20.6298 10.5921C20.5625 10.5373 20.4418 10.6252 20.3973 10.5259C20.2766 9.98425 20.9815 10.2277 21.2456 10.2277Z" fill="#BBBDBF"/>
<path d="M23.5598 12.0181C23.5153 12.1621 23.6918 12.5049 23.4061 12.4387L21.642 12.4171C21.5328 12.2832 21.6318 12.1176 21.642 11.9748C22.2148 11.9417 22.8981 11.9417 23.5153 11.9748L23.5598 12.0181Z" fill="#BBBDBF"/>
<path d="M23.5813 12.7598L23.6373 14.3732C23.0631 14.3948 22.2821 14.3732 21.543 14.3515C21.5658 13.8202 21.4883 13.1575 21.609 12.6707L21.6865 12.626L23.5153 12.6489L23.5813 12.7598Z" fill="#BBBDBF"/>
<path d="M23.791 14.6052C23.9015 14.7823 23.824 15.0473 23.8786 15.2462L23.791 15.2908L21.2901 15.2678C21.2456 15.0589 21.2901 14.8269 21.3346 14.6281C22.2046 14.5288 22.954 14.6166 23.791 14.6052Z" fill="#BBBDBF"/>
<path d="M24.1326 15.6552C24.1986 15.7777 24.1986 15.9879 24.1326 16.0974C23.1305 16.0427 22.0166 16.1203 20.993 16.0312C20.9371 15.9203 20.993 15.7559 21.0361 15.6335C22.0941 15.6004 23.1521 15.6004 24.1326 15.6552Z" fill="#BBBDBF"/>
<path d="M21.1136 7.71843C20.9371 7.91727 21.3561 8.1937 21.0145 8.2039C20.927 7.76308 20.2766 8.24855 20.4418 7.69552C20.3973 7.60755 20.1991 7.61909 20.2436 7.51959C20.3541 7.48648 20.4748 7.39734 20.5408 7.28647C20.4201 7.05452 20.1878 7.3858 20.057 7.24316C20.09 7.24316 20.3541 7.26473 20.4201 7.12074C20.3973 6.86722 20.0671 7.05452 19.9121 6.96656L19.869 7.03278C19.7915 6.67858 20.001 6.40198 19.968 6.09361C19.8791 5.98273 20.0125 5.90497 20.0341 5.81701C20.2538 6.49128 21.3231 6.88879 21.1136 7.71843Z" fill="#F0B83D"/>
<path d="M25.9285 7.60755C25.9513 7.70689 25.8955 7.8395 25.8078 7.92864C25.6198 8.09436 25.2668 8.04971 25.2121 8.31478C25.4115 8.4805 25.5538 8.23835 25.7418 8.22698C25.8955 8.23835 26.0491 8.21544 26.1811 8.13768C26.3578 7.98349 26.4136 7.78465 26.5013 7.58598C26.5558 7.54133 26.6333 7.5629 26.6993 7.5629C26.4238 7.88416 26.7985 8.51361 26.3145 8.71245C26.1596 8.78001 25.9285 8.7469 25.785 8.62449C25.6858 8.52515 25.5983 8.40408 25.4661 8.41428C25.3341 8.6474 25.752 8.76848 25.7188 9.01196C25.752 9.23238 25.6528 9.43255 25.4661 9.54209H25.1461C25.2566 9.47586 25.4433 9.45412 25.5093 9.2884C25.6085 9.06665 25.4331 8.90109 25.4001 8.71245C25.2336 8.50341 24.9581 8.41428 24.76 8.45893C24.4526 8.53653 24.0665 8.70225 24.0005 9.05528C23.956 9.31014 23.956 9.65296 23.9345 9.86317C23.7465 9.53055 23.7693 9.02217 24.0005 8.69071C24.144 8.42565 24.5073 8.50341 24.5733 8.18233C24.9365 7.8395 25.6198 8.04971 25.785 7.46357C25.8726 7.46357 25.8726 7.5629 25.9285 7.60755Z" fill="#F0B83D"/>
<path d="M21.5658 8.37097C21.5328 8.52515 21.4336 8.7469 21.5658 8.88955C21.7308 8.91246 21.797 8.70225 21.9405 8.6474L22.4358 8.54673C22.2148 8.69071 22.0065 8.91246 21.7753 9.03354C21.6978 9.07819 21.675 8.96731 21.609 8.96731C21.4781 9.04508 21.5111 9.25529 21.3346 9.31014C21.3893 9.2108 21.4438 9.08973 21.4108 8.98905C21.3778 8.96731 21.3561 8.92266 21.3118 8.94574C21.1911 9.05528 21.1911 9.2108 21.059 9.31014C21.026 9.24391 21.059 9.1113 20.9485 9.05528C20.7618 9.07819 20.8596 9.565 20.6298 9.26549C20.5078 9.25529 20.4531 9.40947 20.3541 9.44258C20.3973 9.40947 20.3973 9.22217 20.2651 9.19926L20.0341 9.37636L20.0125 9.16615C19.836 9.08973 19.7255 9.31014 19.5933 9.37636C19.5273 9.25529 19.9908 9.17752 19.7368 9.01196C19.5933 8.98905 19.5273 9.16615 19.3951 9.16615C19.4613 8.95577 19.7153 9.03354 19.7813 8.84624C19.9781 8.96731 20.2766 8.92266 20.4633 8.80159C20.7503 8.4703 21.1796 8.38117 21.5658 8.37097Z" fill="#F0B83D"/>
<path d="M22.8105 8.84624C22.7443 9.08973 22.7228 9.47586 22.832 9.71918V9.88491C22.5348 9.9396 22.1271 9.86317 21.9061 9.95114C21.8515 10.1067 21.929 10.2277 21.8413 10.3717L21.5658 10.3488C21.4781 10.206 21.6648 9.9396 21.4108 9.88491C21.3561 9.90649 21.2686 9.90648 21.2241 9.84026C21.2025 9.64142 21.3893 9.59694 21.5213 9.52035C21.7308 9.25529 22.0611 9.16615 22.2821 8.92266C22.4573 8.88955 22.6123 8.7469 22.7113 8.5698C22.9323 8.55826 22.7443 8.7469 22.8105 8.84624Z" fill="#F0B83D"/>
<path d="M23.6805 4.9658C23.758 4.92115 23.7465 4.80007 23.857 4.84338C24.078 4.98754 23.956 5.48572 24.3421 5.35194C24.4741 5.58389 23.8685 5.54057 24.111 5.81701C24.1871 5.7941 24.2976 5.77252 24.3193 5.8834C24.3091 5.99427 24.3421 6.14846 24.21 6.18157H24.1541C24.1541 6.09361 24.2761 5.98273 24.1326 5.92671C24.0335 5.90497 24.0005 5.98273 23.956 5.8834C23.9675 5.82721 24.0665 5.77252 24.0005 5.69476C23.8786 5.67302 23.7693 5.46281 23.6373 5.6068C23.5598 5.56215 23.6043 5.4297 23.4938 5.44107C23.4061 5.41816 23.307 5.48572 23.2396 5.56215C23.2066 5.27551 23.1851 5.04222 23.2626 4.73251C23.4276 4.76696 23.5153 4.95426 23.6805 4.9658Z" fill="#F0B83D"/>
<path d="M19.9121 5.39659C19.648 5.49592 19.968 5.7941 19.7368 5.92671C19.7483 6.11535 19.803 6.26953 19.6925 6.43643C19.5273 6.32556 19.4498 6.12672 19.3723 5.94962C19.4396 5.72787 19.4943 5.47435 19.6365 5.30862L19.6925 5.14173C19.803 5.17601 19.836 5.31882 19.9121 5.39659Z" fill="#F0B83D"/>
<path d="M22.7558 5.49592C22.7558 5.52903 22.7558 5.617 22.832 5.65011H22.8981C22.921 5.71767 22.832 5.70613 22.832 5.76098C22.8218 5.87186 22.9095 5.97119 23.0086 5.99427C23.086 6.00447 23.1406 5.99427 23.1953 5.94962C23.1076 5.98273 22.987 6.08207 22.8765 6.03758C22.7113 5.96116 22.921 5.67302 22.6898 5.65011C22.5348 5.78389 22.6238 6.03759 22.5133 6.15983C22.4688 6.3473 22.2923 6.51286 22.3926 6.73461C22.3366 6.95502 22.1386 6.97809 21.962 7.05452C21.764 7.09917 21.5543 7.09917 21.3893 7.18697C21.4666 6.72323 22.1386 6.92191 22.2591 6.43643C22.1055 6.31402 21.9848 6.54597 21.8413 6.59062L21.609 6.66838C21.5873 6.55751 21.6865 6.458 21.7525 6.36887C21.8845 6.32556 22.0395 6.17003 22.1818 6.26953C22.3036 6.25933 22.2478 6.10381 22.2376 6.03758C22.117 5.92671 22.1601 5.78389 22.2148 5.65011L22.2591 5.6068C22.3151 5.69476 22.4028 5.78389 22.5133 5.7941C22.6453 5.66165 22.4243 5.4297 22.6008 5.28571C22.6898 5.35194 22.8536 5.31882 22.7558 5.49592Z" fill="#F0B83D"/>
<path d="M22.7888 7.12074C22.6123 7.35403 22.4573 7.54133 22.4573 7.81776C22.5018 7.87262 22.5576 7.89553 22.6238 7.88415C22.4688 8.23835 22.0611 8.18233 21.8185 8.41428C21.83 8.09436 22.3253 7.95038 22.3481 7.58598C22.3151 7.54133 22.2821 7.52979 22.2376 7.54133C22.051 7.76308 21.8083 7.98349 21.642 8.22698C21.5111 7.93884 22.1386 7.71843 22.051 7.28647C22.3253 7.31958 22.5348 6.70149 22.7888 7.12074Z" fill="#F0B83D"/>
<path d="M21.797 7.33095C21.8745 7.6522 21.4336 7.77328 21.3663 8.03834C21.2571 7.89553 21.2788 7.77328 21.3346 7.58598C21.4006 7.38581 21.609 7.34249 21.797 7.33095Z" fill="#F0B83D"/>
<path d="M23.1953 6.54597C23.1851 6.60216 23.1305 6.62373 23.1076 6.66838H23.0086C22.987 6.60216 23.053 6.56771 23.0631 6.5244C23.1076 6.5346 23.1623 6.51286 23.1953 6.54597Z" fill="#F0B83D"/>
<path d="M24.0436 6.77792C24.078 6.84414 24.0005 6.84414 23.979 6.86722C23.857 6.86722 23.8468 6.73461 23.8125 6.64547C23.8125 6.60216 23.824 6.52439 23.8786 6.54597C23.8786 6.64547 23.956 6.74481 24.0436 6.77792Z" fill="#F0B83D"/>
<path d="M23.7033 6.94482C23.8023 7.03278 23.89 7.12074 23.8786 7.26473C23.8685 7.25336 23.857 7.23162 23.8353 7.24316C23.824 7.30938 23.8786 7.3756 23.791 7.44183C23.6703 7.31958 23.758 7.00987 23.537 6.94482C23.3946 7.04298 23.5268 7.19851 23.5153 7.33095C23.4163 7.22008 23.1953 7.16539 23.2841 6.9883C23.3946 6.92191 23.4391 6.74481 23.5813 6.71169L23.7033 6.94482Z" fill="#F0B83D"/>
<path d="M23.3388 7.69552C23.2295 7.59618 23.2626 7.44183 23.1305 7.35403C23.2396 7.40872 23.3501 7.5527 23.3388 7.69552Z" fill="#F0B83D"/>
<path d="M23.1305 8.03834L23.0631 8.18233C23.1191 7.95038 22.6783 7.76308 23.0315 7.58598C23.0961 7.72863 23.1953 7.88416 23.1305 8.03834Z" fill="#F0B83D"/>
<path d="M22.8421 6.44663L22.7406 6.37021C22.7406 6.37021 22.714 6.45934 22.7646 6.5244C22.8168 6.58811 22.8421 6.44663 22.8421 6.44663Z" fill="#F0B83D"/>
<path fill-rule="evenodd" clip-rule="evenodd" d="M23.4265 6.35482C23.4265 6.35482 23.5585 6.25549 23.6626 6.25298C23.6258 6.25666 23.5166 6.2605 23.5166 6.2605C23.5166 6.2605 23.4645 6.17639 23.4645 6.01584C23.4328 6.19043 23.3806 6.2988 23.3806 6.2988L23.4265 6.35482Z" fill="#F0B83D"/>
<path d="M35.139 11.4C35.6126 11.5428 36.0535 12.041 36.2185 12.5049C36.5386 13.7436 36.4281 15.1365 35.3485 15.9534C35.0298 16.0312 34.6005 15.9534 34.4556 16.3078C34.4886 16.4518 34.6436 16.3078 34.7096 16.4186C34.335 16.374 34.015 16.6391 33.7623 16.927C33.7393 17.0481 33.6301 17.1705 33.6733 17.2916C33.4536 17.4801 33.2771 17.6904 33.3101 17.9771C33.333 18.0217 33.3761 18.0333 33.4206 18.0333C33.2555 18.2652 33.145 18.585 33.2885 18.8285C33.3101 18.8616 33.333 18.8947 33.3761 18.8831C33.5196 18.6296 33.6961 18.4525 33.9705 18.3748H34.3121C34.015 18.4639 33.6518 18.585 33.5413 18.9278C33.399 19.1929 33.399 19.5357 33.5413 19.8007C33.8055 20.1767 34.2475 20.4202 34.7541 20.3768L34.984 20.3093C35.007 20.7412 35.2495 21.2714 34.8633 21.5925C34.4341 22.0895 33.8168 22.1559 33.2338 22.2883C33.211 22.31 33.1666 22.333 33.1666 22.3763C33.333 22.5101 33.5298 22.3214 33.7393 22.3545C34.2475 22.2003 34.7541 22.0564 35.139 21.6142C35.2596 21.9022 35.393 22.2883 35.205 22.5865C34.984 22.8413 34.6766 23.095 34.3566 23.2059C33.5856 23.5716 32.6496 23.7589 31.7453 23.615H31.6793C31.6361 23.5601 31.5256 23.5601 31.4481 23.527C31.3706 23.4161 31.1395 23.4939 31.151 23.3168C31.8888 23.1511 32.6381 22.7637 32.9913 22.0564C33.1996 21.7135 33.8168 21.9239 33.8613 21.3822C33.7393 21.2943 33.6301 21.46 33.5081 21.5033C33.244 21.5709 33.0345 21.669 32.7588 21.6142C32.4286 21.7468 32.2635 22.1125 32.1873 22.4209C32.0438 22.4323 31.9765 22.598 31.8673 22.6529C31.7021 22.4107 31.5358 22.8082 31.3605 22.8413C31.1941 22.886 31.0951 22.8515 30.9415 22.9306C30.5223 23.1842 29.9165 23.383 29.7741 23.936C29.8175 24.4228 29.4211 24.8205 29.5748 25.2513C29.6193 25.7164 30.0715 26.1905 29.707 26.6556C29.6636 26.7551 29.7741 26.8315 29.8403 26.843C29.9825 26.7882 29.994 26.9322 30.0498 26.9984C30.2365 27.219 30.5006 27.3961 30.7216 27.5949C30.4676 27.6165 30.2251 27.4074 30.0715 27.2303C30.0385 27.2634 29.9596 27.2634 29.9596 27.3183C30.126 27.6063 30.2581 27.9924 30.5998 28.1033C30.6441 28.1364 30.6111 28.2028 30.6658 28.2142C30.6886 28.0931 30.831 28.1695 30.8983 28.1695C30.9198 28.2028 30.9528 28.2142 30.9415 28.2473C30.4231 28.3913 30.2365 27.8268 29.9825 27.5069C29.994 27.4074 29.9495 27.3183 29.8733 27.275C29.7741 27.275 29.6636 27.275 29.6408 27.3629C29.7513 27.916 29.905 28.5021 30.3901 28.9112C29.7741 28.6334 29.8288 27.8931 29.5418 27.3961C29.4758 27.3629 29.4211 27.4407 29.4096 27.484C29.4326 28.0484 29.4986 28.6003 29.7513 29.0655C29.3983 28.9991 29.3766 28.5901 29.2991 28.3137C29.2446 27.6725 29.444 27.0532 29.1785 26.49C29.19 25.8159 29.2661 25.0194 29.1125 24.3337C29.1685 24.0355 29.157 23.7041 29.2991 23.4379C29.5533 23.1066 29.8073 22.7867 30.1146 22.5101L30.1488 22.5318L30.2365 22.3545L31.2945 21.2943C31.3491 20.8406 31.1941 20.2991 31.3161 19.8236C31.3161 19.7459 31.4481 19.6581 31.3376 19.5917C31.151 19.6683 31.1281 19.89 31.0633 20.0556C31.0176 20.4864 31.151 20.907 30.9415 21.2714C30.7763 21.3491 30.7103 21.26 30.6658 21.1056C30.6658 20.763 30.5668 20.4533 30.6658 20.1449C30.6773 20.0658 30.6543 19.9996 30.5998 19.9333C30.3686 19.9894 30.4791 20.266 30.4231 20.4202V21.6359C30.159 20.6188 30.2365 19.5357 30.8753 18.6514C31.1281 17.303 32.209 15.9879 33.4866 15.4233C33.7291 15.3353 33.9705 14.9696 34.2475 15.2244C34.2906 15.2244 34.335 15.2131 34.3566 15.18C34.3781 15.0805 34.269 15.1034 34.2475 15.0358C34.4125 14.8816 34.6323 15.1582 34.8863 15.0589C34.9295 15.0473 34.9078 15.0027 34.9078 14.9696C34.8303 14.9034 34.7313 14.9149 34.6538 14.8269C34.8965 14.9034 35.172 14.8154 35.3041 14.6497C35.1835 14.5721 35.0628 14.7045 34.9636 14.6052C35.0298 14.4624 35.205 14.307 35.3485 14.1846C35.4921 13.8647 35.8108 13.5551 35.6901 13.1792C35.5136 13.2339 35.5466 13.4556 35.4806 13.5883C35.3701 13.7322 35.36 13.9642 35.139 13.9973C34.9523 13.9973 34.7973 13.9858 34.6538 14.1629C34.4785 14.0189 34.3451 14.3515 34.1585 14.2293C33.8055 14.1528 33.8498 13.7105 33.5641 13.5665C33.4091 13.7322 33.6733 14.0966 33.333 14.1413C33.1666 14.1744 32.9798 14.2406 32.9125 14.4179C32.924 14.6281 32.9355 14.86 32.7156 14.948L32.6381 14.9263C32.7156 14.7823 32.8363 14.6281 32.7588 14.4395C32.7373 14.3184 32.5938 14.2624 32.5061 14.2075C32.0438 14.1528 31.7683 15.0027 31.3161 14.4624C31.2398 13.1906 32.8033 12.7931 33.1895 11.7531C33.5413 11.4218 33.949 11.0458 34.4556 11.0789C34.6653 11.2116 34.8418 11.4435 35.139 11.4Z" fill="#BBBDBF"/>
<path d="M35.5796 23.6379C34.8088 24.4777 33.7393 24.8205 32.6381 24.7428C32.3626 24.6879 32.1746 24.6103 31.9105 24.5108C31.6246 24.3668 31.5256 24.0571 31.3821 23.8023C32.5721 24.0571 33.7838 23.8138 34.7541 23.2275C34.9738 23.0402 35.205 22.8631 35.4361 22.6758C35.5466 22.974 35.7995 23.3168 35.5796 23.6379Z" fill="#BBBDBF"/>
<path d="M36.009 24.0355C36.0978 24.1897 36.0865 24.4115 36.0535 24.5886C35.6901 25.2627 34.918 25.5379 34.203 25.6604C33.4206 25.6488 32.3956 25.8375 32.0655 24.8867L32.0438 24.8638C32.2533 24.8423 32.5391 25.0078 32.825 24.9747C33.9603 25.0638 35.0628 24.5886 35.7778 23.7374C35.9543 23.7589 35.91 23.9476 36.009 24.0355Z" fill="#BBBDBF"/>
<path d="M36.4725 25.1633C36.5601 25.4946 36.2846 25.6819 36.1525 25.9152C35.3485 26.5231 34.114 26.9322 33.1666 26.3574C33.046 26.1803 32.9025 26.0146 32.8033 25.8259C33.3215 25.8706 34.0048 26.0477 34.5661 25.849C35.073 25.7381 35.5023 25.4731 35.9213 25.1404C36.0318 25.0194 36.1423 24.8307 36.2846 24.7874L36.4725 25.1633Z" fill="#BBBDBF"/>
<path d="M36.8358 26.1025C36.7481 26.6887 36.0865 27.1641 35.5581 27.3183C35.0298 27.4738 34.3236 27.5616 33.8841 27.1641L33.6085 26.843C34.048 26.8315 34.6653 26.8875 35.1175 26.7002C35.4691 26.6224 35.8223 26.3791 36.1525 26.1905C36.3405 26.0248 36.4395 25.7712 36.6593 25.6386C36.7583 25.7712 36.7481 25.9585 36.8358 26.1025Z" fill="#BBBDBF"/>
<path d="M37.0681 26.7882C37.1558 27.0417 37.1115 27.3629 36.9235 27.5516C36.484 28.1479 35.7346 28.325 35.007 28.1926C34.7096 28.1033 34.5218 27.9376 34.335 27.6942C35.327 27.8051 36.4496 27.4623 36.9018 26.49C37.0123 26.5333 37.001 26.7002 37.0681 26.7882Z" fill="#BBBDBF"/>
<path d="M37.199 28.3352C36.7811 28.8769 36.009 28.9329 35.4146 28.822C35.2495 28.7558 35.139 28.5901 35.0513 28.4461C35.8655 28.5685 36.7698 28.2804 37.2333 27.5069C37.354 27.7491 37.3756 28.1033 37.199 28.3352Z" fill="#BBBDBF"/>
<path d="M37.3655 29.2095C36.9235 29.5191 36.263 29.607 35.7563 29.3968C35.6356 29.3522 35.6241 29.2095 35.5581 29.1202C36.2083 29.1431 36.9576 29.0655 37.387 28.4461C37.4861 28.6679 37.5076 29.0107 37.3655 29.2095Z" fill="#BBBDBF"/>
<path d="M37.2981 30.0378C36.9576 30.248 36.418 30.2264 36.0318 30.0607C35.9658 29.96 35.8553 29.8505 35.8998 29.7396C36.4395 29.839 36.9895 29.695 37.4315 29.4184C37.387 29.5739 37.5305 29.9167 37.2981 30.0378Z" fill="#BBBDBF"/>
<path d="M37.2536 30.6355C36.9463 30.889 36.4611 30.8343 36.131 30.6801C35.9988 30.5795 36.0433 30.4915 36.0318 30.336C36.4065 30.4469 36.9576 30.5362 37.321 30.2698C37.3311 30.3806 37.3095 30.5246 37.2536 30.6355Z" fill="#BBBDBF"/>
<path d="M37.133 30.9554C37.0783 31.1772 36.9576 31.3645 36.8358 31.5531C36.583 31.5976 36.2846 31.6078 36.1093 31.3976C36.0433 31.2318 35.9543 31.1108 36.0535 30.9337C36.3951 31.0445 36.7926 31.121 37.133 30.9554Z" fill="#BBBDBF"/>
<path d="M36.4065 31.785C36.4941 31.7187 36.6148 31.7404 36.7036 31.762C36.23 32.4145 35.5796 32.9129 34.8418 33.0453C34.3236 33.0339 33.8168 33.2326 33.465 32.802C33.399 32.6363 33.4751 32.4705 33.5856 32.3381C34.1801 31.8958 34.8863 31.8958 35.5581 31.6193L35.5796 31.6524C35.426 31.9621 35.0843 32.2272 34.7973 32.4043V32.4705C35.106 32.57 35.2926 32.2272 35.5796 32.171C35.6126 32.3597 35.8223 32.3597 35.9441 32.3814C35.9658 32.3597 36.009 32.3381 36.009 32.2934C35.8896 32.2055 35.7448 32.161 35.7118 31.9953C35.7676 31.8295 35.7893 31.6524 35.9441 31.53C36.0433 31.6855 36.23 31.7518 36.4065 31.785Z" fill="#BBBDBF"/>
<path d="M34.081 10.4826L33.949 10.3488L33.8841 10.4379C33.916 10.4597 33.8943 10.5042 33.9058 10.5259C33.8283 10.3271 33.7623 10.0951 33.7838 9.88491C33.9388 10.062 34.0595 10.2493 34.081 10.4826Z" fill="#BBBDBF"/>
<path d="M33.5641 10.6915C33.5856 10.7361 33.4308 10.6037 33.399 10.7361V10.847C33.3 10.7361 33.1996 10.5921 33.267 10.4379C33.3876 10.4597 33.5081 10.5706 33.5641 10.6915Z" fill="#BBBDBF"/>
<path d="M29.6853 20.1449C29.7513 20.6419 29.994 21.0612 30.093 21.548C29.8733 21.7366 29.5863 21.4371 29.4326 21.7366C29.0693 22.189 29.6091 22.9408 29.0465 23.3168C28.7265 24.0138 28.9475 24.8969 28.969 25.5724C28.8928 26.0809 28.903 26.6658 29.0693 27.2088C28.5613 25.1735 27.5808 23.0071 28.4953 20.907C28.7378 20.5093 29.124 20.0773 29.6193 20.0773L29.6853 20.1449Z" fill="#F0B83D"/>
<path d="M35.139 10.206C35.205 10.4264 34.918 10.6252 35.1175 10.7579C35.36 10.5819 35.3485 10.1169 35.7346 10.0951C35.7346 10.3488 35.5796 10.5921 35.5353 10.847L35.5796 10.9018C35.8553 10.7361 35.8553 10.3717 36.197 10.3155C36.2185 10.6037 36.009 10.847 35.9213 11.1007C36.0978 11.1783 36.1525 10.9465 36.3075 10.8687C36.4065 10.8356 36.484 10.7477 36.6046 10.7808C36.517 11.0127 36.2083 11.1783 36.263 11.4218C36.484 11.4218 36.583 11.0574 36.8358 11.0789C36.7253 11.3224 36.3735 11.4549 36.4725 11.7199C36.7138 11.6753 36.8358 11.344 37.1115 11.4C37.0453 11.632 36.5716 11.7862 36.7253 12.0743C36.8916 12.0297 37.001 11.8194 37.199 11.8639C37.034 11.9965 36.7036 12.1405 36.7698 12.3941C37.0123 12.3278 37.2105 12.0297 37.4746 12.1405C37.4428 12.217 37.2981 12.2514 37.321 12.3725C37.3425 12.4936 37.4746 12.4604 37.5521 12.5267C37.3655 12.4272 37.166 12.5165 37.0225 12.626C37.0681 12.8033 37.2765 12.6489 37.3655 12.7598C37.3095 12.7815 37.2333 12.7598 37.199 12.8262C37.2536 12.9917 37.4645 13.0351 37.6398 13.0351C37.8276 13.1244 37.9153 13.3117 38.0043 13.4774C37.6956 13.4774 37.5635 13.2008 37.2765 13.1792C37.2105 13.1792 37.1775 13.2785 37.2333 13.3117C37.4861 13.5767 37.9713 13.7436 37.9815 14.1629C37.7058 14.0304 37.4645 13.8087 37.133 13.7985C37.0453 14.0189 37.3425 14.0304 37.453 14.1413C37.6068 14.2853 37.7388 14.4395 37.7731 14.6281C37.5736 14.4293 37.3095 14.1846 37.0225 14.2075C36.9793 14.2406 37.001 14.307 37.001 14.3515C37.034 14.451 37.1445 14.3948 37.199 14.4395C37.6728 14.7492 37.5966 15.3353 37.8061 15.7776C37.3425 15.6233 37.3655 15.0473 36.9235 14.8816C36.7698 15.0358 37.0898 15.18 37.133 15.3353C37.354 15.733 37.4975 16.286 37.2765 16.7168C36.6593 17.3361 35.7231 17.6242 35.5353 18.5303C35.2596 19.1597 34.302 19.0502 34.335 19.8454C34.1801 19.7128 34.2791 19.491 34.3121 19.3368C34.5548 18.8731 35.2165 19.0604 35.3485 18.5519C35.3155 18.497 35.2596 18.5072 35.205 18.5072C34.7973 18.8387 34.0708 18.9176 33.9933 19.5688C33.9705 19.7359 34.081 19.8568 34.114 20.0111C33.9058 19.9116 33.7508 19.6581 33.7178 19.4363C33.7393 19.1266 33.8841 18.8616 34.1801 18.7176C34.6093 18.6067 35.1175 18.5187 35.4806 18.1657C35.4921 18.1211 35.4806 18.0766 35.4361 18.0548C35.1505 18.1543 34.8088 18.2537 34.5001 18.1428C34.17 18.0102 33.7953 18.1759 33.5081 18.353C33.5081 18.1759 33.6733 18.0435 33.8055 17.9326C34.368 17.7236 34.918 18.1097 35.5353 18.0102C35.6026 17.944 35.6673 17.8548 35.6458 17.7338C35.7563 17.6904 35.8998 17.6343 35.9441 17.5235C35.8336 17.4687 35.6241 17.5235 35.4806 17.4801C35.0958 17.3361 35.1288 16.7946 34.6538 16.783H34.2475C34.3896 16.6506 34.6093 16.6506 34.7973 16.6951C35.3041 16.8722 35.4146 17.6789 36.075 17.3807C36.1525 17.3247 36.2745 17.3578 36.329 17.2469L36.2415 17.159C36.0205 17.1259 35.7563 17.2138 35.5796 17.0826C35.3701 16.8162 35.3485 16.4518 35.0298 16.2529C35.1948 16.23 35.3701 16.2976 35.5353 16.374C35.8438 16.7282 36.1855 17.1488 36.7036 16.9717C36.7698 16.927 36.8688 16.927 36.9235 16.8277L36.9018 16.7613C36.583 16.7168 36.0865 16.8277 35.9213 16.4186C35.8655 16.3409 35.9213 16.2645 35.9441 16.1854C36.1741 16.43 36.5271 16.7499 36.9576 16.6289C37.0681 16.5295 37.3095 16.5626 37.321 16.3523C37.1775 16.1638 37.0568 16.4071 36.9018 16.3969C36.7138 16.4071 36.5271 16.3969 36.4065 16.2529C36.1741 15.6552 36.8916 15.2793 36.8141 14.6497C37.0453 13.4225 36.7583 11.9188 35.6026 11.1452C35.3041 10.9796 34.984 10.8356 34.6538 10.7361C34.5661 10.559 34.8088 10.4379 34.8863 10.3155C34.918 10.1946 35.007 10.0838 34.984 9.9294C35.0628 9.98425 35.106 10.1067 35.139 10.206Z" fill="#F0B83D"/>
<path d="M35.205 17.7338C34.7428 17.8662 34.3566 17.1259 33.8055 17.424C34.015 17.1921 34.335 17.2138 34.6093 17.2699C34.8531 17.3578 34.9295 17.712 35.205 17.7338Z" fill="#F0B83D"/>
<path d="M35.9875 20.531C35.91 20.8623 35.7346 21.3491 35.9658 21.6804C36.0648 21.9022 36.263 22.0564 36.4281 22.2119C36.2528 22.5101 36.0978 22.8746 36.329 23.1842C36.4725 23.4492 37.0123 23.4608 36.6821 23.8252C36.5931 24.024 36.6046 24.1897 36.6046 24.4228C35.9988 23.0848 35.426 21.6359 35.5023 20.1002C35.6458 20.2544 35.7995 20.4646 35.9875 20.531Z" fill="#F0B83D"/>
<path d="M37.321 25.2513C37.2765 25.5164 37.0225 25.7483 37.1775 26.0363C37.2981 26.2567 37.4975 26.4569 37.7058 26.5664C37.6068 26.7551 37.5521 26.9755 37.4746 27.187C37.1888 26.3905 37.0453 25.5277 36.7253 24.7428C36.8916 24.953 37.1228 25.0856 37.321 25.2513Z" fill="#F0B83D"/>
<path d="M37.8938 28.0817L37.6626 28.3352C37.6068 28.1148 37.5966 27.8713 37.5736 27.6394C37.6525 27.8382 37.8276 27.8713 37.8938 28.0817Z" fill="#F0B83D"/>
<path fill-rule="evenodd" clip-rule="evenodd" d="M29.4453 19.7588C29.3741 19.7803 29.5265 19.6479 29.5366 19.5663C29.5468 19.4835 29.5875 19.7497 29.5875 19.7497C29.5875 19.7497 29.5165 19.7395 29.4453 19.7588Z" fill="#231F20"/>
<path d="M33.6301 17.8013L33.7178 17.7338H33.7838L33.6301 17.8013Z" fill="#BBBDBF"/>
<path d="M34.9295 19.5472C35.0171 19.7014 34.9636 19.9002 34.984 20.0773C34.918 20.1767 34.8201 20.0773 34.7541 20.0773C34.6208 19.9894 34.5446 19.8352 34.6093 19.6797C34.6653 19.6019 34.6881 19.4808 34.7758 19.4363C34.8863 19.3917 34.8748 19.5357 34.9295 19.5472Z" fill="#F0B83D"/>
<path d="M34.1801 11.9086C34.302 11.8639 34.4455 11.897 34.5446 11.9748C34.6005 12.0959 34.4556 12.1074 34.4125 12.1621C33.949 12.273 33.5856 12.7598 33.0573 12.5049C33.079 12.3827 33.178 12.2832 33.2338 12.1621C33.3215 12.041 33.4421 11.9303 33.5856 11.8857C33.7838 11.897 34.0048 12.1838 34.1801 11.9086Z" fill="#231F20"/>
<path d="M37.4315 25.8043C37.3425 25.5048 38.1478 25.074 37.4315 25.0194C37.2981 24.9301 37.133 24.8423 37.0681 24.6765C37.4975 24.577 37.937 24.5108 38.4005 24.4662C38.4666 24.5108 38.5656 24.4892 38.6203 24.5657C38.7523 24.6319 38.7193 24.8307 38.6976 24.953C38.5771 25.074 38.4436 25.2296 38.323 25.2958C38.323 25.3404 38.2355 25.4067 38.323 25.4398C38.0563 25.603 37.5191 25.7826 37.4315 25.8043Z" fill="#BBBDBF"/>
<path d="M39.0178 18.9507C39.2273 19.1597 39.3696 19.4363 39.6566 19.5688C39.7226 19.5586 39.7556 19.491 39.7773 19.4363C40.0758 19.7792 40.1965 20.2544 40.373 20.675C40.4173 20.675 40.472 20.6864 40.505 20.6304C40.6256 20.9503 40.5495 21.2383 40.5698 21.6142C40.7908 21.9786 40.6485 22.4769 40.5266 22.8413C40.4491 23.1511 40.0758 23.2173 39.9983 23.527C40.1088 23.6596 40.1965 23.527 40.317 23.5041C40.5813 23.4608 40.7806 23.5601 40.9673 23.6927C40.8796 23.9693 40.7031 24.2675 40.4173 24.3999C40.3513 24.4228 40.3285 24.4892 40.3513 24.5657C40.5698 24.7326 40.8911 24.665 41.0778 24.9301C41.309 25.1736 41.3966 25.4731 41.5185 25.7597C41.2988 25.8706 41.53 26.0694 41.497 26.2351C41.4626 26.49 41.8043 26.8097 41.5185 27.0201C41.4411 27.3081 41.342 27.5847 41.3535 27.8931C41.1108 28.181 41.0333 28.5352 40.6701 28.701C40.472 28.822 40.284 29.0322 40.1418 29.2095C40.0313 28.9878 40.2408 28.7456 40.2295 28.4908C40.3945 27.9593 40.7248 27.4407 40.505 26.8213C40.3615 26.2465 39.8763 25.8043 39.315 25.6604C38.7638 25.5941 38.191 25.5941 37.7058 25.7381C37.6181 25.7597 37.5191 25.7826 37.4315 25.8043C37.8608 25.645 38.05 25.5583 38.323 25.4398C38.5656 25.2729 38.9186 25.1187 38.9733 24.7874C38.9403 24.6536 38.9288 24.4994 38.8526 24.3784C38.5771 24.1235 38.2685 24.2891 37.937 24.2344L37.453 24.2891C38.323 23.7041 38.9848 22.742 39.1498 21.6804C39.2591 20.7859 39.061 19.8236 38.9733 18.9507H39.0178Z" fill="#F0B83D"/>
<path d="M39.4255 19.6352C39.8331 20.8508 39.6896 22.245 39.1943 23.3614C39.1498 23.4492 39.0508 23.5601 38.9518 23.4825C38.8743 23.3052 39.0393 23.1179 39.127 22.951C39.4585 22.0564 39.6781 21.028 39.381 20.0556C39.3265 19.9002 39.282 19.7359 39.3366 19.5688C39.3696 19.5688 39.4026 19.6134 39.4255 19.6352Z" fill="#231F20"/>
<path d="M40.2078 21.404V21.4816H40.1418V21.3607C40.1735 21.3607 40.2078 21.3709 40.2078 21.404Z" fill="#231F20"/>
<path d="M39.9321 23.0186C39.7671 23.2275 39.6897 23.5716 39.381 23.615C39.249 23.3282 39.668 23.2059 39.7226 22.9306C39.9653 22.5534 40.0198 22.101 40.119 21.6588L40.185 21.6142C40.2078 22.101 40.0758 22.5763 39.9321 23.0186Z" fill="#231F20"/>
<path d="M40.9241 25.5941C41.1668 25.993 41.2873 26.5333 41.1668 26.9984C41.0778 26.8773 41.154 26.7664 41.0995 26.634C41.0003 26.0694 40.7361 25.5379 40.2078 25.1633C40.1965 25.0856 40.2408 24.9863 40.3513 25.0194C40.5698 25.1735 40.7578 25.3736 40.9241 25.5941Z" fill="#231F20"/>
<path d="M40.8238 27.3629C40.7248 27.8713 40.594 28.4244 40.317 28.8883C40.284 28.8667 40.2726 28.8105 40.2726 28.7456C40.317 28.6334 40.3843 28.5239 40.3945 28.3799C40.505 27.9822 40.6485 27.5949 40.693 27.1641C40.6701 26.6658 40.4275 26.2134 40.0758 25.8259C40.0528 25.7712 40.0758 25.705 40.1418 25.6935C40.693 26.0592 40.9025 26.7664 40.8238 27.3629Z" fill="#231F20"/>
<path d="M42.5866 31.4855C42.6756 32.2157 41.9706 32.8682 41.4411 33.2555L41.0333 33.5092C40.8136 33.0122 40.6256 32.4476 40.4821 31.8958C40.9241 31.5198 41.4855 31.4205 42.0468 31.2765C42.2463 31.3758 42.466 31.2434 42.5866 31.4855Z" fill="#00B6F1"/>
<path d="M43.9203 32.5036C44.1628 33.5423 44.8461 34.4713 44.6581 35.6539C43.9316 37.2125 42.2235 37.9313 40.8021 38.5952C40.6371 38.6385 40.4821 38.7047 40.2955 38.7047C39.8763 37.5667 39.5575 36.3944 39.249 35.2118C39.3925 35.1354 39.6338 35.1569 39.8001 35.0461C41.309 34.5377 43.0503 33.7525 43.6891 32.0832C43.7983 32.161 43.844 32.3597 43.9203 32.5036Z" fill="#00B6F1"/>
<path d="M37.8721 35.0461C37.8493 35.1456 37.7388 35.2334 37.6626 35.278C37.4861 35.3889 37.321 35.4998 37.133 35.5762C37.2435 35.4004 37.5851 35.1354 37.8721 35.0461Z" fill="#00B6F1"/>
<path d="M9.89763 37.5121C11.7481 38.0536 13.5783 38.617 15.4948 38.9813C17.0151 39.3904 18.7005 39.5128 20.3541 39.6784C22.766 39.9881 25.2121 39.6121 27.5033 39.379C29.289 39.1253 31.0176 38.7163 32.7156 38.2308C34.7211 37.6662 36.7583 37.1908 38.5098 36.0197L38.9518 35.51L39.0393 35.5991C39.3696 36.9144 39.8001 38.1862 40.251 39.4464C40.3615 39.8989 40.472 40.4966 40.0758 40.8279C37.0568 42.5521 33.7623 43.3588 30.347 44.1107C29.6523 44.1884 28.903 44.3324 28.2196 44.4318C25.7418 44.7415 22.9985 44.8065 20.4418 44.7415C19.5603 44.707 18.7563 44.6306 17.8965 44.5313C16.6303 44.4764 15.4403 44.21 14.2273 43.9998C11.0433 43.3155 7.83763 42.4872 5.01679 40.8941C4.66363 40.6406 4.58746 40.2647 4.65346 39.8772C4.98379 38.6614 5.45746 37.5121 5.79913 36.2949C5.87663 36.0083 5.93129 35.7202 6.0748 35.4666C7.13263 36.6276 8.54246 37.0252 9.89763 37.5121Z" fill="#00B6F1"/>
<path d="M35.327 35.5762C34.9295 35.8095 34.5116 35.9076 34.0595 35.8757C34.015 35.7431 34.2245 35.7866 34.2906 35.6986C34.6436 35.5991 34.9408 35.5991 35.327 35.5762Z" fill="#00B6F1"/>
<path d="M33.8055 36.8711C33.6961 36.9257 33.4536 37.0035 33.2338 37.0035C33.178 36.9373 33.1895 36.8035 33.1895 36.7269L33.8055 36.8711Z" fill="#00B6F1"/>
<path d="M43.3043 30.9108C43.7106 31.8295 43.1378 32.7025 42.499 33.3219C41.6721 34.0509 40.6701 34.4713 39.6566 34.8027L39.1715 34.869C39.216 34.7594 39.0838 34.7032 39.127 34.5924C40.5495 34.1285 42.0253 33.5207 42.8406 32.0615C42.9398 31.8182 42.9626 31.5198 42.8406 31.2765C42.5866 30.9337 42.2235 31.033 41.8601 31.0445C41.2873 31.2103 40.7146 31.3543 40.2295 31.7187L40.1633 31.8728C40.3843 32.4592 40.5495 33.0568 40.7361 33.6532C40.6256 33.731 40.472 33.7858 40.3513 33.852C40.1088 33.499 40.0643 33.0122 39.8661 32.6145C39.8446 32.1941 39.249 31.6524 39.8001 31.3427C40.6256 30.9108 41.53 30.5795 42.4775 30.4915C42.7746 30.5029 43.1048 30.624 43.3043 30.9108Z" fill="#F0B83D"/>
<path d="M10.2393 36.0859C10.6356 36.1739 11.1423 36.2503 11.4395 35.9305C11.5285 35.6986 11.2528 35.5877 11.1321 35.4882C10.515 35.19 9.73246 35.2232 9.02763 35.19C8.91713 35.1009 8.80663 35.0347 8.70763 34.9136C9.56746 34.8141 10.4818 34.9683 11.2973 35.1456C11.5615 35.3329 11.9906 35.3889 12.058 35.7866C12.1126 36.0414 11.9806 36.2734 11.7811 36.3625C11.1423 36.6276 10.5923 36.472 9.9193 36.3842C9.2588 36.2618 8.69746 35.8859 8.20079 35.3558C7.81479 34.9798 7.39679 34.5044 6.86846 34.6817C6.76946 34.781 6.75679 34.9467 6.80246 35.0792L6.92313 35.278C7.79313 35.9637 8.78513 36.3396 9.78846 36.6824C10.1516 36.7933 10.548 36.9691 10.9556 37.0799C13.412 37.7325 15.7375 38.4959 18.3601 38.7609C19.4498 38.9482 20.7173 38.9929 21.8185 39.1024L21.863 39.0591C25.103 39.0693 28 38.6945 31.0176 37.9529C31.6678 37.7771 32.2305 37.5999 32.891 37.4445C34.3451 37.0799 35.7995 36.5715 37.1775 35.9305C37.5851 35.6208 38.379 35.4882 38.2583 34.8027C38.1693 34.6255 37.937 34.6587 37.7731 34.6817C36.8803 35.0792 36.3621 36.2299 35.3701 36.3625C34.5776 36.4505 33.6186 36.848 33.0345 36.1076C33.0243 35.919 33.0243 35.7202 33.145 35.5762C33.6733 35.069 34.4125 35.0576 35.1175 34.9352H36.385C36.1741 35.4998 35.5251 35.1123 35.1606 35.2563C34.6766 35.3329 34.114 35.3442 33.7178 35.6986C33.6733 35.7866 33.5971 35.9076 33.6961 35.9968C34.236 36.4058 34.9738 36.0414 35.5353 35.8528C36.5271 35.3442 37.2536 33.9298 38.5541 34.3835C38.7193 34.4484 38.8298 34.637 38.8526 34.8027C38.8413 35.2232 38.5541 35.5877 38.2125 35.8095C37.4645 36.3944 36.583 36.7155 35.7118 37.0584C32.7258 38.0651 29.5418 38.8156 26.3145 39.2362C25.3773 39.2809 24.4298 39.4235 23.4708 39.4682C21.2025 39.4897 18.966 39.314 16.751 38.9151C16.5745 38.9596 16.4093 38.8385 16.2226 38.8487C13.3356 38.1964 10.4603 37.5667 7.77146 36.3625C7.14279 35.9968 6.08613 35.5546 6.22846 34.637C6.36046 34.3835 6.60313 34.2828 6.86846 34.228C8.23379 34.2726 8.93879 35.8528 10.2393 36.0859Z" fill="#F0B83D"/>
<path d="M4.59896 31.8513L4.04762 33.443C3.36446 33.1115 2.72562 32.5267 2.44996 31.785C2.43846 31.6307 2.43846 31.4638 2.53762 31.3427C2.96812 31.1325 3.44196 31.3427 3.84829 31.4422C4.11379 31.5531 4.37796 31.7073 4.59896 31.8513Z" fill="#00B6F1"/>
<path d="M1.92029 33.0453C2.91229 34.2726 4.38929 34.7032 5.77746 35.1685C5.74446 35.5762 5.55646 35.975 5.46896 36.3842C5.27079 37.0366 5.06129 37.6764 4.85163 38.3186C4.71963 38.4181 4.85162 38.8156 4.55446 38.6614C3.24246 38.2308 1.99779 37.5999 0.962623 36.5498C0.510623 36.0414 0.0914555 35.4118 0.333956 34.725C0.566456 33.852 0.97279 33.0453 1.22696 32.171L1.32596 31.9953C1.45796 32.3712 1.66762 32.7356 1.92029 33.0453Z" fill="#00B6F1"/>
<path d="M7.94813 35.5546C7.67246 35.4449 7.31946 35.2563 7.2203 35.0014C7.5073 35.0907 7.73846 35.3442 7.94813 35.5546Z" fill="#00B6F1"/>
<path d="M11.0216 35.7866C11.0216 35.919 10.8565 35.8197 10.7905 35.8757C10.4818 35.8095 10.0741 35.7764 9.8088 35.5546C10.2393 35.5762 10.6698 35.5762 11.0216 35.7866Z" fill="#00B6F1"/>
<path d="M11.9145 36.704C11.8701 36.8035 11.9145 36.9589 11.804 37.0035L11.2745 36.848C11.4853 36.7818 11.705 36.7602 11.9145 36.704Z" fill="#00B6F1"/>
<path d="M4.50996 30.9337C4.85162 31.1108 5.23779 31.1987 5.52346 31.5084C5.44613 31.9953 5.20479 32.4043 5.08279 32.8682C4.92912 33.1664 4.91763 33.5207 4.74113 33.8087C4.59896 33.7858 4.45546 33.6863 4.35629 33.6201C4.38929 33.3435 4.52146 33.0237 4.57613 32.7471C4.69796 32.4705 4.83013 32.1941 4.89613 31.8958C4.96213 31.664 4.69796 31.5747 4.55446 31.4855C3.95879 31.1439 3.22096 30.9108 2.53762 30.9783C2.37246 31.0228 2.20729 31.1656 2.15279 31.3211C2.02062 32.3381 2.97829 33.0453 3.70612 33.5754C4.39946 33.996 5.12729 34.2942 5.88679 34.549C5.94263 34.6255 5.88679 34.7594 5.84362 34.8472C4.95079 34.6701 4.11379 34.3273 3.34146 33.852C2.37246 33.3104 1.45796 32.3152 1.62312 31.1885C1.68912 30.8228 2.04229 30.5131 2.40546 30.4469C3.14346 30.4367 3.85979 30.7017 4.50996 30.9337Z" fill="#F0B83D"/>
<path d="M6.09379 40.0454C6.28679 40.099 6.38079 40.1117 6.46329 39.9091L7.05013 38.4512C6.96379 38.1696 6.91813 38.1402 6.87863 38.1236L6.90913 38.0472L7.55563 38.3097L8.0903 40.0543L8.09663 40.0556L8.47263 39.124C8.54629 38.9392 8.55013 38.8233 8.31013 38.7036L8.34046 38.6283L8.99963 38.8947L8.96929 38.9712C8.73679 38.9099 8.6898 38.9737 8.63013 39.1215L7.90113 40.9324L7.8148 40.8967L7.12246 38.6768L7.11613 38.6741L6.62079 39.9053C6.53196 40.1271 6.57263 40.2112 6.78979 40.3284L6.75929 40.4048L6.06329 40.1232L6.09379 40.0454Z" fill="#231F20"/>
<path d="M9.02513 38.9151L10.8388 39.5065L10.6343 40.1411L10.5555 40.1155C10.628 39.6428 10.4311 39.4924 10.0068 39.3534C9.8328 39.2974 9.77313 39.2922 9.7288 39.426L9.4913 40.1588C9.7923 40.2595 9.98013 40.2302 10.1541 39.8543L10.2355 39.8811L9.88996 40.9477L9.80746 40.9209C9.89763 40.5144 9.76813 40.3679 9.45696 40.2659L9.21046 41.0293C9.1648 41.1682 9.21313 41.2254 9.4163 41.2918C9.72496 41.3925 10.0716 41.4154 10.4248 41.0039L10.5123 41.0318L10.1745 41.6474L8.33546 41.0483L8.36079 40.9694C8.54629 41.0089 8.64663 41.0306 8.71013 40.8343L9.20413 39.3088C9.27146 39.0999 9.14196 39.0501 8.99963 38.9941L9.02513 38.9151Z" fill="#231F20"/>
<path d="M13.9885 40.3563C13.8743 40.3398 13.7853 40.401 13.718 40.5119L12.627 42.3088L12.5406 42.287L12.3463 40.6495L12.3248 40.6456L11.39 42.022L11.2998 42.0004L11.0648 39.8963C11.0458 39.7282 11.0203 39.6899 10.8908 39.6389L10.9086 39.5573L11.8561 39.7765L11.837 39.8581C11.719 39.8403 11.6275 39.8262 11.5995 39.9461C11.592 39.9804 11.5931 40.0187 11.5983 40.0582L11.7126 41.3134L11.719 41.3147L12.3235 40.4164L12.2816 40.0799C12.2561 39.9996 12.2283 39.955 12.0758 39.9128L12.0936 39.8326L13.0995 40.0645L13.0805 40.1461C12.9395 40.1232 12.8455 40.1053 12.8201 40.215C12.8111 40.2531 12.8201 40.3373 12.8238 40.4035L12.9216 41.5581L12.928 41.5607L13.5376 40.545C13.5555 40.5144 13.577 40.4826 13.5923 40.4137C13.6228 40.2812 13.511 40.252 13.4018 40.22L13.4208 40.1398L14.0076 40.2761L13.9885 40.3563Z" fill="#231F20"/>
<path d="M15.7438 42.3954C15.4631 42.6287 15.176 42.7942 14.7581 42.728C13.9975 42.6069 13.671 42.0042 13.7675 41.3925C13.873 40.7272 14.423 40.2914 15.1088 40.3996C15.4021 40.4468 15.6295 40.647 15.7133 40.661C15.801 40.6749 15.8416 40.6112 15.8873 40.5336L15.9761 40.5475L15.8543 41.3147L15.773 41.3007C15.7031 40.9987 15.4898 40.5717 15.1176 40.5119C14.6413 40.4366 14.4343 40.9171 14.3466 41.4703C14.3161 41.6678 14.287 41.985 14.3733 42.2131C14.4736 42.4718 14.724 42.5611 14.8255 42.5777C15.0795 42.6185 15.34 42.5584 15.6586 42.2972L15.7438 42.3954Z" fill="#231F20"/>
<path d="M17.8203 43.0976L16.7573 42.965L16.7675 42.8835C16.9731 42.8924 17.033 42.8962 17.0456 42.7879C17.0558 42.6999 16.9808 42.4425 16.9478 42.3317L16.2098 42.2412C16.0893 42.4668 16.0206 42.5942 16.013 42.6477C15.9978 42.7727 16.154 42.8019 16.2658 42.821L16.2543 42.9039L15.5888 42.8223L15.599 42.7395C15.7806 42.7357 15.839 42.6298 15.9673 42.3954L16.9173 40.6801L17.0088 40.6916L17.5281 42.514C17.6323 42.8835 17.6718 43.0019 17.8293 43.0148L17.8203 43.0976ZM16.9148 42.1965L16.6811 41.3567L16.2746 42.1188L16.9148 42.1965Z" fill="#231F20"/>
<path d="M19.4448 41.6154C19.4016 41.3798 19.2301 40.986 18.8415 40.9579C18.6688 40.9465 18.4808 41.0331 18.4655 41.2472C18.4528 41.4269 18.5113 41.5034 18.7793 41.6626L19.2466 41.9378C19.3546 42.0015 19.5921 42.2106 19.5666 42.5725C19.5463 42.8618 19.3076 43.2479 18.7005 43.206C18.3868 43.1829 18.2471 43.0606 18.1441 43.0529C18.0756 43.0479 18.054 43.1064 18.0375 43.1588L17.9423 43.1524L17.9995 42.3355L18.0946 42.3419C18.1378 42.6808 18.303 43.067 18.7208 43.0976C19.1171 43.1243 19.1565 42.7994 19.159 42.7561C19.1755 42.5344 19.0256 42.4439 18.8186 42.3266L18.6053 42.2056C18.0591 41.8934 18.0795 41.6091 18.0896 41.4574C18.1048 41.256 18.2381 40.8125 18.8643 40.8572C19.1285 40.8751 19.2758 40.9948 19.3711 41.0012C19.4473 41.0075 19.4663 40.9592 19.488 40.8966L19.587 40.9043L19.5375 41.6218L19.4448 41.6154Z" fill="#231F20"/>
<path d="M21.2571 43.281L20.0785 43.2391L20.081 43.1561C20.3236 43.1447 20.4023 43.1409 20.4125 42.8618L20.4735 41.1159C20.2423 41.1211 19.9006 41.1261 19.8156 41.6537L19.7203 41.6499L19.7533 40.9846L21.736 41.0547L21.7195 41.7213L21.623 41.7174C21.576 41.1848 21.2355 41.1554 21.0081 41.135L20.9473 42.8822C20.9371 43.1626 21.0171 43.1727 21.261 43.1969L21.2571 43.281Z" fill="#231F20"/>
<path d="M23.7401 43.3028H21.83V43.2198C22.0153 43.1969 22.1145 43.1867 22.1145 42.9854V41.3798C22.1145 41.1605 21.9785 41.1542 21.83 41.1452V41.061H22.9831V41.1452C22.752 41.1542 22.6505 41.158 22.6505 41.4499V43.0135C22.6505 43.1727 22.7228 43.1996 22.9438 43.1996C23.443 43.1996 23.6283 42.9243 23.7795 42.5509H23.876L23.7401 43.3028Z" fill="#231F20"/>
<path d="M23.8086 41.056L25.7125 40.9567L25.7481 41.6218L25.6655 41.627C25.5651 41.1592 25.3251 41.0891 24.8806 41.112C24.699 41.1223 24.6406 41.1388 24.647 41.2816L24.6876 42.0487C25.0051 42.036 25.169 41.9417 25.197 41.5276L25.282 41.5238L25.3405 42.6425L25.2553 42.6464C25.1943 42.2348 25.0203 42.1444 24.694 42.1621L24.7358 42.9625C24.7435 43.109 24.8083 43.1459 25.0216 43.1332C25.3455 43.118 25.6783 43.0135 25.8598 42.5024L25.9526 42.4974L25.856 43.1931L23.9255 43.2938L23.9205 43.2123C24.1085 43.1817 24.21 43.1663 24.1998 42.9611L24.1148 41.3594C24.1046 41.1401 23.965 41.1415 23.8125 41.1388L23.8086 41.056Z" fill="#231F20"/>
<path d="M28.781 40.759C28.6031 40.8037 28.5308 40.8483 28.5536 41.0662L28.6641 42.1188C28.6845 42.3126 28.6693 42.6121 28.5473 42.7738C28.4013 42.9702 28.1218 43.0631 27.9238 43.0822C27.7801 43.0976 27.469 43.1103 27.2353 42.9459C27.0816 42.835 26.9838 42.7293 26.9458 42.3736L26.8301 41.2714C26.801 40.9936 26.716 40.9962 26.5291 40.9962L26.5203 40.9145L27.6316 40.7973L27.6405 40.8789C27.4246 40.912 27.323 40.9261 27.3535 41.2166L27.469 42.3176C27.4881 42.5063 27.5363 42.96 28.0088 42.9103C28.588 42.8504 28.5423 42.3444 28.5193 42.1342L28.414 41.1274C28.3936 40.9261 28.3428 40.8191 28.0583 40.8343L28.0495 40.7527L28.7721 40.6776L28.781 40.759Z" fill="#231F20"/>
<path d="M29.1125 42.7917C29.3043 42.7369 29.392 42.6999 29.359 42.4833L29.1125 40.9311C28.8941 40.7336 28.8406 40.7323 28.7988 40.74L28.7848 40.6572L29.4745 40.5475L30.8283 41.7671L30.8335 41.7659L30.6773 40.7731C30.6468 40.5769 30.5896 40.4749 30.3228 40.4966L30.3101 40.415L31.0113 40.3042L31.024 40.3858C30.7941 40.452 30.7865 40.5309 30.8118 40.6878L31.1155 42.6171L31.024 42.6312L29.2916 41.0878L29.2853 41.0891L29.4923 42.3979C29.5291 42.635 29.6078 42.6859 29.853 42.6732L29.8656 42.7561L29.1251 42.8733L29.1125 42.7917Z" fill="#231F20"/>
<path d="M32.6205 42.2221L31.4888 42.4643L31.471 42.3827C31.6425 42.3292 31.7656 42.2884 31.7238 42.0883L31.391 40.5182C31.3453 40.3042 31.1916 40.3296 31.0405 40.3513L31.024 40.271L32.1556 40.0289L32.1721 40.1105C32.0223 40.1486 31.8673 40.1856 31.9143 40.4062L32.247 41.9761C32.2915 42.1838 32.4223 42.1659 32.6026 42.1405L32.6205 42.2221Z" fill="#231F20"/>
<path d="M34.3211 41.7773L33.1805 42.0845L33.1601 42.0042C33.3876 41.9213 33.4625 41.8945 33.3913 41.6256L32.9393 39.9371C32.7195 40.0098 32.3943 40.1155 32.468 40.6445L32.3753 40.6686L32.214 40.0225L34.1293 39.5076L34.3071 40.15L34.2143 40.1754C34.0136 39.6797 33.681 39.7523 33.4575 39.7983L33.9083 41.4868C33.9806 41.7594 34.0595 41.7442 34.2995 41.697L34.3211 41.7773Z" fill="#231F20"/>
<path d="M34.2626 39.4682L36.0648 38.8462L36.282 39.477L36.2046 39.5026C35.9785 39.0834 35.7308 39.0807 35.3091 39.226C35.1365 39.2859 35.0843 39.3178 35.1301 39.4529L35.3803 40.1806C35.6813 40.0799 35.8135 39.9434 35.727 39.5382L35.8083 39.5101L36.1715 40.5706L36.0903 40.5985C35.9175 40.22 35.727 40.1806 35.4171 40.2876L35.6775 41.0458C35.7245 41.1848 35.7968 41.2013 36.0001 41.1313C36.3061 41.0254 36.5983 40.8329 36.6326 40.2914L36.719 40.262L36.818 40.9579L34.9891 41.5887L34.9636 41.5109C35.134 41.4306 35.2278 41.3873 35.1618 41.1923L34.6411 39.6745C34.57 39.4682 34.4353 39.5076 34.2893 39.5471L34.2626 39.4682Z" fill="#231F20"/>
<path d="M37.1013 40.7451C37.2918 40.6597 37.3121 40.545 37.2625 40.4341L36.5996 38.9392C36.5183 38.7546 36.3823 38.8081 36.2591 38.8487L36.225 38.7723L37.147 38.3619C37.9928 37.9835 38.5008 38.3875 38.7078 38.8539C38.9543 39.4121 38.8386 40.0302 38.0893 40.3946L37.1343 40.8216L37.1013 40.7451ZM37.749 40.2085C37.8036 40.3296 37.8545 40.3717 37.9991 40.308C38.337 40.1563 38.5173 39.8441 38.196 39.1203C38.0728 38.8437 37.7185 38.2295 37.199 38.4614C37.0046 38.5481 37.0415 38.622 37.0746 38.6882L37.749 40.2085Z" fill="#231F20"/>
<path d="M11.3416 12.0181C11.4623 11.897 11.639 11.897 11.7811 11.9748C11.9463 12.1074 12.0681 12.3394 12.1673 12.5267C11.9246 12.5165 11.583 12.6707 11.3633 12.4834C11.1651 12.2832 10.9226 12.217 10.68 12.1176C10.6698 12.0845 10.6356 12.0297 10.68 11.9965C10.746 11.9086 10.8565 11.9086 10.9771 11.9086C11.0991 11.9519 11.1981 12.1176 11.3416 12.0181Z" fill="#231F20"/>
<path d="M13.4018 13.6991C13.3903 13.7322 13.3458 13.7436 13.3573 13.7767C13.4563 13.7654 13.5885 13.7869 13.6773 13.8431C13.798 13.9642 13.7105 14.1082 13.7105 14.2522C13.6443 14.3286 13.5225 14.307 13.4563 14.2737C13.3458 14.2191 13.3573 14.0966 13.2696 14.0304C13.2253 14.0751 13.2583 14.2075 13.1591 14.1846C13.0601 14.0304 12.961 13.8762 12.9051 13.6991C12.961 13.7105 13.0715 13.7869 13.1591 13.7207C13.2138 13.6545 13.2913 13.5996 13.379 13.5883C13.4233 13.6112 13.4018 13.666 13.4018 13.6991Z" fill="#231F20"/>
<path d="M11.8765 12.4272L11.6491 12.4553C11.5868 12.463 11.5131 12.4439 11.451 12.3788C11.432 12.3623 11.4166 12.333 11.3913 12.3176C11.4205 12.3138 11.4395 12.3088 11.4623 12.282C11.4623 12.282 11.4865 12.4081 11.6236 12.4081C11.7201 12.4081 11.766 12.3063 11.766 12.3063L11.8765 12.4272Z" fill="white"/>
<path d="M32.2533 13.6774H32.3181C32.275 13.8202 32.1315 13.9756 32.087 14.1413C31.9765 14.1744 31.9765 14.042 31.955 13.9756C31.8786 14.0751 31.8558 14.2191 31.7238 14.2737C31.6361 14.2955 31.5586 14.2737 31.4926 14.2075C31.5358 14.0635 31.3935 13.8202 31.6133 13.7767C31.6678 13.7654 31.7238 13.7436 31.7898 13.7538L31.8445 13.7985C31.8786 13.7436 31.8013 13.666 31.8115 13.5883C32.0095 13.5003 32.0768 13.8647 32.2533 13.6774Z" fill="#231F20"/>
<path d="M33.272 12.4145C33.272 12.4145 33.3698 12.4668 33.4435 12.4641C33.5146 12.4616 33.634 12.4439 33.6988 12.3813C33.719 12.3661 33.7356 12.338 33.761 12.3215C33.7318 12.3165 33.7126 12.3113 33.6911 12.2845C33.6911 12.2845 33.6631 12.4094 33.5248 12.4056C33.4295 12.4017 33.3863 12.2972 33.3863 12.2972L33.272 12.4145Z" fill="white"/>
<path d="M11.705 17.9326C11.606 17.8331 11.4623 17.7784 11.3633 17.7006C11.4955 17.7567 11.6275 17.8331 11.705 17.9326Z" fill="#BBBDBF"/>
<path d="M10.5593 10.6252V10.7361C9.7223 10.9681 8.7953 11.632 8.54246 12.5267C8.1678 13.5883 8.2123 15.0142 8.86246 15.9534C8.89563 16.1638 8.82946 16.2976 8.68596 16.3969C8.47646 16.4733 8.18946 16.4518 8.01413 16.3307C7.95946 16.3191 7.8808 16.3307 7.8808 16.3969C7.91513 16.6506 8.21229 16.6391 8.41046 16.6951C8.76346 16.6951 9.08229 16.4849 9.25879 16.1854C9.33629 16.2976 9.26896 16.3969 9.25879 16.5064C9.07079 16.9055 8.55396 16.7053 8.26679 16.8493C8.39896 17.1374 8.74063 17.0035 8.96163 17.015C9.44546 16.8939 9.60046 16.1638 10.1733 16.3078C9.69946 16.518 9.93063 17.2583 9.3033 17.2469C9.1483 17.2469 8.98313 17.1374 8.86246 17.2699C9.02763 17.4356 9.2918 17.5235 9.55596 17.4572C10.031 17.303 10.1733 16.5064 10.8121 16.7384C10.8666 16.7613 10.9111 16.806 10.9771 16.806C10.7245 16.806 10.4488 16.806 10.2176 16.9717C10.0081 17.159 9.96363 17.5796 9.60046 17.5465C9.47979 17.6011 9.29179 17.424 9.25879 17.6127C9.34646 17.7784 9.69946 17.7006 9.5788 17.9555C9.84296 18.1759 10.2508 18.0435 10.5365 17.9771L10.5593 18.0102C10.713 17.9657 10.8565 17.8995 11.0216 17.8879C11.2745 17.944 11.583 17.9886 11.705 18.2754L11.738 18.3977C11.3963 18.1759 10.8781 18.0435 10.515 18.2319C10.2176 18.2421 10.031 18.1759 9.76563 18.0982C9.69946 18.1211 9.69946 18.1988 9.74396 18.2319C10.2608 18.8947 11.6935 18.441 11.4853 19.6581C11.4065 19.8123 11.2973 19.9894 11.1321 20.0556C11.2311 19.8785 11.2528 19.6581 11.2096 19.4592C11.0103 18.8831 10.3828 18.8947 9.9853 18.5519C9.94213 18.5519 9.90913 18.5634 9.87613 18.6067C9.83163 18.7838 10.0513 18.85 10.1516 18.9278C10.4273 19.0718 10.8235 19.0718 10.9556 19.4592C10.967 19.5803 11.0216 19.7676 10.9111 19.8683C10.901 19.5917 10.6585 19.2706 10.36 19.1049C9.94213 18.9826 9.62196 18.6296 9.53446 18.1875C9.20413 17.447 8.3228 17.3692 7.8808 16.7168C7.60513 16.0974 7.94813 15.5226 8.32279 15.0589C8.32279 15.0027 8.31129 14.9263 8.24529 14.9263C7.82613 15.1034 7.83763 15.6999 7.37529 15.821C7.59496 15.3469 7.52896 14.595 8.1563 14.4395C8.1793 14.3948 8.2123 14.3617 8.2008 14.2955C8.01413 14.1528 7.80463 14.3732 7.62796 14.4624C7.53913 14.5288 7.47429 14.6497 7.37529 14.6714C7.48446 14.4179 7.71696 14.1082 7.99246 14.0304C8.04713 13.9973 8.0688 13.9311 8.0903 13.8864C7.98113 13.7869 7.85913 13.8864 7.73846 13.8864L7.2203 14.2075C7.1873 13.7654 7.74996 13.6214 7.96963 13.2683C7.79313 13.1906 7.60513 13.3894 7.41846 13.4556L7.16579 13.5219C7.17596 13.411 7.31946 13.2901 7.39679 13.1792C7.57346 13.0695 7.78296 13.0249 7.96963 12.9473C7.99246 12.8809 7.93663 12.8478 7.90363 12.8033H7.79313C7.89213 12.7255 8.1018 12.7815 8.1563 12.6707C8.01413 12.5598 7.83763 12.4936 7.65096 12.5496C7.65096 12.538 7.90363 12.5165 7.85913 12.3496C7.80463 12.3063 7.76013 12.2285 7.69413 12.2068V12.1621C7.96963 12.0959 8.18946 12.3394 8.41046 12.4387C8.44346 12.4171 8.4548 12.3725 8.4548 12.3278C8.36596 12.1176 8.14629 12.0297 7.96963 11.9086C8.13479 11.841 8.2898 12.0297 8.4548 12.0959C8.5983 11.7862 8.16779 11.7315 8.06879 11.4766C8.32279 11.3326 8.4878 11.7086 8.70763 11.7748C8.7953 11.7417 8.74063 11.6422 8.73046 11.5875C8.63013 11.4 8.45479 11.3109 8.34429 11.1236C8.57546 11.0676 8.68596 11.3887 8.91713 11.4766C8.96163 11.4102 8.91713 11.2778 8.86246 11.2C8.73046 11.1007 8.66313 10.935 8.56529 10.8023C8.85113 10.7808 9.0048 11.0789 9.23713 11.1669C9.24863 10.8903 8.92863 10.6814 8.98313 10.3488C9.3363 10.3602 9.35779 10.791 9.62196 10.9248C9.66646 10.6482 9.4683 10.415 9.4353 10.1384C9.54463 10.0722 9.66646 10.2277 9.78846 10.2722C9.9193 10.4264 9.86463 10.8356 10.1516 10.7145C10.0628 10.4711 10.0081 10.15 10.1948 9.9294C10.2508 10.1729 10.3383 10.4597 10.5593 10.6252Z" fill="#F0B83D"/>
<path d="M11.385 17.4572C11.3963 17.4801 11.3303 17.447 11.2528 17.4572C11.0433 17.4025 10.8006 17.4903 10.5923 17.5909C10.4158 17.6789 10.2508 17.8331 10.0628 17.7784C10.3943 17.5909 10.6356 17.0826 11.1868 17.3145L11.385 17.4572Z" fill="#F0B83D"/>
<path d="M10.614 19.6797C10.647 19.8352 10.647 20.0327 10.4933 20.1002C10.4273 20.1551 10.36 20.1767 10.2608 20.1665C10.2176 19.9232 10.2393 19.6352 10.4273 19.4808C10.5263 19.491 10.5695 19.6019 10.614 19.6797Z" fill="#F0B83D"/>
<path d="M10.4488 23.2275C11.0103 23.5934 11.639 23.8916 12.3323 23.8916C12.829 24.0457 13.412 23.9029 13.887 23.8469C13.7421 24.3006 13.3458 24.6319 12.9051 24.7428C11.9691 24.8867 11.0103 24.7543 10.2393 24.2344C9.9193 23.9476 9.44546 23.671 9.60046 23.1613C9.69946 23.0402 9.68813 22.7204 9.89763 22.7867C10.0628 22.974 10.2393 23.1397 10.4488 23.2275Z" fill="#BBBDBF"/>
<path d="M12.9051 24.9965L13.2023 24.8867C13.2023 25.0856 12.9496 25.2296 12.8606 25.4182C12.2993 25.7712 11.5728 25.8259 10.8896 25.6935C10.2278 25.5495 9.5013 25.306 9.1928 24.6536C9.0823 24.3453 9.2588 24.0457 9.4353 23.8023C10.3383 24.8307 11.6275 25.1849 12.9051 24.9965Z" fill="#BBBDBF"/>
<path d="M11.9145 25.9701C12.0351 25.9254 12.2003 25.9483 12.3108 25.9368C12.3438 25.9254 12.321 25.8808 12.3768 25.8923H12.4428C12.2448 26.3676 11.804 26.6773 11.2973 26.7002C10.4603 26.7333 9.67663 26.49 9.0493 25.9368C8.9388 25.7266 8.67463 25.5379 8.77363 25.2513C8.87263 25.1302 8.84096 24.953 8.98313 24.8423C9.7223 25.6935 10.7791 26.1905 11.9145 25.9701Z" fill="#BBBDBF"/>
<path d="M8.64146 25.7381C9.3693 26.6887 10.4818 27.0315 11.639 26.8875C11.3963 27.3514 10.934 27.5616 10.4273 27.5285C9.69946 27.5183 8.87263 27.187 8.49796 26.49C8.2783 26.2249 8.54246 26.0146 8.58696 25.7381H8.64146Z" fill="#BBBDBF"/>
<path d="M10.9111 27.7605C10.6915 28.1364 10.3498 28.269 9.96363 28.3352C9.22579 28.3697 8.49796 28.06 8.1563 27.3961C8.0688 27.1195 8.21229 26.8315 8.28979 26.5664C8.80663 27.54 9.85446 27.8713 10.9111 27.7605Z" fill="#BBBDBF"/>
<path d="M10.1948 28.5454C9.96363 29.0655 9.3693 28.9547 8.86246 28.9329C8.44346 28.8438 8.00263 28.5352 7.90363 28.1033C7.94813 27.9491 7.90363 27.7491 8.01413 27.6165C8.49796 28.3799 9.39096 28.6449 10.1948 28.5454Z" fill="#BBBDBF"/>
<path d="M9.68813 29.2095C9.64496 29.342 9.54463 29.4961 9.39096 29.5293C9.01613 29.6732 8.53096 29.6288 8.1563 29.5077C8.02563 29.4184 7.8478 29.3191 7.79313 29.1649C7.73846 28.9547 7.78296 28.7341 7.83763 28.5454C8.2668 29.1533 8.99463 29.2426 9.68813 29.2095Z" fill="#BBBDBF"/>
<path d="M9.3693 29.8288C9.3693 29.9716 9.30329 30.0825 9.19279 30.1703C8.89563 30.2698 8.46496 30.392 8.1348 30.248C7.98113 30.2149 7.90363 30.0825 7.8148 29.9716V29.5293C8.2453 29.839 8.84096 29.9052 9.3693 29.8288Z" fill="#BBBDBF"/>
<path d="M9.23713 30.4253C9.24863 30.5795 9.2258 30.7348 9.0708 30.8012C8.73046 30.9554 8.3228 31.0114 8.01413 30.7464C7.90363 30.6571 7.94813 30.5029 7.90363 30.3806C8.29996 30.5679 8.81813 30.624 9.23713 30.4253Z" fill="#BBBDBF"/>
<path d="M9.25879 31.121C9.31346 31.2765 9.1483 31.3427 9.1598 31.4855C9.01613 31.5862 8.87263 31.7187 8.68596 31.6971C8.60846 31.6742 8.48779 31.664 8.38879 31.6524C8.29996 31.4536 8.1678 31.2867 8.1348 31.0663C8.47646 31.2434 8.86246 31.1541 9.21563 31.0445L9.25879 31.121Z" fill="#BBBDBF"/>
<path d="M9.55596 32.0386C9.62196 32.3381 9.1598 32.2272 9.3033 32.4705C9.4798 32.5267 9.5788 32.4043 9.68813 32.3152V32.2717C9.96363 32.3265 10.1618 32.6247 10.4488 32.5916C10.4933 32.57 10.4705 32.5152 10.4705 32.4705C10.2508 32.3483 10.0081 32.2055 9.85446 31.9723C9.8088 31.8844 9.70963 31.8182 9.70963 31.7187C10.3713 32.0615 11.2413 31.9392 11.7811 32.5267C11.8155 32.6363 11.9031 32.802 11.804 32.9129C11.2973 33.3652 10.6255 33.1217 10.0411 33.0237C9.45696 32.7918 8.9058 32.3814 8.54246 31.8513C8.7953 31.929 9.12663 31.8513 9.3033 31.6524C9.45696 31.7073 9.4683 31.9073 9.55596 32.0386Z" fill="#BBBDBF"/>
<path d="M6.92313 25.5277L6.9448 25.5048C6.82413 25.2182 6.33896 25.1073 6.52679 24.7212C6.75679 24.4561 7.0438 24.665 7.35246 24.6319C7.60513 24.7096 7.90363 24.6765 8.1563 24.7428C8.04713 25.0409 7.68396 25.074 7.49596 25.2729C7.51746 25.5164 7.8808 25.6055 7.79313 25.8923C7.62929 25.8209 7.10479 25.5864 6.92313 25.5277Z" fill="#BBBDBF"/>
<path d="M11.4395 9.9294C11.4293 10.15 11.385 10.3155 11.3188 10.4826C11.2973 10.5259 11.3633 10.3717 11.2745 10.3933C11.2096 10.3602 11.1538 10.4379 11.1321 10.4826C11.0763 10.294 11.3075 10.1169 11.385 9.9294H11.4395Z" fill="#BBBDBF"/>
<path d="M11.9361 10.4597C11.9906 10.615 11.9031 10.7579 11.804 10.8687V10.7145H11.639C11.7151 10.6252 11.804 10.4711 11.9361 10.4597Z" fill="#BBBDBF"/>
<path d="M6.02013 20.5857C5.96429 21.692 6.10779 22.742 6.86846 23.5716C7.14279 23.8584 7.41846 24.1235 7.73846 24.3555C7.30796 24.3886 6.79113 24.1795 6.37196 24.4446C6.23979 24.5886 6.23979 24.8205 6.27279 24.9965C6.43796 25.2627 6.65763 25.4182 6.92313 25.5277C7.04513 25.5368 7.58229 25.7547 7.79313 25.8923C7.05529 25.6819 6.04163 25.5826 5.35846 25.993C4.75263 26.3574 4.62046 27.0532 4.67513 27.6725C4.77413 28.2473 5.10563 28.7341 5.10563 29.342C4.76279 28.8322 3.98163 28.6449 3.84829 27.9708C3.85979 27.5949 3.76063 27.2634 3.57396 26.9755C3.63996 26.6773 3.70612 26.3676 3.77212 26.0592C3.78346 25.9814 3.76063 25.9152 3.70613 25.8706H3.68313V25.8043C3.85979 25.306 4.21279 24.7543 4.80713 24.7212C5.00529 24.4777 4.56596 24.4662 4.48846 24.2891C4.35629 24.1464 4.32329 23.9693 4.23446 23.8023C4.43379 23.6379 4.71963 23.5385 4.97229 23.6379C5.01679 23.6596 5.06129 23.7041 5.12729 23.6927C5.23779 23.6379 5.17179 23.5487 5.14879 23.4825C4.60913 23.1397 4.45546 22.4438 4.50996 21.8461C4.74113 21.5593 4.50996 21.1056 4.65346 20.7412C4.67513 20.6966 4.72979 20.8075 4.80713 20.763C4.96213 20.3424 5.13746 19.9231 5.35846 19.5243L5.42446 19.5026C5.42446 19.5586 5.44613 19.6019 5.50196 19.6352H5.58963L6.18529 19.0158C6.28429 19.5243 6.00863 20.0327 6.02013 20.5857Z" fill="#F0B83D"/>
<path d="M8.75196 24.1897L8.64146 24.4662C8.75196 24.0789 8.10179 23.5934 8.73046 23.4161C8.88413 23.3168 8.96163 23.1511 9.02763 22.9957C9.16996 22.6311 8.48779 22.2883 9.02763 22.0781C9.35779 21.7684 9.45696 21.2498 9.3033 20.8623C9.23713 20.8075 9.25879 20.7068 9.19279 20.6533C9.40229 20.5093 9.56746 20.3207 9.74396 20.122C9.76563 21.6257 9.32479 22.9408 8.75196 24.1897Z" fill="#F0B83D"/>
<path d="M5.86513 19.6581C5.83213 20.3984 5.52346 21.1503 5.77746 21.9353C5.83212 22.4871 6.05313 22.9624 6.29446 23.4379C6.31729 23.5156 6.27279 23.5818 6.20679 23.5934C6.03029 23.615 6.00863 23.4161 5.93129 23.3168C5.43596 22.2003 5.39146 20.8406 5.79913 19.6581H5.86513Z" fill="#231F20"/>
<path d="M5.06129 21.5033V21.5709C5.02812 21.5709 4.98379 21.5925 4.97229 21.548C4.96213 21.5033 4.97229 21.46 5.01679 21.4371C5.02812 21.4702 5.07262 21.4485 5.06129 21.5033Z" fill="#231F20"/>
<path d="M5.08279 21.7582C5.20479 22.4209 5.37996 23.0631 5.88679 23.5716C5.90963 23.6379 5.84363 23.6927 5.79913 23.7143C5.58963 23.6927 5.49046 23.4608 5.37996 23.3168C5.10563 22.8515 5.01679 22.2998 4.97229 21.7366C5.01679 21.692 5.03963 21.7366 5.08279 21.7582Z" fill="#231F20"/>
<path d="M5.01679 25.1849C5.01679 25.3622 4.84029 25.3404 4.76279 25.4833C4.27879 25.9037 4.13529 26.5116 4.04762 27.1195H4.00329C3.88263 26.2796 4.22429 25.5495 4.87329 25.1187C4.93929 25.0971 4.97229 25.1518 5.01679 25.1849Z" fill="#231F20"/>
<path d="M4.85163 26.3127C4.21279 27.1641 4.76279 28.1262 4.92913 28.9991C4.80713 28.9776 4.78563 28.822 4.74113 28.7227C4.44396 27.9376 4.05913 26.7995 4.74113 26.0592C4.85163 25.9701 4.92913 25.8259 5.06129 25.7826C5.29229 26.0032 4.89613 26.1243 4.85163 26.3127Z" fill="#231F20"/>
<path d="M19.0205 18.8831C18.9875 18.85 18.91 18.7736 18.933 18.6958C18.966 18.7507 19.0091 18.8169 19.0205 18.8831Z" fill="#BBBDBF"/>
<path d="M26.2701 18.8831C26.2155 18.85 26.2586 18.7622 26.3145 18.7176C26.3031 18.7736 26.2916 18.8387 26.2701 18.8831Z" fill="#BBBDBF"/>
<path d="M12.354 27.1195C12.4315 27.4738 12.575 27.8713 12.4873 28.2473C12.5203 28.269 12.542 28.3021 12.5851 28.2919C12.8175 27.9924 12.707 27.5516 12.674 27.2303C13.0816 27.7273 13.1261 28.4244 13.1591 29.0655C13.1808 29.1202 13.2253 29.1202 13.2696 29.0986C13.4996 28.8322 13.2913 28.4576 13.3573 28.1262C13.6875 28.6118 13.6773 29.319 13.633 29.8721C13.666 29.895 13.6875 29.9385 13.732 29.9167C13.8095 29.839 13.854 29.7396 13.8641 29.6186C13.9746 30.1818 13.887 30.8228 13.6773 31.3758C13.7751 29.8288 12.73 28.5123 11.4853 27.6725C11.5068 27.5183 11.6605 27.3298 11.8256 27.2521C11.8586 27.4292 11.738 27.6725 11.8916 27.7834C12.1571 27.5285 11.8155 26.9539 12.1888 26.7882L12.354 27.1195Z" fill="#BBBDBF"/>
<path d="M33.4206 27.7171C33.5413 27.5516 33.3761 27.3629 33.465 27.187C33.6085 27.2852 33.7508 27.4074 33.8055 27.5732C32.5608 28.4576 31.5141 29.7396 31.6133 31.3211C31.4036 30.8445 31.3161 30.1601 31.4266 29.5077C31.4481 29.6401 31.4698 29.7841 31.5916 29.8505C31.7783 29.7396 31.5141 29.463 31.6361 29.2528C31.6361 28.8322 31.6678 28.3697 31.955 28.0371C31.955 28.3913 31.8343 28.7889 32.0438 29.0438C32.0985 29.0655 32.143 29.0209 32.1645 28.9776C32.087 28.3581 32.2305 27.7058 32.5938 27.2088C32.6153 27.5616 32.4286 27.9822 32.7588 28.2142L32.8033 28.1695C32.7703 27.6611 32.8033 27.1081 33.1233 26.7219C33.465 26.9639 33.112 27.484 33.4206 27.7171Z" fill="#BBBDBF"/>
<path d="M14.4813 28.3137L14.3493 28.2919C14.4813 28.181 14.701 28.2257 14.856 28.1033C15.044 27.9376 15.1088 27.7171 15.2853 27.5285C15.0973 27.8498 14.8991 28.2804 14.4813 28.3137Z" fill="white"/>
<path d="M14.9651 28.5454C14.8331 28.4028 15.0973 28.3352 15.1531 28.1926C15.1646 28.3468 14.9995 28.413 14.9651 28.5454Z" fill="white"/>
<path d="M14.9436 28.9329C15.1646 28.7227 15.3513 28.4244 15.4733 28.1262C15.4835 28.4461 15.1861 28.7341 14.9436 28.9329Z" fill="white"/>
<path d="M30.347 28.5454C30.2581 28.4028 30.1488 28.269 30.093 28.1033C30.1488 28.2804 30.4893 28.3137 30.347 28.5454Z" fill="white"/>
<path d="M30.6658 28.5901V28.6781C30.6328 28.6896 30.6226 28.6563 30.5998 28.6334V28.5454C30.6328 28.5352 30.6441 28.5685 30.6658 28.5901Z" fill="white"/>
<path d="M14.6465 28.7456C14.5905 28.7227 14.6465 28.6563 14.668 28.6118H14.7125L14.6465 28.7456Z" fill="white"/>
<path fill-rule="evenodd" clip-rule="evenodd" d="M15.867 19.7957C15.9343 19.8275 15.8073 19.6708 15.8111 19.588C15.815 19.5064 15.7285 19.7599 15.7285 19.7599C15.7285 19.7599 15.801 19.7626 15.867 19.7957Z" fill="#231F20"/>
<path fill-rule="evenodd" clip-rule="evenodd" d="M19.6365 6.66838C19.648 7.27627 19.6263 7.97212 19.615 8.54673C19.5933 8.59138 19.549 8.5698 19.5056 8.5698C19.4726 7.87262 19.4726 7.24316 19.5056 6.59062C19.5603 6.59062 19.6365 6.60216 19.6365 6.66838Z" fill="white"/>
<path fill-rule="evenodd" clip-rule="evenodd" d="M12.7401 14.7594C12.7401 14.7594 13.0131 14.7873 13.1083 14.9149C13.205 15.0435 13.4628 15.4398 13.798 15.2678C13.798 15.2678 13.8983 15.4398 13.5885 15.4398C13.29 15.4398 13.1198 15.2142 13.0346 15.0652C12.9496 14.9149 12.843 14.8677 12.763 14.8485L12.7401 14.7594Z" fill="white"/>
<path fill-rule="evenodd" clip-rule="evenodd" d="M32.4833 14.7376C32.4833 14.7376 32.388 14.9276 32.2356 14.9913C32.0831 15.055 32.1023 15.1557 32.087 15.18C32.087 15.18 31.8381 15.4285 31.6246 15.4285C31.4101 15.4285 31.4393 15.3979 31.4215 15.3226C31.4036 15.2462 31.4965 15.2258 31.5498 15.2576C31.6031 15.2895 31.7315 15.3648 31.913 15.1188C32.0933 14.8728 32.383 14.7109 32.4833 14.7376Z" fill="white"/>
<path d="M16.9605 21.404C17.5003 23.4277 16.718 25.3291 16.2441 27.187C16.3203 26.7766 16.3876 26.2912 16.3648 25.849C16.1223 25.1404 16.6303 24.4777 16.3203 23.8252C16.3433 23.5385 16.1896 23.2608 15.98 23.0402C15.9571 22.5432 16.0448 21.9901 15.726 21.6142C15.5495 21.6359 15.3183 21.692 15.1748 21.5709C15.2966 21.0612 15.4733 20.5857 15.627 20.1002C16.2988 20.1767 16.784 20.8075 16.9605 21.404Z" fill="#F0B83D"/>
<path fill-rule="evenodd" clip-rule="evenodd" d="M20.1001 0.609919C20.1776 0.709422 20.1546 0.874981 20.123 0.985856C20.0671 1.05225 20.0125 1.08536 19.9451 1.09673C19.9781 0.952744 20.0785 0.820297 20.0125 0.664772C19.8905 0.522123 19.7483 0.333485 19.549 0.333485C19.3621 0.355058 19.1971 0.477473 19.098 0.63166C18.9215 0.908261 19.2073 1.13001 19.2301 1.35042C19.098 1.2842 18.999 1.18469 18.933 1.05225C18.877 0.853409 18.91 0.643198 19.0205 0.477472C19.2631 0.344857 19.5603 0.134648 19.8473 0.311746C19.9566 0.411249 20.0341 0.499045 20.1001 0.609919Z" fill="white"/>
<path fill-rule="evenodd" clip-rule="evenodd" d="M19.6708 0.86361L19.615 1.16312C19.6365 2.40047 19.681 3.5945 19.6708 4.86512C19.615 4.92115 19.6048 5.04222 19.5056 5.03202C19.4943 3.49516 19.4168 2.16852 19.4828 0.775646C19.5603 0.775646 19.6708 0.764107 19.6708 0.86361Z" fill="white"/>
<path d="M7.77146 27.2521C7.68396 27.0532 7.66113 26.843 7.51746 26.6773C7.79313 26.5447 8.0903 26.2567 8.0903 25.9152C8.11313 25.705 7.96963 25.5495 7.90363 25.3622C8.08013 25.1736 8.3443 25.0525 8.49796 24.809C8.1793 25.5941 8.01413 26.4671 7.77146 27.2521Z" fill="#F0B83D"/>
<path d="M7.58363 28.4028C7.51746 28.4028 7.41846 28.2142 7.33079 28.1479C7.44129 28.0484 7.58363 27.8829 7.67246 27.7389C7.65096 27.9593 7.65096 28.2028 7.58363 28.4028Z" fill="#F0B83D"/>
<path d="M30.6886 29.1202C30.7878 29.2642 30.7878 29.5293 30.7878 29.7179C30.9313 31.5747 30.1488 33.211 28.5841 34.1285C26.622 35.566 24.3306 36.4389 22.6898 38.4066L22.6238 38.4283C21.6978 37.2355 20.3426 36.472 19.1425 35.6769C18.7005 35.4882 18.3258 35.19 17.8965 34.9798C17.6323 34.781 17.3238 34.6588 17.071 34.4268C15.4948 33.5321 14.47 32.1163 14.503 30.2927C14.5905 29.9716 14.4266 29.5191 14.5588 29.2311C14.6908 29.1533 14.889 29.2873 15.0541 29.2095L15.1531 29.1649C15.1748 29.2426 15.0756 29.3853 15.2193 29.463C15.3958 29.4746 15.5393 29.4184 15.7045 29.3637C15.5063 31.2434 16.4308 32.858 18.04 33.7194C19.6263 34.6039 21.3016 35.3773 22.6453 36.7818C22.8536 36.7933 22.8536 36.5498 22.987 36.4505C24.5186 34.9581 26.5013 34.3388 28.1435 33.0784C29.2446 32.1163 29.7513 30.7679 29.5748 29.3191C29.7741 29.3191 30.0155 29.5293 30.1705 29.3191L30.093 29.0655C30.2581 29.2095 30.5121 29.2197 30.6886 29.1202Z" fill="#F0B83D"/>
<path d="M19.1425 21.2714C19.1425 21.2714 20.6755 21.0127 21.1796 20.7412V35.0245C21.1796 35.0245 21.1505 35.1098 20.9371 34.939C20.725 34.7669 19.1196 33.8967 19.1196 33.8967L19.1425 21.2714Z" fill="white"/>
<path d="M24.0728 20.7412C24.0728 20.7412 24.8616 21.0471 25.2896 21.1122C25.7151 21.1759 26.0668 21.2217 26.105 21.3376V33.9298C26.105 33.9298 24.2951 34.9429 24.0881 35.1009L24.0728 20.7412Z" fill="white"/>
<path d="M19.5921 9.69878L19.6086 15.7915L19.54 16.3345C19.54 16.3345 19.4726 15.4194 19.4726 14.9263V9.8518C19.4726 9.8518 19.4726 9.69878 19.5921 9.69878Z" fill="white"/>
</svg>
