<svg width="45" height="45" viewBox="0 0 45 45" fill="none" xmlns="http://www.w3.org/2000/svg">
<path d="M45 22.4997C45 34.9268 34.9268 45 22.5003 45C10.0739 45 0 34.9268 0 22.4997C0 10.0733 10.0739 1.67515e-09 22.5003 1.67515e-09C34.9268 -0.000149998 45 10.0733 45 22.4997Z" fill="white"/>
<path fill-rule="evenodd" clip-rule="evenodd" d="M1.6941 22.7658C1.5486 11.2776 10.7472 1.84305 22.2359 1.6974C33.7239 1.5519 43.1586 10.7511 43.3043 22.2392C43.4493 33.7274 34.2505 43.1619 22.7623 43.3069C11.2743 43.4526 1.83975 34.2539 1.6941 22.7658ZM22.2326 1.4379C10.601 1.5852 1.2873 11.1375 1.4346 22.7691C1.5819 34.4007 11.1341 43.7137 22.7657 43.567C34.3973 43.4197 43.7105 33.8675 43.5636 22.2359C43.4163 10.6043 33.8642 1.2906 22.2326 1.4379Z" fill="#0053A0"/>
<path fill-rule="evenodd" clip-rule="evenodd" d="M21.7362 8.6733C19.1818 8.6673 16.2143 9.67965 14.2194 11.331C14.2128 11.3354 14.2128 11.3529 14.2266 11.3601C15.3672 11.8125 16.1493 12.4126 17.3685 13.0954C17.4125 13.1196 17.4279 13.1091 17.4372 13.0695C18.027 10.0739 21.684 10.905 22.0254 8.72055C22.0106 8.7057 22.0127 8.6787 21.9815 8.67705C21.9006 8.67495 21.8181 8.67375 21.7362 8.6733ZM23.2572 8.67705C23.2319 8.67705 23.2236 8.68755 23.2248 8.72775C23.0714 9.1125 23.5221 9.51315 23.7849 9.77265C23.8101 9.7962 23.8519 9.8238 23.8833 9.83745C25.5157 10.5021 27.3225 10.9929 27.7184 12.8706C27.7266 12.8997 27.732 12.9185 27.7623 12.8925C28.6325 12.3155 29.4954 11.73 30.376 11.1749C30.421 11.1561 30.4045 11.1353 30.376 11.1171C28.3861 9.7023 25.9001 8.7816 23.2572 8.67705ZM13.0767 12.2819C11.4848 13.6935 10.1189 15.5398 9.4074 17.6142C9.39945 17.6346 9.4116 17.6439 9.43995 17.6466C10.9979 17.7875 11.5068 15.7559 12.7007 15.0006C12.7167 14.9912 12.731 14.9829 12.7299 14.9637C12.6452 14.038 12.6045 13.2581 13.0767 12.2819ZM32.2928 12.726C32.3807 13.4445 32.3136 14.126 32.1228 14.79C32.1146 14.8214 32.1157 14.8455 32.1514 14.8698C33.3024 15.4854 33.9263 17.2833 35.2565 17.3536C35.273 17.3608 35.2983 17.3619 35.289 17.34C34.8272 15.7355 33.4992 13.8369 32.2928 12.726ZM35.7161 18.3915C34.0835 20.0285 36.7329 22.7712 33.1386 24.3021C32.8215 24.3956 32.517 24.5066 32.2301 24.5078C31.4309 24.5115 30.2936 23.9019 30.3006 25.1151C30.3006 25.137 30.3204 25.1525 30.3468 25.163C31.4573 25.6383 32.9579 26.669 32.982 28.2576C33.0365 30.1512 31.0433 31.4264 31.3593 33.225C35.6187 29.5416 37.3706 24.1031 35.7161 18.3915ZM9.0888 18.6619C9.07515 18.6657 9.0651 18.6805 9.05265 18.7098C7.43955 23.1176 9.02445 29.9697 13.9727 33.5893C13.9737 33.4959 14.0282 33.3014 14.0847 33.1706C14.1057 33.12 14.1024 33.0551 14.0847 32.9936C13.9034 32.1965 13.4279 31.3929 12.9755 30.6107C11.4149 28.0202 12.2813 26.2436 14.801 25.091C14.8334 25.0805 14.8406 25.0623 14.823 25.0287C14.7839 24.9431 14.7455 24.8583 14.7075 24.7715C14.696 24.7485 14.7075 24.7023 14.6498 24.7106C14.0847 24.7809 13.4487 24.8309 12.8738 24.8051C12.0087 24.6122 11.1824 24.2675 10.5602 23.3511C9.4464 21.7962 10.9718 19.7046 9.13215 18.6735C9.117 18.6647 9.1026 18.6586 9.0888 18.6619ZM32.4153 25.0332C32.457 25.0332 32.4999 25.0392 32.5418 25.0508C33.1002 25.1525 33.945 25.4811 34.4469 26.1023C34.4793 26.1425 34.4644 26.1759 34.4143 26.1716C33.6081 26.1474 32.7023 26.0583 32.075 25.5642C31.986 25.4939 31.9041 25.424 31.9668 25.2564C32.0129 25.1502 32.1608 25.0689 32.2845 25.0469C32.3295 25.0392 32.3724 25.032 32.4153 25.0332ZM12.4694 25.3619C12.5144 25.3608 12.5583 25.3619 12.6035 25.3652C12.6408 25.3695 12.6788 25.3695 12.704 25.3943C12.8591 25.5791 12.8283 25.8373 12.5385 26.0374C11.9268 26.4294 11.2176 26.4513 10.5644 26.4794C10.5389 26.4804 10.494 26.4524 10.5392 26.4101C11.1342 25.8648 11.7927 25.3685 12.4694 25.3619ZM23.5293 32.7912C23.5211 32.7902 23.5116 32.7924 23.5039 32.7984C23.0026 33.0365 22.215 33.1524 21.7719 32.9034C21.7187 32.877 21.6873 32.8968 21.6664 32.9276C20.8705 34.2753 18.9791 34.2435 17.6363 33.901C16.6386 33.6762 15.6624 33.3915 14.856 34.1901C19.0544 37.2177 25.5263 37.3124 30.3837 33.9807C29.4674 33.5481 28.6357 33.8592 27.6282 34.0929C26.4876 34.3578 24.8864 34.5975 23.5941 32.8203C23.5722 32.8143 23.5524 32.7924 23.5293 32.7912ZM22.6905 33.0947C22.702 33.0957 22.7147 33.0969 22.7301 33.098C22.8758 33.1151 22.9587 33.1892 23.0478 33.2898C23.0906 33.3464 23.106 33.4123 23.0988 33.4821C23.0747 34.1044 22.968 34.7339 22.7586 35.2785C22.7543 35.3043 22.7355 35.3099 22.7262 35.2785C22.4832 34.5117 22.0683 33.7356 22.5921 33.1316C22.6256 33.1023 22.6536 33.093 22.6905 33.0947Z" fill="#0053A0"/>
<path fill-rule="evenodd" clip-rule="evenodd" d="M24.035 2.87445C24.1598 3.03915 24.2846 3.2226 24.2406 3.4203C24.0801 4.3248 23.9075 5.22735 23.7239 6.12825C23.6915 6.3294 23.5452 6.4158 23.3985 6.55095C24.3879 6.7308 26.2386 7.0803 27.2313 7.2672C27.2049 6.87525 27.5044 6.64605 27.6249 6.291C27.295 6.52185 26.874 6.60645 26.4827 6.52245C26.0754 6.4455 25.0667 6.2448 24.6605 6.16065C24.7265 5.8458 24.7682 5.5248 24.8414 5.2098C25.2371 5.27955 25.8741 5.4297 26.2689 5.47755C26.6052 5.5572 26.8598 5.08995 27.0428 4.87005C26.9142 4.8993 26.6723 4.914 26.5409 4.88445C26.1264 4.8039 25.3817 4.64715 24.9672 4.56285C25.0041 4.26255 25.0679 3.96645 25.1304 3.67335C25.8407 3.8601 27.3254 3.9297 27.8525 4.5267C27.87 4.19715 27.6837 3.7878 27.8711 3.56865C26.8899 3.37815 25.0161 3.05745 24.035 2.87445ZM23.5617 2.88885C22.6163 2.89335 20.8046 2.9928 19.8597 3.00465C20.0619 3.33735 19.7613 3.62955 19.7541 3.9627C20.0745 3.67185 20.8743 3.58485 21.2904 3.5976C21.2894 4.50945 21.3834 5.4252 21.396 6.33435C21.4016 6.5064 21.2673 6.6159 21.1575 6.68505C21.5686 6.6807 22.2183 6.63015 22.6037 6.62355C22.4141 6.44925 22.3178 6.435 22.3145 6.1899C22.2474 5.3505 22.214 4.37205 22.1909 3.53595C22.6163 3.50505 23.3985 3.5814 23.7459 3.79275C23.7443 3.42555 23.3891 3.0603 23.5617 2.88885ZM19.4259 3.13485C18.8219 3.26655 17.4762 3.3612 16.9557 3.7566C16.3335 4.1886 16.1901 5.1471 16.9964 5.5677C17.5043 5.77545 18.4679 5.54955 18.9698 5.5896C19.3149 5.60385 19.4606 6.08205 19.2336 6.31635C18.7433 6.7521 17.4114 6.7521 16.8299 6.5763C16.9722 6.9099 17.1317 7.1979 17.2823 7.52715C17.4801 7.40295 17.8314 7.3722 18.0551 7.33215C18.5316 7.26285 19.6606 6.95715 19.9789 6.573C20.3593 6.12615 20.378 5.4786 20.0075 5.0691C19.6745 4.70415 18.6428 4.7685 18.204 4.79775C17.954 4.79775 17.7472 4.8861 17.5098 4.76895C17.3074 4.62975 17.319 4.2822 17.5455 4.16505C17.9808 3.9345 18.9675 3.8988 19.4221 4.08555C19.3957 3.76695 19.4364 3.4533 19.4259 3.13485ZM29.1573 3.94815C29.2387 4.1496 29.286 4.3398 29.1899 4.5303C28.8314 5.30265 28.4241 6.06945 28.0448 6.8478C27.9383 7.0749 27.8019 7.2189 27.5496 7.314C27.8859 7.48605 28.4637 7.7745 28.8033 7.94655C28.661 7.42665 29.0139 6.96 29.2157 6.5406C29.4096 6.64665 29.9303 6.88965 30.0578 7.1007C30.2286 7.38975 30.2705 7.6866 30.3072 7.98615C30.3237 8.2572 30.3458 8.46165 30.066 8.5578C30.459 8.71785 31.0769 9.0471 31.4424 9.2229C31.1522 8.62485 31.3313 7.8114 30.9438 7.22385C31.1961 7.2348 31.6194 7.2771 31.8876 7.11165C32.3724 6.82755 32.4906 6.37785 32.3252 5.78475C32.2338 5.4726 31.9272 5.2944 31.6667 5.1702C31.0445 4.8624 29.7801 4.25205 29.1573 3.94815ZM14.9819 4.3458C14.1146 4.83285 12.4473 5.66595 11.5912 6.16785C11.8146 6.22665 11.9697 6.3102 12.0758 6.5043C12.504 7.2732 12.931 8.04165 13.3554 8.8107C13.4653 9.0015 13.4318 9.23115 13.3449 9.4434C14.2349 8.94915 15.9009 8.0829 16.7936 7.59255C16.5149 7.4343 16.6919 6.90615 16.5798 6.55875C16.4918 6.86205 16.1786 7.13805 15.923 7.32495C15.5085 7.60305 14.5356 8.0988 14.104 8.3445C13.9468 8.06595 13.7868 7.78065 13.6379 7.49475C13.9743 7.28595 14.7543 6.94065 15.0842 6.72135C15.2771 6.47955 15.1638 6.1305 15.2067 5.84625C15.1221 5.94855 15.0122 6.04095 14.8917 6.10305C14.5301 6.3042 13.7363 6.744 13.3697 6.94185C13.2306 6.678 13.0641 6.4278 12.9437 6.1536C13.6137 5.84955 14.8153 5.0361 15.5788 5.07945C15.388 4.8015 15.0813 4.67535 14.9819 4.3458ZM29.9418 5.04705C30.2727 5.2125 30.7586 5.4285 31.0592 5.5929C31.8569 6.00735 31.2896 6.8742 30.7124 6.54765C30.3825 6.4377 29.8054 6.11175 29.4838 5.9799C29.6224 5.6577 29.7993 5.36925 29.9418 5.04705ZM10.807 6.75C10.7154 6.88185 10.5956 7.0023 10.4528 7.07925C9.97575 7.30125 9.1212 8.07195 8.9163 8.5578C8.63055 9.11415 8.6337 9.6258 8.97045 10.275C9.3543 11.0408 9.8985 11.3958 10.7312 11.3958C11.5581 11.3447 12.303 10.6201 12.6432 10.1739C12.8307 9.9579 13.0126 9.71985 13.2874 9.59895C13.0566 9.34275 12.8136 9.09975 12.5784 8.847C12.4943 9.1542 12.3459 9.41865 12.1446 9.67485C11.8473 10.0124 11.3858 10.5428 10.8612 10.5174C10.3367 10.4916 10.1697 10.2416 9.9357 9.98595C9.70185 9.73035 9.5409 9.43185 9.58155 8.97345C9.62205 8.5149 10.5309 7.66845 11.1868 7.64325C11.0364 7.35735 10.9576 7.03905 10.807 6.75ZM7.61475 9.8337C7.37535 10.1426 6.94995 10.6796 6.69645 10.977C6.9318 10.9424 7.1463 10.9622 7.32555 11.1029C8.01405 11.6388 8.7015 12.1802 9.38625 12.7194C9.56205 12.8525 9.64155 13.0513 9.6645 13.279C9.91785 12.9772 10.3258 12.4484 10.572 12.1544C10.3588 12.1824 10.1511 12.194 9.9864 12.0609C9.2871 11.5217 8.5995 10.9737 7.90395 10.4306C7.71375 10.286 7.6077 10.0904 7.61475 9.8337ZM5.98065 11.9093C5.54445 12.8057 4.6416 14.4717 4.21275 15.3683C4.4508 15.2738 4.62945 15.2909 4.84545 15.4007C5.6214 15.7893 6.40125 16.167 7.1772 16.5506C7.3677 16.6469 7.53435 16.8375 7.611 17.0355C8.0436 16.1241 8.84175 14.5113 9.3393 13.6077C9.2367 13.6077 9.13395 13.5219 9.0609 13.4494C8.85585 13.2547 8.7525 13.0328 8.54385 12.842C8.6019 13.2036 8.5497 13.6368 8.3919 13.9881C8.20875 14.3795 7.72215 15.3282 7.53885 15.72C7.23495 15.6173 7.0002 15.4425 6.70725 15.3105C6.85395 14.9598 7.28715 14.1651 7.43745 13.8182C7.4391 13.6149 7.1973 13.2713 7.0254 13.0256C7.01805 13.1576 6.9612 13.2917 6.89895 13.4132C6.7119 13.794 6.29055 14.6372 6.0999 15.0143C5.83275 14.8791 5.48505 14.7483 5.21775 14.6163C5.4048 14.2359 5.8767 13.2839 6.07095 12.9069C6.22125 12.6107 6.46485 12.3627 6.76515 12.2126C6.4539 12.0873 6.2478 12.1257 5.98065 11.9093ZM6.5409 16.8942C6.66555 17.096 6.6927 17.4372 6.70005 17.6785C6.73305 18.1336 6.4659 18.9966 6.3963 19.4397C5.55795 19.2753 4.7151 19.0731 3.88005 18.8901C3.6495 18.846 3.5565 18.6608 3.42105 18.4629C3.33315 18.8406 3.18345 19.554 3.1029 19.935C3.27135 19.8108 3.3969 19.7141 3.5946 19.758C4.48785 19.9454 5.37645 20.1417 6.26625 20.3433C6.4713 20.3874 6.67695 20.5434 6.78315 20.7375C6.97365 19.8734 7.33035 18.2942 7.5171 17.4257C7.4256 17.4335 7.3302 17.4487 7.24965 17.3976C6.98955 17.2542 6.8046 17.03 6.5409 16.8942Z" fill="#0053A0"/>
<path fill-rule="evenodd" clip-rule="evenodd" d="M6.5514 24.2988C6.4257 24.4791 6.24555 24.627 6.03075 24.6677C5.21355 24.8991 4.3419 25.0761 3.40965 25.3004C3.2226 25.3674 3.10935 25.2888 2.9325 25.1525C3.01515 25.5306 3.1425 26.1474 3.2325 26.5256C3.56445 26.0606 4.18245 26.0781 4.6713 25.9149C4.78755 26.3067 4.9242 27.1286 5.0547 27.5123C5.25975 27.7254 5.6004 27.7551 5.868 27.8492C5.79855 27.7448 5.66775 27.5226 5.6475 27.3968C5.55255 26.9823 5.37345 26.1914 5.2788 25.7807C5.5914 25.7109 5.89785 25.6185 6.2151 25.5746C6.38295 26.2304 6.77625 27.4512 6.4719 28.0767C6.7911 27.975 7.05435 27.6233 7.3395 27.6974C7.15155 26.8169 6.7248 25.1871 6.5514 24.2988ZM6.59475 28.3082C6.49035 28.3049 6.3852 28.3142 6.2802 28.3257C5.57235 28.4774 4.9149 28.8264 4.61355 29.5658C4.2165 30.597 5.0007 32.1828 6.0525 32.5703C6.72885 32.8121 7.3977 32.6307 7.8999 32.2559C8.36625 31.9365 8.68245 31.4028 8.67 30.6872C8.64075 29.8796 8.18925 29.0787 7.53105 28.623C7.21815 28.4033 6.90795 28.3164 6.59475 28.3082ZM6.5658 29.2085C6.9561 29.2062 7.35255 29.3058 7.6215 29.7071C7.9557 30.1226 8.0571 30.7064 7.8204 31.0559C7.48395 31.4979 6.9417 31.7618 6.37065 31.7387C5.74965 31.7166 5.12055 30.9218 5.30415 30.1595C5.4786 29.5383 6.1833 29.2398 6.5658 29.2085ZM9.0135 32.2129C8.8608 32.2174 8.7123 32.2476 8.565 32.3031C7.8588 32.5637 7.3404 33.0194 7.13355 33.8C6.8433 34.868 8.01135 36.2702 9.1146 36.468C9.82275 36.5873 10.4499 36.3316 10.8786 35.8743C11.2824 35.4786 11.5334 34.8866 11.3958 34.1831C11.2257 33.3932 10.5872 32.7159 9.85935 32.3829C9.53835 32.2635 9.2676 32.2036 9.0135 32.2129ZM9.36405 33.0771C9.6729 33.0782 9.9537 33.2019 10.1631 33.4206C10.5498 33.7779 10.732 34.2165 10.5535 34.6815C10.3077 35.228 9.8508 35.5807 9.28455 35.6583C8.66925 35.7435 7.8741 34.9295 7.95765 34.2584C8.05785 33.6428 8.4594 33.3915 8.78925 33.2172C8.9847 33.1221 9.1788 33.0759 9.36405 33.0771ZM12.112 34.6712C12.1059 35.0229 11.7455 34.919 11.4605 35.3621C11.8883 35.3192 12.6056 35.7006 12.9404 35.9508C12.443 36.7061 11.9256 37.4442 11.4212 38.1918C11.3274 38.349 11.1632 38.3665 10.9908 38.3803C11.3055 38.598 11.8767 38.9795 12.1917 39.1971C12.129 38.9459 12.1521 38.7377 12.2891 38.532C12.7343 37.8735 13.1855 37.2167 13.6296 36.5549C13.655 36.5279 13.6758 36.4658 13.7247 36.4818C14.0892 36.6797 14.6582 37.1748 14.7867 37.574C14.9396 37.2798 14.9104 36.8105 15.1912 36.6956C14.4174 36.1623 12.8892 35.1927 12.112 34.6712ZM15.3837 36.8577C15.497 37.0638 15.4677 37.2996 15.4019 37.5162C15.149 38.3627 14.8269 39.1241 14.5734 39.9678C14.5169 40.1723 14.3888 40.2938 14.1293 40.3542C14.9324 40.6086 15.8646 40.9484 16.7139 41.2079C17.5933 41.4926 18.3833 41.2803 18.4784 40.3575C18.5339 39.8275 17.9693 39.5825 17.7483 39.4643C18.3299 39.5363 18.7212 39.2258 18.7526 38.6799C18.8021 38.2913 18.4481 37.8663 17.6466 37.6064C17.0717 37.4189 15.963 37.0198 15.3837 36.8577ZM27.5529 37.5228C27.1802 37.619 26.5569 37.8795 26.1902 38.0043C26.3948 38.0922 26.5359 38.1522 26.6052 38.3583C26.8668 39.1531 27.1829 39.8946 27.4545 40.6872C27.5286 40.9368 27.62 41.2194 27.4836 41.4645C28.328 41.2046 29.7927 40.6758 30.6294 40.3982C30.5816 40.3284 30.509 40.2717 30.5135 40.1838C30.4925 39.8853 30.5678 39.6435 30.5426 39.3417C30.3491 39.744 29.9237 39.9501 29.4905 40.1189C29.2464 40.1975 28.5605 40.5032 28.3185 40.5273C28.0514 39.7232 27.7332 38.8767 27.4627 38.0725C27.3885 37.8642 27.443 37.7186 27.5529 37.5228ZM16.1796 37.7867C16.4885 37.8956 17.3685 38.0967 17.6687 38.2219C18.087 38.3952 17.8154 39.1449 17.379 39.0488C17.0729 38.9993 16.2131 38.7585 15.9263 38.6508C16.007 38.3627 16.0905 38.0726 16.1796 37.7867ZM20.2746 38.2219C20.3016 38.2774 20.2851 38.4128 20.2389 38.4738L18.6669 41.1346C18.5267 41.3628 18.3948 41.4668 18.1996 41.6162C18.558 41.6718 19.1781 41.8499 19.5381 41.9192C19.4222 41.6669 19.4325 41.3546 19.62 41.1138C20.1751 41.1627 21.213 41.238 21.7649 41.3051C21.8769 41.5673 22.0205 41.8822 21.7649 42.1219C22.1304 42.1191 22.7679 42.1055 23.1242 42.1296C22.9637 41.939 22.8075 41.7471 22.7405 41.5002C22.5734 41.0078 21.9522 39.1784 21.7571 38.6117C21.7236 38.5089 21.7686 38.3814 21.7719 38.3699L20.2746 38.2219ZM24.429 38.2424C24.0277 38.3084 23.3451 38.3874 22.9614 38.4346C23.1439 38.5627 23.2791 38.642 23.3051 38.858C23.3996 39.6885 23.5671 40.4844 23.6738 41.3156C23.6958 41.5755 23.7002 41.9097 23.5178 42.1219C24.3972 42.0384 26.0154 41.7756 26.8911 41.6739C26.8575 41.5965 26.801 41.5233 26.8229 41.4391C26.8625 41.1418 26.9735 40.8863 27.0104 40.5857C26.7201 40.9176 26.3001 41.0957 25.8428 41.1755C25.5806 41.2194 24.8156 41.343 24.5775 41.3376C24.4781 40.4949 24.3323 39.6056 24.2301 38.7635C24.2015 38.5436 24.2823 38.4117 24.429 38.2424ZM20.9182 38.8613L21.5592 40.607C21.1586 40.584 20.3928 40.5366 19.9926 40.4916L20.9182 38.8613ZM15.785 39.2053C16.1526 39.3487 16.7628 39.5555 17.0898 39.6819C17.8061 39.9315 17.6175 40.8918 16.7496 40.5933C16.3599 40.4696 15.8404 40.3074 15.4705 40.1667C15.5595 39.8517 15.6959 39.523 15.785 39.2053Z" fill="#0053A0"/>
<path fill-rule="evenodd" clip-rule="evenodd" d="M34.9998 7.96095C34.4331 7.93665 34.0582 8.0928 33.6624 8.4276C33.2194 8.8305 32.9177 9.2982 32.921 10.0002C32.9358 10.5531 33.5399 11.4222 34.2666 11.8806C34.4711 12.0318 34.7954 12.2204 34.8261 12.4727C35.0669 12.2264 35.3181 11.9834 35.5644 11.7531C34.9746 11.5761 33.9758 11.0034 33.8324 10.3437C33.741 9.81885 33.8697 9.64725 34.0929 9.3603C34.5095 8.85735 34.9317 8.6754 35.5644 8.8503C36.1299 9.0756 36.6368 9.7842 36.6807 10.3004C36.9749 10.1465 37.2534 10.0237 37.5519 9.87375C37.3151 9.72705 37.2107 9.5511 37.0502 9.3384C36.7028 8.83215 36.0492 8.1093 35.2565 7.98285C35.1675 7.9725 35.0807 7.9647 34.9998 7.96095ZM38.1198 10.662C38.1082 11.0325 37.9131 11.1468 37.647 11.3446C37.0011 11.7865 36.3894 12.2369 35.7452 12.665C35.5622 12.7815 35.3252 12.9311 35.0648 12.8057C35.2742 13.1312 35.688 13.6808 35.9003 14.0024C35.9222 13.6704 36.1002 13.5198 36.3015 13.3878C36.9978 12.9228 37.6526 12.4209 38.3511 11.9603C38.5529 11.8241 38.6684 11.7647 38.9366 11.8548C38.7288 11.5371 38.3292 10.9803 38.1198 10.662ZM39.3566 12.4044C39.1637 12.6957 38.7354 12.5189 38.4314 12.6359C38.8014 12.8442 39.2097 13.5126 39.3636 13.905C38.5364 14.2926 37.8527 14.6405 37.0242 15.033C36.867 15.1127 36.6186 15.0621 36.4575 15.0006C36.6285 15.3474 36.9143 15.9576 37.0859 16.3022C37.1771 16.035 37.4442 15.8081 37.6932 15.6981C38.4336 15.3617 39.0432 15.0363 39.7908 14.7186C39.9804 15.0918 40.2987 15.7943 40.1921 16.2153C40.4778 16.0428 40.6181 15.6667 40.944 15.702C40.5482 14.8444 39.7562 13.2609 39.3566 12.4044ZM41.1534 16.1136C41.0748 16.4732 40.7483 16.6803 40.5461 16.9487C40.1409 17.4219 39.6539 17.955 39.1796 18.4344C39.0663 18.5405 38.7854 18.5739 38.615 18.6124C38.2622 18.6636 38.0978 18.7049 37.8273 18.4784C37.9121 18.8588 38.0505 19.5371 38.1268 19.9173C38.2774 19.6893 38.438 19.5552 38.7344 19.4799C38.9982 19.4325 39.2318 19.3308 39.4214 19.4139C40.2872 19.8849 41.9114 20.5562 42.1148 20.7666L41.8185 19.3456C41.7224 19.4847 41.6091 19.5519 41.4936 19.5078C40.9742 19.3067 40.3575 19.0197 39.9167 18.851C40.2393 18.4761 40.6164 18.1139 40.9577 17.7588C41.1062 17.5779 41.3096 17.5065 41.4899 17.6825L41.1534 16.1136Z" fill="#0053A0"/>
<path fill-rule="evenodd" clip-rule="evenodd" d="M39.0998 24.4979C38.9355 24.5022 38.7492 24.561 38.5502 24.6929C38.2671 24.9419 38.1627 25.3317 38.0693 25.6802C37.9416 26.2689 37.6251 27.4787 37.509 28.0691C37.7048 27.9119 37.8735 27.8942 38.0945 27.9426C38.9586 28.1289 39.8193 28.3247 40.6801 28.511C40.8885 28.551 41.0424 28.7144 41.1606 28.8974C41.2875 28.0784 41.7965 26.4134 41.7828 25.5779C41.7663 24.893 41.1314 24.456 40.524 24.5984C40.1795 24.6951 39.9859 25.0931 39.9094 25.3724C39.9084 24.9567 39.593 24.4847 39.0998 24.4979ZM39.1031 25.491C39.3566 25.4927 39.5907 25.7264 39.5231 26.0198C39.456 26.3255 39.3345 26.9685 39.2598 27.2709C38.9657 27.2115 38.6601 27.1455 38.3699 27.0785C38.4534 26.763 38.532 26.315 38.615 25.9946C38.6985 25.6313 38.9069 25.491 39.1031 25.491ZM40.6872 25.5455C40.951 25.5548 41.193 25.8198 41.1346 26.1425C41.0527 26.5305 40.9034 27.2462 40.8318 27.6282C40.5114 27.5633 40.1795 27.4859 39.8556 27.4221C39.9375 27.0335 40.0634 26.4734 40.1667 26.0847C40.2624 25.6868 40.4811 25.5389 40.6872 25.5455ZM37.4481 28.2389C37.2051 28.6754 36.9831 29.0915 36.7286 29.5334C36.9215 29.441 37.1123 29.4306 37.2711 29.5152C37.8356 29.8137 38.3166 30.0935 38.8755 30.4046C39.0917 30.5294 39.3258 30.7619 39.35 31.0697C39.3407 31.4819 39.0558 31.9805 38.6766 32.1482C38.4023 32.2767 38.0901 32.1449 37.8818 32.0244C37.3695 31.7166 36.9654 31.4979 36.4532 31.1856C36.2762 31.0839 36.1184 31.0086 36.1025 30.68C35.8574 31.0955 35.6364 31.5501 35.3792 31.9782C35.7204 31.8255 35.9557 31.9272 36.2008 32.0789C36.6565 32.3411 37.0358 32.561 37.4871 32.8236C37.8318 33.0194 38.177 33.1485 38.6475 33.0435C39.0537 32.9496 39.3983 32.5564 39.6462 32.1514C39.9084 31.7271 40.1387 31.2329 40.1123 30.7635C40.0893 30.2787 39.7941 29.9478 39.4653 29.729C38.9289 29.4042 38.5029 29.1804 37.9614 28.865C37.753 28.7396 37.4547 28.551 37.4481 28.2389ZM37.7438 33.2354C37.7322 33.6438 37.5036 34.1243 37.2128 34.4573C37.0661 34.6541 36.5938 35.1894 36.4032 35.3945C35.7567 34.8459 35.1686 34.3485 34.52 33.8037C34.3485 33.6624 34.2132 33.4658 34.2049 33.2426C33.9367 33.519 33.5745 33.9296 33.3261 34.226C33.5481 34.1946 33.7565 34.3023 33.923 34.4436C34.559 34.986 35.1758 35.5423 35.8211 36.0766C36.0146 36.2524 36.114 36.4229 36.1245 36.7028C36.7098 36.042 37.796 34.7937 38.3666 34.122C38.289 34.0884 38.1857 34.0764 38.1417 33.984C37.973 33.6762 37.9224 33.4794 37.7438 33.2354ZM33.2645 34.3023C33.0831 34.5404 32.7198 34.6782 32.4582 34.7937C31.8926 35.0636 31.0987 35.7089 30.9333 36.4647C30.8014 37.116 30.9449 37.642 31.3049 38.1165C31.6611 38.598 32.1102 38.8777 32.7301 38.8936C33.4239 38.887 34.1633 38.4412 34.7108 37.885C34.8911 37.7047 35.112 37.4568 35.3758 37.4366C35.1559 37.1748 34.9724 36.8797 34.7327 36.6301C34.5777 37.1077 33.8312 37.8923 33.3261 38.0297C32.8803 38.1302 32.5818 38.0099 32.2559 37.7289C31.8936 37.3541 31.6683 36.8923 31.8183 36.352C32.0415 35.6556 32.9661 35.1455 33.5471 35.2461C33.4415 34.935 33.3618 34.6019 33.2645 34.3023Z" fill="#0053A0"/>
<path fill-rule="evenodd" clip-rule="evenodd" d="M22.6037 8.79645C22.53 9.00855 22.4799 9.2883 22.4304 9.534C22.4201 9.588 22.3931 9.62475 22.3607 9.66375C20.7155 11.3195 18.6828 10.8373 17.9253 13.2653C17.8397 13.4703 17.9484 13.6874 18.315 13.8902C18.3519 13.9122 18.3843 13.9029 18.3843 13.8644C18.2921 11.2281 21.8538 11.4063 22.6328 9.5769C22.641 9.5583 22.6674 9.56325 22.6756 9.5769C23.3302 10.7984 24.412 10.9583 25.4008 11.5299C26.1412 11.957 26.6751 12.3446 26.8262 13.5576C26.8311 13.6149 26.8471 13.6044 26.8762 13.5753C26.9883 13.4516 27.2604 13.3878 27.2522 13.2026C27.0126 11.4129 25.0415 11.0264 23.46 10.2893C23.394 10.2387 23.327 10.1882 23.261 10.1376C22.9301 9.74625 22.6778 9.3048 22.6037 8.79645ZM22.575 11.0346C22.5575 11.0358 22.5426 11.0396 22.5272 11.0484C22.5102 11.0567 22.4937 11.0742 22.4844 11.0924C22.4756 11.1089 22.4789 11.161 22.4844 11.1967C22.4904 11.2198 22.5113 11.2326 22.5239 11.2475C22.5503 11.2799 22.5734 11.2984 22.6074 11.3238C22.6499 11.3518 22.7021 11.3172 22.7114 11.2836C22.724 11.2254 22.724 11.1611 22.7114 11.1099C22.7081 11.0913 22.6938 11.0798 22.6823 11.0627C22.6664 11.0451 22.6487 11.0358 22.6212 11.0346C22.6097 11.0336 22.5909 11.0325 22.575 11.0346ZM23.1126 11.5332C23.1071 11.5343 23.105 11.5355 23.0988 11.5404C23.0885 11.5487 23.0802 11.5623 23.0802 11.5761C23.0792 11.6481 23.0466 11.7531 23.1126 11.7904C23.145 11.8053 23.1856 11.8109 23.211 11.7822C23.2236 11.7614 23.2484 11.7542 23.2467 11.7174C23.2467 11.6997 23.2225 11.6943 23.2149 11.6745C23.2044 11.6454 23.21 11.5937 23.1995 11.5728C23.1902 11.5574 23.1807 11.5425 23.1637 11.5404C23.1462 11.5371 23.1302 11.5289 23.1126 11.5332ZM22.1226 11.5437C22.0749 11.5602 22.0242 11.5949 22.0067 11.6558C21.9858 11.6921 21.9869 11.7207 22.0067 11.7426C22.032 11.7799 22.0633 11.8241 22.1073 11.8443C22.1446 11.8619 22.1929 11.8619 22.2094 11.7822C22.2276 11.7162 22.2288 11.6234 22.1991 11.5982C22.1605 11.5706 22.1699 11.5322 22.1226 11.5437ZM22.6465 12.4149C22.4359 13.0487 22.3815 13.368 22.2315 13.8726C22.5063 13.8748 22.6581 13.8759 22.8559 13.8798C22.6948 13.3049 22.6872 13.0767 22.6465 12.4149Z" fill="#0053A0"/>
<path fill-rule="evenodd" clip-rule="evenodd" d="M12.9288 15.5463C12.9195 15.5463 12.908 15.5513 12.8964 15.5607C11.4305 16.5947 11.0325 18.4272 9.14715 18.1243C10.4855 18.7498 10.4531 20.2878 10.5896 21.7143C10.7049 22.9158 11.6237 24.5346 14.1008 24.1977C14.1282 24.1954 14.147 24.1736 14.1293 24.1472C13.971 23.9213 13.44 23.9954 13.3081 23.9735C11.3472 23.6057 11.0151 21.8022 10.6078 19.7613C10.513 19.1715 10.1304 18.7987 9.8955 18.3558C9.87855 18.3106 9.86325 18.2964 9.92085 18.2859C11.1702 18.0468 12.112 16.9629 13.1136 15.8102C13.1344 15.7976 13.1382 15.7691 13.1136 15.7481C13.0569 15.6915 13.0053 15.6288 12.9541 15.5607C12.9448 15.5513 12.9393 15.5453 12.9288 15.5463ZM12.7414 17.9183C12.7237 17.9193 12.7052 17.9232 12.6903 17.9319C12.6728 17.9402 12.6567 17.9579 12.6464 17.9759C12.6381 17.9924 12.6419 18.0447 12.6464 18.0804C12.6534 18.1035 12.6777 18.1161 12.6903 18.131C12.7167 18.1634 12.7402 18.1821 12.7738 18.2073C12.8161 18.2354 12.865 18.2007 12.8743 18.1673C12.8871 18.1089 12.8871 18.0447 12.8743 17.9936C12.8706 17.9748 12.8568 17.9633 12.8452 17.9463C12.8293 17.9286 12.8118 17.9193 12.7842 17.9183C12.7722 17.9171 12.7573 17.916 12.7414 17.9183ZM13.3049 18.4305C13.2987 18.4321 13.2933 18.4344 13.2871 18.4388C13.2768 18.446 13.2686 18.4596 13.2686 18.4744C13.2653 18.5454 13.2284 18.6492 13.2944 18.6878C13.3257 18.7049 13.3659 18.7086 13.3911 18.6806C13.4054 18.6597 13.4307 18.6554 13.4307 18.6197C13.4317 18.6009 13.4098 18.596 13.4032 18.5756C13.3938 18.5465 13.3983 18.4942 13.3878 18.4744C13.3796 18.4585 13.3697 18.441 13.3521 18.4388C13.3346 18.4344 13.3218 18.4272 13.3049 18.4305ZM12.3072 18.5069C12.26 18.5234 12.2088 18.5613 12.1917 18.623C12.1709 18.6587 12.1719 18.6838 12.1917 18.7059C12.2159 18.7432 12.2517 18.7872 12.2956 18.807C12.333 18.8252 12.3813 18.8291 12.3978 18.7488C12.4159 18.6828 12.4139 18.5871 12.3825 18.5613C12.3446 18.5339 12.3551 18.4953 12.3072 18.5069ZM12.8859 19.3677C12.8085 20.0075 12.5748 20.7386 12.3468 21.219C12.6127 21.1833 12.8255 21.3449 12.842 21.551C12.909 21.3174 13.0883 21.1377 13.301 21.2003C13.1613 20.6199 12.9888 19.9959 12.8859 19.3677Z" fill="#0053A0"/>
<path fill-rule="evenodd" clip-rule="evenodd" d="M14.9785 25.5999C14.968 25.6026 14.9567 25.6059 14.9429 25.6115C12.6728 26.4887 12.2192 28.5269 13.4885 30.3216C14.4422 31.9239 14.8643 32.584 14.4108 33.8719C16.1852 31.7595 19.3287 35.1768 21.1322 32.5418C21.1563 32.5092 21.1184 32.4873 21.081 32.451C20.9931 32.39 20.9007 32.3493 20.8106 32.3136C20.7435 32.2883 20.7068 32.3031 20.666 32.3609C19.9278 33.1386 17.534 32.9661 15.7239 32.9715C15.6684 32.9715 15.503 33.0006 15.4485 33.0299C15.2748 33.1188 15.099 33.1974 14.9138 33.1809C14.8643 33.1809 14.789 33.1545 14.8016 33.0518C14.8917 31.7354 14.1084 30.8987 13.612 29.8125C13.4571 29.4422 12.3072 27.3644 15.0726 26.1023C15.0852 26.0781 15.1116 26.0639 15.1083 26.027C15.1001 25.8984 15.0737 25.7713 15.0363 25.6395C15.0297 25.6069 15.0109 25.5956 14.9785 25.5999ZM17.0322 28.1091C17.0145 28.112 16.9964 28.1151 16.9811 28.1234C16.964 28.1328 16.9475 28.1498 16.9388 28.1675C16.9305 28.1844 16.9326 28.2366 16.9388 28.2725C16.9442 28.2954 16.9685 28.307 16.9811 28.3224C17.0091 28.3548 17.031 28.373 17.0646 28.3988C17.1075 28.4264 17.1608 28.3917 17.1696 28.3581C17.1812 28.3004 17.1828 28.2356 17.1696 28.1844C17.1651 28.1663 17.1476 28.1559 17.1377 28.1382C17.1201 28.1196 17.1063 28.112 17.0795 28.1091C17.0667 28.1081 17.0498 28.107 17.0322 28.1091ZM17.6038 28.5939C17.5977 28.5951 17.5911 28.5962 17.5851 28.6011C17.5758 28.6094 17.5664 28.623 17.5676 28.6368C17.5643 28.7088 17.5274 28.8116 17.5923 28.8512C17.6247 28.8672 17.6604 28.8704 17.6868 28.8429C17.6994 28.8221 17.7297 28.8188 17.7297 28.7814C17.7308 28.7643 17.7055 28.7594 17.6973 28.7385C17.6878 28.7099 17.6961 28.6577 17.6868 28.6368C17.6775 28.6209 17.6687 28.6034 17.6499 28.6011C17.6336 28.5962 17.6208 28.5906 17.6038 28.5939ZM16.5842 28.6556C16.5369 28.6715 16.4864 28.7099 16.4687 28.7709C16.4468 28.8056 16.449 28.8326 16.4687 28.8545C16.493 28.8914 16.5254 28.9343 16.5693 28.9551C16.6062 28.9737 16.6551 28.977 16.67 28.8974C16.6886 28.8314 16.6908 28.7352 16.6595 28.7099C16.6215 28.682 16.632 28.644 16.5842 28.6556ZM17.1053 29.4789C17.0277 30.1188 16.7936 30.8498 16.566 31.3302C16.8321 31.2945 17.0448 31.4527 17.0613 31.66C17.1284 31.4263 17.3075 31.2494 17.5203 31.3127C17.3801 30.7322 17.207 30.1083 17.1053 29.4789Z" fill="#0053A0"/>
<path fill-rule="evenodd" clip-rule="evenodd" d="M30 25.5966C29.9885 25.5977 29.9753 25.6092 29.9709 25.6218C29.9208 25.7285 29.8703 25.8302 29.8191 25.9368C29.7741 26.0573 29.7719 26.16 29.9534 26.2178C33.2057 27.5474 31.6046 30.0632 30.7563 31.5396C30.6684 31.6914 30.458 32.1387 30.4419 32.3355C30.4095 32.5451 30.4419 32.7275 30.437 32.9463C30.437 32.9973 30.3656 33.0111 30.326 33.0039C28.2438 32.6039 26.4425 34.4436 24.7358 32.4582C24.5786 32.2883 24.39 32.2718 24.3209 32.3252C24.2456 32.3817 24.1899 32.4444 24.1367 32.5274C24.101 32.5775 24.102 32.6059 24.1439 32.6571C25.9182 35.1454 28.5411 32.207 30.7922 33.4448C30.2649 32.1795 31.3038 30.9521 31.8914 29.8484C33.1974 27.6293 31.6694 26.2656 30.0116 25.5966C30.0066 25.5944 30.0044 25.5966 30 25.5966ZM28.2762 28.0619C28.2587 28.0641 28.2438 28.0679 28.2284 28.0767C28.2114 28.085 28.1949 28.1025 28.1856 28.1196C28.1778 28.1372 28.1801 28.1927 28.1856 28.2284C28.1916 28.2515 28.2125 28.2609 28.2251 28.2758C28.2515 28.307 28.2746 28.3268 28.3082 28.3511C28.3511 28.3802 28.4033 28.3455 28.4126 28.3119C28.4252 28.2543 28.4252 28.1883 28.4126 28.1382C28.4093 28.1184 28.395 28.1081 28.3845 28.091C28.3674 28.0734 28.3499 28.0641 28.3224 28.0619C28.3109 28.0608 28.2921 28.0596 28.2762 28.0619ZM28.8221 28.5615C28.8161 28.5615 28.8095 28.5642 28.8033 28.5687C28.793 28.5758 28.7852 28.5906 28.7852 28.6044C28.7825 28.6754 28.7457 28.7792 28.8105 28.8171C28.8429 28.8347 28.8819 28.838 28.9089 28.8105C28.9215 28.7897 28.9479 28.7864 28.9479 28.749C28.9479 28.7319 28.9277 28.7259 28.9194 28.7049C28.91 28.6764 28.9145 28.6253 28.9056 28.6044C28.8963 28.5885 28.8902 28.5708 28.8716 28.5687C28.8557 28.5642 28.838 28.5582 28.8221 28.5615ZM27.8135 28.6368C27.7656 28.6533 27.7184 28.6923 27.7013 28.7528C27.6804 28.7885 27.6815 28.8138 27.7013 28.8359C27.7266 28.8732 27.758 28.9166 27.8019 28.9364C27.8387 28.9551 27.8871 28.9584 27.9036 28.8786C27.9222 28.8128 27.9195 28.7165 27.8882 28.6913C27.8514 28.6638 27.8607 28.6253 27.8135 28.6368ZM28.3664 29.4618C28.29 30.1017 28.0553 30.8328 27.8271 31.3127C28.0943 31.277 28.307 31.4391 28.3224 31.6446C28.3895 31.411 28.5687 31.2318 28.7814 31.2945C28.6418 30.7134 28.4691 30.0902 28.3664 29.4618Z" fill="#0053A0"/>
<path fill-rule="evenodd" clip-rule="evenodd" d="M31.9745 15.5129C31.9679 15.5156 31.9619 15.5211 31.9563 15.5283C31.9316 15.5568 31.9111 15.7156 31.9051 15.8206C31.9041 15.8427 31.9041 15.8603 31.9272 15.8751C32.3933 16.1588 33.7901 17.7423 35.007 18.0188C35.0603 18.0303 35.0669 18.0755 35.0405 18.1023C33.5933 19.803 35.3192 22.4591 32.4665 23.4716C31.9365 23.6172 31.4033 23.5479 31.3049 23.9009C31.3022 23.9135 31.3197 23.9294 31.3302 23.9294C33.0458 24.0383 34.116 23.46 34.4364 22.2348C34.8492 20.8694 34.0719 18.9296 35.5358 17.871C35.5727 17.843 35.5529 17.7945 35.5203 17.7978C34.0407 17.9484 33.0947 16.3787 31.9953 15.5168C31.9898 15.5129 31.9805 15.5118 31.9745 15.5129ZM32.4444 17.7978C32.4268 17.8017 32.4087 17.8072 32.3932 17.8165C32.3763 17.8248 32.3598 17.8418 32.3504 17.8605C32.3427 17.8764 32.345 17.9286 32.3504 17.9645C32.3565 17.9874 32.3774 18.0006 32.39 18.0155C32.4164 18.048 32.4395 18.0627 32.4729 18.087C32.5158 18.1161 32.568 18.0848 32.5775 18.0513C32.5901 17.9936 32.5901 17.9286 32.5775 17.8776C32.5742 17.8595 32.5598 17.844 32.5494 17.8269C32.5323 17.8093 32.5148 17.8 32.4873 17.7978C32.4758 17.7978 32.4603 17.7957 32.4444 17.7978ZM32.9463 18.3558C32.9408 18.3568 32.9348 18.3579 32.9292 18.3624C32.9187 18.3707 32.9137 18.3843 32.9137 18.3986C32.9104 18.4701 32.8748 18.5728 32.9397 18.6124C32.9705 18.6283 33.0078 18.6323 33.0332 18.6042C33.0468 18.5834 33.0738 18.5801 33.0738 18.5432C33.0738 18.5256 33.0518 18.5213 33.0447 18.5003C33.0353 18.4712 33.0402 18.419 33.0299 18.3986C33.0216 18.3822 33.0144 18.3651 32.9973 18.3624C32.9798 18.3579 32.9639 18.3519 32.9463 18.3558ZM31.9134 18.3624C31.8656 18.3789 31.8183 18.4167 31.8014 18.4784C31.7804 18.5141 31.7816 18.5394 31.8014 18.5613C31.8255 18.5987 31.8579 18.6427 31.9018 18.6619C31.9387 18.6805 31.9871 18.6839 32.0036 18.6042C32.0207 18.5382 32.0195 18.446 31.9887 18.4206C31.9503 18.3926 31.9607 18.3509 31.9134 18.3624ZM32.4698 19.1791C32.3933 19.8189 32.1585 20.55 31.9305 21.0305C32.1965 20.9948 32.4108 21.1563 32.4256 21.3636C32.4927 21.1299 32.6719 20.9492 32.8852 21.0117C32.745 20.4324 32.5725 19.8075 32.4698 19.1791Z" fill="#0053A0"/>
<path fill-rule="evenodd" clip-rule="evenodd" d="M30.9911 11.5508C30.9855 11.552 30.9795 11.552 30.9729 11.5553C29.6586 11.9268 27.8838 13.4433 26.4216 14.7725C26.3787 14.8214 26.3199 14.8319 26.2721 14.8154C25.3004 14.496 24.1703 14.4547 23.2286 14.4289C21.8852 14.3052 20.2703 14.4696 18.8252 14.9379C18.7631 14.9598 18.7164 14.9033 18.6702 14.8478C17.5263 13.5753 15.9147 12.5331 14.1755 11.8075C14.1272 11.7844 14.0865 11.7636 14.031 11.8146C13.1382 12.6381 13.3346 15.077 14.1008 16.3995C14.1909 16.5914 14.2107 16.9277 14.2128 17.0426C14.2673 17.7539 14.4059 18.3684 14.5922 19.0313C14.6384 19.443 14.796 19.8618 15.033 20.217C15.0792 20.2736 15.0594 20.3247 15.0258 20.3615C14.723 20.6649 14.4465 20.9519 14.1437 21.2547C14.1216 21.2756 14.0799 21.2904 14.0391 21.2976C13.788 21.3267 13.7094 21.4086 13.5906 21.6989C13.5731 21.7407 13.5753 21.7698 13.5972 21.8045C13.6401 21.8841 13.9314 22.3887 14.1722 22.6569C14.4047 22.8873 14.3178 23.106 14.1216 23.3154C14.4927 23.5931 15.1566 24.1241 15.1962 24.2048C15.2381 24.4187 15.6152 24.4907 15.3903 24.7974C15.4497 24.8111 15.4854 24.8331 15.5316 24.8699C15.5651 24.9062 15.5723 24.9408 15.5756 24.9788C15.6057 25.3119 15.6684 25.6142 15.8531 25.9331C16.605 27.2082 17.4477 27.0114 18.4493 28.0988C19.0484 28.7501 19.6398 28.7759 20.0471 29.9247C20.0097 30.3606 19.9866 30.6277 20.1663 31.0048C20.3791 31.4655 20.903 31.4831 21.5763 31.7892C21.6665 31.8243 21.7164 31.8519 21.7824 31.92C21.9584 32.0914 22.1606 32.2014 22.3898 32.3103C22.575 32.3889 22.7943 32.3889 22.9647 32.3031C23.2885 32.1178 23.3567 32.252 23.9553 31.8216C24.5198 31.6551 25.4415 30.9597 25.3432 29.7764C25.3465 29.7417 25.3547 29.7186 25.3652 29.6883C25.3827 29.6339 25.4332 29.5796 25.4811 29.5268C25.7086 29.2547 25.9692 29.0139 26.1287 28.6841C26.1611 28.6044 26.1891 28.5269 26.2617 28.467C28.5153 26.6273 27.7184 27.4358 28.533 26.8113C30.2034 25.5411 29.1068 24.0581 31.0631 23.2286C30.7982 22.6674 30.8883 22.6163 31.7502 21.4212C31.2945 21.1805 30.9772 20.904 30.6612 20.683C29.6701 19.9057 30.57 19.2462 30.6513 18.8648C30.708 18.6482 30.7932 18.375 30.8141 18.0986C30.9197 17.4615 30.8602 16.7106 31.1856 16.3775C31.4253 16.146 31.4946 14.8791 31.5326 14.7764C31.7952 13.9491 31.6991 13.8379 31.7469 13.3185C31.7546 13.2493 31.7793 13.1939 31.7469 13.1174C31.5638 12.6128 31.3395 12.1247 31.0812 11.6409C31.0581 11.5992 31.0412 11.559 31.0086 11.5508C31.0037 11.5497 30.9971 11.5508 30.9911 11.5508ZM30.2105 13.4967C30.105 14.5344 29.7269 15.2216 29.8451 16.0917C29.4042 16.6331 29.5519 17.6429 29.1469 18.2469C29.1205 18.2816 29.0849 18.3014 29.042 18.2975C28.5038 18.2085 28.1267 17.5307 27.6689 17.1476C27.6221 17.1108 27.5991 17.0762 27.6144 17.0393C27.8007 16.6248 28.2284 16.2093 27.8964 15.7883C27.9129 14.5817 29.3541 14.3877 30.2105 13.4967ZM14.7114 13.6956C15.5568 14.1689 16.0961 14.9637 16.5116 14.9753C16.5765 15.0759 16.6688 15.1797 16.7463 15.2612C17.3685 15.969 16.875 16.2328 17.4219 17.1409C17.4812 17.268 17.5076 17.3916 17.4219 17.4692C17.0564 17.7875 16.7315 18.1101 16.428 18.4596C16.0268 18.9467 15.8311 18.7674 15.7123 18.4596C15.6381 18.2315 15.5595 17.9738 15.6624 17.711C15.7262 17.5664 15.6876 17.4477 15.5788 17.3097C15.4332 17.1052 15.3144 16.8887 15.1995 16.6733C15.1589 16.5924 15.1324 16.5231 15.1165 16.4214C14.9719 15.5261 14.9984 14.187 14.7114 13.6956ZM25.2135 22.5597C25.275 22.5531 25.3295 22.5954 25.3367 22.6569C25.3433 22.7196 25.297 22.7774 25.2354 22.784C25.1733 22.79 25.1188 22.745 25.1118 22.6823C25.1062 22.6212 25.1525 22.5668 25.2135 22.5597ZM19.4397 22.5701C19.5024 22.5647 19.5563 22.6058 19.5623 22.6685C19.5695 22.7301 19.5227 22.784 19.4618 22.791C19.4001 22.7982 19.3446 22.7553 19.3391 22.6938C19.332 22.6317 19.3782 22.5773 19.4397 22.5701ZM28.7424 25.0831C28.8336 25.0843 28.8617 25.1696 28.8512 25.2564C28.754 26.4827 28.1823 26.1452 26.8762 27.3066C26.5348 27.5793 26.647 27.8442 26.1864 28.2323C25.8004 28.5929 25.4404 28.97 25.1118 29.4366C25.0584 29.5163 25.0194 29.4317 25.0145 29.396C24.9986 29.2986 24.9408 29.1887 24.8595 29.0997C24.6435 28.8567 24.9881 28.8869 24.5994 28.3049C24.4385 28.0691 24.2522 28.373 24.14 27.9905C24.0707 27.7436 24.1367 27.8651 24.0498 27.2924L24.278 27.1038C24.3851 27.4094 24.5356 27.665 24.7 27.8777C24.7242 27.9069 24.6792 28.1646 24.7797 28.3917C24.8007 28.0332 25.1211 27.8271 24.6643 27.1841C24.6049 27.1005 24.5742 27.0186 24.5522 26.9202C24.5495 26.9097 24.5472 26.9015 24.5451 26.8911C25.4103 26.3288 26.3787 25.8698 27.2928 25.491C27.2462 25.5432 27.201 25.5956 27.1549 25.6511C27.1339 25.6763 27.1748 25.6856 27.1874 25.6802C27.2429 25.6647 27.2693 25.6719 27.3132 25.6802C27.3423 25.6971 27.339 25.7274 27.339 25.7549C27.3456 25.8615 27.2604 25.8675 27.2858 25.9863C27.4364 25.7934 27.5798 25.6059 27.7332 25.4301C27.7695 25.385 27.8167 25.3317 27.8881 25.34L28.0553 25.3619C28.112 25.3641 28.1663 25.3536 28.2284 25.3361C28.3757 25.2783 28.4856 25.2069 28.6263 25.1118C28.6725 25.0898 28.7111 25.0831 28.7424 25.0831ZM16.4573 25.2783C16.4627 25.2783 16.4719 25.2822 16.4791 25.2855C16.9128 25.5032 17.5043 25.6395 17.8061 25.7664C17.9645 25.8407 18.1349 25.9506 18.2574 25.9692C18.308 25.9725 18.308 25.9451 18.2826 25.9149C18.2502 25.8638 18.2178 25.8153 18.1854 25.7703C18.9307 26.1161 19.6211 26.5173 20.3511 26.9999C20.3489 27.006 20.3456 27.0114 20.3445 27.0176C20.3235 27.0797 20.3027 27.1362 20.2818 27.1874C20.2703 27.2165 20.2577 27.2489 20.2461 27.2742C20.2368 27.2961 20.2263 27.3192 20.217 27.339C20.1999 27.3759 20.1823 27.4165 20.1663 27.4479C20.1454 27.4879 20.1224 27.5352 20.1048 27.5705C20.0993 27.5843 20.0933 27.5969 20.0873 27.6107C20.0757 27.6365 20.0631 27.6617 20.0553 27.686C20.0493 27.7035 20.045 27.7194 20.04 27.737C20.0378 27.7448 20.0345 27.753 20.0334 27.7623C20.0285 27.7854 20.0273 27.8085 20.0252 27.8337C20.024 27.8574 20.024 27.8816 20.0252 27.9069C20.0273 27.9338 20.0285 27.9602 20.0334 27.9905C20.0421 28.0629 20.0631 28.091 20.0873 28.1025C20.0943 28.1058 20.1048 28.107 20.1131 28.1091C20.1302 28.113 20.1636 28.1184 20.1741 28.091C20.1823 28.0652 20.1949 28.0398 20.2065 28.0157C20.218 27.9905 20.2286 27.9674 20.2428 27.9426C20.2692 27.8942 20.3006 27.8459 20.333 27.798C20.3396 27.7875 20.3466 27.7761 20.3549 27.7656C20.4137 27.6827 20.4786 27.6029 20.5385 27.5205C20.5446 27.5123 20.5479 27.5057 20.5539 27.4985C20.5781 27.4628 20.6001 27.4259 20.622 27.3896C20.6303 27.377 20.6391 27.3632 20.6473 27.3506C20.6682 27.3143 20.6891 27.2786 20.7051 27.2418L21.1717 27.5886C21.0942 27.7782 20.9948 28.0355 20.9657 28.218C20.9112 28.6286 20.6589 28.5362 20.4703 28.3802C20.4819 28.8033 20.5143 28.9853 20.2785 29.3564C20.2472 29.4096 20.2181 29.391 20.1989 29.3564C19.6283 28.2564 19.0774 28.5186 18.3558 27.3468C18.2908 27.1769 18.1683 27.0147 17.9319 26.9268C17.0426 26.5767 16.4072 26.336 16.428 25.314C16.4292 25.2959 16.4385 25.2783 16.4573 25.2783ZM24.3021 28.9518C24.339 28.9539 24.3714 28.9853 24.385 29.0244C24.5649 29.4294 24.7879 30.1418 24.7149 30.3722C24.451 31.3835 23.7387 31.5511 23.0769 31.4643C22.5806 31.3995 22.5783 31.2829 22.5701 30.951C22.5713 30.9147 22.6212 30.9009 22.6614 30.8893C23.2609 30.7008 23.6215 30.3744 23.637 29.751C23.6403 29.6664 23.6508 29.5773 23.6079 29.501C23.7754 29.3937 23.9306 29.2827 24.0822 29.1437C24.0867 29.1392 24.0927 29.1342 24.096 29.1288C24.1422 29.0556 24.1944 28.9968 24.2664 28.9584C24.279 28.9539 24.2906 28.9508 24.3021 28.9518ZM20.969 29.0282C20.9888 29.0222 21.0063 29.0327 21.0272 29.0568C21.042 29.0733 21.0629 29.1249 21.1101 29.1249C21.191 29.2272 21.3036 29.3151 21.4098 29.3927C21.3773 29.4245 21.3575 29.4618 21.3449 29.501C21.3114 29.5971 21.3174 29.7603 21.3449 29.9093C21.3564 29.9973 21.3867 30.0747 21.4317 30.1512C21.6483 30.4881 21.8022 30.6393 22.0463 30.8058C22.148 30.8674 22.26 30.9207 22.3898 30.9081C22.4255 30.9031 22.4464 30.9273 22.4403 30.9576C22.4013 31.4539 22.1754 31.4874 21.6054 31.417C20.3423 31.1647 20.2306 30.3419 20.9145 29.0997C20.9298 29.0556 20.9508 29.0337 20.969 29.0282ZM22.6074 31.7133C22.7817 31.7095 22.9669 31.7155 23.1489 31.7386C23.1763 31.744 23.1786 31.7671 23.1708 31.7859C23.145 31.854 23.0687 31.9408 23.0297 31.9744C23.0054 31.993 22.968 32.0002 22.9356 32.0101C22.7992 32.0464 22.5866 32.0623 22.5492 32.0568C22.5156 32.0497 22.4822 32.0371 22.4508 32.0173C22.3322 31.9503 22.221 31.8727 22.104 31.8013C22.0786 31.7815 22.0776 31.7512 22.1073 31.7469C22.2649 31.7314 22.4316 31.7178 22.6074 31.7133Z" fill="#0053A0"/>
<path fill-rule="evenodd" clip-rule="evenodd" d="M30.8504 12.4694C30.8432 12.4694 30.8361 12.4704 30.8283 12.4727C29.3927 12.9948 27.6117 14.0337 26.6855 15.4122C26.3117 15.7134 25.9286 16.007 25.5317 16.2648C26.3568 15.1682 24.7106 15.0957 22.7262 14.8802C21.3624 14.7636 19.7349 15.1902 19.2049 15.4809C19.1571 15.5085 19.1276 15.5628 19.1654 15.6113C19.3133 15.8217 19.3589 16.0697 19.4463 16.3022C19.4585 16.3275 19.4337 16.3296 19.4143 16.3127C17.6878 14.7669 15.1083 12.682 14.2487 12.4764C14.2079 12.4693 14.1711 12.483 14.1503 12.5205C14.0892 12.6485 14.075 12.686 14.0277 12.8129C13.9941 12.9251 13.9326 12.9948 13.9017 13.0256C13.4098 13.5083 14.2718 14.4129 14.4003 16.0674C14.4861 16.7661 14.6549 17.0795 14.8154 17.5598C14.8401 17.6247 14.856 17.6802 14.8665 17.7446C15.0896 18.5151 15.2352 19.3007 15.5316 20.0147C15.8844 21.1613 14.501 20.9727 14.4443 21.9237C14.4119 22.569 15.1694 22.923 15.0402 23.3952C15.032 23.4248 14.9763 23.4573 15.0076 23.4957C15.5908 24.101 15.8163 23.9597 16.0521 24.4616C16.5996 25.4207 17.1943 24.3714 18.1854 25.7703C18.9307 26.1161 19.6211 26.5173 20.3511 26.9999C20.4033 26.8366 20.4516 26.6343 20.4955 26.3705C20.5824 25.8489 20.5654 25.3223 20.2356 24.5946C20.1751 24.4884 20.2115 24.3087 20.3187 24.2235C20.373 24.1829 20.3961 24.167 20.4023 24.251C20.4945 25.2185 21.2871 25.8708 20.799 26.7861C20.7815 26.8196 20.7606 26.8472 20.7666 26.9015C20.7771 27.0252 20.7518 27.1362 20.7051 27.2418L21.1717 27.5886C21.2025 27.5133 21.2305 27.45 21.2481 27.405C21.4558 26.3298 21.6192 24.5946 21.7752 24.3785C21.7896 24.3576 21.8066 24.3252 21.7752 24.3021C21.5939 24.1146 21.39 23.8035 21.4828 23.7096C21.5823 23.6343 22.1617 23.8685 22.1584 24.2883C22.1341 24.6644 21.7676 28.1454 21.3092 28.6368C21.2871 28.6622 21.2954 28.6797 21.3092 28.6985C21.5093 28.9803 21.4664 29.0502 21.396 29.0859C21.3323 29.1101 21.1992 29.0997 21.1393 29.1216C21.1288 29.1249 21.1184 29.1249 21.1101 29.1249C21.191 29.2272 21.3036 29.3151 21.4098 29.3927C21.4736 29.33 21.5813 29.2838 21.7467 29.259C22.3931 29.147 23.0099 29.1656 23.4821 29.3888C23.5452 29.4212 23.5848 29.4597 23.6079 29.501C23.7754 29.3937 23.9306 29.2827 24.0822 29.1437C24.0383 29.1761 23.9448 29.1447 23.9305 29.0705C23.6716 27.6596 23.3952 27.4419 23.2319 26.3777C23.166 26.0166 23.1347 25.6383 23.2028 25.2921C23.2248 25.1799 23.2319 25.0782 23.2028 24.9567C23.1093 24.6089 23.1148 24.2456 23.1928 23.9009C23.2456 23.7849 23.3814 23.6298 23.4782 23.499C23.5584 23.394 23.6149 23.2715 23.659 23.1384C23.704 23.0006 24.1515 22.3322 24.5336 22.2266C24.566 22.2183 24.5703 22.1991 24.5742 22.1688C24.5775 22.1354 24.5148 22.1342 24.5198 22.083C24.5336 21.8171 26.2062 21.9605 27.0867 22.0424C27.4221 22.0127 27.7568 21.9605 28.0734 21.9017C28.1289 21.8913 28.1328 21.9105 28.0992 21.9456C27.8366 22.2348 27.4583 22.3931 27.1158 22.437C27.051 22.4465 27.0335 22.4822 27.0209 22.5311C26.8251 23.5128 25.4048 23.9871 24.7869 23.8718C24.7473 23.8646 24.7463 23.8926 24.7473 23.9124C24.7925 24.4154 24.5764 24.4665 24.3889 25.9368C24.3774 26.0187 24.3807 26.0919 24.3933 26.1748C24.4226 26.4133 24.4917 26.6399 24.5451 26.8911C25.4103 26.3288 26.3787 25.8698 27.2928 25.491C27.4776 25.2822 27.6606 25.0931 27.8525 24.8804C27.9057 24.81 28.0086 24.7671 28.1058 24.7325C28.8336 24.4269 29.5707 23.9514 30.1238 23.3511C30.1397 23.3315 30.1731 23.2989 30.1627 23.261C29.994 22.4717 30.5145 22.2381 30.8421 21.6527C30.8916 21.5763 30.8382 21.5565 30.7844 21.529C30.4244 21.3019 30.0968 20.9888 29.8451 20.6946C29.7857 20.6067 29.7603 20.4956 29.7395 20.3973C29.4789 19.1715 30.0181 19.0818 30.1155 18.3728C30.1083 18.02 30.2034 17.6049 30.3144 17.2383C30.4452 16.8111 30.504 16.4643 30.6546 16.2258C30.7289 14.0903 31.3917 14.5724 31.211 13.434C31.1637 13.2065 31.0433 12.7931 30.8999 12.509C30.8883 12.482 30.8708 12.4704 30.8504 12.4694ZM30.4419 12.8859C30.4535 12.8832 30.466 12.8849 30.4776 12.8859C30.5541 12.8915 30.614 12.948 30.6222 13.019C30.636 13.1576 30.6662 13.2851 30.6938 13.4132C30.2001 14.5932 30.4871 16.2132 29.8412 17.2059C29.8088 18.0754 29.6999 18.63 29.1833 18.977C29.1623 18.9929 29.1391 18.9906 29.1145 18.977C28.29 18.5739 27.5529 17.734 26.8334 17.0749C27.953 16.3461 26.939 15.5805 27.737 14.7438C28.6659 13.7627 29.4839 13.6654 30.3332 12.9354C30.3689 12.9052 30.4056 12.8892 30.4419 12.8859ZM14.3898 12.947C14.4915 12.948 14.6086 13.0025 14.6928 13.0839C15.52 13.4456 15.4458 13.7765 16.0917 14.1008C16.2291 14.1722 16.4643 14.3009 16.6456 14.3421C16.7292 14.6318 16.8656 14.6235 17.1696 15.1418C17.2427 15.2688 17.5098 15.4772 17.534 15.6509C17.5527 15.7596 17.5505 15.8543 17.5422 15.9587C17.534 16.2533 17.4125 16.5346 17.5746 16.6666C17.7077 16.7347 17.6198 16.8018 17.8605 16.9233C17.982 16.9821 18.0447 17.0426 17.9798 17.1696C17.7875 17.5065 17.5517 17.7842 17.3367 18.092C17.2806 18.1634 17.1987 18.2201 17.1158 18.269C16.649 18.5487 16.2615 18.9423 15.8427 19.3133C15.8163 19.3331 15.8036 19.3133 15.785 19.3067C15.3837 19.0785 15.2771 18.6806 15.2237 18.1382C15.0852 16.6898 14.7944 17.9424 14.3063 13.6296C14.2404 13.4351 14.1689 13.0883 14.2299 13.0086C14.2718 12.9657 14.3273 12.9459 14.3898 12.947ZM23.8361 15.7559C23.4644 16.4445 23.2758 16.3797 23.0516 16.649C23.0351 16.6677 23.0181 16.6908 23.0006 16.7139C22.9845 16.737 22.9669 16.7611 22.951 16.7892C22.9333 16.8166 22.9208 16.8414 22.9137 16.8656C22.9137 16.8668 22.9148 16.8678 22.9137 16.8689C22.9082 16.892 22.9042 16.9178 22.9032 16.9382C22.9137 17.163 22.8768 17.2542 22.9356 17.3284C22.9395 17.3338 22.9416 17.34 22.9428 17.3466C22.9461 17.3537 22.9461 17.3609 22.9471 17.3675C22.9482 17.3829 22.9449 17.3976 22.9395 17.4081C22.8976 17.3817 22.8329 17.3318 22.7774 17.2823C22.7345 17.2437 22.6988 17.208 22.6823 17.1767C22.6823 17.1756 22.6833 17.1746 22.6823 17.1734C22.6778 17.163 22.6756 17.1525 22.6756 17.1443C22.6756 17.1212 22.6734 17.1063 22.6717 17.0931C22.6663 17.0415 22.6515 17.0492 22.6393 16.9926C22.6338 16.964 22.6267 16.919 22.6245 16.8404C22.6234 16.8018 22.6245 16.7535 22.6245 16.6951C22.6201 16.6584 22.6235 16.6397 22.6328 16.6238C22.6361 16.6166 22.641 16.6089 22.6465 16.6017C22.6525 16.5946 22.6581 16.5881 22.6652 16.5798C23.0006 16.2351 23.4458 16.007 23.8361 15.7559ZM21.1613 15.8394C21.5126 16.0779 21.9072 16.3967 22.2926 16.7172C22.3008 16.7265 22.3062 16.7358 22.3145 16.7463C22.3365 16.7799 22.353 16.8194 22.3436 16.8689C22.3206 17.0145 22.2507 17.1548 22.1952 17.3027C22.1929 17.3097 22.1886 17.313 22.1836 17.318C22.1793 17.3213 22.1754 17.3262 22.1699 17.3284C22.1585 17.3328 22.1447 17.3317 22.1375 17.3245C22.0683 17.2366 21.993 17.1476 21.9303 17.0574C21.9095 17.03 21.8874 16.9997 21.8874 16.9629C21.8901 16.9338 21.8913 16.9045 21.8913 16.8804C21.8913 16.8552 21.8901 16.8332 21.8874 16.8111C21.8818 16.7705 21.8693 16.7348 21.8517 16.7067C21.8505 16.7057 21.8517 16.7034 21.8517 16.7034C21.8148 16.6446 21.7511 16.61 21.6494 16.5831C21.5658 16.5588 21.4933 16.522 21.4317 16.4791C21.4306 16.4781 21.4294 16.4791 21.4284 16.4791C21.3382 16.4143 21.2735 16.3275 21.2295 16.2225C21.2295 16.2213 21.2262 16.2196 21.2262 16.2186C21.1821 16.1115 21.1623 15.9861 21.1613 15.8394ZM25.8143 19.2231C25.9088 19.2188 26.0084 19.2303 26.1066 19.2522C26.204 19.2743 26.3013 19.3079 26.3842 19.3529C26.41 19.3688 26.4166 19.4001 26.3881 19.4106C26.2491 19.448 26.1078 19.4952 25.9655 19.5519C25.8939 19.5793 25.8248 19.6107 25.7516 19.6421C25.3932 19.8003 25.0276 19.9982 24.6643 20.1812C24.6258 20.1972 24.6006 20.1917 24.5841 20.1696C24.5786 20.1614 24.5742 20.1533 24.5703 20.1405C24.5621 20.1015 24.5637 20.0631 24.567 20.0252C24.5693 19.9877 24.5765 19.9499 24.5775 19.9091C24.5808 19.8536 24.6154 19.8503 24.6352 19.8222C24.7033 19.796 24.7611 19.7729 24.809 19.7508C24.9513 19.6848 25.0091 19.6388 25.0574 19.5959C25.091 19.5668 25.1211 19.5404 25.1629 19.5078C25.2057 19.4766 25.2624 19.4408 25.3547 19.3968C25.4103 19.3716 25.4658 19.3485 25.5201 19.3238C25.5758 19.3007 25.63 19.2776 25.6834 19.2588C25.7251 19.2369 25.7736 19.2243 25.8143 19.2231ZM18.7604 19.2984C18.7674 19.2984 18.7769 19.3007 18.7823 19.2984C18.8054 19.3067 18.8241 19.316 18.8406 19.3238C18.8565 19.3331 18.8681 19.3424 18.8796 19.3529C18.9225 19.3898 18.9401 19.4315 19.05 19.4837C19.0764 19.4963 19.1111 19.5123 19.1505 19.5266C19.1907 19.5404 19.2386 19.554 19.2951 19.5705C19.4315 19.6145 19.5288 19.6398 19.62 19.6744C19.6222 19.6755 19.6223 19.6778 19.625 19.6778C19.7151 19.7141 19.8019 19.758 19.909 19.8338C19.9465 19.8597 19.9856 19.8899 20.0295 19.9245C20.0724 19.9592 20.1213 19.9981 20.1741 20.0433C20.196 20.0608 20.2158 20.0724 20.2207 20.1048C20.2219 20.1153 20.2208 20.1257 20.217 20.1372V20.1405C20.2137 20.1521 20.2087 20.1626 20.2032 20.1741C20.1894 20.1983 20.1708 20.2191 20.152 20.2356C20.1454 20.24 20.1395 20.2439 20.1339 20.2461C20.129 20.2472 20.1196 20.2472 20.1081 20.2461C20.0734 20.2389 20.046 20.2346 20.018 20.2241C19.9926 20.2148 19.9707 20.2032 19.9498 20.1916C19.9278 20.1801 19.9091 20.1696 19.8921 20.156C19.8746 20.1417 19.8608 20.1269 19.8449 20.112C19.8125 20.0817 19.7789 20.0504 19.736 20.018C19.7162 20.0021 19.6942 19.9866 19.6672 19.9707C19.6408 19.9553 19.6107 19.9394 19.5771 19.9245C19.5425 19.9091 19.515 19.9058 19.4869 19.913C19.4776 19.9163 19.4671 19.9185 19.4584 19.9245C19.4209 19.9394 19.3865 19.9218 19.3496 19.913C19.3215 19.907 19.2902 19.8964 19.2594 19.8849C19.2578 19.8838 19.2567 19.8849 19.2555 19.8849C19.0302 19.7959 18.7499 19.5761 18.7488 19.3133C18.7488 19.3089 18.7515 19.3045 18.7526 19.3017C18.7548 19.3006 18.7571 19.2984 18.7604 19.2984ZM19.2407 21.8148C19.3007 21.8148 19.3634 21.8181 19.4259 21.8214C19.4892 21.8276 19.554 21.833 19.62 21.8435C19.6699 21.8517 19.7184 21.8621 19.7696 21.8726C19.7855 21.8769 19.802 21.8798 19.8189 21.8841C19.8492 21.8913 19.8795 21.9 19.909 21.9095C19.9486 21.9198 19.9866 21.9314 20.0252 21.9456C20.0817 21.965 20.1361 21.9858 20.1916 22.01C20.2399 22.0308 20.289 22.0539 20.3363 22.0787C20.3835 22.104 20.4314 22.1331 20.4776 22.1618C20.5166 22.1859 20.555 22.2117 20.5929 22.2381C20.6105 22.2497 20.6276 22.2579 20.6441 22.2705C20.6715 22.2914 20.6995 22.3134 20.727 22.3353C20.7331 22.3398 20.7386 22.3448 20.7446 22.3502C20.7491 22.3541 20.7551 22.3574 20.7594 22.3607C20.7677 22.3679 20.7771 22.3761 20.7854 22.3827C20.8211 22.4141 20.8567 22.4498 20.8924 22.4832C20.9392 22.5272 20.9832 22.5723 21.0272 22.6212C21.0305 22.6245 21.0338 22.6278 21.0387 22.6317C21.0777 22.6767 21.1146 22.724 21.1542 22.7724C21.1761 22.8026 21.1992 22.8329 21.2223 22.863C21.2411 22.8894 21.258 22.9125 21.2768 22.9395C21.3174 22.9993 21.3542 23.0621 21.3927 23.1281C21.4076 23.1533 21.4191 23.1868 21.4179 23.2143C21.4169 23.2236 21.4146 23.2308 21.4098 23.2401C21.374 23.3166 21.3521 23.394 21.3344 23.4821C21.3323 23.4947 21.3207 23.5052 21.3092 23.5073C21.3048 23.5073 21.2976 23.5062 21.2943 23.5039C21.2316 23.4655 21.1739 23.4287 21.1173 23.388C21.0629 23.349 21.0117 23.3061 20.9623 23.2643C20.9611 23.2643 20.9584 23.2655 20.9584 23.2643C20.9079 23.2226 20.8617 23.1786 20.8139 23.1347C20.3895 22.7427 20.091 22.3167 19.5194 22.2024C19.5183 22.2012 19.5172 22.2024 19.516 22.2024C19.2604 22.1513 18.9539 22.1639 18.5547 22.2672C18.4217 22.281 18.2743 22.281 18.1243 22.2705C17.9737 22.26 17.8209 22.2392 17.6753 22.2128C17.6049 22.2002 17.5319 22.1847 17.4658 22.1688C17.4648 22.1688 17.4636 22.1699 17.4626 22.1688C17.3966 22.1535 17.335 22.1354 17.2783 22.1189C17.2762 22.1177 17.2751 22.1189 17.274 22.1189C17.1569 22.0842 17.0624 22.0473 16.9964 22.0139C17.2949 22.0193 17.6231 22.016 17.9067 22.0034C18.1904 21.9908 18.4261 21.972 18.5394 21.9489C18.5778 21.9303 18.624 21.9142 18.674 21.8979C18.7202 21.883 18.7735 21.8666 18.829 21.855C18.8334 21.8538 18.8394 21.855 18.8439 21.855C18.8934 21.8445 18.9456 21.8357 19.0022 21.8297C19.0115 21.8286 19.0187 21.8264 19.028 21.8264C19.0962 21.8193 19.1666 21.816 19.2407 21.8148ZM25.5422 22.2996C25.2899 22.3145 25.0134 22.4108 24.7 22.6823C24.2257 23.1483 23.8266 23.7282 23.5211 24.2768C23.4854 24.3438 23.4738 24.4049 23.4887 24.4758C23.8361 26.0742 23.985 26.8701 24.0498 27.2924L24.278 27.1038C24.141 26.7191 24.0707 26.2535 24.1179 25.6938C24.2823 25.2657 24.3681 24.7601 24.4434 24.2768C24.6929 23.747 24.7188 23.5221 24.96 23.5364C25.1766 23.5479 25.4009 23.5584 25.6037 23.5145C25.6824 23.499 25.7472 23.4677 25.8176 23.4237C26.159 23.2182 26.4503 22.9395 26.6993 22.6245C26.7294 22.5921 26.7476 22.5228 26.7317 22.4914C26.7224 22.4673 26.7075 22.4547 26.6772 22.4547C26.3182 22.4766 25.9643 22.2749 25.5422 22.2996ZM25.4268 22.3386C25.4939 22.3376 25.563 22.3524 25.629 22.3794C25.762 22.4316 25.8592 22.5333 25.9116 22.6536C25.9378 22.7147 25.9527 22.7784 25.9555 22.8454C25.9566 22.9125 25.9451 22.9818 25.9182 23.0478C25.8918 23.1136 25.8533 23.1704 25.806 23.2182C25.6647 23.3606 25.4438 23.4122 25.2459 23.3336C25.2123 23.3199 25.1811 23.3061 25.1525 23.2863C25.1234 23.2676 25.1003 23.2446 25.0761 23.2215C24.9336 23.0802 24.8814 22.863 24.96 22.6652C24.9705 22.6383 24.9821 22.6152 24.9963 22.5921C24.9986 22.5899 25.0019 22.5876 25.0041 22.5849C25.0101 22.575 25.0145 22.5657 25.0217 22.5564C25.0353 22.5377 25.0508 22.5218 25.0656 22.5053L25.0794 22.4914C25.1013 22.4695 25.1234 22.4475 25.1492 22.43C25.1684 22.4151 25.1915 22.4046 25.2135 22.3931C25.2173 22.392 25.2206 22.392 25.2239 22.3898C25.2311 22.3877 25.2354 22.3815 25.2426 22.3794C25.2707 22.3679 25.2992 22.3596 25.3295 22.354C25.3608 22.3468 25.3943 22.3398 25.4268 22.3386ZM19.6574 22.3469C19.7244 22.3448 19.7888 22.3563 19.8564 22.3827C19.8882 22.3953 19.9206 22.4108 19.9498 22.43C19.9789 22.4486 20.0021 22.4706 20.0252 22.4948C20.0504 22.5195 20.0712 22.5426 20.091 22.5701C20.1279 22.6256 20.1559 22.6872 20.1708 22.752C20.1916 22.8477 20.1845 22.9521 20.1455 23.0516C20.1312 23.0852 20.1164 23.1126 20.0976 23.1417C20.0976 23.1429 20.0993 23.144 20.0976 23.145C20.0229 23.2583 19.9047 23.3348 19.7762 23.3627C19.7112 23.3765 19.6442 23.3775 19.5771 23.366C19.5437 23.3606 19.509 23.35 19.4766 23.3374C19.443 23.3232 19.4106 23.3084 19.382 23.2896C19.3254 23.2529 19.2786 23.2038 19.2407 23.1483C19.1478 23.012 19.1214 22.8339 19.1874 22.6685C19.2 22.6361 19.2187 22.6058 19.2373 22.5783C19.2544 22.5515 19.271 22.5272 19.2914 22.5053C19.2963 22.5008 19.3017 22.4987 19.3067 22.4948C19.3287 22.4729 19.3495 22.4498 19.3749 22.4337C19.3957 22.4184 19.4176 22.4079 19.4397 22.3964C19.4407 22.3964 19.442 22.3943 19.443 22.3931C19.4639 22.3838 19.487 22.3794 19.509 22.3722C19.5299 22.3656 19.5519 22.3573 19.5738 22.354H19.581C19.6052 22.3491 19.6316 22.3469 19.6574 22.3469ZM18.0155 22.5992C18.0282 22.5992 18.0419 22.6014 18.0551 22.6037C18.0573 22.6037 18.0606 22.6025 18.0627 22.6037C18.0858 22.6058 18.1089 22.614 18.1349 22.6245C18.1623 22.6361 18.1914 22.6499 18.2217 22.6685C18.2525 22.6872 18.2849 22.7081 18.32 22.7334L18.3299 22.7405C18.3602 22.7636 18.3905 22.7867 18.4239 22.8131C18.4596 22.8411 18.4932 22.8653 18.5328 22.8966C18.6053 22.9532 18.6855 23.0152 18.7707 23.0769C18.8136 23.1082 18.8576 23.1368 18.9048 23.1671C18.9411 23.1902 18.978 23.217 19.0176 23.2401C19.0335 23.2496 19.0511 23.2583 19.067 23.2676C19.1121 23.2935 19.1599 23.3177 19.2082 23.3408C19.2555 23.3639 19.3056 23.3847 19.3561 23.4056C19.3726 23.4122 19.3875 23.4216 19.404 23.4276C19.4545 23.4468 19.5078 23.4623 19.5623 23.4782C19.6272 23.4969 19.6931 23.5155 19.7613 23.5293C19.8305 23.5419 19.9014 23.5512 19.975 23.5568C20.0493 23.564 20.1268 23.5683 20.2065 23.5683C20.2219 23.5683 20.2335 23.5722 20.2428 23.5788C20.2515 23.5848 20.2587 23.5931 20.261 23.6079C20.2631 23.7327 20.1488 23.7767 20.0252 23.7849C19.952 23.786 19.8795 23.7837 19.8053 23.7816C19.5876 23.7755 19.3716 23.7585 19.1538 23.7233C19.1308 23.7212 19.1111 23.7156 19.089 23.7063C19.0682 23.6969 19.05 23.6843 19.028 23.6694C18.9609 23.6238 18.8901 23.5722 18.8186 23.5145C18.7466 23.4561 18.6784 23.3962 18.6124 23.3374C18.5443 23.277 18.4817 23.2215 18.4272 23.1704C18.374 23.1209 18.3315 23.0779 18.3014 23.0478C18.27 23.0202 18.2459 22.9973 18.225 22.9752C18.2052 22.9544 18.1881 22.9334 18.1739 22.9175C18.1475 22.8851 18.1359 22.863 18.1211 22.8422C18.1128 22.8318 18.1045 22.8224 18.0952 22.8131C18.0666 22.7828 18.02 22.7504 17.915 22.6938C17.9022 22.6883 17.894 22.6833 17.8929 22.6757C17.8919 22.6707 17.8919 22.6674 17.8962 22.6614C17.9001 22.6559 17.9034 22.6487 17.91 22.6433C17.9215 22.6338 17.9358 22.6268 17.9474 22.6212C17.9579 22.6152 17.9682 22.6097 17.9798 22.607C17.9913 22.6037 18.0029 22.6004 18.0155 22.5992Z" fill="#FDBE11"/>
</svg>
