<svg width="45" height="45" viewBox="0 0 45 45" fill="none" xmlns="http://www.w3.org/2000/svg">
<path d="M22.5001 0C10.0965 0 0 10.0965 0 22.5001C0 34.9035 10.0965 45 22.5001 45C34.9035 45 45 34.9035 45 22.5001C44.989 10.0965 34.9035 0 22.5001 0Z" fill="#00285E"/>
<path d="M42.6489 22.5001C42.6489 11.3708 33.6292 2.3511 22.489 2.3511C11.3599 2.3511 2.32904 11.3708 2.32904 22.5001C2.32904 33.6292 11.3599 42.66 22.489 42.66C33.6292 42.6489 42.6489 33.6292 42.6489 22.5001Z" fill="white"/>
<path d="M35.3321 22.5001C35.3321 15.4139 29.5861 9.66795 22.5001 9.66795C15.4139 9.66795 9.66795 15.4139 9.66795 22.5001C9.66795 29.5861 15.4139 35.3321 22.5001 35.3321C29.5861 35.3321 35.3321 29.5861 35.3321 22.5001Z" fill="#6CADDF"/>
<path d="M22.5001 36.3427C14.8645 36.3427 8.65726 30.1246 8.65726 22.489C8.65726 14.8535 14.8645 8.64629 22.5001 8.64629C30.1355 8.64629 36.3538 14.8535 36.3538 22.489C36.3427 30.1355 30.1355 36.3427 22.5001 36.3427ZM22.5001 9.42634C15.293 9.42634 9.42634 15.293 9.42634 22.5001C9.42634 29.707 15.293 35.5738 22.5001 35.5738C29.707 35.5738 35.5738 29.707 35.5738 22.5001C35.5738 15.293 29.707 9.42634 22.5001 9.42634Z" fill="#00285E"/>
<path d="M22.5001 44.0772C10.6018 44.0772 0.922845 34.3982 0.922845 22.5001C0.922845 10.6018 10.6018 0.922845 22.5001 0.922845C34.3982 0.922845 44.0772 10.6018 44.0772 22.5001C44.0662 34.3982 34.3982 44.0772 22.5001 44.0772ZM22.5001 1.38427C10.8545 1.38427 1.39523 10.8545 1.39523 22.5001C1.39523 34.1346 10.8654 43.6048 22.5001 43.6048C34.1346 43.6048 43.6048 34.1346 43.6048 22.5001C43.6048 10.8545 34.1346 1.38427 22.5001 1.38427Z" fill="#6CADDF"/>
<path d="M4.49335 22.0056L4.13088 22.0935L4.03193 21.72L4.63629 21.5442H4.94381V23.6536H4.49335V22.0056Z" fill="#6CADDF"/>
<path d="M5.47115 23.0713C5.47115 22.8076 5.59202 22.6648 5.8117 22.566C5.64698 22.467 5.54803 22.3352 5.54803 22.1046V22.0935C5.54803 21.775 5.84473 21.5223 6.28423 21.5223C6.72358 21.5223 7.02028 21.775 7.02028 22.0935V22.1046C7.02028 22.3242 6.92134 22.467 6.75661 22.566C6.96533 22.6758 7.09716 22.8076 7.09716 23.0603V23.0713C7.09716 23.4558 6.75661 23.6866 6.29519 23.6866C5.83377 23.6866 5.47115 23.4339 5.47115 23.0713ZM6.63574 23.0384C6.63574 22.8735 6.48198 22.7747 6.27327 22.7747C6.06441 22.7747 5.91065 22.8735 5.91065 23.0274C5.91065 23.1702 6.04248 23.2911 6.27327 23.2911C6.50391 23.2911 6.63574 23.1812 6.63574 23.0384ZM6.58079 22.1594C6.58079 22.0275 6.47102 21.9068 6.28423 21.9068C6.09744 21.9068 5.98753 22.0166 5.98753 22.1484V22.1594C5.98753 22.3023 6.1084 22.4121 6.28423 22.4121C6.45991 22.4121 6.58079 22.3023 6.58079 22.1594Z" fill="#6CADDF"/>
<path d="M38.6389 22.7857C38.5291 22.8735 38.3973 22.9285 38.2105 22.9285C37.76 22.9285 37.4633 22.6758 37.4633 22.2583V22.2474C37.4633 21.8298 37.7929 21.5113 38.2655 21.5113C38.551 21.5113 38.7048 21.5772 38.8697 21.742C39.0234 21.8957 39.1114 22.1155 39.1114 22.533V22.5439C39.1114 23.2252 38.7928 23.6866 38.1995 23.6866C37.8919 23.6866 37.6941 23.5876 37.5073 23.4339L37.7491 23.0822C37.9028 23.2031 38.0347 23.2581 38.2105 23.2581C38.5291 23.2581 38.617 22.9615 38.6389 22.7857ZM38.6499 22.2364C38.6499 22.0496 38.518 21.9068 38.2874 21.9068C38.0566 21.9068 37.9359 22.0386 37.9359 22.2253V22.2364C37.9359 22.423 38.0787 22.5549 38.2983 22.5549C38.518 22.5439 38.6499 22.4121 38.6499 22.2364Z" fill="#6CADDF"/>
<path d="M40.5835 23.1921H39.5617L39.4849 22.8625L40.6275 21.5332H41.0119V22.8186H41.2977V23.1921H41.0119V23.6426H40.5726V23.1921H40.5835ZM40.5835 22.8186V22.1705L40.0232 22.8186H40.5835Z" fill="#6CADDF"/>
<path d="M22.5001 35.5738C15.293 35.5738 9.42634 29.707 9.42634 22.5001C9.42634 15.293 15.293 9.42634 22.5001 9.42634C29.707 9.42634 35.5738 15.293 35.5738 22.5001C35.5738 29.707 29.707 35.5738 22.5001 35.5738ZM22.5001 9.90969C15.5567 9.90969 9.90969 15.5567 9.90969 22.5001C9.90969 29.4433 15.5567 35.0903 22.5001 35.0903C29.4433 35.0903 35.0903 29.4433 35.0903 22.5001C35.0903 15.5567 29.4433 9.90969 22.5001 9.90969Z" fill="white"/>
<path fill-rule="evenodd" clip-rule="evenodd" d="M22.2583 11.239C15.8094 11.239 12.085 12.085 12.085 12.085C12.085 12.085 10.6018 17.7429 11.4477 24.9829C11.7994 28.0262 14.2712 34.563 22.467 36.8042C30.6629 34.5739 33.1349 28.0262 33.4864 24.9829C34.3323 17.7319 32.8491 12.085 32.8491 12.085C32.8491 12.085 29.1247 11.239 22.6758 11.239H22.2583Z" fill="#00285E"/>
<path fill-rule="evenodd" clip-rule="evenodd" d="M32.3548 23.302C32.2778 25.4992 31.9372 32.0691 22.4561 35.6836C13.0518 32.168 12.5574 25.3674 12.5574 23.302H32.3548Z" fill="#97C1E7"/>
<path fill-rule="evenodd" clip-rule="evenodd" d="M32.0691 22.9394C32.3218 17.4902 31.3989 13.0737 31.3989 13.0737C31.3989 13.0737 27.8613 12.3926 22.467 12.3926C17.0618 12.3926 13.4692 13.1396 13.4692 13.1396C13.4692 13.1396 12.4914 17.5782 12.7551 22.9285H32.0691V22.9394Z" fill="white"/>
<path d="M22.7526 35.4858L12.7441 23.3899C12.3817 25.8838 14.403 33.2337 22.7526 35.4858Z" fill="#6CADDF"/>
<path d="M15.7325 23.313L24.994 34.4861C25.9278 34.0356 26.6198 33.5963 27.279 33.0689L19.1931 23.313H15.7325Z" fill="#6CADDF"/>
<path d="M22.1594 23.324L29.004 31.5748C29.6741 30.8166 30.2454 30.1246 30.6519 29.3995L25.6201 23.324H22.1594Z" fill="#6CADDF"/>
<path d="M32.1899 23.324L28.7732 23.313L31.6407 26.7737C32.135 25.708 32.1899 23.9172 32.1899 23.324Z" fill="#6CADDF"/>
<path d="M26.499 27.8504C26.477 27.7735 26.4111 27.7076 26.3342 27.6745L25.7629 27.4768C25.708 27.4548 25.6641 27.4658 25.6092 27.4768C25.5652 27.279 25.4554 27.1033 25.2905 26.9825C25.2686 26.9715 25.2465 26.9494 25.2246 26.9385C25.1917 26.9165 25.1477 26.8945 25.1037 26.8726C25.0269 26.8397 24.95 26.8176 24.8841 26.7957C24.7192 26.7407 24.5545 26.6858 24.3458 26.543C24.148 26.4002 24.06 26.2683 23.9722 26.1475C23.9503 26.1146 23.9282 26.0925 23.9063 26.0596C23.8513 25.9716 23.7744 25.8948 23.6975 25.8288C23.5548 25.73 23.3789 25.6751 23.2031 25.6751C23.1592 25.6751 23.1262 25.686 23.0822 25.686V25.6751C23.0933 25.6092 23.0713 25.5323 23.0384 25.4773L22.6867 25.0049C22.6319 24.939 22.5549 24.895 22.467 24.895C22.3792 24.895 22.3023 24.9281 22.2583 24.994L21.8847 25.4664C21.8409 25.5213 21.8188 25.5982 21.8298 25.6751C21.7969 25.6751 21.775 25.6641 21.7419 25.6641C21.5661 25.6641 21.3904 25.7191 21.2476 25.8179C21.2256 25.8288 21.2036 25.8509 21.1927 25.8619C21.1597 25.8947 21.1268 25.9168 21.0937 25.9607C21.0388 26.0266 20.9949 26.0815 20.9509 26.1475C20.841 26.2903 20.7532 26.4221 20.5335 26.576C20.3358 26.7188 20.1819 26.7626 20.0391 26.8066C20.0062 26.8176 19.9731 26.8286 19.9403 26.8397C19.8413 26.8616 19.7425 26.9056 19.6545 26.9715C19.4788 27.0924 19.3689 27.279 19.3249 27.4879C19.27 27.4658 19.2041 27.4658 19.1381 27.4768L18.5779 27.6636C18.501 27.6856 18.4351 27.7515 18.4021 27.8284C18.3802 27.9053 18.3911 27.9931 18.4351 28.0591L18.7757 28.5535C18.8197 28.6085 18.8745 28.6414 18.9404 28.6633C18.8525 28.8501 18.8306 29.0809 18.8965 29.2786C18.9075 29.3005 18.9185 29.3225 18.9185 29.3445C18.9294 29.3884 18.9515 29.4324 18.9844 29.4764C19.0284 29.5423 19.0722 29.6082 19.1162 29.6632C19.2261 29.806 19.3249 29.9378 19.4018 30.1905C19.4788 30.4211 19.4677 30.575 19.4677 30.7288V30.8387C19.4568 30.9485 19.4677 31.0474 19.5117 31.1462C19.5776 31.344 19.7204 31.5088 19.8853 31.6076C19.8632 31.6516 19.8413 31.6956 19.8523 31.7395V32.3327C19.8523 32.4207 19.8963 32.4976 19.9622 32.5415C20.0281 32.5854 20.1159 32.6074 20.1928 32.5854L20.7751 32.4207C20.8301 32.4096 20.8631 32.3658 20.896 32.3327C21.0718 32.4976 21.3136 32.5745 21.5442 32.5635C21.5882 32.5635 21.632 32.5526 21.687 32.5415C21.7639 32.5195 21.8409 32.4976 21.9068 32.4755C22.0715 32.4207 22.2364 32.3658 22.5001 32.3658C22.7417 32.3658 22.8845 32.4207 23.0384 32.4646C23.0713 32.4755 23.1043 32.4866 23.1372 32.4976C23.2361 32.5415 23.3459 32.5526 23.4448 32.5526C23.6536 32.5526 23.8623 32.4646 24.0162 32.3218C24.0491 32.3658 24.0821 32.3877 24.137 32.4096L24.7082 32.5854C24.7851 32.6074 24.8731 32.5964 24.95 32.5526C25.0159 32.5086 25.0599 32.4317 25.0599 32.3437L25.0709 31.7504C25.0709 31.7066 25.0599 31.6626 25.0378 31.6186C25.2137 31.5198 25.3564 31.3549 25.4114 31.1572C25.4224 31.1353 25.4224 31.1133 25.4333 31.0803C25.4443 31.0365 25.4554 30.9925 25.4554 30.9375C25.4664 30.8606 25.4664 30.7837 25.4664 30.7069C25.4664 30.531 25.4664 30.3662 25.5432 30.1136C25.6201 29.8828 25.708 29.762 25.8069 29.6411C25.8288 29.6082 25.8509 29.5861 25.8728 29.5532C25.9387 29.4764 25.9937 29.3774 26.0266 29.2786C26.0925 29.0699 26.0706 28.8391 25.9716 28.6414C26.0266 28.6194 26.0706 28.5974 26.1035 28.5535L26.4551 28.07C26.5101 28.0152 26.532 27.9382 26.499 27.8504Z" fill="#00285E"/>
<path d="M22.1484 29.1358C22.1484 28.949 22.3023 28.8062 22.489 28.8062C22.6758 28.8062 22.8297 28.96 22.8297 29.1358C22.8297 29.3225 22.6758 29.4654 22.489 29.4654C22.3023 29.4654 22.1484 29.3115 22.1484 29.1358Z" fill="#FFC758"/>
<path d="M22.478 26.3012C22.423 26.0925 22.2912 25.9168 22.1265 25.8179L22.478 25.3674L22.8076 25.8179C22.6429 25.9278 22.533 26.0925 22.478 26.3012ZM19.7863 28.2568C19.6107 28.1359 19.4898 27.9822 19.4239 27.7954L18.8965 27.9712L19.2152 28.4326C19.3689 28.3227 19.5776 28.2568 19.7863 28.2568ZM20.8301 31.366C20.6653 31.4979 20.4786 31.5638 20.2698 31.5638V32.124L20.8191 31.9593C20.7532 31.7835 20.7532 31.5748 20.8301 31.366ZM24.1259 31.377C24.203 31.5748 24.203 31.7725 24.137 31.9593L24.6753 32.124L24.6863 31.5638C24.4995 31.5748 24.3018 31.5088 24.1259 31.377ZM25.1477 28.2678C25.3674 28.2568 25.5542 28.3118 25.708 28.4326L26.0375 27.9822L25.4992 27.7954C25.4554 27.9712 25.3236 28.147 25.1477 28.2678ZM21.7969 31.388C21.5442 31.388 21.3464 31.1902 21.3464 30.9375C21.3464 30.9046 21.3136 30.8935 21.2915 30.9156C21.1268 31.1133 21.0059 31.289 20.9949 31.4979C20.9838 31.8054 21.2476 32.0581 21.5661 32.0581H21.6211C21.6541 32.0581 21.676 32.0581 21.72 32.0471C21.9397 31.9922 22.1375 31.8823 22.511 31.8823C22.8297 31.8823 22.9944 31.9703 23.1592 32.0141C23.2252 32.0362 23.302 32.0581 23.3789 32.0581C23.6975 32.0581 23.9503 31.8054 23.9503 31.4979C23.9503 31.2781 23.8184 31.1133 23.6536 30.9156C23.6426 30.8935 23.6096 30.9156 23.6096 30.9375C23.6096 31.1793 23.4008 31.388 23.1592 31.388C22.9725 31.388 22.7307 31.2231 22.489 31.2231C22.2803 31.2231 21.9837 31.388 21.7969 31.388ZM21.5002 30.7728C21.5002 30.9815 21.6651 31.1462 21.8738 31.1462C21.8957 31.1462 21.9178 31.1462 21.9507 31.1353C21.9616 31.1353 21.9727 31.1353 21.9837 31.1243H21.9947C22.1265 31.0803 22.2474 31.0254 22.478 31.0254C22.7088 31.0254 22.8186 31.0913 22.9504 31.1243C22.9944 31.1353 23.0384 31.1462 23.0822 31.1462C23.2911 31.1462 23.4558 30.9815 23.4558 30.7728C23.4558 30.7178 23.4448 30.6629 23.4229 30.6189C23.4118 30.597 23.4008 30.575 23.3899 30.5639C23.3899 30.5639 22.7526 29.696 22.7307 29.6741C22.6978 29.6301 22.6538 29.652 22.6319 29.6632C22.5989 29.6741 22.522 29.696 22.467 29.696C22.4121 29.696 22.3462 29.6851 22.3133 29.6632C22.2693 29.6411 22.2364 29.6301 22.2143 29.6741C22.1924 29.707 21.731 30.3333 21.5882 30.531C21.5332 30.597 21.5002 30.6738 21.5002 30.7728ZM24.4336 30.4871C24.3567 30.7288 24.104 30.8497 23.8623 30.7728C23.8294 30.7617 23.8073 30.7837 23.8294 30.8166C23.9722 31.0253 24.0931 31.2012 24.3018 31.2781C24.5985 31.377 24.9281 31.2121 25.0159 30.9156C25.0269 30.8935 25.0269 30.8826 25.0269 30.8606C25.0378 30.8387 25.0378 30.8057 25.0488 30.7728C25.0709 30.542 25.0159 30.3333 25.1368 29.9707C25.2356 29.6741 25.3674 29.5423 25.4664 29.3995C25.5102 29.3445 25.5542 29.2786 25.5761 29.2127C25.6751 28.916 25.5102 28.5864 25.2137 28.4986C25.0049 28.4326 24.7962 28.5095 24.5545 28.5974C24.5325 28.6085 24.5326 28.6304 24.5654 28.6414C24.8072 28.7182 24.939 28.9709 24.8621 29.2127C24.8072 29.3884 24.5764 29.5642 24.4995 29.795C24.4336 29.9816 24.4995 30.3003 24.4336 30.4871ZM23.7525 30.575C23.9503 30.641 24.1699 30.531 24.2358 30.3333C24.2468 30.3114 24.2468 30.2893 24.2468 30.2564V30.2124C24.2468 30.0806 24.2249 29.9378 24.2908 29.7291C24.3677 29.5093 24.4555 29.4214 24.5325 29.3115C24.5545 29.2786 24.5764 29.2346 24.5985 29.1906C24.6644 28.9929 24.5545 28.7842 24.3567 28.7182C24.3018 28.7073 24.2468 28.6963 24.203 28.7073C24.1809 28.7073 24.159 28.7073 24.137 28.7182C24.137 28.7182 23.1043 29.0478 23.0713 29.0588C23.0274 29.0809 23.0274 29.1247 23.0274 29.1468C23.0274 29.1797 23.0163 29.2565 23.0053 29.3115C22.9944 29.3555 22.9615 29.4214 22.9285 29.4543C22.8956 29.4873 22.8735 29.5202 22.9065 29.5532C22.9394 29.5861 23.3789 30.2124 23.5327 30.4102C23.5876 30.487 23.6645 30.542 23.7525 30.575ZM24.3677 27.6966C24.5764 27.8394 24.6204 28.125 24.4666 28.3227C24.4446 28.3448 24.4666 28.3777 24.4995 28.3667C24.7522 28.3008 24.95 28.2349 25.0818 28.0591C25.2686 27.8064 25.2136 27.4548 24.9609 27.2681C24.95 27.2571 24.9281 27.2461 24.906 27.2352C24.8841 27.2131 24.8621 27.2021 24.8181 27.1912C24.6094 27.1033 24.3896 27.0813 24.0821 26.8616C23.8294 26.6748 23.7414 26.5101 23.6316 26.3671C23.5986 26.3123 23.5436 26.2574 23.4777 26.2024C23.2252 26.0156 22.8625 26.0706 22.6867 26.3233C22.566 26.499 22.566 26.7188 22.5769 26.9715C22.5769 26.9934 22.6098 27.0044 22.6208 26.9715C22.7637 26.7737 23.0493 26.7298 23.2581 26.8726C23.4118 26.9825 23.5108 27.2571 23.7085 27.3889C23.8843 27.5538 24.2139 27.5867 24.3677 27.6966ZM24.2468 28.3777C24.3677 28.213 24.3348 27.9712 24.159 27.8503C24.148 27.8394 24.1259 27.8175 24.0931 27.8064C24.0821 27.8064 24.0711 27.7954 24.06 27.7954H24.0491C23.9172 27.7515 23.7854 27.7295 23.5986 27.5976C23.4118 27.4658 23.357 27.3449 23.28 27.2461C23.2581 27.2131 23.2252 27.1802 23.1921 27.1472C23.0274 27.0265 22.7857 27.0593 22.6648 27.2352C22.6319 27.279 22.6098 27.323 22.5989 27.378C22.5989 27.3999 22.5879 27.422 22.5879 27.4439V28.5535C22.5879 28.6085 22.6319 28.6085 22.6648 28.6194C22.6978 28.6304 22.7747 28.6633 22.8076 28.6854C22.8516 28.7182 22.8956 28.7622 22.9175 28.7951C22.9394 28.8281 22.9615 28.861 23.0053 28.8391C23.0493 28.8172 23.7854 28.5864 24.0162 28.5095C24.115 28.4986 24.1919 28.4436 24.2468 28.3777ZM21.687 26.9056C21.8847 26.7626 22.1705 26.8066 22.3242 27.0044C22.3462 27.0265 22.3792 27.0265 22.3792 26.9934C22.3902 26.7407 22.3902 26.521 22.2693 26.3452C22.0935 26.0925 21.731 26.0375 21.4783 26.2243C21.4564 26.2353 21.4454 26.2464 21.4343 26.2574C21.4124 26.2683 21.3904 26.2903 21.3684 26.3233C21.2146 26.499 21.1268 26.6967 20.8191 26.9165C20.5664 27.1033 20.3796 27.1362 20.2149 27.1802C20.149 27.2021 20.0721 27.2242 20.0171 27.2681C19.7644 27.4548 19.6985 27.8064 19.8963 28.0591C20.0281 28.2349 20.2368 28.3008 20.4786 28.3667C20.5005 28.3777 20.5114 28.3448 20.5005 28.3227C20.3577 28.125 20.4017 27.8394 20.5994 27.6966C20.7532 27.5867 21.0388 27.5757 21.2365 27.4329C21.3904 27.323 21.5332 27.0153 21.687 26.9056ZM22.3023 27.2352C22.1814 27.0703 21.9397 27.0265 21.775 27.1472C21.7529 27.1583 21.7419 27.1692 21.72 27.1912L21.687 27.2242C21.6101 27.334 21.5442 27.4548 21.3574 27.5867C21.1706 27.7185 21.0388 27.7295 20.9179 27.7844C20.8741 27.7954 20.8301 27.8175 20.7972 27.8394C20.6323 27.9603 20.5883 28.1909 20.7092 28.3667C20.7422 28.4107 20.7861 28.4436 20.8301 28.4655C20.852 28.4766 20.8631 28.4876 20.885 28.4876C20.885 28.4876 21.9178 28.8172 21.9507 28.8282C22.0056 28.8391 22.0275 28.8062 22.0386 28.7842C22.0606 28.7622 22.1046 28.6963 22.1484 28.6633C22.1924 28.6304 22.2474 28.6085 22.2912 28.5974C22.3352 28.5864 22.3682 28.5754 22.3682 28.5315V27.4768C22.3792 27.3999 22.3571 27.312 22.3023 27.2352ZM20.105 29.2017C20.0281 28.96 20.1599 28.7073 20.3906 28.6304C20.4236 28.6194 20.4236 28.5864 20.4017 28.5754C20.1599 28.4876 19.9512 28.4107 19.7535 28.4766C19.4568 28.5645 19.292 28.8941 19.3908 29.1906C19.3908 29.2127 19.4018 29.2237 19.4129 29.2456C19.4239 29.2676 19.4348 29.3005 19.4568 29.3336C19.5776 29.5313 19.7425 29.6741 19.8632 30.0366C19.9622 30.3333 19.9291 30.5201 19.9291 30.6958C19.9182 30.7617 19.9291 30.8387 19.9512 30.9156C20.05 31.2121 20.3686 31.377 20.6653 31.2781C20.8741 31.2121 20.9949 31.0365 21.1377 30.8166C21.1487 30.7947 21.1268 30.7728 21.1047 30.7837C20.8631 30.8606 20.6104 30.7288 20.5335 30.498C20.4786 30.3223 20.5554 30.0477 20.4786 29.8169C20.4126 29.6082 20.1599 29.3774 20.105 29.2017ZM20.5994 28.7292C20.4017 28.7951 20.2918 29.004 20.3577 29.2017C20.3577 29.2237 20.3686 29.2456 20.3906 29.2676C20.4017 29.2786 20.4017 29.2896 20.4126 29.2896C20.4126 29.2896 20.4126 29.3005 20.4236 29.3005C20.5005 29.4104 20.5994 29.5092 20.6763 29.718C20.7532 29.9378 20.7202 30.0587 20.7313 30.1905C20.7313 30.2343 20.7313 30.2783 20.7532 30.3223C20.8191 30.5201 21.0278 30.6298 21.2256 30.5639C21.2805 30.553 21.3245 30.5201 21.3574 30.4871C21.3684 30.4761 21.3904 30.4542 21.4014 30.4432C21.4014 30.4432 22.0386 29.5752 22.0496 29.5423C22.0825 29.4983 22.0496 29.4654 22.0275 29.4433C22.0056 29.4214 21.9616 29.3555 21.9507 29.3005C21.9397 29.2565 21.9287 29.1906 21.9287 29.1468C21.9287 29.1028 21.9287 29.0699 21.8847 29.0588C21.8409 29.0478 21.1047 28.8062 20.8741 28.7292C20.7861 28.7073 20.6982 28.6963 20.5994 28.7292Z" fill="#EE3124"/>
<path d="M25.642 17.5123L27.9603 16.7102C27.9603 16.7102 27.7625 17.677 27.8175 18.4241C27.8834 19.3908 28.4436 20.1269 28.4436 20.1269L25.5872 21.1158L25.642 17.5123Z" fill="#FFC758"/>
<path d="M28.4436 20.1269C28.4436 20.1269 27.9382 19.4018 27.8503 18.556C27.7844 17.9187 27.8504 17.3693 27.9603 16.7102C27.8613 17.1497 27.4879 18.3911 26.4442 19.5447C26.0266 20.0062 25.8398 20.4126 25.7629 20.6982L25.7191 15.238C25.7191 15.238 25.1697 15.4358 25.1147 15.4468C25.0488 15.4688 25.0159 15.5127 25.0159 15.5236C25.0159 15.5567 24.994 15.5786 24.95 15.5896C24.906 15.6007 24.5874 15.7214 24.3677 15.7873C24.3237 15.7984 24.3458 15.8423 24.3677 15.8423C24.6314 15.8313 25.0049 15.7984 25.0378 15.7984C25.0928 15.7873 25.1147 15.7654 25.1147 15.7325V15.7214C25.1258 15.6775 25.1587 15.6445 25.2027 15.6445C25.2356 15.6445 25.4333 15.6226 25.5542 15.6007L25.4992 21.4783H25.7629V21.0608L28.4436 20.1269Z" fill="#D4A11E"/>
<path d="M18.1714 21.2696C18.1714 21.2696 17.7429 20.9509 17.622 20.3467C17.5012 19.7314 17.8088 19.3799 17.8088 19.3799L20.6214 18.413C20.6214 18.413 20.4455 18.9734 20.6104 19.6107C20.8191 20.4126 21.2476 20.9509 21.2476 20.9509C21.2476 20.9509 20.2149 20.7532 19.2152 20.885C18.2702 21.0059 18.1714 21.2696 18.1714 21.2696Z" fill="#FFC758"/>
<path d="M14.9413 20.5664C14.9413 20.5664 15.293 19.6107 16.3146 18.5669C17.0947 17.7759 17.6001 17.5452 17.6001 17.5452C17.6001 17.5452 17.1497 18.1934 16.9629 19.259C16.842 19.9182 16.9738 20.7532 16.9738 20.7532C16.9738 20.7532 16.4465 20.6433 15.8423 20.5774C15.337 20.5224 14.9413 20.5664 14.9413 20.5664Z" fill="#FFC758"/>
<path d="M17.6001 17.5452C17.6001 17.5452 17.1606 18.1934 16.9738 19.259C16.8531 19.9182 16.9849 20.7532 16.9849 20.7532C16.9849 20.7532 16.8531 20.7202 16.5454 20.6542C15.293 20.3686 17.6001 17.5452 17.6001 17.5452Z" fill="#D4A11E"/>
<path d="M19.248 18.3142L19.2261 15.7873C19.1712 15.8094 18.6767 15.9741 18.6219 15.9962C18.556 16.0181 18.523 16.0621 18.523 16.084C18.523 16.1169 18.501 16.139 18.457 16.1499C18.413 16.1609 18.0946 16.2708 17.8747 16.3477C17.8308 16.3586 17.8528 16.4026 17.8747 16.4026C18.1275 16.3917 18.512 16.3586 18.5449 16.3586C18.5998 16.3477 18.6219 16.3258 18.6329 16.2927V16.2818C18.6438 16.2378 18.6767 16.2049 18.7207 16.2049C18.7537 16.2049 18.9404 16.1828 19.0722 16.1719L19.0503 18.3252H19.248V18.3142Z" fill="#D4A11E"/>
<path d="M22.522 16.0291H22.7197V13.6011C22.7197 13.6011 22.1705 13.7988 22.1155 13.8098C22.0496 13.8319 22.0166 13.8757 22.0166 13.8867C22.0166 13.9197 21.9947 13.9416 21.9507 13.9526C21.9068 13.9637 21.5882 14.0735 21.3684 14.1503C21.3245 14.1614 21.3464 14.2053 21.3684 14.2053C21.632 14.1943 22.0056 14.1614 22.0386 14.1614C22.0935 14.1503 22.1155 14.1284 22.1265 14.0955C22.1375 14.0515 22.1705 14.0185 22.2143 14.0185C22.2474 14.0185 22.423 13.9966 22.5549 13.9856L22.522 16.0291Z" fill="#D4A11E"/>
<path d="M22.0275 14.1724H22.0387C22.0935 14.1614 22.1155 14.1394 22.1155 14.1065C22.1155 14.0735 22.1375 14.0515 22.1705 14.0406L22.1046 13.8319C22.0386 13.8538 22.0166 13.8978 22.0166 13.9087C22.0166 13.9416 21.9947 13.9526 21.9616 13.9637L22.0275 14.1724Z" fill="#FFC758"/>
<path d="M18.5339 16.3477H18.5449C18.5998 16.3367 18.6219 16.3146 18.6219 16.2818C18.6329 16.2487 18.6438 16.2268 18.6767 16.2158L18.6108 16.0071C18.5449 16.0291 18.523 16.073 18.523 16.084C18.523 16.1169 18.501 16.128 18.468 16.139L18.5339 16.3477Z" fill="#FFC758"/>
<path d="M25.0159 15.7984H25.0269C25.0818 15.7873 25.1037 15.7654 25.1037 15.7325C25.1147 15.6995 25.1258 15.6775 25.1587 15.6666L25.0928 15.4577C25.0269 15.4798 25.0049 15.5236 25.0049 15.5347C25.0049 15.5676 24.9829 15.5786 24.95 15.5896L25.0159 15.7984Z" fill="#FFC758"/>
<path d="M21.2476 20.9509C21.2476 20.9509 20.7972 20.2918 20.6214 19.5886C20.4676 18.9844 20.6214 18.413 20.6214 18.413C20.6214 18.413 20.3247 19.4458 19.6107 20.0062C19.1162 20.4017 17.8967 20.7641 18.1824 21.2696C18.2264 21.2036 18.3471 21.0718 18.8416 20.9509C18.8965 20.94 18.9625 20.929 19.0284 20.9179V21.7529H19.292V20.885C20.2039 20.7861 21.2476 20.9509 21.2476 20.9509Z" fill="#D4A11E"/>
<path d="M17.8747 19.2041C17.8747 19.2041 17.5452 19.0063 17.5891 18.3692C17.633 17.71 17.9626 17.4243 17.9626 17.4024L20.149 16.6553C20.149 16.6553 19.9841 16.9849 20.105 17.4792C20.2368 18.0725 20.6214 18.413 20.6214 18.413C20.6214 18.413 19.5227 18.4242 18.5339 18.7647C18.0506 18.9294 17.8747 19.2041 17.8747 19.2041Z" fill="#FFC758"/>
<path d="M19.1712 17.8308C19.7973 17.3145 20.138 16.6553 20.138 16.6553C20.138 16.6553 20.05 17.0728 20.1159 17.4464C20.2368 18.0835 20.6104 18.413 20.6104 18.413C20.6104 18.413 19.7204 18.4242 18.7647 18.6988C18.1275 18.8745 17.9297 19.1272 17.8747 19.2152C17.666 18.7317 18.5339 18.3582 19.1712 17.8308Z" fill="#D4A11E"/>
<path d="M21.6651 21.4343C21.6651 21.4343 21.0608 20.9838 20.9179 20.138C20.7972 19.4677 21.2476 18.9844 21.2476 18.9844L24.6644 17.8088C24.6644 17.8088 24.4776 18.5669 24.6533 19.292C24.851 20.105 25.5982 21.1158 25.5982 21.1158C25.5982 21.1158 24.1809 20.7092 22.9504 20.8631C21.775 21.0169 21.6651 21.4343 21.6651 21.4343Z" fill="#FFC758"/>
<path d="M20.9729 16.0181C20.9509 15.5017 21.3136 15.0843 21.3245 15.0622L23.7744 14.2053C23.7744 14.2053 23.6096 14.5898 23.6536 14.9194C23.7304 15.5457 24.0821 15.8753 24.0821 15.8753C24.0821 15.8753 23.1153 15.8203 21.9837 16.2158C21.3574 16.4355 21.2915 16.7322 21.2915 16.7322C21.2915 16.7322 20.9949 16.6553 20.9729 16.0181Z" fill="#FFC758"/>
<path d="M22.9065 15.3589C23.3459 14.9744 23.7744 14.2163 23.7744 14.2163C23.7744 14.2163 23.6096 14.6008 23.6536 14.9304C23.7304 15.5567 24.0821 15.8863 24.0821 15.8863C24.0821 15.8863 23.0384 15.8753 22.0386 16.2268C21.6101 16.3806 21.3355 16.6113 21.3025 16.7432C21.1597 16.2598 22.3023 15.8863 22.9065 15.3589Z" fill="#D4A11E"/>
<path d="M21.3245 18.8416C21.3245 18.8416 20.9729 18.4351 20.9069 17.7979C20.841 17.1387 21.2256 16.875 21.2586 16.8531L24.0931 15.8753C24.0931 15.8753 24.0162 16.084 24.0821 16.6553C24.148 17.1387 24.6204 17.7979 24.6204 17.7979C24.6204 17.7979 23.1043 17.8419 22.1705 18.2043C21.5772 18.4351 21.3245 18.8416 21.3245 18.8416Z" fill="#FFC758"/>
<path d="M23.2031 17.2046C23.8184 16.6773 24.0931 15.8863 24.0931 15.8863C24.0931 15.8863 24.0162 16.3367 24.0931 16.6882C24.2359 17.3034 24.6753 17.8198 24.6753 17.8198C24.6753 17.8198 23.357 17.8419 22.4011 18.1605C21.775 18.3692 21.3904 18.7426 21.3355 18.8525C21.1927 18.3142 22.5879 17.7319 23.2031 17.2046Z" fill="#D4A11E"/>
<path d="M25.6532 21.1706C25.6532 21.1706 24.8841 20.1709 24.6533 19.292C24.5105 18.7097 24.6204 18.0506 24.6644 17.8198C24.5764 18.1275 24.2689 19.1272 23.5108 19.8303C22.7857 20.5005 21.3574 20.8191 21.6651 21.4454C21.72 21.3464 21.8847 21.1047 22.467 20.9619L22.4561 21.7639H22.7307V20.9069C23.9941 20.7092 25.6532 21.1706 25.6532 21.1706Z" fill="#D4A11E"/>
<path fill-rule="evenodd" clip-rule="evenodd" d="M26.9715 23.0493C27.1472 23.0163 27.323 22.9725 27.5867 22.9065C27.5757 22.8956 27.5538 22.8845 27.5427 22.8735C27.2571 22.5549 27.3011 22.2143 27.4768 22.0496C28.114 21.4564 28.1031 21.0169 28.1031 21.0169C28.1031 21.0169 26.5539 21.3355 24.5105 21.4454C24.3787 21.4564 23.9063 21.6651 23.7635 21.6651C23.4777 21.676 23.1921 21.687 22.8956 21.687C19.0393 21.72 17.9626 21.4454 16.6992 21.2146C15.4139 20.9729 14.8535 20.7202 14.8535 20.7202L14.8095 20.852C14.8095 20.852 15.8203 21.2476 16.5454 21.5992C16.6992 21.676 17.3034 22.577 17.5012 22.8845H12.92C12.6673 17.633 13.6779 13.3374 13.6779 13.3374C13.6779 13.3374 17.1827 12.5904 22.4561 12.5904V12.03C16.8641 12.03 13.1396 12.821 13.1396 12.821C13.1396 12.821 11.5136 18.556 12.3706 25.3895C12.7332 28.2349 15.0843 33.5632 22.4342 36.0352L22.7526 35.5848L22.4342 35.1343C15.5127 32.8162 13.4912 28.125 13.1396 25.4554C13.0628 24.8621 13.0078 24.2689 12.9638 23.6975H22.467V22.8956H17.5891C17.6989 22.5439 18.0396 22.4561 18.468 22.5549C18.9075 22.6648 19.347 22.7747 19.7644 22.7526C20.8081 22.6978 20.6542 22.4231 20.7532 22.4231C21.8298 22.489 22.2364 22.7526 23.1702 22.7307C24.0271 22.7198 24.3237 22.489 24.4007 22.489C25.4443 22.478 25.8398 22.9615 26.8835 23.0493H26.9715Z" fill="#FFC758"/>
<path fill-rule="evenodd" clip-rule="evenodd" d="M31.7616 12.821C31.7616 12.821 28.0481 12.03 22.4561 12.03V12.5904C27.7295 12.5904 31.2231 13.3374 31.2231 13.3374C31.2231 13.3374 32.2449 17.633 31.9812 22.8845H27.3889C27.0265 22.533 27.2352 22.0715 27.356 21.9616C27.8943 21.4783 27.8943 21.1487 27.8943 21.1487C27.8943 21.1487 26.6529 21.4564 24.6094 21.5442C24.4776 21.5442 23.9063 21.8079 23.7635 21.8079C23.4777 21.8188 23.0822 21.8298 22.7857 21.8298C20.1269 21.8298 18.8197 21.775 16.5124 21.2805C16.5564 21.3355 16.5783 21.3574 16.6223 21.4233C16.6333 21.4454 17.633 21.698 17.6441 21.72C17.7979 21.9287 17.9956 22.0715 18.2374 22.2034C18.6108 22.4011 19.1602 22.566 19.6107 22.5989C20.6542 22.6648 20.4565 22.2693 20.5554 22.2693C21.6211 22.2474 22.3133 22.6319 23.2471 22.6208C24.104 22.6098 24.1259 22.3352 24.2139 22.3352C25.0599 22.2912 25.9168 22.6538 26.6529 22.8956H22.4561V23.6975H31.9263C31.8823 24.2798 31.8275 24.8621 31.7504 25.4554C31.3989 28.1359 29.3774 32.8162 22.4561 35.1343V36.0352C29.8059 33.5632 32.168 28.2459 32.5195 25.3895C33.3874 18.556 31.7616 12.821 31.7616 12.821Z" fill="#D4A11E"/>
<path d="M5.29547 15.293L5.67987 14.5569L7.41579 14.4361L6.53694 12.9309L6.92134 12.2058L10.0085 13.8319L9.65698 14.502L7.63547 13.4473L8.50336 15.0074L8.49239 15.0184L6.73469 15.1941L8.73414 16.2487L8.38263 16.919L5.29547 15.293Z" fill="#00285E"/>
<path d="M8.82198 9.79978L9.30547 9.2834L12.8869 10.6018L12.3377 11.184L11.5467 10.8765L10.5358 11.9531L10.8875 12.7222L10.3492 13.2934L8.82198 9.79978ZM10.8765 10.6238L9.73386 10.1843L10.2393 11.294L10.8765 10.6238Z" fill="#00285E"/>
<path d="M11.5905 7.26203L12.1949 6.89941L14.7107 7.88817L13.6011 6.05345L14.2493 5.65794L16.051 8.63519L15.4908 8.97588L12.8979 7.95409L14.0515 9.85473L13.4033 10.2502L11.5905 7.26203Z" fill="#00285E"/>
<path d="M16.2818 6.65767C16.0071 5.69097 16.4905 4.70221 17.5232 4.40551C18.1494 4.21872 18.5998 4.32863 18.9953 4.53734L18.6767 5.21844C18.3471 5.05372 18.0506 4.9878 17.71 5.08661C17.1496 5.25147 16.875 5.83377 17.0397 6.41606V6.42703C17.2046 6.99836 17.7429 7.36083 18.3142 7.19611C18.6988 7.0862 18.8856 6.86652 19.0833 6.5479L19.6875 6.88845C19.4458 7.36083 19.1272 7.70138 18.4901 7.88817C17.5123 8.17377 16.5564 7.6245 16.2818 6.65767Z" fill="#00285E"/>
<path d="M20.4676 3.85624L21.2256 3.83418L21.2696 5.21844L22.6758 5.18556L22.6429 3.80129L23.4118 3.77936L23.4998 7.27299L22.7307 7.29492L22.6978 5.88872L21.2805 5.93257L21.3245 7.32795L20.5554 7.34987L20.4676 3.85624Z" fill="#00285E"/>
<path d="M27.9272 7.74538L28.5645 7.43771C28.7403 7.80033 28.9709 8.09689 29.3336 8.26175C29.6192 8.39359 29.8388 8.36056 29.9268 8.17377V8.16281C30.0147 7.98712 29.9378 7.84418 29.4764 7.47074C28.916 7.00932 28.5864 6.6467 28.8721 6.02056V6.0096C29.1358 5.43826 29.7729 5.2734 30.4211 5.5701C30.8826 5.77881 31.2121 6.1084 31.4099 6.51487L30.8057 6.87749C30.6189 6.5479 30.3882 6.30615 30.1246 6.18528C29.8609 6.06441 29.6632 6.11936 29.5861 6.27327V6.28423C29.4873 6.49294 29.5972 6.62478 30.0806 7.02028C30.641 7.48171 30.9046 7.88817 30.641 8.43744V8.44854C30.3552 9.07469 29.707 9.20652 29.0259 8.89886C28.5645 8.65726 28.158 8.26175 27.9272 7.74538Z" fill="#00285E"/>
<path d="M33.0249 7.95409L32.179 7.30588L32.6074 6.74565L34.9035 8.49239L34.4751 9.06373L33.6292 8.41551L31.9482 10.6238L31.333 10.1624L33.0249 7.95409Z" fill="#00285E"/>
<path d="M38.5401 12.909L39.2542 14.3371C39.452 14.7326 39.4958 15.0952 39.397 15.4029C39.3092 15.6666 39.1114 15.8753 38.8147 16.0291H38.8038C38.2983 16.2818 37.8479 16.1719 37.4964 15.8423L36.7603 17.1606L36.3538 16.3586L37.013 15.1831L36.7382 14.6448L35.7385 15.1502L35.398 14.469L38.5401 12.909ZM37.716 15.0513C37.8809 15.3808 38.1555 15.4908 38.4192 15.3589H38.4302C38.7269 15.2161 38.7707 14.9304 38.606 14.6008L38.2655 13.9197L37.3755 14.3702L37.716 15.0513Z" fill="#00285E"/>
<path d="M25.5982 6.19624L26.8835 6.47102L27.2461 5.85569L25.752 5.52611L25.8947 4.83404L27.7185 5.22955L27.8723 4.57037L25.2905 4.01L24.5545 7.41579L27.1583 7.98712L27.3011 7.31684L25.4443 6.91037L25.5982 6.19624Z" fill="#00285E"/>
<path d="M35.9582 9.53611L33.2777 11.7773L34.9915 13.8098L35.5079 13.3704L34.2993 11.9201L34.8597 11.4477L35.7166 12.4695L36.4087 12.2387L35.387 11.0084L35.9253 10.5579L37.1228 11.986L37.6501 11.5467L35.9582 9.53611Z" fill="#00285E"/>
<path d="M16.5783 39.2871C16.5783 38.2655 17.3364 37.4414 18.4351 37.4414C19.1053 37.4414 19.5008 37.6611 19.8413 37.9907L19.347 38.562C19.0722 38.3093 18.7976 38.1665 18.4351 38.1665C17.8308 38.1665 17.4024 38.661 17.4024 39.2761V39.2871C17.4024 39.8913 17.8198 40.4077 18.4351 40.4077C18.8416 40.4077 19.0943 40.243 19.3689 39.9903L19.8632 40.4957C19.5008 40.8912 19.0943 41.1328 18.4021 41.1328C17.3584 41.1109 16.5783 40.2979 16.5783 39.2871Z" fill="#00285E"/>
<path d="M20.6214 37.4964H21.4014V41.045H20.6214V37.4964Z" fill="#00285E"/>
<path d="M23.2252 38.2215H22.1375V37.4964H25.0818V38.2215H24.0052V41.0559H23.2252V38.2215Z" fill="#00285E"/>
<path d="M26.7737 39.6497L25.4114 37.4964H26.3233L27.1693 38.9246L28.0262 37.4964H28.916L27.5538 39.6277V41.045H26.7737V39.6497Z" fill="#00285E"/>
</svg>
