<svg width="45" height="45" viewBox="0 0 45 45" fill="none" xmlns="http://www.w3.org/2000/svg">
<path d="M45 22.5005C45 34.9258 34.9248 45 22.5 45C10.0736 45 0 34.9258 0 22.5005C0 10.0743 10.0736 0 22.5 0C34.9248 0 45 10.0743 45 22.5005Z" fill="white"/>
<path d="M18.2405 39.2584L17.6826 39.1231L17.0279 41.863L17.0432 41.8673L18.8161 42.2908L18.9362 41.7881L17.7074 41.4956L18.2405 39.2584ZM28.7987 38.6139L29.3625 40.1843L27.7826 38.9761L27.3038 39.1486L28.2494 41.7992L28.7919 41.6054L28.229 40.0297L29.8073 41.2432L29.8166 41.2388L30.2886 41.0696L29.3412 38.4199L28.7987 38.6139ZM13.7352 40.6367L14.2896 40.8638L14.6323 40.4701L15.527 40.8374L15.4929 41.3554L15.504 41.3605L16.05 41.5841L16.1639 38.5866L15.7523 38.419L13.7352 40.6367ZM15.5703 40.3282L14.9682 40.0815L15.6341 39.3282L15.5703 40.3282ZM26.649 40.0467C26.5895 39.8962 26.4882 39.7695 26.3403 39.6708C26.2221 39.5857 26.0954 39.5305 25.9644 39.5007C25.8956 39.4846 25.8267 39.4777 25.7518 39.4777C25.6821 39.4777 25.6107 39.4846 25.5359 39.4981C25.382 39.5245 25.2492 39.5748 25.1336 39.6478C25.0197 39.721 24.9185 39.8163 24.8369 39.9352C24.7374 40.0772 24.6863 40.2304 24.683 40.3945V40.4242C24.683 40.5832 24.7067 40.8061 24.7586 41.0891C24.8105 41.3911 24.8666 41.6156 24.9252 41.7661C24.9831 41.9167 25.0851 42.0442 25.2262 42.1454C25.3444 42.2287 25.4729 42.2848 25.6056 42.3154C25.6736 42.329 25.7442 42.3367 25.8172 42.3367C25.887 42.3367 25.9602 42.3299 26.0332 42.3172C26.188 42.2891 26.3207 42.2398 26.4356 42.1675C26.5478 42.0952 26.6481 41.9974 26.7297 41.8801C26.8326 41.7329 26.8879 41.5765 26.8905 41.4157C26.8896 41.408 26.8905 41.4022 26.8905 41.3927C26.8905 41.2363 26.8625 41.0126 26.8131 40.7252C26.7596 40.4216 26.7051 40.1963 26.649 40.0467ZM26.3156 41.3647C26.3156 41.4182 26.3105 41.4625 26.2986 41.5007C26.2893 41.5382 26.2748 41.5748 26.2518 41.608C26.1864 41.7176 26.0843 41.783 25.9449 41.8094C25.9118 41.8138 25.8812 41.8171 25.8504 41.8171C25.8147 41.8171 25.7808 41.8138 25.7467 41.8061C25.6837 41.7916 25.6293 41.7661 25.586 41.7278C25.5521 41.7032 25.5264 41.675 25.506 41.6444C25.484 41.6147 25.4636 41.5714 25.4441 41.5195C25.4253 41.4659 25.4049 41.3996 25.3871 41.3188C25.3692 41.2381 25.347 41.1283 25.3241 40.9897C25.3004 40.8502 25.2807 40.7396 25.2696 40.6555C25.2594 40.5755 25.2552 40.5118 25.2552 40.4591V40.448C25.2569 40.3936 25.262 40.346 25.2714 40.3085C25.2816 40.2728 25.296 40.2371 25.3164 40.2082C25.3463 40.1546 25.3878 40.1122 25.4415 40.0764C25.495 40.0407 25.5554 40.0186 25.626 40.0042C25.6601 39.9999 25.6914 39.9957 25.7229 39.9957C25.8207 39.9973 25.9074 40.0272 25.9823 40.0875C26.0154 40.1122 26.0435 40.1419 26.0673 40.1741C26.0886 40.2056 26.109 40.2457 26.1268 40.2949C26.1481 40.3451 26.1676 40.4114 26.1864 40.4956C26.2042 40.579 26.2256 40.6895 26.2493 40.8247C26.2731 40.9591 26.2909 41.0687 26.302 41.1563C26.313 41.2346 26.3174 41.3 26.3174 41.3519V41.3647H26.3156ZM23.0621 39.7797L23.1965 42.5918L23.2127 42.5909L23.7705 42.5629L23.6352 39.7525L23.0621 39.7797ZM21.2721 39.7447L20.1436 39.6529L19.9191 42.4609L21.0978 42.5535C21.1335 42.5568 21.1674 42.5578 21.2007 42.5578H21.2024C21.4133 42.5578 21.5952 42.5016 21.7414 42.3886C21.9124 42.2584 22.0077 42.0629 22.0272 41.8087C22.0297 41.7788 22.0307 41.7542 22.0307 41.7278C22.0307 41.5952 22.0026 41.4829 21.943 41.3885C21.8818 41.2907 21.8036 41.2124 21.7125 41.1547C21.795 41.1173 21.8707 41.0552 21.943 40.9684C22.0263 40.8706 22.0722 40.7507 22.0824 40.6079C22.0842 40.5781 22.085 40.55 22.085 40.5211C22.085 40.3187 22.0247 40.1461 21.8988 40.0084C21.7559 39.8536 21.5468 39.7653 21.2721 39.7447ZM21.4575 41.7364C21.4489 41.8324 21.4132 41.9063 21.3495 41.9642C21.2941 42.0118 21.2218 42.0374 21.1266 42.0374C21.1131 42.0374 21.0994 42.0374 21.0832 42.0365L20.5323 41.9914L20.585 41.3408L21.1361 41.3843C21.2508 41.3927 21.3324 41.4302 21.3869 41.4949C21.4353 41.5526 21.4592 41.6207 21.4592 41.7032C21.4592 41.7125 21.4582 41.7253 21.4575 41.7364ZM21.5092 40.5857C21.5025 40.6777 21.4677 40.7482 21.4038 40.8001C21.3486 40.8425 21.2788 40.8655 21.1879 40.8655C21.1725 40.8655 21.1581 40.8647 21.1428 40.8638L20.6276 40.8221L20.6751 40.2133L21.1912 40.2533C21.3018 40.2635 21.3834 40.2974 21.4387 40.357C21.4872 40.4105 21.5111 40.4735 21.5111 40.5535C21.5111 40.5637 21.511 40.5748 21.5092 40.5857ZM22.5 0.285744C10.2309 0.285744 0.28485 10.2314 0.28485 22.4996C0.28485 34.7677 10.2309 44.7152 22.5 44.7152C34.7684 44.7152 44.7142 34.7677 44.7142 22.4996C44.7142 10.2307 34.7675 0.285744 22.5 0.285744ZM22.5 43.8597C10.7019 43.8597 1.13955 34.2965 1.13955 22.4986C1.13955 10.7026 10.7019 1.13863 22.5 1.13863C34.2981 1.13863 43.8605 10.7026 43.8605 22.4986C43.8605 34.2965 34.2981 43.8597 22.5 43.8597ZM27.2748 5.93463C27.3965 5.97633 27.5054 5.99763 27.6006 6.00018C27.6303 6.00093 27.6567 6.00018 27.6848 5.99763C27.7961 5.98563 27.9092 5.95758 28.0241 5.91768L28.0283 5.91513L28.1405 6.19233L28.7903 6.40922L28.49 5.68894C28.6074 5.61829 28.7078 5.52559 28.7954 5.41249C28.883 5.29429 28.9586 5.14985 29.0258 4.9772L29.0318 4.96265L28.552 4.80455L28.5462 4.8182C28.479 5.0009 28.3898 5.1311 28.2843 5.20925L28.0257 4.58256C28.0572 4.57416 28.0946 4.56306 28.1346 4.54941C28.1805 4.53501 28.2162 4.52301 28.2426 4.51461C28.3506 4.47966 28.4399 4.43286 28.5113 4.37511C28.5845 4.31811 28.6355 4.23996 28.6686 4.14292C28.6907 4.07407 28.7034 4.00432 28.7043 3.93892C28.706 3.83257 28.683 3.73058 28.6278 3.63278C28.5418 3.47378 28.3931 3.36143 28.1873 3.29348C28.0844 3.26034 27.9884 3.24158 27.8957 3.24068C27.7944 3.23738 27.6975 3.25434 27.6082 3.29348C27.4449 3.36488 27.3292 3.49328 27.2706 3.67613C27.2493 3.73987 27.2391 3.80362 27.2366 3.86572C27.2357 3.91087 27.2391 3.95497 27.2493 3.99922C27.2689 4.09537 27.3029 4.19737 27.3471 4.30371C27.183 4.34796 27.0402 4.41171 26.9186 4.49166C26.7927 4.57581 26.7051 4.69566 26.6523 4.8479C26.6192 4.95245 26.6006 5.05025 26.5988 5.14295C26.5962 5.27644 26.6242 5.39809 26.6856 5.51119C26.7892 5.69989 26.9865 5.84193 27.2748 5.93463ZM27.78 3.85552C27.7986 3.79597 27.8319 3.75427 27.8803 3.73057C27.9049 3.71603 27.9339 3.71018 27.967 3.71093C27.9916 3.71093 28.019 3.71603 28.047 3.72548C28.1099 3.74663 28.1525 3.77992 28.1763 3.83002C28.1916 3.85972 28.1984 3.89047 28.1975 3.92182C28.1975 3.94312 28.1932 3.96607 28.1856 3.98812C28.1719 4.02727 28.149 4.05712 28.1117 4.08337C28.0751 4.10977 28.0283 4.13107 27.9738 4.14547C27.9569 4.15312 27.9374 4.15912 27.9092 4.16587C27.8888 4.17277 27.8709 4.17607 27.854 4.17952C27.8174 4.09537 27.7935 4.03072 27.78 3.98392C27.7724 3.95677 27.7698 3.93202 27.7698 3.90997C27.7705 3.89047 27.774 3.87172 27.78 3.85552ZM27.149 5.0027C27.1763 4.9211 27.2196 4.8581 27.2791 4.8164C27.3369 4.7747 27.4185 4.73826 27.5223 4.70766L27.8352 5.45929C27.7622 5.48989 27.695 5.50444 27.6312 5.50864H27.592C27.5376 5.50699 27.4798 5.49679 27.4194 5.47714C27.3097 5.44144 27.2289 5.37934 27.1779 5.29009C27.1448 5.2331 27.1286 5.17445 27.1311 5.11145C27.132 5.07665 27.138 5.04005 27.149 5.0027ZM22.5086 3.60638L23.5791 5.24074H24.0834V2.4907H23.5145V4.11997L22.4439 2.4907H21.9396V5.24074H22.5086V3.60638ZM36.4461 12.2758L37.4547 13.8089L37.8765 13.5326L37.1723 12.4621L37.6988 12.1159L38.2974 13.0275L38.7183 12.7511L38.1197 11.8396L38.6273 11.5061L39.3306 12.5759L39.7515 12.2987L38.7361 10.7528L36.4385 12.2621L36.4461 12.2758ZM33.4307 8.20934C33.3644 8.32753 33.3312 8.46028 33.3312 8.60308C33.3312 8.62513 33.3321 8.64988 33.3354 8.67538C33.3465 8.81742 33.3831 8.94912 33.446 9.06822C33.5072 9.18732 33.5982 9.29786 33.7155 9.39641C33.8337 9.49856 33.9528 9.56906 34.0821 9.61166C34.1824 9.64391 34.2896 9.66176 34.4018 9.66176C34.4307 9.66176 34.4571 9.66086 34.4861 9.65831C34.662 9.64646 34.8134 9.59111 34.9359 9.49421C35.0583 9.39566 35.2156 9.23487 35.4094 9.00777C35.6059 8.77903 35.742 8.59543 35.8185 8.46103C35.8806 8.34718 35.9137 8.22119 35.9137 8.08349C35.9137 8.05454 35.9112 8.02394 35.9078 7.99334C35.8959 7.85129 35.8586 7.7196 35.7972 7.6014C35.7378 7.4814 35.6468 7.37175 35.5311 7.27231C35.412 7.17196 35.2912 7.10056 35.1637 7.05796C35.0599 7.02226 34.9519 7.00606 34.8372 7.00606C34.81 7.00606 34.7846 7.00696 34.7564 7.01041C34.5872 7.02061 34.4393 7.07746 34.3134 7.17526C34.1892 7.27305 34.0302 7.4364 33.8355 7.6635C33.6425 7.89044 33.5072 8.07239 33.4307 8.20934ZM33.8772 8.67103C33.8772 8.63788 33.8805 8.60563 33.89 8.57668C33.9002 8.54188 33.9171 8.50108 33.9452 8.45173C33.9716 8.40583 34.0107 8.34973 34.0599 8.28583C34.1118 8.22044 34.1807 8.13704 34.2692 8.03249C34.3584 7.92869 34.4316 7.84454 34.4868 7.78589C34.5438 7.72545 34.5923 7.67955 34.6365 7.6464C34.6773 7.61235 34.7148 7.58775 34.7505 7.57245C34.7862 7.55715 34.8202 7.54695 34.8567 7.54275C34.8738 7.5393 34.8933 7.5375 34.9112 7.5375C34.9503 7.5375 34.9911 7.5444 35.0337 7.55715C35.0931 7.57755 35.1501 7.6098 35.2037 7.65495C35.3109 7.74765 35.3654 7.85474 35.367 7.97804V7.99679C35.367 8.03084 35.3628 8.06309 35.3543 8.09459C35.3441 8.13029 35.327 8.17199 35.3007 8.21789C35.276 8.26378 35.237 8.31898 35.1858 8.38453C35.1341 8.45083 35.0651 8.53588 34.9775 8.63878C34.8917 8.73748 34.8194 8.82072 34.7615 8.88117C34.7028 8.94402 34.6543 8.99082 34.6135 9.02322C34.5718 9.05547 34.5327 9.07842 34.4988 9.09537C34.4648 9.11067 34.4282 9.12012 34.3874 9.12597C34.3679 9.12852 34.3456 9.12942 34.327 9.12942C34.2274 9.12942 34.1322 9.09282 34.042 9.01542C33.9877 8.96877 33.9477 8.91777 33.918 8.86152C33.8916 8.80377 33.8772 8.74767 33.8772 8.69068V8.67103ZM31.7819 6.59957L32.5514 7.07491L31.9561 8.04359L31.968 8.05199L32.4391 8.34208L33.8797 6.00093L33.3966 5.70334L32.8133 6.64892L32.0421 6.17448L32.6271 5.228L32.1423 4.9295L30.701 7.26975L31.1858 7.5699L31.7819 6.59957ZM35.5983 11.2409L35.6094 11.2358L38.2727 10.1167L37.8816 9.67106L36.2182 10.4126L37.1613 8.85567L36.771 8.41258L35.3186 10.9211L35.5983 11.2409ZM19.1768 4.80035C19.2278 4.9508 19.3205 5.0783 19.4556 5.18555C19.568 5.27314 19.6904 5.33254 19.8213 5.36824C19.9055 5.39134 19.9931 5.40229 20.0883 5.40229C20.1386 5.40229 20.1912 5.39809 20.2448 5.39299C20.4005 5.37349 20.533 5.33179 20.6512 5.26625C20.7678 5.20085 20.8698 5.11145 20.9583 4.99925C21.0663 4.86155 21.1275 4.71276 21.1393 4.55541C21.1411 4.51971 21.1437 4.48221 21.1437 4.43976C21.1437 4.29516 21.1275 4.10812 21.1011 3.87757C21.0629 3.57923 21.0195 3.35723 20.9727 3.20754C20.9226 3.05709 20.8281 2.93034 20.6879 2.82399C20.5748 2.73639 20.4523 2.6761 20.3247 2.6404C20.2396 2.6182 20.1513 2.60635 20.0586 2.60635C20.0067 2.60635 19.9541 2.61055 19.9004 2.61745C19.7448 2.6362 19.6113 2.67775 19.4931 2.7442C19.3766 2.80959 19.2729 2.89809 19.1844 3.01119C19.079 3.14289 19.0212 3.29093 19.0083 3.44993C19.0041 3.48908 19.0032 3.53153 19.0032 3.57833C19.0032 3.72293 19.0178 3.90652 19.0467 4.13272C19.0824 4.42866 19.1265 4.64976 19.1768 4.80035ZM19.5713 3.53153C19.5756 3.47708 19.5824 3.43298 19.5944 3.39713C19.6062 3.36143 19.6232 3.32828 19.6445 3.29858C19.6751 3.25088 19.7202 3.21009 19.7745 3.17949C19.8289 3.14724 19.8927 3.12684 19.9633 3.11829C19.9854 3.11664 20.0092 3.11409 20.0331 3.11409C20.1418 3.11409 20.2329 3.14724 20.3103 3.21519C20.3418 3.24249 20.3673 3.27129 20.3868 3.30368C20.4081 3.33593 20.4269 3.37598 20.4429 3.42608C20.4582 3.47543 20.4744 3.54083 20.4871 3.62333C20.5024 3.70673 20.5186 3.81472 20.5356 3.94822C20.5518 4.08007 20.562 4.18807 20.5688 4.27311C20.5739 4.32576 20.5756 4.37421 20.5756 4.41501C20.5756 4.43796 20.5757 4.45926 20.5739 4.47801C20.5697 4.53066 20.562 4.57326 20.5509 4.61061C20.5391 4.64631 20.5212 4.68036 20.4973 4.71276C20.4268 4.81565 20.324 4.87595 20.1836 4.8929C20.1606 4.89545 20.136 4.89725 20.1156 4.89725C20.0697 4.89725 20.0271 4.89125 19.9863 4.88015C19.9251 4.8623 19.8741 4.83425 19.8307 4.7951C19.7992 4.7696 19.7754 4.74156 19.7567 4.71096C19.7388 4.68036 19.7202 4.63866 19.7031 4.58601C19.6853 4.53411 19.6699 4.46781 19.6563 4.38696C19.6419 4.30791 19.6275 4.19902 19.6096 4.06387C19.5918 3.92617 19.5814 3.81727 19.5747 3.73478C19.5705 3.68288 19.568 3.63698 19.568 3.59528C19.5687 3.57233 19.5696 3.55028 19.5713 3.53153ZM9.5505 11.1346L8.75115 10.4015L8.9952 10.1336L10.1586 10.4687L10.1653 10.4611L10.6033 9.9841L9.315 9.64301C9.35235 9.54866 9.3711 9.45086 9.3711 9.34886C9.3711 9.30296 9.3669 9.25707 9.35925 9.21027C9.33375 9.05382 9.25125 8.91177 9.1152 8.78847C9.03015 8.71018 8.934 8.64988 8.832 8.61163C8.7435 8.57668 8.64915 8.56048 8.553 8.56048C8.5386 8.56048 8.52585 8.56048 8.51055 8.56138C8.4009 8.56738 8.28945 8.59798 8.1789 8.65153C8.0709 8.70598 7.97055 8.78592 7.8753 8.88792L7.13625 9.69656L9.16695 11.5538L9.5505 11.1346ZM8.40165 10.081L7.89225 9.61586L8.2257 9.25272C8.3013 9.17022 8.38545 9.12597 8.47905 9.11577C8.48925 9.11577 8.50035 9.11502 8.50965 9.11502C8.59125 9.11502 8.66355 9.14472 8.7333 9.20937C8.8098 9.27911 8.8473 9.35816 8.8473 9.45251C8.8473 9.54701 8.8098 9.63536 8.7333 9.71876L8.40165 10.081ZM8.16615 12.8804C8.2809 12.7043 8.3388 12.5316 8.3388 12.3583C8.3388 12.3191 8.33625 12.2818 8.33025 12.2426C8.298 12.0334 8.17635 11.8607 7.9671 11.723C7.8405 11.6414 7.7205 11.5997 7.6032 11.5997C7.58955 11.5997 7.57935 11.5997 7.5675 11.6014C7.4526 11.6099 7.34895 11.6405 7.25715 11.6924C7.2579 11.6806 7.2579 11.6686 7.2579 11.6558C7.2579 11.5784 7.23915 11.4926 7.20525 11.405C7.1619 11.2894 7.08105 11.1923 6.9612 11.1151C6.82005 11.0206 6.67545 10.9747 6.52995 10.9747C6.47565 10.9747 6.41685 10.9823 6.36 10.9969C6.1575 11.0486 5.9841 11.1907 5.8353 11.4169L5.2221 12.3574L7.52745 13.8617L8.16615 12.8804ZM6.73575 12.0538L6.456 12.4825L5.9568 12.1576L6.2358 11.7272C6.2961 11.6345 6.36585 11.5802 6.44325 11.5615C6.46545 11.5547 6.4866 11.5522 6.5088 11.5522C6.56235 11.5522 6.61755 11.5691 6.67035 11.6048C6.74775 11.6551 6.79185 11.7188 6.80385 11.797C6.8073 11.8106 6.80895 11.8259 6.80895 11.8412C6.80985 11.9068 6.7851 11.9773 6.73575 12.0538ZM6.88035 12.7613L7.1814 12.3022C7.2417 12.2069 7.31325 12.1525 7.39485 12.1355H7.39575C7.41525 12.1321 7.43655 12.1286 7.4577 12.1286C7.51725 12.1286 7.5777 12.1483 7.63545 12.1865C7.71465 12.2366 7.76055 12.3029 7.78005 12.3863C7.78515 12.4051 7.7868 12.4262 7.7868 12.445C7.7868 12.5096 7.76475 12.5784 7.7163 12.6498L7.4169 13.1099L6.88035 12.7613ZM11.0947 9.55541L11.5149 9.19572L9.7266 7.10566L9.2937 7.47465L11.0829 9.56651L11.0947 9.55541ZM17.0772 3.75008L17.6749 5.91513L18.2226 5.76634L17.6256 3.60038L18.3213 3.40823L18.1853 2.92359L16.2489 3.45668L16.3815 3.94222L17.0772 3.75008ZM11.3772 7.54695C11.5404 7.79519 11.6799 7.97549 11.7912 8.08694C11.9052 8.19824 12.0447 8.27233 12.2122 8.30713C12.282 8.32078 12.3516 8.32753 12.4188 8.32753C12.6246 8.32753 12.8227 8.26469 13.0081 8.14139C13.27 7.96784 13.4283 7.734 13.4826 7.44405C13.4946 7.3905 13.4997 7.33695 13.4997 7.28415C13.4997 7.20346 13.487 7.12261 13.4622 7.04431C13.4223 6.91336 13.3449 6.76547 13.2335 6.59537L13.0081 6.26028L12.128 6.84541L12.3916 7.23991L12.7982 6.96961L12.8441 7.03666C12.8832 7.09456 12.9104 7.15576 12.9317 7.21951C12.9435 7.2621 12.9503 7.30455 12.9503 7.34535C12.9503 7.3641 12.9477 7.3836 12.9451 7.40145C12.924 7.53495 12.8534 7.6404 12.7301 7.72215C12.645 7.77824 12.5608 7.80539 12.4783 7.80539C12.4443 7.80539 12.4104 7.80209 12.3764 7.79354C12.3372 7.78334 12.3032 7.76894 12.2717 7.7502C12.2429 7.73235 12.2072 7.70175 12.1689 7.66095C12.1289 7.62 12.0855 7.56825 12.0387 7.5036C11.9886 7.4373 11.9273 7.34715 11.8517 7.23226C11.7743 7.11916 11.7156 7.02391 11.6723 6.95416C11.6289 6.88456 11.599 6.82411 11.5786 6.77401C11.5582 6.72542 11.5446 6.68207 11.5395 6.64382C11.5362 6.62687 11.5353 6.60722 11.5353 6.59027C11.5353 6.57152 11.5369 6.55292 11.5395 6.53417C11.5573 6.40997 11.6229 6.31052 11.7395 6.23223C11.8227 6.17793 11.8992 6.14808 11.9724 6.14043C11.9886 6.13698 12.009 6.13698 12.0302 6.13698C12.0932 6.13698 12.1696 6.14553 12.2581 6.16428L12.2717 6.16593L12.3831 5.63449L12.3687 5.63194C12.2649 5.61154 12.1689 5.60044 12.0787 5.60044C12.0157 5.60044 11.9537 5.60554 11.8976 5.61664C11.7624 5.64304 11.6153 5.70844 11.4588 5.81223C11.2097 5.97723 11.0565 6.20163 10.9987 6.48317C10.9851 6.54182 10.98 6.60212 10.98 6.66002C10.98 6.76202 10.9988 6.85981 11.0379 6.95416C11.0982 7.10056 11.2088 7.29855 11.3772 7.54695ZM15.0312 6.95341L14.5635 5.91513L15.3874 5.54434L15.8577 6.58262L15.8723 6.57662L16.3757 6.34877L15.2438 3.84112L14.7241 4.07497L15.1835 5.08775L14.3586 5.46019L13.9002 4.44651L13.3822 4.68036L14.5151 7.18891L15.0312 6.95341ZM31.6653 23.8908C31.8931 23.8908 32.076 23.6271 32.076 23.6271C32.076 23.6271 31.8924 23.3652 31.6653 23.3652C31.4382 23.3652 31.2555 23.6271 31.2555 23.6271C31.2555 23.6271 31.4382 23.8908 31.6653 23.8908ZM42.3987 19.9009C42.1257 19.7546 41.7064 19.5608 41.1052 19.3082C40.4862 19.0496 39.2073 18.6415 37.8816 18.2878C36.0329 11.5223 29.849 6.55037 22.5 6.55037C14.2676 6.55037 7.4943 12.7884 6.64395 20.7938C5.83275 20.9145 5.058 21.0089 4.3854 21.0795C3.0537 21.2181 2.1294 21.2675 2.1276 21.2682C2.0775 21.2708 2.03925 21.309 2.03235 21.3575C2.0316 21.3618 2.0316 21.3669 2.0316 21.3746C2.02815 21.4476 2.08005 21.753 2.58435 22.0098C3.08775 22.2717 4.041 22.509 5.88795 22.5107C6.0963 22.5107 6.3183 22.5047 6.55035 22.4996C6.55035 31.3075 13.6902 38.448 22.5 38.448C31.3073 38.448 38.4488 31.3075 38.4488 22.4996C38.4488 21.4988 38.351 20.5191 38.1758 19.5692C39.8153 19.9315 41.8784 20.4 42.5433 20.4017C42.6138 20.4 42.67 20.3975 42.7185 20.3813C42.7618 20.372 42.8256 20.3354 42.8282 20.2605C42.8018 20.1161 42.6682 20.0591 42.3987 19.9009ZM42.5424 20.2496C41.5006 20.2512 36.7122 19.0088 36.032 19.0063C34.9691 19.0132 32.5769 20.3261 31.3346 21.1331C30.9731 21.3695 30.605 21.5829 30.2453 21.7709C30.3362 21.776 30.4298 21.7836 30.5181 21.7955C31.2741 21.8856 31.9443 22.1781 32.486 22.5753C33.1841 23.0956 33.906 23.7334 34.3398 23.8185C34.3602 23.8201 34.3839 23.8219 34.4087 23.8252H34.4103C35.0277 23.8831 36.794 24.3202 36.7386 25.3652C36.7386 25.3652 35.5091 24.9937 34.0344 25.2463C33.4536 25.3703 32.6067 25.4486 31.3244 25.8568C30.11 26.2394 26.9424 27.4402 24.4661 27.4411C22.5816 27.4393 18.7745 26.3551 16.5771 26.1689C16.4462 26.1578 16.3161 26.1509 16.1861 26.1509C14.5133 26.1493 13.077 27.0286 12.3585 27.0379C11.7105 27.0379 10.5744 26.9273 9.46215 26.1025C8.616 25.4699 7.99095 24.5455 7.9824 23.8609C7.98075 23.6322 8.06235 23.4196 8.241 23.2794C8.36685 23.1832 8.5437 23.1637 8.77665 23.1612C9.639 23.1619 11.3457 23.5362 13.3704 23.5353C14.5746 23.5353 15.885 23.4043 17.1852 22.9851C17.487 22.8882 18.3953 22.6764 18.9803 22.5294C19.1351 22.6348 19.2984 22.7487 19.4803 22.8745C19.4982 22.8873 19.517 22.8933 19.5356 22.8933C19.5687 22.8933 19.5995 22.8771 19.6199 22.8508C19.6521 22.804 19.6394 22.7419 19.596 22.7095C18.4701 21.9255 17.9352 21.4902 16.0517 21.4953C14.8518 21.4953 13.0967 21.662 10.2546 22.0029C8.4102 22.2233 6.9858 22.3091 5.88795 22.3091C4.05795 22.31 3.1311 22.0701 2.6778 21.8321C2.39805 21.6849 2.29515 21.5463 2.25855 21.4629C2.91675 21.4221 6.2052 21.1917 9.1101 20.5488C12.4069 19.8158 17.5695 17.7529 19.9744 17.7571C20.8707 17.7512 22.4242 18.6755 23.9635 19.7122C25.5129 20.7453 27.0588 21.884 28.0454 22.2972C28.0964 22.3176 28.155 22.2947 28.1754 22.2437C28.1975 22.1927 28.1729 22.1339 28.1219 22.1118C27.5571 21.8754 26.7723 21.372 25.9016 20.7843C27.0963 20.219 31.241 17.7308 34.208 17.7325C35.6187 17.7299 39.7923 18.9179 41.0475 19.4468C41.6452 19.6985 42.0636 19.8899 42.329 20.0336C42.4608 20.1041 42.5569 20.162 42.613 20.2061C42.6309 20.219 42.6453 20.2325 42.6546 20.2427C42.6284 20.247 42.5908 20.2496 42.5424 20.2496Z" fill="#005DAA"/>
<path d="M34.0344 25.2463C35.5082 24.9937 36.7386 25.3652 36.7386 25.3652C36.7965 24.276 34.878 23.8474 34.3398 23.8185C34.3398 23.8185 34.6177 24.3967 33.1186 24.5107C33.1186 24.5107 32.4187 24.4945 32.1321 24.7513C32.1321 24.7513 33.5115 24.6459 33.9962 25.1849L34.0344 25.2463Z" fill="#FDB913"/>
</svg>
