<svg width="45" height="45" viewBox="0 0 45 45" fill="none" xmlns="http://www.w3.org/2000/svg">
<path d="M45 22.5011C45 10.0932 34.9063 0 22.4997 0C10.0932 0 0 10.0932 0 22.5011C0 34.9068 10.0932 45 22.4997 45C34.9063 45 45 34.9068 45 22.5011Z" fill="white"/>
<path d="M37.2954 33.764L37.0269 34.0508L37.5113 34.5045L37.7667 34.2314C37.9218 34.0652 37.9557 33.8429 37.7948 33.6929C37.6377 33.5456 37.4427 33.6063 37.2954 33.764ZM9.1461 35.1401C8.77455 35.4992 8.7798 35.9874 9.0855 36.3036C9.3912 36.6191 9.8787 36.6407 10.2496 36.2814C10.6237 35.9204 10.6187 35.432 10.313 35.1159C10.0079 34.8005 9.5202 34.7783 9.1461 35.1401ZM36.9614 33.0546C36.8147 32.9178 36.6477 32.9889 36.5481 33.0957L36.2951 33.3663L36.7149 33.7587L36.9594 33.4967C37.0859 33.3616 37.0937 33.1785 36.9614 33.0546ZM42.4419 22.4889C42.5202 22.3527 42.588 22.2034 42.588 22.0372C42.588 21.5959 42.2387 21.2497 41.7771 21.2497C41.3156 21.2497 40.9656 21.5959 40.9656 22.0372C40.9656 22.502 41.3456 22.8215 41.7432 22.8215C41.7771 22.8215 41.811 22.8174 41.8449 22.811L41.3358 23.6864H41.7497L42.4421 22.4891L42.4419 22.4889ZM40.3985 22.9368C40.3985 22.6584 40.2563 22.4309 40.032 22.3019C40.1442 22.1968 40.212 22.0509 40.212 21.8775C40.212 21.5281 39.9369 21.2497 39.577 21.2497C39.2211 21.2497 38.9493 21.5281 38.9493 21.8775C38.9493 22.0509 39.0138 22.1968 39.126 22.2985C38.9018 22.4277 38.7597 22.6584 38.7597 22.9368C38.7597 23.3742 39.1155 23.7138 39.577 23.7138C40.0458 23.7138 40.3985 23.3742 40.3985 22.9368ZM38.1456 33.3244C37.9116 33.106 37.6151 33.1237 37.3752 33.2847C37.4822 33.052 37.4267 32.784 37.241 32.61C36.9992 32.3832 36.6119 32.391 36.2592 32.7678L35.6322 33.4378L37.4847 35.1711L38.132 34.4783C38.5166 34.0676 38.4187 33.58 38.1456 33.3244ZM35.9568 35.6124L34.8819 34.3811L34.4987 34.7162L35.5377 35.9064C35.7887 36.194 35.7189 36.465 35.5071 36.6503C35.2945 36.8354 35.0117 36.8627 34.766 36.5811L33.7262 35.3901L33.3429 35.7252L34.4178 36.9566C34.8389 37.4383 35.4353 37.3418 35.8185 37.0074C36.2019 36.6723 36.3804 36.0974 35.9568 35.6124ZM34.1192 38.302L33.8774 37.9402L33.0345 38.5034L31.867 36.7565L31.4441 37.0386L32.8533 39.1481L34.1192 38.302ZM31.4602 39.1156L30.9903 39.0836C31.0039 39.4655 30.8319 39.7439 30.5288 39.8782C30.1337 40.0529 29.6976 39.8965 29.4773 39.3991C29.2479 38.8816 29.4689 38.4845 29.8632 38.3098C30.0783 38.2141 30.3436 38.1853 30.5985 38.3509L30.7875 37.892C30.4029 37.6906 29.9975 37.727 29.6801 37.8679C29.081 38.1332 28.6638 38.828 29.0198 39.6317C29.3541 40.3859 30.0881 40.5965 30.7014 40.3247C31.1597 40.1219 31.4694 39.6892 31.4602 39.1156ZM27.2532 41.5626L27.1678 41.1351L26.1738 41.3338L25.7618 39.274L25.2625 39.3737L25.7606 41.8612L27.2532 41.5626ZM24.5898 42.0625L24.5657 41.6278L23.5533 41.6851L23.434 39.5875L22.9263 39.6161L23.0697 42.1486L24.5898 42.0625ZM37.1744 22.5008C37.1744 21.6226 37.1001 20.77 36.9482 19.9252C36.9045 19.6821 36.8178 19.3941 36.8178 19.3941L37.6561 16.484C37.836 15.8603 37.9065 15.6883 37.808 15.5278C37.769 15.4639 37.6973 15.361 37.4064 15.2846L34.8897 14.6571L34.812 14.5172C32.1897 10.4802 27.6416 7.8046 22.4795 7.8046C17.2953 7.8046 12.7305 10.5027 10.1141 14.5682L10.0632 14.6621L7.5459 15.2891C7.25505 15.3661 7.18335 15.4691 7.14435 15.5323C7.04595 15.6934 7.1169 15.8647 7.29615 16.4893L8.1345 19.3992C8.1345 19.3992 8.0595 19.6566 8.01525 19.9017C7.87575 20.6664 7.7844 21.6141 7.7844 22.5006C7.7844 30.6039 14.3763 37.1963 22.4799 37.1963C30.5829 37.1963 37.1753 30.6043 37.1753 22.5006M21.9045 42.1794L21.1782 39.5557L20.6952 39.5068L19.4535 41.9304L20.0018 41.9865L20.2709 41.4363L21.2024 41.5308L21.3555 42.1233L21.9043 42.1794H21.9045ZM18.3584 39.1273L17.4745 38.881L16.7934 41.3241L17.7072 41.5789C18.249 41.7303 18.6362 41.418 18.7367 41.0575C18.8226 40.7491 18.6695 40.495 18.4158 40.3561C18.672 40.343 18.884 40.1702 18.9524 39.9251C19.0416 39.6058 18.8558 39.2662 18.3584 39.1273ZM16.5255 38.5903L14.6175 37.7194L14.4369 38.1157L15.1592 38.4455L14.2865 40.3567L14.7498 40.5686L15.6221 38.6567L16.3443 38.9866L16.5255 38.5903ZM13.0198 36.665C12.3987 36.2693 11.6133 36.4413 11.2032 37.0854C10.7958 37.7263 10.9731 38.5103 11.5943 38.9054C12.2154 39.301 13.001 39.1289 13.4084 38.4881C13.8185 37.8442 13.6411 37.0599 13.0198 36.665ZM10.6097 36.6488C11.1585 36.1182 11.1689 35.3138 10.6572 34.7852C10.1456 34.2558 9.34185 34.2396 8.793 34.7702C8.2467 35.2982 8.2362 36.1019 8.748 36.6312C9.25965 37.1605 10.0641 37.1768 10.6097 36.6488ZM7.8594 33.2383L8.35545 32.8726L8.967 33.7005L9.3177 33.4418L8.4045 32.2038L6.36285 33.7097L6.6654 34.1196L7.50885 33.4971L7.99635 34.158L8.34705 33.8993L7.85955 33.2383H7.8594ZM5.709 22.9424C5.709 22.664 5.5662 22.4366 5.3427 22.3074C5.45475 22.2025 5.52255 22.0564 5.52255 21.883C5.52255 21.5337 5.24745 21.2553 4.88775 21.2553C4.5312 21.2553 4.26 21.5337 4.26 21.883C4.26 22.0564 4.3245 22.2025 4.43595 22.3043C4.2123 22.4333 4.06965 22.664 4.06965 22.9424C4.06965 23.3804 4.4262 23.7194 4.88775 23.7194C5.35575 23.7194 5.709 23.3804 5.709 22.9424ZM3.2757 21.2553L2.9022 21.4881V23.6927H3.2757V21.2553ZM6.6282 10.7812L9.2115 12.9455L10.0211 11.9795C10.5015 11.4065 10.3353 10.7664 9.9546 10.4475C9.62865 10.1743 9.23625 10.2201 8.9292 10.4508C9.05445 10.134 8.96115 9.78253 8.7024 9.56548C8.36475 9.28258 7.85175 9.32038 7.41045 9.84643L6.6282 10.7812ZM9.51135 7.6843L11.6279 10.3074L12.1539 9.88243L11.3175 8.84592L11.5607 8.64972L12.9713 9.22332L13.6088 8.70837L12.0105 8.08976C12.2328 7.6798 12.1428 7.25875 11.9244 6.98754C11.5868 6.56904 11.0099 6.47454 10.4838 6.89889L9.51135 7.6843ZM13.1168 5.16682L14.5716 8.20706L16.4522 7.3063L16.2024 6.78474L14.9321 7.393L14.58 6.65829L15.5643 6.18698L15.3147 5.66483L14.3304 6.13613L13.9764 5.39692L15.2097 4.80636L14.9601 4.28421L13.1166 5.16682H13.1168ZM16.8492 3.6317L17.6015 6.91704L18.2604 6.76584L17.7871 4.69881L19.8041 6.41244L20.4278 6.26978L19.6749 2.98444L19.0166 3.13489L19.493 5.21692L17.4735 3.4883L16.8491 3.6317H16.8492ZM21.1227 3.3938L22.1781 3.39905L22.1623 6.19088L22.839 6.19478L22.854 3.40295L23.9094 3.4088L23.912 2.82994L21.1254 2.81494L21.1227 3.3938ZM24.8316 6.33818L25.4959 6.46599L25.7594 5.09767L26.8309 5.30377L26.9403 4.73511L25.8695 4.52916L26.0238 3.7247L27.3666 3.98285L27.4761 3.4145L25.4688 3.02794L24.8322 6.33818H24.8316ZM28.8822 7.6426C29.7845 8.02061 30.7746 7.61905 31.1643 6.68829C31.5561 5.75288 31.1481 4.76526 30.2453 4.38726C29.3432 4.0091 28.3528 4.41066 27.9612 5.34607C27.5713 6.27698 27.9794 7.2646 28.8822 7.6426ZM33.2555 6.05273L31.2237 8.74227L31.7634 9.14967L32.5659 8.08706L32.8155 8.27546L32.6018 9.78268L33.2555 10.2766L33.468 8.57532C33.9198 8.69202 34.3064 8.50241 34.5162 8.22461C34.8402 7.79516 34.7926 7.2136 34.2528 6.80559L33.2556 6.05273H33.2555ZM36.5108 8.73972L34.1108 11.1052L34.8944 11.9012C35.7359 12.7544 36.7841 12.5412 37.3713 11.9624C37.9626 11.3804 38.1294 10.3816 37.3491 9.58963L36.5115 8.74017L36.5108 8.73972ZM44.1843 22.4994C44.1843 34.4547 34.458 44.1805 22.5035 44.1805C10.5489 44.1805 0.823201 34.4541 0.823201 22.4994C0.823201 10.5436 10.5495 0.817211 22.5035 0.817211C34.4585 0.817211 44.1843 10.5436 44.1843 22.4994ZM29.1264 7.06225C29.6648 7.2877 30.2716 7.05834 30.537 6.42534C30.8043 5.78783 30.5415 5.19472 30.0032 4.96912C29.4648 4.74291 28.8572 4.97227 28.5906 5.60993C28.3253 6.24353 28.5879 6.83604 29.1264 7.06225ZM33.952 7.84316C34.0974 7.65085 34.0727 7.39465 33.8393 7.2187L33.4469 6.92274L32.9162 7.62535L33.2879 7.90631C33.525 8.08556 33.7975 8.04776 33.952 7.84316ZM41.7805 21.5949C41.5158 21.5949 41.3457 21.795 41.3457 22.0362C41.3457 22.2735 41.5158 22.4775 41.7805 22.4775C42.0418 22.4775 42.2147 22.2735 42.2147 22.0362C42.2147 21.795 42.0418 21.5949 41.7805 21.5949ZM39.5805 22.5011C39.3192 22.5011 39.1431 22.6946 39.1431 22.9358C39.1431 23.1731 39.3192 23.3667 39.5805 23.3667C39.8492 23.3667 40.0257 23.1731 40.0257 22.9358C40.0257 22.6946 39.8492 22.5011 39.5805 22.5011ZM39.5805 22.1581C39.7475 22.1581 39.8589 22.0362 39.8589 21.8764C39.8589 21.7168 39.7475 21.5949 39.5805 21.5949C39.4182 21.5949 39.3093 21.7168 39.3093 21.8764C39.3093 22.0362 39.4182 22.1581 39.5805 22.1581ZM36.8688 11.5034C37.2879 11.0901 37.4157 10.4826 36.9372 9.99689L36.5742 9.62863L34.998 11.182L35.3475 11.5359C35.8364 12.032 36.4452 11.9205 36.8688 11.5034ZM11.418 7.44475C11.2668 7.2577 11.0125 7.2193 10.785 7.40305L10.4024 7.71145L10.9559 8.39711L11.3183 8.10446C11.5496 7.91801 11.5789 7.64425 11.418 7.44475ZM4.8894 22.5089C4.62795 22.5089 4.4514 22.7024 4.4514 22.9436C4.4514 23.1809 4.62795 23.3745 4.8894 23.3745C5.1573 23.3745 5.334 23.1809 5.334 22.9436C5.334 22.7024 5.1573 22.5089 4.8894 22.5089ZM17.9567 40.5073L17.5779 40.4017L17.4 41.0405L17.7599 41.1409C17.9789 41.2023 18.1914 41.1292 18.2507 40.9174C18.3087 40.7093 18.1646 40.5653 17.9567 40.5073ZM12.7686 37.0635C12.3976 36.8276 11.9186 36.9201 11.639 37.3595C11.3619 37.7956 11.4813 38.2688 11.8515 38.5048C12.2224 38.7407 12.7016 38.6482 12.9792 38.2121C13.2582 37.7728 13.1395 37.2995 12.7686 37.0635ZM4.88865 22.1658C5.05485 22.1658 5.16705 22.0438 5.16705 21.8842C5.16705 21.7245 5.05485 21.6025 4.88865 21.6025C4.72575 21.6025 4.61685 21.7245 4.61685 21.8842C4.61685 22.0438 4.72575 22.1658 4.88865 22.1658ZM7.81935 10.2631L7.50345 10.6401L8.0886 11.1303L8.39415 10.765C8.55195 10.5766 8.54865 10.3329 8.3643 10.1784C8.16015 10.0069 7.94385 10.1139 7.81935 10.2631ZM18.2025 39.5353L17.846 39.4361L17.6914 39.989L18.0369 40.0855C18.215 40.135 18.3812 40.0574 18.4295 39.8827C18.4835 39.6898 18.3434 39.575 18.2025 39.5353ZM20.4932 40.9817L21.0759 41.0411L20.8639 40.225L20.4932 40.9817ZM9.51885 11.6802L9.2001 12.0609L8.5248 11.495L8.8599 11.0947C9.04425 10.8744 9.2973 10.7793 9.5175 10.9638C9.74115 11.1515 9.7131 11.4482 9.51885 11.6802Z" fill="#E30613"/>
<path d="M11.2482 14.8742C13.6967 11.2727 17.8268 8.90277 22.5008 8.90277C27.2066 8.90277 31.3616 11.3061 33.8037 14.9498L34.3194 14.7339C31.7839 10.9221 27.4106 8.35931 22.5006 8.35931C17.5994 8.35931 13.2725 10.8663 10.7348 14.6648L11.2484 14.8734L11.2482 14.8742ZM8.59005 19.9462C8.43945 20.7714 8.36055 21.6325 8.36055 22.5009C8.36055 30.2973 14.7036 36.6404 22.5004 36.6404C30.2967 36.6404 36.6398 30.2973 36.6398 22.5009C36.6398 21.6286 36.5601 20.7682 36.4083 19.9398L35.8608 19.9404C36.0159 20.7604 36.0967 21.6358 36.0967 22.5009C36.0967 29.9976 29.9978 36.0983 22.5006 36.0983C15.0032 36.0983 8.90355 29.998 8.90355 22.5009C8.90355 21.6286 8.98575 20.7754 9.1434 19.9489L8.59005 19.9462Z" fill="#140E0C"/>
<path d="M12.3916 23.1863V30.3699L12.6406 30.3262V23.204L12.3916 23.1863ZM12.6249 15.4694V13.8143L12.3759 14.0424V15.3761L12.6249 15.4694ZM20.4138 12.783V14.5751L20.6628 14.4459V13.169L20.4138 12.783ZM20.4138 31.822V35.5422L20.6628 35.582V32.0313L20.4138 31.822ZM20.6628 11.6613V9.42988L20.4138 9.48343V11.5244L20.6628 11.6613ZM16.6578 22.9703V22.4475L16.4088 22.6059V23.4762L16.6578 22.9703ZM16.6578 17.1142V16.0393L16.4088 15.7466V17.0053L16.6578 17.1142ZM16.4088 27.812V34.1253L16.6578 34.2675V27.4079L16.4088 27.812ZM16.6578 14.1051V10.5934L16.4088 10.7337V13.8638L16.6578 14.105V14.1051ZM32.4895 23.2041V30.3264L32.7385 30.37V23.1866L32.4895 23.2043V23.2041ZM32.7542 15.3766V14.0429L32.5051 13.8147V15.4699L32.7542 15.3766ZM24.4677 13.1694V14.4464L24.7161 14.5755V12.7836L24.4677 13.1696V13.1694ZM24.4677 32.0314V35.582L24.7161 35.5422V31.8222L24.4677 32.0314ZM24.7161 11.5247V9.48373L24.4677 9.43033V11.6616L24.7161 11.5247ZM28.7211 23.4767V22.6064L28.4721 22.448V22.9709L28.7211 23.4767ZM28.7211 17.0054V15.7466L28.4721 16.0394V17.1142L28.7211 17.0054ZM28.4721 27.4087V34.2681L28.7211 34.1261V27.8131L28.4721 27.4088V27.4087ZM28.4721 14.1057V10.5942L28.7211 10.7343V13.8645L28.4721 14.1057Z" fill="#E8E4D9"/>
<path d="M26.4546 18.3421L34.6116 15.0365L33.1985 17.2952L26.4572 18.8563L26.4546 18.3421ZM26.4657 19.2286L26.463 19.5858H36.3071L33.1262 17.8499L26.4657 19.2286ZM7.8069 16.3421L8.58705 19.0564L11.3561 17.5871C11.3561 17.5871 9.89085 15.1708 9.88815 15.1885L8.19855 15.6278C7.872 15.7157 7.77495 15.764 7.72995 15.833C7.6785 15.9113 7.71105 15.9922 7.8069 16.3421ZM11.8782 17.8499L8.69655 19.5819H18.5413L18.5381 19.2286L11.8782 17.8499ZM10.5328 20.6313C10.5276 20.7166 10.6137 20.7963 10.7421 20.9317L12.5796 22.7544L14.0586 21.3327L11.276 20.1672L10.731 20.4409C10.5882 20.5218 10.5367 20.5732 10.5328 20.6313ZM18.57 18.3421L10.4129 15.0365L11.8254 17.2952L18.5673 18.8563L18.57 18.3421ZM11.9219 19.9567L14.4777 20.9781L18.5714 20.3067L18.5622 19.9567H11.9219ZM14.7027 21.4188C14.7431 21.403 13.0613 22.931 13.0613 22.931L14.2718 22.9995C14.2718 22.9995 14.6414 23.0235 14.876 22.9701C15.026 22.9368 15.4867 22.6775 15.4867 22.6775C15.4867 22.6775 18.5745 21.0204 18.5739 21.0067L18.5673 20.6449C18.5673 20.6449 14.6616 21.435 14.7027 21.4188ZM26.4572 20.6449L26.45 21.0067C26.4494 21.0204 29.5371 22.6775 29.5371 22.6775C29.5371 22.6775 29.9979 22.9368 30.1485 22.9701C30.3825 23.0235 30.7521 22.9995 30.7521 22.9995L31.9632 22.931C31.9632 22.931 30.2808 21.403 30.3219 21.4188C30.363 21.435 26.4572 20.6449 26.4572 20.6449ZM34.2889 20.4409L33.7434 20.1672L30.9608 21.3327L32.4404 22.7544L34.2779 20.9317C34.4064 20.7963 34.4924 20.7166 34.4865 20.6313C34.4832 20.5732 34.4317 20.5218 34.2889 20.4409ZM29.7197 27.155C29.6682 27.0859 28.2485 23.3234 28.2485 23.3234C28.0079 22.7217 27.8019 22.6188 27.3723 22.3782L26.3965 21.7557L26.3504 21.8143L27.4689 23.3403L27.4715 25.5573L31.1114 30.1795C31.6094 30.7981 31.6263 31.0041 32.3486 31.0041L32.795 30.7981L31.9535 30.66C31.9535 30.66 29.7711 27.2234 29.7197 27.155ZM15.3199 27.155C15.2685 27.2234 13.0862 30.66 13.0862 30.66L12.2445 30.7981L12.691 31.0041C13.4127 31.0041 13.4302 30.7981 13.9282 30.1795L17.5623 25.5573L17.5707 23.3403L18.6887 21.8143L18.6423 21.7557L17.6679 22.3782C17.2383 22.6188 17.0316 22.7217 16.7911 23.3234C16.7911 23.3234 15.3714 27.0859 15.3199 27.155ZM37.2491 15.8266C37.2033 15.7574 37.1063 15.7093 36.7797 15.6212L35.0907 15.1819C35.0875 15.1643 33.6228 17.5807 33.6228 17.5807L36.3918 19.05L37.1721 16.3357C37.268 15.9856 37.2999 15.9047 37.2491 15.8266ZM26.4546 19.9501L26.4455 20.3002L30.5397 20.9716L33.0948 19.9501H26.4546ZM26.351 17.7703L28.9543 14.9479L30.6295 12.9116L30.7202 12.3575L30.552 12.203L30.3461 12.8346L25.9775 16.8037C25.9899 16.8421 26.351 17.7703 26.351 17.7703ZM16.067 14.9479L18.6703 17.7703C18.6703 17.7703 19.0316 16.8421 19.0439 16.8037L14.6753 12.8346L14.4687 12.203L14.3018 12.3575L14.3918 12.9116L16.067 14.9479ZM18.7728 11.1714L19.1649 11.6309L20.385 12.3009L21.6113 14.0772L21.264 14.5569C21.264 14.5569 20.5631 14.7897 20.4177 14.9735C20.2371 15.2036 20.1987 16.0949 20.1987 16.0949L19.6578 16.4056L19.0131 18.3112V21.328L19.4725 21.6336L18.1107 23.5412V28.1459L19.6314 30.7227L21.7112 32.3034L22.5116 33.3087L23.3102 32.3034L25.3899 30.7227L26.9105 28.1459V23.5412L25.5753 21.6172L26.0081 21.328V18.3112L25.3633 16.4056L24.8215 16.0949C24.8215 16.0949 24.7848 15.2036 24.6036 14.9735C24.4582 14.7897 23.7573 14.5569 23.7573 14.5569L23.4293 14.1047L24.6759 12.3009L25.8951 11.6309L26.2872 11.1714L25.6863 11.3609L24.3978 12.0819L23.1543 13.8419L22.5391 13.6811L21.9015 13.8359L20.6629 12.0821L19.3746 11.3609L18.7727 11.1715L18.7728 11.1714ZM21.264 14.7291L21.4514 15.5908L20.6112 15.9146L21.264 14.7291ZM23.7573 14.7291L24.4101 15.9146L23.5801 15.5797L23.7573 14.7291ZM22.5045 18.1309L25.0284 19.231L24.1871 21.1213V19.6434L22.5047 18.7839L20.1192 19.0497L20.099 18.9732L22.5047 18.1309H22.5045ZM19.4836 26.6989L21.1041 27.2764H23.917L25.5385 26.6989L25.5559 26.7457L24.0852 27.8701H20.9361L19.4654 26.7457L19.4836 26.6989Z" fill="#140E0C"/>
<path d="M26.0047 28.8236L23.9516 29.5447H21.0803L19.053 28.8236L19.7706 30.0739L21.4588 30.6841L20.2733 30.6553L21.8879 31.8822H23.1432L24.7578 30.6553L23.5734 30.6841L25.2611 30.0739L26.0047 28.8236ZM19.4657 18.2585L21.1839 17.348H23.8485L25.5668 18.2585L25.3778 17.7254L24.14 16.6948L25.2402 17.0729L25.1196 16.6948C25.1196 16.6948 23.934 16.1108 23.917 16.0592H21.1148C21.0978 16.1108 19.9121 16.6948 19.9121 16.6948L19.7914 17.0729L20.8918 16.6948L19.6541 17.7254L19.4657 18.2585ZM26.409 23.6859L26.4051 23.6813L23.9855 23.9778L25.8243 22.961L25.0988 21.946L24.0545 22.643H20.9772L19.9604 21.9637L19.2381 22.961L21.0463 23.9778L18.6267 23.6813L18.6234 23.6859V24.9797L20.1866 25.5638H24.8445L26.409 24.9797V23.6859Z" fill="#FBB800"/>
</svg>
