<svg width="45" height="55" viewBox="0 0 45 55" fill="none" xmlns="http://www.w3.org/2000/svg">
<path fill-rule="evenodd" clip-rule="evenodd" d="M45 0H0V41.5906C0 44.8392 2.29365 47.3967 6.88072 49.2828C8.406 49.9148 10.436 50.5665 12.9818 51.2281L18.6583 52.719L19.4609 53.0352C20.057 53.2721 20.4815 53.4695 20.7225 53.6274C21.3073 53.9829 21.8806 54.437 22.4426 55C22.9815 54.5163 23.4175 54.1606 23.7384 53.9333C24.3693 53.4891 25.1719 53.104 26.1695 52.7781C26.8805 52.5412 28.7613 52.0278 31.8116 51.2281C34.4376 50.5367 36.5022 49.895 37.9816 49.3026C42.6598 47.4364 44.9995 44.8689 44.9995 41.591L45 0Z" fill="#7B003A"/>
<path fill-rule="evenodd" clip-rule="evenodd" d="M20.8597 51.9978C21.3871 52.3039 21.9148 52.6892 22.4539 53.1727C22.9471 52.7582 23.3482 52.4521 23.6461 52.2548C24.208 51.8796 24.9538 51.5437 25.9056 51.2575C26.559 51.05 28.314 50.6058 31.1463 49.9146C33.5891 49.3121 35.5039 48.7592 36.8921 48.246C41.2382 46.6367 43.4056 44.4049 43.4056 41.5708V1.40222H1.59413V41.5708C1.59413 44.3851 3.72735 46.597 7.98188 48.2258C9.4041 48.7689 11.2961 49.3318 13.6584 49.9144L18.9335 51.2079L20.8597 51.9978Z" fill="#A3C5E9"/>
<path fill-rule="evenodd" clip-rule="evenodd" d="M10.3806 15.0449L8.8209 14.8475L8.1099 13.6132L7.42162 14.8477L5.85068 15.0451L6.9858 16.0128L6.71062 17.3853C7.18087 17.1682 7.65113 16.951 8.1099 16.7336L9.5202 17.3853L9.24503 16.0128L10.3806 15.0449Z" fill="white"/>
<path fill-rule="evenodd" clip-rule="evenodd" d="M18.1015 17.4911C17.7867 17.762 17.8029 18.1787 17.465 18.3418C17.2206 18.46 16.9421 18.4224 16.8237 18.3137C16.6543 18.1577 16.5955 17.9138 16.8172 17.6998C17.0806 17.4452 17.633 17.4845 18.1015 17.4911ZM15.7372 21.4405C15.7275 21.7728 15.784 22.0293 15.9723 22.2284C15.698 22.4161 15.7525 22.7127 15.8796 22.9768C16.0173 23.2637 16.4884 23.7182 17.0707 23.9286C17.1697 23.7806 16.8946 23.385 16.9936 23.1132C17.3495 23.3484 17.6875 23.5328 17.9188 23.5146C17.7622 23.2422 17.7458 23.0593 17.8034 22.9867C18.4286 22.539 19.1707 21.9729 19.6135 21.8479C19.9723 21.7466 20.3479 21.9616 20.4091 22.3505C20.479 22.7953 20.2793 23.1697 19.9382 23.4828C19.3331 24.039 18.5204 24.3067 17.8933 24.9056C16.893 25.8605 16.684 26.9159 15.4708 26.9707C16.1411 26.5823 16.5224 26.2495 16.9058 25.6189C14.5118 25.9331 13.0572 24.8219 11.5848 24.1723C10.9397 23.8875 10.2944 23.8278 9.9288 23.7598C9.34448 23.2401 9.04567 22.8133 8.9082 22.1155C8.7525 21.3245 8.98515 20.623 8.14297 20.5373C7.66012 19.9621 7.04587 19.5726 6.1443 20.0813C6.6267 20.1534 6.97703 20.2518 7.21508 20.8657C7.14533 20.9558 6.98355 21.0908 6.97927 21.2483C6.67462 21.2632 6.57967 21.2855 6.37942 21.4508C5.5782 21.1718 4.82378 21.2869 4.44105 21.9709C4.99838 21.8427 5.42925 21.8584 5.8122 22.1813C5.85338 22.4026 5.88038 22.5643 6.02618 22.7253C5.69498 22.8993 5.49293 23.2459 5.4801 23.4766C4.83323 23.6091 4.44218 23.9569 4.40753 24.4859C4.87035 24.2072 5.34915 24.1731 5.58607 24.2279C5.73682 24.3608 5.87137 24.6196 6.18165 24.6942C6.5331 24.7787 7.21372 24.6524 7.6068 24.7519C7.7607 24.9862 7.81785 25.1082 7.8039 25.2572C7.74923 25.8419 6.64425 25.4569 6.74505 26.3318C6.36165 26.4263 6.12922 26.3109 5.7942 26.104C6.01965 26.9698 6.60713 27.3644 7.38878 26.9568C8.05185 27.0813 8.46203 26.4901 9.0594 26.2082C9.6345 25.937 10.4733 26.2857 10.9478 26.5749C11.6759 27.0186 12.4492 27.58 12.85 28.9177C13.1101 28.6872 13.2862 28.3495 13.3297 28.0196L15.2183 29.5254L11.1458 32.2446C10.868 32.43 10.5545 32.6001 10.262 32.5004C10.0118 32.4147 9.86895 32.1768 9.65048 31.9992C9.33143 31.7394 8.9019 31.567 8.44267 31.7836C7.71457 31.7624 7.03912 31.9105 6.90165 32.8516C7.1424 32.6646 7.36402 32.4984 7.81582 32.6154C7.81785 32.8516 7.8876 33.0577 8.064 33.2338C7.83765 33.3537 7.6896 33.5413 7.67227 33.6612C7.00042 33.6945 6.51038 34.0223 6.44468 34.707C6.82583 34.3782 7.14398 34.2335 7.59398 34.3919C7.72718 35.0944 8.10202 35.1818 8.53402 35.1341C8.41207 35.434 8.38575 35.6475 8.54235 35.8986C8.3079 36.3469 8.5626 36.9246 8.89965 37.1172C8.856 36.8397 8.90842 36.5094 9.09157 36.3635C9.47452 36.4449 9.75893 36.313 10.1421 35.8829C10.2332 36.2448 10.5275 36.4449 10.8977 36.4158C10.9476 36.7927 11.1461 37.0962 11.4053 37.2927C11.3312 36.9854 11.2894 36.6443 11.3546 36.337C12.049 35.8649 11.9088 35.3503 12.0238 34.7631C12.1518 34.1095 12.5343 33.8187 13.1461 33.4727C14.3339 32.8014 15.7352 32.2921 17.9507 32.1323C18.6428 32.8516 19.3318 33.6302 20.2068 34.2931C18.8681 35.2229 17.9606 34.8327 16.875 34.9423C16.3858 34.9914 15.739 35.1884 15.3889 35.5003C15.0804 35.775 14.9227 36.1247 14.5793 36.2733C14.3125 36.3887 13.9552 36.4203 13.5403 36.1249C13.52 36.9658 13.9151 37.2442 14.9128 37.1956C14.5604 37.5544 14.1903 37.6904 13.4327 37.4513C13.7538 38.1205 14.2783 38.3671 15.0923 38.2931C15.2849 39.4398 16.9922 40.0756 16.6882 40.9809C16.2767 42.2066 13.1288 42.543 11.9853 41.9087C11.1816 41.4625 10.8223 40.7184 9.87772 40.9637C9.35707 40.5559 8.39543 40.4222 7.99875 41.4007C8.685 41.0706 8.9982 41.2508 8.85015 41.639C7.61715 41.653 7.1523 42.1805 7.32397 42.9002C7.56292 42.5228 7.81673 42.4354 8.12925 42.4872C8.02598 42.6913 7.95893 42.9585 7.97265 43.3642C7.36358 43.6813 7.34017 44.2631 7.61647 44.7503C7.7769 44.353 7.85655 43.9899 8.23388 43.9715C8.45933 44.2344 8.77275 44.4217 9.17392 44.5335C9.0333 45.1564 9.06795 45.7225 9.27832 46.194C9.41737 45.7769 9.5562 45.5109 9.73913 45.3207C10.3741 45.6998 11.0457 45.7073 11.702 45.5549C13.0426 45.2436 13.8661 44.3437 14.9069 44.3301C15.4856 44.3226 15.7498 44.7141 15.3614 45.1715C16.1919 45.1279 16.6392 44.9603 17.0426 44.7598C17.6717 44.4471 18.0686 44.0544 18.6786 43.9289C19.6927 43.7201 21.1223 44.7205 21.8018 43.6036C21.0031 43.7195 20.5438 43.4082 20.4041 43.0827C21.4103 43.2336 22.064 43.2078 22.6042 42.4839C21.1356 42.6966 20.4822 41.5941 20.392 40.9887C20.3072 40.4199 20.5202 39.3549 21.8927 38.9961C22.3348 38.2057 22.5682 37.7915 23.0481 37.1387L23.2074 36.5023C23.3046 36.7975 23.3786 37.0794 23.2713 37.3994C23.1147 37.8673 22.7358 38.377 22.5061 38.9132C22.3173 39.3545 22.2604 39.8393 22.2881 40.2058C22.3232 40.6659 22.5074 41.0871 22.8456 41.4337C23.4092 42.011 24.232 42.4779 23.6549 43.634C24.273 43.5813 24.6276 43.3272 25.2459 42.7202C25.7157 43.029 26.0613 43.4448 25.8874 44.0056C26.6681 43.7991 27.1606 43.2723 27.4365 42.5052C28.555 42.5331 29.1811 42.7247 29.2896 43.0951C29.47 43.7123 27.6808 46.0024 25.4326 46.0805C25.0758 45.9979 24.7936 45.6777 24.5149 45.5638C24.2629 45.4607 23.9162 45.4828 23.6165 45.8486C22.9124 45.6841 22.084 45.8412 21.8671 46.5187C21.449 46.6787 21.0775 47.2124 21.1383 47.6828C21.2879 47.5708 21.7679 47.2948 21.9506 47.2733C22.0012 47.4135 22.2829 47.561 22.4437 47.6012C21.4924 48.3192 21.4628 48.908 21.546 49.1885C21.9479 48.629 22.4183 48.5248 22.6471 48.5397C22.8087 48.8896 23.1295 49.0349 23.5993 49.0804L23.6216 50.0523L24.4258 49.2861C25.4095 49.7005 26.4443 49.4399 27.1748 48.9678C28.5226 48.0968 29.0851 46.3941 30.0856 46.5063C30.2951 46.5297 30.4891 46.7095 30.389 46.9683C30.6367 47.0199 30.8727 46.9346 31.0516 46.751C31.4453 46.347 31.6897 45.5427 32.4245 44.5961C32.8939 43.9911 34.0216 43.3357 34.3438 42.7359C33.8195 43.0333 33.2071 42.9395 33.1227 42.6768C34.0452 42.2613 34.8759 41.7762 35.2204 40.6351C34.7155 40.8362 34.2542 40.9867 33.7495 40.9358C34.1714 40.1663 34.3145 39.3716 33.9134 38.8553C32.6293 40.4755 31.0927 40.2058 30.4715 39.8294C29.9871 39.5361 29.5256 39.0942 29.4881 38.0626C29.4784 37.7925 29.5544 37.3624 29.6894 36.96C29.8242 36.5575 29.9741 36.2394 29.9795 35.8717C31.8778 36.813 33.3668 37.0968 34.4381 37.0561C36.4444 36.9796 37.7449 35.6088 37.6742 33.8559C37.6398 32.9981 37.2184 32.1689 36.4734 31.3502C35.631 30.4242 34.4385 29.5301 33.6506 28.6039C33.2377 28.1186 32.9614 27.5726 32.8457 27.0761C32.6594 26.277 32.7994 25.3571 33.7883 24.5851C34.8509 25.1142 35.8519 25.3267 36.8039 25.2645C37.7788 25.2008 38.5522 24.6994 39.3032 24.1671C39.6416 23.9272 39.9969 23.6762 40.7162 23.7451C40.4793 23.5078 40.0448 23.2517 39.3905 23.279C40.9266 21.6745 41.5445 19.6694 40.6944 18.2678C40.5551 19.0751 40.2426 19.2705 39.9609 19.4369C39.5865 19.6582 39.2859 19.6993 38.7441 19.9443C39.0236 19.4743 38.9957 19.1264 38.8139 18.59C38.1501 20.0687 37.2886 19.7144 36.0758 20.7964C36.2185 20.3016 36.2365 19.9013 36.0207 19.4445C35.9458 19.8949 35.6362 20.2378 35.3293 20.4327C34.2326 21.1292 32.8617 21.2923 33.1281 23.5423C31.7223 24.5026 31.2102 25.6408 31.3096 26.7772C31.392 27.7197 31.8341 28.5833 32.5442 29.3947C33.3004 30.2583 34.3465 31.0629 35.0883 31.8397C35.9008 32.6906 36.6647 34.186 35.7784 35.2537C35.2006 35.9495 33.5365 36.3513 30.0274 34.4565C29.8442 32.839 28.4038 31.1751 28.0984 29.6948C27.9839 29.139 28.0413 28.6597 28.1585 28.1546C28.262 27.709 28.422 27.2433 28.4135 26.6871C29.0144 27.1182 29.7036 27.2218 30.2166 27.0542C29.8082 26.9198 29.4626 26.4841 29.4716 25.9341C29.4858 25.076 30.0526 24.2046 29.5135 23.2366C29.9653 23.5155 30.4612 23.6812 31.0228 23.4687C29.7612 22.7484 30.9139 21.8202 30.3104 20.6274C30.7541 20.8157 31.3954 20.8151 31.8607 20.5877C30.3651 20.2942 31.1303 18.6401 29.8539 17.5719C30.4054 17.5921 30.8583 17.3666 31.1242 17.0087C29.7812 17.2005 29.0954 15.6373 27.9538 14.7987C26.8812 14.0106 25.5618 13.7271 24.0205 13.9786C24.001 13.7837 24.3691 13.4943 24.8177 13.2994C23.416 12.7848 21.9728 13.1688 20.7466 14.116C20.8003 13.7107 20.7223 13.3052 20.3809 12.9187C20.2077 13.7647 18.709 14.2886 18.1836 14.9794C17.9447 15.2933 17.8025 15.6381 17.8162 16.031C16.4804 16.8464 16.11 16.7923 15.7178 17.7776C15.0491 18.2575 14.2375 18.7562 13.7443 19.2359C13.7601 19.3831 13.8305 19.559 13.8681 19.7254L14.258 19.3949C14.1197 19.7043 14.1419 20.0069 14.3084 20.2543C14.6259 20.7262 15.2606 20.9808 15.6276 21.1827C15.4006 20.5914 15.4656 20.4347 15.7318 20.2851C16.3154 19.9569 17.6733 20.0714 17.7937 20.2322C17.957 20.4504 17.7529 21.4703 17.0125 21.7387C16.479 21.932 16.1233 21.7908 15.7374 21.4403" fill="#FFE500"/>
<path fill-rule="evenodd" clip-rule="evenodd" d="M37.8207 3.14986C36.2842 3.14986 34.9814 3.51485 33.91 4.24269C33.6616 4.41492 33.4373 4.61175 33.2402 4.83105C33.0332 5.05248 32.8504 5.29852 32.6947 5.57129C32.5438 5.84387 32.4243 6.13912 32.3368 6.45896C32.2443 6.77688 32.1979 7.1254 32.1979 7.50472C32.1979 8.2593 32.3732 8.89686 32.724 9.42168C33.0502 9.94669 33.4739 10.3812 33.9925 10.7259C35.0667 11.3594 36.3352 11.6711 37.7986 11.6628C38.3539 11.6544 38.8775 11.5971 39.3647 11.4884C39.8491 11.3921 40.2827 11.2999 40.6699 11.2075C40.8965 10.8795 41.0742 10.2336 41.2009 9.27212C41.1568 9.20044 41.0717 9.15104 40.9525 9.12857C40.8283 9.12043 40.7333 9.14096 40.6699 9.18804C40.4897 9.63304 40.1755 10.0513 39.7298 10.445C39.5035 10.6315 39.2308 10.7852 38.9142 10.9C38.5902 11.0333 38.2129 11.099 37.7793 11.099C36.898 11.099 36.1332 10.7751 35.4829 10.1251C34.8158 9.48522 34.47 8.55241 34.4529 7.33056C34.47 6.10037 34.8183 5.18577 35.4976 4.58501C36.1577 4.00479 36.8955 3.71361 37.7111 3.71361C39.0992 3.72175 39.9856 4.30836 40.3729 5.47501C40.4458 5.52208 40.5457 5.53836 40.6699 5.52209C40.7891 5.50562 40.867 5.46048 40.9037 5.38473C40.7849 4.49842 40.7313 3.86085 40.739 3.46719C40.5216 3.44452 40.1641 3.38505 39.6601 3.29283C39.1626 3.20468 38.5495 3.15761 37.8211 3.14928M26.7325 4.4122C26.7228 4.17043 26.746 4.02145 26.8087 3.96527C26.8537 3.92517 26.9856 3.90579 27.2016 3.90579H28.4602C28.8236 3.90579 29.117 3.93582 29.3371 4.00227C29.5639 4.07105 29.727 4.17857 29.8404 4.30991C29.9698 4.45928 30.1129 4.77932 30.2555 5.27333C30.3462 5.32061 30.4533 5.32971 30.5795 5.32061C30.6796 5.31344 30.7514 5.2898 30.7933 5.22413C30.7685 4.27291 30.7586 3.63322 30.7586 3.30504C30.474 3.32983 29.8305 3.34204 28.8286 3.34204H25.6669C25.3233 3.34204 24.9793 3.3339 24.6332 3.32983C24.2941 3.32577 23.9652 3.3215 23.6484 3.30504C23.5721 3.33797 23.5354 3.40365 23.5354 3.504C23.5354 3.61268 23.5625 3.69075 23.6214 3.73783L23.9063 3.77464C24.2327 3.79711 24.4366 3.88739 24.5225 4.04334C24.5963 4.20123 24.6332 4.55789 24.6332 5.11351V9.69193C24.6332 10.2311 24.5963 10.5798 24.5225 10.7377C24.4366 10.8853 24.2327 10.9754 23.9063 11.0062L23.4322 11.0676C23.3759 11.1106 23.3462 11.1806 23.3462 11.2768C23.3462 11.3774 23.3759 11.4531 23.4322 11.5002C24.2917 11.4756 25.0432 11.4634 25.6842 11.4634C26.3471 11.4634 27.1109 11.4756 27.9801 11.5002C28.0366 11.4531 28.0663 11.3774 28.0663 11.2768C28.0663 11.1806 28.0366 11.1106 27.9801 11.0676L27.4547 11.0062C27.1514 10.975 26.9552 10.8849 26.8618 10.7354C26.7655 10.5792 26.7219 10.2307 26.7316 9.69116V8.03225C26.7316 7.86021 26.7559 7.75095 26.8079 7.70639C26.8441 7.6752 26.9528 7.65912 27.1321 7.65912H28.366C28.7318 7.65912 28.9901 7.6969 29.1296 7.78427C29.2651 7.86913 29.3452 8.06324 29.412 8.35016L29.4808 8.6454C29.5445 8.69267 29.6377 8.70895 29.7607 8.70488C29.8834 8.70081 29.9695 8.68027 30.0139 8.6332C29.9866 8.24767 29.9743 7.82128 29.9743 7.35361C29.9743 6.87587 29.9866 6.43727 30.0139 6.03741C29.9695 5.97367 29.8836 5.94112 29.7607 5.94112C29.6379 5.94112 29.5445 5.9696 29.4808 6.02501L29.412 6.32025C29.3452 6.60717 29.2628 6.79664 29.1296 6.8842C28.9879 6.977 28.7318 7.01129 28.366 7.01129H27.1321C26.9528 7.01129 26.8448 6.99269 26.8079 6.93322C26.7563 6.89234 26.7316 6.79392 26.7316 6.63817L26.7325 4.4122ZM20.3524 6.28829C20.8411 5.30201 21.2364 4.61117 21.5386 4.21964C21.6909 3.97747 21.9535 3.83411 22.3243 3.78684L22.6951 3.72543C22.7516 3.67816 22.781 3.60435 22.781 3.5038C22.7614 3.40345 22.7221 3.33778 22.6656 3.30504C22.2579 3.32964 21.816 3.34204 21.3422 3.34204C20.8166 3.34204 20.2322 3.32964 19.5862 3.30504C19.4978 3.33778 19.4535 3.39938 19.4535 3.4916C19.4461 3.59214 19.4684 3.67002 19.5248 3.72543L19.9424 3.80932C20.1141 3.83411 20.2223 3.86472 20.2689 3.8996C20.3058 3.93253 20.3254 3.97341 20.3254 4.02068C20.3254 4.08422 20.2786 4.23397 20.1854 4.46567C19.9078 5.14625 19.532 6.00525 19.0582 7.03861L18.5279 8.19304C18.3461 8.58244 18.1962 8.88602 18.0761 9.10745C17.9777 8.91062 17.8279 8.59484 17.6292 8.15623L16.3748 5.38609C16.2027 5.00889 16.065 4.70125 15.9572 4.46567C15.8564 4.22564 15.8047 4.07996 15.8047 4.03288C15.7948 3.9242 15.9129 3.84632 16.1613 3.79711L16.5911 3.72524C16.6376 3.66169 16.6624 3.58381 16.6624 3.4916C16.6624 3.41159 16.6327 3.34805 16.5787 3.30504C15.7561 3.32964 15.0415 3.34185 14.4324 3.34185C13.7768 3.34185 13.131 3.32964 12.4949 3.30504C12.4385 3.33778 12.3991 3.39512 12.3746 3.4792C12.355 3.56754 12.377 3.64949 12.4409 3.72524L12.8363 3.80932C13.1531 3.85039 13.3765 3.9366 13.5065 4.06775C13.6319 4.1929 13.8209 4.55363 14.0762 5.15032L16.3897 10.1592C16.6082 10.6678 16.8071 11.1352 16.9889 11.5597C17.0723 11.6273 17.2001 11.6622 17.3718 11.6622C17.5905 11.6622 17.7575 11.6273 17.8729 11.5597C18.1577 10.9159 18.639 9.86823 19.3167 8.41661L20.3524 6.28829ZM7.5438 8.03322C7.3719 8.04135 7.26143 8.01462 7.21485 7.95534C7.15568 7.91426 7.1658 7.81585 7.24433 7.6599L7.5978 6.73948C7.8264 6.13873 8.02035 5.68559 8.18483 5.38008C8.31983 5.67726 8.49173 6.10793 8.70053 6.67381L9.06885 7.6723C9.14985 7.82806 9.1647 7.92647 9.11295 7.96754C9.0639 8.01055 8.9559 8.03302 8.784 8.03302L7.5438 8.03322ZM8.86005 8.68105C9.10575 8.68105 9.27517 8.68919 9.36832 8.70565C9.46665 8.73646 9.52313 8.80407 9.54293 8.90248L9.92588 9.96044C10.1077 10.4219 10.1986 10.7007 10.1986 10.797C10.1986 10.8318 10.1788 10.8708 10.1419 10.9097C10.0953 10.9508 9.9873 10.9837 9.8154 11.0062L9.3537 11.0676C9.2898 11.1271 9.2628 11.2009 9.27023 11.289C9.27023 11.3815 9.30938 11.4531 9.38318 11.5002C9.99945 11.4756 10.643 11.4634 11.3132 11.4634C12.0746 11.4634 12.8063 11.4756 13.5088 11.5002C13.5749 11.4531 13.6093 11.3731 13.6093 11.2666C13.5997 11.1703 13.5702 11.1025 13.5234 11.0676L12.9782 10.9959C12.7328 10.9549 12.5534 10.8524 12.443 10.6883C12.3719 10.5961 12.3102 10.4855 12.2537 10.3584C12.1901 10.2332 12.1115 10.0813 12.0229 9.90097L10.0863 5.07282C9.75218 4.25044 9.5364 3.69095 9.43785 3.3895C9.3942 3.22948 9.2835 3.14947 9.11115 3.14947C9.09405 3.16594 8.97435 3.26842 8.75543 3.45498C8.51985 3.64368 8.22488 3.78936 7.8714 3.88758C7.88108 4.19736 7.69455 4.7181 7.31385 5.45002L6.03203 8.44741C5.66865 9.3006 5.3739 9.9587 5.14553 10.418C5.0301 10.6474 4.90253 10.8036 4.76258 10.8876C4.62015 10.9675 4.45545 11.0147 4.27613 11.0308L3.8907 11.0678C3.8439 11.1273 3.82433 11.2011 3.83423 11.2892C3.83423 11.3816 3.86843 11.4533 3.9348 11.5004C4.5144 11.4839 5.00558 11.4717 5.40338 11.4636C6.01223 11.4717 6.56978 11.4839 7.07558 11.5004C7.14195 11.4595 7.1739 11.3857 7.1739 11.277C7.1739 11.1806 7.15185 11.1108 7.10528 11.0678L6.67283 11.0064C6.47145 10.9675 6.3414 10.9304 6.27503 10.8996C6.1965 10.875 6.15735 10.8402 6.15735 10.7972C6.14745 10.7255 6.18188 10.5779 6.2604 10.3586L6.79073 8.92728C6.82763 8.81046 6.87915 8.73665 6.94553 8.70585C6.98963 8.68938 7.09538 8.68124 7.25738 8.68124L8.86005 8.68105Z" fill="#7B003A"/>
</svg>
