<svg width="42" height="47" viewBox="0 0 42 47" fill="none" xmlns="http://www.w3.org/2000/svg">
<path d="M1 1.01305C3.0438 1.0057 5.0878 0.998533 7.1234 1.01305C7.148 1.57729 7.1234 2.14136 7.1398 2.69825C7.8756 2.7056 8.6114 2.69825 9.3472 2.7056C9.3636 2.14136 9.3554 1.57729 9.3472 1.0204C11.432 1.0057 13.5168 0.983836 15.6014 1.02775C15.5932 1.58464 15.5852 2.14136 15.6014 2.7056C16.3372 2.69825 17.073 2.7056 17.8088 2.69825C17.8006 2.13419 17.8006 1.57729 17.817 1.01305C19.9018 0.998533 21.9948 1.0057 24.0794 1.01305C24.0632 1.56995 24.0794 2.13419 24.0714 2.69825C24.848 2.69825 25.6164 2.7056 26.3932 2.6909C26.385 2.14136 26.385 1.58464 26.3932 1.0351C28.4534 0.976487 30.5382 1.0057 32.6066 1.0204C32.6066 1.58464 32.5984 2.14136 32.6148 2.69825C33.3996 2.69825 34.1844 2.7056 34.9774 2.69825C34.953 2.13419 34.961 1.57729 34.9692 1.01305C36.9804 1.0057 38.9834 1.0057 40.9946 1.01305C41.0028 4.14901 41.0028 7.28497 40.9864 10.4208C40.2916 10.4355 39.564 10.4061 38.918 10.6846C38.2232 10.963 37.7408 11.6224 37.7572 12.3112C37.7654 21.367 37.749 30.4304 37.7572 39.4865C37.4382 39.6182 37.1276 39.7795 36.7842 39.8455C36.7434 39.8673 36.6698 39.9041 36.637 39.9186C36.5144 39.9993 36.3672 40.0505 36.212 40.0652C36.1792 40.0871 36.1056 40.1238 36.0648 40.1385C35.9422 40.219 35.795 40.2776 35.6396 40.2923C35.607 40.307 35.5334 40.3436 35.4926 40.3583C35.1164 40.5268 34.7322 40.7026 34.3316 40.798C34.2908 40.8198 34.2172 40.8566 34.1844 40.8711C34.0618 40.9517 33.9146 41.003 33.7592 41.0177C33.7266 41.0397 33.653 41.0763 33.6122 41.091C33.4896 41.1715 33.3424 41.2301 33.187 41.2448C33.1544 41.2595 33.0808 41.2961 33.0398 41.3108C32.672 41.4866 32.2796 41.6477 31.879 41.7504C31.838 41.7723 31.7644 41.809 31.7318 41.8236C31.6092 41.9042 31.462 41.9555 31.3066 41.9702C31.274 41.9922 31.2004 42.0214 31.1594 42.0435C29.7778 42.6002 28.388 43.1718 26.9736 43.6554C26.9328 43.6772 26.8592 43.714 26.8264 43.7287C26.7038 43.8092 26.5566 43.8604 26.4014 43.8751C26.3686 43.8972 26.295 43.9337 26.2542 43.9484C26.1316 44.0291 25.9844 44.0877 25.829 44.1022C25.7964 44.1169 25.7228 44.1537 25.6818 44.1682C25.502 44.2709 25.3058 44.3514 25.0932 44.3881C25.0524 44.41 24.9788 44.4467 24.946 44.4612C24.8152 44.5345 24.6682 44.5932 24.521 44.6079C24.48 44.6299 24.4066 44.6665 24.3738 44.6812C24.055 44.8276 23.728 44.9742 23.3764 45.0547C23.3436 45.0694 23.2702 45.1061 23.2292 45.1207C23.0494 45.2234 22.8532 45.3038 22.6406 45.3406C22.5998 45.3624 22.5344 45.3992 22.4934 45.4137C22.3626 45.487 22.2154 45.5456 22.0684 45.5603C22.0274 45.5824 21.9538 45.6189 21.9212 45.6336C21.6024 45.7801 21.2834 45.9193 20.94 46C20.5394 45.8973 20.1634 45.7215 19.7956 45.5603C19.7546 45.5456 19.681 45.5091 19.6484 45.4944C19.493 45.4797 19.3458 45.4211 19.2232 45.3406C19.1824 45.3259 19.1088 45.2893 19.076 45.2673C18.4874 45.0914 17.907 44.8496 17.3428 44.6079C17.3102 44.5932 17.2366 44.5566 17.1956 44.5345C16.795 44.432 16.4108 44.2635 16.0348 44.0951C15.9938 44.0804 15.9204 44.0436 15.8876 44.0217C15.7322 44.0144 15.5932 43.9484 15.4624 43.8751C15.4298 43.8604 15.3562 43.8239 15.3154 43.8018C14.2852 43.4501 13.2796 43.0325 12.274 42.6296C12.2414 42.6075 12.1678 42.571 12.1268 42.5563C11.9144 42.5197 11.7182 42.4317 11.5382 42.3365C11.4974 42.3218 11.4238 42.2853 11.391 42.2632C11.2358 42.2485 11.0968 42.1899 10.966 42.1168C10.925 42.1021 10.8596 42.0654 10.8188 42.0435C10.4182 41.941 10.034 41.7649 9.6578 41.6038C9.617 41.5891 9.5434 41.5525 9.5108 41.5378C9.3554 41.516 9.2082 41.4574 9.0856 41.3841C9.0528 41.3694 8.9794 41.3328 8.9384 41.3108C7.9084 40.9664 6.9028 40.5341 5.8972 40.1385C5.8562 40.1238 5.7908 40.0871 5.75 40.0652C5.3494 39.9554 4.9652 39.794 4.589 39.6256C4.5564 39.6109 4.4828 39.5743 4.4418 39.5522C4.3846 39.5377 4.2702 39.501 4.213 39.4791C4.262 36.1161 4.2212 32.7457 4.2294 29.3826C4.2212 28.6646 4.262 27.9465 4.213 27.2359C4.1884 22.3122 4.1966 17.3813 4.2048 12.4576C4.303 11.6663 3.7224 10.9409 2.954 10.6039C2.9212 10.5892 2.8394 10.56 2.8068 10.538C2.21 10.4134 1.605 10.4281 1.0082 10.4208C1.0082 7.28497 1.0082 4.14901 1 1.01305ZM1.7522 1.63591C1.7684 4.33219 1.7684 7.03583 1.7522 9.73212C2.447 9.79808 3.1746 9.88591 3.747 10.2815C4.4174 10.7212 4.9814 11.3953 5.006 12.1646C5.0142 21.1252 5.0224 30.0861 5.0224 39.0394C10.3282 41.1055 15.626 43.1865 20.94 45.2087C26.3114 43.1865 31.6418 41.0543 37.0132 39.0247V11.9448C37.1848 10.5747 38.7708 9.71007 40.218 9.74664C40.2098 7.04318 40.218 4.33954 40.218 1.63591C38.7054 1.64325 37.193 1.64325 35.6806 1.63591C35.6806 2.21467 35.6888 2.79361 35.6724 3.37237C34.3888 3.37237 33.1052 3.38707 31.8216 3.36502C31.8216 2.78626 31.8462 2.20732 31.8136 1.62856C30.252 1.64325 28.6986 1.64325 27.1454 1.62856C27.1044 2.20732 27.1208 2.78626 27.129 3.36502C25.8618 3.38707 24.5864 3.37972 23.311 3.36502C23.2946 2.78626 23.3192 2.20732 23.2946 1.63591C21.7332 1.64325 20.1634 1.63591 18.5938 1.63591C18.6018 2.21467 18.6018 2.79361 18.5938 3.37237C17.3346 3.37972 16.0756 3.38707 14.8166 3.36502C14.8084 2.78626 14.833 2.20732 14.792 1.63591C13.2388 1.63591 11.6854 1.64325 10.132 1.62856C10.0994 2.20732 10.1158 2.78626 10.1238 3.35767C8.8484 3.39442 7.5732 3.37237 6.2978 3.37237C6.2814 2.79361 6.2978 2.21467 6.2896 1.63591C4.777 1.64325 3.2646 1.63591 1.7522 1.63591Z" fill="#DE2C37"/>
<path d="M24.0794 1.01305C24.1122 1.56995 24.0876 2.12684 24.0958 2.6909C24.848 2.69825 25.6084 2.7056 26.3604 2.68356C26.385 2.13419 26.3196 1.5773 26.3932 1.0351C26.385 1.58464 26.385 2.14136 26.3932 2.6909C25.6164 2.7056 24.848 2.69825 24.0714 2.69825C24.0794 2.13419 24.0632 1.56995 24.0794 1.01305Z" fill="#FEFEFE"/>
<path d="M1.7522 1.63591C3.2646 1.63591 4.777 1.64325 6.2896 1.63591C6.2978 2.21467 6.2814 2.79361 6.2978 3.37237C7.5732 3.37237 8.8484 3.39442 10.1238 3.35767C10.1158 2.78626 10.0994 2.20732 10.132 1.62856C11.6854 1.64325 13.2388 1.63591 14.792 1.63591C14.833 2.20732 14.8084 2.78626 14.8166 3.36502C16.0756 3.38707 17.3346 3.37972 18.5938 3.37237C18.6018 2.79361 18.6018 2.21467 18.5938 1.63591C20.1634 1.63591 21.7332 1.64325 23.2946 1.63591C23.3192 2.20732 23.2946 2.78626 23.311 3.36502C24.5864 3.37972 25.8618 3.38707 27.129 3.36502C27.1208 2.78626 27.1044 2.20732 27.1454 1.62856C28.6986 1.64325 30.252 1.64325 31.8136 1.62856C31.8462 2.20732 31.8216 2.78626 31.8216 3.36502C33.1052 3.38707 34.3888 3.37237 35.6724 3.37237C35.6888 2.79361 35.6806 2.21467 35.6806 1.63591C37.193 1.64325 38.7054 1.64325 40.218 1.63591C40.218 4.33954 40.2098 7.04318 40.218 9.74664C38.7708 9.71007 37.1848 10.5747 37.0132 11.9448V39.0247C31.6418 41.0543 26.3114 43.1865 20.94 45.2087C15.626 43.1865 10.3282 41.1055 5.0224 39.0394C5.0224 30.0861 5.0142 21.1252 5.006 12.1646C4.9814 11.3953 4.4174 10.7212 3.747 10.2815C3.1746 9.88591 2.447 9.79808 1.7522 9.73212C1.7684 7.03583 1.7684 4.33219 1.7522 1.63591ZM2.2346 2.06823C2.2182 4.50068 2.2264 6.93313 2.2264 9.35841C3.7306 9.44623 5.2922 10.4134 5.5456 11.7982C5.5538 20.737 5.5456 29.6757 5.5538 38.6145C5.5374 38.7243 5.5782 38.8342 5.709 38.8563C10.7942 40.8345 15.855 42.842 20.94 44.8131C26.1234 42.8128 31.2902 40.7759 36.4654 38.7611C36.498 29.8956 36.4654 21.0301 36.4818 12.1572C36.539 10.6405 38.0842 9.43171 39.7356 9.35106C39.7602 6.92596 39.752 4.50068 39.7356 2.06823C38.542 2.08275 37.3566 2.07558 36.1628 2.06823C36.1628 2.64699 36.1956 3.21841 36.1466 3.79C34.5442 3.7753 32.9418 3.78265 31.3394 3.79C31.3312 3.21841 31.3556 2.64699 31.323 2.06823C30.0966 2.07558 28.8622 2.07558 27.6358 2.06823C27.6032 2.63964 27.6194 3.21841 27.6194 3.79C26.0252 3.78265 24.431 3.7753 22.8368 3.79C22.8122 3.21841 22.845 2.64699 22.8122 2.06823C21.5696 2.07558 20.3188 2.07558 19.076 2.06823C19.0598 2.64699 19.1006 3.21841 19.0516 3.79C17.4736 3.78265 15.904 3.7753 14.326 3.79C14.277 3.21841 14.318 2.64699 14.3016 2.06823C13.0588 2.07558 11.8162 2.07558 10.5736 2.06823C10.5572 2.64699 10.598 3.21841 10.549 3.79C8.9794 3.7753 7.4014 3.7753 5.8236 3.79C5.7826 3.21841 5.8154 2.64699 5.799 2.06823C4.6136 2.07558 3.42 2.07558 2.2346 2.06823Z" fill="#FEFEFE"/>
<path d="M2.2346 2.06823C3.42 2.07558 4.6136 2.07558 5.799 2.06823C5.8154 2.64699 5.7826 3.21841 5.8236 3.79C7.4014 3.7753 8.9794 3.7753 10.549 3.79C10.598 3.21841 10.5572 2.64699 10.5736 2.06823C11.8162 2.07558 13.0588 2.07558 14.3016 2.06823C14.318 2.64699 14.277 3.21841 14.326 3.79C15.904 3.7753 17.4736 3.78265 19.0516 3.79C19.1006 3.21841 19.0598 2.64699 19.076 2.06823C20.3188 2.07558 21.5696 2.07558 22.8122 2.06823C22.845 2.64699 22.8122 3.21841 22.8368 3.79C24.431 3.7753 26.0252 3.78265 27.6194 3.79C27.6194 3.21841 27.6032 2.63964 27.6358 2.06823C28.8622 2.07558 30.0966 2.07558 31.323 2.06823C31.3556 2.64699 31.3312 3.21841 31.3394 3.79C32.9418 3.78265 34.5442 3.7753 36.1466 3.79C36.1956 3.21841 36.1628 2.64699 36.1628 2.06823C37.3566 2.07558 38.542 2.08275 39.7356 2.06823C39.752 4.50068 39.7602 6.92596 39.7356 9.35106C38.0842 9.43171 36.539 10.6405 36.4818 12.1572C36.4654 21.0301 36.498 29.8956 36.4654 38.7611C31.2902 40.7759 26.1234 42.8128 20.94 44.8131C15.855 42.842 10.7942 40.8345 5.709 38.8563C5.5782 38.8342 5.5374 38.7243 5.5538 38.6145C5.5456 29.6757 5.5538 20.737 5.5456 11.7982C5.2922 10.4134 3.7306 9.44623 2.2264 9.35841C2.2264 6.93313 2.2182 4.50068 2.2346 2.06823ZM5.006 4.76452C5.0142 6.20058 5.006 7.63664 5.0142 9.06535C15.6832 9.058 26.3522 9.06535 37.0214 9.06535C37.005 7.63664 37.005 6.20793 37.0214 4.77187C36.7842 4.76452 36.5472 4.75717 36.31 4.75717C25.878 4.76452 15.438 4.74982 5.006 4.76452ZM6.9764 9.98108C6.9844 16.4801 6.9844 22.9716 6.9764 29.4633C16.2964 29.4925 25.6164 29.478 34.9448 29.4706C34.953 22.9716 34.961 16.4727 34.9366 9.98108C25.6164 9.98843 16.2964 9.98108 6.9764 9.98108ZM6.9272 30.0275C6.9272 31.3535 6.9028 32.6944 6.9436 34.0206V33.962C16.2882 33.9912 25.6328 33.962 34.9774 33.9767C34.9774 33.5956 34.9692 33.2072 34.9938 32.819C34.9774 31.8884 35.0266 30.9506 34.961 30.0202V30.0714C25.6164 30.0567 16.28 30.0494 6.9436 30.0788L6.9272 30.0275ZM6.9764 34.8779C6.9844 36.1161 6.9844 37.3616 6.9764 38.5998C16.2964 38.6145 25.6164 38.5998 34.9366 38.6071C34.961 37.3616 34.953 36.1161 34.9366 34.8705C25.6164 34.8632 16.2964 34.8558 6.9764 34.8779ZM10.0584 39.523C13.5902 40.9152 17.1712 42.2193 20.7194 43.5821C20.9482 43.714 21.1854 43.5674 21.398 43.4942C24.9216 42.1607 28.478 40.8858 31.9852 39.523C24.6762 39.5083 17.3674 39.5083 10.0584 39.523Z" fill="#DE2C37"/>
<path d="M5.006 4.76452C15.438 4.74982 25.878 4.76452 36.31 4.75717C36.5472 4.75717 36.7842 4.76452 37.0214 4.77187C37.005 6.20793 37.005 7.63664 37.0214 9.06535C26.3522 9.06535 15.6832 9.058 5.0142 9.06535C5.006 7.63664 5.0142 6.20058 5.006 4.76452ZM5.5128 5.21136C5.521 6.35436 5.521 7.49737 5.5048 8.64038C15.8386 8.66242 26.1642 8.64772 36.49 8.64772C36.5062 7.49737 36.5062 6.34702 36.49 5.19666C26.3768 5.18214 16.2556 5.19666 6.1424 5.18949C5.9298 5.18949 5.7172 5.19666 5.5128 5.21136Z" fill="#FEFEFE"/>
<path d="M5.5128 5.21136C5.7172 5.19666 5.9298 5.18949 6.1424 5.18949C16.2556 5.19666 26.3768 5.18214 36.49 5.19666C36.5062 6.34702 36.5062 7.49737 36.49 8.64772C26.1642 8.64772 15.8386 8.66242 5.5048 8.64038C5.521 7.49737 5.521 6.35436 5.5128 5.21136ZM10.3774 6.2151C10.0994 6.39828 10.132 6.78669 10.3692 6.98457C10.6308 7.20432 11.0232 7.20432 11.3094 7.3875C11.4156 7.46081 11.3176 7.60724 11.203 7.62194C10.8596 7.70977 10.5244 7.54128 10.2302 7.40936C10.222 7.55598 10.222 7.7026 10.2138 7.84904C10.6634 8.01017 11.2112 8.12023 11.6526 7.87108C11.9716 7.72447 12.0206 7.27027 11.759 7.0577C11.4564 6.80139 10.9824 6.8159 10.6962 6.53755C11.0478 6.3031 11.481 6.46424 11.8326 6.58881V6.17853C11.3748 6.03191 10.7942 5.91469 10.3774 6.2151ZM17.5146 6.38376C17.114 6.70603 17.0812 7.32154 17.4736 7.65116C17.9806 8.12023 18.8226 8.09818 19.444 7.82699V7.4022C19.0352 7.54863 18.5446 7.71712 18.1278 7.50472C17.7844 7.35075 17.6862 6.88921 17.9888 6.66212C18.373 6.34702 18.978 6.43502 19.395 6.65477C19.403 6.49363 19.403 6.33232 19.3868 6.17118C18.7736 5.96613 18.005 5.95144 17.5146 6.38376ZM26.8592 6.04661C26.2052 6.11992 25.6164 6.71338 25.8618 7.32154C26.2542 8.28871 28.1182 8.23745 28.4206 7.22636C28.6088 6.45689 27.6276 5.89283 26.8592 6.04661ZM6.9764 6.07601C6.9844 6.72073 6.9844 7.3581 6.9764 8.003C7.1888 8.01017 7.3932 8.01017 7.5976 8.003V6.07601C7.3932 6.06866 7.1888 6.06866 6.9764 6.07601ZM8.0964 6.07601C8.0882 6.71338 8.08 7.35075 8.0964 7.98831H8.685C8.7014 7.72447 8.7014 7.46798 8.7014 7.20432C9.0448 7.21166 9.4616 7.27762 9.7152 7.01379C10.0502 6.73543 9.854 6.17118 9.4044 6.09788C8.9712 6.03192 8.5296 6.07601 8.0964 6.07601ZM12.037 6.08336C12.3722 6.69133 12.6664 7.31419 13.0016 7.92234C13.0426 8.05426 13.2878 8.05426 13.345 7.92969C13.574 7.56333 13.7456 7.18227 13.9908 6.8306C14.2688 7.21166 14.457 7.63664 14.7104 8.02487C14.7758 8.01752 14.9066 8.003 14.972 7.99565C15.2744 7.35075 15.626 6.72073 15.9448 6.08336C15.7404 6.08336 15.5198 6.02475 15.3236 6.10522C15.1272 6.41298 14.9964 6.75729 14.8084 7.06505C14.5878 6.74994 14.4242 6.40563 14.2362 6.06866C14.0726 6.06866 13.9092 6.06866 13.7456 6.07601C13.5658 6.40563 13.394 6.74994 13.1816 7.06505C12.9854 6.74994 12.8544 6.41298 12.6582 6.09788C12.462 6.03192 12.2414 6.07601 12.037 6.08336ZM16.1982 6.06866V8.01017C16.4108 8.01752 16.6234 8.01017 16.8278 7.99565C16.8196 7.3581 16.8196 6.72073 16.8278 6.08336C16.6234 6.06866 16.4108 6.06866 16.1982 6.06866ZM19.869 6.06866C19.861 6.71338 19.8528 7.35075 19.869 7.98831C20.0654 7.99565 20.2534 7.99565 20.4414 7.99565C20.4496 7.73181 20.4578 7.46798 20.466 7.20432C20.8338 7.21166 21.2018 7.21166 21.5696 7.20432C21.5614 7.46798 21.5696 7.73181 21.5778 7.98831C21.7658 7.98831 21.962 7.98831 22.15 7.98096C22.15 7.34358 22.1418 6.71338 22.15 6.07601C21.962 6.06866 21.7658 6.06866 21.5778 6.06866C21.5696 6.3178 21.5696 6.56694 21.5778 6.8159C21.2018 6.8453 20.8256 6.83795 20.4578 6.82325C20.4578 6.57411 20.4578 6.3178 20.4496 6.06866H19.869ZM23.409 6.08336C23.409 6.20058 23.4172 6.3178 23.4172 6.43502C23.687 6.43502 23.9568 6.43502 24.2266 6.44237C24.243 6.95517 24.2348 7.46798 24.2266 7.98096C24.431 7.98831 24.6354 7.98096 24.8398 7.98096C24.8234 7.46798 24.8234 6.95517 24.8398 6.44237C25.1096 6.43502 25.3876 6.43502 25.6574 6.42767V6.09053C24.9134 6.04661 24.1612 6.06131 23.409 6.08336ZM28.5188 6.07601C28.8212 6.73543 29.1728 7.3728 29.508 8.01752C29.5734 8.01017 29.7042 8.003 29.7696 8.003C29.9904 7.5999 30.2112 7.19697 30.4482 6.80856C30.7098 7.19697 30.906 7.61459 31.1432 8.01017C31.2086 8.01017 31.3394 8.003 31.4048 8.003C31.7482 7.36545 32.0834 6.72808 32.4022 6.08336C32.1896 6.08336 31.9606 6.0174 31.7726 6.11257C31.5928 6.42767 31.4702 6.76464 31.2576 7.06505C31.0532 6.75729 30.9142 6.42032 30.718 6.11257C30.5464 6.03926 30.2274 6.0027 30.1458 6.20793C29.974 6.49363 29.8514 6.80139 29.6306 7.06505C29.459 6.73543 29.2954 6.39828 29.1156 6.06866C28.9194 6.06866 28.7232 6.06866 28.5188 6.07601ZM32.6474 6.08336C32.6638 6.71338 32.6556 7.34358 32.6556 7.98096C32.8436 7.98096 33.0316 7.98831 33.2198 7.99565C33.236 7.5999 33.236 7.21166 33.2278 6.82325C33.6204 7.16757 33.9882 7.53394 34.3724 7.8856C34.5196 8.04692 34.7812 7.97361 34.9774 7.98096C34.961 7.34358 34.961 6.71338 34.9774 6.08336C34.7894 6.07601 34.6014 6.06866 34.4052 6.06866C34.397 6.43502 34.397 6.80856 34.4052 7.17492C34.0372 6.85265 33.6858 6.52285 33.3342 6.19323C33.1706 5.99535 32.8764 6.08336 32.6474 6.08336Z" fill="#3A64A3"/>
<path d="M10.3774 6.2151C10.7942 5.91469 11.3748 6.03191 11.8326 6.17853V6.58881C11.481 6.46424 11.0478 6.3031 10.6962 6.53755C10.9824 6.8159 11.4564 6.80139 11.759 7.0577C12.0206 7.27027 11.9716 7.72447 11.6526 7.87108C11.2112 8.12023 10.6634 8.01017 10.2138 7.84904C10.222 7.7026 10.222 7.55598 10.2302 7.40936C10.5244 7.54128 10.8596 7.70977 11.203 7.62194C11.3176 7.60724 11.4156 7.46081 11.3094 7.3875C11.0232 7.20432 10.6308 7.20432 10.3692 6.98457C10.132 6.78669 10.0994 6.39828 10.3774 6.2151Z" fill="#FEFEFE"/>
<path d="M17.5146 6.38376C18.005 5.95144 18.7736 5.96613 19.3868 6.17118C19.403 6.33232 19.403 6.49363 19.395 6.65477C18.978 6.43502 18.373 6.34702 17.9888 6.66212C17.6862 6.88921 17.7844 7.35075 18.1278 7.50472C18.5446 7.71712 19.0352 7.54863 19.444 7.4022V7.82699C18.8226 8.09818 17.9806 8.12023 17.4736 7.65116C17.0812 7.32154 17.114 6.70603 17.5146 6.38376Z" fill="#FEFEFE"/>
<path d="M26.8592 6.04661C27.6276 5.89283 28.6088 6.45689 28.4206 7.22636C28.1182 8.23745 26.2542 8.28871 25.8618 7.32154C25.6164 6.71338 26.2052 6.11992 26.8592 6.04661ZM26.9328 6.47894C26.4912 6.5155 26.2868 7.00643 26.4994 7.32889C26.7038 7.63664 27.1944 7.6879 27.5214 7.51942C27.8566 7.35075 27.9384 6.88921 27.6686 6.64742C27.4806 6.47159 27.1862 6.44237 26.9328 6.47894Z" fill="#FEFEFE"/>
<path d="M6.9764 6.07601C7.1888 6.06866 7.3932 6.06866 7.5976 6.07601V8.003C7.3932 8.01017 7.1888 8.01017 6.9764 8.003C6.9844 7.3581 6.9844 6.72073 6.9764 6.07601Z" fill="#FEFEFE"/>
<path d="M8.0964 6.07601C8.5296 6.07601 8.9712 6.03192 9.4044 6.09788C9.854 6.17118 10.0502 6.73543 9.7152 7.01379C9.4616 7.27762 9.0448 7.21166 8.7014 7.20432C8.7014 7.46798 8.7014 7.72447 8.685 7.98831H8.0964C8.08 7.35075 8.0882 6.71338 8.0964 6.07601ZM8.6932 6.43502C8.6932 6.58146 8.7014 6.72808 8.7014 6.88187C8.9794 6.88187 9.3554 6.85265 9.29 6.5155C9.0938 6.44237 8.8976 6.42033 8.6932 6.43502Z" fill="#FEFEFE"/>
<path d="M12.037 6.08336C12.2414 6.07601 12.462 6.03192 12.6582 6.09788C12.8544 6.41298 12.9854 6.74994 13.1816 7.06505C13.394 6.74994 13.5658 6.40563 13.7456 6.07601C13.9092 6.06866 14.0726 6.06866 14.2362 6.06866C14.4242 6.40563 14.5878 6.74994 14.8084 7.06505C14.9964 6.75729 15.1272 6.41298 15.3236 6.10522C15.5198 6.02475 15.7404 6.08336 15.9448 6.08336C15.626 6.72073 15.2744 7.35075 14.972 7.99565C14.9066 8.003 14.7758 8.01752 14.7104 8.02487C14.457 7.63664 14.2688 7.21166 13.9908 6.8306C13.7456 7.18227 13.574 7.56333 13.345 7.92969C13.2878 8.05426 13.0426 8.05426 13.0016 7.92234C12.6664 7.31419 12.3722 6.69133 12.037 6.08336Z" fill="#FEFEFE"/>
<path d="M16.1982 6.06866C16.4108 6.06866 16.6234 6.06866 16.8278 6.08336C16.8196 6.72073 16.8196 7.3581 16.8278 7.99565C16.6234 8.01017 16.4108 8.01752 16.1982 8.01017V6.06866Z" fill="#FEFEFE"/>
<path d="M19.869 6.06866H20.4496C20.4578 6.3178 20.4578 6.57411 20.4578 6.82325C20.8256 6.83795 21.2018 6.8453 21.5778 6.8159C21.5696 6.56694 21.5696 6.3178 21.5778 6.06866C21.7658 6.06866 21.962 6.06866 22.15 6.07601C22.1418 6.71338 22.15 7.34358 22.15 7.98096C21.962 7.98831 21.7658 7.98831 21.5778 7.98831C21.5696 7.73181 21.5614 7.46798 21.5696 7.20432C21.2018 7.21166 20.8338 7.21166 20.466 7.20432C20.4578 7.46798 20.4496 7.73181 20.4414 7.99565C20.2534 7.99565 20.0654 7.99565 19.869 7.98831C19.8528 7.35075 19.861 6.71338 19.869 6.06866Z" fill="#FEFEFE"/>
<path d="M23.409 6.08336C24.1612 6.06131 24.9134 6.04661 25.6574 6.09053V6.42767C25.3876 6.43502 25.1096 6.43502 24.8398 6.44237C24.8234 6.95517 24.8234 7.46798 24.8398 7.98096C24.6354 7.98096 24.431 7.98831 24.2266 7.98096C24.2348 7.46798 24.243 6.95517 24.2266 6.44237C23.9568 6.43502 23.687 6.43502 23.4172 6.43502C23.4172 6.3178 23.409 6.20058 23.409 6.08336Z" fill="#FEFEFE"/>
<path d="M28.5188 6.07601C28.7232 6.06866 28.9194 6.06866 29.1156 6.06866C29.2954 6.39828 29.459 6.73543 29.6306 7.06505C29.8514 6.80139 29.974 6.49363 30.1458 6.20793C30.2274 6.0027 30.5464 6.03926 30.718 6.11257C30.9142 6.42032 31.0532 6.75729 31.2576 7.06505C31.4702 6.76464 31.5928 6.42767 31.7726 6.11257C31.9606 6.0174 32.1896 6.08336 32.4022 6.08336C32.0834 6.72808 31.7482 7.36545 31.4048 8.003C31.3394 8.003 31.2086 8.01017 31.1432 8.01017C30.906 7.61459 30.7098 7.19697 30.4482 6.80856C30.2112 7.19697 29.9904 7.5999 29.7696 8.003C29.7042 8.003 29.5734 8.01017 29.508 8.01752C29.1728 7.3728 28.8212 6.73543 28.5188 6.07601Z" fill="#FEFEFE"/>
<path d="M32.6474 6.08336C32.8764 6.08336 33.1706 5.99535 33.3342 6.19323C33.6858 6.52285 34.0372 6.85265 34.4052 7.17492C34.397 6.80856 34.397 6.43502 34.4052 6.06866C34.6014 6.06866 34.7894 6.07601 34.9774 6.08336C34.961 6.71338 34.961 7.34358 34.9774 7.98096C34.7812 7.97361 34.5196 8.04692 34.3724 7.8856C33.9882 7.53394 33.6204 7.16757 33.2278 6.82325C33.236 7.21166 33.236 7.5999 33.2198 7.99565C33.0316 7.98831 32.8436 7.98096 32.6556 7.98096C32.6556 7.34358 32.6638 6.71338 32.6474 6.08336Z" fill="#FEFEFE"/>
<path d="M8.6932 6.43502C8.8976 6.42033 9.0938 6.44237 9.29 6.5155C9.3554 6.85265 8.9794 6.88187 8.7014 6.88187C8.7014 6.72808 8.6932 6.58146 8.6932 6.43502Z" fill="#3A64A3"/>
<path d="M26.9328 6.47894C27.1862 6.44237 27.4806 6.47159 27.6686 6.64742C27.9384 6.88921 27.8566 7.35075 27.5214 7.51942C27.1944 7.6879 26.7038 7.63664 26.4994 7.32889C26.2868 7.00643 26.4912 6.5155 26.9328 6.47894Z" fill="#3A64A3"/>
<path d="M6.9764 9.98108C16.2964 9.98108 25.6164 9.98843 34.9366 9.98108C34.961 16.4727 34.953 22.9716 34.9448 29.4706C25.6164 29.478 16.2964 29.4925 6.9764 29.4633C6.9844 22.9716 6.9844 16.4801 6.9764 9.98108ZM7.6058 10.4794C7.5894 16.4141 7.6058 22.3489 7.5976 28.2837C7.5894 28.5181 7.5976 28.7599 7.6222 28.9944C16.5334 28.987 25.4448 28.987 34.348 28.9944C34.3642 28.8332 34.3806 28.6646 34.3806 28.5034C34.3642 22.4953 34.3888 16.4874 34.3642 10.4794H7.6058Z" fill="#FEFEFE"/>
<path d="M7.6058 10.4794H34.3642C34.3888 16.4874 34.3642 22.4953 34.3806 28.5034C34.3806 28.6646 34.3642 28.8332 34.348 28.9944C25.4448 28.987 16.5334 28.987 7.6222 28.9944C7.5976 28.7599 7.5894 28.5181 7.5976 28.2837C7.6058 22.3489 7.5894 16.4141 7.6058 10.4794ZM11.5872 10.8457C11.5628 11.1096 11.5954 11.4171 11.8816 11.5564C12.2168 11.3879 12.1106 11.0436 12.037 10.7724C11.8898 10.8018 11.7018 10.7432 11.5872 10.8457ZM13.0262 10.7651C12.9772 11.0581 12.928 11.3953 13.2306 11.5932C13.5412 11.4026 13.533 11.0802 13.4922 10.7798C13.3368 10.7798 13.1816 10.7724 13.0262 10.7651ZM10.1402 11.0581C10.1158 11.4612 10.5 11.6736 10.6472 12.0034C10.3446 12.1499 10.0258 12.3331 9.6824 12.3698C9.3472 11.9593 8.7912 11.8202 8.2598 11.7322C8.407 12.0839 8.5296 12.4429 8.7258 12.7801C8.8484 13.0364 8.5624 13.249 8.5296 13.4908C8.358 14.4067 8.6442 15.3077 8.734 16.2163C8.8076 17.0076 8.8566 17.8136 9.1264 18.5756C9.4862 18.9272 10.0584 19.081 10.5818 19.0665C10.6716 18.8027 10.4836 18.4363 10.7452 18.2605C11.1294 18.2458 11.0314 18.7148 11.1212 18.9419C11.3502 18.9052 11.5792 18.788 11.669 18.5829C11.7344 18.3411 11.3256 18.158 11.4974 17.9162C12.2004 17.4912 12.1514 16.5387 12.92 16.165C13.0752 16.6633 13.2796 17.1542 13.5412 17.6158C13.9418 18.4216 13.3286 19.2497 13.4514 20.0776C13.5658 21.0593 14.5304 21.7702 15.4952 22.0998C15.716 22.7884 16.2964 23.3014 16.648 23.9314C16.8606 24.2833 16.836 24.7154 17.1222 25.0305C17.441 25.4116 17.866 25.7412 18.005 26.2248C18.3648 27.0453 18.0214 27.9392 17.4982 28.6354C17.9314 28.6866 18.373 28.6793 18.8144 28.6719C19.117 28.6572 19.444 28.5255 19.5094 28.2396C19.5666 27.9465 19.8854 27.7928 20.008 27.5363C20.0816 26.8182 19.403 26.3128 19.0434 25.7338C18.7 25.4042 18.9616 24.9206 18.7164 24.5616C18.144 23.8289 18.749 22.9203 18.4956 22.1145C19.542 22.4514 20.703 22.6785 21.8066 22.3855C23.0902 22.1071 24.243 21.5137 25.4938 21.1473C25.4366 20.8175 24.7418 20.9494 24.7498 20.5757C25.1504 20.6271 25.5348 20.7956 25.829 21.0448C26.385 21.5137 26.9982 21.9239 27.6768 22.239C28.0854 22.4367 28.576 22.5174 28.9276 22.8105C29.3036 23.1035 29.7206 23.3453 30.1702 23.5285C30.718 23.7703 30.6934 24.415 30.53 24.8694C30.2848 25.4994 30.1948 26.1735 29.9086 26.7964C29.6798 27.2798 29.0094 27.4777 28.854 27.9906C29.4754 28.2396 30.2274 28.1883 30.857 28.0125C30.906 27.5875 31.274 27.3018 31.7154 27.1699C31.7726 26.6644 31.4946 26.1735 31.6092 25.6752C31.8462 24.6423 32.3286 23.6677 32.6148 22.642C31.7154 22.2317 30.5382 21.7187 30.5626 20.6637C29.8268 20.6343 29.0094 20.5685 28.4452 20.0923C27.9056 19.6892 27.8566 18.8321 28.3962 18.4071C29.3118 17.5718 30.6198 17.2714 31.7236 16.6851C31.5274 16.3555 31.1104 16.1576 30.996 15.7841C31.3884 15.6448 31.9198 15.5568 32.2304 15.894C32.533 16.1503 32.304 16.5608 32.018 16.7438C30.9306 17.4179 29.5244 17.6305 28.5842 18.5023C28.1836 18.8539 28.0692 19.5281 28.5024 19.8944C29.1074 20.4366 30.0394 20.4879 30.8488 20.4585C30.6036 20.0263 30.53 19.4915 30.857 19.0739C31.6254 18.092 33.048 17.7183 33.7266 16.6633C34.0128 16.2969 33.9228 15.74 33.514 15.4764C32.8272 14.9928 31.8708 15.022 31.0778 15.2564C30.8162 15.3444 30.5054 15.5056 30.2356 15.3371C29.4836 14.9048 28.6332 14.5605 27.7258 14.5531C25.551 14.4871 23.6054 15.6375 21.4306 15.5862C20.5232 15.5936 19.4276 15.381 18.9616 14.597C18.651 14.1355 17.997 13.9302 17.7434 13.4395C17.3592 13.454 17.0894 13.1464 16.795 12.9706C17.0648 12.6921 17.4492 12.5089 17.5228 12.106C17.3838 12.0547 17.253 12.0034 17.114 11.9593C16.8932 12.2158 16.697 12.5162 16.885 12.846C16.4436 12.9778 16.0838 12.6042 15.716 12.4429C15.855 12.0839 16.329 11.9301 16.3618 11.5125C16.231 11.4612 16.092 11.41 15.9612 11.3659C15.765 11.6003 15.6014 11.8642 15.7486 12.1572C15.716 12.2379 15.6588 12.3112 15.6096 12.3843C15.2172 12.3184 14.8576 12.1793 14.4978 12.0253C14.604 11.681 15.0374 11.4686 14.923 11.051C14.416 10.8604 14.1708 11.5125 14.4732 11.8056C14.4488 11.8715 14.416 11.9448 14.3834 12.0108C13.9908 11.9301 13.4514 12.0108 13.2142 11.6589C13.1816 11.6957 13.1162 11.7762 13.0834 11.8203C12.7156 11.7909 12.225 11.9522 11.9552 11.6589C11.7998 11.974 11.3176 11.8936 11.0068 11.9814C10.8106 12.0694 10.6062 11.8642 10.7044 11.6957C10.8434 11.4686 10.688 11.2268 10.6144 10.9995C10.459 11.0216 10.3038 11.0363 10.1402 11.0581ZM7.8348 12.2452C7.8756 12.6116 8.1372 12.9559 8.497 13.1244C8.6442 12.736 8.3008 12.2671 7.8348 12.2452ZM18.1686 12.5383C17.9396 12.7507 17.678 13.0145 17.817 13.3368C18.1768 13.2855 18.3976 13.0364 18.5528 12.7654C18.4302 12.6921 18.2994 12.6116 18.1686 12.5383ZM30.9142 20.1142C31.4292 19.6379 31.8626 19.0371 31.9852 18.3703C31.3148 18.7001 30.5382 19.3669 30.9142 20.1142ZM8.8566 20.6051C8.7096 20.7444 8.775 20.9494 8.8322 21.1107C9.1102 21.9532 9.6824 22.6932 9.9358 23.5505C10.0994 24.1072 9.568 24.6715 9.895 25.2063C10.3936 25.0526 10.8596 24.8181 11.3012 24.5616C11.383 24.2612 11.4484 23.9608 11.71 23.7337C11.1294 23.1695 10.8106 22.3708 10.8678 21.6088C11.4646 21.6382 11.9716 21.9605 12.5194 22.1292C13.394 22.4367 14.3834 22.5687 15.299 22.3195C14.4406 21.8506 13.533 21.2866 13.2552 20.3707C12.2496 20.2534 11.2358 20.1948 10.2302 20.2022C9.7478 20.2167 9.2 20.2608 8.8566 20.6051ZM25.1178 21.5502C25.3058 22.3122 25.7882 22.9716 26.197 23.6457C26.3522 23.8948 26.3932 24.2465 26.1888 24.4883C25.731 25.0526 25.1832 25.5507 24.758 26.1441C24.4066 26.6424 23.6952 26.8403 23.3846 27.3825C23.916 27.4337 24.4474 27.4264 24.9706 27.4484C25.3548 27.4777 25.3876 27.0161 25.6818 26.8915C25.87 26.8256 26.0744 26.8035 26.2706 26.7523C26.3604 25.6313 27.2516 24.7595 28.1346 24.0341C28.2572 23.9242 28.5024 23.7923 28.3798 23.6091C28.159 23.3087 28.0282 22.9644 27.9056 22.6199C27.1372 22.2756 26.434 21.8214 25.7554 21.3523C25.5266 21.3817 25.3222 21.4769 25.1178 21.5502ZM11.4238 25.0305C11.154 25.2063 10.7942 25.3236 10.7044 25.646C11.0314 25.8145 11.2194 25.4847 11.4402 25.3383C11.8408 25.0379 12.3476 24.9133 12.7972 24.7009C12.2986 24.5177 11.8244 24.7961 11.4238 25.0305ZM10.639 25.2796C10.876 25.1624 11.0968 25.0158 11.2848 24.8473C11.0478 24.9498 10.7288 25.0305 10.639 25.2796ZM13.1242 24.8694C12.4048 24.9939 11.6854 25.2723 11.2112 25.7851C11.391 25.9244 11.6282 25.9609 11.8326 25.8365C12.4294 25.5433 13.1324 25.3162 13.6966 25.0744C13.5168 24.9939 13.345 24.8253 13.1242 24.8694ZM13.6394 25.3309C12.9444 25.5433 12.225 25.7559 11.6446 26.1588C11.8326 26.408 12.1842 26.43 12.4948 26.4227C12.8054 26.3199 12.9526 25.9097 13.3368 25.9683C13.6802 26.005 13.9336 25.7559 14.2526 25.712C14.179 25.4702 13.9418 25.2063 13.6394 25.3309ZM10.2546 25.983C10.7288 26.7743 11.669 27.2579 12.601 27.4997C12.8708 27.2066 12.5438 26.8842 12.4376 26.6058C12.1188 26.5325 11.62 26.6277 11.4892 26.2834C11.3666 25.9683 10.9742 25.8658 10.639 25.8511C10.5818 25.7265 10.5164 25.5947 10.459 25.4702C10.312 25.5947 10.1158 25.7924 10.2546 25.983ZM13.713 26.0783C13.7702 26.6497 13.7374 27.2212 13.6476 27.7928C13.7784 27.7781 13.9092 27.7634 14.0482 27.7488C14.228 27.1699 14.1218 26.5691 14.0644 25.983C13.95 26.0197 13.8356 26.0489 13.713 26.0783ZM14.3342 25.9977C14.2934 26.496 14.3752 26.9867 14.3588 27.485C14.6122 27.0453 14.694 26.4153 14.3342 25.9977ZM10.0176 26.1441C9.8704 26.5105 10.0094 26.8915 10.32 27.148C10.4264 27.0088 10.5 26.8403 10.5326 26.6718C10.4182 26.4592 10.222 26.2834 10.0176 26.1441ZM12.6664 26.5985C12.7646 26.855 12.879 27.0894 12.9772 27.3384C12.642 27.5875 12.503 27.9612 12.4866 28.3423C12.2904 28.4375 11.9798 28.4742 11.9878 28.7305C12.2822 28.7305 12.642 28.8112 12.8872 28.6133C13.5004 27.9247 13.623 26.9941 13.5004 26.1369C13.1162 26.0563 12.9036 26.3859 12.6664 26.5985ZM10.5898 27.3751C11.0722 27.7634 11.7344 27.91 12.3722 27.9173C12.3884 27.822 12.413 27.7268 12.4294 27.6388C11.808 27.463 11.252 27.1625 10.7126 26.8403C10.6552 27.0161 10.5326 27.1919 10.5898 27.3751ZM10.0584 27.1772C10.083 27.4777 10.2138 27.8148 10.549 27.9173C10.9006 28.0345 11.2684 28.1224 11.571 28.3203C11.8326 28.5108 12.1922 28.3423 12.3476 28.1224C11.4892 28.0564 10.639 27.7781 10.0584 27.1772ZM13.5248 27.9392C13.4268 28.1224 13.3286 28.3129 13.2552 28.5108C13.574 28.4228 13.8682 28.2324 14.0072 27.9392C13.8438 27.9392 13.6802 27.932 13.5248 27.9392ZM10.876 28.2177C10.9904 28.5694 11.4728 28.606 11.7998 28.7013C11.571 28.4522 11.1948 28.3568 10.876 28.2177Z" fill="#3A64A3"/>
<path d="M11.5872 10.8457C11.7018 10.7432 11.8898 10.8018 12.037 10.7724C12.1106 11.0436 12.2168 11.3879 11.8816 11.5564C11.5954 11.4171 11.5628 11.1096 11.5872 10.8457Z" fill="#FEFEFE"/>
<path d="M13.0262 10.7651C13.1816 10.7724 13.3368 10.7798 13.4922 10.7798C13.533 11.0802 13.5412 11.4026 13.2306 11.5932C12.928 11.3953 12.9772 11.0581 13.0262 10.7651Z" fill="#FEFEFE"/>
<path d="M10.1402 11.0581C10.3038 11.0363 10.459 11.0216 10.6144 10.9995C10.688 11.2268 10.8434 11.4686 10.7044 11.6957C10.6062 11.8642 10.8106 12.0694 11.0068 11.9814C11.3176 11.8936 11.7998 11.974 11.9552 11.6589C12.225 11.9522 12.7156 11.7909 13.0834 11.8203C13.1162 11.7762 13.1816 11.6957 13.2142 11.6589C13.4514 12.0108 13.9908 11.9301 14.3834 12.0108C14.416 11.9448 14.4488 11.8715 14.4732 11.8056C14.1708 11.5125 14.416 10.8604 14.923 11.051C15.0374 11.4686 14.604 11.681 14.4978 12.0253C14.8576 12.1793 15.2172 12.3184 15.6096 12.3843C15.6588 12.3112 15.716 12.2379 15.7486 12.1572C15.6014 11.8642 15.765 11.6003 15.9612 11.3659C16.092 11.41 16.231 11.4612 16.3618 11.5125C16.329 11.9301 15.855 12.0839 15.716 12.4429C16.0838 12.6042 16.4436 12.9778 16.885 12.846C16.697 12.5162 16.8932 12.2158 17.114 11.9593C17.253 12.0034 17.3838 12.0547 17.5228 12.106C17.4492 12.5089 17.0648 12.6921 16.795 12.9706C17.0894 13.1464 17.3592 13.454 17.7434 13.4395C17.997 13.9302 18.651 14.1355 18.9616 14.597C19.4276 15.381 20.5232 15.5936 21.4306 15.5862C23.6054 15.6375 25.551 14.4871 27.7258 14.5531C28.6332 14.5605 29.4836 14.9048 30.2356 15.3371C30.5054 15.5056 30.8162 15.3444 31.0778 15.2564C31.8708 15.022 32.8272 14.9928 33.514 15.4764C33.9228 15.74 34.0128 16.2969 33.7266 16.6633C33.048 17.7183 31.6254 18.092 30.857 19.0739C30.53 19.4915 30.6036 20.0263 30.8488 20.4585C30.0394 20.4879 29.1074 20.4366 28.5024 19.8944C28.0692 19.5281 28.1836 18.8539 28.5842 18.5023C29.5244 17.6305 30.9306 17.4179 32.018 16.7438C32.304 16.5608 32.533 16.1503 32.2304 15.894C31.9198 15.5568 31.3884 15.6448 30.996 15.7841C31.1104 16.1576 31.5274 16.3555 31.7236 16.6851C30.6198 17.2714 29.3118 17.5718 28.3962 18.4071C27.8566 18.8321 27.9056 19.6892 28.4452 20.0923C29.0094 20.5685 29.8268 20.6343 30.5626 20.6637C30.5382 21.7187 31.7154 22.2317 32.6148 22.642C32.3286 23.6677 31.8462 24.6423 31.6092 25.6752C31.4946 26.1735 31.7726 26.6644 31.7154 27.1699C31.274 27.3018 30.906 27.5875 30.857 28.0125C30.2274 28.1883 29.4754 28.2396 28.854 27.9906C29.0094 27.4777 29.6798 27.2798 29.9086 26.7964C30.1948 26.1735 30.2848 25.4994 30.53 24.8694C30.6934 24.415 30.718 23.7703 30.1702 23.5285C29.7206 23.3453 29.3036 23.1035 28.9276 22.8105C28.576 22.5174 28.0854 22.4367 27.6768 22.239C26.9982 21.9239 26.385 21.5137 25.829 21.0448C25.5348 20.7956 25.1504 20.6271 24.7498 20.5757C24.7418 20.9494 25.4366 20.8175 25.4938 21.1473C24.243 21.5137 23.0902 22.1071 21.8066 22.3855C20.703 22.6785 19.542 22.4514 18.4956 22.1145C18.749 22.9203 18.144 23.8289 18.7164 24.5616C18.9616 24.9206 18.7 25.4042 19.0434 25.7338C19.403 26.3128 20.0816 26.8182 20.008 27.5363C19.8854 27.7928 19.5666 27.9465 19.5094 28.2396C19.444 28.5255 19.117 28.6572 18.8144 28.6719C18.373 28.6793 17.9314 28.6866 17.4982 28.6354C18.0214 27.9392 18.3648 27.0453 18.005 26.2248C17.866 25.7412 17.441 25.4116 17.1222 25.0305C16.836 24.7154 16.8606 24.2833 16.648 23.9314C16.2964 23.3014 15.716 22.7884 15.4952 22.0998C14.5304 21.7702 13.5658 21.0593 13.4514 20.0776C13.3286 19.2497 13.9418 18.4216 13.5412 17.6158C13.2796 17.1542 13.0752 16.6633 12.92 16.165C12.1514 16.5387 12.2004 17.4912 11.4974 17.9162C11.3256 18.158 11.7344 18.3411 11.669 18.5829C11.5792 18.788 11.3502 18.9052 11.1212 18.9419C11.0314 18.7148 11.1294 18.2458 10.7452 18.2605C10.4836 18.4363 10.6716 18.8027 10.5818 19.0665C10.0584 19.081 9.4862 18.9272 9.1264 18.5756C8.8566 17.8136 8.8076 17.0076 8.734 16.2163C8.6442 15.3077 8.358 14.4067 8.5296 13.4908C8.5624 13.249 8.8484 13.0364 8.7258 12.7801C8.5296 12.4429 8.407 12.0839 8.2598 11.7322C8.7912 11.8202 9.3472 11.9593 9.6824 12.3698C10.0258 12.3331 10.3446 12.1499 10.6472 12.0034C10.5 11.6736 10.1158 11.4612 10.1402 11.0581ZM8.9956 14.597C8.9058 14.8243 9.0448 15.0514 9.1592 15.2564C9.3226 15.0661 9.6006 14.8609 9.5026 14.5897C9.4454 14.3846 9.061 14.392 8.9956 14.597ZM9.249 18.2239C9.2654 18.3117 9.2818 18.3997 9.3064 18.4876C9.4534 18.6121 9.6416 18.6781 9.8214 18.7514C9.8132 18.4802 9.527 18.2899 9.249 18.2239Z" fill="#FEFEFE"/>
<path d="M8.497 13.1244C8.6442 12.736 8.3008 12.2671 7.8348 12.2452C7.8756 12.6116 8.1372 12.9559 8.497 13.1244Z" fill="#FEFEFE"/>
<path d="M18.1686 12.5383C18.2994 12.6116 18.4302 12.6921 18.5528 12.7654C18.3976 13.0364 18.1768 13.2855 17.817 13.3368C17.678 13.0145 17.9396 12.7507 18.1686 12.5383Z" fill="#FEFEFE"/>
<path d="M8.9956 14.597C9.061 14.392 9.4454 14.3846 9.5026 14.5897C9.6006 14.8609 9.3226 15.0661 9.1592 15.2564C9.0448 15.0514 8.9058 14.8243 8.9956 14.597Z" fill="#3A64A3"/>
<path d="M9.249 18.2239C9.527 18.2899 9.8132 18.4802 9.8214 18.7514C9.6416 18.6781 9.4534 18.6121 9.3064 18.4876C9.2818 18.3997 9.2654 18.3117 9.249 18.2239Z" fill="#3A64A3"/>
<path d="M31.9852 18.3703C31.3148 18.7001 30.5382 19.3669 30.9142 20.1142C31.4292 19.6379 31.8626 19.0371 31.9852 18.3703Z" fill="#FEFEFE"/>
<path d="M8.8566 20.6051C9.2 20.2608 9.7478 20.2167 10.2302 20.2022C11.2358 20.1948 12.2496 20.2534 13.2552 20.3707C13.533 21.2866 14.4406 21.8506 15.299 22.3195C14.3834 22.5687 13.394 22.4367 12.5194 22.1292C11.9716 21.9605 11.4646 21.6382 10.8678 21.6088C10.8106 22.3708 11.1294 23.1695 11.71 23.7337C11.4484 23.9608 11.383 24.2612 11.3012 24.5616C10.8596 24.8181 10.3936 25.0526 9.895 25.2063C9.568 24.6715 10.0994 24.1072 9.9358 23.5505C9.6824 22.6932 9.1102 21.9532 8.8322 21.1107C8.775 20.9494 8.7096 20.7444 8.8566 20.6051Z" fill="#FEFEFE"/>
<path d="M25.1178 21.5502C25.3222 21.4769 25.5266 21.3817 25.7554 21.3523C26.434 21.8214 27.1372 22.2756 27.9056 22.6199C28.0282 22.9644 28.159 23.3087 28.3798 23.6091C28.5024 23.7923 28.2572 23.9242 28.1346 24.0341C27.2516 24.7595 26.3604 25.6313 26.2706 26.7523C26.0744 26.8035 25.87 26.8256 25.6818 26.8915C25.3876 27.0161 25.3548 27.4777 24.9706 27.4484C24.4474 27.4264 23.916 27.4337 23.3846 27.3825C23.6952 26.8403 24.4066 26.6424 24.758 26.1441C25.1832 25.5507 25.731 25.0526 26.1888 24.4883C26.3932 24.2465 26.3522 23.8948 26.197 23.6457C25.7882 22.9716 25.3058 22.3122 25.1178 21.5502Z" fill="#FEFEFE"/>
<path d="M11.4238 25.0305C11.8244 24.7961 12.2986 24.5177 12.7972 24.7009C12.3476 24.9133 11.8408 25.0379 11.4402 25.3383C11.2194 25.4847 11.0314 25.8145 10.7044 25.646C10.7942 25.3236 11.154 25.2063 11.4238 25.0305Z" fill="#FEFEFE"/>
<path d="M11.2848 24.8473C11.0478 24.9498 10.7288 25.0305 10.639 25.2796C10.876 25.1624 11.0968 25.0158 11.2848 24.8473Z" fill="#FEFEFE"/>
<path d="M13.1242 24.8694C13.345 24.8253 13.5168 24.9939 13.6966 25.0744C13.1324 25.3162 12.4294 25.5433 11.8326 25.8365C11.6282 25.9609 11.391 25.9244 11.2112 25.7851C11.6854 25.2723 12.4048 24.9939 13.1242 24.8694Z" fill="#FEFEFE"/>
<path d="M13.6394 25.3309C13.9418 25.2063 14.179 25.4702 14.2526 25.712C13.9336 25.7559 13.6802 26.005 13.3368 25.9683C12.9526 25.9097 12.8054 26.3199 12.4948 26.4227C12.1842 26.43 11.8326 26.408 11.6446 26.1588C12.225 25.7559 12.9444 25.5433 13.6394 25.3309Z" fill="#FEFEFE"/>
<path d="M10.2546 25.983C10.1158 25.7924 10.312 25.5947 10.459 25.4702C10.5164 25.5947 10.5818 25.7265 10.639 25.8511C10.9742 25.8658 11.3666 25.9683 11.4892 26.2834C11.62 26.6277 12.1188 26.5325 12.4376 26.6058C12.5438 26.8842 12.8708 27.2066 12.601 27.4997C11.669 27.2579 10.7288 26.7743 10.2546 25.983Z" fill="#FEFEFE"/>
<path d="M13.713 26.0783C13.8356 26.0489 13.95 26.0197 14.0644 25.983C14.1218 26.5691 14.228 27.1699 14.0482 27.7488C13.9092 27.7634 13.7784 27.7781 13.6476 27.7928C13.7374 27.2212 13.7702 26.6497 13.713 26.0783Z" fill="#FEFEFE"/>
<path d="M14.3588 27.485C14.6122 27.0453 14.694 26.4153 14.3342 25.9977C14.2934 26.496 14.3752 26.9867 14.3588 27.485Z" fill="#FEFEFE"/>
<path d="M10.0176 26.1441C10.222 26.2834 10.4182 26.4592 10.5326 26.6718C10.5 26.8403 10.4264 27.0088 10.32 27.148C10.0094 26.8915 9.8704 26.5105 10.0176 26.1441Z" fill="#FEFEFE"/>
<path d="M12.6664 26.5985C12.9036 26.3859 13.1162 26.0563 13.5004 26.1369C13.623 26.9941 13.5004 27.9247 12.8872 28.6133C12.642 28.8112 12.2822 28.7305 11.9878 28.7305C11.9798 28.4742 12.2904 28.4375 12.4866 28.3423C12.503 27.9612 12.642 27.5875 12.9772 27.3384C12.879 27.0894 12.7646 26.855 12.6664 26.5985Z" fill="#FEFEFE"/>
<path d="M10.5898 27.3751C10.5326 27.1919 10.6552 27.0161 10.7126 26.8403C11.252 27.1625 11.808 27.463 12.4294 27.6388C12.413 27.7268 12.3884 27.822 12.3722 27.9173C11.7344 27.91 11.0722 27.7634 10.5898 27.3751Z" fill="#FEFEFE"/>
<path d="M10.0584 27.1772C10.639 27.7781 11.4892 28.0564 12.3476 28.1224C12.1922 28.3423 11.8326 28.5108 11.571 28.3203C11.2684 28.1224 10.9006 28.0345 10.549 27.9173C10.2138 27.8148 10.083 27.4777 10.0584 27.1772Z" fill="#FEFEFE"/>
<path d="M4.213 27.2359C4.262 27.9465 4.2212 28.6646 4.2294 29.3826C4.2212 32.7457 4.262 36.1161 4.213 39.4791L4.2212 39.5304C4.1802 35.4346 4.1966 31.3316 4.213 27.2359Z" fill="#3A64A3"/>
<path d="M13.5248 27.9392C13.6802 27.932 13.8438 27.9392 14.0072 27.9392C13.8682 28.2324 13.574 28.4228 13.2552 28.5108C13.3286 28.3129 13.4268 28.1224 13.5248 27.9392Z" fill="#FEFEFE"/>
<path d="M11.7998 28.7013C11.571 28.4522 11.1948 28.3568 10.876 28.2177C10.9904 28.5694 11.4728 28.606 11.7998 28.7013Z" fill="#FEFEFE"/>
<path d="M6.9272 30.0275L6.9436 30.0788C6.96 30.1886 6.9682 30.3059 6.9926 30.4157C7.8184 30.4157 8.6768 30.4304 9.4454 30.7455C9.854 30.914 10.2384 31.2071 10.7206 31.1632C11.5628 31.1045 12.2822 30.6283 13.108 30.5109C14.1544 30.3498 15.2172 30.5476 16.2146 30.8334C16.607 30.9432 16.9914 31.1264 17.4246 31.1191C18.1768 31.1632 18.8716 30.8481 19.583 30.6649C20.3106 30.4523 21.1118 30.3718 21.8558 30.5403C22.7796 30.7235 23.6544 31.1558 24.619 31.1191C25.1424 31.1264 25.592 30.8773 26.0824 30.7674C26.7774 30.5916 27.4886 30.4451 28.2162 30.4523C29.1484 30.467 29.9904 30.8773 30.8734 31.1045C31.3966 31.251 31.9444 31.0825 32.4104 30.8628C33.187 30.5037 34.07 30.4157 34.9366 30.4231C34.9448 30.3059 34.953 30.1886 34.961 30.0714V30.0202C35.0266 30.9506 34.9774 31.8884 34.9938 32.819C34.3234 32.7677 33.6448 32.8337 33.0154 33.024C32.5002 33.178 32.0588 33.5443 31.4866 33.5223C30.2684 33.5883 29.271 32.731 28.0528 32.7969C26.9654 32.8263 25.9762 33.2658 24.9298 33.471C23.3682 33.6981 21.9784 32.5551 20.4086 32.8629C19.166 33.1194 17.8824 33.7788 16.5826 33.3612C15.299 32.8923 13.7866 32.5186 12.462 33.0681C11.71 33.4124 10.8352 33.5809 10.0012 33.4051C9.568 33.3172 9.2164 33.0461 8.7912 32.9362C8.2026 32.7824 7.5812 32.7824 6.9764 32.8116C6.9682 33.1927 7.0172 33.5809 6.9436 33.962V34.0206C6.9028 32.6944 6.9272 31.3535 6.9272 30.0275ZM6.9764 31.2144V31.9984C7.4832 31.9911 7.9982 32.0129 8.497 32.0497C9.29 32.1083 9.9114 32.7091 10.7206 32.687C11.5792 32.6578 12.3068 32.1888 13.1406 32.0644C14.1708 31.8884 15.209 32.123 16.1902 32.4013C16.5988 32.5039 16.9914 32.6797 17.4164 32.687C18.6754 32.7238 19.771 31.9837 21.0218 32.0276C22.0274 32.0276 22.9512 32.4306 23.9078 32.6505C24.758 32.8337 25.5756 32.5039 26.3604 32.2621C27.0554 32.0423 27.7994 31.9911 28.527 32.0497C29.3772 32.1448 30.162 32.482 30.9878 32.687C31.4538 32.8116 31.9444 32.6358 32.3612 32.4379C33.1462 32.0497 34.0618 32.0058 34.9366 32.0058C34.953 31.7566 34.953 31.5148 34.9448 31.2657C34.258 31.251 33.514 31.2071 32.9008 31.5222C32.4348 31.7493 31.9362 31.947 31.4048 31.9617C30.7016 31.9617 30.0476 31.698 29.41 31.4636C28.4044 31.1191 27.2924 31.2657 26.2868 31.5367C25.731 31.6686 25.2158 31.9543 24.6272 31.9324C23.311 31.9911 22.1746 31.185 20.8666 31.2583C19.91 31.3022 19.0598 31.7493 18.1278 31.9031C16.8686 32.0644 15.7322 31.4415 14.5304 31.251C13.4022 31.1191 12.3394 31.5587 11.3012 31.8884C10.6552 32.0276 9.9604 31.8884 9.38 31.61C8.6522 31.251 7.7938 31.1703 6.9764 31.2144Z" fill="#FEFEFE"/>
<path d="M6.9436 30.0788C16.28 30.0494 25.6164 30.0567 34.961 30.0714C34.953 30.1886 34.9448 30.3059 34.9366 30.4231C34.07 30.4157 33.187 30.5037 32.4104 30.8628C31.9444 31.0825 31.3966 31.251 30.8734 31.1045C29.9904 30.8773 29.1484 30.467 28.2162 30.4523C27.4886 30.4451 26.7774 30.5916 26.0824 30.7674C25.592 30.8773 25.1424 31.1264 24.619 31.1191C23.6544 31.1558 22.7796 30.7235 21.8558 30.5403C21.1118 30.3718 20.3106 30.4523 19.583 30.6649C18.8716 30.8481 18.1768 31.1632 17.4246 31.1191C16.9914 31.1264 16.607 30.9432 16.2146 30.8334C15.2172 30.5476 14.1544 30.3498 13.108 30.5109C12.2822 30.6283 11.5628 31.1045 10.7206 31.1632C10.2384 31.2071 9.854 30.914 9.4454 30.7455C8.6768 30.4304 7.8184 30.4157 6.9926 30.4157C6.9682 30.3059 6.96 30.1886 6.9436 30.0788Z" fill="#3A64A3"/>
<path d="M6.9764 31.2144C7.7938 31.1703 8.6522 31.251 9.38 31.61C9.9604 31.8884 10.6552 32.0276 11.3012 31.8884C12.3394 31.5587 13.4022 31.1191 14.5304 31.251C15.7322 31.4415 16.8686 32.0644 18.1278 31.9031C19.0598 31.7493 19.91 31.3022 20.8666 31.2583C22.1746 31.185 23.311 31.9911 24.6272 31.9324C25.2158 31.9543 25.731 31.6686 26.2868 31.5367C27.2924 31.2657 28.4044 31.1191 29.41 31.4636C30.0476 31.698 30.7016 31.9617 31.4048 31.9617C31.9362 31.947 32.4348 31.7493 32.9008 31.5222C33.514 31.2071 34.258 31.251 34.9448 31.2657C34.953 31.5148 34.953 31.7566 34.9366 32.0058C34.0618 32.0058 33.1462 32.0497 32.3612 32.4379C31.9444 32.6358 31.4538 32.8116 30.9878 32.687C30.162 32.482 29.3772 32.1448 28.527 32.0497C27.7994 31.9911 27.0554 32.0423 26.3604 32.2621C25.5756 32.5039 24.758 32.8337 23.9078 32.6505C22.9512 32.4306 22.0274 32.0276 21.0218 32.0276C19.771 31.9837 18.6754 32.7238 17.4164 32.687C16.9914 32.6797 16.5988 32.5039 16.1902 32.4013C15.209 32.123 14.1708 31.8884 13.1406 32.0644C12.3068 32.1888 11.5792 32.6578 10.7206 32.687C9.9114 32.7091 9.29 32.1083 8.497 32.0497C7.9982 32.0129 7.4832 31.9911 6.9764 31.9984V31.2144Z" fill="#3A64A3"/>
<path d="M6.9764 32.8116C7.5812 32.7824 8.2026 32.7824 8.7912 32.9362C9.2164 33.0461 9.568 33.3172 10.0012 33.4051C10.8352 33.5809 11.71 33.4124 12.462 33.0681C13.7866 32.5186 15.299 32.8923 16.5826 33.3612C17.8824 33.7788 19.166 33.1194 20.4086 32.8629C21.9784 32.5551 23.3682 33.6981 24.9298 33.471C25.9762 33.2658 26.9654 32.8263 28.0528 32.7969C29.271 32.731 30.2684 33.5883 31.4866 33.5223C32.0588 33.5443 32.5002 33.178 33.0154 33.024C33.6448 32.8337 34.3234 32.7677 34.9938 32.819C34.9692 33.2072 34.9774 33.5956 34.9774 33.9767C25.6328 33.962 16.2882 33.9912 6.9436 33.962C7.0172 33.5809 6.9682 33.1927 6.9764 32.8116Z" fill="#3A64A3"/>
<path d="M6.9764 34.8779C16.2964 34.8558 25.6164 34.8632 34.9366 34.8705C34.953 36.1161 34.961 37.3616 34.9366 38.6071C25.6164 38.5998 16.2964 38.6145 6.9764 38.5998C6.9844 37.3616 6.9844 36.1161 6.9764 34.8779ZM7.6058 35.3027C7.5976 36.2698 7.5894 37.2297 7.6058 38.1895C16.5254 38.2042 25.4448 38.2042 34.3642 38.1895C34.3806 37.2297 34.3806 36.2625 34.3642 35.3027C25.4448 35.2882 16.5254 35.2882 7.6058 35.3027Z" fill="#FEFEFE"/>
<path d="M7.6058 35.3027C16.5254 35.2882 25.4448 35.2882 34.3642 35.3027C34.3806 36.2625 34.3806 37.2297 34.3642 38.1895C25.4448 38.2042 16.5254 38.2042 7.6058 38.1895C7.5894 37.2297 7.5976 36.2698 7.6058 35.3027ZM8.8322 35.9841C8.8158 36.4751 8.8158 36.966 8.8322 37.4568C8.9874 37.4568 9.151 37.4568 9.3146 37.4496C9.3064 37.2517 9.3146 37.0612 9.3146 36.8633C9.5842 36.8707 9.8622 36.8633 10.132 36.8488V36.5776C9.854 36.5702 9.5842 36.5702 9.3146 36.5629C9.3146 36.4677 9.3226 36.3725 9.3226 36.2845C9.5924 36.2845 9.8622 36.2845 10.132 36.2698V35.9915C9.6988 35.9768 9.2654 35.9841 8.8322 35.9841ZM11.0804 36.0135C10.6308 36.1087 10.271 36.541 10.4508 36.9587C10.7616 37.5595 11.7508 37.6254 12.2904 37.237C12.601 37.0391 12.691 36.607 12.4376 36.3432C12.135 35.9694 11.5464 35.889 11.0804 36.0135ZM13.5248 36.0062C13.108 36.0867 12.7318 36.453 12.83 36.856C13.0834 37.7206 14.8248 37.684 14.9884 36.7828C15.0292 36.1234 14.1218 35.8303 13.5248 36.0062ZM15.0618 35.9841V36.2625C15.2826 36.2625 15.5034 36.2625 15.7242 36.2698C15.7404 36.6583 15.7404 37.0538 15.7322 37.4422C15.8958 37.4496 16.0594 37.4568 16.2228 37.4641C16.2392 37.0685 16.2392 36.673 16.2228 36.2845C16.4518 36.2698 16.6806 36.2553 16.9096 36.2553C16.9096 36.1673 16.9178 36.0793 16.9178 35.9915C16.2964 35.9768 15.675 35.9841 15.0618 35.9841ZM17.1794 35.9841C17.1712 36.4751 17.1712 36.966 17.1794 37.4568C17.6372 37.4422 18.1358 37.5374 18.5692 37.3689C18.8962 37.2005 18.79 36.7755 18.4874 36.6362C18.6754 36.4677 18.6754 36.1673 18.4056 36.0501C18.0214 35.9182 17.5882 36.0062 17.1794 35.9841ZM19.6484 35.9915C19.403 36.4751 19.1414 36.9587 18.8962 37.4496C19.0678 37.4568 19.2314 37.4568 19.403 37.4641C19.4522 37.3616 19.5012 37.2664 19.5584 37.1711H20.3596C20.4168 37.2591 20.474 37.3542 20.5476 37.4422C20.7112 37.4788 20.8746 37.4496 21.0382 37.4496C20.7848 36.944 20.4822 36.4751 20.2124 35.9841C20.0244 35.9841 19.8364 35.9841 19.6484 35.9915ZM21.259 35.9768C21.2426 36.4751 21.2508 36.966 21.259 37.4568C21.7412 37.4568 22.2318 37.4862 22.7142 37.4349V37.1711C22.3872 37.1784 22.0684 37.1784 21.7494 37.1637C21.7332 36.7755 21.7332 36.3797 21.7412 35.9841C21.5778 35.9841 21.4224 35.9841 21.259 35.9768ZM22.9594 35.9841C22.943 36.4751 22.943 36.966 22.9594 37.4568C23.4418 37.4641 23.916 37.4715 24.3984 37.4496C24.382 37.3542 24.3738 37.2591 24.3738 37.1637C24.055 37.1784 23.7362 37.1784 23.4172 37.1564C23.4254 36.7608 23.4254 36.3725 23.4172 35.9841H22.9594ZM25.5266 36.2772C25.2078 36.5484 25.2812 37.0538 25.6328 37.2736C26.0744 37.5595 26.6712 37.4935 27.1616 37.3616C27.1534 37.237 27.1698 37.1198 27.1698 37.0026C26.8102 37.1198 26.385 37.2591 26.0416 37.0538C25.7964 36.9366 25.7554 36.607 25.968 36.453C26.2868 36.1747 26.7856 36.2919 27.1454 36.4238C27.1454 36.2992 27.1372 36.182 27.1372 36.0574C26.6058 35.9182 25.9354 35.8816 25.5266 36.2772ZM27.5378 35.9768C27.5214 36.4677 27.5214 36.9587 27.5378 37.4568C28.02 37.4641 28.5024 37.4715 28.9848 37.4496C28.9684 37.3542 28.9602 37.2591 28.9602 37.1711C28.6496 37.1784 28.339 37.1784 28.0282 37.1637C28.02 36.7755 28.02 36.3797 28.0282 35.9915C27.8648 35.9841 27.7012 35.9841 27.5378 35.9768ZM29.2056 35.9841C29.2218 36.3652 29.1238 36.7828 29.2872 37.1492C29.6716 37.6034 30.6036 37.596 31.0124 37.1637C31.184 36.7973 31.086 36.3725 31.094 35.9768C30.9306 35.9841 30.767 35.9841 30.6036 35.9915C30.6036 36.2992 30.6444 36.6143 30.5872 36.9219C30.4728 37.2664 29.8186 37.2517 29.7206 36.9074C29.6716 36.5996 29.7042 36.2919 29.6878 35.9841H29.2056ZM31.4946 35.9841C31.4866 36.4751 31.4946 36.966 31.4946 37.4568C31.9526 37.4422 32.443 37.5374 32.8764 37.3689C33.2034 37.2005 33.1052 36.7755 32.7946 36.6436C32.9336 36.4898 33.0316 36.2406 32.811 36.1087C32.4266 35.8743 31.928 36.0207 31.4946 35.9841Z" fill="#3A64A3"/>
<path d="M8.8322 35.9841C9.2654 35.9841 9.6988 35.9768 10.132 35.9915V36.2698C9.8622 36.2845 9.5924 36.2845 9.3226 36.2845C9.3226 36.3725 9.3146 36.4677 9.3146 36.5629C9.5842 36.5702 9.854 36.5702 10.132 36.5776V36.8488C9.8622 36.8633 9.5842 36.8707 9.3146 36.8633C9.3146 37.0612 9.3064 37.2517 9.3146 37.4496C9.151 37.4568 8.9874 37.4568 8.8322 37.4568C8.8158 36.966 8.8158 36.4751 8.8322 35.9841Z" fill="#FEFEFE"/>
<path d="M11.0804 36.0135C11.5464 35.889 12.135 35.9694 12.4376 36.3432C12.691 36.607 12.601 37.0391 12.2904 37.237C11.7508 37.6254 10.7616 37.5595 10.4508 36.9587C10.271 36.541 10.6308 36.1087 11.0804 36.0135ZM11.3256 36.2992C11.0314 36.3358 10.827 36.6289 10.9332 36.878C11.1458 37.3103 12.0042 37.2444 12.0778 36.7608C12.1188 36.4091 11.6608 36.2186 11.3256 36.2992Z" fill="#FEFEFE"/>
<path d="M13.5248 36.0062C14.1218 35.8303 15.0292 36.1234 14.9884 36.7828C14.8248 37.684 13.0834 37.7206 12.83 36.856C12.7318 36.453 13.108 36.0867 13.5248 36.0062ZM13.6966 36.3066C13.4104 36.3579 13.2306 36.6656 13.3614 36.9074C13.5822 37.3324 14.506 37.215 14.4814 36.7095C14.4814 36.3652 14.0154 36.2186 13.6966 36.3066Z" fill="#FEFEFE"/>
<path d="M15.0618 35.9841C15.675 35.9841 16.2964 35.9768 16.9178 35.9915C16.9178 36.0793 16.9096 36.1673 16.9096 36.2553C16.6806 36.2553 16.4518 36.2698 16.2228 36.2845C16.2392 36.673 16.2392 37.0685 16.2228 37.4641C16.0594 37.4568 15.8958 37.4496 15.7322 37.4422C15.7404 37.0538 15.7404 36.6583 15.7242 36.2698C15.5034 36.2625 15.2826 36.2625 15.0618 36.2625V35.9841Z" fill="#FEFEFE"/>
<path d="M17.1794 35.9841C17.5882 36.0062 18.0214 35.9182 18.4056 36.0501C18.6754 36.1673 18.6754 36.4677 18.4874 36.6362C18.79 36.7755 18.8962 37.2005 18.5692 37.3689C18.1358 37.5374 17.6372 37.4422 17.1794 37.4568C17.1712 36.966 17.1712 36.4751 17.1794 35.9841ZM17.6698 36.248C17.6698 36.3505 17.6698 36.4604 17.678 36.5629C17.8334 36.541 18.185 36.5996 18.144 36.3652C18.0378 36.2186 17.8252 36.2698 17.6698 36.248ZM17.6698 36.8341V37.1711C17.866 37.1711 18.0542 37.1637 18.2504 37.1418C18.2422 37.0538 18.2422 36.966 18.2504 36.8706C18.0542 36.856 17.858 36.8414 17.6698 36.8341Z" fill="#FEFEFE"/>
<path d="M19.6484 35.9915C19.8364 35.9841 20.0244 35.9841 20.2124 35.9841C20.4822 36.4751 20.7848 36.944 21.0382 37.4496C20.8746 37.4496 20.7112 37.4788 20.5476 37.4422C20.474 37.3542 20.4168 37.2591 20.3596 37.1711H19.5584C19.5012 37.2664 19.4522 37.3616 19.403 37.4641C19.2314 37.4568 19.0678 37.4568 18.8962 37.4496C19.1414 36.9587 19.403 36.4751 19.6484 35.9915ZM19.7138 36.9H20.2042C20.1388 36.7242 20.049 36.5556 19.9426 36.4018C19.8364 36.5556 19.7546 36.7242 19.7138 36.9Z" fill="#FEFEFE"/>
<path d="M21.259 35.9768C21.4224 35.9841 21.5778 35.9841 21.7412 35.9841C21.7332 36.3797 21.7332 36.7755 21.7494 37.1637C22.0684 37.1784 22.3872 37.1784 22.7142 37.1711V37.4349C22.2318 37.4862 21.7412 37.4568 21.259 37.4568C21.2508 36.966 21.2426 36.4751 21.259 35.9768Z" fill="#FEFEFE"/>
<path d="M22.9594 35.9841H23.4172C23.4254 36.3725 23.4254 36.7608 23.4172 37.1564C23.7362 37.1784 24.055 37.1784 24.3738 37.1637C24.3738 37.2591 24.382 37.3542 24.3984 37.4496C23.916 37.4715 23.4418 37.4641 22.9594 37.4568C22.943 36.966 22.943 36.4751 22.9594 35.9841Z" fill="#FEFEFE"/>
<path d="M25.5266 36.2772C25.9354 35.8816 26.6058 35.9182 27.1372 36.0574C27.1372 36.182 27.1454 36.2992 27.1454 36.4238C26.7856 36.2919 26.2868 36.1747 25.968 36.453C25.7554 36.607 25.7964 36.9366 26.0416 37.0538C26.385 37.2591 26.8102 37.1198 27.1698 37.0026C27.1698 37.1198 27.1534 37.237 27.1616 37.3616C26.6712 37.4935 26.0744 37.5595 25.6328 37.2736C25.2812 37.0538 25.2078 36.5484 25.5266 36.2772Z" fill="#FEFEFE"/>
<path d="M27.5378 35.9768C27.7012 35.9841 27.8648 35.9841 28.0282 35.9915C28.02 36.3797 28.02 36.7755 28.0282 37.1637C28.339 37.1784 28.6496 37.1784 28.9602 37.1711C28.9602 37.2591 28.9684 37.3542 28.9848 37.4496C28.5024 37.4715 28.02 37.4641 27.5378 37.4568C27.5214 36.9587 27.5214 36.4677 27.5378 35.9768Z" fill="#FEFEFE"/>
<path d="M29.2056 35.9841H29.6878C29.7042 36.2919 29.6716 36.5996 29.7206 36.9074C29.8186 37.2517 30.4728 37.2664 30.5872 36.9219C30.6444 36.6143 30.6036 36.2992 30.6036 35.9915C30.767 35.9841 30.9306 35.9841 31.094 35.9768C31.086 36.3725 31.184 36.7973 31.0124 37.1637C30.6036 37.596 29.6716 37.6034 29.2872 37.1492C29.1238 36.7828 29.2218 36.3652 29.2056 35.9841Z" fill="#FEFEFE"/>
<path d="M31.4946 35.9841C31.928 36.0207 32.4266 35.8743 32.811 36.1087C33.0316 36.2406 32.9336 36.4898 32.7946 36.6436C33.1052 36.7755 33.2034 37.2005 32.8764 37.3689C32.443 37.5374 31.9526 37.4422 31.4946 37.4568C31.4946 36.966 31.4866 36.4751 31.4946 35.9841ZM31.977 36.248C31.9852 36.3505 31.9852 36.4604 31.9852 36.5629C32.1488 36.541 32.484 36.5997 32.4512 36.3652C32.3532 36.2186 32.1406 36.2698 31.977 36.248ZM31.977 36.8341C31.977 36.9513 31.977 37.0612 31.9852 37.1711C32.1732 37.1711 32.3694 37.1637 32.5574 37.1418C32.5494 37.0538 32.5494 36.9587 32.5574 36.8707C32.3612 36.856 32.1732 36.8414 31.977 36.8341Z" fill="#FEFEFE"/>
<path d="M11.3256 36.2992C11.6608 36.2186 12.1188 36.4091 12.0778 36.7608C12.0042 37.2444 11.1458 37.3103 10.9332 36.878C10.827 36.6289 11.0314 36.3358 11.3256 36.2992Z" fill="#3A64A3"/>
<path d="M13.6966 36.3066C14.0154 36.2186 14.4814 36.3652 14.4814 36.7095C14.506 37.215 13.5822 37.3324 13.3614 36.9074C13.2306 36.6656 13.4104 36.3579 13.6966 36.3066Z" fill="#3A64A3"/>
<path d="M17.6698 36.248C17.8252 36.2698 18.0378 36.2186 18.144 36.3652C18.185 36.5996 17.8334 36.541 17.678 36.5629C17.6698 36.4604 17.6698 36.3505 17.6698 36.248Z" fill="#3A64A3"/>
<path d="M31.977 36.248C32.1406 36.2698 32.3532 36.2186 32.4512 36.3652C32.484 36.5997 32.1488 36.541 31.9852 36.5629C31.9852 36.4604 31.9852 36.3505 31.977 36.248Z" fill="#3A64A3"/>
<path d="M19.7138 36.9C19.7546 36.7242 19.8364 36.5556 19.9426 36.4018C20.049 36.5556 20.1388 36.7242 20.2042 36.9H19.7138Z" fill="#3A64A3"/>
<path d="M17.6698 36.8341C17.858 36.8414 18.0542 36.856 18.2504 36.8706C18.2422 36.966 18.2422 37.0538 18.2504 37.1418C18.0542 37.1637 17.866 37.1711 17.6698 37.1711V36.8341Z" fill="#3A64A3"/>
<path d="M31.977 36.8341C32.1732 36.8414 32.3612 36.856 32.5574 36.8707C32.5494 36.9587 32.5494 37.0538 32.5574 37.1418C32.3694 37.1637 32.1732 37.1711 31.9852 37.1711C31.977 37.0612 31.977 36.9513 31.977 36.8341Z" fill="#3A64A3"/>
<path d="M10.0584 39.523C17.3674 39.5083 24.6762 39.5083 31.9852 39.523C28.478 40.8858 24.9216 42.1607 21.398 43.4942C21.1854 43.5674 20.9482 43.714 20.7194 43.5821C17.1712 42.2193 13.5902 40.9152 10.0584 39.523Z" fill="#3A64A3"/>
<path d="M24.0794 1.01305C21.9948 1.0057 19.9018 0.998533 17.817 1.01305C17.8006 1.57729 17.8006 2.13419 17.8088 2.69825C17.073 2.7056 16.3372 2.69825 15.6014 2.7056C15.5852 2.14136 15.5932 1.58464 15.6014 1.02775C13.5168 0.983836 11.432 1.0057 9.3472 1.0204C9.3554 1.57729 9.3636 2.14136 9.3472 2.7056C8.6114 2.69825 7.8756 2.7056 7.1398 2.69825C7.1234 2.14136 7.148 1.57729 7.1234 1.01305C5.0878 0.998533 3.0438 1.0057 1 1.01305C1.0082 4.14901 1.0082 7.28497 1.0082 10.4208C1.605 10.4281 2.21 10.4134 2.8068 10.538C2.8394 10.56 2.9212 10.5892 2.954 10.6039C3.7224 10.9409 4.303 11.6663 4.2048 12.4576C4.1966 17.3813 4.1884 22.3122 4.213 27.2359M24.0794 1.01305C24.0632 1.56995 24.0794 2.13419 24.0714 2.69825C24.848 2.69825 25.6164 2.7056 26.3932 2.6909C26.385 2.14136 26.385 1.58464 26.3932 1.0351M24.0794 1.01305C24.1122 1.56995 24.0876 2.12684 24.0958 2.6909C24.848 2.69825 25.6084 2.7056 26.3604 2.68356C26.385 2.13419 26.3196 1.5773 26.3932 1.0351M26.3932 1.0351C28.4534 0.976487 30.5382 1.0057 32.6066 1.0204C32.6066 1.58464 32.5984 2.14136 32.6148 2.69825C33.3996 2.69825 34.1844 2.7056 34.9774 2.69825C34.953 2.13419 34.961 1.57729 34.9692 1.01305C36.9804 1.0057 38.9834 1.0057 40.9946 1.01305C41.0028 4.14901 41.0028 7.28497 40.9864 10.4208C40.2916 10.4355 39.564 10.4061 38.918 10.6846C38.2232 10.963 37.7408 11.6224 37.7572 12.3112C37.7654 21.367 37.749 30.4304 37.7572 39.4865C37.4382 39.6182 37.1276 39.7795 36.7842 39.8455C36.7434 39.8673 36.6698 39.9041 36.637 39.9186C36.5144 39.9993 36.3672 40.0505 36.212 40.0652C36.1792 40.0871 36.1056 40.1238 36.0648 40.1385C35.9422 40.219 35.795 40.2776 35.6396 40.2923C35.607 40.307 35.5334 40.3436 35.4926 40.3583C35.1164 40.5268 34.7322 40.7026 34.3316 40.798C34.2908 40.8198 34.2172 40.8566 34.1844 40.8711C34.0618 40.9517 33.9146 41.003 33.7592 41.0177C33.7266 41.0397 33.653 41.0763 33.6122 41.091C33.4896 41.1715 33.3424 41.2301 33.187 41.2448C33.1544 41.2595 33.0808 41.2961 33.0398 41.3108C32.672 41.4866 32.2796 41.6477 31.879 41.7504C31.838 41.7723 31.7644 41.809 31.7318 41.8236C31.6092 41.9042 31.462 41.9555 31.3066 41.9702C31.274 41.9922 31.2004 42.0214 31.1594 42.0435C29.7778 42.6002 28.388 43.1718 26.9736 43.6554C26.9328 43.6772 26.8592 43.714 26.8264 43.7287C26.7038 43.8092 26.5566 43.8604 26.4014 43.8751C26.3686 43.8972 26.295 43.9337 26.2542 43.9484C26.1316 44.0291 25.9844 44.0877 25.829 44.1022C25.7964 44.1169 25.7228 44.1537 25.6818 44.1682C25.502 44.2709 25.3058 44.3514 25.0932 44.3881C25.0524 44.41 24.9788 44.4467 24.946 44.4612C24.8152 44.5345 24.6682 44.5932 24.521 44.6079C24.48 44.6299 24.4066 44.6665 24.3738 44.6812C24.055 44.8276 23.728 44.9742 23.3764 45.0547C23.3436 45.0694 23.2702 45.1061 23.2292 45.1207C23.0494 45.2234 22.8532 45.3038 22.6406 45.3406C22.5998 45.3624 22.5344 45.3992 22.4934 45.4137C22.3626 45.487 22.2154 45.5456 22.0684 45.5603C22.0274 45.5824 21.9538 45.6189 21.9212 45.6336C21.6024 45.7801 21.2834 45.9193 20.94 46C20.5394 45.8973 20.1634 45.7215 19.7956 45.5603C19.7546 45.5456 19.681 45.5091 19.6484 45.4944C19.493 45.4797 19.3458 45.4211 19.2232 45.3406C19.1824 45.3259 19.1088 45.2893 19.076 45.2673C18.4874 45.0914 17.907 44.8496 17.3428 44.6079C17.3102 44.5932 17.2366 44.5566 17.1956 44.5345C16.795 44.432 16.4108 44.2635 16.0348 44.0951C15.9938 44.0804 15.9204 44.0436 15.8876 44.0217C15.7322 44.0144 15.5932 43.9484 15.4624 43.8751C15.4298 43.8604 15.3562 43.8239 15.3154 43.8018C14.2852 43.4501 13.2796 43.0325 12.274 42.6296C12.2414 42.6075 12.1678 42.571 12.1268 42.5563C11.9144 42.5197 11.7182 42.4317 11.5382 42.3365C11.4974 42.3218 11.4238 42.2853 11.391 42.2632C11.2358 42.2485 11.0968 42.1899 10.966 42.1168C10.925 42.1021 10.8596 42.0654 10.8188 42.0435C10.4182 41.941 10.034 41.7649 9.6578 41.6038C9.617 41.5891 9.5434 41.5525 9.5108 41.5378C9.3554 41.516 9.2082 41.4574 9.0856 41.3841C9.0528 41.3694 8.9794 41.3328 8.9384 41.3108C7.9084 40.9664 6.9028 40.5341 5.8972 40.1385C5.8562 40.1238 5.7908 40.0871 5.75 40.0652C5.3494 39.9554 4.9652 39.794 4.589 39.6256C4.5564 39.6109 4.4828 39.5743 4.4418 39.5522C4.3846 39.5377 4.2702 39.501 4.213 39.4791M4.213 39.4791C4.262 36.1161 4.2212 32.7457 4.2294 29.3826C4.2212 28.6646 4.262 27.9465 4.213 27.2359M4.213 39.4791L4.2212 39.5304C4.1802 35.4346 4.1966 31.3316 4.213 27.2359M6.9436 33.962V34.0206C6.9028 32.6944 6.9272 31.3535 6.9272 30.0275L6.9436 30.0788M6.9436 33.962C16.2882 33.9912 25.6328 33.962 34.9774 33.9767C34.9774 33.5956 34.9692 33.2072 34.9938 32.819M6.9436 33.962C7.0172 33.5809 6.9682 33.1927 6.9764 32.8116C7.5812 32.7824 8.2026 32.7824 8.7912 32.9362C9.2164 33.0461 9.568 33.3172 10.0012 33.4051C10.8352 33.5809 11.71 33.4124 12.462 33.0681C13.7866 32.5186 15.299 32.8923 16.5826 33.3612C17.8824 33.7788 19.166 33.1194 20.4086 32.8629C21.9784 32.5551 23.3682 33.6981 24.9298 33.471C25.9762 33.2658 26.9654 32.8263 28.0528 32.7969C29.271 32.731 30.2684 33.5883 31.4866 33.5223C32.0588 33.5443 32.5002 33.178 33.0154 33.024C33.6448 32.8337 34.3234 32.7677 34.9938 32.819M34.9938 32.819C34.9774 31.8884 35.0266 30.9506 34.961 30.0202V30.0714M34.961 30.0714C25.6164 30.0567 16.28 30.0494 6.9436 30.0788M34.961 30.0714C34.953 30.1886 34.9448 30.3059 34.9366 30.4231C34.07 30.4157 33.187 30.5037 32.4104 30.8628C31.9444 31.0825 31.3966 31.251 30.8734 31.1045C29.9904 30.8773 29.1484 30.467 28.2162 30.4523C27.4886 30.4451 26.7774 30.5916 26.0824 30.7674C25.592 30.8773 25.1424 31.1264 24.619 31.1191C23.6544 31.1558 22.7796 30.7235 21.8558 30.5403C21.1118 30.3718 20.3106 30.4523 19.583 30.6649C18.8716 30.8481 18.1768 31.1632 17.4246 31.1191C16.9914 31.1264 16.607 30.9432 16.2146 30.8334C15.2172 30.5476 14.1544 30.3498 13.108 30.5109C12.2822 30.6283 11.5628 31.1045 10.7206 31.1632C10.2384 31.2071 9.854 30.914 9.4454 30.7455C8.6768 30.4304 7.8184 30.4157 6.9926 30.4157C6.9682 30.3059 6.96 30.1886 6.9436 30.0788M1.7522 1.63591C1.7684 4.33219 1.7684 7.03583 1.7522 9.73212C2.447 9.79808 3.1746 9.88591 3.747 10.2815C4.4174 10.7212 4.9814 11.3953 5.006 12.1646C5.0142 21.1252 5.0224 30.0861 5.0224 39.0394C10.3282 41.1055 15.626 43.1865 20.94 45.2087C26.3114 43.1865 31.6418 41.0543 37.0132 39.0247V11.9448C37.1848 10.5747 38.7708 9.71007 40.218 9.74664C40.2098 7.04318 40.218 4.33954 40.218 1.63591C38.7054 1.64325 37.193 1.64325 35.6806 1.63591C35.6806 2.21467 35.6888 2.79361 35.6724 3.37237C34.3888 3.37237 33.1052 3.38707 31.8216 3.36502C31.8216 2.78626 31.8462 2.20732 31.8136 1.62856C30.252 1.64325 28.6986 1.64325 27.1454 1.62856C27.1044 2.20732 27.1208 2.78626 27.129 3.36502C25.8618 3.38707 24.5864 3.37972 23.311 3.36502C23.2946 2.78626 23.3192 2.20732 23.2946 1.63591C21.7332 1.64325 20.1634 1.63591 18.5938 1.63591C18.6018 2.21467 18.6018 2.79361 18.5938 3.37237C17.3346 3.37972 16.0756 3.38707 14.8166 3.36502C14.8084 2.78626 14.833 2.20732 14.792 1.63591C13.2388 1.63591 11.6854 1.64325 10.132 1.62856C10.0994 2.20732 10.1158 2.78626 10.1238 3.35767C8.8484 3.39442 7.5732 3.37237 6.2978 3.37237C6.2814 2.79361 6.2978 2.21467 6.2896 1.63591C4.777 1.64325 3.2646 1.63591 1.7522 1.63591ZM2.2346 2.06823C2.2182 4.50068 2.2264 6.93313 2.2264 9.35841C3.7306 9.44623 5.2922 10.4134 5.5456 11.7982C5.5538 20.737 5.5456 29.6757 5.5538 38.6145C5.5374 38.7243 5.5782 38.8342 5.709 38.8563C10.7942 40.8345 15.855 42.842 20.94 44.8131C26.1234 42.8128 31.2902 40.7759 36.4654 38.7611C36.498 29.8956 36.4654 21.0301 36.4818 12.1572C36.539 10.6405 38.0842 9.43171 39.7356 9.35106C39.7602 6.92596 39.752 4.50068 39.7356 2.06823C38.542 2.08275 37.3566 2.07558 36.1628 2.06823C36.1628 2.64699 36.1956 3.21841 36.1466 3.79C34.5442 3.7753 32.9418 3.78265 31.3394 3.79C31.3312 3.21841 31.3556 2.64699 31.323 2.06823C30.0966 2.07558 28.8622 2.07558 27.6358 2.06823C27.6032 2.63964 27.6194 3.21841 27.6194 3.79C26.0252 3.78265 24.431 3.7753 22.8368 3.79C22.8122 3.21841 22.845 2.64699 22.8122 2.06823C21.5696 2.07558 20.3188 2.07558 19.076 2.06823C19.0598 2.64699 19.1006 3.21841 19.0516 3.79C17.4736 3.78265 15.904 3.7753 14.326 3.79C14.277 3.21841 14.318 2.64699 14.3016 2.06823C13.0588 2.07558 11.8162 2.07558 10.5736 2.06823C10.5572 2.64699 10.598 3.21841 10.549 3.79C8.9794 3.7753 7.4014 3.7753 5.8236 3.79C5.7826 3.21841 5.8154 2.64699 5.799 2.06823C4.6136 2.07558 3.42 2.07558 2.2346 2.06823ZM5.006 4.76452C5.0142 6.20058 5.006 7.63664 5.0142 9.06535C15.6832 9.058 26.3522 9.06535 37.0214 9.06535C37.005 7.63664 37.005 6.20793 37.0214 4.77187C36.7842 4.76452 36.5472 4.75717 36.31 4.75717C25.878 4.76452 15.438 4.74982 5.006 4.76452ZM6.9764 9.98108C6.9844 16.4801 6.9844 22.9716 6.9764 29.4633C16.2964 29.4925 25.6164 29.478 34.9448 29.4706C34.953 22.9716 34.961 16.4727 34.9366 9.98108C25.6164 9.98843 16.2964 9.98108 6.9764 9.98108ZM6.9764 34.8779C6.9844 36.1161 6.9844 37.3616 6.9764 38.5998C16.2964 38.6145 25.6164 38.5998 34.9366 38.6071C34.961 37.3616 34.953 36.1161 34.9366 34.8705C25.6164 34.8632 16.2964 34.8558 6.9764 34.8779ZM10.0584 39.523C13.5902 40.9152 17.1712 42.2193 20.7194 43.5821C20.9482 43.714 21.1854 43.5674 21.398 43.4942C24.9216 42.1607 28.478 40.8858 31.9852 39.523C24.6762 39.5083 17.3674 39.5083 10.0584 39.523ZM5.5128 5.21136C5.521 6.35436 5.521 7.49737 5.5048 8.64038C15.8386 8.66242 26.1642 8.64772 36.49 8.64772C36.5062 7.49737 36.5062 6.34702 36.49 5.19666C26.3768 5.18214 16.2556 5.19666 6.1424 5.18949C5.9298 5.18949 5.7172 5.19666 5.5128 5.21136ZM10.3774 6.2151C10.0994 6.39828 10.132 6.78669 10.3692 6.98457C10.6308 7.20432 11.0232 7.20432 11.3094 7.3875C11.4156 7.46081 11.3176 7.60724 11.203 7.62194C10.8596 7.70977 10.5244 7.54128 10.2302 7.40936C10.222 7.55598 10.222 7.7026 10.2138 7.84904C10.6634 8.01017 11.2112 8.12023 11.6526 7.87108C11.9716 7.72447 12.0206 7.27027 11.759 7.0577C11.4564 6.80139 10.9824 6.8159 10.6962 6.53755C11.0478 6.3031 11.481 6.46424 11.8326 6.58881V6.17853C11.3748 6.03191 10.7942 5.91469 10.3774 6.2151ZM17.5146 6.38376C17.114 6.70603 17.0812 7.32154 17.4736 7.65116C17.9806 8.12023 18.8226 8.09818 19.444 7.82699V7.4022C19.0352 7.54863 18.5446 7.71712 18.1278 7.50472C17.7844 7.35075 17.6862 6.88921 17.9888 6.66212C18.373 6.34702 18.978 6.43502 19.395 6.65477C19.403 6.49363 19.403 6.33232 19.3868 6.17118C18.7736 5.96613 18.005 5.95144 17.5146 6.38376ZM26.8592 6.04661C26.2052 6.11992 25.6164 6.71338 25.8618 7.32154C26.2542 8.28871 28.1182 8.23745 28.4206 7.22636C28.6088 6.45689 27.6276 5.89283 26.8592 6.04661ZM6.9764 6.07601C6.9844 6.72073 6.9844 7.3581 6.9764 8.003C7.1888 8.01017 7.3932 8.01017 7.5976 8.003V6.07601C7.3932 6.06866 7.1888 6.06866 6.9764 6.07601ZM8.0964 6.07601C8.0882 6.71338 8.08 7.35075 8.0964 7.98831H8.685C8.7014 7.72447 8.7014 7.46798 8.7014 7.20432C9.0448 7.21166 9.4616 7.27762 9.7152 7.01379C10.0502 6.73543 9.854 6.17118 9.4044 6.09788C8.9712 6.03192 8.5296 6.07601 8.0964 6.07601ZM12.037 6.08336C12.3722 6.69133 12.6664 7.31419 13.0016 7.92234C13.0426 8.05426 13.2878 8.05426 13.345 7.92969C13.574 7.56333 13.7456 7.18227 13.9908 6.8306C14.2688 7.21166 14.457 7.63664 14.7104 8.02487C14.7758 8.01752 14.9066 8.003 14.972 7.99565C15.2744 7.35075 15.626 6.72073 15.9448 6.08336C15.7404 6.08336 15.5198 6.02475 15.3236 6.10522C15.1272 6.41298 14.9964 6.75729 14.8084 7.06505C14.5878 6.74994 14.4242 6.40563 14.2362 6.06866C14.0726 6.06866 13.9092 6.06866 13.7456 6.07601C13.5658 6.40563 13.394 6.74994 13.1816 7.06505C12.9854 6.74994 12.8544 6.41298 12.6582 6.09788C12.462 6.03192 12.2414 6.07601 12.037 6.08336ZM16.1982 6.06866V8.01017C16.4108 8.01752 16.6234 8.01017 16.8278 7.99565C16.8196 7.3581 16.8196 6.72073 16.8278 6.08336C16.6234 6.06866 16.4108 6.06866 16.1982 6.06866ZM19.869 6.06866C19.861 6.71338 19.8528 7.35075 19.869 7.98831C20.0654 7.99565 20.2534 7.99565 20.4414 7.99565C20.4496 7.73181 20.4578 7.46798 20.466 7.20432C20.8338 7.21166 21.2018 7.21166 21.5696 7.20432C21.5614 7.46798 21.5696 7.73181 21.5778 7.98831C21.7658 7.98831 21.962 7.98831 22.15 7.98096C22.15 7.34358 22.1418 6.71338 22.15 6.07601C21.962 6.06866 21.7658 6.06866 21.5778 6.06866C21.5696 6.3178 21.5696 6.56694 21.5778 6.8159C21.2018 6.8453 20.8256 6.83795 20.4578 6.82325C20.4578 6.57411 20.4578 6.3178 20.4496 6.06866H19.869ZM23.409 6.08336C23.409 6.20058 23.4172 6.3178 23.4172 6.43502C23.687 6.43502 23.9568 6.43502 24.2266 6.44237C24.243 6.95517 24.2348 7.46798 24.2266 7.98096C24.431 7.98831 24.6354 7.98096 24.8398 7.98096C24.8234 7.46798 24.8234 6.95517 24.8398 6.44237C25.1096 6.43502 25.3876 6.43502 25.6574 6.42767V6.09053C24.9134 6.04661 24.1612 6.06131 23.409 6.08336ZM28.5188 6.07601C28.8212 6.73543 29.1728 7.3728 29.508 8.01752C29.5734 8.01017 29.7042 8.003 29.7696 8.003C29.9904 7.5999 30.2112 7.19697 30.4482 6.80856C30.7098 7.19697 30.906 7.61459 31.1432 8.01017C31.2086 8.01017 31.3394 8.003 31.4048 8.003C31.7482 7.36545 32.0834 6.72808 32.4022 6.08336C32.1896 6.08336 31.9606 6.0174 31.7726 6.11257C31.5928 6.42767 31.4702 6.76464 31.2576 7.06505C31.0532 6.75729 30.9142 6.42032 30.718 6.11257C30.5464 6.03926 30.2274 6.0027 30.1458 6.20793C29.974 6.49363 29.8514 6.80139 29.6306 7.06505C29.459 6.73543 29.2954 6.39828 29.1156 6.06866C28.9194 6.06866 28.7232 6.06866 28.5188 6.07601ZM32.6474 6.08336C32.6638 6.71338 32.6556 7.34358 32.6556 7.98096C32.8436 7.98096 33.0316 7.98831 33.2198 7.99565C33.236 7.5999 33.236 7.21166 33.2278 6.82325C33.6204 7.16757 33.9882 7.53394 34.3724 7.8856C34.5196 8.04692 34.7812 7.97361 34.9774 7.98096C34.961 7.34358 34.961 6.71338 34.9774 6.08336C34.7894 6.07601 34.6014 6.06866 34.4052 6.06866C34.397 6.43502 34.397 6.80856 34.4052 7.17492C34.0372 6.85265 33.6858 6.52285 33.3342 6.19323C33.1706 5.99535 32.8764 6.08336 32.6474 6.08336ZM26.9328 6.47894C26.4912 6.5155 26.2868 7.00643 26.4994 7.32889C26.7038 7.63664 27.1944 7.6879 27.5214 7.51942C27.8566 7.35075 27.9384 6.88921 27.6686 6.64742C27.4806 6.47159 27.1862 6.44237 26.9328 6.47894ZM8.6932 6.43502C8.6932 6.58146 8.7014 6.72808 8.7014 6.88187C8.9794 6.88187 9.3554 6.85265 9.29 6.5155C9.0938 6.44237 8.8976 6.42033 8.6932 6.43502ZM7.6058 10.4794C7.5894 16.4141 7.6058 22.3489 7.5976 28.2837C7.5894 28.5181 7.5976 28.7599 7.6222 28.9944C16.5334 28.987 25.4448 28.987 34.348 28.9944C34.3642 28.8332 34.3806 28.6646 34.3806 28.5034C34.3642 22.4953 34.3888 16.4874 34.3642 10.4794H7.6058ZM11.5872 10.8457C11.5628 11.1096 11.5954 11.4171 11.8816 11.5564C12.2168 11.3879 12.1106 11.0436 12.037 10.7724C11.8898 10.8018 11.7018 10.7432 11.5872 10.8457ZM13.0262 10.7651C12.9772 11.0581 12.928 11.3953 13.2306 11.5932C13.5412 11.4026 13.533 11.0802 13.4922 10.7798C13.3368 10.7798 13.1816 10.7724 13.0262 10.7651ZM10.1402 11.0581C10.1158 11.4612 10.5 11.6736 10.6472 12.0034C10.3446 12.1499 10.0258 12.3331 9.6824 12.3698C9.3472 11.9593 8.7912 11.8202 8.2598 11.7322C8.407 12.0839 8.5296 12.4429 8.7258 12.7801C8.8484 13.0364 8.5624 13.249 8.5296 13.4908C8.358 14.4067 8.6442 15.3077 8.734 16.2163C8.8076 17.0076 8.8566 17.8136 9.1264 18.5756C9.4862 18.9272 10.0584 19.081 10.5818 19.0665C10.6716 18.8027 10.4836 18.4363 10.7452 18.2605C11.1294 18.2458 11.0314 18.7148 11.1212 18.9419C11.3502 18.9052 11.5792 18.788 11.669 18.5829C11.7344 18.3411 11.3256 18.158 11.4974 17.9162C12.2004 17.4912 12.1514 16.5387 12.92 16.165C13.0752 16.6633 13.2796 17.1542 13.5412 17.6158C13.9418 18.4216 13.3286 19.2497 13.4514 20.0776C13.5658 21.0593 14.5304 21.7702 15.4952 22.0998C15.716 22.7884 16.2964 23.3014 16.648 23.9314C16.8606 24.2833 16.836 24.7154 17.1222 25.0305C17.441 25.4116 17.866 25.7412 18.005 26.2248C18.3648 27.0453 18.0214 27.9392 17.4982 28.6354C17.9314 28.6866 18.373 28.6793 18.8144 28.6719C19.117 28.6572 19.444 28.5255 19.5094 28.2396C19.5666 27.9465 19.8854 27.7928 20.008 27.5363C20.0816 26.8182 19.403 26.3128 19.0434 25.7338C18.7 25.4042 18.9616 24.9206 18.7164 24.5616C18.144 23.8289 18.749 22.9203 18.4956 22.1145C19.542 22.4514 20.703 22.6785 21.8066 22.3855C23.0902 22.1071 24.243 21.5137 25.4938 21.1473C25.4366 20.8175 24.7418 20.9494 24.7498 20.5757C25.1504 20.6271 25.5348 20.7956 25.829 21.0448C26.385 21.5137 26.9982 21.9239 27.6768 22.239C28.0854 22.4367 28.576 22.5174 28.9276 22.8105C29.3036 23.1035 29.7206 23.3453 30.1702 23.5285C30.718 23.7703 30.6934 24.415 30.53 24.8694C30.2848 25.4994 30.1948 26.1735 29.9086 26.7964C29.6798 27.2798 29.0094 27.4777 28.854 27.9906C29.4754 28.2396 30.2274 28.1883 30.857 28.0125C30.906 27.5875 31.274 27.3018 31.7154 27.1699C31.7726 26.6644 31.4946 26.1735 31.6092 25.6752C31.8462 24.6423 32.3286 23.6677 32.6148 22.642C31.7154 22.2317 30.5382 21.7187 30.5626 20.6637C29.8268 20.6343 29.0094 20.5685 28.4452 20.0923C27.9056 19.6892 27.8566 18.8321 28.3962 18.4071C29.3118 17.5718 30.6198 17.2714 31.7236 16.6851C31.5274 16.3555 31.1104 16.1576 30.996 15.7841C31.3884 15.6448 31.9198 15.5568 32.2304 15.894C32.533 16.1503 32.304 16.5608 32.018 16.7438C30.9306 17.4179 29.5244 17.6305 28.5842 18.5023C28.1836 18.8539 28.0692 19.5281 28.5024 19.8944C29.1074 20.4366 30.0394 20.4879 30.8488 20.4585C30.6036 20.0263 30.53 19.4915 30.857 19.0739C31.6254 18.092 33.048 17.7183 33.7266 16.6633C34.0128 16.2969 33.9228 15.74 33.514 15.4764C32.8272 14.9928 31.8708 15.022 31.0778 15.2564C30.8162 15.3444 30.5054 15.5056 30.2356 15.3371C29.4836 14.9048 28.6332 14.5605 27.7258 14.5531C25.551 14.4871 23.6054 15.6375 21.4306 15.5862C20.5232 15.5936 19.4276 15.381 18.9616 14.597C18.651 14.1355 17.997 13.9302 17.7434 13.4395C17.3592 13.454 17.0894 13.1464 16.795 12.9706C17.0648 12.6921 17.4492 12.5089 17.5228 12.106C17.3838 12.0547 17.253 12.0034 17.114 11.9593C16.8932 12.2158 16.697 12.5162 16.885 12.846C16.4436 12.9778 16.0838 12.6042 15.716 12.4429C15.855 12.0839 16.329 11.9301 16.3618 11.5125C16.231 11.4612 16.092 11.41 15.9612 11.3659C15.765 11.6003 15.6014 11.8642 15.7486 12.1572C15.716 12.2379 15.6588 12.3112 15.6096 12.3843C15.2172 12.3184 14.8576 12.1793 14.4978 12.0253C14.604 11.681 15.0374 11.4686 14.923 11.051C14.416 10.8604 14.1708 11.5125 14.4732 11.8056C14.4488 11.8715 14.416 11.9448 14.3834 12.0108C13.9908 11.9301 13.4514 12.0108 13.2142 11.6589C13.1816 11.6957 13.1162 11.7762 13.0834 11.8203C12.7156 11.7909 12.225 11.9522 11.9552 11.6589C11.7998 11.974 11.3176 11.8936 11.0068 11.9814C10.8106 12.0694 10.6062 11.8642 10.7044 11.6957C10.8434 11.4686 10.688 11.2268 10.6144 10.9995C10.459 11.0216 10.3038 11.0363 10.1402 11.0581ZM7.8348 12.2452C7.8756 12.6116 8.1372 12.9559 8.497 13.1244C8.6442 12.736 8.3008 12.2671 7.8348 12.2452ZM18.1686 12.5383C17.9396 12.7507 17.678 13.0145 17.817 13.3368C18.1768 13.2855 18.3976 13.0364 18.5528 12.7654C18.4302 12.6921 18.2994 12.6116 18.1686 12.5383ZM30.9142 20.1142C31.4292 19.6379 31.8626 19.0371 31.9852 18.3703C31.3148 18.7001 30.5382 19.3669 30.9142 20.1142ZM8.8566 20.6051C8.7096 20.7444 8.775 20.9494 8.8322 21.1107C9.1102 21.9532 9.6824 22.6932 9.9358 23.5505C10.0994 24.1072 9.568 24.6715 9.895 25.2063C10.3936 25.0526 10.8596 24.8181 11.3012 24.5616C11.383 24.2612 11.4484 23.9608 11.71 23.7337C11.1294 23.1695 10.8106 22.3708 10.8678 21.6088C11.4646 21.6382 11.9716 21.9605 12.5194 22.1292C13.394 22.4367 14.3834 22.5687 15.299 22.3195C14.4406 21.8506 13.533 21.2866 13.2552 20.3707C12.2496 20.2534 11.2358 20.1948 10.2302 20.2022C9.7478 20.2167 9.2 20.2608 8.8566 20.6051ZM25.1178 21.5502C25.3058 22.3122 25.7882 22.9716 26.197 23.6457C26.3522 23.8948 26.3932 24.2465 26.1888 24.4883C25.731 25.0526 25.1832 25.5507 24.758 26.1441C24.4066 26.6424 23.6952 26.8403 23.3846 27.3825C23.916 27.4337 24.4474 27.4264 24.9706 27.4484C25.3548 27.4777 25.3876 27.0161 25.6818 26.8915C25.87 26.8256 26.0744 26.8035 26.2706 26.7523C26.3604 25.6313 27.2516 24.7595 28.1346 24.0341C28.2572 23.9242 28.5024 23.7923 28.3798 23.6091C28.159 23.3087 28.0282 22.9644 27.9056 22.6199C27.1372 22.2756 26.434 21.8214 25.7554 21.3523C25.5266 21.3817 25.3222 21.4769 25.1178 21.5502ZM11.4238 25.0305C11.154 25.2063 10.7942 25.3236 10.7044 25.646C11.0314 25.8145 11.2194 25.4847 11.4402 25.3383C11.8408 25.0379 12.3476 24.9133 12.7972 24.7009C12.2986 24.5177 11.8244 24.7961 11.4238 25.0305ZM10.639 25.2796C10.876 25.1624 11.0968 25.0158 11.2848 24.8473C11.0478 24.9498 10.7288 25.0305 10.639 25.2796ZM13.1242 24.8694C12.4048 24.9939 11.6854 25.2723 11.2112 25.7851C11.391 25.9244 11.6282 25.9609 11.8326 25.8365C12.4294 25.5433 13.1324 25.3162 13.6966 25.0744C13.5168 24.9939 13.345 24.8253 13.1242 24.8694ZM13.6394 25.3309C12.9444 25.5433 12.225 25.7559 11.6446 26.1588C11.8326 26.408 12.1842 26.43 12.4948 26.4227C12.8054 26.3199 12.9526 25.9097 13.3368 25.9683C13.6802 26.005 13.9336 25.7559 14.2526 25.712C14.179 25.4702 13.9418 25.2063 13.6394 25.3309ZM10.2546 25.983C10.7288 26.7743 11.669 27.2579 12.601 27.4997C12.8708 27.2066 12.5438 26.8842 12.4376 26.6058C12.1188 26.5325 11.62 26.6277 11.4892 26.2834C11.3666 25.9683 10.9742 25.8658 10.639 25.8511C10.5818 25.7265 10.5164 25.5947 10.459 25.4702C10.312 25.5947 10.1158 25.7924 10.2546 25.983ZM13.713 26.0783C13.7702 26.6497 13.7374 27.2212 13.6476 27.7928C13.7784 27.7781 13.9092 27.7634 14.0482 27.7488C14.228 27.1699 14.1218 26.5691 14.0644 25.983C13.95 26.0197 13.8356 26.0489 13.713 26.0783ZM14.3342 25.9977C14.2934 26.496 14.3752 26.9867 14.3588 27.485C14.6122 27.0453 14.694 26.4153 14.3342 25.9977ZM10.0176 26.1441C9.8704 26.5105 10.0094 26.8915 10.32 27.148C10.4264 27.0088 10.5 26.8403 10.5326 26.6718C10.4182 26.4592 10.222 26.2834 10.0176 26.1441ZM12.6664 26.5985C12.7646 26.855 12.879 27.0894 12.9772 27.3384C12.642 27.5875 12.503 27.9612 12.4866 28.3423C12.2904 28.4375 11.9798 28.4742 11.9878 28.7305C12.2822 28.7305 12.642 28.8112 12.8872 28.6133C13.5004 27.9247 13.623 26.9941 13.5004 26.1369C13.1162 26.0563 12.9036 26.3859 12.6664 26.5985ZM10.5898 27.3751C11.0722 27.7634 11.7344 27.91 12.3722 27.9173C12.3884 27.822 12.413 27.7268 12.4294 27.6388C11.808 27.463 11.252 27.1625 10.7126 26.8403C10.6552 27.0161 10.5326 27.1919 10.5898 27.3751ZM10.0584 27.1772C10.083 27.4777 10.2138 27.8148 10.549 27.9173C10.9006 28.0345 11.2684 28.1224 11.571 28.3203C11.8326 28.5108 12.1922 28.3423 12.3476 28.1224C11.4892 28.0564 10.639 27.7781 10.0584 27.1772ZM13.5248 27.9392C13.4268 28.1224 13.3286 28.3129 13.2552 28.5108C13.574 28.4228 13.8682 28.2324 14.0072 27.9392C13.8438 27.9392 13.6802 27.932 13.5248 27.9392ZM10.876 28.2177C10.9904 28.5694 11.4728 28.606 11.7998 28.7013C11.571 28.4522 11.1948 28.3568 10.876 28.2177ZM8.9956 14.597C8.9058 14.8243 9.0448 15.0514 9.1592 15.2564C9.3226 15.0661 9.6006 14.8609 9.5026 14.5897C9.4454 14.3846 9.061 14.392 8.9956 14.597ZM9.249 18.2239C9.2654 18.3117 9.2818 18.3997 9.3064 18.4876C9.4534 18.6121 9.6416 18.6781 9.8214 18.7514C9.8132 18.4802 9.527 18.2899 9.249 18.2239ZM6.9764 31.2144V31.9984C7.4832 31.9911 7.9982 32.0129 8.497 32.0497C9.29 32.1083 9.9114 32.7091 10.7206 32.687C11.5792 32.6578 12.3068 32.1888 13.1406 32.0644C14.1708 31.8884 15.209 32.123 16.1902 32.4013C16.5988 32.5039 16.9914 32.6797 17.4164 32.687C18.6754 32.7238 19.771 31.9837 21.0218 32.0276C22.0274 32.0276 22.9512 32.4306 23.9078 32.6505C24.758 32.8337 25.5756 32.5039 26.3604 32.2621C27.0554 32.0423 27.7994 31.9911 28.527 32.0497C29.3772 32.1448 30.162 32.482 30.9878 32.687C31.4538 32.8116 31.9444 32.6358 32.3612 32.4379C33.1462 32.0497 34.0618 32.0058 34.9366 32.0058C34.953 31.7566 34.953 31.5148 34.9448 31.2657C34.258 31.251 33.514 31.2071 32.9008 31.5222C32.4348 31.7493 31.9362 31.947 31.4048 31.9617C30.7016 31.9617 30.0476 31.698 29.41 31.4636C28.4044 31.1191 27.2924 31.2657 26.2868 31.5367C25.731 31.6686 25.2158 31.9543 24.6272 31.9324C23.311 31.9911 22.1746 31.185 20.8666 31.2583C19.91 31.3022 19.0598 31.7493 18.1278 31.9031C16.8686 32.0644 15.7322 31.4415 14.5304 31.251C13.4022 31.1191 12.3394 31.5587 11.3012 31.8884C10.6552 32.0276 9.9604 31.8884 9.38 31.61C8.6522 31.251 7.7938 31.1703 6.9764 31.2144ZM7.6058 35.3027C7.5976 36.2698 7.5894 37.2297 7.6058 38.1895C16.5254 38.2042 25.4448 38.2042 34.3642 38.1895C34.3806 37.2297 34.3806 36.2625 34.3642 35.3027C25.4448 35.2882 16.5254 35.2882 7.6058 35.3027ZM8.8322 35.9841C8.8158 36.4751 8.8158 36.966 8.8322 37.4568C8.9874 37.4568 9.151 37.4568 9.3146 37.4496C9.3064 37.2517 9.3146 37.0612 9.3146 36.8633C9.5842 36.8707 9.8622 36.8633 10.132 36.8488V36.5776C9.854 36.5702 9.5842 36.5702 9.3146 36.5629C9.3146 36.4677 9.3226 36.3725 9.3226 36.2845C9.5924 36.2845 9.8622 36.2845 10.132 36.2698V35.9915C9.6988 35.9768 9.2654 35.9841 8.8322 35.9841ZM11.0804 36.0135C10.6308 36.1087 10.271 36.541 10.4508 36.9587C10.7616 37.5595 11.7508 37.6254 12.2904 37.237C12.601 37.0391 12.691 36.607 12.4376 36.3432C12.135 35.9694 11.5464 35.889 11.0804 36.0135ZM13.5248 36.0062C13.108 36.0867 12.7318 36.453 12.83 36.856C13.0834 37.7206 14.8248 37.684 14.9884 36.7828C15.0292 36.1234 14.1218 35.8303 13.5248 36.0062ZM15.0618 35.9841V36.2625C15.2826 36.2625 15.5034 36.2625 15.7242 36.2698C15.7404 36.6583 15.7404 37.0538 15.7322 37.4422C15.8958 37.4496 16.0594 37.4568 16.2228 37.4641C16.2392 37.0685 16.2392 36.673 16.2228 36.2845C16.4518 36.2698 16.6806 36.2553 16.9096 36.2553C16.9096 36.1673 16.9178 36.0793 16.9178 35.9915C16.2964 35.9768 15.675 35.9841 15.0618 35.9841ZM17.1794 35.9841C17.1712 36.4751 17.1712 36.966 17.1794 37.4568C17.6372 37.4422 18.1358 37.5374 18.5692 37.3689C18.8962 37.2005 18.79 36.7755 18.4874 36.6362C18.6754 36.4677 18.6754 36.1673 18.4056 36.0501C18.0214 35.9182 17.5882 36.0062 17.1794 35.9841ZM19.6484 35.9915C19.403 36.4751 19.1414 36.9587 18.8962 37.4496C19.0678 37.4568 19.2314 37.4568 19.403 37.4641C19.4522 37.3616 19.5012 37.2664 19.5584 37.1711H20.3596C20.4168 37.2591 20.474 37.3542 20.5476 37.4422C20.7112 37.4788 20.8746 37.4496 21.0382 37.4496C20.7848 36.944 20.4822 36.4751 20.2124 35.9841C20.0244 35.9841 19.8364 35.9841 19.6484 35.9915ZM21.259 35.9768C21.2426 36.4751 21.2508 36.966 21.259 37.4568C21.7412 37.4568 22.2318 37.4862 22.7142 37.4349V37.1711C22.3872 37.1784 22.0684 37.1784 21.7494 37.1637C21.7332 36.7755 21.7332 36.3797 21.7412 35.9841C21.5778 35.9841 21.4224 35.9841 21.259 35.9768ZM22.9594 35.9841C22.943 36.4751 22.943 36.966 22.9594 37.4568C23.4418 37.4641 23.916 37.4715 24.3984 37.4496C24.382 37.3542 24.3738 37.2591 24.3738 37.1637C24.055 37.1784 23.7362 37.1784 23.4172 37.1564C23.4254 36.7608 23.4254 36.3725 23.4172 35.9841H22.9594ZM25.5266 36.2772C25.2078 36.5484 25.2812 37.0538 25.6328 37.2736C26.0744 37.5595 26.6712 37.4935 27.1616 37.3616C27.1534 37.237 27.1698 37.1198 27.1698 37.0026C26.8102 37.1198 26.385 37.2591 26.0416 37.0538C25.7964 36.9366 25.7554 36.607 25.968 36.453C26.2868 36.1747 26.7856 36.2919 27.1454 36.4238C27.1454 36.2992 27.1372 36.182 27.1372 36.0574C26.6058 35.9182 25.9354 35.8816 25.5266 36.2772ZM27.5378 35.9768C27.5214 36.4677 27.5214 36.9587 27.5378 37.4568C28.02 37.4641 28.5024 37.4715 28.9848 37.4496C28.9684 37.3542 28.9602 37.2591 28.9602 37.1711C28.6496 37.1784 28.339 37.1784 28.0282 37.1637C28.02 36.7755 28.02 36.3797 28.0282 35.9915C27.8648 35.9841 27.7012 35.9841 27.5378 35.9768ZM29.2056 35.9841C29.2218 36.3652 29.1238 36.7828 29.2872 37.1492C29.6716 37.6034 30.6036 37.596 31.0124 37.1637C31.184 36.7973 31.086 36.3725 31.094 35.9768C30.9306 35.9841 30.767 35.9841 30.6036 35.9915C30.6036 36.2992 30.6444 36.6143 30.5872 36.9219C30.4728 37.2664 29.8186 37.2517 29.7206 36.9074C29.6716 36.5996 29.7042 36.2919 29.6878 35.9841H29.2056ZM31.4946 35.9841C31.4866 36.4751 31.4946 36.966 31.4946 37.4568C31.9526 37.4422 32.443 37.5374 32.8764 37.3689C33.2034 37.2005 33.1052 36.7755 32.7946 36.6436C32.9336 36.4898 33.0316 36.2406 32.811 36.1087C32.4266 35.8743 31.928 36.0207 31.4946 35.9841ZM11.3256 36.2992C11.0314 36.3358 10.827 36.6289 10.9332 36.878C11.1458 37.3103 12.0042 37.2444 12.0778 36.7608C12.1188 36.4091 11.6608 36.2186 11.3256 36.2992ZM13.6966 36.3066C13.4104 36.3579 13.2306 36.6656 13.3614 36.9074C13.5822 37.3324 14.506 37.215 14.4814 36.7095C14.4814 36.3652 14.0154 36.2186 13.6966 36.3066ZM17.6698 36.248C17.6698 36.3505 17.6698 36.4604 17.678 36.5629C17.8334 36.541 18.185 36.5996 18.144 36.3652C18.0378 36.2186 17.8252 36.2698 17.6698 36.248ZM17.6698 36.8341V37.1711C17.866 37.1711 18.0542 37.1637 18.2504 37.1418C18.2422 37.0538 18.2422 36.966 18.2504 36.8706C18.0542 36.856 17.858 36.8414 17.6698 36.8341ZM19.7138 36.9H20.2042C20.1388 36.7242 20.049 36.5556 19.9426 36.4018C19.8364 36.5556 19.7546 36.7242 19.7138 36.9ZM31.977 36.248C31.9852 36.3505 31.9852 36.4604 31.9852 36.5629C32.1488 36.541 32.484 36.5997 32.4512 36.3652C32.3532 36.2186 32.1406 36.2698 31.977 36.248ZM31.977 36.8341C31.977 36.9513 31.977 37.0612 31.9852 37.1711C32.1732 37.1711 32.3694 37.1637 32.5574 37.1418C32.5494 37.0538 32.5494 36.9587 32.5574 36.8707C32.3612 36.856 32.1732 36.8414 31.977 36.8341Z" stroke="#3A64A3" stroke-width="0.04"/>
</svg>
