<svg width="40" height="45" viewBox="0 0 40 45" fill="none" xmlns="http://www.w3.org/2000/svg">
<path d="M12.698 35.6334C12.698 35.6334 7.134 33.1078 4.4232 29.2333C4.4376 32.5626 4.256 36.7154 4.256 36.7154L12.7722 38.2297L12.698 35.6334Z" fill="white"/>
<path d="M27.4016 35.7021C27.4016 35.7021 32.9656 33.3751 35.6764 29.5014C35.662 32.8299 35.8442 36.7148 35.8442 36.7148L27.3274 38.2297L27.4016 35.7021Z" fill="white"/>
<path d="M12.66 34.4469H27.4616V40.5608H12.66V34.4469Z" fill="white"/>
<path d="M24.4648 34.8994C24.4648 37.0658 22.4984 38.824 20.073 38.824C17.6484 38.824 15.682 37.0658 15.682 34.8994C15.682 32.7316 17.6484 30.9742 20.073 30.9742C22.4984 30.9742 24.4648 32.7316 24.4648 34.8994Z" fill="white"/>
<path d="M2.3774 36.9482V31.2131L1.999 31.0846V30.3093L2.3774 30.1572V29.6167L1.999 29.4889V28.5641L3.242 27.4972V27.2447C3.242 27.2447 3.2838 27.023 3.6024 27.023H3.969C3.969 27.023 4.2558 27.0608 4.2558 27.2447V27.4802L5.5306 28.5674L5.5182 29.4922L5.1392 29.6135V30.1527L5.5262 30.3028V36.3964L2.3774 36.9482Z" fill="white"/>
<path d="M37.8706 36.9482V31.2131L38.249 31.0846V30.3093L37.8706 30.1572V29.6167L38.249 29.4889V28.5641L37.006 27.4972V27.2447C37.006 27.2447 36.9642 27.023 36.6456 27.023H36.2782C36.2782 27.023 35.9922 27.0608 35.9922 27.2447V27.4802L34.7174 28.5674L34.729 29.4922L35.108 29.6135V30.1527L34.7218 30.3028V36.3964L37.8706 36.9482Z" fill="white"/>
<path d="M19.688 45C16.6104 45 14.6434 44.0453 12.571 43.0391C11.473 42.5069 10.338 41.9557 9.0044 41.5508C5.2314 40.4042 2.747 41.8091 2.6432 41.8697L2.1404 41.1679C2.2584 41.0983 5.0824 39.4769 9.2982 40.7578C10.7056 41.1857 11.875 41.7537 13.007 42.3027C15.147 43.341 17.1652 44.3225 20.4884 44.1418C23.597 43.9729 25.7334 43.0168 27.7992 42.092C28.6796 41.6976 29.512 41.3252 30.3938 41.0251C30.4508 41.0056 30.5186 40.9815 30.5964 40.9542C31.7016 40.5583 35.0674 39.3569 37.9734 41.3596L37.4136 42.0249C34.9218 40.3072 32.026 41.3421 30.935 41.7314C30.8528 41.7608 30.7808 41.7868 30.7188 41.8078C29.8808 42.0935 29.068 42.4566 28.2084 42.8414C26.16 43.7577 23.8384 44.7973 20.5446 44.9765C20.25 44.9922 19.9646 45 19.688 45Z" fill="white"/>
<path d="M36.171 43.4891L35.5174 43.1082C35.3712 43.0228 34.9856 42.9687 34.5944 43.0253C34.5252 43.0351 34.4524 43.0501 34.3804 43.0644C34.0526 43.1303 33.644 43.2105 33.327 42.9804C33.1972 42.8858 33.041 42.7033 33.041 42.3681C33.0402 42.113 33.162 41.886 33.3832 41.7302C34.1052 41.2222 35.877 41.577 36.403 41.6976C36.7524 41.7843 37.1386 41.781 37.2144 41.7184C37.3938 39.9133 38.2044 38.6077 38.6604 38.0013C35.3848 36.2091 30.372 37.1827 28.4928 38.2686C25.692 39.8878 23.3566 40.8923 20.3744 40.904C17.833 40.9058 15.6764 39.9582 13.4002 38.9502C12.1254 38.3854 10.8082 37.8016 9.36 37.3614C6.315 36.4361 2.8512 37.4776 1.5354 37.953C2.0248 38.5621 2.7706 39.7575 2.8512 41.4686C2.9226 41.5483 3.3066 41.5685 3.6518 41.4994C4.1928 41.3996 5.9814 41.1223 6.6752 41.661C6.8878 41.8267 6.998 42.0576 6.9844 42.312C6.9662 42.6465 6.8012 42.8231 6.6658 42.9118C6.3372 43.1285 5.9338 43.0298 5.6088 42.9497C5.5368 42.9328 5.4662 42.9151 5.3984 42.9028C5.01 42.8284 4.6224 42.8657 4.471 42.9451L3.7994 43.2959L3.7736 42.3282C3.5084 42.3746 2.7568 42.4685 2.2928 42.1476C2.0688 41.9925 1.9434 41.77 1.931 41.5039C1.8274 39.316 0.481399 38.101 0.467599 38.0893L0 37.6758L0.588 37.4163C0.7846 37.3295 5.4682 35.3 9.6526 36.5711C11.1584 37.0289 12.5044 37.6255 13.8044 38.202C15.9724 39.1627 18.0202 40.0699 20.3398 40.0699H20.3708C23.1304 40.0594 25.3354 39.1046 27.997 37.5656C30.1976 36.2952 35.9534 35.2048 39.5886 37.5565L40 37.8232L39.6692 38.1689C39.6562 38.1819 38.3506 39.5808 38.1302 41.7785C38.1042 42.0439 37.9674 42.2611 37.7354 42.4059C37.2598 42.7033 36.5226 42.5818 36.2466 42.5219L36.171 43.4891Z" fill="white"/>
<path d="M6.623 41.6625C6.623 41.6625 6.1632 41.2451 5.9716 40.9386C5.5932 40.3315 2.634 41.5294 2.634 41.5294L3.441 41.6867" fill="white"/>
<path d="M33.2748 41.822C33.2748 41.822 33.7452 41.4145 33.9442 41.1126C34.3404 40.5138 37.2658 41.7743 37.2658 41.7743L36.4552 41.9146" fill="white"/>
<path d="M2.2898 41.6864C2.2898 41.6864 2.2258 40.0391 1.8178 39.3086C1.4094 38.5776 1.2458 37.842 1.2458 37.842C1.2458 37.842 3.7266 36.7117 5.3436 36.6844C6.9598 36.6571 10.9834 37.2895 12.2364 37.9149C13.4902 38.5411 16.8688 40.2183 18.6212 40.5608C20.3742 40.9031 23.2694 40.4955 25.0802 39.8212C26.891 39.1469 28.1022 37.9854 28.8356 37.6907C29.5692 37.396 31.9362 36.6211 33.528 36.492C35.1196 36.3617 37.0362 36.9518 38.1164 37.1364C39.1966 37.3209 39.0372 37.6907 39.0372 37.6907L37.7382 41.4328C37.7382 41.4328 35.6608 40.7936 34.268 40.757C32.8752 40.7199 30.506 41.6681 29.7716 41.9139C29.0388 42.1604 25.8116 43.3794 24.7726 43.7492C23.7334 44.1183 20.2236 44.9674 18.2234 44.5618C16.2238 44.1554 12.3386 42.3704 11.3226 41.9139C10.306 41.4581 6.6304 40.3619 6.1434 40.5711C5.6562 40.7798 2.2898 41.6864 2.2898 41.6864Z" fill="white"/>
<path d="M22.5692 27.8147C22.5772 27.8193 22.5858 27.822 22.593 27.8252L22.4706 27.8435L22.5692 27.8147ZM36.937 5.98087C36.8636 5.77741 36.481 5.62029 34.931 5.62029C34.3272 5.62029 33.7644 5.64238 33.7588 5.64238C33.7342 5.6431 33.7112 5.64763 33.6882 5.65342C32.729 5.71677 31.8132 5.91698 30.986 6.24244C32.0834 5.04431 33.7926 4.29564 34.8258 3.92655C34.8792 3.907 35.032 3.84383 35.0644 3.79875C35.114 3.72707 35.1992 3.66173 35.1292 3.54515C35.0088 3.34622 34.539 3.29463 34.225 3.29463C33.8878 3.29463 33.4086 3.33644 32.809 3.4179C32.5236 3.44723 32.242 3.48904 31.9724 3.54244C31.9602 3.54443 31.948 3.54696 31.9364 3.55095C30.746 3.79296 29.6198 4.27554 28.6796 4.94656C28.5476 5.04105 28.4208 5.13898 28.2962 5.23872L29.0536 4.07208C29.4636 3.46623 29.9066 2.90599 30.375 2.40766C30.4068 2.37454 30.4276 2.33399 30.437 2.29163C30.4558 2.20692 30.5624 2.07387 30.5018 2.00672C30.463 1.9649 30.3764 1.89449 30.2222 1.89449C30.0854 1.89449 29.6328 1.9363 27.897 3.12973C26.2636 4.16259 24.8636 5.50082 23.8418 7.00668C23.4318 7.6719 22.7148 8.90642 22.4764 9.77565C22.4626 9.68767 22.449 9.60024 22.4388 9.51553C22.3956 9.16653 22.3726 8.80469 22.366 8.3755C22.3582 7.86233 22.3834 7.40256 22.4064 7.10768C22.4166 6.98387 22.3906 6.69172 22.258 6.66293C22.1246 6.63307 21.9222 6.87363 21.8682 6.98767C21.0194 8.74658 20.796 10.2094 20.7498 11.082L20.4394 13.6481C20.404 13.8255 20.2564 14.6824 20.2564 14.6824C20.0206 14.3113 19.855 14.0362 19.6748 13.6338C19.6684 13.6202 19.6612 13.6077 19.6524 13.5947L19.3852 13.208C19.3786 13.1975 19.3708 13.187 19.362 13.1785C18.9572 12.743 18.5478 12.518 18.0744 12.2592C17.4094 11.8939 16.5822 11.4406 15.353 10.1532C14.675 9.4424 13.8888 8.00714 13.6352 7.01899C13.1322 5.06205 13.179 2.72208 13.757 0.620153C13.8096 0.480049 13.8462 0.223734 13.777 0.136304C13.7244 0.0696914 13.6258 0.0240754 13.5342 0.0240754C13.3534 0.0240754 13.1898 0.168162 12.0556 1.79928C12.0528 1.8038 12.05 1.80778 12.047 1.81231C11.3028 2.88572 10.7768 4.11317 10.5282 5.36525C10.4726 5.63785 10.4316 5.90973 10.4028 6.17981C10.1398 5.58753 9.9222 4.97462 9.752 4.34922C9.389 3.00899 9.2686 1.64867 9.4056 0.416694C9.4142 0.339763 9.4328 0.134313 9.3724 0.0794656C9.314 0.0293248 9.2332 0 9.149 0C8.899 0 8.515 0.291433 7.7158 2.22375C6.9556 4.06285 6.7106 5.74863 6.9484 7.59226C6.0852 6.57568 5.6962 5.14477 5.346 3.85686C5.2588 3.53719 5.1738 3.22349 5.0836 2.92355C5.039 2.77295 4.9186 2.40839 4.7674 2.47754C4.7566 2.48134 4.7464 2.48731 4.7364 2.49383C4.7356 2.49437 4.7342 2.49509 4.7328 2.49582C4.727 2.49908 4.722 2.50288 4.7168 2.50758C4.7096 2.51265 4.7024 2.51736 4.6968 2.52243C4.6658 2.54922 4.5562 2.86744 4.5374 2.90201C4.4892 2.98419 4.4574 3.1042 4.4388 3.27906C4.438 3.28739 4.4374 3.29536 4.4374 3.30386C4.4374 3.36378 4.433 3.42369 4.4294 3.48379C4.425 3.55022 4.42 3.61611 4.42 3.68272C4.317 4.64916 4.2356 7.1495 5.6536 9.76261L5.686 9.83049C5.7048 9.86959 5.7242 9.90941 5.7436 9.94924C5.8978 10.2432 6.0722 10.514 6.2394 10.7741C6.2948 10.8603 6.349 10.945 6.4022 11.0297C6.5982 11.3409 6.7698 11.5306 6.9462 11.7112C6.1458 11.5632 4.9626 11.3499 4.392 11.2724C4.26 11.2567 4.1346 11.3219 4.0872 11.4335C4.0402 11.5456 4.085 11.6721 4.1966 11.7373C4.673 12.0204 5.542 12.7292 6.4542 13.4975L6.4412 13.5007L8.0596 14.863L8.2072 14.9883C8.7354 15.4383 9.2838 15.9033 9.8076 16.3343L8.698 16.2346C8.5754 16.2215 8.4566 16.2867 8.4098 16.3912C8.3622 16.4954 8.396 16.6154 8.4932 16.6866L11.0758 18.5783L11.0736 18.5791L12.2034 19.3929C12.2114 19.4001 12.2178 19.4092 12.2272 19.4157L14.1662 20.8276C14.2138 20.8622 14.2736 20.8817 14.3348 20.8837L14.832 20.8955C13.7792 21.2914 12.8166 21.3044 11.6896 20.9627C10.8214 20.6993 9.9898 20.2889 9.2858 19.7757C9.1858 19.7028 8.93 19.567 8.827 19.6362C8.7238 19.7061 8.8002 19.9629 8.8486 20.0712C9.0682 20.5583 9.4732 20.9875 9.8826 21.3736C8.5466 21.2137 7.3274 20.8805 5.939 20.3052C5.8244 20.2576 5.6154 20.1351 5.5332 20.2205C5.4518 20.3067 5.5174 20.5793 5.5852 20.675C6.2134 21.5575 6.7172 22.1626 7.2172 22.6341C7.7432 23.129 8.437 23.6359 8.7786 23.821C8.8434 23.8576 9.0186 23.9514 9.85 23.9514C10.1642 23.9514 10.5138 23.9371 10.807 23.9117C10.8438 23.9085 10.8798 23.9052 10.9144 23.9025C10.085 24.168 9.3198 24.2665 8.6604 24.1914C8.5178 24.1726 8.1928 24.1856 8.159 24.3114C8.1258 24.4387 8.3946 24.6408 8.53 24.6845C9.5194 25.004 10.487 25.2224 11.4136 25.3327C11.7184 25.4103 12.5868 25.6158 13.522 25.69C13.5854 25.6953 13.6446 25.6953 13.7014 25.694C13.7786 25.7012 13.8556 25.7065 13.9298 25.7135C14.2886 25.7429 14.628 25.7722 14.9898 25.7722C15.2874 25.7722 15.5814 25.7521 15.8868 25.709C15.8898 25.7423 15.8992 25.7749 15.9164 25.8055L16.0792 26.0951C16.0202 26.1042 15.9626 26.1302 15.92 26.1726C15.8378 26.2522 15.8206 26.371 15.8776 26.4667L16.2284 27.0603C16.2364 27.0739 16.2458 27.0876 16.2566 27.0994C16.2594 27.1014 16.2674 27.1111 16.2824 27.1274C16.2674 27.1332 16.253 27.1417 16.2386 27.1502C16.1434 27.2102 16.0994 27.3186 16.1276 27.4203C16.3092 28.0816 16.6622 28.3136 16.9208 28.484C17.0974 28.5993 17.204 28.6691 17.2596 28.8503C17.297 28.9703 17.3576 29.1046 17.421 29.2489C17.555 29.5514 17.7568 30.0086 17.6306 30.1898C17.4612 30.4346 17.3452 30.505 17.1514 30.621C17.0312 30.6939 16.8812 30.7854 16.6982 30.9334C16.2594 31.2908 16.2284 31.7648 16.6074 32.3439L16.6304 32.3779C16.6882 32.4699 16.8042 32.5187 16.9202 32.5025C17.0362 32.4849 17.1276 32.4045 17.1508 32.2995C17.2386 31.8914 17.98 31.5679 18.125 31.5594C18.38 31.5438 18.6214 31.5288 18.787 31.3787C19.0574 31.1349 20.5222 31.1199 20.5222 31.1199C20.5222 31.1199 20.6936 31.1251 20.9638 31.1753C21.0158 31.1988 21.069 31.2196 21.1166 31.2471C21.1634 31.2745 21.2132 31.2888 21.2686 31.2855C21.3004 31.2855 21.7918 31.4649 21.8322 31.5072C21.905 31.5849 22.7358 32.0009 22.8322 32.0479C22.8884 32.0745 23.372 32.6583 23.4418 32.6583C23.5542 32.8084 23.5968 32.7666 23.5996 32.6132C23.9146 32.4451 24.1978 32.07 24.3066 31.6703C24.4154 31.2717 24.3498 30.8929 24.1192 30.5741C24.1062 30.5558 24.091 30.5395 24.073 30.5251C24.024 30.4847 23.8966 30.3927 23.7466 30.2858C23.542 30.1404 23.2004 29.8971 23.1314 29.8254C22.9238 29.6108 22.823 29.3773 22.7228 29.1119C22.802 29.1074 22.8762 29.0728 22.9266 29.0154C22.9792 28.9553 22.9988 28.8751 22.98 28.8002L22.9426 28.6534C22.8848 28.4291 22.8194 28.1755 22.7668 27.8969L22.7632 27.8826C22.7754 27.8839 22.7868 27.8846 22.7984 27.8846C22.7992 27.8846 22.8006 27.8839 22.8028 27.8846C22.9584 27.8846 23.0844 27.7704 23.0844 27.6296C23.0844 27.582 23.07 27.5376 23.0456 27.4998L22.7342 26.7374C22.7632 26.7669 22.784 26.7882 22.7934 26.7974C22.8704 26.8704 23.0564 26.9951 23.1622 26.9605C23.2668 26.9278 23.2704 26.7426 23.279 26.6421C23.323 26.1335 23.7524 25.6183 24.2158 25.3164C24.2416 25.3855 24.2668 25.4319 24.2734 25.4429C24.3216 25.5284 24.326 25.7143 24.4318 25.7143C24.4334 25.7143 24.4356 25.7143 24.4376 25.7135C24.5444 25.7123 24.625 25.578 24.7784 25.4344C24.9724 25.2518 25.1352 25.0941 25.339 25.0398L26.311 25.3941C26.3688 25.5512 26.489 25.8068 26.701 25.9621C26.8832 26.0951 27.0604 26.1961 27.3818 26.3808C27.4158 26.4003 27.4518 26.4206 27.49 26.4427C27.4604 26.4557 27.4286 26.4687 27.392 26.4805C27.281 26.5163 26.9618 26.6115 26.961 26.7185C26.961 26.8248 27.278 26.9213 27.389 26.9585C27.6044 27.0315 27.8422 27.0706 28.075 27.0706C28.5534 27.0706 28.972 26.9155 29.225 26.6461C29.4332 26.4238 29.5132 26.142 29.4564 25.8328C29.4138 25.6013 29.313 25.03 29.2804 24.8461L29.5434 24.0669C29.5514 24.0428 29.5558 24.0167 29.5558 23.9912C29.5536 23.6221 29.4368 23.2099 29.2098 22.7659L29.199 22.7366C29.189 22.7058 29.1716 22.6785 29.1508 22.655C29.1386 22.6314 29.1262 22.6113 29.1154 22.5923C29.0542 22.471 28.9794 22.3498 28.8834 22.2167C28.1866 21.1772 27.1952 20.33 27.1534 20.2942C27.0692 20.2232 26.9034 20.0985 26.799 20.1423C26.6944 20.1866 26.6728 20.3906 26.6794 20.4951L26.683 20.5505C26.6152 20.4044 26.3558 20.1599 26.2982 20.0817C26.1728 19.912 26.0798 19.7386 26.046 19.6141C26.8824 16.1113 29.4426 13.7793 29.4678 13.7558C29.514 13.714 29.5434 13.6593 29.5492 13.5999C30.104 8.5882 36.4284 6.382 36.4924 6.36046C36.5162 6.35249 36.6798 6.30634 36.7 6.2933C36.9198 6.1465 36.955 6.03101 36.937 5.98087Z" fill="white"/>
<path d="M19.6922 44.7279C16.6752 44.7279 14.737 43.787 12.6942 42.7956C11.586 42.2584 10.4418 41.7034 9.0864 41.2912C5.1694 40.1003 2.5258 41.6205 2.499 41.6355L2.2836 41.3361C2.3974 41.2697 5.1146 39.7077 9.2124 40.9527C10.5988 41.3739 11.7582 41.9369 12.8808 42.4807C15.0548 43.536 17.1076 44.533 20.5036 44.3485C23.6646 44.1762 25.8248 43.2098 27.9144 42.2739C28.7892 41.882 29.6156 41.5122 30.486 41.2163C30.5444 41.196 30.6136 41.1719 30.6922 41.1439C31.8774 40.7205 35.0248 39.5975 37.8112 41.5175L37.572 41.8019C34.9628 40.0031 31.9654 41.0727 30.837 41.4764C30.7562 41.5045 30.685 41.5305 30.6244 41.5508C29.7734 41.8402 28.9548 42.2061 28.0894 42.5949C26.064 43.5014 23.7684 44.5285 20.5272 44.7046C20.2398 44.7202 19.9616 44.7279 19.6922 44.7279Z" fill="#292D6B"/>
<path d="M19.2822 41.9106L19.1928 41.9079L19.1712 42.5027L19.2526 42.5053C19.494 42.5118 19.6286 42.4198 19.6366 42.2113C19.6446 42.0182 19.5228 41.9177 19.2822 41.9106Z" fill="#1B458F"/>
<path d="M21.2708 42.6988L21.7182 42.6434L21.3948 41.9762L21.2708 42.6988Z" fill="#1B458F"/>
<path d="M14.6756 41.6422L14.827 40.9268L14.2728 41.459L14.6756 41.6422Z" fill="#1B458F"/>
<path d="M6.6478 38.0335L6.5022 38.0257L6.4626 38.6191L6.6118 38.6276C6.846 38.6401 6.9808 38.5376 6.9936 38.342C7.006 38.1561 6.882 38.0458 6.6478 38.0335Z" fill="#1B458F"/>
<path d="M25.6124 41.5828L26.0238 41.4147L25.5044 40.8577L25.6124 41.5828Z" fill="#1B458F"/>
<path d="M36.4286 40.0518C36.2382 40.0656 36.0726 39.9378 36.056 39.7662C36.0408 39.594 36.182 39.4434 36.373 39.4291C36.5626 39.4148 36.729 39.5432 36.7442 39.7148C36.7606 39.8869 36.618 40.0375 36.4286 40.0518ZM35.888 38.2858C35.7684 38.1803 35.625 38.0954 35.4342 38.0766C35.099 38.044 34.8534 38.2493 34.8088 38.6263C34.7626 39.0104 34.973 39.2537 35.3116 39.2869C35.4818 39.3033 35.6396 39.264 35.8232 39.1916L35.852 39.7311C35.6438 39.8007 35.4284 39.838 35.1424 39.81C34.3972 39.7369 34.0038 39.2622 34.0874 38.5592C34.1688 37.8757 34.6934 37.4642 35.4492 37.5384C35.6964 37.5627 35.8924 37.6271 36.0552 37.7238L35.888 38.2858ZM33.6032 39.7396C33.4138 39.7531 33.2472 39.6253 33.2314 39.4539C33.2162 39.2818 33.3568 39.131 33.5478 39.1167C33.7372 39.1029 33.9036 39.2309 33.9196 39.4031C33.9346 39.5745 33.7942 39.7258 33.6032 39.7396ZM32.5866 39.8804L31.8812 40.0142L31.3774 37.8444L32.8928 37.5567L33.016 38.0851L32.206 38.2382L32.2868 38.5878L32.8704 38.4775L33.0894 38.9837L32.4086 39.1129L32.5866 39.8804ZM29.4378 40.8789L28.5118 38.8258L30.0076 38.2735L30.2238 38.7521L29.3852 39.0613L29.5176 39.356L30.1526 39.1227L30.448 39.5647L29.731 39.8295L29.8794 40.157L30.747 39.8368L30.9632 40.3154L29.4378 40.8789ZM28.5652 41.3033C27.8914 41.6007 27.279 41.3875 26.9374 40.7516C26.6046 40.1327 26.807 39.5314 27.4908 39.2315C27.7142 39.133 27.918 39.0932 28.1134 39.0964L28.3014 39.6529C28.1386 39.6215 27.967 39.6183 27.7956 39.6945C27.4916 39.8283 27.4044 40.121 27.5874 40.4622C27.7732 40.809 28.0954 40.9134 28.4016 40.7784C28.555 40.7112 28.666 40.6017 28.7792 40.4517L29.12 40.8952C28.9844 41.055 28.8246 41.1898 28.5652 41.3033ZM26.7082 42.1154L26.3992 41.8075L25.6966 42.0951L25.7556 42.4792L25.1152 42.7413L24.873 40.3968L25.6138 40.0936L27.3308 41.7476L26.7082 42.1154ZM23.3736 43.2364L22.6502 41.1182L23.3454 40.9232L23.8874 42.5073L24.5488 42.3221L24.8262 42.83L23.3736 43.2364ZM22.1544 43.4913L21.9548 43.1169L21.191 43.2121L21.1276 43.5962L20.43 43.6831L20.9344 41.3712L21.74 41.2715L22.8678 43.2996L22.1544 43.4913ZM19.2736 42.9846L19.1598 42.9813L19.1352 43.6466L18.4118 43.6243L18.494 41.4071L19.342 41.4326C19.974 41.4521 20.3522 41.7117 20.3328 42.2229C20.3134 42.7458 19.8912 43.0036 19.2736 42.9846ZM17.0414 43.4065L15.5966 42.9833L16.3488 40.8749L17.0414 41.0771L16.4778 42.6546L17.1372 42.847L17.0414 43.4065ZM15.2126 42.7721L14.505 42.5646L14.5742 42.1537L13.886 41.84L13.5928 42.1244L12.9644 41.8381L14.825 40.1928L15.552 40.5234L15.2126 42.7721ZM11.8958 41.3028L12.7526 39.8223L12.1704 39.5459L12.4514 39.0626L14.1974 39.8902L14.005 40.4158L13.3976 40.1282L12.5408 41.6085L11.8958 41.3028ZM11.145 39.4194C11.5846 39.7709 11.72 40.016 11.5622 40.3492C11.3346 40.8305 10.8598 40.8631 10.4028 40.6857C10.0728 40.5579 9.8344 40.3923 9.6248 40.1928L9.9562 39.7369C10.1644 39.9573 10.4058 40.142 10.6306 40.2292C10.761 40.2801 10.8648 40.271 10.9072 40.1831C10.9476 40.0976 10.9124 40.035 10.6514 39.8178C10.261 39.4923 10.1168 39.2753 10.2862 38.9178C10.4844 38.4991 10.9454 38.4299 11.3894 38.6023C11.7158 38.7281 11.8902 38.8559 12.068 39.0365L11.738 39.4878C11.558 39.2823 11.354 39.133 11.184 39.0671C11.0506 39.0157 10.9656 39.0313 10.9326 39.1024C10.8944 39.1819 10.9268 39.2432 11.145 39.4194ZM8.9322 40.157L8.2304 39.9841L8.4552 39.2342L8.0452 37.708L8.817 37.8072L9.0158 38.7386L9.691 38.0453L10.421 38.2252L9.1614 39.3938L8.9322 40.157ZM6.9528 39.8152L6.5502 39.0816L6.4398 39.0756L6.3944 39.7616L5.6746 39.7226L5.8216 37.5086L6.7576 37.5594C7.3888 37.594 7.7332 37.8672 7.7022 38.342C7.682 38.6406 7.5192 38.8441 7.234 38.9576L7.726 39.7506L6.9528 39.8152ZM4.6904 39.8824C3.954 40.0095 3.425 39.6594 3.2788 38.9641C3.1362 38.2886 3.505 37.7564 4.2522 37.6271C4.4966 37.5855 4.704 37.5953 4.8922 37.6449L4.9138 38.2272C4.7652 38.1581 4.6002 38.1144 4.4116 38.1463C4.08 38.2044 3.9108 38.466 3.9892 38.8383C4.0692 39.2172 4.3496 39.3953 4.6846 39.3372C4.8518 39.3084 4.9908 39.2289 5.1428 39.1109L5.3446 39.6196C5.1674 39.7421 4.9728 39.8341 4.6904 39.8824ZM28.2452 37.9175C25.4704 39.5204 23.2122 40.4765 20.3724 40.487C16.5334 40.5 13.5582 38.1979 9.5066 36.9659C5.4534 35.7346 0.789999 37.791 0.789999 37.791C0.789999 37.791 2.2786 39.1069 2.391 41.4867C2.391 41.4867 5.096 39.8902 9.1492 41.1214C13.2016 42.3534 15.3012 44.8107 20.5152 44.5263C25.056 44.2798 27.6384 42.3768 30.5552 41.3835C31.4604 41.0758 34.7964 39.6717 37.6822 41.6536C37.9452 39.3345 39.3216 37.8959 39.3216 37.8959C35.868 35.6622 30.2836 36.7396 28.2452 37.9175Z" fill="#1B458F"/>
<path d="M4.964 42.2725C5.1686 42.2725 5.3674 42.294 5.5318 42.3246C5.611 42.3404 5.6954 42.3605 5.7788 42.3807C5.9598 42.4244 6.2062 42.4864 6.2826 42.4356C6.3106 42.4166 6.3294 42.3612 6.3338 42.2843C6.3374 42.2099 6.3122 42.1557 6.2508 42.1089C5.972 41.8916 5.134 41.9054 4.4164 41.9841L4.4258 42.3311C4.595 42.2888 4.7816 42.2725 4.964 42.2725ZM34.5362 42.0553C34.2062 42.0553 33.9272 42.0938 33.7838 42.1956C33.7204 42.2399 33.6916 42.2933 33.6916 42.3677C33.6924 42.4454 33.7082 42.5013 33.7356 42.521C33.8084 42.5744 34.0584 42.5256 34.24 42.4883C34.325 42.472 34.41 42.4551 34.4914 42.4434C34.8034 42.3978 35.2408 42.393 35.5954 42.4975L35.622 42.1512C35.2632 42.0951 34.8726 42.0553 34.5362 42.0553ZM35.9348 43.0615L35.663 42.9031C35.4404 42.7734 34.9728 42.7238 34.5512 42.7851C34.4778 42.7954 34.4006 42.8117 34.3228 42.8268C34.0216 42.8861 33.7118 42.948 33.4956 42.7916C33.3724 42.7017 33.3104 42.5594 33.3104 42.3677C33.3098 42.1871 33.3918 42.0332 33.549 41.923C34.2026 41.4612 36.1198 41.8844 36.3368 41.934C36.5262 41.9816 37.1136 42.0788 37.365 41.9202C37.4356 41.8766 37.4724 41.8147 37.4818 41.7253C37.682 39.7318 38.6794 38.3707 39.0438 37.9331C35.7186 35.9258 30.4232 36.919 28.3438 38.0654C25.976 39.3723 23.4086 40.6479 20.373 40.6597H20.3384C17.869 40.6597 15.7556 39.7226 13.5184 38.7313C12.2364 38.1626 10.9106 37.5757 9.4458 37.1303C6.0202 36.0902 2.0948 37.4648 1.1076 37.8509C1.5212 38.2976 2.4902 39.5414 2.5826 41.4787C2.5862 41.5682 2.6208 41.6313 2.6884 41.6784C2.9334 41.8473 3.5228 41.7756 3.711 41.7371C3.9328 41.696 5.8696 41.3562 6.4994 41.846C6.6508 41.9628 6.725 42.1199 6.7156 42.3005C6.7048 42.4915 6.635 42.6311 6.508 42.7147C6.2832 42.8633 5.9764 42.7877 5.6788 42.7147C5.6024 42.6964 5.526 42.6774 5.454 42.6638C5.0352 42.5842 4.5662 42.6135 4.3364 42.7328L4.0576 42.8796L4.0358 42.0345C3.9494 42.0475 3.8672 42.0613 3.7908 42.0756C3.7038 42.0931 2.8866 42.251 2.4572 41.9543C2.298 41.844 2.2092 41.6855 2.2006 41.4938C2.0918 39.2099 0.670201 37.9278 0.655801 37.9148L0.462 37.7426L0.705399 37.6356C0.898599 37.5497 5.4864 35.5625 9.5676 36.8015C11.0562 37.2548 12.3928 37.8476 13.6862 38.4202C15.8824 39.3938 17.9576 40.3134 20.339 40.3134H20.3716C23.0218 40.3036 25.3116 39.3326 28.1456 37.77C30.336 36.561 35.9822 35.5227 39.4322 37.7551L39.6024 37.8659L39.4648 38.0087C39.4524 38.0237 38.0914 39.4735 37.863 41.7573C37.8428 41.9478 37.747 42.1023 37.5818 42.2046C37.1374 42.4832 36.3288 42.2908 36.238 42.268C36.1646 42.2517 36.0846 42.2339 36.0002 42.2176L35.9348 43.0615Z" fill="#C4122E"/>
<path d="M19.6942 44.7547C16.678 44.7547 14.7404 43.8144 12.6984 42.8231C11.5908 42.2857 10.4444 41.73 9.0898 41.318C5.1816 40.1304 2.5228 41.648 2.4968 41.6636L2.2886 41.3739C2.4016 41.3062 5.1196 39.7463 9.2116 40.9905C10.598 41.4118 11.7574 41.9747 12.8792 42.5185C15.0538 43.5736 17.1074 44.5701 20.5056 44.3864C23.6674 44.2148 25.829 43.2469 27.9192 42.3118C28.7934 41.9199 29.6198 41.5501 30.4896 41.2547C30.5478 41.2344 30.617 41.2096 30.6956 41.1817C31.8802 40.759 35.0254 39.6353 37.8088 41.5553L37.5776 41.8299C34.9642 40.0292 31.9644 41.1008 30.836 41.5037C30.7546 41.5318 30.684 41.5578 30.6242 41.5788C29.7726 41.8677 28.954 42.2341 28.0886 42.6215C26.0632 43.5287 23.7674 44.5558 20.5278 44.7319C20.241 44.7475 19.963 44.7547 19.6942 44.7547Z" fill="#C4122E"/>
<path d="M6.32 42.1626C5.4034 41.4844 5.0482 40.8264 5.0332 40.7976L5.3768 40.6477C5.3812 40.6548 5.7154 41.2684 6.5622 41.8953L6.32 42.1626Z" fill="#C4122E"/>
<path d="M33.737 42.2345L33.5122 41.9546C34.4986 41.3059 34.6162 40.6146 34.6168 40.6073L34.9958 40.6557C34.99 40.6895 34.8532 41.5001 33.737 42.2345Z" fill="#C4122E"/>
<path d="M24.3688 23.9277C24.3984 23.9537 24.425 23.9778 24.4496 23.9981C24.4496 23.9981 24.4374 23.968 24.3688 23.9277Z" fill="#27409B"/>
<path d="M22.326 10.4744C22.267 10.218 22.205 9.89928 22.1582 9.54377C22.195 9.83791 22.2482 10.1451 22.326 10.4744Z" fill="#27409B"/>
<path fill-rule="evenodd" clip-rule="evenodd" d="M22.1584 9.54395H22.3262V10.4745H22.1584V9.54395Z" fill="black"/>
<path d="M22.326 10.4744C22.267 10.218 22.205 9.89928 22.1582 9.54377C22.195 9.83791 22.2482 10.1451 22.326 10.4744Z" fill="white"/>
<path d="M28.8648 26.291C28.7618 26.409 28.5976 26.5127 28.4224 26.5819C28.2294 26.6588 28.0226 26.6941 27.867 26.6588C27.8706 26.6575 27.8742 26.6555 27.8784 26.6537C27.895 26.6465 27.9094 26.6392 27.9246 26.6315C27.9354 26.6257 27.9484 26.6204 27.9592 26.6144C28.3512 26.3947 28.1392 25.9805 27.7322 25.558L27.725 25.5568L26.7926 24.8231L26.7428 24.7833L26.7284 24.7723L26.7378 24.7695L26.7666 24.761L26.7738 24.7598L26.8084 24.7493L26.949 24.8204L27.4238 25.063L27.459 25.08L27.6694 25.1877L27.8978 25.3043C27.8986 25.3043 27.8994 25.3037 27.9 25.3037C27.9016 25.303 27.903 25.303 27.9052 25.3025C28.1192 25.2574 28.3598 25.2033 28.3958 25.1942C28.5558 25.1564 28.6458 25.1153 28.6948 25.0813C28.6984 25.1113 29.1012 26.0191 28.8648 26.291ZM27.818 26.111L27.2386 25.6846L27.178 25.5157L27.163 25.4713L27.0786 25.2404L27.0772 25.2333C27.3488 25.3787 27.5636 25.6408 27.704 25.8502C27.7336 25.8953 27.8842 26.1599 27.8842 26.1599L27.818 26.111ZM26.0612 24.0249L25.6296 23.3218L24.5272 22.8189L25.4278 23.7646C24.9538 23.5195 24.1452 23.1301 23.269 22.9828C23.269 22.9828 24.0142 23.6127 24.3694 23.9277C24.437 23.9675 24.4494 23.9988 24.4494 23.9988C24.4256 23.9778 24.3982 23.9537 24.3694 23.9277C24.2642 23.8663 24.0264 23.7841 23.4816 23.7561C22.9766 23.7099 22.3778 23.5899 21.8338 23.3128C21.8338 23.3128 21.9418 23.4568 22.1644 23.6303C22.1674 23.633 22.171 23.6348 22.1738 23.6368C22.1746 23.6375 22.1752 23.6388 22.1768 23.6395C22.385 23.7999 22.6912 23.9825 23.104 24.1038C23.1358 24.1136 23.5494 24.2681 23.5826 24.2765C23.285 24.3842 23.0356 24.5127 22.8274 24.6588C22.4246 24.9397 22.1752 25.2782 22.0262 25.6227C21.7688 26.218 21.5332 27.2934 21.7148 27.9063C21.1442 27.2125 20.6404 26.3185 20.9208 25.3063C20.0518 25.749 19.492 25.6044 18.8896 25.5242C18.6114 25.8632 18.244 26.6778 18.1972 27.3761C18.146 27.3025 18.0984 27.2223 18.0544 27.1388C17.8296 26.7051 17.715 26.2095 17.687 25.7334C17.6732 25.5437 17.6748 25.3604 17.6912 25.1928V25.1915L19.6772 23.9166L16.7884 23.6974C16.7892 23.6961 16.7898 23.6961 16.7898 23.6961C16.8374 23.6641 16.8872 23.633 16.9354 23.6009C18.0472 22.8926 19.4192 22.4042 20.7962 22.4596C20.9028 22.4629 21.0094 22.4707 21.116 22.4819C20.229 22.0324 18.672 22.054 17.749 22.3155C16.4958 22.6696 15.9988 22.6912 14.6578 22.4759C16.0658 22.2183 16.0146 22.1838 16.8496 21.8265C17.5356 21.4789 18.8384 20.8372 20.4812 21.1111C20.0784 20.9512 19.7348 20.8012 19.2456 20.6957C18.7678 20.5965 17.9888 20.5 17.1552 20.6616C17.1552 20.6616 17.7222 20.1126 18.7822 19.9776C17.336 18.7972 13.0632 16.9451 13.0632 16.9451C19.1302 18.2417 21.709 20.8189 22.0938 21.2356C22.1198 21.2539 22.1442 21.2722 22.1688 21.2897C21.9404 20.8189 20.5952 17.9794 16.9074 15.9004C16.3964 15.6121 15.8322 15.4086 15.3112 15.1355C14.479 14.6972 13.7096 14.2119 13.0098 13.6805L13.0134 13.6908C6.1524 8.75925 8.706 1.97305 8.706 1.97305C8.484 3.54733 8.7788 5.08902 9.2824 6.46183C9.6024 7.33305 10.0066 8.13458 10.4174 8.83238C10.8792 9.61617 11.3482 10.2684 11.7158 10.7379C12.5696 11.6823 13.5834 12.4896 14.758 13.0726C14.758 13.0726 9.58 9.88099 12.5214 3.07723C12.4068 3.36794 10.3704 8.82062 18.0212 13.5695C18.169 13.6597 18.2764 13.6564 18.3204 13.7534C19.3378 15.9714 23.2582 19.5028 23.989 21.2016C23.9558 20.854 23.9234 20.5065 23.8902 20.1595C24.329 20.5867 24.6728 21.1156 24.8528 21.6758C24.886 21.3328 24.9198 20.8117 24.9522 20.4687C25.5856 20.7836 26.5252 21.4416 27.3006 22.1988C27.3006 22.1988 27.292 22.191 27.2796 22.1785C27.2516 22.1512 27.2264 22.1264 27.2026 22.1036C27.214 22.1146 27.2256 22.1258 27.2358 22.1356C27.243 22.1427 27.248 22.1479 27.2538 22.1537C27.2646 22.1637 27.2724 22.1715 27.2796 22.1785C27.2868 22.1865 27.2926 22.191 27.3006 22.1988L27.2666 21.6947L27.2502 21.4599C27.2502 21.4599 28.4218 22.7636 28.8202 23.7718C28.8426 23.8292 28.8634 23.8858 28.88 23.9407C28.8728 24.2243 28.8282 24.4148 28.7762 24.5408C28.7316 24.6475 28.5536 24.8237 28.5146 24.8497C28.4866 24.8693 28.4686 24.8753 28.4686 24.8753C28.5234 24.8374 28.5348 24.746 28.5356 24.6613C28.5364 24.5543 28.511 24.4428 28.4672 24.3157C28.426 24.1963 28.3764 24.0822 28.3352 23.9948C28.2906 23.8989 28.256 23.8357 28.256 23.8357C28.2806 24.0697 28.2676 24.2414 28.2372 24.3652C28.2372 24.3684 28.2366 24.3724 28.2352 24.3764C28.176 24.6097 28.0572 24.6711 28.0254 24.6836C28.0212 24.6854 28.0176 24.6868 28.0176 24.6868C28.0088 24.649 27.9994 24.613 27.9894 24.5804C27.957 24.495 27.9202 24.4115 27.8842 24.3293C27.7516 24.0294 27.2674 23.2005 27.1088 22.9116C26.972 23.0883 27.155 23.4999 27.155 23.4999C27.217 23.6087 27.361 23.8858 27.361 23.8858C27.227 24.1624 27.4252 24.4683 27.694 24.5851C27.6184 24.6157 27.3668 24.5831 27.1904 24.4904C27.2558 24.6112 27.4922 24.8986 27.6104 24.9808C27.2702 24.9046 26.4892 24.3456 26.0612 24.0249ZM28.947 22.8595C28.937 22.8307 28.9312 22.8144 28.9312 22.8144C28.9312 22.8144 28.934 22.8262 28.939 22.8437C28.9132 22.7956 28.8872 22.7473 28.8598 22.6977C28.7978 22.5744 28.723 22.4604 28.643 22.3494C27.9578 21.3276 26.9604 20.481 26.9604 20.481L26.9764 20.7295C26.977 20.7295 26.98 20.7308 26.98 20.7308L27.0108 21.1189C27.0108 21.1189 23.7966 19.4291 22.4254 17.8718C21.3624 16.6639 20.139 15.3472 19.4142 13.7301L19.146 13.3427C18.2202 12.3468 17.2546 12.5347 15.1398 10.32C14.415 9.56024 13.6144 8.06543 13.3608 7.07673C12.824 4.98856 12.9198 2.61148 13.4904 0.537611C13.4904 0.537611 13.7586 -0.170515 12.2944 1.93522L12.295 1.93395C11.5622 2.98709 11.0492 4.18648 10.8042 5.40996C10.6796 6.03536 10.6234 6.66529 10.6458 7.28544C10.1492 6.39015 9.7516 5.41575 9.4792 4.41022C9.1196 3.08556 8.979 1.70895 9.1254 0.391533C9.1254 0.391533 8.8682 0.164723 7.9796 2.31354C7.0906 4.46362 6.95 6.29819 7.3586 8.35306C5.725 7.10026 5.3554 4.80537 4.8122 2.98908C4.8122 2.98908 4.8114 2.98908 4.8114 2.99035H4.8106C4.81 2.99035 4.8092 2.99179 4.8078 2.99234H4.807C4.8028 2.99632 4.7956 3.00483 4.787 3.02039C4.766 3.05569 4.738 3.13516 4.72 3.3035C4.72 3.43455 4.7012 3.56488 4.7012 3.69539C4.6024 4.60517 4.5096 7.07619 5.9102 9.65871C5.9406 9.71863 5.9678 9.78126 5.9988 9.8399C6.1978 10.2202 6.4334 10.5632 6.6474 10.903C7.0018 11.469 7.2778 11.6073 7.6756 12.1062C7.6338 12.1002 5.23 11.6437 4.3502 11.5244C4.8828 11.8401 5.857 12.6409 6.9644 13.58C6.9644 13.58 10.2812 13.8213 12.8844 15.5645C12.8844 15.5645 10.6306 14.566 7.922 14.3958C8.0812 14.5314 8.2406 14.6672 8.4004 14.8035C9.1722 15.4602 9.9468 16.1142 10.6364 16.6647L10.6262 16.6639L8.67 16.4885L11.4822 18.5474L11.9874 18.5631C11.9874 18.5631 12.932 18.5331 13.8674 18.7242C14.8646 18.929 15.3942 19.2217 15.3942 19.2217C14.8372 19.051 13.9106 19.0247 13.3514 19.0575C12.953 19.0803 12.6928 19.1813 12.4032 19.2179L12.5682 19.3371L14.3422 20.6285L15.9224 20.6663C14.5886 21.4175 13.2794 21.7137 11.6004 21.2043C10.7084 20.9337 9.8438 20.5098 9.1096 19.975C9.4064 20.6343 10.096 21.201 10.632 21.7006C8.863 21.5774 7.4378 21.2068 5.8216 20.5371C6.4398 21.4052 6.9312 21.9953 7.4212 22.4576C7.9106 22.9194 8.5856 23.4196 8.9236 23.6029C9.1384 23.7197 10.127 23.715 10.7804 23.6576C10.903 23.6473 11.0154 23.6355 11.1068 23.6212C11.2568 23.5989 11.444 23.5624 11.6436 23.5207C12.316 23.3805 13.1252 23.1757 13.0804 23.2025C12.7886 23.3739 12.4702 23.5423 12.1344 23.6981C11.9362 23.7901 11.7324 23.8781 11.524 23.959C10.5838 24.3241 9.5592 24.5511 8.6252 24.4441C9.6694 24.782 10.7624 25.0291 11.8692 25.1236C12.2496 25.1569 12.388 25.1517 12.7194 25.0121C13.2138 24.8054 13.6216 24.6352 14.0144 24.4656C14.2132 24.3789 14.4106 24.2915 14.6102 24.199C14.8862 24.0725 15.17 23.9382 15.4878 23.7776C15.3048 23.9334 15.1204 24.079 14.9316 24.2238C14.8256 24.3033 14.7176 24.3842 14.608 24.4664C14.2262 24.7493 13.8176 25.0429 13.3514 25.4132C14.6008 25.4922 15.3242 25.6793 16.9836 25.2098C16.9836 25.2098 16.6422 25.4406 16.1674 25.6898L16.6594 26.5636L16.1256 26.3465L16.4764 26.9399C16.4764 26.9399 16.7258 27.2198 17.081 27.4533L17.2014 27.8033C16.9268 27.7297 16.5752 27.4643 16.4008 27.3593C16.6782 28.3676 17.3404 28.1699 17.5314 28.781C17.6596 29.1937 18.1424 29.9333 17.8692 30.3259C17.5486 30.7883 17.3382 30.7557 16.8864 31.124C16.3626 31.5492 16.766 32.0814 16.8742 32.251C16.9822 31.7534 17.3922 31.4294 17.625 31.3661C17.9904 31.2688 18.4284 31.3432 18.5884 31.1984C19.1656 30.6775 20.407 30.545 21.266 31.0315C20.8682 30.4498 20.6636 30.4673 19.8724 30.2606C21.2702 30.3442 21.3624 30.6214 22.0462 31.3413C22.1024 30.9311 21.7264 30.4094 21.405 30.1596C21.3048 30.0827 20.1938 29.9411 19.1144 29.8564C18.7354 29.8263 18.5818 29.3854 18.5272 29.1481C18.5934 29.1827 18.899 29.328 19.1966 29.3248C19.1208 28.9805 19.0164 28.5898 18.9536 28.3551C19.0604 28.3989 19.1692 28.4601 19.4084 28.4673L19.252 27.8895C19.1784 27.4277 19.0128 27.0938 19.5028 26.3882C19.773 26.5598 19.8926 26.634 20.015 26.7587C20.015 26.7587 20.1166 27.1995 20.2284 27.435C20.25 27.4793 20.7312 27.8517 20.7486 27.8966L19.92 27.6795C19.92 27.6795 20.1966 28.2488 20.7436 28.5768C21.0678 28.6805 21.356 28.7986 21.4504 28.9126C21.5476 29.0313 21.7112 29.351 21.6342 29.5224C21.5722 29.6607 21.132 29.0699 20.2052 29.7742C20.838 29.7833 21.5966 29.9398 21.7602 30.1145C21.972 30.3415 22.1242 30.5477 22.2768 30.6304C22.9498 30.9957 22.9968 31.1874 22.9426 31.904C23.3592 31.6133 23.2424 30.8547 23.1798 30.6715C23.7316 31.2708 23.6106 32.0847 23.442 32.4029C23.8556 32.1949 24.3572 31.3673 23.8838 30.7133C23.7554 30.6083 23.0558 30.1341 22.9196 29.9932C22.5686 29.6301 22.4808 29.2218 22.3086 28.8076C22.4304 28.8141 22.5832 28.8585 22.7056 28.8572C22.6436 28.6121 22.5564 28.2924 22.4888 27.9396C22.483 27.9078 22.4764 27.875 22.4708 27.8432C22.4686 27.8301 22.4664 27.8164 22.4642 27.8033C22.4556 27.7512 22.447 27.6984 22.439 27.6442C22.4376 27.6319 22.4362 27.6182 22.4346 27.6059C22.4268 27.5517 22.4202 27.4969 22.4144 27.4415C22.6414 27.5731 22.7978 27.6292 22.7978 27.6292L22.4088 26.6745V26.6718C22.416 26.6001 22.426 26.5277 22.439 26.4553C22.439 26.4515 22.4404 26.4456 22.4412 26.4418C22.4526 26.3764 22.4678 26.3105 22.4844 26.2461C22.4872 26.2356 22.4902 26.2245 22.493 26.214C22.5082 26.1547 22.5284 26.096 22.55 26.0374C22.555 26.0231 22.5586 26.0093 22.5644 25.995C22.5918 25.9251 22.6228 25.8547 22.6574 25.7868C22.4816 26.1286 22.9988 26.6224 22.9988 26.6224C23.0638 25.8658 23.811 25.1596 24.4378 24.9046C24.4032 25.1146 24.5236 25.3258 24.5236 25.3258C24.7088 24.9685 25.087 24.8282 25.358 24.7723L26.4028 25.1524L26.544 25.204C26.544 25.204 26.6406 25.5906 26.8784 25.7635C27.1074 25.9311 27.3452 26.0544 27.9166 26.3869C27.8742 26.5154 27.7452 26.636 27.488 26.7202C28.3 26.9953 29.3238 26.6648 29.179 25.875C29.1278 25.5964 28.9924 24.8277 28.9924 24.8277V24.8249L29.1848 24.2576L29.2418 24.088L29.2474 24.0705L29.2742 23.9923C29.272 23.6265 29.143 23.2389 28.947 22.8595Z" fill="#1B458F"/>
<path d="M33.7714 5.8967L33.8182 5.90068C32.5118 5.97237 31.2176 6.31466 30.1398 6.93427C31.0274 5.36977 32.988 4.31012 34.7218 3.68924C34.7218 3.68924 34.9358 3.38785 32.8412 3.6715C32.5688 3.69956 32.2986 3.73884 32.0312 3.79224C32.0268 3.79296 32.0232 3.7935 32.019 3.79423H32.0226C30.8712 4.02502 29.7774 4.48751 28.8536 5.14676C28.3326 5.51983 27.8636 5.95354 27.4708 6.44318C25.7048 8.56865 25.1082 10.4278 25.1082 10.4278C25.1082 10.4278 24.853 7.68421 28.726 4.06412C29.1526 3.41917 29.6318 2.80426 30.1606 2.24276C30.1606 2.24276 30.25 1.83258 28.0574 3.33825C26.4714 4.34125 25.0866 5.65939 24.0878 7.13122C23.729 7.71299 22.9608 9.01792 22.7382 9.88136C22.7404 9.9067 22.7418 9.93349 22.744 9.95901C22.744 9.95901 22.7678 10.4762 22.873 11.1642C23.0006 11.9963 23.3774 13.1454 23.3774 13.1454C23.1208 12.6713 22.6626 11.6258 22.5106 11.1445C22.4364 10.9092 22.3772 10.6874 22.326 10.4742C22.2944 10.3411 22.2698 10.2139 22.2462 10.0881C22.2332 10.0209 22.2208 9.95105 22.2086 9.87937C22.1906 9.76587 22.1718 9.6531 22.1582 9.54286C22.1092 9.14119 22.0904 8.76088 22.084 8.37876C22.076 7.87464 22.1006 7.41885 22.1258 7.08958C21.1192 9.1783 21.024 10.7871 21.0218 11.4316C20.9722 11.8423 20.9448 12.1489 20.926 12.4058C21.1868 13.0768 21.6502 13.9723 22.4802 15.1076C22.4802 15.1076 21.7338 14.7314 20.8554 13.3403C20.8202 13.6468 20.7582 13.9958 20.6242 14.539C21.62 16.0702 22.6186 17.2486 23.5214 18.1481V16.3258C23.8442 16.6187 24.067 16.8462 24.2196 17.0223C24.3638 16.429 24.5662 15.7167 24.848 14.959C26.6032 10.2309 28.6842 8.79039 28.6842 8.79039C26.769 11.4987 25.0116 16.9755 25.085 19.5325C25.4562 19.8188 25.7876 20.0484 26.0628 20.2232C25.9152 20.021 25.7898 19.7913 25.758 19.6121C26.6104 15.9587 29.2694 13.5744 29.2694 13.5744C29.8486 8.34039 36.3934 6.12243 36.3934 6.12243C36.926 5.76963 33.7714 5.8967 33.7714 5.8967Z" fill="#1B458F"/>
<path d="M34.7528 36.0478V33.0877C34.4098 33.3257 34.0878 33.5382 33.7838 33.7314V34.6038H33.288V34.0366C31.1616 35.3089 30.1096 35.4419 30.1096 35.4419C31.5428 34.7787 32.5674 34.1285 33.288 33.5768V32.4473C30.6752 34.4786 28.3292 35.5247 27.4616 35.8749C27.4616 35.931 27.4616 36.1037 27.4624 36.345H31.942C32.8362 36.2107 33.7924 36.1463 34.7522 36.1834" fill="#D3D2D2"/>
<path d="M30.7084 36.5814C30.0074 36.7458 29.3712 36.9485 28.8364 37.1703V36.5814H30.7084Z" fill="#A7A5A6"/>
<path d="M25.08 39.0638C24.9056 39.1343 24.5936 39.2583 24.4624 39.3084L24.4646 38.7072V37.4733H25.08V39.0638Z" fill="#A7A5A6"/>
<path d="M24.4648 35.8543H25.0794V37.2519H24.4648V35.8543Z" fill="#A7A5A6"/>
<path d="M27.2138 37.9104V37.4736H26.6648V38.3143C26.8472 38.2191 27.0308 38.1199 27.216 38.0174L27.2138 37.9104Z" fill="#A7A5A6"/>
<path d="M26.6646 35.8543H27.2136V37.2519H26.6646V35.8543Z" fill="#A7A5A6"/>
<path d="M25.7478 38.7704V37.4735H25.3248V38.4033L25.324 38.9623C25.4646 38.9009 25.6058 38.8358 25.7478 38.7704Z" fill="#A7A5A6"/>
<path d="M25.3244 35.8543H25.7474V37.2519H25.3244V35.8543Z" fill="#A7A5A6"/>
<path d="M25.991 35.8543H26.414V37.2519H25.991V35.8543Z" fill="#A7A5A6"/>
<path d="M26.4134 38.4437V37.4735H25.9898V38.6538C26.131 38.586 26.2722 38.5161 26.4134 38.4437Z" fill="#A7A5A6"/>
<path d="M24.4648 34.6687H27.2158V35.6331H24.4648V34.6687Z" fill="#A7A5A6"/>
<path d="M13.51 38.0625C13.3098 37.9738 13.108 37.8845 12.9048 37.7964L12.904 37.6889V37.4729H13.51V38.0625Z" fill="#A7A5A6"/>
<path d="M12.905 35.8543H13.5196V37.2519H12.905V35.8543Z" fill="#A7A5A6"/>
<path d="M15.0896 38.7547C15.2754 38.8336 15.4622 38.9112 15.6472 38.9862L15.653 37.903V37.4733H15.0896V38.7547Z" fill="#A7A5A6"/>
<path d="M15.1026 35.8543H15.6532V37.2519H15.1026V35.8543Z" fill="#A7A5A6"/>
<path d="M13.7546 35.8543H14.1768V37.2519H13.7546V35.8543Z" fill="#A7A5A6"/>
<path d="M14.4298 35.8543H14.8456V37.2519H14.4298V35.8543Z" fill="#A7A5A6"/>
<path d="M12.9042 34.6687H15.6552V35.6331H12.9042V34.6687Z" fill="#A7A5A6"/>
<path d="M14.424 38.4663C14.5524 38.523 14.7124 38.5994 14.8464 38.6587V37.4736H14.4226V38.3782L14.424 38.4663Z" fill="#A7A5A6"/>
<path d="M12.237 37.5117C12.379 37.571 12.5196 37.6304 12.66 37.691V36.5816H12.2364V37.3219L12.237 37.5117Z" fill="#A7A5A6"/>
<path d="M13.7544 38.1707L13.825 38.2013C13.9424 38.2534 14.0592 38.3056 14.1766 38.3572V37.4735H13.7544V38.1707Z" fill="#A7A5A6"/>
<path d="M5.4856 35.0024V33.0871C5.8278 33.3257 6.15 33.5384 6.454 33.7314V34.604H6.9498V34.0373C9.0762 35.3089 10.1282 35.4414 10.1282 35.4414C8.695 34.7782 7.671 34.1285 6.9498 33.5762V32.4473C9.453 34.3933 11.7112 35.4354 12.6594 35.8268V36.3459C12.6594 36.3459 8.8506 36.3628 8.7554 36.3447C7.6458 36.1294 6.5254 36.1149 5.4856 36.2076" fill="#D3D2D2"/>
<path d="M11.3224 37.154C10.7892 36.9543 10.0724 36.6922 9.6732 36.5715H11.3224V37.154Z" fill="#A7A5A6"/>
<path d="M11.5684 37.121V36.5811H11.992V37.121L11.9906 37.4092C11.9488 37.3916 11.7888 37.3303 11.567 37.2463L11.5684 37.121Z" fill="#A7A5A6"/>
<path d="M27.9252 37.4735V36.5812H27.461V37.8829C27.6138 37.7969 27.7688 37.7088 27.9244 37.6195L27.9252 37.4735Z" fill="#A7A5A6"/>
<path d="M28.5934 37.2749V36.5816H28.1696V37.1694L28.174 37.4791C28.3036 37.4099 28.4442 37.3415 28.5934 37.2749Z" fill="#A7A5A6"/>
<path d="M24.2242 35.6334V34.9507C24.2242 32.869 22.3608 31.182 20.0608 31.182C17.7608 31.182 15.8976 32.869 15.8976 34.9507V35.6334L16.6066 35.6327C16.5612 35.4307 16.5374 35.2207 16.5374 35.0055C16.5374 33.2564 18.1038 31.8392 20.0356 31.8392C21.9682 31.8392 23.534 33.2564 23.534 35.0055C23.534 35.2207 23.5102 35.432 23.4654 35.6354L24.2242 35.6334Z" fill="#A7A5A6"/>
<path d="M6.4544 33.1731V32.043L5.486 31.1561V32.1506C5.6186 32.3372 5.9112 32.7003 6.4544 33.1731Z" fill="#D3D2D2"/>
<path d="M34.7528 32.1506C34.6196 32.3372 34.327 32.7003 33.7838 33.1731V32.043L34.7528 31.1568V32.1506Z" fill="#D3D2D2"/>
<path d="M19.3614 38.6267C19.2498 38.6267 19.1734 38.6933 19.1734 38.8088C19.1734 38.9188 19.234 38.9802 19.3614 38.9802C19.4392 38.9802 19.5092 38.9574 19.5762 38.9111V38.9053C19.5762 38.7252 19.489 38.6267 19.3614 38.6267Z" fill="#A7A5A6"/>
<path d="M20.4142 38.6314C20.2686 38.6314 20.1888 38.7579 20.1888 38.9882C20.1888 39.219 20.2686 39.3462 20.4142 39.3462C20.559 39.3462 20.6368 39.219 20.6368 38.9882C20.6368 38.7579 20.559 38.6314 20.4142 38.6314Z" fill="#A7A5A6"/>
<path d="M21.3794 39.4941C21.2454 39.4941 21.1402 39.4655 21.0544 39.4237L21.0846 39.2626C21.166 39.3062 21.2662 39.339 21.3808 39.339C21.5054 39.339 21.5984 39.2821 21.5984 39.1686C21.5984 39.0722 21.5286 39.0128 21.4016 39.0128C21.3296 39.0128 21.2784 39.0253 21.2338 39.0416L21.0976 39.0141L21.1358 38.5016H21.736L21.7634 38.6575H21.2964L21.277 38.885C21.3174 38.8745 21.3678 38.8647 21.4392 38.8647C21.6532 38.8647 21.793 38.9757 21.793 39.1596C21.793 39.3761 21.6178 39.4941 21.3794 39.4941ZM20.4146 39.4941C20.1566 39.4941 19.985 39.3135 19.985 38.9887C19.985 38.6653 20.1566 38.4826 20.4146 38.4826C20.6704 38.4826 20.8426 38.6653 20.8426 38.9887C20.8426 39.3135 20.6704 39.4941 20.4146 39.4941ZM19.1486 39.4954L19.1226 39.3415C19.3374 39.3024 19.5044 39.2163 19.5606 39.0494C19.4844 39.0937 19.4 39.121 19.3028 39.121C19.1088 39.121 18.9792 39.0161 18.9792 38.8191C18.9792 38.6169 19.1434 38.4826 19.3632 38.4826C19.5988 38.4826 19.7646 38.6254 19.7646 38.8955C19.7646 39.2373 19.5074 39.4315 19.1486 39.4954ZM18.7206 39.4753H18.5174V38.6803L18.2976 38.7565L18.2752 38.6111L18.5404 38.5002H18.7206V39.4753ZM23.4056 35.8603C22.9926 37.194 21.641 38.1716 20.0362 38.1716C18.4308 38.1716 17.0776 37.1927 16.6662 35.8585L15.8974 35.8545V38.4578L15.896 39.0847C17.3406 39.6532 18.7876 40.0699 20.3598 40.0699H20.3908C21.7626 40.0654 22.997 39.8266 24.2184 39.3996L24.224 35.8532L23.4056 35.8603Z" fill="#A7A5A6"/>
<path d="M4.5378 30.745C4.6834 30.7698 4.8232 30.8017 4.955 30.8382V32.53C4.8224 32.4927 4.6834 32.4614 4.5378 32.4366V30.745Z" fill="#A7A5A6"/>
<path d="M4.296 32.4027C4.1604 32.3879 4.0206 32.3774 3.8788 32.3741L3.8794 30.6824C3.9472 30.6844 4.015 30.6871 4.0826 30.6916C4.1548 30.6968 4.226 30.7034 4.296 30.7111V32.4027Z" fill="#A7A5A6"/>
<path d="M3.2186 32.4027C3.354 32.3879 3.4938 32.3774 3.6366 32.3741V30.6824C3.4938 30.6856 3.354 30.6954 3.2186 30.7111V32.4027Z" fill="#A7A5A6"/>
<path d="M2.5606 32.5307C2.6932 32.4923 2.8314 32.4615 2.977 32.4367V30.7452C2.8314 30.77 2.6932 30.8018 2.5606 30.8384V32.5307Z" fill="#A7A5A6"/>
<path d="M2.1832 29.3706C2.2734 29.3335 2.3678 29.2989 2.4672 29.2683V29.4717L2.1832 29.3706Z" fill="#A7A5A6"/>
<path d="M3.6364 29.9643C3.4936 29.9675 3.3538 29.9773 3.2184 29.9929V29.1124C3.3538 29.0974 3.4936 29.0876 3.6364 29.0831V29.9643Z" fill="#A7A5A6"/>
<path d="M4.296 29.1126C4.1604 29.0976 4.0206 29.0871 3.8788 29.0838V29.9643C4.0206 29.9675 4.1604 29.9766 4.296 29.9929V29.1126Z" fill="#A7A5A6"/>
<path d="M4.5378 29.1465C4.6834 29.1713 4.8224 29.2033 4.955 29.2397V30.1194C4.8232 30.083 4.6834 30.051 4.5378 30.0275V29.1465Z" fill="#A7A5A6"/>
<path d="M2.9768 30.0271C2.832 30.0513 2.6922 30.0832 2.5602 30.1198V29.24C2.6928 29.2035 2.832 29.1714 2.9768 29.1461V30.0271Z" fill="#A7A5A6"/>
<path d="M5.0486 29.2681C5.1494 29.2994 5.2452 29.334 5.336 29.3725L5.0486 29.4723V29.2681Z" fill="#A7A5A6"/>
<path d="M2.1832 30.9691C2.2734 30.9313 2.3678 30.8974 2.4672 30.8668V31.0703L2.1832 30.9691Z" fill="#A7A5A6"/>
<path d="M5.0486 30.8666C5.1494 30.8979 5.2452 30.9325 5.336 30.9711L5.0486 31.0708V30.8666Z" fill="#A7A5A6"/>
<path d="M5.3362 28.8C4.903 28.6186 4.354 28.5104 3.7582 28.5104C3.163 28.5104 2.616 28.6186 2.183 28.7987V29.1658C2.616 28.9852 3.163 28.8782 3.7582 28.8782C4.354 28.8782 4.903 28.9864 5.3362 29.1671V28.8Z" fill="#A7A5A6"/>
<path d="M5.3362 30.4121C4.903 30.2315 4.354 30.1225 3.7582 30.1225C3.163 30.1225 2.616 30.2302 2.183 30.4108V30.7779C2.616 30.598 3.163 30.4898 3.7582 30.4898C4.354 30.4898 4.903 30.5986 5.3362 30.7792V30.4121Z" fill="#A7A5A6"/>
<path d="M5.3362 28.6385C4.903 28.4572 4.354 28.3482 3.7582 28.3482C3.163 28.3482 2.616 28.4564 2.183 28.6366L3.4338 27.5584C3.5398 27.5507 3.6478 27.5474 3.7582 27.5474C3.8684 27.5474 3.9758 27.5506 4.0824 27.5579L5.3362 28.6385Z" fill="#A7A5A6"/>
<path d="M3.4336 27.2569V27.435C3.5394 27.4277 3.6482 27.4245 3.7578 27.4245C3.868 27.4245 3.9762 27.4277 4.082 27.435V27.2569C4.082 27.1897 3.9206 27.1872 3.8788 27.1859C3.8392 27.1859 3.7982 27.1852 3.7578 27.1852C3.7168 27.1852 3.6764 27.1859 3.636 27.1859C3.5928 27.1872 3.4336 27.1859 3.4336 27.2569Z" fill="#A7A5A6"/>
<path d="M4.955 34.3649C4.8224 34.3265 4.6834 34.2958 4.5378 34.2711V32.6257C4.6834 32.6498 4.8224 32.6811 4.955 32.7182V34.3649Z" fill="#A7A5A6"/>
<path d="M4.296 34.2369C4.1612 34.2214 4.0206 34.2123 3.8788 34.2083V32.5624C4.0206 32.5656 4.1612 32.5759 4.296 32.591V34.2369Z" fill="#A7A5A6"/>
<path d="M3.6364 34.2087C3.4936 34.2121 3.3538 34.2212 3.2184 34.2367V32.5908C3.3538 32.5745 3.4936 32.566 3.6364 32.5615V34.2087Z" fill="#A7A5A6"/>
<path d="M2.9768 34.2715C2.832 34.2956 2.6928 34.3276 2.5602 34.3647V32.718C2.6928 32.6809 2.832 32.6502 2.9768 32.6254V34.2715Z" fill="#A7A5A6"/>
<path d="M37.2636 30.745C37.4092 30.7698 37.5482 30.8017 37.6802 30.8382V32.53C37.5482 32.4927 37.4092 32.4614 37.2636 32.4366V30.745Z" fill="#A7A5A6"/>
<path d="M37.0216 32.4027C36.8862 32.3879 36.747 32.3774 36.6044 32.3741V30.6824C36.6736 30.6844 36.7406 30.6871 36.8084 30.6916C36.8804 30.6968 36.9518 30.7034 37.0216 30.7111V32.4027Z" fill="#A7A5A6"/>
<path d="M35.9444 32.4027C36.08 32.3879 36.219 32.3774 36.3624 32.3741V30.6824C36.219 30.6856 36.08 30.6954 35.9444 30.7111V32.4027Z" fill="#A7A5A6"/>
<path d="M35.286 32.5307C35.4186 32.4923 35.5578 32.4615 35.7026 32.4367V30.7452C35.5578 30.77 35.4186 30.8018 35.286 30.8384V32.5307Z" fill="#A7A5A6"/>
<path d="M34.909 29.3706C34.9992 29.3335 35.0936 29.2989 35.193 29.2683V29.4717L34.909 29.3706Z" fill="#A7A5A6"/>
<path d="M36.3622 29.9643C36.2194 29.9675 36.0796 29.9773 35.9442 29.9929V29.1124C36.0796 29.0974 36.2194 29.0876 36.3622 29.0831V29.9643Z" fill="#A7A5A6"/>
<path d="M37.0216 29.1126C36.8862 29.0976 36.747 29.0871 36.6044 29.0838V29.9643C36.747 29.9675 36.8862 29.9766 37.0216 29.9929V29.1126Z" fill="#A7A5A6"/>
<path d="M37.2636 29.1465C37.4092 29.1713 37.5482 29.2033 37.6802 29.2397V30.1194C37.5482 30.083 37.4092 30.051 37.2636 30.0275V29.1465Z" fill="#A7A5A6"/>
<path d="M35.7024 30.0271C35.5576 30.0513 35.4178 30.0832 35.2858 30.1198V29.24C35.4184 29.2035 35.5576 29.1714 35.703 29.1461L35.7024 30.0271Z" fill="#A7A5A6"/>
<path d="M37.7744 29.2681C37.8746 29.2994 37.9712 29.334 38.062 29.3725L37.7744 29.4723V29.2681Z" fill="#A7A5A6"/>
<path d="M34.909 30.9691C34.9992 30.9313 35.0936 30.8974 35.193 30.8668V31.0703L34.909 30.9691Z" fill="#A7A5A6"/>
<path d="M37.7744 30.8666C37.8746 30.8979 37.9712 30.9325 38.062 30.9711L37.7744 31.0708V30.8666Z" fill="#A7A5A6"/>
<path d="M38.062 28.8C37.6282 28.6186 37.0798 28.5104 36.484 28.5104C35.8888 28.5104 35.3418 28.6186 34.9088 28.7987V29.1658C35.3418 28.9852 35.8888 28.8782 36.484 28.8782C37.0798 28.8782 37.6288 28.9864 38.062 29.1671V28.8Z" fill="#A7A5A6"/>
<path d="M38.062 30.4121C37.6282 30.2315 37.0798 30.1225 36.484 30.1225C35.8888 30.1225 35.3418 30.2302 34.9088 30.4108V30.7779C35.3418 30.598 35.8888 30.4898 36.484 30.4898C37.0798 30.4898 37.6288 30.5986 38.062 30.7792V30.4121Z" fill="#A7A5A6"/>
<path d="M38.062 28.6385C37.6282 28.4572 37.0798 28.3482 36.484 28.3482C35.8888 28.3482 35.3418 28.4564 34.9088 28.6366L36.159 27.5584C36.2656 27.5507 36.3736 27.5474 36.484 27.5474C36.5942 27.5474 36.7016 27.5506 36.8082 27.5579L38.062 28.6385Z" fill="#A7A5A6"/>
<path d="M36.1592 27.2569V27.435C36.2658 27.4277 36.3732 27.4245 36.4834 27.4245C36.593 27.4245 36.7018 27.4277 36.8078 27.435V27.2569C36.8078 27.1897 36.6464 27.1872 36.6046 27.1859C36.5642 27.1859 36.5238 27.1852 36.4834 27.1852C36.4432 27.1852 36.402 27.1859 36.3618 27.1859C36.3184 27.1872 36.1592 27.1859 36.1592 27.2569Z" fill="#A7A5A6"/>
<path d="M37.6806 34.3649C37.548 34.3265 37.4088 34.2958 37.264 34.2711V32.6257C37.4088 32.6498 37.548 32.6811 37.6806 32.7182V34.3649Z" fill="#A7A5A6"/>
<path d="M37.0216 34.2369C36.8862 34.2214 36.747 34.2123 36.6044 34.2083V32.5624C36.747 32.5656 36.8862 32.5759 37.0216 32.591V34.2369Z" fill="#A7A5A6"/>
<path d="M36.3622 34.2087C36.2194 34.2121 36.0796 34.2212 35.9442 34.2367V32.5908C36.0796 32.5745 36.2194 32.566 36.3622 32.5615V34.2087Z" fill="#A7A5A6"/>
<path d="M35.7024 34.2715C35.5576 34.2956 35.4184 34.3276 35.2858 34.3647V32.718C35.4184 32.6809 35.5576 32.6502 35.7024 32.6254V34.2715Z" fill="#A7A5A6"/>
<path d="M2.9738 36.6243C2.8312 36.6609 2.6928 36.6973 2.561 36.7346C2.561 36.5146 2.5602 35.9062 2.5602 35.9062V34.566C2.5602 34.566 2.832 34.4971 2.9768 34.4723V35.7582L2.9738 36.6243ZM3.6404 36.469C3.4948 36.4998 3.3528 36.5316 3.2152 36.5642C3.2152 36.4737 3.2188 35.708 3.2188 35.708V34.4382C3.2188 34.4382 3.4934 34.4129 3.636 34.4096L3.641 35.708L3.6404 36.469ZM4.296 34.4382C4.1606 34.4219 3.8788 34.4096 3.8788 34.4096V35.708C3.8788 35.708 3.8768 36.3144 3.8768 36.4201C4.0136 36.3933 4.1526 36.368 4.294 36.3439L4.296 34.4382ZM4.9554 35.6532V34.566C4.8228 34.5282 4.5382 34.4723 4.5382 34.4723V35.6532L4.5346 36.3047C4.5346 36.3047 4.8112 36.2636 4.9524 36.246L4.9554 35.6532ZM35.702 35.8776V34.4723C35.558 34.4971 35.2862 34.566 35.2862 34.566V36.0263C35.2862 36.0263 35.2898 36.0543 35.2898 36.2225C35.4276 36.233 35.5652 36.2467 35.7028 36.2623M36.3664 35.8052L36.362 34.4096C36.2194 34.4129 35.9448 34.4382 35.9448 34.4382V35.8052C35.9448 35.8052 35.9392 36.1651 35.9392 36.2916C36.0832 36.3112 36.2258 36.3327 36.3678 36.357M37.0228 36.4925C36.8838 36.4587 36.744 36.4279 36.6028 36.3999C36.6028 36.3041 36.6042 35.8052 36.6042 35.8052V34.4096C36.6042 34.4096 36.8866 34.4219 37.0222 34.4382L37.0228 36.4925ZM37.6806 36.6772C37.5416 36.6314 37.4018 36.591 37.2598 36.5525C37.2598 36.4527 37.2634 35.7393 37.2634 35.7393V34.4723C37.2634 34.4723 37.5482 34.5282 37.6806 34.566V36.6772Z" fill="#A7A5A6"/>
<path d="M18.692 36.0862C19.2546 36.3647 19.7944 36.4951 20.1474 36.5539C20.1554 36.5552 20.1618 36.5564 20.1684 36.5564C20.1936 36.5564 20.218 36.5492 20.2374 36.5344C20.2634 36.5161 20.2786 36.4893 20.28 36.46C20.3038 35.9173 20.1704 35.4354 20.1122 35.2535C20.1034 35.226 20.0826 35.2032 20.0544 35.1909C19.3376 34.8765 18.7568 34.5322 18.3288 34.1656C18.0168 33.8983 17.7898 33.6251 17.6564 33.353C17.64 33.3199 17.6054 33.2977 17.5656 33.2937C17.5254 33.2899 17.4864 33.3069 17.4634 33.3362C17.227 33.6434 17.0534 34.0007 16.9626 34.3685C16.9576 34.3893 16.9604 34.4116 16.9706 34.4317C17.325 35.1393 17.9044 35.6963 18.692 36.0862Z" fill="#C4122E"/>
<path d="M18.477 34.0079C18.4978 34.0255 18.5252 34.0355 18.554 34.0355H18.5634C18.5952 34.0335 18.6246 34.0184 18.6434 33.9949C19.48 32.9731 20.3966 32.5935 21.0184 32.4545C21.0666 32.4447 21.1012 32.4056 21.1034 32.3607C21.1048 32.3156 21.0738 32.2753 21.0262 32.2615C20.7106 32.1683 20.3814 32.1212 20.0464 32.1212C19.6212 32.1212 19.2054 32.1976 18.8106 32.3495C18.4344 32.495 18.0986 32.7005 17.8104 32.9613C17.7838 32.9854 17.773 33.022 17.7816 33.0553C17.8278 33.2254 17.9776 33.5757 18.477 34.0079Z" fill="#C4122E"/>
<path d="M18.804 34.1403C18.7688 34.1839 18.778 34.2458 18.8256 34.2786C19.17 34.5217 19.5908 34.7559 20.0786 34.9749C20.0946 34.9814 20.1112 34.9847 20.1276 34.9847C20.1594 34.9847 20.1904 34.9731 20.212 34.9496C20.5038 34.6437 21.3318 33.9133 22.7166 33.7196C22.7526 33.7151 22.7844 33.6942 22.801 33.6647C22.8168 33.6354 22.816 33.6003 22.7974 33.5715C22.553 33.1816 22.2064 32.8444 21.795 32.5979C21.7778 32.5875 21.7568 32.5816 21.736 32.581C21.6112 32.5778 21.1414 32.5848 20.5434 32.8223C19.887 33.0824 19.3004 33.5259 18.804 34.1403Z" fill="#C4122E"/>
<path d="M23.0024 33.9687C22.9844 33.925 22.9362 33.8983 22.885 33.904C22.6394 33.9316 22.398 33.9777 22.1674 34.0436C22.1392 34.0516 22.1148 34.0697 22.1018 34.0932C22.0888 34.1173 22.086 34.1448 22.0952 34.1709C22.1768 34.3984 22.318 34.8622 22.3432 35.4074C22.359 35.7524 22.3258 36.0829 22.2452 36.3868C22.1912 36.589 22.1154 36.784 22.0204 36.9646C21.9972 37.0082 22.0118 37.0611 22.0542 37.0892C22.0744 37.1029 22.0968 37.1087 22.1206 37.1087C22.1478 37.1087 22.1746 37.1002 22.1962 37.0826C22.5398 36.7965 22.8036 36.45 22.9802 36.0548C23.2784 35.3851 23.2864 34.6429 23.0024 33.9687Z" fill="#C4122E"/>
<path d="M20.2098 36.8015C20.1932 36.7793 20.1672 36.7637 20.1376 36.759C19.7918 36.7016 19.2608 36.5783 18.6966 36.3162C18.0244 36.0038 17.4854 35.5773 17.0948 35.0491C17.0668 35.0113 17.0142 34.995 16.9666 35.0088C16.9198 35.0231 16.8888 35.0642 16.8908 35.1091C16.9054 35.4515 16.9888 35.786 17.1374 36.103C17.3592 36.5745 17.716 36.9834 18.1698 37.2866C18.6058 37.5763 19.1202 37.7614 19.6586 37.8221C19.6636 37.8234 19.6672 37.8234 19.6722 37.8234C19.704 37.8234 19.7342 37.8103 19.7558 37.7882C19.9908 37.543 20.15 37.2358 20.227 36.8777C20.2328 36.8509 20.2264 36.8236 20.2098 36.8015Z" fill="#C4122E"/>
<path d="M21.888 34.2518C21.878 34.2243 21.8562 34.2022 21.8274 34.1904C21.7986 34.1786 21.7648 34.1786 21.7366 34.191C20.9822 34.4963 20.519 34.9384 20.3546 35.1138C20.3302 35.1405 20.3216 35.1751 20.3324 35.2077C20.395 35.3969 20.5002 35.7822 20.5124 36.242C20.5196 36.5304 20.4886 36.801 20.4202 37.0475C20.3546 37.2816 20.253 37.4981 20.119 37.6872C20.0966 37.7198 20.096 37.7589 20.1168 37.7929C20.1378 37.8228 20.173 37.8418 20.2128 37.8418H20.2192C20.5362 37.8261 20.8532 37.7634 21.1616 37.6584C21.1754 37.6546 21.1884 37.6474 21.1992 37.6376C21.5256 37.3598 21.7698 37.0265 21.924 36.6484C22.053 36.3314 22.12 35.9786 22.1236 35.6011C22.128 35.0135 21.978 34.5034 21.888 34.2518Z" fill="#C4122E"/>
</svg>
